G04 #@! TF.GenerationSoftware,KiCad,Pcbnew,5.99.0+really5.1.10+dfsg1-1*
G04 #@! TF.CreationDate,2021-05-18T01:02:48-04:00*
G04 #@! TF.ProjectId,numpad_0,6e756d70-6164-45f3-902e-6b696361645f,rev?*
G04 #@! TF.SameCoordinates,Original*
G04 #@! TF.FileFunction,Legend,Top*
G04 #@! TF.FilePolarity,Positive*
%FSLAX46Y46*%
G04 Gerber Fmt 4.6, Leading zero omitted, Abs format (unit mm)*
G04 Created by KiCad (PCBNEW 5.99.0+really5.1.10+dfsg1-1) date 2021-05-18 01:02:48*
%MOMM*%
%LPD*%
G01*
G04 APERTURE LIST*
%ADD10C,0.200000*%
%ADD11C,0.381000*%
%ADD12C,0.150000*%
%ADD13C,0.120000*%
%ADD14C,2.200000*%
%ADD15C,3.987800*%
%ADD16C,1.750000*%
%ADD17C,1.752600*%
%ADD18C,3.048000*%
%ADD19C,2.000000*%
%ADD20R,3.200000X2.000000*%
%ADD21R,2.000000X2.000000*%
%ADD22C,1.600000*%
%ADD23R,1.200000X1.600000*%
G04 APERTURE END LIST*
D10*
X10291071Y-22168571D02*
X11362500Y-22168571D01*
X11576785Y-22240000D01*
X11719642Y-22382857D01*
X11791071Y-22597142D01*
X11791071Y-22740000D01*
X11791071Y-20740000D02*
X11791071Y-21454285D01*
X10291071Y-21454285D01*
X11648214Y-19382857D02*
X11719642Y-19454285D01*
X11791071Y-19668571D01*
X11791071Y-19811428D01*
X11719642Y-20025714D01*
X11576785Y-20168571D01*
X11433928Y-20240000D01*
X11148214Y-20311428D01*
X10933928Y-20311428D01*
X10648214Y-20240000D01*
X10505357Y-20168571D01*
X10362500Y-20025714D01*
X10291071Y-19811428D01*
X10291071Y-19668571D01*
X10362500Y-19454285D01*
X10433928Y-19382857D01*
X10291071Y-18311428D02*
X11362500Y-18311428D01*
X11576785Y-18382857D01*
X11719642Y-18525714D01*
X11791071Y-18740000D01*
X11791071Y-18882857D01*
X11791071Y-16882857D02*
X11791071Y-17597142D01*
X10291071Y-17597142D01*
X11648214Y-15525714D02*
X11719642Y-15597142D01*
X11791071Y-15811428D01*
X11791071Y-15954285D01*
X11719642Y-16168571D01*
X11576785Y-16311428D01*
X11433928Y-16382857D01*
X11148214Y-16454285D01*
X10933928Y-16454285D01*
X10648214Y-16382857D01*
X10505357Y-16311428D01*
X10362500Y-16168571D01*
X10291071Y-15954285D01*
X10291071Y-15811428D01*
X10362500Y-15597142D01*
X10433928Y-15525714D01*
X10291071Y-14454285D02*
X11362500Y-14454285D01*
X11576785Y-14525714D01*
X11719642Y-14668571D01*
X11791071Y-14882857D01*
X11791071Y-15025714D01*
X11791071Y-13025714D02*
X11791071Y-13740000D01*
X10291071Y-13740000D01*
X11648214Y-11668571D02*
X11719642Y-11739999D01*
X11791071Y-11954285D01*
X11791071Y-12097142D01*
X11719642Y-12311428D01*
X11576785Y-12454285D01*
X11433928Y-12525714D01*
X11148214Y-12597142D01*
X10933928Y-12597142D01*
X10648214Y-12525714D01*
X10505357Y-12454285D01*
X10362500Y-12311428D01*
X10291071Y-12097142D01*
X10291071Y-11954285D01*
X10362500Y-11739999D01*
X10433928Y-11668571D01*
X10291071Y-10597142D02*
X11362500Y-10597142D01*
X11576785Y-10668571D01*
X11719642Y-10811428D01*
X11791071Y-11025714D01*
X11791071Y-11168571D01*
X11791071Y-9168571D02*
X11791071Y-9882857D01*
X10291071Y-9882857D01*
X11648214Y-7811428D02*
X11719642Y-7882857D01*
X11791071Y-8097142D01*
X11791071Y-8239999D01*
X11719642Y-8454285D01*
X11576785Y-8597142D01*
X11433928Y-8668571D01*
X11148214Y-8739999D01*
X10933928Y-8739999D01*
X10648214Y-8668571D01*
X10505357Y-8597142D01*
X10362500Y-8454285D01*
X10291071Y-8239999D01*
X10291071Y-8097142D01*
X10362500Y-7882857D01*
X10433928Y-7811428D01*
D11*
X1968500Y-2540000D02*
X1968500Y-33020000D01*
X1968500Y-33020000D02*
X19748500Y-33020000D01*
X19748500Y-33020000D02*
X19748500Y-2540000D01*
X4508500Y-2540000D02*
X4508500Y-5080000D01*
X4508500Y-5080000D02*
X1968500Y-5080000D01*
D12*
G36*
X15790068Y-8419360D02*
G01*
X15790068Y-8719360D01*
X15690068Y-8719360D01*
X15690068Y-8419360D01*
X15790068Y-8419360D01*
G37*
X15790068Y-8419360D02*
X15790068Y-8719360D01*
X15690068Y-8719360D01*
X15690068Y-8419360D01*
X15790068Y-8419360D01*
G36*
X15590068Y-8819360D02*
G01*
X15590068Y-8919360D01*
X15490068Y-8919360D01*
X15490068Y-8819360D01*
X15590068Y-8819360D01*
G37*
X15590068Y-8819360D02*
X15590068Y-8919360D01*
X15490068Y-8919360D01*
X15490068Y-8819360D01*
X15590068Y-8819360D01*
G36*
X15790068Y-8419360D02*
G01*
X15790068Y-8519360D01*
X15290068Y-8519360D01*
X15290068Y-8419360D01*
X15790068Y-8419360D01*
G37*
X15790068Y-8419360D02*
X15790068Y-8519360D01*
X15290068Y-8519360D01*
X15290068Y-8419360D01*
X15790068Y-8419360D01*
G36*
X15390068Y-8419360D02*
G01*
X15390068Y-9219360D01*
X15290068Y-9219360D01*
X15290068Y-8419360D01*
X15390068Y-8419360D01*
G37*
X15390068Y-8419360D02*
X15390068Y-9219360D01*
X15290068Y-9219360D01*
X15290068Y-8419360D01*
X15390068Y-8419360D01*
G36*
X15790068Y-9019360D02*
G01*
X15790068Y-9219360D01*
X15690068Y-9219360D01*
X15690068Y-9019360D01*
X15790068Y-9019360D01*
G37*
X15790068Y-9019360D02*
X15790068Y-9219360D01*
X15690068Y-9219360D01*
X15690068Y-9019360D01*
X15790068Y-9019360D01*
D11*
X19748500Y-2540000D02*
X19748500Y0D01*
X19748500Y0D02*
X1968500Y0D01*
X1968500Y0D02*
X1968500Y-2540000D01*
X4508500Y-2540000D02*
X1968500Y-2540000D01*
D13*
X14112500Y-88265000D02*
G75*
G03*
X14112500Y-88265000I-3000000J0D01*
G01*
X13112500Y-82365000D02*
X17212500Y-82365000D01*
X17212500Y-94165000D02*
X13112500Y-94165000D01*
X9112500Y-94165000D02*
X5012500Y-94165000D01*
X9112500Y-82365000D02*
X5012500Y-82365000D01*
X5012500Y-82365000D02*
X5012500Y-94165000D01*
X3612500Y-84465000D02*
X3312500Y-84165000D01*
X3312500Y-84165000D02*
X3912500Y-84165000D01*
X3912500Y-84165000D02*
X3612500Y-84465000D01*
X17212500Y-82365000D02*
X17212500Y-84765000D01*
X17212500Y-86965000D02*
X17212500Y-89565000D01*
X17212500Y-91765000D02*
X17212500Y-94165000D01*
X11112500Y-87765000D02*
X11112500Y-88765000D01*
X10612500Y-88265000D02*
X11612500Y-88265000D01*
X14112500Y-64452500D02*
G75*
G03*
X14112500Y-64452500I-3000000J0D01*
G01*
X13112500Y-58552500D02*
X17212500Y-58552500D01*
X17212500Y-70352500D02*
X13112500Y-70352500D01*
X9112500Y-70352500D02*
X5012500Y-70352500D01*
X9112500Y-58552500D02*
X5012500Y-58552500D01*
X5012500Y-58552500D02*
X5012500Y-70352500D01*
X3612500Y-60652500D02*
X3312500Y-60352500D01*
X3312500Y-60352500D02*
X3912500Y-60352500D01*
X3912500Y-60352500D02*
X3612500Y-60652500D01*
X17212500Y-58552500D02*
X17212500Y-60952500D01*
X17212500Y-63152500D02*
X17212500Y-65752500D01*
X17212500Y-67952500D02*
X17212500Y-70352500D01*
X11112500Y-63952500D02*
X11112500Y-64952500D01*
X10612500Y-64452500D02*
X11612500Y-64452500D01*
X14112500Y-40640000D02*
G75*
G03*
X14112500Y-40640000I-3000000J0D01*
G01*
X13112500Y-34740000D02*
X17212500Y-34740000D01*
X17212500Y-46540000D02*
X13112500Y-46540000D01*
X9112500Y-46540000D02*
X5012500Y-46540000D01*
X9112500Y-34740000D02*
X5012500Y-34740000D01*
X5012500Y-34740000D02*
X5012500Y-46540000D01*
X3612500Y-36840000D02*
X3312500Y-36540000D01*
X3312500Y-36540000D02*
X3912500Y-36540000D01*
X3912500Y-36540000D02*
X3612500Y-36840000D01*
X17212500Y-34740000D02*
X17212500Y-37140000D01*
X17212500Y-39340000D02*
X17212500Y-41940000D01*
X17212500Y-44140000D02*
X17212500Y-46540000D01*
X11112500Y-40140000D02*
X11112500Y-41140000D01*
X10612500Y-40640000D02*
X11612500Y-40640000D01*
D12*
X17335500Y-77152500D02*
X18859500Y-77152500D01*
X17335500Y-77279500D02*
X18859500Y-77279500D01*
X18859500Y-77406500D02*
X17335500Y-77406500D01*
X17335500Y-77787500D02*
X18859500Y-77787500D01*
X18859500Y-77660500D02*
X17335500Y-77660500D01*
X17335500Y-77533500D02*
X18859500Y-77533500D01*
X17335500Y-72834500D02*
X17335500Y-73342500D01*
X18859500Y-72834500D02*
X17335500Y-72834500D01*
X18859500Y-77914500D02*
X18859500Y-72834500D01*
X17335500Y-77914500D02*
X18859500Y-77914500D01*
X17335500Y-72834500D02*
X17335500Y-77914500D01*
X17399000Y-53273500D02*
X18923000Y-53273500D01*
X17399000Y-53400500D02*
X18923000Y-53400500D01*
X18923000Y-53527500D02*
X17399000Y-53527500D01*
X17399000Y-53908500D02*
X18923000Y-53908500D01*
X18923000Y-53781500D02*
X17399000Y-53781500D01*
X17399000Y-53654500D02*
X18923000Y-53654500D01*
X17399000Y-48955500D02*
X17399000Y-49463500D01*
X18923000Y-48955500D02*
X17399000Y-48955500D01*
X18923000Y-54035500D02*
X18923000Y-48955500D01*
X17399000Y-54035500D02*
X18923000Y-54035500D01*
X17399000Y-48955500D02*
X17399000Y-54035500D01*
X77724000Y-91313000D02*
X79248000Y-91313000D01*
X77724000Y-91440000D02*
X79248000Y-91440000D01*
X79248000Y-91567000D02*
X77724000Y-91567000D01*
X77724000Y-91948000D02*
X79248000Y-91948000D01*
X79248000Y-91821000D02*
X77724000Y-91821000D01*
X77724000Y-91694000D02*
X79248000Y-91694000D01*
X77724000Y-86995000D02*
X77724000Y-87503000D01*
X79248000Y-86995000D02*
X77724000Y-86995000D01*
X79248000Y-92075000D02*
X79248000Y-86995000D01*
X77724000Y-92075000D02*
X79248000Y-92075000D01*
X77724000Y-86995000D02*
X77724000Y-92075000D01*
X60769500Y-91376500D02*
X62293500Y-91376500D01*
X60769500Y-91503500D02*
X62293500Y-91503500D01*
X62293500Y-91630500D02*
X60769500Y-91630500D01*
X60769500Y-92011500D02*
X62293500Y-92011500D01*
X62293500Y-91884500D02*
X60769500Y-91884500D01*
X60769500Y-91757500D02*
X62293500Y-91757500D01*
X60769500Y-87058500D02*
X60769500Y-87566500D01*
X62293500Y-87058500D02*
X60769500Y-87058500D01*
X62293500Y-92138500D02*
X62293500Y-87058500D01*
X60769500Y-92138500D02*
X62293500Y-92138500D01*
X60769500Y-87058500D02*
X60769500Y-92138500D01*
X58102500Y-91376500D02*
X59626500Y-91376500D01*
X58102500Y-91503500D02*
X59626500Y-91503500D01*
X59626500Y-91630500D02*
X58102500Y-91630500D01*
X58102500Y-92011500D02*
X59626500Y-92011500D01*
X59626500Y-91884500D02*
X58102500Y-91884500D01*
X58102500Y-91757500D02*
X59626500Y-91757500D01*
X58102500Y-87058500D02*
X58102500Y-87566500D01*
X59626500Y-87058500D02*
X58102500Y-87058500D01*
X59626500Y-92138500D02*
X59626500Y-87058500D01*
X58102500Y-92138500D02*
X59626500Y-92138500D01*
X58102500Y-87058500D02*
X58102500Y-92138500D01*
X22606000Y-91376500D02*
X24130000Y-91376500D01*
X22606000Y-91503500D02*
X24130000Y-91503500D01*
X24130000Y-91630500D02*
X22606000Y-91630500D01*
X22606000Y-92011500D02*
X24130000Y-92011500D01*
X24130000Y-91884500D02*
X22606000Y-91884500D01*
X22606000Y-91757500D02*
X24130000Y-91757500D01*
X22606000Y-87058500D02*
X22606000Y-87566500D01*
X24130000Y-87058500D02*
X22606000Y-87058500D01*
X24130000Y-92138500D02*
X24130000Y-87058500D01*
X22606000Y-92138500D02*
X24130000Y-92138500D01*
X22606000Y-87058500D02*
X22606000Y-92138500D01*
X19812000Y-91376500D02*
X21336000Y-91376500D01*
X19812000Y-91503500D02*
X21336000Y-91503500D01*
X21336000Y-91630500D02*
X19812000Y-91630500D01*
X19812000Y-92011500D02*
X21336000Y-92011500D01*
X21336000Y-91884500D02*
X19812000Y-91884500D01*
X19812000Y-91757500D02*
X21336000Y-91757500D01*
X19812000Y-87058500D02*
X19812000Y-87566500D01*
X21336000Y-87058500D02*
X19812000Y-87058500D01*
X21336000Y-92138500D02*
X21336000Y-87058500D01*
X19812000Y-92138500D02*
X21336000Y-92138500D01*
X19812000Y-87058500D02*
X19812000Y-92138500D01*
X77724000Y-72326500D02*
X79248000Y-72326500D01*
X77724000Y-72453500D02*
X79248000Y-72453500D01*
X79248000Y-72580500D02*
X77724000Y-72580500D01*
X77724000Y-72961500D02*
X79248000Y-72961500D01*
X79248000Y-72834500D02*
X77724000Y-72834500D01*
X77724000Y-72707500D02*
X79248000Y-72707500D01*
X77724000Y-68008500D02*
X77724000Y-68516500D01*
X79248000Y-68008500D02*
X77724000Y-68008500D01*
X79248000Y-73088500D02*
X79248000Y-68008500D01*
X77724000Y-73088500D02*
X79248000Y-73088500D01*
X77724000Y-68008500D02*
X77724000Y-73088500D01*
X77698600Y-53340000D02*
X79222600Y-53340000D01*
X77698600Y-53467000D02*
X79222600Y-53467000D01*
X79222600Y-53594000D02*
X77698600Y-53594000D01*
X77698600Y-53975000D02*
X79222600Y-53975000D01*
X79222600Y-53848000D02*
X77698600Y-53848000D01*
X77698600Y-53721000D02*
X79222600Y-53721000D01*
X77698600Y-49022000D02*
X77698600Y-49530000D01*
X79222600Y-49022000D02*
X77698600Y-49022000D01*
X79222600Y-54102000D02*
X79222600Y-49022000D01*
X77698600Y-54102000D02*
X79222600Y-54102000D01*
X77698600Y-49022000D02*
X77698600Y-54102000D01*
X77724000Y-34226500D02*
X79248000Y-34226500D01*
X77724000Y-34353500D02*
X79248000Y-34353500D01*
X79248000Y-34480500D02*
X77724000Y-34480500D01*
X77724000Y-34861500D02*
X79248000Y-34861500D01*
X79248000Y-34734500D02*
X77724000Y-34734500D01*
X77724000Y-34607500D02*
X79248000Y-34607500D01*
X77724000Y-29908500D02*
X77724000Y-30416500D01*
X79248000Y-29908500D02*
X77724000Y-29908500D01*
X79248000Y-34988500D02*
X79248000Y-29908500D01*
X77724000Y-34988500D02*
X79248000Y-34988500D01*
X77724000Y-29908500D02*
X77724000Y-34988500D01*
X77724000Y-15240000D02*
X79248000Y-15240000D01*
X77724000Y-15367000D02*
X79248000Y-15367000D01*
X79248000Y-15494000D02*
X77724000Y-15494000D01*
X77724000Y-15875000D02*
X79248000Y-15875000D01*
X79248000Y-15748000D02*
X77724000Y-15748000D01*
X77724000Y-15621000D02*
X79248000Y-15621000D01*
X77724000Y-10922000D02*
X77724000Y-11430000D01*
X79248000Y-10922000D02*
X77724000Y-10922000D01*
X79248000Y-16002000D02*
X79248000Y-10922000D01*
X77724000Y-16002000D02*
X79248000Y-16002000D01*
X77724000Y-10922000D02*
X77724000Y-16002000D01*
X59436000Y-72326500D02*
X60960000Y-72326500D01*
X59436000Y-72453500D02*
X60960000Y-72453500D01*
X60960000Y-72580500D02*
X59436000Y-72580500D01*
X59436000Y-72961500D02*
X60960000Y-72961500D01*
X60960000Y-72834500D02*
X59436000Y-72834500D01*
X59436000Y-72707500D02*
X60960000Y-72707500D01*
X59436000Y-68008500D02*
X59436000Y-68516500D01*
X60960000Y-68008500D02*
X59436000Y-68008500D01*
X60960000Y-73088500D02*
X60960000Y-68008500D01*
X59436000Y-73088500D02*
X60960000Y-73088500D01*
X59436000Y-68008500D02*
X59436000Y-73088500D01*
X59410600Y-53276500D02*
X60934600Y-53276500D01*
X59410600Y-53403500D02*
X60934600Y-53403500D01*
X60934600Y-53530500D02*
X59410600Y-53530500D01*
X59410600Y-53911500D02*
X60934600Y-53911500D01*
X60934600Y-53784500D02*
X59410600Y-53784500D01*
X59410600Y-53657500D02*
X60934600Y-53657500D01*
X59410600Y-48958500D02*
X59410600Y-49466500D01*
X60934600Y-48958500D02*
X59410600Y-48958500D01*
X60934600Y-54038500D02*
X60934600Y-48958500D01*
X59410600Y-54038500D02*
X60934600Y-54038500D01*
X59410600Y-48958500D02*
X59410600Y-54038500D01*
X59436000Y-34226500D02*
X60960000Y-34226500D01*
X59436000Y-34353500D02*
X60960000Y-34353500D01*
X60960000Y-34480500D02*
X59436000Y-34480500D01*
X59436000Y-34861500D02*
X60960000Y-34861500D01*
X60960000Y-34734500D02*
X59436000Y-34734500D01*
X59436000Y-34607500D02*
X60960000Y-34607500D01*
X59436000Y-29908500D02*
X59436000Y-30416500D01*
X60960000Y-29908500D02*
X59436000Y-29908500D01*
X60960000Y-34988500D02*
X60960000Y-29908500D01*
X59436000Y-34988500D02*
X60960000Y-34988500D01*
X59436000Y-29908500D02*
X59436000Y-34988500D01*
X59436000Y-15240000D02*
X60960000Y-15240000D01*
X59436000Y-15367000D02*
X60960000Y-15367000D01*
X60960000Y-15494000D02*
X59436000Y-15494000D01*
X59436000Y-15875000D02*
X60960000Y-15875000D01*
X60960000Y-15748000D02*
X59436000Y-15748000D01*
X59436000Y-15621000D02*
X60960000Y-15621000D01*
X59436000Y-10922000D02*
X59436000Y-11430000D01*
X60960000Y-10922000D02*
X59436000Y-10922000D01*
X60960000Y-16002000D02*
X60960000Y-10922000D01*
X59436000Y-16002000D02*
X60960000Y-16002000D01*
X59436000Y-10922000D02*
X59436000Y-16002000D01*
X40386000Y-72326500D02*
X41910000Y-72326500D01*
X40386000Y-72453500D02*
X41910000Y-72453500D01*
X41910000Y-72580500D02*
X40386000Y-72580500D01*
X40386000Y-72961500D02*
X41910000Y-72961500D01*
X41910000Y-72834500D02*
X40386000Y-72834500D01*
X40386000Y-72707500D02*
X41910000Y-72707500D01*
X40386000Y-68008500D02*
X40386000Y-68516500D01*
X41910000Y-68008500D02*
X40386000Y-68008500D01*
X41910000Y-73088500D02*
X41910000Y-68008500D01*
X40386000Y-73088500D02*
X41910000Y-73088500D01*
X40386000Y-68008500D02*
X40386000Y-73088500D01*
X40360600Y-53276500D02*
X41884600Y-53276500D01*
X40360600Y-53403500D02*
X41884600Y-53403500D01*
X41884600Y-53530500D02*
X40360600Y-53530500D01*
X40360600Y-53911500D02*
X41884600Y-53911500D01*
X41884600Y-53784500D02*
X40360600Y-53784500D01*
X40360600Y-53657500D02*
X41884600Y-53657500D01*
X40360600Y-48958500D02*
X40360600Y-49466500D01*
X41884600Y-48958500D02*
X40360600Y-48958500D01*
X41884600Y-54038500D02*
X41884600Y-48958500D01*
X40360600Y-54038500D02*
X41884600Y-54038500D01*
X40360600Y-48958500D02*
X40360600Y-54038500D01*
X40386000Y-34226500D02*
X41910000Y-34226500D01*
X40386000Y-34353500D02*
X41910000Y-34353500D01*
X41910000Y-34480500D02*
X40386000Y-34480500D01*
X40386000Y-34861500D02*
X41910000Y-34861500D01*
X41910000Y-34734500D02*
X40386000Y-34734500D01*
X40386000Y-34607500D02*
X41910000Y-34607500D01*
X40386000Y-29908500D02*
X40386000Y-30416500D01*
X41910000Y-29908500D02*
X40386000Y-29908500D01*
X41910000Y-34988500D02*
X41910000Y-29908500D01*
X40386000Y-34988500D02*
X41910000Y-34988500D01*
X40386000Y-29908500D02*
X40386000Y-34988500D01*
X40386000Y-15240000D02*
X41910000Y-15240000D01*
X40386000Y-15367000D02*
X41910000Y-15367000D01*
X41910000Y-15494000D02*
X40386000Y-15494000D01*
X40386000Y-15875000D02*
X41910000Y-15875000D01*
X41910000Y-15748000D02*
X40386000Y-15748000D01*
X40386000Y-15621000D02*
X41910000Y-15621000D01*
X40386000Y-10922000D02*
X40386000Y-11430000D01*
X41910000Y-10922000D02*
X40386000Y-10922000D01*
X41910000Y-16002000D02*
X41910000Y-10922000D01*
X40386000Y-16002000D02*
X41910000Y-16002000D01*
X40386000Y-10922000D02*
X40386000Y-16002000D01*
X22606000Y-72326500D02*
X24130000Y-72326500D01*
X22606000Y-72453500D02*
X24130000Y-72453500D01*
X24130000Y-72580500D02*
X22606000Y-72580500D01*
X22606000Y-72961500D02*
X24130000Y-72961500D01*
X24130000Y-72834500D02*
X22606000Y-72834500D01*
X22606000Y-72707500D02*
X24130000Y-72707500D01*
X22606000Y-68008500D02*
X22606000Y-68516500D01*
X24130000Y-68008500D02*
X22606000Y-68008500D01*
X24130000Y-73088500D02*
X24130000Y-68008500D01*
X22606000Y-73088500D02*
X24130000Y-73088500D01*
X22606000Y-68008500D02*
X22606000Y-73088500D01*
X22606000Y-53276500D02*
X24130000Y-53276500D01*
X22606000Y-53403500D02*
X24130000Y-53403500D01*
X24130000Y-53530500D02*
X22606000Y-53530500D01*
X22606000Y-53911500D02*
X24130000Y-53911500D01*
X24130000Y-53784500D02*
X22606000Y-53784500D01*
X22606000Y-53657500D02*
X24130000Y-53657500D01*
X22606000Y-48958500D02*
X22606000Y-49466500D01*
X24130000Y-48958500D02*
X22606000Y-48958500D01*
X24130000Y-54038500D02*
X24130000Y-48958500D01*
X22606000Y-54038500D02*
X24130000Y-54038500D01*
X22606000Y-48958500D02*
X22606000Y-54038500D01*
X22606000Y-34226500D02*
X24130000Y-34226500D01*
X22606000Y-34353500D02*
X24130000Y-34353500D01*
X24130000Y-34480500D02*
X22606000Y-34480500D01*
X22606000Y-34861500D02*
X24130000Y-34861500D01*
X24130000Y-34734500D02*
X22606000Y-34734500D01*
X22606000Y-34607500D02*
X24130000Y-34607500D01*
X22606000Y-29908500D02*
X22606000Y-30416500D01*
X24130000Y-29908500D02*
X22606000Y-29908500D01*
X24130000Y-34988500D02*
X24130000Y-29908500D01*
X22606000Y-34988500D02*
X24130000Y-34988500D01*
X22606000Y-29908500D02*
X22606000Y-34988500D01*
X22542500Y-15240000D02*
X24066500Y-15240000D01*
X22542500Y-15367000D02*
X24066500Y-15367000D01*
X24066500Y-15494000D02*
X22542500Y-15494000D01*
X22542500Y-15875000D02*
X24066500Y-15875000D01*
X24066500Y-15748000D02*
X22542500Y-15748000D01*
X22542500Y-15621000D02*
X24066500Y-15621000D01*
X22542500Y-10922000D02*
X22542500Y-11430000D01*
X24066500Y-10922000D02*
X22542500Y-10922000D01*
X24066500Y-16002000D02*
X24066500Y-10922000D01*
X22542500Y-16002000D02*
X24066500Y-16002000D01*
X22542500Y-10922000D02*
X22542500Y-16002000D01*
X5096151Y-3371904D02*
X5553294Y-3371904D01*
X5324723Y-4171904D02*
X5324723Y-3371904D01*
X5743770Y-3371904D02*
X6277104Y-4171904D01*
X6277104Y-3371904D02*
X5743770Y-4171904D01*
X6734247Y-3371904D02*
X6810437Y-3371904D01*
X6886628Y-3410000D01*
X6924723Y-3448095D01*
X6962818Y-3524285D01*
X7000913Y-3676666D01*
X7000913Y-3867142D01*
X6962818Y-4019523D01*
X6924723Y-4095714D01*
X6886628Y-4133809D01*
X6810437Y-4171904D01*
X6734247Y-4171904D01*
X6658056Y-4133809D01*
X6619961Y-4095714D01*
X6581866Y-4019523D01*
X6543770Y-3867142D01*
X6543770Y-3676666D01*
X6581866Y-3524285D01*
X6619961Y-3448095D01*
X6658056Y-3410000D01*
X6734247Y-3371904D01*
X7915199Y-3333809D02*
X7229485Y-4362380D01*
X8181866Y-4171904D02*
X8181866Y-3371904D01*
X8372342Y-3371904D01*
X8486628Y-3410000D01*
X8562818Y-3486190D01*
X8600913Y-3562380D01*
X8639008Y-3714761D01*
X8639008Y-3829047D01*
X8600913Y-3981428D01*
X8562818Y-4057619D01*
X8486628Y-4133809D01*
X8372342Y-4171904D01*
X8181866Y-4171904D01*
X8905675Y-3371904D02*
X9400913Y-3371904D01*
X9134247Y-3676666D01*
X9248532Y-3676666D01*
X9324723Y-3714761D01*
X9362818Y-3752857D01*
X9400913Y-3829047D01*
X9400913Y-4019523D01*
X9362818Y-4095714D01*
X9324723Y-4133809D01*
X9248532Y-4171904D01*
X9019961Y-4171904D01*
X8943770Y-4133809D01*
X8905675Y-4095714D01*
X4807023Y-6711904D02*
X4807023Y-5911904D01*
X4997500Y-5911904D01*
X5111785Y-5950000D01*
X5187976Y-6026190D01*
X5226071Y-6102380D01*
X5264166Y-6254761D01*
X5264166Y-6369047D01*
X5226071Y-6521428D01*
X5187976Y-6597619D01*
X5111785Y-6673809D01*
X4997500Y-6711904D01*
X4807023Y-6711904D01*
X5568928Y-5988095D02*
X5607023Y-5950000D01*
X5683214Y-5911904D01*
X5873690Y-5911904D01*
X5949880Y-5950000D01*
X5987976Y-5988095D01*
X6026071Y-6064285D01*
X6026071Y-6140476D01*
X5987976Y-6254761D01*
X5530833Y-6711904D01*
X6026071Y-6711904D01*
X4807023Y-16871904D02*
X4807023Y-16071904D01*
X4997500Y-16071904D01*
X5111785Y-16110000D01*
X5187976Y-16186190D01*
X5226071Y-16262380D01*
X5264166Y-16414761D01*
X5264166Y-16529047D01*
X5226071Y-16681428D01*
X5187976Y-16757619D01*
X5111785Y-16833809D01*
X4997500Y-16871904D01*
X4807023Y-16871904D01*
X5759404Y-16071904D02*
X5835595Y-16071904D01*
X5911785Y-16110000D01*
X5949880Y-16148095D01*
X5987976Y-16224285D01*
X6026071Y-16376666D01*
X6026071Y-16567142D01*
X5987976Y-16719523D01*
X5949880Y-16795714D01*
X5911785Y-16833809D01*
X5835595Y-16871904D01*
X5759404Y-16871904D01*
X5683214Y-16833809D01*
X5645119Y-16795714D01*
X5607023Y-16719523D01*
X5568928Y-16567142D01*
X5568928Y-16376666D01*
X5607023Y-16224285D01*
X5645119Y-16148095D01*
X5683214Y-16110000D01*
X5759404Y-16071904D01*
X4807023Y-14331904D02*
X4807023Y-13531904D01*
X4997500Y-13531904D01*
X5111785Y-13570000D01*
X5187976Y-13646190D01*
X5226071Y-13722380D01*
X5264166Y-13874761D01*
X5264166Y-13989047D01*
X5226071Y-14141428D01*
X5187976Y-14217619D01*
X5111785Y-14293809D01*
X4997500Y-14331904D01*
X4807023Y-14331904D01*
X6026071Y-14331904D02*
X5568928Y-14331904D01*
X5797500Y-14331904D02*
X5797500Y-13531904D01*
X5721309Y-13646190D01*
X5645119Y-13722380D01*
X5568928Y-13760476D01*
X4787976Y-11030000D02*
X4711785Y-10991904D01*
X4597500Y-10991904D01*
X4483214Y-11030000D01*
X4407023Y-11106190D01*
X4368928Y-11182380D01*
X4330833Y-11334761D01*
X4330833Y-11449047D01*
X4368928Y-11601428D01*
X4407023Y-11677619D01*
X4483214Y-11753809D01*
X4597500Y-11791904D01*
X4673690Y-11791904D01*
X4787976Y-11753809D01*
X4826071Y-11715714D01*
X4826071Y-11449047D01*
X4673690Y-11449047D01*
X5168928Y-11791904D02*
X5168928Y-10991904D01*
X5626071Y-11791904D01*
X5626071Y-10991904D01*
X6007023Y-11791904D02*
X6007023Y-10991904D01*
X6197500Y-10991904D01*
X6311785Y-11030000D01*
X6387976Y-11106190D01*
X6426071Y-11182380D01*
X6464166Y-11334761D01*
X6464166Y-11449047D01*
X6426071Y-11601428D01*
X6387976Y-11677619D01*
X6311785Y-11753809D01*
X6197500Y-11791904D01*
X6007023Y-11791904D01*
X4787976Y-8490000D02*
X4711785Y-8451904D01*
X4597500Y-8451904D01*
X4483214Y-8490000D01*
X4407023Y-8566190D01*
X4368928Y-8642380D01*
X4330833Y-8794761D01*
X4330833Y-8909047D01*
X4368928Y-9061428D01*
X4407023Y-9137619D01*
X4483214Y-9213809D01*
X4597500Y-9251904D01*
X4673690Y-9251904D01*
X4787976Y-9213809D01*
X4826071Y-9175714D01*
X4826071Y-8909047D01*
X4673690Y-8909047D01*
X5168928Y-9251904D02*
X5168928Y-8451904D01*
X5626071Y-9251904D01*
X5626071Y-8451904D01*
X6007023Y-9251904D02*
X6007023Y-8451904D01*
X6197500Y-8451904D01*
X6311785Y-8490000D01*
X6387976Y-8566190D01*
X6426071Y-8642380D01*
X6464166Y-8794761D01*
X6464166Y-8909047D01*
X6426071Y-9061428D01*
X6387976Y-9137619D01*
X6311785Y-9213809D01*
X6197500Y-9251904D01*
X6007023Y-9251904D01*
X4807023Y-19411904D02*
X4807023Y-18611904D01*
X4997500Y-18611904D01*
X5111785Y-18650000D01*
X5187976Y-18726190D01*
X5226071Y-18802380D01*
X5264166Y-18954761D01*
X5264166Y-19069047D01*
X5226071Y-19221428D01*
X5187976Y-19297619D01*
X5111785Y-19373809D01*
X4997500Y-19411904D01*
X4807023Y-19411904D01*
X5949880Y-18878571D02*
X5949880Y-19411904D01*
X5759404Y-18573809D02*
X5568928Y-19145238D01*
X6064166Y-19145238D01*
X5264166Y-21875714D02*
X5226071Y-21913809D01*
X5111785Y-21951904D01*
X5035595Y-21951904D01*
X4921309Y-21913809D01*
X4845119Y-21837619D01*
X4807023Y-21761428D01*
X4768928Y-21609047D01*
X4768928Y-21494761D01*
X4807023Y-21342380D01*
X4845119Y-21266190D01*
X4921309Y-21190000D01*
X5035595Y-21151904D01*
X5111785Y-21151904D01*
X5226071Y-21190000D01*
X5264166Y-21228095D01*
X5949880Y-21151904D02*
X5797500Y-21151904D01*
X5721309Y-21190000D01*
X5683214Y-21228095D01*
X5607023Y-21342380D01*
X5568928Y-21494761D01*
X5568928Y-21799523D01*
X5607023Y-21875714D01*
X5645119Y-21913809D01*
X5721309Y-21951904D01*
X5873690Y-21951904D01*
X5949880Y-21913809D01*
X5987976Y-21875714D01*
X6026071Y-21799523D01*
X6026071Y-21609047D01*
X5987976Y-21532857D01*
X5949880Y-21494761D01*
X5873690Y-21456666D01*
X5721309Y-21456666D01*
X5645119Y-21494761D01*
X5607023Y-21532857D01*
X5568928Y-21609047D01*
X4807023Y-24491904D02*
X4807023Y-23691904D01*
X4997500Y-23691904D01*
X5111785Y-23730000D01*
X5187976Y-23806190D01*
X5226071Y-23882380D01*
X5264166Y-24034761D01*
X5264166Y-24149047D01*
X5226071Y-24301428D01*
X5187976Y-24377619D01*
X5111785Y-24453809D01*
X4997500Y-24491904D01*
X4807023Y-24491904D01*
X5530833Y-23691904D02*
X6064166Y-23691904D01*
X5721309Y-24491904D01*
X4845119Y-26612857D02*
X5111785Y-26612857D01*
X5226071Y-27031904D02*
X4845119Y-27031904D01*
X4845119Y-26231904D01*
X5226071Y-26231904D01*
X5911785Y-26231904D02*
X5759404Y-26231904D01*
X5683214Y-26270000D01*
X5645119Y-26308095D01*
X5568928Y-26422380D01*
X5530833Y-26574761D01*
X5530833Y-26879523D01*
X5568928Y-26955714D01*
X5607023Y-26993809D01*
X5683214Y-27031904D01*
X5835595Y-27031904D01*
X5911785Y-26993809D01*
X5949880Y-26955714D01*
X5987976Y-26879523D01*
X5987976Y-26689047D01*
X5949880Y-26612857D01*
X5911785Y-26574761D01*
X5835595Y-26536666D01*
X5683214Y-26536666D01*
X5607023Y-26574761D01*
X5568928Y-26612857D01*
X5530833Y-26689047D01*
X5073690Y-29152857D02*
X5187976Y-29190952D01*
X5226071Y-29229047D01*
X5264166Y-29305238D01*
X5264166Y-29419523D01*
X5226071Y-29495714D01*
X5187976Y-29533809D01*
X5111785Y-29571904D01*
X4807023Y-29571904D01*
X4807023Y-28771904D01*
X5073690Y-28771904D01*
X5149880Y-28810000D01*
X5187976Y-28848095D01*
X5226071Y-28924285D01*
X5226071Y-29000476D01*
X5187976Y-29076666D01*
X5149880Y-29114761D01*
X5073690Y-29152857D01*
X4807023Y-29152857D01*
X5949880Y-29038571D02*
X5949880Y-29571904D01*
X5759404Y-28733809D02*
X5568928Y-29305238D01*
X6064166Y-29305238D01*
X5073690Y-31692857D02*
X5187976Y-31730952D01*
X5226071Y-31769047D01*
X5264166Y-31845238D01*
X5264166Y-31959523D01*
X5226071Y-32035714D01*
X5187976Y-32073809D01*
X5111785Y-32111904D01*
X4807023Y-32111904D01*
X4807023Y-31311904D01*
X5073690Y-31311904D01*
X5149880Y-31350000D01*
X5187976Y-31388095D01*
X5226071Y-31464285D01*
X5226071Y-31540476D01*
X5187976Y-31616666D01*
X5149880Y-31654761D01*
X5073690Y-31692857D01*
X4807023Y-31692857D01*
X5987976Y-31311904D02*
X5607023Y-31311904D01*
X5568928Y-31692857D01*
X5607023Y-31654761D01*
X5683214Y-31616666D01*
X5873690Y-31616666D01*
X5949880Y-31654761D01*
X5987976Y-31692857D01*
X6026071Y-31769047D01*
X6026071Y-31959523D01*
X5987976Y-32035714D01*
X5949880Y-32073809D01*
X5873690Y-32111904D01*
X5683214Y-32111904D01*
X5607023Y-32073809D01*
X5568928Y-32035714D01*
X15995690Y-31692857D02*
X16109976Y-31730952D01*
X16148071Y-31769047D01*
X16186166Y-31845238D01*
X16186166Y-31959523D01*
X16148071Y-32035714D01*
X16109976Y-32073809D01*
X16033785Y-32111904D01*
X15729023Y-32111904D01*
X15729023Y-31311904D01*
X15995690Y-31311904D01*
X16071880Y-31350000D01*
X16109976Y-31388095D01*
X16148071Y-31464285D01*
X16148071Y-31540476D01*
X16109976Y-31616666D01*
X16071880Y-31654761D01*
X15995690Y-31692857D01*
X15729023Y-31692857D01*
X16871880Y-31311904D02*
X16719500Y-31311904D01*
X16643309Y-31350000D01*
X16605214Y-31388095D01*
X16529023Y-31502380D01*
X16490928Y-31654761D01*
X16490928Y-31959523D01*
X16529023Y-32035714D01*
X16567119Y-32073809D01*
X16643309Y-32111904D01*
X16795690Y-32111904D01*
X16871880Y-32073809D01*
X16909976Y-32035714D01*
X16948071Y-31959523D01*
X16948071Y-31769047D01*
X16909976Y-31692857D01*
X16871880Y-31654761D01*
X16795690Y-31616666D01*
X16643309Y-31616666D01*
X16567119Y-31654761D01*
X16529023Y-31692857D01*
X16490928Y-31769047D01*
X15995690Y-26612857D02*
X16109976Y-26650952D01*
X16148071Y-26689047D01*
X16186166Y-26765238D01*
X16186166Y-26879523D01*
X16148071Y-26955714D01*
X16109976Y-26993809D01*
X16033785Y-27031904D01*
X15729023Y-27031904D01*
X15729023Y-26231904D01*
X15995690Y-26231904D01*
X16071880Y-26270000D01*
X16109976Y-26308095D01*
X16148071Y-26384285D01*
X16148071Y-26460476D01*
X16109976Y-26536666D01*
X16071880Y-26574761D01*
X15995690Y-26612857D01*
X15729023Y-26612857D01*
X16452833Y-26231904D02*
X16948071Y-26231904D01*
X16681404Y-26536666D01*
X16795690Y-26536666D01*
X16871880Y-26574761D01*
X16909976Y-26612857D01*
X16948071Y-26689047D01*
X16948071Y-26879523D01*
X16909976Y-26955714D01*
X16871880Y-26993809D01*
X16795690Y-27031904D01*
X16567119Y-27031904D01*
X16490928Y-26993809D01*
X16452833Y-26955714D01*
X15995690Y-24072857D02*
X16109976Y-24110952D01*
X16148071Y-24149047D01*
X16186166Y-24225238D01*
X16186166Y-24339523D01*
X16148071Y-24415714D01*
X16109976Y-24453809D01*
X16033785Y-24491904D01*
X15729023Y-24491904D01*
X15729023Y-23691904D01*
X15995690Y-23691904D01*
X16071880Y-23730000D01*
X16109976Y-23768095D01*
X16148071Y-23844285D01*
X16148071Y-23920476D01*
X16109976Y-23996666D01*
X16071880Y-24034761D01*
X15995690Y-24072857D01*
X15729023Y-24072857D01*
X16948071Y-24491904D02*
X16490928Y-24491904D01*
X16719500Y-24491904D02*
X16719500Y-23691904D01*
X16643309Y-23806190D01*
X16567119Y-23882380D01*
X16490928Y-23920476D01*
X16052833Y-13912857D02*
X15786166Y-13912857D01*
X15786166Y-14331904D02*
X15786166Y-13531904D01*
X16167119Y-13531904D01*
X16814738Y-13798571D02*
X16814738Y-14331904D01*
X16624261Y-13493809D02*
X16433785Y-14065238D01*
X16929023Y-14065238D01*
X15252833Y-10991904D02*
X15519500Y-11791904D01*
X15786166Y-10991904D01*
X16509976Y-11715714D02*
X16471880Y-11753809D01*
X16357595Y-11791904D01*
X16281404Y-11791904D01*
X16167119Y-11753809D01*
X16090928Y-11677619D01*
X16052833Y-11601428D01*
X16014738Y-11449047D01*
X16014738Y-11334761D01*
X16052833Y-11182380D01*
X16090928Y-11106190D01*
X16167119Y-11030000D01*
X16281404Y-10991904D01*
X16357595Y-10991904D01*
X16471880Y-11030000D01*
X16509976Y-11068095D01*
X17309976Y-11715714D02*
X17271880Y-11753809D01*
X17157595Y-11791904D01*
X17081404Y-11791904D01*
X16967119Y-11753809D01*
X16890928Y-11677619D01*
X16852833Y-11601428D01*
X16814738Y-11449047D01*
X16814738Y-11334761D01*
X16852833Y-11182380D01*
X16890928Y-11106190D01*
X16967119Y-11030000D01*
X17081404Y-10991904D01*
X17157595Y-10991904D01*
X17271880Y-11030000D01*
X17309976Y-11068095D01*
X16058286Y-9183809D02*
X16172572Y-9221904D01*
X16363048Y-9221904D01*
X16439239Y-9183809D01*
X16477334Y-9145714D01*
X16515429Y-9069523D01*
X16515429Y-8993333D01*
X16477334Y-8917142D01*
X16439239Y-8879047D01*
X16363048Y-8840952D01*
X16210667Y-8802857D01*
X16134477Y-8764761D01*
X16096381Y-8726666D01*
X16058286Y-8650476D01*
X16058286Y-8574285D01*
X16096381Y-8498095D01*
X16134477Y-8460000D01*
X16210667Y-8421904D01*
X16401143Y-8421904D01*
X16515429Y-8460000D01*
X16744000Y-8421904D02*
X17201143Y-8421904D01*
X16972572Y-9221904D02*
X16972572Y-8421904D01*
X15709976Y-5950000D02*
X15633785Y-5911904D01*
X15519500Y-5911904D01*
X15405214Y-5950000D01*
X15329023Y-6026190D01*
X15290928Y-6102380D01*
X15252833Y-6254761D01*
X15252833Y-6369047D01*
X15290928Y-6521428D01*
X15329023Y-6597619D01*
X15405214Y-6673809D01*
X15519500Y-6711904D01*
X15595690Y-6711904D01*
X15709976Y-6673809D01*
X15748071Y-6635714D01*
X15748071Y-6369047D01*
X15595690Y-6369047D01*
X16090928Y-6711904D02*
X16090928Y-5911904D01*
X16548071Y-6711904D01*
X16548071Y-5911904D01*
X16929023Y-6711904D02*
X16929023Y-5911904D01*
X17119500Y-5911904D01*
X17233785Y-5950000D01*
X17309976Y-6026190D01*
X17348071Y-6102380D01*
X17386166Y-6254761D01*
X17386166Y-6369047D01*
X17348071Y-6521428D01*
X17309976Y-6597619D01*
X17233785Y-6673809D01*
X17119500Y-6711904D01*
X16929023Y-6711904D01*
X15767119Y-4171904D02*
X15500452Y-3790952D01*
X15309976Y-4171904D02*
X15309976Y-3371904D01*
X15614738Y-3371904D01*
X15690928Y-3410000D01*
X15729023Y-3448095D01*
X15767119Y-3524285D01*
X15767119Y-3638571D01*
X15729023Y-3714761D01*
X15690928Y-3752857D01*
X15614738Y-3790952D01*
X15309976Y-3790952D01*
X16071880Y-3943333D02*
X16452833Y-3943333D01*
X15995690Y-4171904D02*
X16262357Y-3371904D01*
X16529023Y-4171904D01*
X16719500Y-3371904D02*
X16909976Y-4171904D01*
X17062357Y-3600476D01*
X17214738Y-4171904D01*
X17405214Y-3371904D01*
X16052833Y-16452857D02*
X15786166Y-16452857D01*
X15786166Y-16871904D02*
X15786166Y-16071904D01*
X16167119Y-16071904D01*
X16852833Y-16071904D02*
X16471880Y-16071904D01*
X16433785Y-16452857D01*
X16471880Y-16414761D01*
X16548071Y-16376666D01*
X16738547Y-16376666D01*
X16814738Y-16414761D01*
X16852833Y-16452857D01*
X16890928Y-16529047D01*
X16890928Y-16719523D01*
X16852833Y-16795714D01*
X16814738Y-16833809D01*
X16738547Y-16871904D01*
X16548071Y-16871904D01*
X16471880Y-16833809D01*
X16433785Y-16795714D01*
X16052833Y-18992857D02*
X15786166Y-18992857D01*
X15786166Y-19411904D02*
X15786166Y-18611904D01*
X16167119Y-18611904D01*
X16814738Y-18611904D02*
X16662357Y-18611904D01*
X16586166Y-18650000D01*
X16548071Y-18688095D01*
X16471880Y-18802380D01*
X16433785Y-18954761D01*
X16433785Y-19259523D01*
X16471880Y-19335714D01*
X16509976Y-19373809D01*
X16586166Y-19411904D01*
X16738547Y-19411904D01*
X16814738Y-19373809D01*
X16852833Y-19335714D01*
X16890928Y-19259523D01*
X16890928Y-19069047D01*
X16852833Y-18992857D01*
X16814738Y-18954761D01*
X16738547Y-18916666D01*
X16586166Y-18916666D01*
X16509976Y-18954761D01*
X16471880Y-18992857D01*
X16433785Y-19069047D01*
X16052833Y-21532857D02*
X15786166Y-21532857D01*
X15786166Y-21951904D02*
X15786166Y-21151904D01*
X16167119Y-21151904D01*
X16395690Y-21151904D02*
X16929023Y-21151904D01*
X16586166Y-21951904D01*
X15995690Y-29152857D02*
X16109976Y-29190952D01*
X16148071Y-29229047D01*
X16186166Y-29305238D01*
X16186166Y-29419523D01*
X16148071Y-29495714D01*
X16109976Y-29533809D01*
X16033785Y-29571904D01*
X15729023Y-29571904D01*
X15729023Y-28771904D01*
X15995690Y-28771904D01*
X16071880Y-28810000D01*
X16109976Y-28848095D01*
X16148071Y-28924285D01*
X16148071Y-29000476D01*
X16109976Y-29076666D01*
X16071880Y-29114761D01*
X15995690Y-29152857D01*
X15729023Y-29152857D01*
X16490928Y-28848095D02*
X16529023Y-28810000D01*
X16605214Y-28771904D01*
X16795690Y-28771904D01*
X16871880Y-28810000D01*
X16909976Y-28848095D01*
X16948071Y-28924285D01*
X16948071Y-29000476D01*
X16909976Y-29114761D01*
X16452833Y-29571904D01*
X16948071Y-29571904D01*
%LPC*%
D14*
X98250000Y-1750000D03*
X98250000Y-98250000D03*
X1750000Y-98250000D03*
X1750000Y-1750000D03*
D15*
X31623000Y-12065000D03*
D16*
X26543000Y-12065000D03*
X36703000Y-12065000D03*
D17*
X18478500Y-3810000D03*
X3238500Y-31750000D03*
X18478500Y-6350000D03*
X18478500Y-8890000D03*
X18478500Y-11430000D03*
X18478500Y-13970000D03*
X18478500Y-16510000D03*
X18478500Y-19050000D03*
X18478500Y-21590000D03*
X18478500Y-24130000D03*
X18478500Y-26670000D03*
X18478500Y-29210000D03*
X18478500Y-31750000D03*
X3238500Y-29210000D03*
X3238500Y-26670000D03*
X3238500Y-24130000D03*
X3238500Y-21590000D03*
X3238500Y-19050000D03*
X3238500Y-16510000D03*
X3238500Y-13970000D03*
X3238500Y-11430000D03*
X3238500Y-8890000D03*
X3238500Y-6350000D03*
G36*
G01*
X2800350Y-2933700D02*
X3676650Y-2933700D01*
G75*
G02*
X4114800Y-3371850I0J-438150D01*
G01*
X4114800Y-4248150D01*
G75*
G02*
X3676650Y-4686300I-438150J0D01*
G01*
X2800350Y-4686300D01*
G75*
G02*
X2362200Y-4248150I0J438150D01*
G01*
X2362200Y-3371850D01*
G75*
G02*
X2800350Y-2933700I438150J0D01*
G01*
G37*
D15*
X69723000Y-31115000D03*
D16*
X64643000Y-31115000D03*
X74803000Y-31115000D03*
D15*
X50673000Y-31115000D03*
D16*
X45593000Y-31115000D03*
X55753000Y-31115000D03*
D15*
X88773000Y-78740000D03*
D16*
X88773000Y-83820000D03*
X88773000Y-73660000D03*
D18*
X81788000Y-90646250D03*
X81788000Y-66833750D03*
D15*
X97028000Y-90646250D03*
X97028000Y-66833750D03*
X88709500Y-40640000D03*
D16*
X88709500Y-45720000D03*
X88709500Y-35560000D03*
D18*
X81724500Y-52546250D03*
X81724500Y-28733750D03*
D15*
X96964500Y-52546250D03*
X96964500Y-28733750D03*
X41148000Y-88265000D03*
D16*
X36068000Y-88265000D03*
X46228000Y-88265000D03*
D18*
X29241750Y-81280000D03*
X53054250Y-81280000D03*
D15*
X29241750Y-96520000D03*
X53054250Y-96520000D03*
D19*
X18112500Y-90765000D03*
X18112500Y-85765000D03*
D20*
X11112500Y-93865000D03*
X11112500Y-82665000D03*
D19*
X3612500Y-90765000D03*
X3612500Y-88265000D03*
D21*
X3612500Y-85765000D03*
D19*
X18112500Y-66952500D03*
X18112500Y-61952500D03*
D20*
X11112500Y-70052500D03*
X11112500Y-58852500D03*
D19*
X3612500Y-66952500D03*
X3612500Y-64452500D03*
D21*
X3612500Y-61952500D03*
D19*
X18112500Y-43140000D03*
X18112500Y-38140000D03*
D20*
X11112500Y-46240000D03*
X11112500Y-35040000D03*
D19*
X3612500Y-43140000D03*
X3612500Y-40640000D03*
D21*
X3612500Y-38140000D03*
G36*
G01*
X17697500Y-78474500D02*
X18497500Y-78474500D01*
G75*
G02*
X18897500Y-78874500I0J-400000D01*
G01*
X18897500Y-79674500D01*
G75*
G02*
X18497500Y-80074500I-400000J0D01*
G01*
X17697500Y-80074500D01*
G75*
G02*
X17297500Y-79674500I0J400000D01*
G01*
X17297500Y-78874500D01*
G75*
G02*
X17697500Y-78474500I400000J0D01*
G01*
G37*
D22*
X18097500Y-71474500D03*
D23*
X18097500Y-73974500D03*
X18097500Y-76774500D03*
G36*
G01*
X17761000Y-54595500D02*
X18561000Y-54595500D01*
G75*
G02*
X18961000Y-54995500I0J-400000D01*
G01*
X18961000Y-55795500D01*
G75*
G02*
X18561000Y-56195500I-400000J0D01*
G01*
X17761000Y-56195500D01*
G75*
G02*
X17361000Y-55795500I0J400000D01*
G01*
X17361000Y-54995500D01*
G75*
G02*
X17761000Y-54595500I400000J0D01*
G01*
G37*
D22*
X18161000Y-47595500D03*
D23*
X18161000Y-50095500D03*
X18161000Y-52895500D03*
D15*
X88773000Y-88265000D03*
D16*
X83693000Y-88265000D03*
X93853000Y-88265000D03*
D15*
X69723000Y-88265000D03*
D16*
X64643000Y-88265000D03*
X74803000Y-88265000D03*
D15*
X50673000Y-88265000D03*
D16*
X45593000Y-88265000D03*
X55753000Y-88265000D03*
D15*
X31623000Y-88265000D03*
D16*
X26543000Y-88265000D03*
X36703000Y-88265000D03*
G36*
G01*
X78086000Y-92635000D02*
X78886000Y-92635000D01*
G75*
G02*
X79286000Y-93035000I0J-400000D01*
G01*
X79286000Y-93835000D01*
G75*
G02*
X78886000Y-94235000I-400000J0D01*
G01*
X78086000Y-94235000D01*
G75*
G02*
X77686000Y-93835000I0J400000D01*
G01*
X77686000Y-93035000D01*
G75*
G02*
X78086000Y-92635000I400000J0D01*
G01*
G37*
D22*
X78486000Y-85635000D03*
D23*
X78486000Y-88135000D03*
X78486000Y-90935000D03*
G36*
G01*
X61131500Y-92698500D02*
X61931500Y-92698500D01*
G75*
G02*
X62331500Y-93098500I0J-400000D01*
G01*
X62331500Y-93898500D01*
G75*
G02*
X61931500Y-94298500I-400000J0D01*
G01*
X61131500Y-94298500D01*
G75*
G02*
X60731500Y-93898500I0J400000D01*
G01*
X60731500Y-93098500D01*
G75*
G02*
X61131500Y-92698500I400000J0D01*
G01*
G37*
D22*
X61531500Y-85698500D03*
D23*
X61531500Y-88198500D03*
X61531500Y-90998500D03*
G36*
G01*
X58464500Y-92698500D02*
X59264500Y-92698500D01*
G75*
G02*
X59664500Y-93098500I0J-400000D01*
G01*
X59664500Y-93898500D01*
G75*
G02*
X59264500Y-94298500I-400000J0D01*
G01*
X58464500Y-94298500D01*
G75*
G02*
X58064500Y-93898500I0J400000D01*
G01*
X58064500Y-93098500D01*
G75*
G02*
X58464500Y-92698500I400000J0D01*
G01*
G37*
D22*
X58864500Y-85698500D03*
D23*
X58864500Y-88198500D03*
X58864500Y-90998500D03*
G36*
G01*
X22968000Y-92698500D02*
X23768000Y-92698500D01*
G75*
G02*
X24168000Y-93098500I0J-400000D01*
G01*
X24168000Y-93898500D01*
G75*
G02*
X23768000Y-94298500I-400000J0D01*
G01*
X22968000Y-94298500D01*
G75*
G02*
X22568000Y-93898500I0J400000D01*
G01*
X22568000Y-93098500D01*
G75*
G02*
X22968000Y-92698500I400000J0D01*
G01*
G37*
D22*
X23368000Y-85698500D03*
D23*
X23368000Y-88198500D03*
X23368000Y-90998500D03*
D15*
X88773000Y-69215000D03*
D16*
X83693000Y-69215000D03*
X93853000Y-69215000D03*
D15*
X88773000Y-50165000D03*
D16*
X83693000Y-50165000D03*
X93853000Y-50165000D03*
D15*
X88773000Y-31115000D03*
D16*
X83693000Y-31115000D03*
X93853000Y-31115000D03*
D15*
X88773000Y-12065000D03*
D16*
X83693000Y-12065000D03*
X93853000Y-12065000D03*
G36*
G01*
X20174000Y-92698500D02*
X20974000Y-92698500D01*
G75*
G02*
X21374000Y-93098500I0J-400000D01*
G01*
X21374000Y-93898500D01*
G75*
G02*
X20974000Y-94298500I-400000J0D01*
G01*
X20174000Y-94298500D01*
G75*
G02*
X19774000Y-93898500I0J400000D01*
G01*
X19774000Y-93098500D01*
G75*
G02*
X20174000Y-92698500I400000J0D01*
G01*
G37*
D22*
X20574000Y-85698500D03*
D23*
X20574000Y-88198500D03*
X20574000Y-90998500D03*
G36*
G01*
X78086000Y-73648500D02*
X78886000Y-73648500D01*
G75*
G02*
X79286000Y-74048500I0J-400000D01*
G01*
X79286000Y-74848500D01*
G75*
G02*
X78886000Y-75248500I-400000J0D01*
G01*
X78086000Y-75248500D01*
G75*
G02*
X77686000Y-74848500I0J400000D01*
G01*
X77686000Y-74048500D01*
G75*
G02*
X78086000Y-73648500I400000J0D01*
G01*
G37*
D22*
X78486000Y-66648500D03*
D23*
X78486000Y-69148500D03*
X78486000Y-71948500D03*
G36*
G01*
X78060600Y-54662000D02*
X78860600Y-54662000D01*
G75*
G02*
X79260600Y-55062000I0J-400000D01*
G01*
X79260600Y-55862000D01*
G75*
G02*
X78860600Y-56262000I-400000J0D01*
G01*
X78060600Y-56262000D01*
G75*
G02*
X77660600Y-55862000I0J400000D01*
G01*
X77660600Y-55062000D01*
G75*
G02*
X78060600Y-54662000I400000J0D01*
G01*
G37*
D22*
X78460600Y-47662000D03*
D23*
X78460600Y-50162000D03*
X78460600Y-52962000D03*
G36*
G01*
X78086000Y-35548500D02*
X78886000Y-35548500D01*
G75*
G02*
X79286000Y-35948500I0J-400000D01*
G01*
X79286000Y-36748500D01*
G75*
G02*
X78886000Y-37148500I-400000J0D01*
G01*
X78086000Y-37148500D01*
G75*
G02*
X77686000Y-36748500I0J400000D01*
G01*
X77686000Y-35948500D01*
G75*
G02*
X78086000Y-35548500I400000J0D01*
G01*
G37*
D22*
X78486000Y-28548500D03*
D23*
X78486000Y-31048500D03*
X78486000Y-33848500D03*
G36*
G01*
X78086000Y-16562000D02*
X78886000Y-16562000D01*
G75*
G02*
X79286000Y-16962000I0J-400000D01*
G01*
X79286000Y-17762000D01*
G75*
G02*
X78886000Y-18162000I-400000J0D01*
G01*
X78086000Y-18162000D01*
G75*
G02*
X77686000Y-17762000I0J400000D01*
G01*
X77686000Y-16962000D01*
G75*
G02*
X78086000Y-16562000I400000J0D01*
G01*
G37*
D22*
X78486000Y-9562000D03*
D23*
X78486000Y-12062000D03*
X78486000Y-14862000D03*
G36*
G01*
X59798000Y-73648500D02*
X60598000Y-73648500D01*
G75*
G02*
X60998000Y-74048500I0J-400000D01*
G01*
X60998000Y-74848500D01*
G75*
G02*
X60598000Y-75248500I-400000J0D01*
G01*
X59798000Y-75248500D01*
G75*
G02*
X59398000Y-74848500I0J400000D01*
G01*
X59398000Y-74048500D01*
G75*
G02*
X59798000Y-73648500I400000J0D01*
G01*
G37*
D22*
X60198000Y-66648500D03*
D23*
X60198000Y-69148500D03*
X60198000Y-71948500D03*
G36*
G01*
X59772600Y-54598500D02*
X60572600Y-54598500D01*
G75*
G02*
X60972600Y-54998500I0J-400000D01*
G01*
X60972600Y-55798500D01*
G75*
G02*
X60572600Y-56198500I-400000J0D01*
G01*
X59772600Y-56198500D01*
G75*
G02*
X59372600Y-55798500I0J400000D01*
G01*
X59372600Y-54998500D01*
G75*
G02*
X59772600Y-54598500I400000J0D01*
G01*
G37*
D22*
X60172600Y-47598500D03*
D23*
X60172600Y-50098500D03*
X60172600Y-52898500D03*
G36*
G01*
X59798000Y-35548500D02*
X60598000Y-35548500D01*
G75*
G02*
X60998000Y-35948500I0J-400000D01*
G01*
X60998000Y-36748500D01*
G75*
G02*
X60598000Y-37148500I-400000J0D01*
G01*
X59798000Y-37148500D01*
G75*
G02*
X59398000Y-36748500I0J400000D01*
G01*
X59398000Y-35948500D01*
G75*
G02*
X59798000Y-35548500I400000J0D01*
G01*
G37*
D22*
X60198000Y-28548500D03*
D23*
X60198000Y-31048500D03*
X60198000Y-33848500D03*
G36*
G01*
X59798000Y-16562000D02*
X60598000Y-16562000D01*
G75*
G02*
X60998000Y-16962000I0J-400000D01*
G01*
X60998000Y-17762000D01*
G75*
G02*
X60598000Y-18162000I-400000J0D01*
G01*
X59798000Y-18162000D01*
G75*
G02*
X59398000Y-17762000I0J400000D01*
G01*
X59398000Y-16962000D01*
G75*
G02*
X59798000Y-16562000I400000J0D01*
G01*
G37*
D22*
X60198000Y-9562000D03*
D23*
X60198000Y-12062000D03*
X60198000Y-14862000D03*
G36*
G01*
X40748000Y-73648500D02*
X41548000Y-73648500D01*
G75*
G02*
X41948000Y-74048500I0J-400000D01*
G01*
X41948000Y-74848500D01*
G75*
G02*
X41548000Y-75248500I-400000J0D01*
G01*
X40748000Y-75248500D01*
G75*
G02*
X40348000Y-74848500I0J400000D01*
G01*
X40348000Y-74048500D01*
G75*
G02*
X40748000Y-73648500I400000J0D01*
G01*
G37*
D22*
X41148000Y-66648500D03*
D23*
X41148000Y-69148500D03*
X41148000Y-71948500D03*
G36*
G01*
X40722600Y-54598500D02*
X41522600Y-54598500D01*
G75*
G02*
X41922600Y-54998500I0J-400000D01*
G01*
X41922600Y-55798500D01*
G75*
G02*
X41522600Y-56198500I-400000J0D01*
G01*
X40722600Y-56198500D01*
G75*
G02*
X40322600Y-55798500I0J400000D01*
G01*
X40322600Y-54998500D01*
G75*
G02*
X40722600Y-54598500I400000J0D01*
G01*
G37*
D22*
X41122600Y-47598500D03*
D23*
X41122600Y-50098500D03*
X41122600Y-52898500D03*
G36*
G01*
X40748000Y-35548500D02*
X41548000Y-35548500D01*
G75*
G02*
X41948000Y-35948500I0J-400000D01*
G01*
X41948000Y-36748500D01*
G75*
G02*
X41548000Y-37148500I-400000J0D01*
G01*
X40748000Y-37148500D01*
G75*
G02*
X40348000Y-36748500I0J400000D01*
G01*
X40348000Y-35948500D01*
G75*
G02*
X40748000Y-35548500I400000J0D01*
G01*
G37*
D22*
X41148000Y-28548500D03*
D23*
X41148000Y-31048500D03*
X41148000Y-33848500D03*
G36*
G01*
X40748000Y-16562000D02*
X41548000Y-16562000D01*
G75*
G02*
X41948000Y-16962000I0J-400000D01*
G01*
X41948000Y-17762000D01*
G75*
G02*
X41548000Y-18162000I-400000J0D01*
G01*
X40748000Y-18162000D01*
G75*
G02*
X40348000Y-17762000I0J400000D01*
G01*
X40348000Y-16962000D01*
G75*
G02*
X40748000Y-16562000I400000J0D01*
G01*
G37*
D22*
X41148000Y-9562000D03*
D23*
X41148000Y-12062000D03*
X41148000Y-14862000D03*
G36*
G01*
X22968000Y-73648500D02*
X23768000Y-73648500D01*
G75*
G02*
X24168000Y-74048500I0J-400000D01*
G01*
X24168000Y-74848500D01*
G75*
G02*
X23768000Y-75248500I-400000J0D01*
G01*
X22968000Y-75248500D01*
G75*
G02*
X22568000Y-74848500I0J400000D01*
G01*
X22568000Y-74048500D01*
G75*
G02*
X22968000Y-73648500I400000J0D01*
G01*
G37*
D22*
X23368000Y-66648500D03*
D23*
X23368000Y-69148500D03*
X23368000Y-71948500D03*
G36*
G01*
X22968000Y-54598500D02*
X23768000Y-54598500D01*
G75*
G02*
X24168000Y-54998500I0J-400000D01*
G01*
X24168000Y-55798500D01*
G75*
G02*
X23768000Y-56198500I-400000J0D01*
G01*
X22968000Y-56198500D01*
G75*
G02*
X22568000Y-55798500I0J400000D01*
G01*
X22568000Y-54998500D01*
G75*
G02*
X22968000Y-54598500I400000J0D01*
G01*
G37*
D22*
X23368000Y-47598500D03*
D23*
X23368000Y-50098500D03*
X23368000Y-52898500D03*
G36*
G01*
X22968000Y-35548500D02*
X23768000Y-35548500D01*
G75*
G02*
X24168000Y-35948500I0J-400000D01*
G01*
X24168000Y-36748500D01*
G75*
G02*
X23768000Y-37148500I-400000J0D01*
G01*
X22968000Y-37148500D01*
G75*
G02*
X22568000Y-36748500I0J400000D01*
G01*
X22568000Y-35948500D01*
G75*
G02*
X22968000Y-35548500I400000J0D01*
G01*
G37*
D22*
X23368000Y-28548500D03*
D23*
X23368000Y-31048500D03*
X23368000Y-33848500D03*
G36*
G01*
X22904500Y-16562000D02*
X23704500Y-16562000D01*
G75*
G02*
X24104500Y-16962000I0J-400000D01*
G01*
X24104500Y-17762000D01*
G75*
G02*
X23704500Y-18162000I-400000J0D01*
G01*
X22904500Y-18162000D01*
G75*
G02*
X22504500Y-17762000I0J400000D01*
G01*
X22504500Y-16962000D01*
G75*
G02*
X22904500Y-16562000I400000J0D01*
G01*
G37*
D22*
X23304500Y-9562000D03*
D23*
X23304500Y-12062000D03*
X23304500Y-14862000D03*
D15*
X69723000Y-69215000D03*
D16*
X64643000Y-69215000D03*
X74803000Y-69215000D03*
D15*
X69723000Y-50165000D03*
D16*
X64643000Y-50165000D03*
X74803000Y-50165000D03*
D15*
X69723000Y-12065000D03*
D16*
X64643000Y-12065000D03*
X74803000Y-12065000D03*
D15*
X50673000Y-69215000D03*
D16*
X45593000Y-69215000D03*
X55753000Y-69215000D03*
D15*
X50673000Y-50165000D03*
D16*
X45593000Y-50165000D03*
X55753000Y-50165000D03*
D15*
X50673000Y-12065000D03*
D16*
X45593000Y-12065000D03*
X55753000Y-12065000D03*
D15*
X31623000Y-69215000D03*
D16*
X26543000Y-69215000D03*
X36703000Y-69215000D03*
D15*
X31623000Y-50165000D03*
D16*
X26543000Y-50165000D03*
X36703000Y-50165000D03*
D15*
X31623000Y-31115000D03*
D16*
X26543000Y-31115000D03*
X36703000Y-31115000D03*
M02*
