G04 #@! TF.GenerationSoftware,KiCad,Pcbnew,5.99.0+really5.1.10+dfsg1-1*
G04 #@! TF.CreationDate,2021-05-18T01:02:48-04:00*
G04 #@! TF.ProjectId,numpad_0,6e756d70-6164-45f3-902e-6b696361645f,rev?*
G04 #@! TF.SameCoordinates,Original*
G04 #@! TF.FileFunction,Soldermask,Top*
G04 #@! TF.FilePolarity,Negative*
%FSLAX46Y46*%
G04 Gerber Fmt 4.6, Leading zero omitted, Abs format (unit mm)*
G04 Created by KiCad (PCBNEW 5.99.0+really5.1.10+dfsg1-1) date 2021-05-18 01:02:48*
%MOMM*%
%LPD*%
G01*
G04 APERTURE LIST*
%ADD10C,2.200000*%
%ADD11C,3.987800*%
%ADD12C,1.750000*%
%ADD13C,1.752600*%
%ADD14C,3.048000*%
%ADD15C,2.000000*%
%ADD16R,3.200000X2.000000*%
%ADD17R,2.000000X2.000000*%
%ADD18C,1.600000*%
%ADD19R,1.200000X1.600000*%
G04 APERTURE END LIST*
D10*
X98250000Y-1750000D03*
X98250000Y-98250000D03*
X1750000Y-98250000D03*
X1750000Y-1750000D03*
D11*
X31623000Y-12065000D03*
D12*
X26543000Y-12065000D03*
X36703000Y-12065000D03*
D13*
X18478500Y-3810000D03*
X3238500Y-31750000D03*
X18478500Y-6350000D03*
X18478500Y-8890000D03*
X18478500Y-11430000D03*
X18478500Y-13970000D03*
X18478500Y-16510000D03*
X18478500Y-19050000D03*
X18478500Y-21590000D03*
X18478500Y-24130000D03*
X18478500Y-26670000D03*
X18478500Y-29210000D03*
X18478500Y-31750000D03*
X3238500Y-29210000D03*
X3238500Y-26670000D03*
X3238500Y-24130000D03*
X3238500Y-21590000D03*
X3238500Y-19050000D03*
X3238500Y-16510000D03*
X3238500Y-13970000D03*
X3238500Y-11430000D03*
X3238500Y-8890000D03*
X3238500Y-6350000D03*
G36*
G01*
X2800350Y-2933700D02*
X3676650Y-2933700D01*
G75*
G02*
X4114800Y-3371850I0J-438150D01*
G01*
X4114800Y-4248150D01*
G75*
G02*
X3676650Y-4686300I-438150J0D01*
G01*
X2800350Y-4686300D01*
G75*
G02*
X2362200Y-4248150I0J438150D01*
G01*
X2362200Y-3371850D01*
G75*
G02*
X2800350Y-2933700I438150J0D01*
G01*
G37*
D11*
X69723000Y-31115000D03*
D12*
X64643000Y-31115000D03*
X74803000Y-31115000D03*
D11*
X50673000Y-31115000D03*
D12*
X45593000Y-31115000D03*
X55753000Y-31115000D03*
D11*
X88773000Y-78740000D03*
D12*
X88773000Y-83820000D03*
X88773000Y-73660000D03*
D14*
X81788000Y-90646250D03*
X81788000Y-66833750D03*
D11*
X97028000Y-90646250D03*
X97028000Y-66833750D03*
X88709500Y-40640000D03*
D12*
X88709500Y-45720000D03*
X88709500Y-35560000D03*
D14*
X81724500Y-52546250D03*
X81724500Y-28733750D03*
D11*
X96964500Y-52546250D03*
X96964500Y-28733750D03*
X41148000Y-88265000D03*
D12*
X36068000Y-88265000D03*
X46228000Y-88265000D03*
D14*
X29241750Y-81280000D03*
X53054250Y-81280000D03*
D11*
X29241750Y-96520000D03*
X53054250Y-96520000D03*
D15*
X18112500Y-90765000D03*
X18112500Y-85765000D03*
D16*
X11112500Y-93865000D03*
X11112500Y-82665000D03*
D15*
X3612500Y-90765000D03*
X3612500Y-88265000D03*
D17*
X3612500Y-85765000D03*
D15*
X18112500Y-66952500D03*
X18112500Y-61952500D03*
D16*
X11112500Y-70052500D03*
X11112500Y-58852500D03*
D15*
X3612500Y-66952500D03*
X3612500Y-64452500D03*
D17*
X3612500Y-61952500D03*
D15*
X18112500Y-43140000D03*
X18112500Y-38140000D03*
D16*
X11112500Y-46240000D03*
X11112500Y-35040000D03*
D15*
X3612500Y-43140000D03*
X3612500Y-40640000D03*
D17*
X3612500Y-38140000D03*
G36*
G01*
X17697500Y-78474500D02*
X18497500Y-78474500D01*
G75*
G02*
X18897500Y-78874500I0J-400000D01*
G01*
X18897500Y-79674500D01*
G75*
G02*
X18497500Y-80074500I-400000J0D01*
G01*
X17697500Y-80074500D01*
G75*
G02*
X17297500Y-79674500I0J400000D01*
G01*
X17297500Y-78874500D01*
G75*
G02*
X17697500Y-78474500I400000J0D01*
G01*
G37*
D18*
X18097500Y-71474500D03*
D19*
X18097500Y-73974500D03*
X18097500Y-76774500D03*
G36*
G01*
X17761000Y-54595500D02*
X18561000Y-54595500D01*
G75*
G02*
X18961000Y-54995500I0J-400000D01*
G01*
X18961000Y-55795500D01*
G75*
G02*
X18561000Y-56195500I-400000J0D01*
G01*
X17761000Y-56195500D01*
G75*
G02*
X17361000Y-55795500I0J400000D01*
G01*
X17361000Y-54995500D01*
G75*
G02*
X17761000Y-54595500I400000J0D01*
G01*
G37*
D18*
X18161000Y-47595500D03*
D19*
X18161000Y-50095500D03*
X18161000Y-52895500D03*
D11*
X88773000Y-88265000D03*
D12*
X83693000Y-88265000D03*
X93853000Y-88265000D03*
D11*
X69723000Y-88265000D03*
D12*
X64643000Y-88265000D03*
X74803000Y-88265000D03*
D11*
X50673000Y-88265000D03*
D12*
X45593000Y-88265000D03*
X55753000Y-88265000D03*
D11*
X31623000Y-88265000D03*
D12*
X26543000Y-88265000D03*
X36703000Y-88265000D03*
G36*
G01*
X78086000Y-92635000D02*
X78886000Y-92635000D01*
G75*
G02*
X79286000Y-93035000I0J-400000D01*
G01*
X79286000Y-93835000D01*
G75*
G02*
X78886000Y-94235000I-400000J0D01*
G01*
X78086000Y-94235000D01*
G75*
G02*
X77686000Y-93835000I0J400000D01*
G01*
X77686000Y-93035000D01*
G75*
G02*
X78086000Y-92635000I400000J0D01*
G01*
G37*
D18*
X78486000Y-85635000D03*
D19*
X78486000Y-88135000D03*
X78486000Y-90935000D03*
G36*
G01*
X61131500Y-92698500D02*
X61931500Y-92698500D01*
G75*
G02*
X62331500Y-93098500I0J-400000D01*
G01*
X62331500Y-93898500D01*
G75*
G02*
X61931500Y-94298500I-400000J0D01*
G01*
X61131500Y-94298500D01*
G75*
G02*
X60731500Y-93898500I0J400000D01*
G01*
X60731500Y-93098500D01*
G75*
G02*
X61131500Y-92698500I400000J0D01*
G01*
G37*
D18*
X61531500Y-85698500D03*
D19*
X61531500Y-88198500D03*
X61531500Y-90998500D03*
G36*
G01*
X58464500Y-92698500D02*
X59264500Y-92698500D01*
G75*
G02*
X59664500Y-93098500I0J-400000D01*
G01*
X59664500Y-93898500D01*
G75*
G02*
X59264500Y-94298500I-400000J0D01*
G01*
X58464500Y-94298500D01*
G75*
G02*
X58064500Y-93898500I0J400000D01*
G01*
X58064500Y-93098500D01*
G75*
G02*
X58464500Y-92698500I400000J0D01*
G01*
G37*
D18*
X58864500Y-85698500D03*
D19*
X58864500Y-88198500D03*
X58864500Y-90998500D03*
G36*
G01*
X22968000Y-92698500D02*
X23768000Y-92698500D01*
G75*
G02*
X24168000Y-93098500I0J-400000D01*
G01*
X24168000Y-93898500D01*
G75*
G02*
X23768000Y-94298500I-400000J0D01*
G01*
X22968000Y-94298500D01*
G75*
G02*
X22568000Y-93898500I0J400000D01*
G01*
X22568000Y-93098500D01*
G75*
G02*
X22968000Y-92698500I400000J0D01*
G01*
G37*
D18*
X23368000Y-85698500D03*
D19*
X23368000Y-88198500D03*
X23368000Y-90998500D03*
D11*
X88773000Y-69215000D03*
D12*
X83693000Y-69215000D03*
X93853000Y-69215000D03*
D11*
X88773000Y-50165000D03*
D12*
X83693000Y-50165000D03*
X93853000Y-50165000D03*
D11*
X88773000Y-31115000D03*
D12*
X83693000Y-31115000D03*
X93853000Y-31115000D03*
D11*
X88773000Y-12065000D03*
D12*
X83693000Y-12065000D03*
X93853000Y-12065000D03*
G36*
G01*
X20174000Y-92698500D02*
X20974000Y-92698500D01*
G75*
G02*
X21374000Y-93098500I0J-400000D01*
G01*
X21374000Y-93898500D01*
G75*
G02*
X20974000Y-94298500I-400000J0D01*
G01*
X20174000Y-94298500D01*
G75*
G02*
X19774000Y-93898500I0J400000D01*
G01*
X19774000Y-93098500D01*
G75*
G02*
X20174000Y-92698500I400000J0D01*
G01*
G37*
D18*
X20574000Y-85698500D03*
D19*
X20574000Y-88198500D03*
X20574000Y-90998500D03*
G36*
G01*
X78086000Y-73648500D02*
X78886000Y-73648500D01*
G75*
G02*
X79286000Y-74048500I0J-400000D01*
G01*
X79286000Y-74848500D01*
G75*
G02*
X78886000Y-75248500I-400000J0D01*
G01*
X78086000Y-75248500D01*
G75*
G02*
X77686000Y-74848500I0J400000D01*
G01*
X77686000Y-74048500D01*
G75*
G02*
X78086000Y-73648500I400000J0D01*
G01*
G37*
D18*
X78486000Y-66648500D03*
D19*
X78486000Y-69148500D03*
X78486000Y-71948500D03*
G36*
G01*
X78060600Y-54662000D02*
X78860600Y-54662000D01*
G75*
G02*
X79260600Y-55062000I0J-400000D01*
G01*
X79260600Y-55862000D01*
G75*
G02*
X78860600Y-56262000I-400000J0D01*
G01*
X78060600Y-56262000D01*
G75*
G02*
X77660600Y-55862000I0J400000D01*
G01*
X77660600Y-55062000D01*
G75*
G02*
X78060600Y-54662000I400000J0D01*
G01*
G37*
D18*
X78460600Y-47662000D03*
D19*
X78460600Y-50162000D03*
X78460600Y-52962000D03*
G36*
G01*
X78086000Y-35548500D02*
X78886000Y-35548500D01*
G75*
G02*
X79286000Y-35948500I0J-400000D01*
G01*
X79286000Y-36748500D01*
G75*
G02*
X78886000Y-37148500I-400000J0D01*
G01*
X78086000Y-37148500D01*
G75*
G02*
X77686000Y-36748500I0J400000D01*
G01*
X77686000Y-35948500D01*
G75*
G02*
X78086000Y-35548500I400000J0D01*
G01*
G37*
D18*
X78486000Y-28548500D03*
D19*
X78486000Y-31048500D03*
X78486000Y-33848500D03*
G36*
G01*
X78086000Y-16562000D02*
X78886000Y-16562000D01*
G75*
G02*
X79286000Y-16962000I0J-400000D01*
G01*
X79286000Y-17762000D01*
G75*
G02*
X78886000Y-18162000I-400000J0D01*
G01*
X78086000Y-18162000D01*
G75*
G02*
X77686000Y-17762000I0J400000D01*
G01*
X77686000Y-16962000D01*
G75*
G02*
X78086000Y-16562000I400000J0D01*
G01*
G37*
D18*
X78486000Y-9562000D03*
D19*
X78486000Y-12062000D03*
X78486000Y-14862000D03*
G36*
G01*
X59798000Y-73648500D02*
X60598000Y-73648500D01*
G75*
G02*
X60998000Y-74048500I0J-400000D01*
G01*
X60998000Y-74848500D01*
G75*
G02*
X60598000Y-75248500I-400000J0D01*
G01*
X59798000Y-75248500D01*
G75*
G02*
X59398000Y-74848500I0J400000D01*
G01*
X59398000Y-74048500D01*
G75*
G02*
X59798000Y-73648500I400000J0D01*
G01*
G37*
D18*
X60198000Y-66648500D03*
D19*
X60198000Y-69148500D03*
X60198000Y-71948500D03*
G36*
G01*
X59772600Y-54598500D02*
X60572600Y-54598500D01*
G75*
G02*
X60972600Y-54998500I0J-400000D01*
G01*
X60972600Y-55798500D01*
G75*
G02*
X60572600Y-56198500I-400000J0D01*
G01*
X59772600Y-56198500D01*
G75*
G02*
X59372600Y-55798500I0J400000D01*
G01*
X59372600Y-54998500D01*
G75*
G02*
X59772600Y-54598500I400000J0D01*
G01*
G37*
D18*
X60172600Y-47598500D03*
D19*
X60172600Y-50098500D03*
X60172600Y-52898500D03*
G36*
G01*
X59798000Y-35548500D02*
X60598000Y-35548500D01*
G75*
G02*
X60998000Y-35948500I0J-400000D01*
G01*
X60998000Y-36748500D01*
G75*
G02*
X60598000Y-37148500I-400000J0D01*
G01*
X59798000Y-37148500D01*
G75*
G02*
X59398000Y-36748500I0J400000D01*
G01*
X59398000Y-35948500D01*
G75*
G02*
X59798000Y-35548500I400000J0D01*
G01*
G37*
D18*
X60198000Y-28548500D03*
D19*
X60198000Y-31048500D03*
X60198000Y-33848500D03*
G36*
G01*
X59798000Y-16562000D02*
X60598000Y-16562000D01*
G75*
G02*
X60998000Y-16962000I0J-400000D01*
G01*
X60998000Y-17762000D01*
G75*
G02*
X60598000Y-18162000I-400000J0D01*
G01*
X59798000Y-18162000D01*
G75*
G02*
X59398000Y-17762000I0J400000D01*
G01*
X59398000Y-16962000D01*
G75*
G02*
X59798000Y-16562000I400000J0D01*
G01*
G37*
D18*
X60198000Y-9562000D03*
D19*
X60198000Y-12062000D03*
X60198000Y-14862000D03*
G36*
G01*
X40748000Y-73648500D02*
X41548000Y-73648500D01*
G75*
G02*
X41948000Y-74048500I0J-400000D01*
G01*
X41948000Y-74848500D01*
G75*
G02*
X41548000Y-75248500I-400000J0D01*
G01*
X40748000Y-75248500D01*
G75*
G02*
X40348000Y-74848500I0J400000D01*
G01*
X40348000Y-74048500D01*
G75*
G02*
X40748000Y-73648500I400000J0D01*
G01*
G37*
D18*
X41148000Y-66648500D03*
D19*
X41148000Y-69148500D03*
X41148000Y-71948500D03*
G36*
G01*
X40722600Y-54598500D02*
X41522600Y-54598500D01*
G75*
G02*
X41922600Y-54998500I0J-400000D01*
G01*
X41922600Y-55798500D01*
G75*
G02*
X41522600Y-56198500I-400000J0D01*
G01*
X40722600Y-56198500D01*
G75*
G02*
X40322600Y-55798500I0J400000D01*
G01*
X40322600Y-54998500D01*
G75*
G02*
X40722600Y-54598500I400000J0D01*
G01*
G37*
D18*
X41122600Y-47598500D03*
D19*
X41122600Y-50098500D03*
X41122600Y-52898500D03*
G36*
G01*
X40748000Y-35548500D02*
X41548000Y-35548500D01*
G75*
G02*
X41948000Y-35948500I0J-400000D01*
G01*
X41948000Y-36748500D01*
G75*
G02*
X41548000Y-37148500I-400000J0D01*
G01*
X40748000Y-37148500D01*
G75*
G02*
X40348000Y-36748500I0J400000D01*
G01*
X40348000Y-35948500D01*
G75*
G02*
X40748000Y-35548500I400000J0D01*
G01*
G37*
D18*
X41148000Y-28548500D03*
D19*
X41148000Y-31048500D03*
X41148000Y-33848500D03*
G36*
G01*
X40748000Y-16562000D02*
X41548000Y-16562000D01*
G75*
G02*
X41948000Y-16962000I0J-400000D01*
G01*
X41948000Y-17762000D01*
G75*
G02*
X41548000Y-18162000I-400000J0D01*
G01*
X40748000Y-18162000D01*
G75*
G02*
X40348000Y-17762000I0J400000D01*
G01*
X40348000Y-16962000D01*
G75*
G02*
X40748000Y-16562000I400000J0D01*
G01*
G37*
D18*
X41148000Y-9562000D03*
D19*
X41148000Y-12062000D03*
X41148000Y-14862000D03*
G36*
G01*
X22968000Y-73648500D02*
X23768000Y-73648500D01*
G75*
G02*
X24168000Y-74048500I0J-400000D01*
G01*
X24168000Y-74848500D01*
G75*
G02*
X23768000Y-75248500I-400000J0D01*
G01*
X22968000Y-75248500D01*
G75*
G02*
X22568000Y-74848500I0J400000D01*
G01*
X22568000Y-74048500D01*
G75*
G02*
X22968000Y-73648500I400000J0D01*
G01*
G37*
D18*
X23368000Y-66648500D03*
D19*
X23368000Y-69148500D03*
X23368000Y-71948500D03*
G36*
G01*
X22968000Y-54598500D02*
X23768000Y-54598500D01*
G75*
G02*
X24168000Y-54998500I0J-400000D01*
G01*
X24168000Y-55798500D01*
G75*
G02*
X23768000Y-56198500I-400000J0D01*
G01*
X22968000Y-56198500D01*
G75*
G02*
X22568000Y-55798500I0J400000D01*
G01*
X22568000Y-54998500D01*
G75*
G02*
X22968000Y-54598500I400000J0D01*
G01*
G37*
D18*
X23368000Y-47598500D03*
D19*
X23368000Y-50098500D03*
X23368000Y-52898500D03*
G36*
G01*
X22968000Y-35548500D02*
X23768000Y-35548500D01*
G75*
G02*
X24168000Y-35948500I0J-400000D01*
G01*
X24168000Y-36748500D01*
G75*
G02*
X23768000Y-37148500I-400000J0D01*
G01*
X22968000Y-37148500D01*
G75*
G02*
X22568000Y-36748500I0J400000D01*
G01*
X22568000Y-35948500D01*
G75*
G02*
X22968000Y-35548500I400000J0D01*
G01*
G37*
D18*
X23368000Y-28548500D03*
D19*
X23368000Y-31048500D03*
X23368000Y-33848500D03*
G36*
G01*
X22904500Y-16562000D02*
X23704500Y-16562000D01*
G75*
G02*
X24104500Y-16962000I0J-400000D01*
G01*
X24104500Y-17762000D01*
G75*
G02*
X23704500Y-18162000I-400000J0D01*
G01*
X22904500Y-18162000D01*
G75*
G02*
X22504500Y-17762000I0J400000D01*
G01*
X22504500Y-16962000D01*
G75*
G02*
X22904500Y-16562000I400000J0D01*
G01*
G37*
D18*
X23304500Y-9562000D03*
D19*
X23304500Y-12062000D03*
X23304500Y-14862000D03*
D11*
X69723000Y-69215000D03*
D12*
X64643000Y-69215000D03*
X74803000Y-69215000D03*
D11*
X69723000Y-50165000D03*
D12*
X64643000Y-50165000D03*
X74803000Y-50165000D03*
D11*
X69723000Y-12065000D03*
D12*
X64643000Y-12065000D03*
X74803000Y-12065000D03*
D11*
X50673000Y-69215000D03*
D12*
X45593000Y-69215000D03*
X55753000Y-69215000D03*
D11*
X50673000Y-50165000D03*
D12*
X45593000Y-50165000D03*
X55753000Y-50165000D03*
D11*
X50673000Y-12065000D03*
D12*
X45593000Y-12065000D03*
X55753000Y-12065000D03*
D11*
X31623000Y-69215000D03*
D12*
X26543000Y-69215000D03*
X36703000Y-69215000D03*
D11*
X31623000Y-50165000D03*
D12*
X26543000Y-50165000D03*
X36703000Y-50165000D03*
D11*
X31623000Y-31115000D03*
D12*
X26543000Y-31115000D03*
X36703000Y-31115000D03*
M02*
