M48
; DRILL file {KiCad 5.99.0+really5.1.10+dfsg1-1} date Tue May 18 01:04:11 2021
; FORMAT={-:-/ absolute / metric / decimal}
; #@! TF.CreationDate,2021-05-18T01:04:11-04:00
; #@! TF.GenerationSoftware,Kicad,Pcbnew,5.99.0+really5.1.10+dfsg1-1
; #@! TF.FileFunction,NonPlated,1,2,NPTH
FMAT,2
METRIC
T1C1.750
T2C2.200
T3C3.048
T4C3.988
%
G90
G05
T1
X26.543Y-12.065
X26.543Y-31.115
X26.543Y-50.165
X26.543Y-69.215
X26.543Y-88.265
X36.068Y-88.265
X36.703Y-12.065
X36.703Y-31.115
X36.703Y-50.165
X36.703Y-69.215
X36.703Y-88.265
X45.593Y-12.065
X45.593Y-31.115
X45.593Y-50.165
X45.593Y-69.215
X45.593Y-88.265
X46.228Y-88.265
X55.753Y-12.065
X55.753Y-31.115
X55.753Y-50.165
X55.753Y-69.215
X55.753Y-88.265
X64.643Y-12.065
X64.643Y-31.115
X64.643Y-50.165
X64.643Y-69.215
X64.643Y-88.265
X74.803Y-12.065
X74.803Y-31.115
X74.803Y-50.165
X74.803Y-69.215
X74.803Y-88.265
X83.693Y-12.065
X83.693Y-31.115
X83.693Y-50.165
X83.693Y-69.215
X83.693Y-88.265
X88.709Y-35.56
X88.709Y-45.72
X88.773Y-73.66
X88.773Y-83.82
X93.853Y-12.065
X93.853Y-31.115
X93.853Y-50.165
X93.853Y-69.215
X93.853Y-88.265
T2
X1.75Y-1.75
X1.75Y-98.25
X98.25Y-1.75
X98.25Y-98.25
T3
X29.242Y-81.28
X53.054Y-81.28
X81.724Y-28.734
X81.724Y-52.546
X81.788Y-66.834
X81.788Y-90.646
T4
X29.242Y-96.52
X31.623Y-12.065
X31.623Y-31.115
X31.623Y-50.165
X31.623Y-69.215
X31.623Y-88.265
X41.148Y-88.265
X50.673Y-12.065
X50.673Y-31.115
X50.673Y-50.165
X50.673Y-69.215
X50.673Y-88.265
X53.054Y-96.52
X69.723Y-12.065
X69.723Y-31.115
X69.723Y-50.165
X69.723Y-69.215
X69.723Y-88.265
X88.709Y-40.64
X88.773Y-12.065
X88.773Y-31.115
X88.773Y-50.165
X88.773Y-69.215
X88.773Y-78.74
X88.773Y-88.265
X96.965Y-28.734
X96.965Y-52.546
X97.028Y-66.834
X97.028Y-90.646
T0
M30
