M48
; DRILL file {KiCad 5.99.0+really5.1.10+dfsg1-1} date Tue May 18 01:04:11 2021
; FORMAT={-:-/ absolute / metric / decimal}
; #@! TF.CreationDate,2021-05-18T01:04:11-04:00
; #@! TF.GenerationSoftware,Kicad,Pcbnew,5.99.0+really5.1.10+dfsg1-1
; #@! TF.FileFunction,Plated,1,2,PTH
FMAT,2
METRIC
T1C0.400
T2C1.000
T3C1.092
T4C1.470
T5C1.500
%
G90
G05
T1
X2.0Y-34.0
X2.0Y-36.0
X2.0Y-38.0
X2.0Y-40.0
X2.0Y-42.0
X2.0Y-44.0
X2.0Y-46.0
X2.0Y-48.0
X2.0Y-50.0
X2.0Y-52.0
X2.0Y-54.0
X2.0Y-56.0
X2.0Y-58.0
X2.0Y-60.0
X2.0Y-62.0
X2.0Y-64.0
X2.0Y-66.0
X2.0Y-68.0
X2.0Y-70.0
X2.0Y-72.0
X2.0Y-74.0
X2.0Y-76.0
X2.0Y-78.0
X2.0Y-80.0
X2.0Y-82.0
X2.0Y-84.0
X2.0Y-86.0
X2.0Y-88.0
X2.0Y-90.0
X2.0Y-92.0
X2.0Y-94.0
X2.0Y-96.0
X2.032Y-5.08
X2.032Y-7.62
X2.032Y-10.16
X2.032Y-12.7
X2.032Y-15.24
X2.032Y-17.78
X2.032Y-20.32
X2.032Y-22.86
X2.032Y-25.4
X2.032Y-27.94
X2.032Y-30.48
X2.032Y-33.02
X4.0Y-96.0
X4.0Y-98.0
X4.445Y-2.476
X4.445Y-5.08
X4.445Y-7.62
X4.445Y-10.16
X4.445Y-12.7
X4.445Y-15.24
X4.445Y-17.78
X4.445Y-20.32
X4.445Y-22.86
X4.445Y-25.4
X4.445Y-27.94
X4.445Y-30.48
X4.445Y-33.02
X6.0Y-2.0
X6.0Y-98.0
X8.0Y-2.0
X8.0Y-98.0
X10.0Y-2.0
X10.0Y-98.0
X12.0Y-2.0
X12.0Y-98.0
X14.0Y-2.0
X14.0Y-98.0
X16.0Y-2.0
X16.0Y-98.0
X16.485Y-38.125
X16.485Y-61.951
X16.485Y-90.754
X17.272Y-2.54
X17.272Y-5.08
X17.272Y-7.62
X17.272Y-10.16
X17.272Y-12.7
X17.272Y-15.24
X17.272Y-17.78
X17.272Y-20.32
X17.272Y-22.86
X17.272Y-25.4
X17.272Y-27.94
X17.272Y-30.48
X17.272Y-32.956
X18.0Y-98.0
X18.098Y-80.709
X18.161Y-56.832
X19.431Y-54.102
X19.558Y-47.688
X19.558Y-71.501
X19.736Y-38.125
X19.736Y-61.951
X19.748Y-2.54
X19.748Y-5.08
X19.748Y-7.62
X19.748Y-10.16
X19.748Y-12.7
X19.748Y-15.24
X19.748Y-17.78
X19.748Y-20.32
X19.748Y-22.86
X19.748Y-25.4
X19.748Y-27.94
X19.748Y-30.48
X19.748Y-32.956
X20.0Y-98.0
X21.844Y-9.525
X21.907Y-28.575
X21.907Y-47.625
X21.907Y-66.675
X21.971Y-84.391
X21.971Y-92.456
X21.971Y-94.488
X22.0Y-2.0
X22.0Y-98.0
X24.0Y-2.0
X24.0Y-98.0
X24.511Y-16.129
X24.638Y-35.115
X24.638Y-54.165
X24.638Y-73.215
X26.0Y-2.0
X26.0Y-98.0
X28.0Y-2.0
X30.0Y-2.0
X32.0Y-2.0
X32.0Y-98.0
X32.766Y-5.588
X32.766Y-8.382
X32.766Y-24.638
X32.766Y-27.432
X32.766Y-43.688
X32.766Y-46.482
X32.766Y-62.738
X32.766Y-65.532
X32.766Y-81.788
X32.766Y-84.582
X33.21Y-35.369
X33.21Y-37.274
X33.274Y-16.447
X33.274Y-18.479
X33.274Y-20.256
X33.274Y-22.034
X33.274Y-54.483
X33.274Y-56.325
X33.274Y-73.533
X33.274Y-75.374
X34.0Y-2.0
X34.0Y-98.0
X35.115Y-16.447
X35.115Y-18.479
X35.115Y-20.256
X35.115Y-22.034
X35.115Y-37.274
X35.115Y-54.483
X35.115Y-56.325
X35.115Y-73.533
X35.115Y-75.374
X35.179Y-35.369
X35.56Y-5.588
X35.56Y-8.382
X35.56Y-24.638
X35.56Y-27.432
X35.56Y-43.688
X35.56Y-46.482
X35.56Y-62.738
X35.56Y-65.532
X35.56Y-81.788
X35.56Y-84.582
X36.0Y-2.0
X36.0Y-98.0
X38.0Y-2.0
X38.0Y-98.0
X39.688Y-9.525
X39.688Y-28.575
X39.688Y-47.625
X39.688Y-66.675
X40.0Y-2.0
X40.0Y-98.0
X42.0Y-2.0
X42.0Y-98.0
X42.355Y-70.548
X42.418Y-16.129
X42.418Y-35.052
X42.418Y-54.102
X44.0Y-2.0
X44.0Y-98.0
X45.466Y-84.328
X46.0Y-2.0
X46.0Y-98.0
X48.0Y-2.0
X48.0Y-98.0
X48.26Y-84.328
X48.26Y-87.122
X50.0Y-2.0
X50.0Y-98.0
X51.816Y-5.588
X51.816Y-8.382
X51.816Y-24.638
X51.816Y-27.432
X51.816Y-43.688
X51.816Y-46.482
X51.816Y-62.738
X51.816Y-65.532
X52.0Y-2.0
X52.261Y-73.533
X52.261Y-75.374
X52.324Y-16.447
X52.324Y-18.479
X52.324Y-20.256
X52.324Y-22.034
X52.324Y-35.433
X52.324Y-37.274
X52.324Y-54.483
X52.324Y-56.325
X53.245Y-19.367
X54.0Y-2.0
X54.102Y-73.533
X54.102Y-75.374
X54.165Y-16.447
X54.165Y-18.479
X54.165Y-20.256
X54.165Y-22.034
X54.165Y-35.433
X54.165Y-37.274
X54.165Y-54.483
X54.165Y-56.325
X54.61Y-5.588
X54.61Y-8.382
X54.61Y-24.638
X54.61Y-27.432
X54.61Y-43.688
X54.61Y-46.482
X54.61Y-62.738
X54.61Y-65.532
X56.0Y-2.0
X56.0Y-98.0
X58.0Y-2.0
X58.0Y-98.0
X58.737Y-9.588
X58.737Y-28.575
X58.737Y-47.625
X58.991Y-70.548
X60.0Y-2.0
X60.0Y-98.0
X60.198Y-84.772
X60.198Y-92.519
X60.198Y-94.551
X61.404Y-54.165
X61.404Y-70.548
X61.468Y-16.129
X61.468Y-35.115
X62.0Y-2.0
X62.0Y-98.0
X64.0Y-2.0
X64.0Y-98.0
X66.0Y-2.0
X66.0Y-98.0
X68.0Y-2.0
X68.0Y-98.0
X70.0Y-2.0
X70.0Y-98.0
X70.866Y-5.588
X70.866Y-8.382
X70.866Y-24.638
X70.866Y-27.432
X70.866Y-43.688
X70.866Y-46.482
X70.866Y-62.738
X70.866Y-65.532
X70.866Y-81.788
X70.866Y-84.582
X71.374Y-16.447
X71.374Y-18.288
X71.374Y-20.256
X71.374Y-22.034
X71.374Y-35.433
X71.374Y-37.274
X71.374Y-54.483
X71.374Y-56.325
X71.374Y-73.533
X71.374Y-75.374
X72.0Y-2.0
X72.0Y-98.0
X72.295Y-21.145
X73.215Y-16.447
X73.215Y-18.288
X73.215Y-20.256
X73.215Y-22.034
X73.215Y-35.433
X73.215Y-37.274
X73.215Y-54.483
X73.215Y-56.325
X73.215Y-73.533
X73.215Y-75.374
X73.66Y-5.588
X73.66Y-8.382
X73.66Y-24.638
X73.66Y-27.432
X73.66Y-43.688
X73.66Y-46.482
X73.66Y-62.738
X73.66Y-65.532
X73.66Y-81.788
X73.66Y-84.582
X74.0Y-2.0
X74.0Y-98.0
X76.0Y-2.0
X76.0Y-98.0
X77.025Y-9.588
X77.025Y-28.575
X77.025Y-47.625
X77.025Y-85.661
X77.279Y-70.548
X78.0Y-2.0
X78.0Y-98.0
X79.692Y-54.229
X79.692Y-70.548
X79.756Y-16.066
X79.756Y-35.115
X79.756Y-92.202
X80.0Y-2.0
X80.0Y-98.0
X82.0Y-2.0
X82.0Y-98.0
X84.0Y-2.0
X84.0Y-98.0
X86.0Y-2.0
X86.0Y-98.0
X88.0Y-2.0
X88.0Y-98.0
X89.916Y-5.588
X89.916Y-8.382
X89.916Y-24.638
X89.916Y-27.432
X89.916Y-43.688
X89.916Y-62.738
X89.916Y-65.532
X89.916Y-81.788
X90.0Y-2.0
X90.0Y-98.0
X90.424Y-22.034
X90.424Y-23.812
X91.345Y-22.924
X92.0Y-2.0
X92.0Y-98.0
X92.265Y-22.034
X92.265Y-23.812
X92.71Y-5.588
X92.71Y-8.382
X92.71Y-24.638
X92.71Y-27.432
X92.71Y-43.688
X92.71Y-46.482
X92.71Y-62.738
X92.71Y-65.532
X92.71Y-81.788
X92.71Y-84.582
X94.0Y-2.0
X94.0Y-98.0
X96.0Y-2.0
X96.0Y-4.0
X96.0Y-96.0
X96.0Y-98.0
X98.0Y-4.0
X98.0Y-6.0
X98.0Y-8.0
X98.0Y-10.0
X98.0Y-12.0
X98.0Y-14.0
X98.0Y-16.0
X98.0Y-18.0
X98.0Y-20.0
X98.0Y-22.0
X98.0Y-24.0
X98.0Y-26.0
X98.0Y-32.0
X98.0Y-34.0
X98.0Y-36.0
X98.0Y-38.0
X98.0Y-40.0
X98.0Y-42.0
X98.0Y-44.0
X98.0Y-46.0
X98.0Y-48.0
X98.0Y-50.0
X98.0Y-56.0
X98.0Y-58.0
X98.0Y-60.0
X98.0Y-62.0
X98.0Y-64.0
X98.0Y-70.0
X98.0Y-72.0
X98.0Y-74.0
X98.0Y-76.0
X98.0Y-78.0
X98.0Y-80.0
X98.0Y-82.0
X98.0Y-84.0
X98.0Y-86.0
X98.0Y-88.0
X98.0Y-94.0
X98.0Y-96.0
T2
X3.612Y-38.14
X3.612Y-40.64
X3.612Y-43.14
X3.612Y-61.953
X3.612Y-64.453
X3.612Y-66.953
X3.612Y-85.765
X3.612Y-88.265
X3.612Y-90.765
X18.098Y-71.474
X18.098Y-79.275
X18.113Y-38.14
X18.113Y-43.14
X18.113Y-61.953
X18.113Y-66.953
X18.113Y-85.765
X18.113Y-90.765
X18.161Y-47.596
X18.161Y-55.395
X20.574Y-85.698
X20.574Y-93.498
X23.304Y-9.562
X23.304Y-17.362
X23.368Y-28.548
X23.368Y-36.349
X23.368Y-47.599
X23.368Y-55.398
X23.368Y-66.648
X23.368Y-74.448
X23.368Y-85.698
X23.368Y-93.498
X41.123Y-47.599
X41.123Y-55.398
X41.148Y-9.562
X41.148Y-17.362
X41.148Y-28.548
X41.148Y-36.349
X41.148Y-66.648
X41.148Y-74.448
X58.864Y-85.698
X58.864Y-93.498
X60.173Y-47.599
X60.173Y-55.398
X60.198Y-9.562
X60.198Y-17.362
X60.198Y-28.548
X60.198Y-36.349
X60.198Y-66.648
X60.198Y-74.448
X61.531Y-85.698
X61.531Y-93.498
X78.461Y-47.662
X78.461Y-55.462
X78.486Y-9.562
X78.486Y-17.362
X78.486Y-28.548
X78.486Y-36.349
X78.486Y-66.648
X78.486Y-74.448
X78.486Y-85.635
X78.486Y-93.435
T3
X3.238Y-3.81
X3.238Y-6.35
X3.238Y-8.89
X3.238Y-11.43
X3.238Y-13.97
X3.238Y-16.51
X3.238Y-19.05
X3.238Y-21.59
X3.238Y-24.13
X3.238Y-26.67
X3.238Y-29.21
X3.238Y-31.75
X18.479Y-3.81
X18.479Y-6.35
X18.479Y-8.89
X18.479Y-11.43
X18.479Y-13.97
X18.479Y-16.51
X18.479Y-19.05
X18.479Y-21.59
X18.479Y-24.13
X18.479Y-26.67
X18.479Y-29.21
X18.479Y-31.75
T4
X27.813Y-9.525
X27.813Y-28.575
X27.813Y-47.625
X27.813Y-66.675
X27.813Y-85.725
X34.163Y-6.985
X34.163Y-26.035
X34.163Y-45.085
X34.163Y-64.135
X34.163Y-83.185
X37.338Y-85.725
X43.688Y-83.185
X46.863Y-9.525
X46.863Y-28.575
X46.863Y-47.625
X46.863Y-66.675
X46.863Y-85.725
X53.213Y-6.985
X53.213Y-26.035
X53.213Y-45.085
X53.213Y-64.135
X53.213Y-83.185
X65.913Y-9.525
X65.913Y-28.575
X65.913Y-47.625
X65.913Y-66.675
X65.913Y-85.725
X72.263Y-6.985
X72.263Y-26.035
X72.263Y-45.085
X72.263Y-64.135
X72.263Y-83.185
X83.629Y-38.1
X83.693Y-76.2
X84.963Y-9.525
X84.963Y-28.575
X84.963Y-47.625
X84.963Y-66.675
X84.963Y-85.725
X86.169Y-44.45
X86.233Y-82.55
X91.313Y-6.985
X91.313Y-26.035
X91.313Y-45.085
X91.313Y-64.135
X91.313Y-83.185
T5
X10.463Y-35.04G85X11.762Y-35.04
G05
X10.463Y-46.24G85X11.762Y-46.24
G05
X10.463Y-58.852G85X11.762Y-58.852
G05
X10.463Y-70.052G85X11.762Y-70.052
G05
X10.463Y-82.665G85X11.762Y-82.665
G05
X10.463Y-93.865G85X11.762Y-93.865
G05
T0
M30
