%FSLAX45Y45*%
G04 Gerber Fmt 4.5, Leading zero omitted, Abs format (unit mm)*
G04 Created by KiCad (PCBNEW 5.99.0+really5.1.10+dfsg1-1) date 2021-05-18 01:04:15*
%MOMM*%
%LPD*%
G01*
G04 APERTURE LIST*
%TA.AperFunction,Profile*%
%ADD10C,0.050000*%
%TD*%
%ADD11C,0.200000*%
%ADD12C,0.300000*%
G04 APERTURE END LIST*
D10*
X0Y-10000000D02*
X10000000Y-10000000D01*
X10000000Y0D02*
X10000000Y-10000000D01*
X0Y-10000000D02*
X0Y0D01*
X0Y0D02*
X10000000Y0D01*
D11*
X180000Y-3380000D02*
X220000Y-3420000D01*
X220000Y-3380000D02*
X180000Y-3420000D01*
X180000Y-3580000D02*
X220000Y-3620000D01*
X220000Y-3580000D02*
X180000Y-3620000D01*
X180000Y-3780000D02*
X220000Y-3820000D01*
X220000Y-3780000D02*
X180000Y-3820000D01*
X180000Y-3980000D02*
X220000Y-4020000D01*
X220000Y-3980000D02*
X180000Y-4020000D01*
X180000Y-4180000D02*
X220000Y-4220000D01*
X220000Y-4180000D02*
X180000Y-4220000D01*
X180000Y-4380000D02*
X220000Y-4420000D01*
X220000Y-4380000D02*
X180000Y-4420000D01*
X180000Y-4580000D02*
X220000Y-4620000D01*
X220000Y-4580000D02*
X180000Y-4620000D01*
X180000Y-4780000D02*
X220000Y-4820000D01*
X220000Y-4780000D02*
X180000Y-4820000D01*
X180000Y-4980000D02*
X220000Y-5020000D01*
X220000Y-4980000D02*
X180000Y-5020000D01*
X180000Y-5180000D02*
X220000Y-5220000D01*
X220000Y-5180000D02*
X180000Y-5220000D01*
X180000Y-5380000D02*
X220000Y-5420000D01*
X220000Y-5380000D02*
X180000Y-5420000D01*
X180000Y-5580000D02*
X220000Y-5620000D01*
X220000Y-5580000D02*
X180000Y-5620000D01*
X180000Y-5780000D02*
X220000Y-5820000D01*
X220000Y-5780000D02*
X180000Y-5820000D01*
X180000Y-5980000D02*
X220000Y-6020000D01*
X220000Y-5980000D02*
X180000Y-6020000D01*
X180000Y-6180000D02*
X220000Y-6220000D01*
X220000Y-6180000D02*
X180000Y-6220000D01*
X180000Y-6380000D02*
X220000Y-6420000D01*
X220000Y-6380000D02*
X180000Y-6420000D01*
X180000Y-6580000D02*
X220000Y-6620000D01*
X220000Y-6580000D02*
X180000Y-6620000D01*
X180000Y-6780000D02*
X220000Y-6820000D01*
X220000Y-6780000D02*
X180000Y-6820000D01*
X180000Y-6980000D02*
X220000Y-7020000D01*
X220000Y-6980000D02*
X180000Y-7020000D01*
X180000Y-7180000D02*
X220000Y-7220000D01*
X220000Y-7180000D02*
X180000Y-7220000D01*
X180000Y-7380000D02*
X220000Y-7420000D01*
X220000Y-7380000D02*
X180000Y-7420000D01*
X180000Y-7580000D02*
X220000Y-7620000D01*
X220000Y-7580000D02*
X180000Y-7620000D01*
X180000Y-7780000D02*
X220000Y-7820000D01*
X220000Y-7780000D02*
X180000Y-7820000D01*
X180000Y-7980000D02*
X220000Y-8020000D01*
X220000Y-7980000D02*
X180000Y-8020000D01*
X180000Y-8180000D02*
X220000Y-8220000D01*
X220000Y-8180000D02*
X180000Y-8220000D01*
X180000Y-8380000D02*
X220000Y-8420000D01*
X220000Y-8380000D02*
X180000Y-8420000D01*
X180000Y-8580000D02*
X220000Y-8620000D01*
X220000Y-8580000D02*
X180000Y-8620000D01*
X180000Y-8780000D02*
X220000Y-8820000D01*
X220000Y-8780000D02*
X180000Y-8820000D01*
X180000Y-8980000D02*
X220000Y-9020000D01*
X220000Y-8980000D02*
X180000Y-9020000D01*
X180000Y-9180000D02*
X220000Y-9220000D01*
X220000Y-9180000D02*
X180000Y-9220000D01*
X180000Y-9380000D02*
X220000Y-9420000D01*
X220000Y-9380000D02*
X180000Y-9420000D01*
X180000Y-9580000D02*
X220000Y-9620000D01*
X220000Y-9580000D02*
X180000Y-9620000D01*
X183200Y-488000D02*
X223200Y-528000D01*
X223200Y-488000D02*
X183200Y-528000D01*
X183200Y-742000D02*
X223200Y-782000D01*
X223200Y-742000D02*
X183200Y-782000D01*
X183200Y-996000D02*
X223200Y-1036000D01*
X223200Y-996000D02*
X183200Y-1036000D01*
X183200Y-1250000D02*
X223200Y-1290000D01*
X223200Y-1250000D02*
X183200Y-1290000D01*
X183200Y-1504000D02*
X223200Y-1544000D01*
X223200Y-1504000D02*
X183200Y-1544000D01*
X183200Y-1758000D02*
X223200Y-1798000D01*
X223200Y-1758000D02*
X183200Y-1798000D01*
X183200Y-2012000D02*
X223200Y-2052000D01*
X223200Y-2012000D02*
X183200Y-2052000D01*
X183200Y-2266000D02*
X223200Y-2306000D01*
X223200Y-2266000D02*
X183200Y-2306000D01*
X183200Y-2520000D02*
X223200Y-2560000D01*
X223200Y-2520000D02*
X183200Y-2560000D01*
X183200Y-2774000D02*
X223200Y-2814000D01*
X223200Y-2774000D02*
X183200Y-2814000D01*
X183200Y-3028000D02*
X223200Y-3068000D01*
X223200Y-3028000D02*
X183200Y-3068000D01*
X183200Y-3282000D02*
X223200Y-3322000D01*
X223200Y-3282000D02*
X183200Y-3322000D01*
X380000Y-9580000D02*
X420000Y-9620000D01*
X420000Y-9580000D02*
X380000Y-9620000D01*
X380000Y-9780000D02*
X420000Y-9820000D01*
X420000Y-9780000D02*
X380000Y-9820000D01*
X424500Y-227650D02*
X464500Y-267650D01*
X464500Y-227650D02*
X424500Y-267650D01*
X424500Y-488000D02*
X464500Y-528000D01*
X464500Y-488000D02*
X424500Y-528000D01*
X424500Y-742000D02*
X464500Y-782000D01*
X464500Y-742000D02*
X424500Y-782000D01*
X424500Y-996000D02*
X464500Y-1036000D01*
X464500Y-996000D02*
X424500Y-1036000D01*
X424500Y-1250000D02*
X464500Y-1290000D01*
X464500Y-1250000D02*
X424500Y-1290000D01*
X424500Y-1504000D02*
X464500Y-1544000D01*
X464500Y-1504000D02*
X424500Y-1544000D01*
X424500Y-1758000D02*
X464500Y-1798000D01*
X464500Y-1758000D02*
X424500Y-1798000D01*
X424500Y-2012000D02*
X464500Y-2052000D01*
X464500Y-2012000D02*
X424500Y-2052000D01*
X424500Y-2266000D02*
X464500Y-2306000D01*
X464500Y-2266000D02*
X424500Y-2306000D01*
X424500Y-2520000D02*
X464500Y-2560000D01*
X464500Y-2520000D02*
X424500Y-2560000D01*
X424500Y-2774000D02*
X464500Y-2814000D01*
X464500Y-2774000D02*
X424500Y-2814000D01*
X424500Y-3028000D02*
X464500Y-3068000D01*
X464500Y-3028000D02*
X424500Y-3068000D01*
X424500Y-3282000D02*
X464500Y-3322000D01*
X464500Y-3282000D02*
X424500Y-3322000D01*
X580000Y-180000D02*
X620000Y-220000D01*
X620000Y-180000D02*
X580000Y-220000D01*
X580000Y-9780000D02*
X620000Y-9820000D01*
X620000Y-9780000D02*
X580000Y-9820000D01*
X780000Y-180000D02*
X820000Y-220000D01*
X820000Y-180000D02*
X780000Y-220000D01*
X780000Y-9780000D02*
X820000Y-9820000D01*
X820000Y-9780000D02*
X780000Y-9820000D01*
X980000Y-180000D02*
X1020000Y-220000D01*
X1020000Y-180000D02*
X980000Y-220000D01*
X980000Y-9780000D02*
X1020000Y-9820000D01*
X1020000Y-9780000D02*
X980000Y-9820000D01*
X1180000Y-180000D02*
X1220000Y-220000D01*
X1220000Y-180000D02*
X1180000Y-220000D01*
X1180000Y-9780000D02*
X1220000Y-9820000D01*
X1220000Y-9780000D02*
X1180000Y-9820000D01*
X1380000Y-180000D02*
X1420000Y-220000D01*
X1420000Y-180000D02*
X1380000Y-220000D01*
X1380000Y-9780000D02*
X1420000Y-9820000D01*
X1420000Y-9780000D02*
X1380000Y-9820000D01*
X1580000Y-180000D02*
X1620000Y-220000D01*
X1620000Y-180000D02*
X1580000Y-220000D01*
X1580000Y-9780000D02*
X1620000Y-9820000D01*
X1620000Y-9780000D02*
X1580000Y-9820000D01*
X1628460Y-3792540D02*
X1668460Y-3832540D01*
X1668460Y-3792540D02*
X1628460Y-3832540D01*
X1628460Y-6175060D02*
X1668460Y-6215060D01*
X1668460Y-6175060D02*
X1628460Y-6215060D01*
X1628460Y-9055420D02*
X1668460Y-9095420D01*
X1668460Y-9055420D02*
X1628460Y-9095420D01*
X1707200Y-234000D02*
X1747200Y-274000D01*
X1747200Y-234000D02*
X1707200Y-274000D01*
X1707200Y-488000D02*
X1747200Y-528000D01*
X1747200Y-488000D02*
X1707200Y-528000D01*
X1707200Y-742000D02*
X1747200Y-782000D01*
X1747200Y-742000D02*
X1707200Y-782000D01*
X1707200Y-996000D02*
X1747200Y-1036000D01*
X1747200Y-996000D02*
X1707200Y-1036000D01*
X1707200Y-1250000D02*
X1747200Y-1290000D01*
X1747200Y-1250000D02*
X1707200Y-1290000D01*
X1707200Y-1504000D02*
X1747200Y-1544000D01*
X1747200Y-1504000D02*
X1707200Y-1544000D01*
X1707200Y-1758000D02*
X1747200Y-1798000D01*
X1747200Y-1758000D02*
X1707200Y-1798000D01*
X1707200Y-2012000D02*
X1747200Y-2052000D01*
X1747200Y-2012000D02*
X1707200Y-2052000D01*
X1707200Y-2266000D02*
X1747200Y-2306000D01*
X1747200Y-2266000D02*
X1707200Y-2306000D01*
X1707200Y-2520000D02*
X1747200Y-2560000D01*
X1747200Y-2520000D02*
X1707200Y-2560000D01*
X1707200Y-2774000D02*
X1747200Y-2814000D01*
X1747200Y-2774000D02*
X1707200Y-2814000D01*
X1707200Y-3028000D02*
X1747200Y-3068000D01*
X1747200Y-3028000D02*
X1707200Y-3068000D01*
X1707200Y-3275650D02*
X1747200Y-3315650D01*
X1747200Y-3275650D02*
X1707200Y-3315650D01*
X1780000Y-9780000D02*
X1820000Y-9820000D01*
X1820000Y-9780000D02*
X1780000Y-9820000D01*
X1789750Y-8050850D02*
X1829750Y-8090850D01*
X1829750Y-8050850D02*
X1789750Y-8090850D01*
X1796100Y-5663250D02*
X1836100Y-5703250D01*
X1836100Y-5663250D02*
X1796100Y-5703250D01*
X1923100Y-5390200D02*
X1963100Y-5430200D01*
X1963100Y-5390200D02*
X1923100Y-5430200D01*
X1935800Y-4748850D02*
X1975800Y-4788850D01*
X1975800Y-4748850D02*
X1935800Y-4788850D01*
X1935800Y-7130100D02*
X1975800Y-7170100D01*
X1975800Y-7130100D02*
X1935800Y-7170100D01*
X1953580Y-3792540D02*
X1993580Y-3832540D01*
X1993580Y-3792540D02*
X1953580Y-3832540D01*
X1953580Y-6175060D02*
X1993580Y-6215060D01*
X1993580Y-6175060D02*
X1953580Y-6215060D01*
X1954850Y-234000D02*
X1994850Y-274000D01*
X1994850Y-234000D02*
X1954850Y-274000D01*
X1954850Y-488000D02*
X1994850Y-528000D01*
X1994850Y-488000D02*
X1954850Y-528000D01*
X1954850Y-742000D02*
X1994850Y-782000D01*
X1994850Y-742000D02*
X1954850Y-782000D01*
X1954850Y-996000D02*
X1994850Y-1036000D01*
X1994850Y-996000D02*
X1954850Y-1036000D01*
X1954850Y-1250000D02*
X1994850Y-1290000D01*
X1994850Y-1250000D02*
X1954850Y-1290000D01*
X1954850Y-1504000D02*
X1994850Y-1544000D01*
X1994850Y-1504000D02*
X1954850Y-1544000D01*
X1954850Y-1758000D02*
X1994850Y-1798000D01*
X1994850Y-1758000D02*
X1954850Y-1798000D01*
X1954850Y-2012000D02*
X1994850Y-2052000D01*
X1994850Y-2012000D02*
X1954850Y-2052000D01*
X1954850Y-2266000D02*
X1994850Y-2306000D01*
X1994850Y-2266000D02*
X1954850Y-2306000D01*
X1954850Y-2520000D02*
X1994850Y-2560000D01*
X1994850Y-2520000D02*
X1954850Y-2560000D01*
X1954850Y-2774000D02*
X1994850Y-2814000D01*
X1994850Y-2774000D02*
X1954850Y-2814000D01*
X1954850Y-3028000D02*
X1994850Y-3068000D01*
X1994850Y-3028000D02*
X1954850Y-3068000D01*
X1954850Y-3275650D02*
X1994850Y-3315650D01*
X1994850Y-3275650D02*
X1954850Y-3315650D01*
X1980000Y-9780000D02*
X2020000Y-9820000D01*
X2020000Y-9780000D02*
X1980000Y-9820000D01*
X2164400Y-932500D02*
X2204400Y-972500D01*
X2204400Y-932500D02*
X2164400Y-972500D01*
X2170750Y-2837500D02*
X2210750Y-2877500D01*
X2210750Y-2837500D02*
X2170750Y-2877500D01*
X2170750Y-4742500D02*
X2210750Y-4782500D01*
X2210750Y-4742500D02*
X2170750Y-4782500D01*
X2170750Y-6647500D02*
X2210750Y-6687500D01*
X2210750Y-6647500D02*
X2170750Y-6687500D01*
X2177100Y-8419150D02*
X2217100Y-8459150D01*
X2217100Y-8419150D02*
X2177100Y-8459150D01*
X2177100Y-9225600D02*
X2217100Y-9265600D01*
X2217100Y-9225600D02*
X2177100Y-9265600D01*
X2177100Y-9428800D02*
X2217100Y-9468800D01*
X2217100Y-9428800D02*
X2177100Y-9468800D01*
X2180000Y-180000D02*
X2220000Y-220000D01*
X2220000Y-180000D02*
X2180000Y-220000D01*
X2180000Y-9780000D02*
X2220000Y-9820000D01*
X2220000Y-9780000D02*
X2180000Y-9820000D01*
X2380000Y-180000D02*
X2420000Y-220000D01*
X2420000Y-180000D02*
X2380000Y-220000D01*
X2380000Y-9780000D02*
X2420000Y-9820000D01*
X2420000Y-9780000D02*
X2380000Y-9820000D01*
X2431100Y-1592900D02*
X2471100Y-1632900D01*
X2471100Y-1592900D02*
X2431100Y-1632900D01*
X2443800Y-3491550D02*
X2483800Y-3531550D01*
X2483800Y-3491550D02*
X2443800Y-3531550D01*
X2443800Y-5396550D02*
X2483800Y-5436550D01*
X2483800Y-5396550D02*
X2443800Y-5436550D01*
X2443800Y-7301550D02*
X2483800Y-7341550D01*
X2483800Y-7301550D02*
X2443800Y-7341550D01*
X2580000Y-180000D02*
X2620000Y-220000D01*
X2620000Y-180000D02*
X2580000Y-220000D01*
X2580000Y-9780000D02*
X2620000Y-9820000D01*
X2620000Y-9780000D02*
X2580000Y-9820000D01*
X2780000Y-180000D02*
X2820000Y-220000D01*
X2820000Y-180000D02*
X2780000Y-220000D01*
X2980000Y-180000D02*
X3020000Y-220000D01*
X3020000Y-180000D02*
X2980000Y-220000D01*
X3180000Y-180000D02*
X3220000Y-220000D01*
X3220000Y-180000D02*
X3180000Y-220000D01*
X3180000Y-9780000D02*
X3220000Y-9820000D01*
X3220000Y-9780000D02*
X3180000Y-9820000D01*
X3256600Y-538800D02*
X3296600Y-578800D01*
X3296600Y-538800D02*
X3256600Y-578800D01*
X3256600Y-818200D02*
X3296600Y-858200D01*
X3296600Y-818200D02*
X3256600Y-858200D01*
X3256600Y-2443800D02*
X3296600Y-2483800D01*
X3296600Y-2443800D02*
X3256600Y-2483800D01*
X3256600Y-2723200D02*
X3296600Y-2763200D01*
X3296600Y-2723200D02*
X3256600Y-2763200D01*
X3256600Y-4348800D02*
X3296600Y-4388800D01*
X3296600Y-4348800D02*
X3256600Y-4388800D01*
X3256600Y-4628200D02*
X3296600Y-4668200D01*
X3296600Y-4628200D02*
X3256600Y-4668200D01*
X3256600Y-6253800D02*
X3296600Y-6293800D01*
X3296600Y-6253800D02*
X3256600Y-6293800D01*
X3256600Y-6533200D02*
X3296600Y-6573200D01*
X3296600Y-6533200D02*
X3256600Y-6573200D01*
X3256600Y-8158800D02*
X3296600Y-8198800D01*
X3296600Y-8158800D02*
X3256600Y-8198800D01*
X3256600Y-8438200D02*
X3296600Y-8478200D01*
X3296600Y-8438200D02*
X3256600Y-8478200D01*
X3301050Y-3516950D02*
X3341050Y-3556950D01*
X3341050Y-3516950D02*
X3301050Y-3556950D01*
X3301050Y-3707450D02*
X3341050Y-3747450D01*
X3341050Y-3707450D02*
X3301050Y-3747450D01*
X3307400Y-1624650D02*
X3347400Y-1664650D01*
X3347400Y-1624650D02*
X3307400Y-1664650D01*
X3307400Y-1827850D02*
X3347400Y-1867850D01*
X3347400Y-1827850D02*
X3307400Y-1867850D01*
X3307400Y-2005650D02*
X3347400Y-2045650D01*
X3347400Y-2005650D02*
X3307400Y-2045650D01*
X3307400Y-2183450D02*
X3347400Y-2223450D01*
X3347400Y-2183450D02*
X3307400Y-2223450D01*
X3307400Y-5428300D02*
X3347400Y-5468300D01*
X3347400Y-5428300D02*
X3307400Y-5468300D01*
X3307400Y-5612450D02*
X3347400Y-5652450D01*
X3347400Y-5612450D02*
X3307400Y-5652450D01*
X3307400Y-7333300D02*
X3347400Y-7373300D01*
X3347400Y-7333300D02*
X3307400Y-7373300D01*
X3307400Y-7517450D02*
X3347400Y-7557450D01*
X3347400Y-7517450D02*
X3307400Y-7557450D01*
X3380000Y-180000D02*
X3420000Y-220000D01*
X3420000Y-180000D02*
X3380000Y-220000D01*
X3380000Y-9780000D02*
X3420000Y-9820000D01*
X3420000Y-9780000D02*
X3380000Y-9820000D01*
X3491550Y-1624650D02*
X3531550Y-1664650D01*
X3531550Y-1624650D02*
X3491550Y-1664650D01*
X3491550Y-1827850D02*
X3531550Y-1867850D01*
X3531550Y-1827850D02*
X3491550Y-1867850D01*
X3491550Y-2005650D02*
X3531550Y-2045650D01*
X3531550Y-2005650D02*
X3491550Y-2045650D01*
X3491550Y-2183450D02*
X3531550Y-2223450D01*
X3531550Y-2183450D02*
X3491550Y-2223450D01*
X3491550Y-3707450D02*
X3531550Y-3747450D01*
X3531550Y-3707450D02*
X3491550Y-3747450D01*
X3491550Y-5428300D02*
X3531550Y-5468300D01*
X3531550Y-5428300D02*
X3491550Y-5468300D01*
X3491550Y-5612450D02*
X3531550Y-5652450D01*
X3531550Y-5612450D02*
X3491550Y-5652450D01*
X3491550Y-7333300D02*
X3531550Y-7373300D01*
X3531550Y-7333300D02*
X3491550Y-7373300D01*
X3491550Y-7517450D02*
X3531550Y-7557450D01*
X3531550Y-7517450D02*
X3491550Y-7557450D01*
X3497900Y-3516950D02*
X3537900Y-3556950D01*
X3537900Y-3516950D02*
X3497900Y-3556950D01*
X3536000Y-538800D02*
X3576000Y-578800D01*
X3576000Y-538800D02*
X3536000Y-578800D01*
X3536000Y-818200D02*
X3576000Y-858200D01*
X3576000Y-818200D02*
X3536000Y-858200D01*
X3536000Y-2443800D02*
X3576000Y-2483800D01*
X3576000Y-2443800D02*
X3536000Y-2483800D01*
X3536000Y-2723200D02*
X3576000Y-2763200D01*
X3576000Y-2723200D02*
X3536000Y-2763200D01*
X3536000Y-4348800D02*
X3576000Y-4388800D01*
X3576000Y-4348800D02*
X3536000Y-4388800D01*
X3536000Y-4628200D02*
X3576000Y-4668200D01*
X3576000Y-4628200D02*
X3536000Y-4668200D01*
X3536000Y-6253800D02*
X3576000Y-6293800D01*
X3576000Y-6253800D02*
X3536000Y-6293800D01*
X3536000Y-6533200D02*
X3576000Y-6573200D01*
X3576000Y-6533200D02*
X3536000Y-6573200D01*
X3536000Y-8158800D02*
X3576000Y-8198800D01*
X3576000Y-8158800D02*
X3536000Y-8198800D01*
X3536000Y-8438200D02*
X3576000Y-8478200D01*
X3576000Y-8438200D02*
X3536000Y-8478200D01*
X3580000Y-180000D02*
X3620000Y-220000D01*
X3620000Y-180000D02*
X3580000Y-220000D01*
X3580000Y-9780000D02*
X3620000Y-9820000D01*
X3620000Y-9780000D02*
X3580000Y-9820000D01*
X3780000Y-180000D02*
X3820000Y-220000D01*
X3820000Y-180000D02*
X3780000Y-220000D01*
X3780000Y-9780000D02*
X3820000Y-9820000D01*
X3820000Y-9780000D02*
X3780000Y-9820000D01*
X3948750Y-932500D02*
X3988750Y-972500D01*
X3988750Y-932500D02*
X3948750Y-972500D01*
X3948750Y-2837500D02*
X3988750Y-2877500D01*
X3988750Y-2837500D02*
X3948750Y-2877500D01*
X3948750Y-4742500D02*
X3988750Y-4782500D01*
X3988750Y-4742500D02*
X3948750Y-4782500D01*
X3948750Y-6647500D02*
X3988750Y-6687500D01*
X3988750Y-6647500D02*
X3948750Y-6687500D01*
X3980000Y-180000D02*
X4020000Y-220000D01*
X4020000Y-180000D02*
X3980000Y-220000D01*
X3980000Y-9780000D02*
X4020000Y-9820000D01*
X4020000Y-9780000D02*
X3980000Y-9820000D01*
X4180000Y-180000D02*
X4220000Y-220000D01*
X4220000Y-180000D02*
X4180000Y-220000D01*
X4180000Y-9780000D02*
X4220000Y-9820000D01*
X4220000Y-9780000D02*
X4180000Y-9820000D01*
X4215450Y-7034850D02*
X4255450Y-7074850D01*
X4255450Y-7034850D02*
X4215450Y-7074850D01*
X4221800Y-1592900D02*
X4261800Y-1632900D01*
X4261800Y-1592900D02*
X4221800Y-1632900D01*
X4221800Y-3485200D02*
X4261800Y-3525200D01*
X4261800Y-3485200D02*
X4221800Y-3525200D01*
X4221800Y-5390200D02*
X4261800Y-5430200D01*
X4261800Y-5390200D02*
X4221800Y-5430200D01*
X4380000Y-180000D02*
X4420000Y-220000D01*
X4420000Y-180000D02*
X4380000Y-220000D01*
X4380000Y-9780000D02*
X4420000Y-9820000D01*
X4420000Y-9780000D02*
X4380000Y-9820000D01*
X4526600Y-8412800D02*
X4566600Y-8452800D01*
X4566600Y-8412800D02*
X4526600Y-8452800D01*
X4580000Y-180000D02*
X4620000Y-220000D01*
X4620000Y-180000D02*
X4580000Y-220000D01*
X4580000Y-9780000D02*
X4620000Y-9820000D01*
X4620000Y-9780000D02*
X4580000Y-9820000D01*
X4780000Y-180000D02*
X4820000Y-220000D01*
X4820000Y-180000D02*
X4780000Y-220000D01*
X4780000Y-9780000D02*
X4820000Y-9820000D01*
X4820000Y-9780000D02*
X4780000Y-9820000D01*
X4806000Y-8412800D02*
X4846000Y-8452800D01*
X4846000Y-8412800D02*
X4806000Y-8452800D01*
X4806000Y-8692200D02*
X4846000Y-8732200D01*
X4846000Y-8692200D02*
X4806000Y-8732200D01*
X4980000Y-180000D02*
X5020000Y-220000D01*
X5020000Y-180000D02*
X4980000Y-220000D01*
X4980000Y-9780000D02*
X5020000Y-9820000D01*
X5020000Y-9780000D02*
X4980000Y-9820000D01*
X5161600Y-538800D02*
X5201600Y-578800D01*
X5201600Y-538800D02*
X5161600Y-578800D01*
X5161600Y-818200D02*
X5201600Y-858200D01*
X5201600Y-818200D02*
X5161600Y-858200D01*
X5161600Y-2443800D02*
X5201600Y-2483800D01*
X5201600Y-2443800D02*
X5161600Y-2483800D01*
X5161600Y-2723200D02*
X5201600Y-2763200D01*
X5201600Y-2723200D02*
X5161600Y-2763200D01*
X5161600Y-4348800D02*
X5201600Y-4388800D01*
X5201600Y-4348800D02*
X5161600Y-4388800D01*
X5161600Y-4628200D02*
X5201600Y-4668200D01*
X5201600Y-4628200D02*
X5161600Y-4668200D01*
X5161600Y-6253800D02*
X5201600Y-6293800D01*
X5201600Y-6253800D02*
X5161600Y-6293800D01*
X5161600Y-6533200D02*
X5201600Y-6573200D01*
X5201600Y-6533200D02*
X5161600Y-6573200D01*
X5180000Y-180000D02*
X5220000Y-220000D01*
X5220000Y-180000D02*
X5180000Y-220000D01*
X5206050Y-7333300D02*
X5246050Y-7373300D01*
X5246050Y-7333300D02*
X5206050Y-7373300D01*
X5206050Y-7517450D02*
X5246050Y-7557450D01*
X5246050Y-7517450D02*
X5206050Y-7557450D01*
X5212400Y-1624650D02*
X5252400Y-1664650D01*
X5252400Y-1624650D02*
X5212400Y-1664650D01*
X5212400Y-1827850D02*
X5252400Y-1867850D01*
X5252400Y-1827850D02*
X5212400Y-1867850D01*
X5212400Y-2005650D02*
X5252400Y-2045650D01*
X5252400Y-2005650D02*
X5212400Y-2045650D01*
X5212400Y-2183450D02*
X5252400Y-2223450D01*
X5252400Y-2183450D02*
X5212400Y-2223450D01*
X5212400Y-3523300D02*
X5252400Y-3563300D01*
X5252400Y-3523300D02*
X5212400Y-3563300D01*
X5212400Y-3707450D02*
X5252400Y-3747450D01*
X5252400Y-3707450D02*
X5212400Y-3747450D01*
X5212400Y-5428300D02*
X5252400Y-5468300D01*
X5252400Y-5428300D02*
X5212400Y-5468300D01*
X5212400Y-5612450D02*
X5252400Y-5652450D01*
X5252400Y-5612450D02*
X5212400Y-5652450D01*
X5304475Y-1916750D02*
X5344475Y-1956750D01*
X5344475Y-1916750D02*
X5304475Y-1956750D01*
X5380000Y-180000D02*
X5420000Y-220000D01*
X5420000Y-180000D02*
X5380000Y-220000D01*
X5390200Y-7333300D02*
X5430200Y-7373300D01*
X5430200Y-7333300D02*
X5390200Y-7373300D01*
X5390200Y-7517450D02*
X5430200Y-7557450D01*
X5430200Y-7517450D02*
X5390200Y-7557450D01*
X5396550Y-1624650D02*
X5436550Y-1664650D01*
X5436550Y-1624650D02*
X5396550Y-1664650D01*
X5396550Y-1827850D02*
X5436550Y-1867850D01*
X5436550Y-1827850D02*
X5396550Y-1867850D01*
X5396550Y-2005650D02*
X5436550Y-2045650D01*
X5436550Y-2005650D02*
X5396550Y-2045650D01*
X5396550Y-2183450D02*
X5436550Y-2223450D01*
X5436550Y-2183450D02*
X5396550Y-2223450D01*
X5396550Y-3523300D02*
X5436550Y-3563300D01*
X5436550Y-3523300D02*
X5396550Y-3563300D01*
X5396550Y-3707450D02*
X5436550Y-3747450D01*
X5436550Y-3707450D02*
X5396550Y-3747450D01*
X5396550Y-5428300D02*
X5436550Y-5468300D01*
X5436550Y-5428300D02*
X5396550Y-5468300D01*
X5396550Y-5612450D02*
X5436550Y-5652450D01*
X5436550Y-5612450D02*
X5396550Y-5652450D01*
X5441000Y-538800D02*
X5481000Y-578800D01*
X5481000Y-538800D02*
X5441000Y-578800D01*
X5441000Y-818200D02*
X5481000Y-858200D01*
X5481000Y-818200D02*
X5441000Y-858200D01*
X5441000Y-2443800D02*
X5481000Y-2483800D01*
X5481000Y-2443800D02*
X5441000Y-2483800D01*
X5441000Y-2723200D02*
X5481000Y-2763200D01*
X5481000Y-2723200D02*
X5441000Y-2763200D01*
X5441000Y-4348800D02*
X5481000Y-4388800D01*
X5481000Y-4348800D02*
X5441000Y-4388800D01*
X5441000Y-4628200D02*
X5481000Y-4668200D01*
X5481000Y-4628200D02*
X5441000Y-4668200D01*
X5441000Y-6253800D02*
X5481000Y-6293800D01*
X5481000Y-6253800D02*
X5441000Y-6293800D01*
X5441000Y-6533200D02*
X5481000Y-6573200D01*
X5481000Y-6533200D02*
X5441000Y-6573200D01*
X5580000Y-180000D02*
X5620000Y-220000D01*
X5620000Y-180000D02*
X5580000Y-220000D01*
X5580000Y-9780000D02*
X5620000Y-9820000D01*
X5620000Y-9780000D02*
X5580000Y-9820000D01*
X5780000Y-180000D02*
X5820000Y-220000D01*
X5820000Y-180000D02*
X5780000Y-220000D01*
X5780000Y-9780000D02*
X5820000Y-9820000D01*
X5820000Y-9780000D02*
X5780000Y-9820000D01*
X5853750Y-938850D02*
X5893750Y-978850D01*
X5893750Y-938850D02*
X5853750Y-978850D01*
X5853750Y-2837500D02*
X5893750Y-2877500D01*
X5893750Y-2837500D02*
X5853750Y-2877500D01*
X5853750Y-4742500D02*
X5893750Y-4782500D01*
X5893750Y-4742500D02*
X5853750Y-4782500D01*
X5879150Y-7034850D02*
X5919150Y-7074850D01*
X5919150Y-7034850D02*
X5879150Y-7074850D01*
X5980000Y-180000D02*
X6020000Y-220000D01*
X6020000Y-180000D02*
X5980000Y-220000D01*
X5980000Y-9780000D02*
X6020000Y-9820000D01*
X6020000Y-9780000D02*
X5980000Y-9820000D01*
X5999800Y-8457250D02*
X6039800Y-8497250D01*
X6039800Y-8457250D02*
X5999800Y-8497250D01*
X5999800Y-9231950D02*
X6039800Y-9271950D01*
X6039800Y-9231950D02*
X5999800Y-9271950D01*
X5999800Y-9435150D02*
X6039800Y-9475150D01*
X6039800Y-9435150D02*
X5999800Y-9475150D01*
X6120450Y-5396550D02*
X6160450Y-5436550D01*
X6160450Y-5396550D02*
X6120450Y-5436550D01*
X6120450Y-7034850D02*
X6160450Y-7074850D01*
X6160450Y-7034850D02*
X6120450Y-7074850D01*
X6126800Y-1592900D02*
X6166800Y-1632900D01*
X6166800Y-1592900D02*
X6126800Y-1632900D01*
X6126800Y-3491550D02*
X6166800Y-3531550D01*
X6166800Y-3491550D02*
X6126800Y-3531550D01*
X6180000Y-180000D02*
X6220000Y-220000D01*
X6220000Y-180000D02*
X6180000Y-220000D01*
X6180000Y-9780000D02*
X6220000Y-9820000D01*
X6220000Y-9780000D02*
X6180000Y-9820000D01*
X6380000Y-180000D02*
X6420000Y-220000D01*
X6420000Y-180000D02*
X6380000Y-220000D01*
X6380000Y-9780000D02*
X6420000Y-9820000D01*
X6420000Y-9780000D02*
X6380000Y-9820000D01*
X6580000Y-180000D02*
X6620000Y-220000D01*
X6620000Y-180000D02*
X6580000Y-220000D01*
X6580000Y-9780000D02*
X6620000Y-9820000D01*
X6620000Y-9780000D02*
X6580000Y-9820000D01*
X6780000Y-180000D02*
X6820000Y-220000D01*
X6820000Y-180000D02*
X6780000Y-220000D01*
X6780000Y-9780000D02*
X6820000Y-9820000D01*
X6820000Y-9780000D02*
X6780000Y-9820000D01*
X6980000Y-180000D02*
X7020000Y-220000D01*
X7020000Y-180000D02*
X6980000Y-220000D01*
X6980000Y-9780000D02*
X7020000Y-9820000D01*
X7020000Y-9780000D02*
X6980000Y-9820000D01*
X7066600Y-538800D02*
X7106600Y-578800D01*
X7106600Y-538800D02*
X7066600Y-578800D01*
X7066600Y-818200D02*
X7106600Y-858200D01*
X7106600Y-818200D02*
X7066600Y-858200D01*
X7066600Y-2443800D02*
X7106600Y-2483800D01*
X7106600Y-2443800D02*
X7066600Y-2483800D01*
X7066600Y-2723200D02*
X7106600Y-2763200D01*
X7106600Y-2723200D02*
X7066600Y-2763200D01*
X7066600Y-4348800D02*
X7106600Y-4388800D01*
X7106600Y-4348800D02*
X7066600Y-4388800D01*
X7066600Y-4628200D02*
X7106600Y-4668200D01*
X7106600Y-4628200D02*
X7066600Y-4668200D01*
X7066600Y-6253800D02*
X7106600Y-6293800D01*
X7106600Y-6253800D02*
X7066600Y-6293800D01*
X7066600Y-6533200D02*
X7106600Y-6573200D01*
X7106600Y-6533200D02*
X7066600Y-6573200D01*
X7066600Y-8158800D02*
X7106600Y-8198800D01*
X7106600Y-8158800D02*
X7066600Y-8198800D01*
X7066600Y-8438200D02*
X7106600Y-8478200D01*
X7106600Y-8438200D02*
X7066600Y-8478200D01*
X7117400Y-1624650D02*
X7157400Y-1664650D01*
X7157400Y-1624650D02*
X7117400Y-1664650D01*
X7117400Y-1808800D02*
X7157400Y-1848800D01*
X7157400Y-1808800D02*
X7117400Y-1848800D01*
X7117400Y-2005650D02*
X7157400Y-2045650D01*
X7157400Y-2005650D02*
X7117400Y-2045650D01*
X7117400Y-2183450D02*
X7157400Y-2223450D01*
X7157400Y-2183450D02*
X7117400Y-2223450D01*
X7117400Y-3523300D02*
X7157400Y-3563300D01*
X7157400Y-3523300D02*
X7117400Y-3563300D01*
X7117400Y-3707450D02*
X7157400Y-3747450D01*
X7157400Y-3707450D02*
X7117400Y-3747450D01*
X7117400Y-5428300D02*
X7157400Y-5468300D01*
X7157400Y-5428300D02*
X7117400Y-5468300D01*
X7117400Y-5612450D02*
X7157400Y-5652450D01*
X7157400Y-5612450D02*
X7117400Y-5652450D01*
X7117400Y-7333300D02*
X7157400Y-7373300D01*
X7157400Y-7333300D02*
X7117400Y-7373300D01*
X7117400Y-7517450D02*
X7157400Y-7557450D01*
X7157400Y-7517450D02*
X7117400Y-7557450D01*
X7180000Y-180000D02*
X7220000Y-220000D01*
X7220000Y-180000D02*
X7180000Y-220000D01*
X7180000Y-9780000D02*
X7220000Y-9820000D01*
X7220000Y-9780000D02*
X7180000Y-9820000D01*
X7209475Y-2094550D02*
X7249475Y-2134550D01*
X7249475Y-2094550D02*
X7209475Y-2134550D01*
X7301550Y-1624650D02*
X7341550Y-1664650D01*
X7341550Y-1624650D02*
X7301550Y-1664650D01*
X7301550Y-1808800D02*
X7341550Y-1848800D01*
X7341550Y-1808800D02*
X7301550Y-1848800D01*
X7301550Y-2005650D02*
X7341550Y-2045650D01*
X7341550Y-2005650D02*
X7301550Y-2045650D01*
X7301550Y-2183450D02*
X7341550Y-2223450D01*
X7341550Y-2183450D02*
X7301550Y-2223450D01*
X7301550Y-3523300D02*
X7341550Y-3563300D01*
X7341550Y-3523300D02*
X7301550Y-3563300D01*
X7301550Y-3707450D02*
X7341550Y-3747450D01*
X7341550Y-3707450D02*
X7301550Y-3747450D01*
X7301550Y-5428300D02*
X7341550Y-5468300D01*
X7341550Y-5428300D02*
X7301550Y-5468300D01*
X7301550Y-5612450D02*
X7341550Y-5652450D01*
X7341550Y-5612450D02*
X7301550Y-5652450D01*
X7301550Y-7333300D02*
X7341550Y-7373300D01*
X7341550Y-7333300D02*
X7301550Y-7373300D01*
X7301550Y-7517450D02*
X7341550Y-7557450D01*
X7341550Y-7517450D02*
X7301550Y-7557450D01*
X7346000Y-538800D02*
X7386000Y-578800D01*
X7386000Y-538800D02*
X7346000Y-578800D01*
X7346000Y-818200D02*
X7386000Y-858200D01*
X7386000Y-818200D02*
X7346000Y-858200D01*
X7346000Y-2443800D02*
X7386000Y-2483800D01*
X7386000Y-2443800D02*
X7346000Y-2483800D01*
X7346000Y-2723200D02*
X7386000Y-2763200D01*
X7386000Y-2723200D02*
X7346000Y-2763200D01*
X7346000Y-4348800D02*
X7386000Y-4388800D01*
X7386000Y-4348800D02*
X7346000Y-4388800D01*
X7346000Y-4628200D02*
X7386000Y-4668200D01*
X7386000Y-4628200D02*
X7346000Y-4668200D01*
X7346000Y-6253800D02*
X7386000Y-6293800D01*
X7386000Y-6253800D02*
X7346000Y-6293800D01*
X7346000Y-6533200D02*
X7386000Y-6573200D01*
X7386000Y-6533200D02*
X7346000Y-6573200D01*
X7346000Y-8158800D02*
X7386000Y-8198800D01*
X7386000Y-8158800D02*
X7346000Y-8198800D01*
X7346000Y-8438200D02*
X7386000Y-8478200D01*
X7386000Y-8438200D02*
X7346000Y-8478200D01*
X7380000Y-180000D02*
X7420000Y-220000D01*
X7420000Y-180000D02*
X7380000Y-220000D01*
X7380000Y-9780000D02*
X7420000Y-9820000D01*
X7420000Y-9780000D02*
X7380000Y-9820000D01*
X7580000Y-180000D02*
X7620000Y-220000D01*
X7620000Y-180000D02*
X7580000Y-220000D01*
X7580000Y-9780000D02*
X7620000Y-9820000D01*
X7620000Y-9780000D02*
X7580000Y-9820000D01*
X7682550Y-938850D02*
X7722550Y-978850D01*
X7722550Y-938850D02*
X7682550Y-978850D01*
X7682550Y-2837500D02*
X7722550Y-2877500D01*
X7722550Y-2837500D02*
X7682550Y-2877500D01*
X7682550Y-4742500D02*
X7722550Y-4782500D01*
X7722550Y-4742500D02*
X7682550Y-4782500D01*
X7682550Y-8546150D02*
X7722550Y-8586150D01*
X7722550Y-8546150D02*
X7682550Y-8586150D01*
X7707950Y-7034850D02*
X7747950Y-7074850D01*
X7747950Y-7034850D02*
X7707950Y-7074850D01*
X7780000Y-180000D02*
X7820000Y-220000D01*
X7820000Y-180000D02*
X7780000Y-220000D01*
X7780000Y-9780000D02*
X7820000Y-9820000D01*
X7820000Y-9780000D02*
X7780000Y-9820000D01*
X7949250Y-5402900D02*
X7989250Y-5442900D01*
X7989250Y-5402900D02*
X7949250Y-5442900D01*
X7949250Y-7034850D02*
X7989250Y-7074850D01*
X7989250Y-7034850D02*
X7949250Y-7074850D01*
X7955600Y-1586550D02*
X7995600Y-1626550D01*
X7995600Y-1586550D02*
X7955600Y-1626550D01*
X7955600Y-3491550D02*
X7995600Y-3531550D01*
X7995600Y-3491550D02*
X7955600Y-3531550D01*
X7955600Y-9200200D02*
X7995600Y-9240200D01*
X7995600Y-9200200D02*
X7955600Y-9240200D01*
X7980000Y-180000D02*
X8020000Y-220000D01*
X8020000Y-180000D02*
X7980000Y-220000D01*
X7980000Y-9780000D02*
X8020000Y-9820000D01*
X8020000Y-9780000D02*
X7980000Y-9820000D01*
X8180000Y-180000D02*
X8220000Y-220000D01*
X8220000Y-180000D02*
X8180000Y-220000D01*
X8180000Y-9780000D02*
X8220000Y-9820000D01*
X8220000Y-9780000D02*
X8180000Y-9820000D01*
X8380000Y-180000D02*
X8420000Y-220000D01*
X8420000Y-180000D02*
X8380000Y-220000D01*
X8380000Y-9780000D02*
X8420000Y-9820000D01*
X8420000Y-9780000D02*
X8380000Y-9820000D01*
X8580000Y-180000D02*
X8620000Y-220000D01*
X8620000Y-180000D02*
X8580000Y-220000D01*
X8580000Y-9780000D02*
X8620000Y-9820000D01*
X8620000Y-9780000D02*
X8580000Y-9820000D01*
X8780000Y-180000D02*
X8820000Y-220000D01*
X8820000Y-180000D02*
X8780000Y-220000D01*
X8780000Y-9780000D02*
X8820000Y-9820000D01*
X8820000Y-9780000D02*
X8780000Y-9820000D01*
X8971600Y-538800D02*
X9011600Y-578800D01*
X9011600Y-538800D02*
X8971600Y-578800D01*
X8971600Y-818200D02*
X9011600Y-858200D01*
X9011600Y-818200D02*
X8971600Y-858200D01*
X8971600Y-2443800D02*
X9011600Y-2483800D01*
X9011600Y-2443800D02*
X8971600Y-2483800D01*
X8971600Y-2723200D02*
X9011600Y-2763200D01*
X9011600Y-2723200D02*
X8971600Y-2763200D01*
X8971600Y-4348800D02*
X9011600Y-4388800D01*
X9011600Y-4348800D02*
X8971600Y-4388800D01*
X8971600Y-6253800D02*
X9011600Y-6293800D01*
X9011600Y-6253800D02*
X8971600Y-6293800D01*
X8971600Y-6533200D02*
X9011600Y-6573200D01*
X9011600Y-6533200D02*
X8971600Y-6573200D01*
X8971600Y-8158800D02*
X9011600Y-8198800D01*
X9011600Y-8158800D02*
X8971600Y-8198800D01*
X8980000Y-180000D02*
X9020000Y-220000D01*
X9020000Y-180000D02*
X8980000Y-220000D01*
X8980000Y-9780000D02*
X9020000Y-9820000D01*
X9020000Y-9780000D02*
X8980000Y-9820000D01*
X9022400Y-2183450D02*
X9062400Y-2223450D01*
X9062400Y-2183450D02*
X9022400Y-2223450D01*
X9022400Y-2361250D02*
X9062400Y-2401250D01*
X9062400Y-2361250D02*
X9022400Y-2401250D01*
X9114475Y-2272350D02*
X9154475Y-2312350D01*
X9154475Y-2272350D02*
X9114475Y-2312350D01*
X9180000Y-180000D02*
X9220000Y-220000D01*
X9220000Y-180000D02*
X9180000Y-220000D01*
X9180000Y-9780000D02*
X9220000Y-9820000D01*
X9220000Y-9780000D02*
X9180000Y-9820000D01*
X9206550Y-2183450D02*
X9246550Y-2223450D01*
X9246550Y-2183450D02*
X9206550Y-2223450D01*
X9206550Y-2361250D02*
X9246550Y-2401250D01*
X9246550Y-2361250D02*
X9206550Y-2401250D01*
X9251000Y-538800D02*
X9291000Y-578800D01*
X9291000Y-538800D02*
X9251000Y-578800D01*
X9251000Y-818200D02*
X9291000Y-858200D01*
X9291000Y-818200D02*
X9251000Y-858200D01*
X9251000Y-2443800D02*
X9291000Y-2483800D01*
X9291000Y-2443800D02*
X9251000Y-2483800D01*
X9251000Y-2723200D02*
X9291000Y-2763200D01*
X9291000Y-2723200D02*
X9251000Y-2763200D01*
X9251000Y-4348800D02*
X9291000Y-4388800D01*
X9291000Y-4348800D02*
X9251000Y-4388800D01*
X9251000Y-4628200D02*
X9291000Y-4668200D01*
X9291000Y-4628200D02*
X9251000Y-4668200D01*
X9251000Y-6253800D02*
X9291000Y-6293800D01*
X9291000Y-6253800D02*
X9251000Y-6293800D01*
X9251000Y-6533200D02*
X9291000Y-6573200D01*
X9291000Y-6533200D02*
X9251000Y-6573200D01*
X9251000Y-8158800D02*
X9291000Y-8198800D01*
X9291000Y-8158800D02*
X9251000Y-8198800D01*
X9251000Y-8438200D02*
X9291000Y-8478200D01*
X9291000Y-8438200D02*
X9251000Y-8478200D01*
X9380000Y-180000D02*
X9420000Y-220000D01*
X9420000Y-180000D02*
X9380000Y-220000D01*
X9380000Y-9780000D02*
X9420000Y-9820000D01*
X9420000Y-9780000D02*
X9380000Y-9820000D01*
X9580000Y-180000D02*
X9620000Y-220000D01*
X9620000Y-180000D02*
X9580000Y-220000D01*
X9580000Y-380000D02*
X9620000Y-420000D01*
X9620000Y-380000D02*
X9580000Y-420000D01*
X9580000Y-9580000D02*
X9620000Y-9620000D01*
X9620000Y-9580000D02*
X9580000Y-9620000D01*
X9580000Y-9780000D02*
X9620000Y-9820000D01*
X9620000Y-9780000D02*
X9580000Y-9820000D01*
X9780000Y-380000D02*
X9820000Y-420000D01*
X9820000Y-380000D02*
X9780000Y-420000D01*
X9780000Y-580000D02*
X9820000Y-620000D01*
X9820000Y-580000D02*
X9780000Y-620000D01*
X9780000Y-780000D02*
X9820000Y-820000D01*
X9820000Y-780000D02*
X9780000Y-820000D01*
X9780000Y-980000D02*
X9820000Y-1020000D01*
X9820000Y-980000D02*
X9780000Y-1020000D01*
X9780000Y-1180000D02*
X9820000Y-1220000D01*
X9820000Y-1180000D02*
X9780000Y-1220000D01*
X9780000Y-1380000D02*
X9820000Y-1420000D01*
X9820000Y-1380000D02*
X9780000Y-1420000D01*
X9780000Y-1580000D02*
X9820000Y-1620000D01*
X9820000Y-1580000D02*
X9780000Y-1620000D01*
X9780000Y-1780000D02*
X9820000Y-1820000D01*
X9820000Y-1780000D02*
X9780000Y-1820000D01*
X9780000Y-1980000D02*
X9820000Y-2020000D01*
X9820000Y-1980000D02*
X9780000Y-2020000D01*
X9780000Y-2180000D02*
X9820000Y-2220000D01*
X9820000Y-2180000D02*
X9780000Y-2220000D01*
X9780000Y-2380000D02*
X9820000Y-2420000D01*
X9820000Y-2380000D02*
X9780000Y-2420000D01*
X9780000Y-2580000D02*
X9820000Y-2620000D01*
X9820000Y-2580000D02*
X9780000Y-2620000D01*
X9780000Y-3180000D02*
X9820000Y-3220000D01*
X9820000Y-3180000D02*
X9780000Y-3220000D01*
X9780000Y-3380000D02*
X9820000Y-3420000D01*
X9820000Y-3380000D02*
X9780000Y-3420000D01*
X9780000Y-3580000D02*
X9820000Y-3620000D01*
X9820000Y-3580000D02*
X9780000Y-3620000D01*
X9780000Y-3780000D02*
X9820000Y-3820000D01*
X9820000Y-3780000D02*
X9780000Y-3820000D01*
X9780000Y-3980000D02*
X9820000Y-4020000D01*
X9820000Y-3980000D02*
X9780000Y-4020000D01*
X9780000Y-4180000D02*
X9820000Y-4220000D01*
X9820000Y-4180000D02*
X9780000Y-4220000D01*
X9780000Y-4380000D02*
X9820000Y-4420000D01*
X9820000Y-4380000D02*
X9780000Y-4420000D01*
X9780000Y-4580000D02*
X9820000Y-4620000D01*
X9820000Y-4580000D02*
X9780000Y-4620000D01*
X9780000Y-4780000D02*
X9820000Y-4820000D01*
X9820000Y-4780000D02*
X9780000Y-4820000D01*
X9780000Y-4980000D02*
X9820000Y-5020000D01*
X9820000Y-4980000D02*
X9780000Y-5020000D01*
X9780000Y-5580000D02*
X9820000Y-5620000D01*
X9820000Y-5580000D02*
X9780000Y-5620000D01*
X9780000Y-5780000D02*
X9820000Y-5820000D01*
X9820000Y-5780000D02*
X9780000Y-5820000D01*
X9780000Y-5980000D02*
X9820000Y-6020000D01*
X9820000Y-5980000D02*
X9780000Y-6020000D01*
X9780000Y-6180000D02*
X9820000Y-6220000D01*
X9820000Y-6180000D02*
X9780000Y-6220000D01*
X9780000Y-6380000D02*
X9820000Y-6420000D01*
X9820000Y-6380000D02*
X9780000Y-6420000D01*
X9780000Y-6980000D02*
X9820000Y-7020000D01*
X9820000Y-6980000D02*
X9780000Y-7020000D01*
X9780000Y-7180000D02*
X9820000Y-7220000D01*
X9820000Y-7180000D02*
X9780000Y-7220000D01*
X9780000Y-7380000D02*
X9820000Y-7420000D01*
X9820000Y-7380000D02*
X9780000Y-7420000D01*
X9780000Y-7580000D02*
X9820000Y-7620000D01*
X9820000Y-7580000D02*
X9780000Y-7620000D01*
X9780000Y-7780000D02*
X9820000Y-7820000D01*
X9820000Y-7780000D02*
X9780000Y-7820000D01*
X9780000Y-7980000D02*
X9820000Y-8020000D01*
X9820000Y-7980000D02*
X9780000Y-8020000D01*
X9780000Y-8180000D02*
X9820000Y-8220000D01*
X9820000Y-8180000D02*
X9780000Y-8220000D01*
X9780000Y-8380000D02*
X9820000Y-8420000D01*
X9820000Y-8380000D02*
X9780000Y-8420000D01*
X9780000Y-8580000D02*
X9820000Y-8620000D01*
X9820000Y-8580000D02*
X9780000Y-8620000D01*
X9780000Y-8780000D02*
X9820000Y-8820000D01*
X9820000Y-8780000D02*
X9780000Y-8820000D01*
X9780000Y-9380000D02*
X9820000Y-9420000D01*
X9820000Y-9380000D02*
X9780000Y-9420000D01*
X9780000Y-9580000D02*
X9820000Y-9620000D01*
X9820000Y-9580000D02*
X9780000Y-9620000D01*
X411250Y-3814000D02*
G75*
G03*
X411250Y-3814000I-50000J0D01*
G01*
X411250Y-4064000D02*
G75*
G03*
X411250Y-4064000I-50000J0D01*
G01*
X411250Y-4314000D02*
G75*
G03*
X411250Y-4314000I-50000J0D01*
G01*
X411250Y-6195250D02*
G75*
G03*
X411250Y-6195250I-50000J0D01*
G01*
X411250Y-6445250D02*
G75*
G03*
X411250Y-6445250I-50000J0D01*
G01*
X411250Y-6695250D02*
G75*
G03*
X411250Y-6695250I-50000J0D01*
G01*
X411250Y-8576500D02*
G75*
G03*
X411250Y-8576500I-50000J0D01*
G01*
X411250Y-8826500D02*
G75*
G03*
X411250Y-8826500I-50000J0D01*
G01*
X411250Y-9076500D02*
G75*
G03*
X411250Y-9076500I-50000J0D01*
G01*
X1859750Y-7147450D02*
G75*
G03*
X1859750Y-7147450I-50000J0D01*
G01*
X1859750Y-7927450D02*
G75*
G03*
X1859750Y-7927450I-50000J0D01*
G01*
X1861250Y-3814000D02*
G75*
G03*
X1861250Y-3814000I-50000J0D01*
G01*
X1861250Y-4314000D02*
G75*
G03*
X1861250Y-4314000I-50000J0D01*
G01*
X1861250Y-6195250D02*
G75*
G03*
X1861250Y-6195250I-50000J0D01*
G01*
X1861250Y-6695250D02*
G75*
G03*
X1861250Y-6695250I-50000J0D01*
G01*
X1861250Y-8576500D02*
G75*
G03*
X1861250Y-8576500I-50000J0D01*
G01*
X1861250Y-9076500D02*
G75*
G03*
X1861250Y-9076500I-50000J0D01*
G01*
X1866100Y-4759550D02*
G75*
G03*
X1866100Y-4759550I-50000J0D01*
G01*
X1866100Y-5539550D02*
G75*
G03*
X1866100Y-5539550I-50000J0D01*
G01*
X2107400Y-8569850D02*
G75*
G03*
X2107400Y-8569850I-50000J0D01*
G01*
X2107400Y-9349850D02*
G75*
G03*
X2107400Y-9349850I-50000J0D01*
G01*
X2380450Y-956200D02*
G75*
G03*
X2380450Y-956200I-50000J0D01*
G01*
X2380450Y-1736200D02*
G75*
G03*
X2380450Y-1736200I-50000J0D01*
G01*
X2386800Y-2854850D02*
G75*
G03*
X2386800Y-2854850I-50000J0D01*
G01*
X2386800Y-3634850D02*
G75*
G03*
X2386800Y-3634850I-50000J0D01*
G01*
X2386800Y-4759850D02*
G75*
G03*
X2386800Y-4759850I-50000J0D01*
G01*
X2386800Y-5539850D02*
G75*
G03*
X2386800Y-5539850I-50000J0D01*
G01*
X2386800Y-6664850D02*
G75*
G03*
X2386800Y-6664850I-50000J0D01*
G01*
X2386800Y-7444850D02*
G75*
G03*
X2386800Y-7444850I-50000J0D01*
G01*
X2386800Y-8569850D02*
G75*
G03*
X2386800Y-8569850I-50000J0D01*
G01*
X2386800Y-9349850D02*
G75*
G03*
X2386800Y-9349850I-50000J0D01*
G01*
X4162260Y-4759850D02*
G75*
G03*
X4162260Y-4759850I-50000J0D01*
G01*
X4162260Y-5539850D02*
G75*
G03*
X4162260Y-5539850I-50000J0D01*
G01*
X4164800Y-956200D02*
G75*
G03*
X4164800Y-956200I-50000J0D01*
G01*
X4164800Y-1736200D02*
G75*
G03*
X4164800Y-1736200I-50000J0D01*
G01*
X4164800Y-2854850D02*
G75*
G03*
X4164800Y-2854850I-50000J0D01*
G01*
X4164800Y-3634850D02*
G75*
G03*
X4164800Y-3634850I-50000J0D01*
G01*
X4164800Y-6664850D02*
G75*
G03*
X4164800Y-6664850I-50000J0D01*
G01*
X4164800Y-7444850D02*
G75*
G03*
X4164800Y-7444850I-50000J0D01*
G01*
X5936450Y-8569850D02*
G75*
G03*
X5936450Y-8569850I-50000J0D01*
G01*
X5936450Y-9349850D02*
G75*
G03*
X5936450Y-9349850I-50000J0D01*
G01*
X6067260Y-4759850D02*
G75*
G03*
X6067260Y-4759850I-50000J0D01*
G01*
X6067260Y-5539850D02*
G75*
G03*
X6067260Y-5539850I-50000J0D01*
G01*
X6069800Y-956200D02*
G75*
G03*
X6069800Y-956200I-50000J0D01*
G01*
X6069800Y-1736200D02*
G75*
G03*
X6069800Y-1736200I-50000J0D01*
G01*
X6069800Y-2854850D02*
G75*
G03*
X6069800Y-2854850I-50000J0D01*
G01*
X6069800Y-3634850D02*
G75*
G03*
X6069800Y-3634850I-50000J0D01*
G01*
X6069800Y-6664850D02*
G75*
G03*
X6069800Y-6664850I-50000J0D01*
G01*
X6069800Y-7444850D02*
G75*
G03*
X6069800Y-7444850I-50000J0D01*
G01*
X6203150Y-8569850D02*
G75*
G03*
X6203150Y-8569850I-50000J0D01*
G01*
X6203150Y-9349850D02*
G75*
G03*
X6203150Y-9349850I-50000J0D01*
G01*
X7896060Y-4766200D02*
G75*
G03*
X7896060Y-4766200I-50000J0D01*
G01*
X7896060Y-5546200D02*
G75*
G03*
X7896060Y-5546200I-50000J0D01*
G01*
X7898600Y-956200D02*
G75*
G03*
X7898600Y-956200I-50000J0D01*
G01*
X7898600Y-1736200D02*
G75*
G03*
X7898600Y-1736200I-50000J0D01*
G01*
X7898600Y-2854850D02*
G75*
G03*
X7898600Y-2854850I-50000J0D01*
G01*
X7898600Y-3634850D02*
G75*
G03*
X7898600Y-3634850I-50000J0D01*
G01*
X7898600Y-6664850D02*
G75*
G03*
X7898600Y-6664850I-50000J0D01*
G01*
X7898600Y-7444850D02*
G75*
G03*
X7898600Y-7444850I-50000J0D01*
G01*
X7898600Y-8563500D02*
G75*
G03*
X7898600Y-8563500I-50000J0D01*
G01*
X7898600Y-9343500D02*
G75*
G03*
X7898600Y-9343500I-50000J0D01*
G01*
X323850Y-326390D02*
X323850Y-435610D01*
X269240Y-381000D02*
X378460Y-381000D01*
X323850Y-580390D02*
X323850Y-689610D01*
X269240Y-635000D02*
X378460Y-635000D01*
X323850Y-834390D02*
X323850Y-943610D01*
X269240Y-889000D02*
X378460Y-889000D01*
X323850Y-1088390D02*
X323850Y-1197610D01*
X269240Y-1143000D02*
X378460Y-1143000D01*
X323850Y-1342390D02*
X323850Y-1451610D01*
X269240Y-1397000D02*
X378460Y-1397000D01*
X323850Y-1596390D02*
X323850Y-1705610D01*
X269240Y-1651000D02*
X378460Y-1651000D01*
X323850Y-1850390D02*
X323850Y-1959610D01*
X269240Y-1905000D02*
X378460Y-1905000D01*
X323850Y-2104390D02*
X323850Y-2213610D01*
X269240Y-2159000D02*
X378460Y-2159000D01*
X323850Y-2358390D02*
X323850Y-2467610D01*
X269240Y-2413000D02*
X378460Y-2413000D01*
X323850Y-2612390D02*
X323850Y-2721610D01*
X269240Y-2667000D02*
X378460Y-2667000D01*
X323850Y-2866390D02*
X323850Y-2975610D01*
X269240Y-2921000D02*
X378460Y-2921000D01*
X323850Y-3120390D02*
X323850Y-3229610D01*
X269240Y-3175000D02*
X378460Y-3175000D01*
X1847850Y-326390D02*
X1847850Y-435610D01*
X1793240Y-381000D02*
X1902460Y-381000D01*
X1847850Y-580390D02*
X1847850Y-689610D01*
X1793240Y-635000D02*
X1902460Y-635000D01*
X1847850Y-834390D02*
X1847850Y-943610D01*
X1793240Y-889000D02*
X1902460Y-889000D01*
X1847850Y-1088390D02*
X1847850Y-1197610D01*
X1793240Y-1143000D02*
X1902460Y-1143000D01*
X1847850Y-1342390D02*
X1847850Y-1451610D01*
X1793240Y-1397000D02*
X1902460Y-1397000D01*
X1847850Y-1596390D02*
X1847850Y-1705610D01*
X1793240Y-1651000D02*
X1902460Y-1651000D01*
X1847850Y-1850390D02*
X1847850Y-1959610D01*
X1793240Y-1905000D02*
X1902460Y-1905000D01*
X1847850Y-2104390D02*
X1847850Y-2213610D01*
X1793240Y-2159000D02*
X1902460Y-2159000D01*
X1847850Y-2358390D02*
X1847850Y-2467610D01*
X1793240Y-2413000D02*
X1902460Y-2413000D01*
X1847850Y-2612390D02*
X1847850Y-2721610D01*
X1793240Y-2667000D02*
X1902460Y-2667000D01*
X1847850Y-2866390D02*
X1847850Y-2975610D01*
X1793240Y-2921000D02*
X1902460Y-2921000D01*
X1847850Y-3120390D02*
X1847850Y-3229610D01*
X1793240Y-3175000D02*
X1902460Y-3175000D01*
X2833273Y-1004473D02*
X2833273Y-900527D01*
X2729327Y-900527D01*
X2729327Y-1004473D01*
X2833273Y-1004473D01*
X2833273Y-2909473D02*
X2833273Y-2805527D01*
X2729327Y-2805527D01*
X2729327Y-2909473D01*
X2833273Y-2909473D01*
X2833273Y-4814473D02*
X2833273Y-4710527D01*
X2729327Y-4710527D01*
X2729327Y-4814473D01*
X2833273Y-4814473D01*
X2833273Y-6719473D02*
X2833273Y-6615527D01*
X2729327Y-6615527D01*
X2729327Y-6719473D01*
X2833273Y-6719473D01*
X2833273Y-8624473D02*
X2833273Y-8520527D01*
X2729327Y-8520527D01*
X2729327Y-8624473D01*
X2833273Y-8624473D01*
X3468273Y-750473D02*
X3468273Y-646527D01*
X3364327Y-646527D01*
X3364327Y-750473D01*
X3468273Y-750473D01*
X3468273Y-2655473D02*
X3468273Y-2551527D01*
X3364327Y-2551527D01*
X3364327Y-2655473D01*
X3468273Y-2655473D01*
X3468273Y-4560473D02*
X3468273Y-4456527D01*
X3364327Y-4456527D01*
X3364327Y-4560473D01*
X3468273Y-4560473D01*
X3468273Y-6465473D02*
X3468273Y-6361527D01*
X3364327Y-6361527D01*
X3364327Y-6465473D01*
X3468273Y-6465473D01*
X3468273Y-8370473D02*
X3468273Y-8266527D01*
X3364327Y-8266527D01*
X3364327Y-8370473D01*
X3468273Y-8370473D01*
X3785773Y-8624473D02*
X3785773Y-8520527D01*
X3681827Y-8520527D01*
X3681827Y-8624473D01*
X3785773Y-8624473D01*
X4420773Y-8370473D02*
X4420773Y-8266527D01*
X4316827Y-8266527D01*
X4316827Y-8370473D01*
X4420773Y-8370473D01*
X4738273Y-1004473D02*
X4738273Y-900527D01*
X4634327Y-900527D01*
X4634327Y-1004473D01*
X4738273Y-1004473D01*
X4738273Y-2909473D02*
X4738273Y-2805527D01*
X4634327Y-2805527D01*
X4634327Y-2909473D01*
X4738273Y-2909473D01*
X4738273Y-4814473D02*
X4738273Y-4710527D01*
X4634327Y-4710527D01*
X4634327Y-4814473D01*
X4738273Y-4814473D01*
X4738273Y-6719473D02*
X4738273Y-6615527D01*
X4634327Y-6615527D01*
X4634327Y-6719473D01*
X4738273Y-6719473D01*
X4738273Y-8624473D02*
X4738273Y-8520527D01*
X4634327Y-8520527D01*
X4634327Y-8624473D01*
X4738273Y-8624473D01*
X5373273Y-750473D02*
X5373273Y-646527D01*
X5269327Y-646527D01*
X5269327Y-750473D01*
X5373273Y-750473D01*
X5373273Y-2655473D02*
X5373273Y-2551527D01*
X5269327Y-2551527D01*
X5269327Y-2655473D01*
X5373273Y-2655473D01*
X5373273Y-4560473D02*
X5373273Y-4456527D01*
X5269327Y-4456527D01*
X5269327Y-4560473D01*
X5373273Y-4560473D01*
X5373273Y-6465473D02*
X5373273Y-6361527D01*
X5269327Y-6361527D01*
X5269327Y-6465473D01*
X5373273Y-6465473D01*
X5373273Y-8370473D02*
X5373273Y-8266527D01*
X5269327Y-8266527D01*
X5269327Y-8370473D01*
X5373273Y-8370473D01*
X6643273Y-1004473D02*
X6643273Y-900527D01*
X6539327Y-900527D01*
X6539327Y-1004473D01*
X6643273Y-1004473D01*
X6643273Y-2909473D02*
X6643273Y-2805527D01*
X6539327Y-2805527D01*
X6539327Y-2909473D01*
X6643273Y-2909473D01*
X6643273Y-4814473D02*
X6643273Y-4710527D01*
X6539327Y-4710527D01*
X6539327Y-4814473D01*
X6643273Y-4814473D01*
X6643273Y-6719473D02*
X6643273Y-6615527D01*
X6539327Y-6615527D01*
X6539327Y-6719473D01*
X6643273Y-6719473D01*
X6643273Y-8624473D02*
X6643273Y-8520527D01*
X6539327Y-8520527D01*
X6539327Y-8624473D01*
X6643273Y-8624473D01*
X7278273Y-750473D02*
X7278273Y-646527D01*
X7174327Y-646527D01*
X7174327Y-750473D01*
X7278273Y-750473D01*
X7278273Y-2655473D02*
X7278273Y-2551527D01*
X7174327Y-2551527D01*
X7174327Y-2655473D01*
X7278273Y-2655473D01*
X7278273Y-4560473D02*
X7278273Y-4456527D01*
X7174327Y-4456527D01*
X7174327Y-4560473D01*
X7278273Y-4560473D01*
X7278273Y-6465473D02*
X7278273Y-6361527D01*
X7174327Y-6361527D01*
X7174327Y-6465473D01*
X7278273Y-6465473D01*
X7278273Y-8370473D02*
X7278273Y-8266527D01*
X7174327Y-8266527D01*
X7174327Y-8370473D01*
X7278273Y-8370473D01*
X8414923Y-3861973D02*
X8414923Y-3758027D01*
X8310977Y-3758027D01*
X8310977Y-3861973D01*
X8414923Y-3861973D01*
X8421273Y-7671973D02*
X8421273Y-7568027D01*
X8317327Y-7568027D01*
X8317327Y-7671973D01*
X8421273Y-7671973D01*
X8548273Y-1004473D02*
X8548273Y-900527D01*
X8444327Y-900527D01*
X8444327Y-1004473D01*
X8548273Y-1004473D01*
X8548273Y-2909473D02*
X8548273Y-2805527D01*
X8444327Y-2805527D01*
X8444327Y-2909473D01*
X8548273Y-2909473D01*
X8548273Y-4814473D02*
X8548273Y-4710527D01*
X8444327Y-4710527D01*
X8444327Y-4814473D01*
X8548273Y-4814473D01*
X8548273Y-6719473D02*
X8548273Y-6615527D01*
X8444327Y-6615527D01*
X8444327Y-6719473D01*
X8548273Y-6719473D01*
X8548273Y-8624473D02*
X8548273Y-8520527D01*
X8444327Y-8520527D01*
X8444327Y-8624473D01*
X8548273Y-8624473D01*
X8668923Y-4496973D02*
X8668923Y-4393027D01*
X8564977Y-4393027D01*
X8564977Y-4496973D01*
X8668923Y-4496973D01*
X8675273Y-8306973D02*
X8675273Y-8203027D01*
X8571327Y-8203027D01*
X8571327Y-8306973D01*
X8675273Y-8306973D01*
X9183273Y-750473D02*
X9183273Y-646527D01*
X9079327Y-646527D01*
X9079327Y-750473D01*
X9183273Y-750473D01*
X9183273Y-2655473D02*
X9183273Y-2551527D01*
X9079327Y-2551527D01*
X9079327Y-2655473D01*
X9183273Y-2655473D01*
X9183273Y-4560473D02*
X9183273Y-4456527D01*
X9079327Y-4456527D01*
X9079327Y-4560473D01*
X9183273Y-4560473D01*
X9183273Y-6465473D02*
X9183273Y-6361527D01*
X9079327Y-6361527D01*
X9079327Y-6465473D01*
X9183273Y-6465473D01*
X9183273Y-8370473D02*
X9183273Y-8266527D01*
X9079327Y-8266527D01*
X9079327Y-8370473D01*
X9183273Y-8370473D01*
X1111250Y-3579000D02*
X1186250Y-3504000D01*
X1111250Y-3429000D01*
X1036250Y-3504000D01*
X1111250Y-3579000D01*
X1046250Y-3569000D02*
X1176250Y-3569000D01*
X1046250Y-3439000D02*
X1176250Y-3439000D01*
X1176250Y-3569000D02*
G75*
G03*
X1176250Y-3439000I0J65000D01*
G01*
X1046250Y-3439000D02*
G75*
G03*
X1046250Y-3569000I0J-65000D01*
G01*
X1111250Y-4699000D02*
X1186250Y-4624000D01*
X1111250Y-4549000D01*
X1036250Y-4624000D01*
X1111250Y-4699000D01*
X1046250Y-4689000D02*
X1176250Y-4689000D01*
X1046250Y-4559000D02*
X1176250Y-4559000D01*
X1176250Y-4689000D02*
G75*
G03*
X1176250Y-4559000I0J65000D01*
G01*
X1046250Y-4559000D02*
G75*
G03*
X1046250Y-4689000I0J-65000D01*
G01*
X1111250Y-5960250D02*
X1186250Y-5885250D01*
X1111250Y-5810250D01*
X1036250Y-5885250D01*
X1111250Y-5960250D01*
X1046250Y-5950250D02*
X1176250Y-5950250D01*
X1046250Y-5820250D02*
X1176250Y-5820250D01*
X1176250Y-5950250D02*
G75*
G03*
X1176250Y-5820250I0J65000D01*
G01*
X1046250Y-5820250D02*
G75*
G03*
X1046250Y-5950250I0J-65000D01*
G01*
X1111250Y-7080250D02*
X1186250Y-7005250D01*
X1111250Y-6930250D01*
X1036250Y-7005250D01*
X1111250Y-7080250D01*
X1046250Y-7070250D02*
X1176250Y-7070250D01*
X1046250Y-6940250D02*
X1176250Y-6940250D01*
X1176250Y-7070250D02*
G75*
G03*
X1176250Y-6940250I0J65000D01*
G01*
X1046250Y-6940250D02*
G75*
G03*
X1046250Y-7070250I0J-65000D01*
G01*
X1111250Y-8341500D02*
X1186250Y-8266500D01*
X1111250Y-8191500D01*
X1036250Y-8266500D01*
X1111250Y-8341500D01*
X1046250Y-8331500D02*
X1176250Y-8331500D01*
X1046250Y-8201500D02*
X1176250Y-8201500D01*
X1176250Y-8331500D02*
G75*
G03*
X1176250Y-8201500I0J65000D01*
G01*
X1046250Y-8201500D02*
G75*
G03*
X1046250Y-8331500I0J-65000D01*
G01*
X1111250Y-9461500D02*
X1186250Y-9386500D01*
X1111250Y-9311500D01*
X1036250Y-9386500D01*
X1111250Y-9461500D01*
X1046250Y-9451500D02*
X1176250Y-9451500D01*
X1046250Y-9321500D02*
X1176250Y-9321500D01*
X1176250Y-9451500D02*
G75*
G03*
X1176250Y-9321500I0J65000D01*
G01*
X1046250Y-9321500D02*
G75*
G03*
X1046250Y-9451500I0J-65000D01*
G01*
D12*
X283928Y-10468214D02*
X283928Y-10168214D01*
X355357Y-10168214D01*
X398214Y-10182500D01*
X426786Y-10211072D01*
X441071Y-10239643D01*
X455357Y-10296786D01*
X455357Y-10339643D01*
X441071Y-10396786D01*
X426786Y-10425357D01*
X398214Y-10453929D01*
X355357Y-10468214D01*
X283928Y-10468214D01*
X583928Y-10468214D02*
X583928Y-10268214D01*
X583928Y-10325357D02*
X598214Y-10296786D01*
X612500Y-10282500D01*
X641071Y-10268214D01*
X669643Y-10268214D01*
X769643Y-10468214D02*
X769643Y-10268214D01*
X769643Y-10168214D02*
X755357Y-10182500D01*
X769643Y-10196786D01*
X783928Y-10182500D01*
X769643Y-10168214D01*
X769643Y-10196786D01*
X955357Y-10468214D02*
X926786Y-10453929D01*
X912500Y-10425357D01*
X912500Y-10168214D01*
X1112500Y-10468214D02*
X1083928Y-10453929D01*
X1069643Y-10425357D01*
X1069643Y-10168214D01*
X1455357Y-10468214D02*
X1455357Y-10168214D01*
X1555357Y-10382500D01*
X1655357Y-10168214D01*
X1655357Y-10468214D01*
X1926786Y-10468214D02*
X1926786Y-10311072D01*
X1912500Y-10282500D01*
X1883928Y-10268214D01*
X1826786Y-10268214D01*
X1798214Y-10282500D01*
X1926786Y-10453929D02*
X1898214Y-10468214D01*
X1826786Y-10468214D01*
X1798214Y-10453929D01*
X1783928Y-10425357D01*
X1783928Y-10396786D01*
X1798214Y-10368214D01*
X1826786Y-10353929D01*
X1898214Y-10353929D01*
X1926786Y-10339643D01*
X2069643Y-10268214D02*
X2069643Y-10568214D01*
X2069643Y-10282500D02*
X2098214Y-10268214D01*
X2155357Y-10268214D01*
X2183928Y-10282500D01*
X2198214Y-10296786D01*
X2212500Y-10325357D01*
X2212500Y-10411072D01*
X2198214Y-10439643D01*
X2183928Y-10453929D01*
X2155357Y-10468214D01*
X2098214Y-10468214D01*
X2069643Y-10453929D01*
X2341071Y-10439643D02*
X2355357Y-10453929D01*
X2341071Y-10468214D01*
X2326786Y-10453929D01*
X2341071Y-10439643D01*
X2341071Y-10468214D01*
X2341071Y-10282500D02*
X2355357Y-10296786D01*
X2341071Y-10311072D01*
X2326786Y-10296786D01*
X2341071Y-10282500D01*
X2341071Y-10311072D01*
X-42500Y-10942500D02*
X-2500Y-10982500D01*
X-2500Y-10942500D02*
X-42500Y-10982500D01*
X341071Y-10798214D02*
X369643Y-10798214D01*
X398214Y-10812500D01*
X412500Y-10826786D01*
X426786Y-10855357D01*
X441071Y-10912500D01*
X441071Y-10983929D01*
X426786Y-11041072D01*
X412500Y-11069643D01*
X398214Y-11083929D01*
X369643Y-11098214D01*
X341071Y-11098214D01*
X312500Y-11083929D01*
X298214Y-11069643D01*
X283928Y-11041072D01*
X269643Y-10983929D01*
X269643Y-10912500D01*
X283928Y-10855357D01*
X298214Y-10826786D01*
X312500Y-10812500D01*
X341071Y-10798214D01*
X569643Y-11069643D02*
X583928Y-11083929D01*
X569643Y-11098214D01*
X555357Y-11083929D01*
X569643Y-11069643D01*
X569643Y-11098214D01*
X841071Y-10898214D02*
X841071Y-11098214D01*
X769643Y-10783929D02*
X698214Y-10998214D01*
X883928Y-10998214D01*
X1055357Y-10798214D02*
X1083928Y-10798214D01*
X1112500Y-10812500D01*
X1126786Y-10826786D01*
X1141071Y-10855357D01*
X1155357Y-10912500D01*
X1155357Y-10983929D01*
X1141071Y-11041072D01*
X1126786Y-11069643D01*
X1112500Y-11083929D01*
X1083928Y-11098214D01*
X1055357Y-11098214D01*
X1026786Y-11083929D01*
X1012500Y-11069643D01*
X998214Y-11041072D01*
X983928Y-10983929D01*
X983928Y-10912500D01*
X998214Y-10855357D01*
X1012500Y-10826786D01*
X1026786Y-10812500D01*
X1055357Y-10798214D01*
X1341071Y-10798214D02*
X1369643Y-10798214D01*
X1398214Y-10812500D01*
X1412500Y-10826786D01*
X1426786Y-10855357D01*
X1441071Y-10912500D01*
X1441071Y-10983929D01*
X1426786Y-11041072D01*
X1412500Y-11069643D01*
X1398214Y-11083929D01*
X1369643Y-11098214D01*
X1341071Y-11098214D01*
X1312500Y-11083929D01*
X1298214Y-11069643D01*
X1283928Y-11041072D01*
X1269643Y-10983929D01*
X1269643Y-10912500D01*
X1283928Y-10855357D01*
X1298214Y-10826786D01*
X1312500Y-10812500D01*
X1341071Y-10798214D01*
X1569643Y-11098214D02*
X1569643Y-10898214D01*
X1569643Y-10926786D02*
X1583928Y-10912500D01*
X1612500Y-10898214D01*
X1655357Y-10898214D01*
X1683928Y-10912500D01*
X1698214Y-10941072D01*
X1698214Y-11098214D01*
X1698214Y-10941072D02*
X1712500Y-10912500D01*
X1741071Y-10898214D01*
X1783928Y-10898214D01*
X1812500Y-10912500D01*
X1826786Y-10941072D01*
X1826786Y-11098214D01*
X1969643Y-11098214D02*
X1969643Y-10898214D01*
X1969643Y-10926786D02*
X1983928Y-10912500D01*
X2012500Y-10898214D01*
X2055357Y-10898214D01*
X2083928Y-10912500D01*
X2098214Y-10941072D01*
X2098214Y-11098214D01*
X2098214Y-10941072D02*
X2112500Y-10912500D01*
X2141071Y-10898214D01*
X2183928Y-10898214D01*
X2212500Y-10912500D01*
X2226786Y-10941072D01*
X2226786Y-11098214D01*
X2812500Y-10783929D02*
X2555357Y-11169643D01*
X3198214Y-10798214D02*
X3226786Y-10798214D01*
X3255357Y-10812500D01*
X3269643Y-10826786D01*
X3283928Y-10855357D01*
X3298214Y-10912500D01*
X3298214Y-10983929D01*
X3283928Y-11041072D01*
X3269643Y-11069643D01*
X3255357Y-11083929D01*
X3226786Y-11098214D01*
X3198214Y-11098214D01*
X3169643Y-11083929D01*
X3155357Y-11069643D01*
X3141071Y-11041072D01*
X3126786Y-10983929D01*
X3126786Y-10912500D01*
X3141071Y-10855357D01*
X3155357Y-10826786D01*
X3169643Y-10812500D01*
X3198214Y-10798214D01*
X3426786Y-11069643D02*
X3441071Y-11083929D01*
X3426786Y-11098214D01*
X3412500Y-11083929D01*
X3426786Y-11069643D01*
X3426786Y-11098214D01*
X3626786Y-10798214D02*
X3655357Y-10798214D01*
X3683928Y-10812500D01*
X3698214Y-10826786D01*
X3712500Y-10855357D01*
X3726786Y-10912500D01*
X3726786Y-10983929D01*
X3712500Y-11041072D01*
X3698214Y-11069643D01*
X3683928Y-11083929D01*
X3655357Y-11098214D01*
X3626786Y-11098214D01*
X3598214Y-11083929D01*
X3583928Y-11069643D01*
X3569643Y-11041072D01*
X3555357Y-10983929D01*
X3555357Y-10912500D01*
X3569643Y-10855357D01*
X3583928Y-10826786D01*
X3598214Y-10812500D01*
X3626786Y-10798214D01*
X4012500Y-11098214D02*
X3841071Y-11098214D01*
X3926786Y-11098214D02*
X3926786Y-10798214D01*
X3898214Y-10841072D01*
X3869643Y-10869643D01*
X3841071Y-10883929D01*
X4283928Y-10798214D02*
X4141071Y-10798214D01*
X4126786Y-10941072D01*
X4141071Y-10926786D01*
X4169643Y-10912500D01*
X4241071Y-10912500D01*
X4269643Y-10926786D01*
X4283928Y-10941072D01*
X4298214Y-10969643D01*
X4298214Y-11041072D01*
X4283928Y-11069643D01*
X4269643Y-11083929D01*
X4241071Y-11098214D01*
X4169643Y-11098214D01*
X4141071Y-11083929D01*
X4126786Y-11069643D01*
X4398214Y-10798214D02*
X4598214Y-10798214D01*
X4469643Y-11098214D01*
X4698214Y-10798214D02*
X4698214Y-10855357D01*
X4812500Y-10798214D02*
X4812500Y-10855357D01*
X5255357Y-11212500D02*
X5241071Y-11198214D01*
X5212500Y-11155357D01*
X5198214Y-11126786D01*
X5183928Y-11083929D01*
X5169643Y-11012500D01*
X5169643Y-10955357D01*
X5183928Y-10883929D01*
X5198214Y-10841072D01*
X5212500Y-10812500D01*
X5241071Y-10769643D01*
X5255357Y-10755357D01*
X5498214Y-10898214D02*
X5498214Y-11098214D01*
X5426786Y-10783929D02*
X5355357Y-10998214D01*
X5541071Y-10998214D01*
X5712500Y-10798214D02*
X5741071Y-10798214D01*
X5769643Y-10812500D01*
X5783928Y-10826786D01*
X5798214Y-10855357D01*
X5812500Y-10912500D01*
X5812500Y-10983929D01*
X5798214Y-11041072D01*
X5783928Y-11069643D01*
X5769643Y-11083929D01*
X5741071Y-11098214D01*
X5712500Y-11098214D01*
X5683928Y-11083929D01*
X5669643Y-11069643D01*
X5655357Y-11041072D01*
X5641071Y-10983929D01*
X5641071Y-10912500D01*
X5655357Y-10855357D01*
X5669643Y-10826786D01*
X5683928Y-10812500D01*
X5712500Y-10798214D01*
X6069643Y-10798214D02*
X6012500Y-10798214D01*
X5983928Y-10812500D01*
X5969643Y-10826786D01*
X5941071Y-10869643D01*
X5926786Y-10926786D01*
X5926786Y-11041072D01*
X5941071Y-11069643D01*
X5955357Y-11083929D01*
X5983928Y-11098214D01*
X6041071Y-11098214D01*
X6069643Y-11083929D01*
X6083928Y-11069643D01*
X6098214Y-11041072D01*
X6098214Y-10969643D01*
X6083928Y-10941072D01*
X6069643Y-10926786D01*
X6041071Y-10912500D01*
X5983928Y-10912500D01*
X5955357Y-10926786D01*
X5941071Y-10941072D01*
X5926786Y-10969643D01*
X6455357Y-11098214D02*
X6455357Y-10798214D01*
X6583928Y-11098214D02*
X6583928Y-10941072D01*
X6569643Y-10912500D01*
X6541071Y-10898214D01*
X6498214Y-10898214D01*
X6469643Y-10912500D01*
X6455357Y-10926786D01*
X6769643Y-11098214D02*
X6741071Y-11083929D01*
X6726786Y-11069643D01*
X6712500Y-11041072D01*
X6712500Y-10955357D01*
X6726786Y-10926786D01*
X6741071Y-10912500D01*
X6769643Y-10898214D01*
X6812500Y-10898214D01*
X6841071Y-10912500D01*
X6855357Y-10926786D01*
X6869643Y-10955357D01*
X6869643Y-11041072D01*
X6855357Y-11069643D01*
X6841071Y-11083929D01*
X6812500Y-11098214D01*
X6769643Y-11098214D01*
X7041071Y-11098214D02*
X7012500Y-11083929D01*
X6998214Y-11055357D01*
X6998214Y-10798214D01*
X7269643Y-11083929D02*
X7241071Y-11098214D01*
X7183928Y-11098214D01*
X7155357Y-11083929D01*
X7141071Y-11055357D01*
X7141071Y-10941072D01*
X7155357Y-10912500D01*
X7183928Y-10898214D01*
X7241071Y-10898214D01*
X7269643Y-10912500D01*
X7283928Y-10941072D01*
X7283928Y-10969643D01*
X7141071Y-10998214D01*
X7398214Y-11083929D02*
X7426786Y-11098214D01*
X7483928Y-11098214D01*
X7512500Y-11083929D01*
X7526786Y-11055357D01*
X7526786Y-11041072D01*
X7512500Y-11012500D01*
X7483928Y-10998214D01*
X7441071Y-10998214D01*
X7412500Y-10983929D01*
X7398214Y-10955357D01*
X7398214Y-10941072D01*
X7412500Y-10912500D01*
X7441071Y-10898214D01*
X7483928Y-10898214D01*
X7512500Y-10912500D01*
X7626786Y-11212500D02*
X7641071Y-11198214D01*
X7669643Y-11155357D01*
X7683928Y-11126786D01*
X7698214Y-11083929D01*
X7712500Y-11012500D01*
X7712500Y-10955357D01*
X7698214Y-10883929D01*
X7683928Y-10841072D01*
X7669643Y-10812500D01*
X7641071Y-10769643D01*
X7626786Y-10755357D01*
X-2500Y-11358500D02*
G75*
G03*
X-2500Y-11358500I-50000J0D01*
G01*
X441071Y-11494214D02*
X269643Y-11494214D01*
X355357Y-11494214D02*
X355357Y-11194214D01*
X326786Y-11237071D01*
X298214Y-11265643D01*
X269643Y-11279929D01*
X569643Y-11465643D02*
X583928Y-11479929D01*
X569643Y-11494214D01*
X555357Y-11479929D01*
X569643Y-11465643D01*
X569643Y-11494214D01*
X769643Y-11194214D02*
X798214Y-11194214D01*
X826786Y-11208500D01*
X841071Y-11222786D01*
X855357Y-11251357D01*
X869643Y-11308500D01*
X869643Y-11379929D01*
X855357Y-11437071D01*
X841071Y-11465643D01*
X826786Y-11479929D01*
X798214Y-11494214D01*
X769643Y-11494214D01*
X741071Y-11479929D01*
X726786Y-11465643D01*
X712500Y-11437071D01*
X698214Y-11379929D01*
X698214Y-11308500D01*
X712500Y-11251357D01*
X726786Y-11222786D01*
X741071Y-11208500D01*
X769643Y-11194214D01*
X1055357Y-11194214D02*
X1083928Y-11194214D01*
X1112500Y-11208500D01*
X1126786Y-11222786D01*
X1141071Y-11251357D01*
X1155357Y-11308500D01*
X1155357Y-11379929D01*
X1141071Y-11437071D01*
X1126786Y-11465643D01*
X1112500Y-11479929D01*
X1083928Y-11494214D01*
X1055357Y-11494214D01*
X1026786Y-11479929D01*
X1012500Y-11465643D01*
X998214Y-11437071D01*
X983928Y-11379929D01*
X983928Y-11308500D01*
X998214Y-11251357D01*
X1012500Y-11222786D01*
X1026786Y-11208500D01*
X1055357Y-11194214D01*
X1341071Y-11194214D02*
X1369643Y-11194214D01*
X1398214Y-11208500D01*
X1412500Y-11222786D01*
X1426786Y-11251357D01*
X1441071Y-11308500D01*
X1441071Y-11379929D01*
X1426786Y-11437071D01*
X1412500Y-11465643D01*
X1398214Y-11479929D01*
X1369643Y-11494214D01*
X1341071Y-11494214D01*
X1312500Y-11479929D01*
X1298214Y-11465643D01*
X1283928Y-11437071D01*
X1269643Y-11379929D01*
X1269643Y-11308500D01*
X1283928Y-11251357D01*
X1298214Y-11222786D01*
X1312500Y-11208500D01*
X1341071Y-11194214D01*
X1569643Y-11494214D02*
X1569643Y-11294214D01*
X1569643Y-11322786D02*
X1583928Y-11308500D01*
X1612500Y-11294214D01*
X1655357Y-11294214D01*
X1683928Y-11308500D01*
X1698214Y-11337071D01*
X1698214Y-11494214D01*
X1698214Y-11337071D02*
X1712500Y-11308500D01*
X1741071Y-11294214D01*
X1783928Y-11294214D01*
X1812500Y-11308500D01*
X1826786Y-11337071D01*
X1826786Y-11494214D01*
X1969643Y-11494214D02*
X1969643Y-11294214D01*
X1969643Y-11322786D02*
X1983928Y-11308500D01*
X2012500Y-11294214D01*
X2055357Y-11294214D01*
X2083928Y-11308500D01*
X2098214Y-11337071D01*
X2098214Y-11494214D01*
X2098214Y-11337071D02*
X2112500Y-11308500D01*
X2141071Y-11294214D01*
X2183928Y-11294214D01*
X2212500Y-11308500D01*
X2226786Y-11337071D01*
X2226786Y-11494214D01*
X2812500Y-11179929D02*
X2555357Y-11565643D01*
X3198214Y-11194214D02*
X3226786Y-11194214D01*
X3255357Y-11208500D01*
X3269643Y-11222786D01*
X3283928Y-11251357D01*
X3298214Y-11308500D01*
X3298214Y-11379929D01*
X3283928Y-11437071D01*
X3269643Y-11465643D01*
X3255357Y-11479929D01*
X3226786Y-11494214D01*
X3198214Y-11494214D01*
X3169643Y-11479929D01*
X3155357Y-11465643D01*
X3141071Y-11437071D01*
X3126786Y-11379929D01*
X3126786Y-11308500D01*
X3141071Y-11251357D01*
X3155357Y-11222786D01*
X3169643Y-11208500D01*
X3198214Y-11194214D01*
X3426786Y-11465643D02*
X3441071Y-11479929D01*
X3426786Y-11494214D01*
X3412500Y-11479929D01*
X3426786Y-11465643D01*
X3426786Y-11494214D01*
X3626786Y-11194214D02*
X3655357Y-11194214D01*
X3683928Y-11208500D01*
X3698214Y-11222786D01*
X3712500Y-11251357D01*
X3726786Y-11308500D01*
X3726786Y-11379929D01*
X3712500Y-11437071D01*
X3698214Y-11465643D01*
X3683928Y-11479929D01*
X3655357Y-11494214D01*
X3626786Y-11494214D01*
X3598214Y-11479929D01*
X3583928Y-11465643D01*
X3569643Y-11437071D01*
X3555357Y-11379929D01*
X3555357Y-11308500D01*
X3569643Y-11251357D01*
X3583928Y-11222786D01*
X3598214Y-11208500D01*
X3626786Y-11194214D01*
X3826786Y-11194214D02*
X4012500Y-11194214D01*
X3912500Y-11308500D01*
X3955357Y-11308500D01*
X3983928Y-11322786D01*
X3998214Y-11337071D01*
X4012500Y-11365643D01*
X4012500Y-11437071D01*
X3998214Y-11465643D01*
X3983928Y-11479929D01*
X3955357Y-11494214D01*
X3869643Y-11494214D01*
X3841071Y-11479929D01*
X3826786Y-11465643D01*
X4155357Y-11494214D02*
X4212500Y-11494214D01*
X4241071Y-11479929D01*
X4255357Y-11465643D01*
X4283928Y-11422786D01*
X4298214Y-11365643D01*
X4298214Y-11251357D01*
X4283928Y-11222786D01*
X4269643Y-11208500D01*
X4241071Y-11194214D01*
X4183928Y-11194214D01*
X4155357Y-11208500D01*
X4141071Y-11222786D01*
X4126786Y-11251357D01*
X4126786Y-11322786D01*
X4141071Y-11351357D01*
X4155357Y-11365643D01*
X4183928Y-11379929D01*
X4241071Y-11379929D01*
X4269643Y-11365643D01*
X4283928Y-11351357D01*
X4298214Y-11322786D01*
X4555357Y-11294214D02*
X4555357Y-11494214D01*
X4483928Y-11179929D02*
X4412500Y-11394214D01*
X4598214Y-11394214D01*
X4698214Y-11194214D02*
X4698214Y-11251357D01*
X4812500Y-11194214D02*
X4812500Y-11251357D01*
X5255357Y-11608500D02*
X5241071Y-11594214D01*
X5212500Y-11551357D01*
X5198214Y-11522786D01*
X5183928Y-11479929D01*
X5169643Y-11408500D01*
X5169643Y-11351357D01*
X5183928Y-11279929D01*
X5198214Y-11237071D01*
X5212500Y-11208500D01*
X5241071Y-11165643D01*
X5255357Y-11151357D01*
X5498214Y-11194214D02*
X5441071Y-11194214D01*
X5412500Y-11208500D01*
X5398214Y-11222786D01*
X5369643Y-11265643D01*
X5355357Y-11322786D01*
X5355357Y-11437071D01*
X5369643Y-11465643D01*
X5383928Y-11479929D01*
X5412500Y-11494214D01*
X5469643Y-11494214D01*
X5498214Y-11479929D01*
X5512500Y-11465643D01*
X5526786Y-11437071D01*
X5526786Y-11365643D01*
X5512500Y-11337071D01*
X5498214Y-11322786D01*
X5469643Y-11308500D01*
X5412500Y-11308500D01*
X5383928Y-11322786D01*
X5369643Y-11337071D01*
X5355357Y-11365643D01*
X5812500Y-11494214D02*
X5641071Y-11494214D01*
X5726786Y-11494214D02*
X5726786Y-11194214D01*
X5698214Y-11237071D01*
X5669643Y-11265643D01*
X5641071Y-11279929D01*
X6169643Y-11494214D02*
X6169643Y-11194214D01*
X6298214Y-11494214D02*
X6298214Y-11337071D01*
X6283928Y-11308500D01*
X6255357Y-11294214D01*
X6212500Y-11294214D01*
X6183928Y-11308500D01*
X6169643Y-11322786D01*
X6483928Y-11494214D02*
X6455357Y-11479929D01*
X6441071Y-11465643D01*
X6426786Y-11437071D01*
X6426786Y-11351357D01*
X6441071Y-11322786D01*
X6455357Y-11308500D01*
X6483928Y-11294214D01*
X6526786Y-11294214D01*
X6555357Y-11308500D01*
X6569643Y-11322786D01*
X6583928Y-11351357D01*
X6583928Y-11437071D01*
X6569643Y-11465643D01*
X6555357Y-11479929D01*
X6526786Y-11494214D01*
X6483928Y-11494214D01*
X6755357Y-11494214D02*
X6726786Y-11479929D01*
X6712500Y-11451357D01*
X6712500Y-11194214D01*
X6983928Y-11479929D02*
X6955357Y-11494214D01*
X6898214Y-11494214D01*
X6869643Y-11479929D01*
X6855357Y-11451357D01*
X6855357Y-11337071D01*
X6869643Y-11308500D01*
X6898214Y-11294214D01*
X6955357Y-11294214D01*
X6983928Y-11308500D01*
X6998214Y-11337071D01*
X6998214Y-11365643D01*
X6855357Y-11394214D01*
X7112500Y-11479929D02*
X7141071Y-11494214D01*
X7198214Y-11494214D01*
X7226786Y-11479929D01*
X7241071Y-11451357D01*
X7241071Y-11437071D01*
X7226786Y-11408500D01*
X7198214Y-11394214D01*
X7155357Y-11394214D01*
X7126786Y-11379929D01*
X7112500Y-11351357D01*
X7112500Y-11337071D01*
X7126786Y-11308500D01*
X7155357Y-11294214D01*
X7198214Y-11294214D01*
X7226786Y-11308500D01*
X7341071Y-11608500D02*
X7355357Y-11594214D01*
X7383928Y-11551357D01*
X7398214Y-11522786D01*
X7412500Y-11479929D01*
X7426786Y-11408500D01*
X7426786Y-11351357D01*
X7412500Y-11279929D01*
X7398214Y-11237071D01*
X7383928Y-11208500D01*
X7355357Y-11165643D01*
X7341071Y-11151357D01*
X-57110Y-11699890D02*
X-57110Y-11809110D01*
X-111720Y-11754500D02*
X-2500Y-11754500D01*
X441071Y-11890214D02*
X269643Y-11890214D01*
X355357Y-11890214D02*
X355357Y-11590214D01*
X326786Y-11633071D01*
X298214Y-11661643D01*
X269643Y-11675929D01*
X569643Y-11861643D02*
X583928Y-11875929D01*
X569643Y-11890214D01*
X555357Y-11875929D01*
X569643Y-11861643D01*
X569643Y-11890214D01*
X769643Y-11590214D02*
X798214Y-11590214D01*
X826786Y-11604500D01*
X841071Y-11618786D01*
X855357Y-11647357D01*
X869643Y-11704500D01*
X869643Y-11775929D01*
X855357Y-11833071D01*
X841071Y-11861643D01*
X826786Y-11875929D01*
X798214Y-11890214D01*
X769643Y-11890214D01*
X741071Y-11875929D01*
X726786Y-11861643D01*
X712500Y-11833071D01*
X698214Y-11775929D01*
X698214Y-11704500D01*
X712500Y-11647357D01*
X726786Y-11618786D01*
X741071Y-11604500D01*
X769643Y-11590214D01*
X1012500Y-11890214D02*
X1069643Y-11890214D01*
X1098214Y-11875929D01*
X1112500Y-11861643D01*
X1141071Y-11818786D01*
X1155357Y-11761643D01*
X1155357Y-11647357D01*
X1141071Y-11618786D01*
X1126786Y-11604500D01*
X1098214Y-11590214D01*
X1041071Y-11590214D01*
X1012500Y-11604500D01*
X998214Y-11618786D01*
X983928Y-11647357D01*
X983928Y-11718786D01*
X998214Y-11747357D01*
X1012500Y-11761643D01*
X1041071Y-11775929D01*
X1098214Y-11775929D01*
X1126786Y-11761643D01*
X1141071Y-11747357D01*
X1155357Y-11718786D01*
X1269643Y-11618786D02*
X1283928Y-11604500D01*
X1312500Y-11590214D01*
X1383928Y-11590214D01*
X1412500Y-11604500D01*
X1426786Y-11618786D01*
X1441071Y-11647357D01*
X1441071Y-11675929D01*
X1426786Y-11718786D01*
X1255357Y-11890214D01*
X1441071Y-11890214D01*
X1569643Y-11890214D02*
X1569643Y-11690214D01*
X1569643Y-11718786D02*
X1583928Y-11704500D01*
X1612500Y-11690214D01*
X1655357Y-11690214D01*
X1683928Y-11704500D01*
X1698214Y-11733071D01*
X1698214Y-11890214D01*
X1698214Y-11733071D02*
X1712500Y-11704500D01*
X1741071Y-11690214D01*
X1783928Y-11690214D01*
X1812500Y-11704500D01*
X1826786Y-11733071D01*
X1826786Y-11890214D01*
X1969643Y-11890214D02*
X1969643Y-11690214D01*
X1969643Y-11718786D02*
X1983928Y-11704500D01*
X2012500Y-11690214D01*
X2055357Y-11690214D01*
X2083928Y-11704500D01*
X2098214Y-11733071D01*
X2098214Y-11890214D01*
X2098214Y-11733071D02*
X2112500Y-11704500D01*
X2141071Y-11690214D01*
X2183928Y-11690214D01*
X2212500Y-11704500D01*
X2226786Y-11733071D01*
X2226786Y-11890214D01*
X2812500Y-11575929D02*
X2555357Y-11961643D01*
X3198214Y-11590214D02*
X3226786Y-11590214D01*
X3255357Y-11604500D01*
X3269643Y-11618786D01*
X3283928Y-11647357D01*
X3298214Y-11704500D01*
X3298214Y-11775929D01*
X3283928Y-11833071D01*
X3269643Y-11861643D01*
X3255357Y-11875929D01*
X3226786Y-11890214D01*
X3198214Y-11890214D01*
X3169643Y-11875929D01*
X3155357Y-11861643D01*
X3141071Y-11833071D01*
X3126786Y-11775929D01*
X3126786Y-11704500D01*
X3141071Y-11647357D01*
X3155357Y-11618786D01*
X3169643Y-11604500D01*
X3198214Y-11590214D01*
X3426786Y-11861643D02*
X3441071Y-11875929D01*
X3426786Y-11890214D01*
X3412500Y-11875929D01*
X3426786Y-11861643D01*
X3426786Y-11890214D01*
X3626786Y-11590214D02*
X3655357Y-11590214D01*
X3683928Y-11604500D01*
X3698214Y-11618786D01*
X3712500Y-11647357D01*
X3726786Y-11704500D01*
X3726786Y-11775929D01*
X3712500Y-11833071D01*
X3698214Y-11861643D01*
X3683928Y-11875929D01*
X3655357Y-11890214D01*
X3626786Y-11890214D01*
X3598214Y-11875929D01*
X3583928Y-11861643D01*
X3569643Y-11833071D01*
X3555357Y-11775929D01*
X3555357Y-11704500D01*
X3569643Y-11647357D01*
X3583928Y-11618786D01*
X3598214Y-11604500D01*
X3626786Y-11590214D01*
X3983928Y-11690214D02*
X3983928Y-11890214D01*
X3912500Y-11575929D02*
X3841071Y-11790214D01*
X4026786Y-11790214D01*
X4112500Y-11590214D02*
X4298214Y-11590214D01*
X4198214Y-11704500D01*
X4241071Y-11704500D01*
X4269643Y-11718786D01*
X4283928Y-11733071D01*
X4298214Y-11761643D01*
X4298214Y-11833071D01*
X4283928Y-11861643D01*
X4269643Y-11875929D01*
X4241071Y-11890214D01*
X4155357Y-11890214D01*
X4126786Y-11875929D01*
X4112500Y-11861643D01*
X4483928Y-11590214D02*
X4512500Y-11590214D01*
X4541071Y-11604500D01*
X4555357Y-11618786D01*
X4569643Y-11647357D01*
X4583928Y-11704500D01*
X4583928Y-11775929D01*
X4569643Y-11833071D01*
X4555357Y-11861643D01*
X4541071Y-11875929D01*
X4512500Y-11890214D01*
X4483928Y-11890214D01*
X4455357Y-11875929D01*
X4441071Y-11861643D01*
X4426786Y-11833071D01*
X4412500Y-11775929D01*
X4412500Y-11704500D01*
X4426786Y-11647357D01*
X4441071Y-11618786D01*
X4455357Y-11604500D01*
X4483928Y-11590214D01*
X4698214Y-11590214D02*
X4698214Y-11647357D01*
X4812500Y-11590214D02*
X4812500Y-11647357D01*
X5255357Y-12004500D02*
X5241071Y-11990214D01*
X5212500Y-11947357D01*
X5198214Y-11918786D01*
X5183928Y-11875929D01*
X5169643Y-11804500D01*
X5169643Y-11747357D01*
X5183928Y-11675929D01*
X5198214Y-11633071D01*
X5212500Y-11604500D01*
X5241071Y-11561643D01*
X5255357Y-11547357D01*
X5355357Y-11618786D02*
X5369643Y-11604500D01*
X5398214Y-11590214D01*
X5469643Y-11590214D01*
X5498214Y-11604500D01*
X5512500Y-11618786D01*
X5526786Y-11647357D01*
X5526786Y-11675929D01*
X5512500Y-11718786D01*
X5341071Y-11890214D01*
X5526786Y-11890214D01*
X5783928Y-11690214D02*
X5783928Y-11890214D01*
X5712500Y-11575929D02*
X5641071Y-11790214D01*
X5826786Y-11790214D01*
X6169643Y-11890214D02*
X6169643Y-11590214D01*
X6298214Y-11890214D02*
X6298214Y-11733071D01*
X6283928Y-11704500D01*
X6255357Y-11690214D01*
X6212500Y-11690214D01*
X6183928Y-11704500D01*
X6169643Y-11718786D01*
X6483928Y-11890214D02*
X6455357Y-11875929D01*
X6441071Y-11861643D01*
X6426786Y-11833071D01*
X6426786Y-11747357D01*
X6441071Y-11718786D01*
X6455357Y-11704500D01*
X6483928Y-11690214D01*
X6526786Y-11690214D01*
X6555357Y-11704500D01*
X6569643Y-11718786D01*
X6583928Y-11747357D01*
X6583928Y-11833071D01*
X6569643Y-11861643D01*
X6555357Y-11875929D01*
X6526786Y-11890214D01*
X6483928Y-11890214D01*
X6755357Y-11890214D02*
X6726786Y-11875929D01*
X6712500Y-11847357D01*
X6712500Y-11590214D01*
X6983928Y-11875929D02*
X6955357Y-11890214D01*
X6898214Y-11890214D01*
X6869643Y-11875929D01*
X6855357Y-11847357D01*
X6855357Y-11733071D01*
X6869643Y-11704500D01*
X6898214Y-11690214D01*
X6955357Y-11690214D01*
X6983928Y-11704500D01*
X6998214Y-11733071D01*
X6998214Y-11761643D01*
X6855357Y-11790214D01*
X7112500Y-11875929D02*
X7141071Y-11890214D01*
X7198214Y-11890214D01*
X7226786Y-11875929D01*
X7241071Y-11847357D01*
X7241071Y-11833071D01*
X7226786Y-11804500D01*
X7198214Y-11790214D01*
X7155357Y-11790214D01*
X7126786Y-11775929D01*
X7112500Y-11747357D01*
X7112500Y-11733071D01*
X7126786Y-11704500D01*
X7155357Y-11690214D01*
X7198214Y-11690214D01*
X7226786Y-11704500D01*
X7341071Y-12004500D02*
X7355357Y-11990214D01*
X7383928Y-11947357D01*
X7398214Y-11918786D01*
X7412500Y-11875929D01*
X7426786Y-11804500D01*
X7426786Y-11747357D01*
X7412500Y-11675929D01*
X7398214Y-11633071D01*
X7383928Y-11604500D01*
X7355357Y-11561643D01*
X7341071Y-11547357D01*
X-24027Y-12202473D02*
X-24027Y-12098527D01*
X-127973Y-12098527D01*
X-127973Y-12202473D01*
X-24027Y-12202473D01*
X441071Y-12286214D02*
X269643Y-12286214D01*
X355357Y-12286214D02*
X355357Y-11986214D01*
X326786Y-12029071D01*
X298214Y-12057643D01*
X269643Y-12071929D01*
X569643Y-12257643D02*
X583928Y-12271929D01*
X569643Y-12286214D01*
X555357Y-12271929D01*
X569643Y-12257643D01*
X569643Y-12286214D01*
X841071Y-12086214D02*
X841071Y-12286214D01*
X769643Y-11971929D02*
X698214Y-12186214D01*
X883928Y-12186214D01*
X969643Y-11986214D02*
X1169643Y-11986214D01*
X1041071Y-12286214D01*
X1341071Y-11986214D02*
X1369643Y-11986214D01*
X1398214Y-12000500D01*
X1412500Y-12014786D01*
X1426786Y-12043357D01*
X1441071Y-12100500D01*
X1441071Y-12171929D01*
X1426786Y-12229071D01*
X1412500Y-12257643D01*
X1398214Y-12271929D01*
X1369643Y-12286214D01*
X1341071Y-12286214D01*
X1312500Y-12271929D01*
X1298214Y-12257643D01*
X1283928Y-12229071D01*
X1269643Y-12171929D01*
X1269643Y-12100500D01*
X1283928Y-12043357D01*
X1298214Y-12014786D01*
X1312500Y-12000500D01*
X1341071Y-11986214D01*
X1569643Y-12286214D02*
X1569643Y-12086214D01*
X1569643Y-12114786D02*
X1583928Y-12100500D01*
X1612500Y-12086214D01*
X1655357Y-12086214D01*
X1683928Y-12100500D01*
X1698214Y-12129071D01*
X1698214Y-12286214D01*
X1698214Y-12129071D02*
X1712500Y-12100500D01*
X1741071Y-12086214D01*
X1783928Y-12086214D01*
X1812500Y-12100500D01*
X1826786Y-12129071D01*
X1826786Y-12286214D01*
X1969643Y-12286214D02*
X1969643Y-12086214D01*
X1969643Y-12114786D02*
X1983928Y-12100500D01*
X2012500Y-12086214D01*
X2055357Y-12086214D01*
X2083928Y-12100500D01*
X2098214Y-12129071D01*
X2098214Y-12286214D01*
X2098214Y-12129071D02*
X2112500Y-12100500D01*
X2141071Y-12086214D01*
X2183928Y-12086214D01*
X2212500Y-12100500D01*
X2226786Y-12129071D01*
X2226786Y-12286214D01*
X2812500Y-11971929D02*
X2555357Y-12357643D01*
X3198214Y-11986214D02*
X3226786Y-11986214D01*
X3255357Y-12000500D01*
X3269643Y-12014786D01*
X3283928Y-12043357D01*
X3298214Y-12100500D01*
X3298214Y-12171929D01*
X3283928Y-12229071D01*
X3269643Y-12257643D01*
X3255357Y-12271929D01*
X3226786Y-12286214D01*
X3198214Y-12286214D01*
X3169643Y-12271929D01*
X3155357Y-12257643D01*
X3141071Y-12229071D01*
X3126786Y-12171929D01*
X3126786Y-12100500D01*
X3141071Y-12043357D01*
X3155357Y-12014786D01*
X3169643Y-12000500D01*
X3198214Y-11986214D01*
X3426786Y-12257643D02*
X3441071Y-12271929D01*
X3426786Y-12286214D01*
X3412500Y-12271929D01*
X3426786Y-12257643D01*
X3426786Y-12286214D01*
X3626786Y-11986214D02*
X3655357Y-11986214D01*
X3683928Y-12000500D01*
X3698214Y-12014786D01*
X3712500Y-12043357D01*
X3726786Y-12100500D01*
X3726786Y-12171929D01*
X3712500Y-12229071D01*
X3698214Y-12257643D01*
X3683928Y-12271929D01*
X3655357Y-12286214D01*
X3626786Y-12286214D01*
X3598214Y-12271929D01*
X3583928Y-12257643D01*
X3569643Y-12229071D01*
X3555357Y-12171929D01*
X3555357Y-12100500D01*
X3569643Y-12043357D01*
X3583928Y-12014786D01*
X3598214Y-12000500D01*
X3626786Y-11986214D01*
X3998214Y-11986214D02*
X3855357Y-11986214D01*
X3841071Y-12129071D01*
X3855357Y-12114786D01*
X3883928Y-12100500D01*
X3955357Y-12100500D01*
X3983928Y-12114786D01*
X3998214Y-12129071D01*
X4012500Y-12157643D01*
X4012500Y-12229071D01*
X3998214Y-12257643D01*
X3983928Y-12271929D01*
X3955357Y-12286214D01*
X3883928Y-12286214D01*
X3855357Y-12271929D01*
X3841071Y-12257643D01*
X4112500Y-11986214D02*
X4312500Y-11986214D01*
X4183928Y-12286214D01*
X4441071Y-12286214D02*
X4498214Y-12286214D01*
X4526786Y-12271929D01*
X4541071Y-12257643D01*
X4569643Y-12214786D01*
X4583928Y-12157643D01*
X4583928Y-12043357D01*
X4569643Y-12014786D01*
X4555357Y-12000500D01*
X4526786Y-11986214D01*
X4469643Y-11986214D01*
X4441071Y-12000500D01*
X4426786Y-12014786D01*
X4412500Y-12043357D01*
X4412500Y-12114786D01*
X4426786Y-12143357D01*
X4441071Y-12157643D01*
X4469643Y-12171929D01*
X4526786Y-12171929D01*
X4555357Y-12157643D01*
X4569643Y-12143357D01*
X4583928Y-12114786D01*
X4698214Y-11986214D02*
X4698214Y-12043357D01*
X4812500Y-11986214D02*
X4812500Y-12043357D01*
X5255357Y-12400500D02*
X5241071Y-12386214D01*
X5212500Y-12343357D01*
X5198214Y-12314786D01*
X5183928Y-12271929D01*
X5169643Y-12200500D01*
X5169643Y-12143357D01*
X5183928Y-12071929D01*
X5198214Y-12029071D01*
X5212500Y-12000500D01*
X5241071Y-11957643D01*
X5255357Y-11943357D01*
X5498214Y-12086214D02*
X5498214Y-12286214D01*
X5426786Y-11971929D02*
X5355357Y-12186214D01*
X5541071Y-12186214D01*
X5783928Y-11986214D02*
X5726786Y-11986214D01*
X5698214Y-12000500D01*
X5683928Y-12014786D01*
X5655357Y-12057643D01*
X5641071Y-12114786D01*
X5641071Y-12229071D01*
X5655357Y-12257643D01*
X5669643Y-12271929D01*
X5698214Y-12286214D01*
X5755357Y-12286214D01*
X5783928Y-12271929D01*
X5798214Y-12257643D01*
X5812500Y-12229071D01*
X5812500Y-12157643D01*
X5798214Y-12129071D01*
X5783928Y-12114786D01*
X5755357Y-12100500D01*
X5698214Y-12100500D01*
X5669643Y-12114786D01*
X5655357Y-12129071D01*
X5641071Y-12157643D01*
X6169643Y-12286214D02*
X6169643Y-11986214D01*
X6298214Y-12286214D02*
X6298214Y-12129071D01*
X6283928Y-12100500D01*
X6255357Y-12086214D01*
X6212500Y-12086214D01*
X6183928Y-12100500D01*
X6169643Y-12114786D01*
X6483928Y-12286214D02*
X6455357Y-12271929D01*
X6441071Y-12257643D01*
X6426786Y-12229071D01*
X6426786Y-12143357D01*
X6441071Y-12114786D01*
X6455357Y-12100500D01*
X6483928Y-12086214D01*
X6526786Y-12086214D01*
X6555357Y-12100500D01*
X6569643Y-12114786D01*
X6583928Y-12143357D01*
X6583928Y-12229071D01*
X6569643Y-12257643D01*
X6555357Y-12271929D01*
X6526786Y-12286214D01*
X6483928Y-12286214D01*
X6755357Y-12286214D02*
X6726786Y-12271929D01*
X6712500Y-12243357D01*
X6712500Y-11986214D01*
X6983928Y-12271929D02*
X6955357Y-12286214D01*
X6898214Y-12286214D01*
X6869643Y-12271929D01*
X6855357Y-12243357D01*
X6855357Y-12129071D01*
X6869643Y-12100500D01*
X6898214Y-12086214D01*
X6955357Y-12086214D01*
X6983928Y-12100500D01*
X6998214Y-12129071D01*
X6998214Y-12157643D01*
X6855357Y-12186214D01*
X7112500Y-12271929D02*
X7141071Y-12286214D01*
X7198214Y-12286214D01*
X7226786Y-12271929D01*
X7241071Y-12243357D01*
X7241071Y-12229071D01*
X7226786Y-12200500D01*
X7198214Y-12186214D01*
X7155357Y-12186214D01*
X7126786Y-12171929D01*
X7112500Y-12143357D01*
X7112500Y-12129071D01*
X7126786Y-12100500D01*
X7155357Y-12086214D01*
X7198214Y-12086214D01*
X7226786Y-12100500D01*
X7341071Y-12400500D02*
X7355357Y-12386214D01*
X7383928Y-12343357D01*
X7398214Y-12314786D01*
X7412500Y-12271929D01*
X7426786Y-12200500D01*
X7426786Y-12143357D01*
X7412500Y-12071929D01*
X7398214Y-12029071D01*
X7383928Y-12000500D01*
X7355357Y-11957643D01*
X7341071Y-11943357D01*
X-77500Y-12621500D02*
X-2500Y-12546500D01*
X-77500Y-12471500D01*
X-152500Y-12546500D01*
X-77500Y-12621500D01*
X441071Y-12682214D02*
X269643Y-12682214D01*
X355357Y-12682214D02*
X355357Y-12382214D01*
X326786Y-12425071D01*
X298214Y-12453643D01*
X269643Y-12467929D01*
X569643Y-12653643D02*
X583928Y-12667929D01*
X569643Y-12682214D01*
X555357Y-12667929D01*
X569643Y-12653643D01*
X569643Y-12682214D01*
X855357Y-12382214D02*
X712500Y-12382214D01*
X698214Y-12525071D01*
X712500Y-12510786D01*
X741071Y-12496500D01*
X812500Y-12496500D01*
X841071Y-12510786D01*
X855357Y-12525071D01*
X869643Y-12553643D01*
X869643Y-12625071D01*
X855357Y-12653643D01*
X841071Y-12667929D01*
X812500Y-12682214D01*
X741071Y-12682214D01*
X712500Y-12667929D01*
X698214Y-12653643D01*
X1055357Y-12382214D02*
X1083928Y-12382214D01*
X1112500Y-12396500D01*
X1126786Y-12410786D01*
X1141071Y-12439357D01*
X1155357Y-12496500D01*
X1155357Y-12567929D01*
X1141071Y-12625071D01*
X1126786Y-12653643D01*
X1112500Y-12667929D01*
X1083928Y-12682214D01*
X1055357Y-12682214D01*
X1026786Y-12667929D01*
X1012500Y-12653643D01*
X998214Y-12625071D01*
X983928Y-12567929D01*
X983928Y-12496500D01*
X998214Y-12439357D01*
X1012500Y-12410786D01*
X1026786Y-12396500D01*
X1055357Y-12382214D01*
X1341071Y-12382214D02*
X1369643Y-12382214D01*
X1398214Y-12396500D01*
X1412500Y-12410786D01*
X1426786Y-12439357D01*
X1441071Y-12496500D01*
X1441071Y-12567929D01*
X1426786Y-12625071D01*
X1412500Y-12653643D01*
X1398214Y-12667929D01*
X1369643Y-12682214D01*
X1341071Y-12682214D01*
X1312500Y-12667929D01*
X1298214Y-12653643D01*
X1283928Y-12625071D01*
X1269643Y-12567929D01*
X1269643Y-12496500D01*
X1283928Y-12439357D01*
X1298214Y-12410786D01*
X1312500Y-12396500D01*
X1341071Y-12382214D01*
X1569643Y-12682214D02*
X1569643Y-12482214D01*
X1569643Y-12510786D02*
X1583928Y-12496500D01*
X1612500Y-12482214D01*
X1655357Y-12482214D01*
X1683928Y-12496500D01*
X1698214Y-12525071D01*
X1698214Y-12682214D01*
X1698214Y-12525071D02*
X1712500Y-12496500D01*
X1741071Y-12482214D01*
X1783928Y-12482214D01*
X1812500Y-12496500D01*
X1826786Y-12525071D01*
X1826786Y-12682214D01*
X1969643Y-12682214D02*
X1969643Y-12482214D01*
X1969643Y-12510786D02*
X1983928Y-12496500D01*
X2012500Y-12482214D01*
X2055357Y-12482214D01*
X2083928Y-12496500D01*
X2098214Y-12525071D01*
X2098214Y-12682214D01*
X2098214Y-12525071D02*
X2112500Y-12496500D01*
X2141071Y-12482214D01*
X2183928Y-12482214D01*
X2212500Y-12496500D01*
X2226786Y-12525071D01*
X2226786Y-12682214D01*
X2812500Y-12367929D02*
X2555357Y-12753643D01*
X3198214Y-12382214D02*
X3226786Y-12382214D01*
X3255357Y-12396500D01*
X3269643Y-12410786D01*
X3283928Y-12439357D01*
X3298214Y-12496500D01*
X3298214Y-12567929D01*
X3283928Y-12625071D01*
X3269643Y-12653643D01*
X3255357Y-12667929D01*
X3226786Y-12682214D01*
X3198214Y-12682214D01*
X3169643Y-12667929D01*
X3155357Y-12653643D01*
X3141071Y-12625071D01*
X3126786Y-12567929D01*
X3126786Y-12496500D01*
X3141071Y-12439357D01*
X3155357Y-12410786D01*
X3169643Y-12396500D01*
X3198214Y-12382214D01*
X3426786Y-12653643D02*
X3441071Y-12667929D01*
X3426786Y-12682214D01*
X3412500Y-12667929D01*
X3426786Y-12653643D01*
X3426786Y-12682214D01*
X3626786Y-12382214D02*
X3655357Y-12382214D01*
X3683928Y-12396500D01*
X3698214Y-12410786D01*
X3712500Y-12439357D01*
X3726786Y-12496500D01*
X3726786Y-12567929D01*
X3712500Y-12625071D01*
X3698214Y-12653643D01*
X3683928Y-12667929D01*
X3655357Y-12682214D01*
X3626786Y-12682214D01*
X3598214Y-12667929D01*
X3583928Y-12653643D01*
X3569643Y-12625071D01*
X3555357Y-12567929D01*
X3555357Y-12496500D01*
X3569643Y-12439357D01*
X3583928Y-12410786D01*
X3598214Y-12396500D01*
X3626786Y-12382214D01*
X3998214Y-12382214D02*
X3855357Y-12382214D01*
X3841071Y-12525071D01*
X3855357Y-12510786D01*
X3883928Y-12496500D01*
X3955357Y-12496500D01*
X3983928Y-12510786D01*
X3998214Y-12525071D01*
X4012500Y-12553643D01*
X4012500Y-12625071D01*
X3998214Y-12653643D01*
X3983928Y-12667929D01*
X3955357Y-12682214D01*
X3883928Y-12682214D01*
X3855357Y-12667929D01*
X3841071Y-12653643D01*
X4155357Y-12682214D02*
X4212500Y-12682214D01*
X4241071Y-12667929D01*
X4255357Y-12653643D01*
X4283928Y-12610786D01*
X4298214Y-12553643D01*
X4298214Y-12439357D01*
X4283928Y-12410786D01*
X4269643Y-12396500D01*
X4241071Y-12382214D01*
X4183928Y-12382214D01*
X4155357Y-12396500D01*
X4141071Y-12410786D01*
X4126786Y-12439357D01*
X4126786Y-12510786D01*
X4141071Y-12539357D01*
X4155357Y-12553643D01*
X4183928Y-12567929D01*
X4241071Y-12567929D01*
X4269643Y-12553643D01*
X4283928Y-12539357D01*
X4298214Y-12510786D01*
X4583928Y-12682214D02*
X4412500Y-12682214D01*
X4498214Y-12682214D02*
X4498214Y-12382214D01*
X4469643Y-12425071D01*
X4441071Y-12453643D01*
X4412500Y-12467929D01*
X4698214Y-12382214D02*
X4698214Y-12439357D01*
X4812500Y-12382214D02*
X4812500Y-12439357D01*
X5255357Y-12796500D02*
X5241071Y-12782214D01*
X5212500Y-12739357D01*
X5198214Y-12710786D01*
X5183928Y-12667929D01*
X5169643Y-12596500D01*
X5169643Y-12539357D01*
X5183928Y-12467929D01*
X5198214Y-12425071D01*
X5212500Y-12396500D01*
X5241071Y-12353643D01*
X5255357Y-12339357D01*
X5426786Y-12382214D02*
X5455357Y-12382214D01*
X5483928Y-12396500D01*
X5498214Y-12410786D01*
X5512500Y-12439357D01*
X5526786Y-12496500D01*
X5526786Y-12567929D01*
X5512500Y-12625071D01*
X5498214Y-12653643D01*
X5483928Y-12667929D01*
X5455357Y-12682214D01*
X5426786Y-12682214D01*
X5398214Y-12667929D01*
X5383928Y-12653643D01*
X5369643Y-12625071D01*
X5355357Y-12567929D01*
X5355357Y-12496500D01*
X5369643Y-12439357D01*
X5383928Y-12410786D01*
X5398214Y-12396500D01*
X5426786Y-12382214D01*
X5883928Y-12682214D02*
X5883928Y-12382214D01*
X6012500Y-12682214D02*
X6012500Y-12525071D01*
X5998214Y-12496500D01*
X5969643Y-12482214D01*
X5926786Y-12482214D01*
X5898214Y-12496500D01*
X5883928Y-12510786D01*
X6198214Y-12682214D02*
X6169643Y-12667929D01*
X6155357Y-12653643D01*
X6141071Y-12625071D01*
X6141071Y-12539357D01*
X6155357Y-12510786D01*
X6169643Y-12496500D01*
X6198214Y-12482214D01*
X6241071Y-12482214D01*
X6269643Y-12496500D01*
X6283928Y-12510786D01*
X6298214Y-12539357D01*
X6298214Y-12625071D01*
X6283928Y-12653643D01*
X6269643Y-12667929D01*
X6241071Y-12682214D01*
X6198214Y-12682214D01*
X6469643Y-12682214D02*
X6441071Y-12667929D01*
X6426786Y-12639357D01*
X6426786Y-12382214D01*
X6698214Y-12667929D02*
X6669643Y-12682214D01*
X6612500Y-12682214D01*
X6583928Y-12667929D01*
X6569643Y-12639357D01*
X6569643Y-12525071D01*
X6583928Y-12496500D01*
X6612500Y-12482214D01*
X6669643Y-12482214D01*
X6698214Y-12496500D01*
X6712500Y-12525071D01*
X6712500Y-12553643D01*
X6569643Y-12582214D01*
X6826786Y-12667929D02*
X6855357Y-12682214D01*
X6912500Y-12682214D01*
X6941071Y-12667929D01*
X6955357Y-12639357D01*
X6955357Y-12625071D01*
X6941071Y-12596500D01*
X6912500Y-12582214D01*
X6869643Y-12582214D01*
X6841071Y-12567929D01*
X6826786Y-12539357D01*
X6826786Y-12525071D01*
X6841071Y-12496500D01*
X6869643Y-12482214D01*
X6912500Y-12482214D01*
X6941071Y-12496500D01*
X7312500Y-12567929D02*
X7541071Y-12567929D01*
X7426786Y-12682214D02*
X7426786Y-12453643D01*
X8041071Y-12382214D02*
X7983928Y-12382214D01*
X7955357Y-12396500D01*
X7941071Y-12410786D01*
X7912500Y-12453643D01*
X7898214Y-12510786D01*
X7898214Y-12625071D01*
X7912500Y-12653643D01*
X7926786Y-12667929D01*
X7955357Y-12682214D01*
X8012500Y-12682214D01*
X8041071Y-12667929D01*
X8055357Y-12653643D01*
X8069643Y-12625071D01*
X8069643Y-12553643D01*
X8055357Y-12525071D01*
X8041071Y-12510786D01*
X8012500Y-12496500D01*
X7955357Y-12496500D01*
X7926786Y-12510786D01*
X7912500Y-12525071D01*
X7898214Y-12553643D01*
X8412500Y-12667929D02*
X8441071Y-12682214D01*
X8498214Y-12682214D01*
X8526786Y-12667929D01*
X8541071Y-12639357D01*
X8541071Y-12625071D01*
X8526786Y-12596500D01*
X8498214Y-12582214D01*
X8455357Y-12582214D01*
X8426786Y-12567929D01*
X8412500Y-12539357D01*
X8412500Y-12525071D01*
X8426786Y-12496500D01*
X8455357Y-12482214D01*
X8498214Y-12482214D01*
X8526786Y-12496500D01*
X8712500Y-12682214D02*
X8683928Y-12667929D01*
X8669643Y-12639357D01*
X8669643Y-12382214D01*
X8869643Y-12682214D02*
X8841071Y-12667929D01*
X8826786Y-12653643D01*
X8812500Y-12625071D01*
X8812500Y-12539357D01*
X8826786Y-12510786D01*
X8841071Y-12496500D01*
X8869643Y-12482214D01*
X8912500Y-12482214D01*
X8941071Y-12496500D01*
X8955357Y-12510786D01*
X8969643Y-12539357D01*
X8969643Y-12625071D01*
X8955357Y-12653643D01*
X8941071Y-12667929D01*
X8912500Y-12682214D01*
X8869643Y-12682214D01*
X9055357Y-12482214D02*
X9169643Y-12482214D01*
X9098214Y-12382214D02*
X9098214Y-12639357D01*
X9112500Y-12667929D01*
X9141071Y-12682214D01*
X9169643Y-12682214D01*
X9255357Y-12667929D02*
X9283928Y-12682214D01*
X9341071Y-12682214D01*
X9369643Y-12667929D01*
X9383928Y-12639357D01*
X9383928Y-12625071D01*
X9369643Y-12596500D01*
X9341071Y-12582214D01*
X9298214Y-12582214D01*
X9269643Y-12567929D01*
X9255357Y-12539357D01*
X9255357Y-12525071D01*
X9269643Y-12496500D01*
X9298214Y-12482214D01*
X9341071Y-12482214D01*
X9369643Y-12496500D01*
X9483928Y-12796500D02*
X9498214Y-12782214D01*
X9526786Y-12739357D01*
X9541071Y-12710786D01*
X9555357Y-12667929D01*
X9569643Y-12596500D01*
X9569643Y-12539357D01*
X9555357Y-12467929D01*
X9541071Y-12425071D01*
X9526786Y-12396500D01*
X9498214Y-12353643D01*
X9483928Y-12339357D01*
M02*
