G04 #@! TF.GenerationSoftware,KiCad,Pcbnew,5.99.0+really5.1.10+dfsg1-1*
G04 #@! TF.CreationDate,2021-05-18T01:02:48-04:00*
G04 #@! TF.ProjectId,numpad_0,6e756d70-6164-45f3-902e-6b696361645f,rev?*
G04 #@! TF.SameCoordinates,Original*
G04 #@! TF.FileFunction,Legend,Bot*
G04 #@! TF.FilePolarity,Positive*
%FSLAX46Y46*%
G04 Gerber Fmt 4.6, Leading zero omitted, Abs format (unit mm)*
G04 Created by KiCad (PCBNEW 5.99.0+really5.1.10+dfsg1-1) date 2021-05-18 01:02:48*
%MOMM*%
%LPD*%
G01*
G04 APERTURE LIST*
%ADD10C,0.381000*%
%ADD11C,0.150000*%
%ADD12C,2.200000*%
%ADD13C,2.250000*%
%ADD14C,3.987800*%
%ADD15C,1.750000*%
%ADD16C,1.752600*%
%ADD17C,3.048000*%
%ADD18C,2.000000*%
%ADD19R,3.200000X2.000000*%
%ADD20R,2.000000X2.000000*%
%ADD21C,1.600000*%
%ADD22R,1.200000X1.600000*%
G04 APERTURE END LIST*
D10*
X4508500Y-5080000D02*
X1968500Y-5080000D01*
X4508500Y-2540000D02*
X4508500Y-5080000D01*
D11*
G36*
X16903135Y-8829030D02*
G01*
X16903135Y-8929030D01*
X17003135Y-8929030D01*
X17003135Y-8829030D01*
X16903135Y-8829030D01*
G37*
X16903135Y-8829030D02*
X16903135Y-8929030D01*
X17003135Y-8929030D01*
X17003135Y-8829030D01*
X16903135Y-8829030D01*
G36*
X17103135Y-8429030D02*
G01*
X17103135Y-9229030D01*
X17203135Y-9229030D01*
X17203135Y-8429030D01*
X17103135Y-8429030D01*
G37*
X17103135Y-8429030D02*
X17103135Y-9229030D01*
X17203135Y-9229030D01*
X17203135Y-8429030D01*
X17103135Y-8429030D01*
G36*
X16703135Y-9029030D02*
G01*
X16703135Y-9229030D01*
X16803135Y-9229030D01*
X16803135Y-9029030D01*
X16703135Y-9029030D01*
G37*
X16703135Y-9029030D02*
X16703135Y-9229030D01*
X16803135Y-9229030D01*
X16803135Y-9029030D01*
X16703135Y-9029030D01*
G36*
X16703135Y-8429030D02*
G01*
X16703135Y-8729030D01*
X16803135Y-8729030D01*
X16803135Y-8429030D01*
X16703135Y-8429030D01*
G37*
X16703135Y-8429030D02*
X16703135Y-8729030D01*
X16803135Y-8729030D01*
X16803135Y-8429030D01*
X16703135Y-8429030D01*
G36*
X16703135Y-8429030D02*
G01*
X16703135Y-8529030D01*
X17203135Y-8529030D01*
X17203135Y-8429030D01*
X16703135Y-8429030D01*
G37*
X16703135Y-8429030D02*
X16703135Y-8529030D01*
X17203135Y-8529030D01*
X17203135Y-8429030D01*
X16703135Y-8429030D01*
D10*
X19748500Y-33020000D02*
X19748500Y0D01*
X1968500Y-33020000D02*
X19748500Y-33020000D01*
X1968500Y0D02*
X1968500Y-33020000D01*
X19748500Y0D02*
X1968500Y0D01*
X4508500Y-2540000D02*
X1968500Y-2540000D01*
D11*
X16431833Y-9193809D02*
X16317547Y-9231904D01*
X16127071Y-9231904D01*
X16050880Y-9193809D01*
X16012785Y-9155714D01*
X15974690Y-9079523D01*
X15974690Y-9003333D01*
X16012785Y-8927142D01*
X16050880Y-8889047D01*
X16127071Y-8850952D01*
X16279452Y-8812857D01*
X16355642Y-8774761D01*
X16393738Y-8736666D01*
X16431833Y-8660476D01*
X16431833Y-8584285D01*
X16393738Y-8508095D01*
X16355642Y-8470000D01*
X16279452Y-8431904D01*
X16088976Y-8431904D01*
X15974690Y-8470000D01*
X15746119Y-8431904D02*
X15288976Y-8431904D01*
X15517547Y-9231904D02*
X15517547Y-8431904D01*
X9477104Y-3371904D02*
X9019961Y-3371904D01*
X9248532Y-4171904D02*
X9248532Y-3371904D01*
X8829485Y-3371904D02*
X8296151Y-4171904D01*
X8296151Y-3371904D02*
X8829485Y-4171904D01*
X7839008Y-3371904D02*
X7762818Y-3371904D01*
X7686628Y-3410000D01*
X7648532Y-3448095D01*
X7610437Y-3524285D01*
X7572342Y-3676666D01*
X7572342Y-3867142D01*
X7610437Y-4019523D01*
X7648532Y-4095714D01*
X7686628Y-4133809D01*
X7762818Y-4171904D01*
X7839008Y-4171904D01*
X7915199Y-4133809D01*
X7953294Y-4095714D01*
X7991389Y-4019523D01*
X8029485Y-3867142D01*
X8029485Y-3676666D01*
X7991389Y-3524285D01*
X7953294Y-3448095D01*
X7915199Y-3410000D01*
X7839008Y-3371904D01*
X6658056Y-3333809D02*
X7343770Y-4362380D01*
X6391389Y-4171904D02*
X6391389Y-3371904D01*
X6200913Y-3371904D01*
X6086628Y-3410000D01*
X6010437Y-3486190D01*
X5972342Y-3562380D01*
X5934247Y-3714761D01*
X5934247Y-3829047D01*
X5972342Y-3981428D01*
X6010437Y-4057619D01*
X6086628Y-4133809D01*
X6200913Y-4171904D01*
X6391389Y-4171904D01*
X5667580Y-3371904D02*
X5172342Y-3371904D01*
X5439008Y-3676666D01*
X5324723Y-3676666D01*
X5248532Y-3714761D01*
X5210437Y-3752857D01*
X5172342Y-3829047D01*
X5172342Y-4019523D01*
X5210437Y-4095714D01*
X5248532Y-4133809D01*
X5324723Y-4171904D01*
X5553294Y-4171904D01*
X5629485Y-4133809D01*
X5667580Y-4095714D01*
X16643309Y-29152857D02*
X16529023Y-29190952D01*
X16490928Y-29229047D01*
X16452833Y-29305238D01*
X16452833Y-29419523D01*
X16490928Y-29495714D01*
X16529023Y-29533809D01*
X16605214Y-29571904D01*
X16909976Y-29571904D01*
X16909976Y-28771904D01*
X16643309Y-28771904D01*
X16567119Y-28810000D01*
X16529023Y-28848095D01*
X16490928Y-28924285D01*
X16490928Y-29000476D01*
X16529023Y-29076666D01*
X16567119Y-29114761D01*
X16643309Y-29152857D01*
X16909976Y-29152857D01*
X16148071Y-28848095D02*
X16109976Y-28810000D01*
X16033785Y-28771904D01*
X15843309Y-28771904D01*
X15767119Y-28810000D01*
X15729023Y-28848095D01*
X15690928Y-28924285D01*
X15690928Y-29000476D01*
X15729023Y-29114761D01*
X16186166Y-29571904D01*
X15690928Y-29571904D01*
X16586166Y-21532857D02*
X16852833Y-21532857D01*
X16852833Y-21951904D02*
X16852833Y-21151904D01*
X16471880Y-21151904D01*
X16243309Y-21151904D02*
X15709976Y-21151904D01*
X16052833Y-21951904D01*
X16586166Y-18992857D02*
X16852833Y-18992857D01*
X16852833Y-19411904D02*
X16852833Y-18611904D01*
X16471880Y-18611904D01*
X15824261Y-18611904D02*
X15976642Y-18611904D01*
X16052833Y-18650000D01*
X16090928Y-18688095D01*
X16167119Y-18802380D01*
X16205214Y-18954761D01*
X16205214Y-19259523D01*
X16167119Y-19335714D01*
X16129023Y-19373809D01*
X16052833Y-19411904D01*
X15900452Y-19411904D01*
X15824261Y-19373809D01*
X15786166Y-19335714D01*
X15748071Y-19259523D01*
X15748071Y-19069047D01*
X15786166Y-18992857D01*
X15824261Y-18954761D01*
X15900452Y-18916666D01*
X16052833Y-18916666D01*
X16129023Y-18954761D01*
X16167119Y-18992857D01*
X16205214Y-19069047D01*
X16586166Y-16452857D02*
X16852833Y-16452857D01*
X16852833Y-16871904D02*
X16852833Y-16071904D01*
X16471880Y-16071904D01*
X15786166Y-16071904D02*
X16167119Y-16071904D01*
X16205214Y-16452857D01*
X16167119Y-16414761D01*
X16090928Y-16376666D01*
X15900452Y-16376666D01*
X15824261Y-16414761D01*
X15786166Y-16452857D01*
X15748071Y-16529047D01*
X15748071Y-16719523D01*
X15786166Y-16795714D01*
X15824261Y-16833809D01*
X15900452Y-16871904D01*
X16090928Y-16871904D01*
X16167119Y-16833809D01*
X16205214Y-16795714D01*
X16871880Y-4171904D02*
X17138547Y-3790952D01*
X17329023Y-4171904D02*
X17329023Y-3371904D01*
X17024261Y-3371904D01*
X16948071Y-3410000D01*
X16909976Y-3448095D01*
X16871880Y-3524285D01*
X16871880Y-3638571D01*
X16909976Y-3714761D01*
X16948071Y-3752857D01*
X17024261Y-3790952D01*
X17329023Y-3790952D01*
X16567119Y-3943333D02*
X16186166Y-3943333D01*
X16643309Y-4171904D02*
X16376642Y-3371904D01*
X16109976Y-4171904D01*
X15919500Y-3371904D02*
X15729023Y-4171904D01*
X15576642Y-3600476D01*
X15424261Y-4171904D01*
X15233785Y-3371904D01*
X16929023Y-5950000D02*
X17005214Y-5911904D01*
X17119500Y-5911904D01*
X17233785Y-5950000D01*
X17309976Y-6026190D01*
X17348071Y-6102380D01*
X17386166Y-6254761D01*
X17386166Y-6369047D01*
X17348071Y-6521428D01*
X17309976Y-6597619D01*
X17233785Y-6673809D01*
X17119500Y-6711904D01*
X17043309Y-6711904D01*
X16929023Y-6673809D01*
X16890928Y-6635714D01*
X16890928Y-6369047D01*
X17043309Y-6369047D01*
X16548071Y-6711904D02*
X16548071Y-5911904D01*
X16090928Y-6711904D01*
X16090928Y-5911904D01*
X15709976Y-6711904D02*
X15709976Y-5911904D01*
X15519500Y-5911904D01*
X15405214Y-5950000D01*
X15329023Y-6026190D01*
X15290928Y-6102380D01*
X15252833Y-6254761D01*
X15252833Y-6369047D01*
X15290928Y-6521428D01*
X15329023Y-6597619D01*
X15405214Y-6673809D01*
X15519500Y-6711904D01*
X15709976Y-6711904D01*
X17386166Y-10991904D02*
X17119500Y-11791904D01*
X16852833Y-10991904D01*
X16129023Y-11715714D02*
X16167119Y-11753809D01*
X16281404Y-11791904D01*
X16357595Y-11791904D01*
X16471880Y-11753809D01*
X16548071Y-11677619D01*
X16586166Y-11601428D01*
X16624261Y-11449047D01*
X16624261Y-11334761D01*
X16586166Y-11182380D01*
X16548071Y-11106190D01*
X16471880Y-11030000D01*
X16357595Y-10991904D01*
X16281404Y-10991904D01*
X16167119Y-11030000D01*
X16129023Y-11068095D01*
X15329023Y-11715714D02*
X15367119Y-11753809D01*
X15481404Y-11791904D01*
X15557595Y-11791904D01*
X15671880Y-11753809D01*
X15748071Y-11677619D01*
X15786166Y-11601428D01*
X15824261Y-11449047D01*
X15824261Y-11334761D01*
X15786166Y-11182380D01*
X15748071Y-11106190D01*
X15671880Y-11030000D01*
X15557595Y-10991904D01*
X15481404Y-10991904D01*
X15367119Y-11030000D01*
X15329023Y-11068095D01*
X16586166Y-13912857D02*
X16852833Y-13912857D01*
X16852833Y-14331904D02*
X16852833Y-13531904D01*
X16471880Y-13531904D01*
X15824261Y-13798571D02*
X15824261Y-14331904D01*
X16014738Y-13493809D02*
X16205214Y-14065238D01*
X15709976Y-14065238D01*
X16643309Y-24072857D02*
X16529023Y-24110952D01*
X16490928Y-24149047D01*
X16452833Y-24225238D01*
X16452833Y-24339523D01*
X16490928Y-24415714D01*
X16529023Y-24453809D01*
X16605214Y-24491904D01*
X16909976Y-24491904D01*
X16909976Y-23691904D01*
X16643309Y-23691904D01*
X16567119Y-23730000D01*
X16529023Y-23768095D01*
X16490928Y-23844285D01*
X16490928Y-23920476D01*
X16529023Y-23996666D01*
X16567119Y-24034761D01*
X16643309Y-24072857D01*
X16909976Y-24072857D01*
X15690928Y-24491904D02*
X16148071Y-24491904D01*
X15919500Y-24491904D02*
X15919500Y-23691904D01*
X15995690Y-23806190D01*
X16071880Y-23882380D01*
X16148071Y-23920476D01*
X16643309Y-26612857D02*
X16529023Y-26650952D01*
X16490928Y-26689047D01*
X16452833Y-26765238D01*
X16452833Y-26879523D01*
X16490928Y-26955714D01*
X16529023Y-26993809D01*
X16605214Y-27031904D01*
X16909976Y-27031904D01*
X16909976Y-26231904D01*
X16643309Y-26231904D01*
X16567119Y-26270000D01*
X16529023Y-26308095D01*
X16490928Y-26384285D01*
X16490928Y-26460476D01*
X16529023Y-26536666D01*
X16567119Y-26574761D01*
X16643309Y-26612857D01*
X16909976Y-26612857D01*
X16186166Y-26231904D02*
X15690928Y-26231904D01*
X15957595Y-26536666D01*
X15843309Y-26536666D01*
X15767119Y-26574761D01*
X15729023Y-26612857D01*
X15690928Y-26689047D01*
X15690928Y-26879523D01*
X15729023Y-26955714D01*
X15767119Y-26993809D01*
X15843309Y-27031904D01*
X16071880Y-27031904D01*
X16148071Y-26993809D01*
X16186166Y-26955714D01*
X16643309Y-31692857D02*
X16529023Y-31730952D01*
X16490928Y-31769047D01*
X16452833Y-31845238D01*
X16452833Y-31959523D01*
X16490928Y-32035714D01*
X16529023Y-32073809D01*
X16605214Y-32111904D01*
X16909976Y-32111904D01*
X16909976Y-31311904D01*
X16643309Y-31311904D01*
X16567119Y-31350000D01*
X16529023Y-31388095D01*
X16490928Y-31464285D01*
X16490928Y-31540476D01*
X16529023Y-31616666D01*
X16567119Y-31654761D01*
X16643309Y-31692857D01*
X16909976Y-31692857D01*
X15767119Y-31311904D02*
X15919500Y-31311904D01*
X15995690Y-31350000D01*
X16033785Y-31388095D01*
X16109976Y-31502380D01*
X16148071Y-31654761D01*
X16148071Y-31959523D01*
X16109976Y-32035714D01*
X16071880Y-32073809D01*
X15995690Y-32111904D01*
X15843309Y-32111904D01*
X15767119Y-32073809D01*
X15729023Y-32035714D01*
X15690928Y-31959523D01*
X15690928Y-31769047D01*
X15729023Y-31692857D01*
X15767119Y-31654761D01*
X15843309Y-31616666D01*
X15995690Y-31616666D01*
X16071880Y-31654761D01*
X16109976Y-31692857D01*
X16148071Y-31769047D01*
X5721309Y-31692857D02*
X5607023Y-31730952D01*
X5568928Y-31769047D01*
X5530833Y-31845238D01*
X5530833Y-31959523D01*
X5568928Y-32035714D01*
X5607023Y-32073809D01*
X5683214Y-32111904D01*
X5987976Y-32111904D01*
X5987976Y-31311904D01*
X5721309Y-31311904D01*
X5645119Y-31350000D01*
X5607023Y-31388095D01*
X5568928Y-31464285D01*
X5568928Y-31540476D01*
X5607023Y-31616666D01*
X5645119Y-31654761D01*
X5721309Y-31692857D01*
X5987976Y-31692857D01*
X4807023Y-31311904D02*
X5187976Y-31311904D01*
X5226071Y-31692857D01*
X5187976Y-31654761D01*
X5111785Y-31616666D01*
X4921309Y-31616666D01*
X4845119Y-31654761D01*
X4807023Y-31692857D01*
X4768928Y-31769047D01*
X4768928Y-31959523D01*
X4807023Y-32035714D01*
X4845119Y-32073809D01*
X4921309Y-32111904D01*
X5111785Y-32111904D01*
X5187976Y-32073809D01*
X5226071Y-32035714D01*
X5721309Y-29152857D02*
X5607023Y-29190952D01*
X5568928Y-29229047D01*
X5530833Y-29305238D01*
X5530833Y-29419523D01*
X5568928Y-29495714D01*
X5607023Y-29533809D01*
X5683214Y-29571904D01*
X5987976Y-29571904D01*
X5987976Y-28771904D01*
X5721309Y-28771904D01*
X5645119Y-28810000D01*
X5607023Y-28848095D01*
X5568928Y-28924285D01*
X5568928Y-29000476D01*
X5607023Y-29076666D01*
X5645119Y-29114761D01*
X5721309Y-29152857D01*
X5987976Y-29152857D01*
X4845119Y-29038571D02*
X4845119Y-29571904D01*
X5035595Y-28733809D02*
X5226071Y-29305238D01*
X4730833Y-29305238D01*
X5949880Y-26612857D02*
X5683214Y-26612857D01*
X5568928Y-27031904D02*
X5949880Y-27031904D01*
X5949880Y-26231904D01*
X5568928Y-26231904D01*
X4883214Y-26231904D02*
X5035595Y-26231904D01*
X5111785Y-26270000D01*
X5149880Y-26308095D01*
X5226071Y-26422380D01*
X5264166Y-26574761D01*
X5264166Y-26879523D01*
X5226071Y-26955714D01*
X5187976Y-26993809D01*
X5111785Y-27031904D01*
X4959404Y-27031904D01*
X4883214Y-26993809D01*
X4845119Y-26955714D01*
X4807023Y-26879523D01*
X4807023Y-26689047D01*
X4845119Y-26612857D01*
X4883214Y-26574761D01*
X4959404Y-26536666D01*
X5111785Y-26536666D01*
X5187976Y-26574761D01*
X5226071Y-26612857D01*
X5264166Y-26689047D01*
X5987976Y-24491904D02*
X5987976Y-23691904D01*
X5797500Y-23691904D01*
X5683214Y-23730000D01*
X5607023Y-23806190D01*
X5568928Y-23882380D01*
X5530833Y-24034761D01*
X5530833Y-24149047D01*
X5568928Y-24301428D01*
X5607023Y-24377619D01*
X5683214Y-24453809D01*
X5797500Y-24491904D01*
X5987976Y-24491904D01*
X5264166Y-23691904D02*
X4730833Y-23691904D01*
X5073690Y-24491904D01*
X5530833Y-21875714D02*
X5568928Y-21913809D01*
X5683214Y-21951904D01*
X5759404Y-21951904D01*
X5873690Y-21913809D01*
X5949880Y-21837619D01*
X5987976Y-21761428D01*
X6026071Y-21609047D01*
X6026071Y-21494761D01*
X5987976Y-21342380D01*
X5949880Y-21266190D01*
X5873690Y-21190000D01*
X5759404Y-21151904D01*
X5683214Y-21151904D01*
X5568928Y-21190000D01*
X5530833Y-21228095D01*
X4845119Y-21151904D02*
X4997500Y-21151904D01*
X5073690Y-21190000D01*
X5111785Y-21228095D01*
X5187976Y-21342380D01*
X5226071Y-21494761D01*
X5226071Y-21799523D01*
X5187976Y-21875714D01*
X5149880Y-21913809D01*
X5073690Y-21951904D01*
X4921309Y-21951904D01*
X4845119Y-21913809D01*
X4807023Y-21875714D01*
X4768928Y-21799523D01*
X4768928Y-21609047D01*
X4807023Y-21532857D01*
X4845119Y-21494761D01*
X4921309Y-21456666D01*
X5073690Y-21456666D01*
X5149880Y-21494761D01*
X5187976Y-21532857D01*
X5226071Y-21609047D01*
X5987976Y-19411904D02*
X5987976Y-18611904D01*
X5797500Y-18611904D01*
X5683214Y-18650000D01*
X5607023Y-18726190D01*
X5568928Y-18802380D01*
X5530833Y-18954761D01*
X5530833Y-19069047D01*
X5568928Y-19221428D01*
X5607023Y-19297619D01*
X5683214Y-19373809D01*
X5797500Y-19411904D01*
X5987976Y-19411904D01*
X4845119Y-18878571D02*
X4845119Y-19411904D01*
X5035595Y-18573809D02*
X5226071Y-19145238D01*
X4730833Y-19145238D01*
X6007023Y-8490000D02*
X6083214Y-8451904D01*
X6197500Y-8451904D01*
X6311785Y-8490000D01*
X6387976Y-8566190D01*
X6426071Y-8642380D01*
X6464166Y-8794761D01*
X6464166Y-8909047D01*
X6426071Y-9061428D01*
X6387976Y-9137619D01*
X6311785Y-9213809D01*
X6197500Y-9251904D01*
X6121309Y-9251904D01*
X6007023Y-9213809D01*
X5968928Y-9175714D01*
X5968928Y-8909047D01*
X6121309Y-8909047D01*
X5626071Y-9251904D02*
X5626071Y-8451904D01*
X5168928Y-9251904D01*
X5168928Y-8451904D01*
X4787976Y-9251904D02*
X4787976Y-8451904D01*
X4597500Y-8451904D01*
X4483214Y-8490000D01*
X4407023Y-8566190D01*
X4368928Y-8642380D01*
X4330833Y-8794761D01*
X4330833Y-8909047D01*
X4368928Y-9061428D01*
X4407023Y-9137619D01*
X4483214Y-9213809D01*
X4597500Y-9251904D01*
X4787976Y-9251904D01*
X6007023Y-11030000D02*
X6083214Y-10991904D01*
X6197500Y-10991904D01*
X6311785Y-11030000D01*
X6387976Y-11106190D01*
X6426071Y-11182380D01*
X6464166Y-11334761D01*
X6464166Y-11449047D01*
X6426071Y-11601428D01*
X6387976Y-11677619D01*
X6311785Y-11753809D01*
X6197500Y-11791904D01*
X6121309Y-11791904D01*
X6007023Y-11753809D01*
X5968928Y-11715714D01*
X5968928Y-11449047D01*
X6121309Y-11449047D01*
X5626071Y-11791904D02*
X5626071Y-10991904D01*
X5168928Y-11791904D01*
X5168928Y-10991904D01*
X4787976Y-11791904D02*
X4787976Y-10991904D01*
X4597500Y-10991904D01*
X4483214Y-11030000D01*
X4407023Y-11106190D01*
X4368928Y-11182380D01*
X4330833Y-11334761D01*
X4330833Y-11449047D01*
X4368928Y-11601428D01*
X4407023Y-11677619D01*
X4483214Y-11753809D01*
X4597500Y-11791904D01*
X4787976Y-11791904D01*
X5987976Y-14331904D02*
X5987976Y-13531904D01*
X5797500Y-13531904D01*
X5683214Y-13570000D01*
X5607023Y-13646190D01*
X5568928Y-13722380D01*
X5530833Y-13874761D01*
X5530833Y-13989047D01*
X5568928Y-14141428D01*
X5607023Y-14217619D01*
X5683214Y-14293809D01*
X5797500Y-14331904D01*
X5987976Y-14331904D01*
X4768928Y-14331904D02*
X5226071Y-14331904D01*
X4997500Y-14331904D02*
X4997500Y-13531904D01*
X5073690Y-13646190D01*
X5149880Y-13722380D01*
X5226071Y-13760476D01*
X5987976Y-16871904D02*
X5987976Y-16071904D01*
X5797500Y-16071904D01*
X5683214Y-16110000D01*
X5607023Y-16186190D01*
X5568928Y-16262380D01*
X5530833Y-16414761D01*
X5530833Y-16529047D01*
X5568928Y-16681428D01*
X5607023Y-16757619D01*
X5683214Y-16833809D01*
X5797500Y-16871904D01*
X5987976Y-16871904D01*
X5035595Y-16071904D02*
X4959404Y-16071904D01*
X4883214Y-16110000D01*
X4845119Y-16148095D01*
X4807023Y-16224285D01*
X4768928Y-16376666D01*
X4768928Y-16567142D01*
X4807023Y-16719523D01*
X4845119Y-16795714D01*
X4883214Y-16833809D01*
X4959404Y-16871904D01*
X5035595Y-16871904D01*
X5111785Y-16833809D01*
X5149880Y-16795714D01*
X5187976Y-16719523D01*
X5226071Y-16567142D01*
X5226071Y-16376666D01*
X5187976Y-16224285D01*
X5149880Y-16148095D01*
X5111785Y-16110000D01*
X5035595Y-16071904D01*
X5987976Y-6711904D02*
X5987976Y-5911904D01*
X5797500Y-5911904D01*
X5683214Y-5950000D01*
X5607023Y-6026190D01*
X5568928Y-6102380D01*
X5530833Y-6254761D01*
X5530833Y-6369047D01*
X5568928Y-6521428D01*
X5607023Y-6597619D01*
X5683214Y-6673809D01*
X5797500Y-6711904D01*
X5987976Y-6711904D01*
X5226071Y-5988095D02*
X5187976Y-5950000D01*
X5111785Y-5911904D01*
X4921309Y-5911904D01*
X4845119Y-5950000D01*
X4807023Y-5988095D01*
X4768928Y-6064285D01*
X4768928Y-6140476D01*
X4807023Y-6254761D01*
X5264166Y-6711904D01*
X4768928Y-6711904D01*
%LPC*%
D12*
X98250000Y-1750000D03*
X98250000Y-98250000D03*
X1750000Y-98250000D03*
X1750000Y-1750000D03*
D13*
X34163000Y-6985000D03*
D14*
X31623000Y-12065000D03*
D13*
X27813000Y-9525000D03*
D15*
X26543000Y-12065000D03*
X36703000Y-12065000D03*
D16*
X18478500Y-3810000D03*
X3238500Y-31750000D03*
X18478500Y-6350000D03*
X18478500Y-8890000D03*
X18478500Y-11430000D03*
X18478500Y-13970000D03*
X18478500Y-16510000D03*
X18478500Y-19050000D03*
X18478500Y-21590000D03*
X18478500Y-24130000D03*
X18478500Y-26670000D03*
X18478500Y-29210000D03*
X18478500Y-31750000D03*
X3238500Y-29210000D03*
X3238500Y-26670000D03*
X3238500Y-24130000D03*
X3238500Y-21590000D03*
X3238500Y-19050000D03*
X3238500Y-16510000D03*
X3238500Y-13970000D03*
X3238500Y-11430000D03*
X3238500Y-8890000D03*
X3238500Y-6350000D03*
G36*
G01*
X2800350Y-2933700D02*
X3676650Y-2933700D01*
G75*
G02*
X4114800Y-3371850I0J-438150D01*
G01*
X4114800Y-4248150D01*
G75*
G02*
X3676650Y-4686300I-438150J0D01*
G01*
X2800350Y-4686300D01*
G75*
G02*
X2362200Y-4248150I0J438150D01*
G01*
X2362200Y-3371850D01*
G75*
G02*
X2800350Y-2933700I438150J0D01*
G01*
G37*
D13*
X72263000Y-26035000D03*
D14*
X69723000Y-31115000D03*
D13*
X65913000Y-28575000D03*
D15*
X64643000Y-31115000D03*
X74803000Y-31115000D03*
D13*
X53213000Y-26035000D03*
D14*
X50673000Y-31115000D03*
D13*
X46863000Y-28575000D03*
D15*
X45593000Y-31115000D03*
X55753000Y-31115000D03*
D13*
X83693000Y-76200000D03*
D14*
X88773000Y-78740000D03*
D13*
X86233000Y-82550000D03*
D15*
X88773000Y-83820000D03*
X88773000Y-73660000D03*
D17*
X81788000Y-90646250D03*
X81788000Y-66833750D03*
D14*
X97028000Y-90646250D03*
X97028000Y-66833750D03*
D13*
X83629500Y-38100000D03*
D14*
X88709500Y-40640000D03*
D13*
X86169500Y-44450000D03*
D15*
X88709500Y-45720000D03*
X88709500Y-35560000D03*
D17*
X81724500Y-52546250D03*
X81724500Y-28733750D03*
D14*
X96964500Y-52546250D03*
X96964500Y-28733750D03*
D13*
X43688000Y-83185000D03*
D14*
X41148000Y-88265000D03*
D13*
X37338000Y-85725000D03*
D15*
X36068000Y-88265000D03*
X46228000Y-88265000D03*
D17*
X29241750Y-81280000D03*
X53054250Y-81280000D03*
D14*
X29241750Y-96520000D03*
X53054250Y-96520000D03*
D18*
X18112500Y-90765000D03*
X18112500Y-85765000D03*
D19*
X11112500Y-93865000D03*
X11112500Y-82665000D03*
D18*
X3612500Y-90765000D03*
X3612500Y-88265000D03*
D20*
X3612500Y-85765000D03*
D18*
X18112500Y-66952500D03*
X18112500Y-61952500D03*
D19*
X11112500Y-70052500D03*
X11112500Y-58852500D03*
D18*
X3612500Y-66952500D03*
X3612500Y-64452500D03*
D20*
X3612500Y-61952500D03*
D18*
X18112500Y-43140000D03*
X18112500Y-38140000D03*
D19*
X11112500Y-46240000D03*
X11112500Y-35040000D03*
D18*
X3612500Y-43140000D03*
X3612500Y-40640000D03*
D20*
X3612500Y-38140000D03*
G36*
G01*
X17697500Y-78474500D02*
X18497500Y-78474500D01*
G75*
G02*
X18897500Y-78874500I0J-400000D01*
G01*
X18897500Y-79674500D01*
G75*
G02*
X18497500Y-80074500I-400000J0D01*
G01*
X17697500Y-80074500D01*
G75*
G02*
X17297500Y-79674500I0J400000D01*
G01*
X17297500Y-78874500D01*
G75*
G02*
X17697500Y-78474500I400000J0D01*
G01*
G37*
D21*
X18097500Y-71474500D03*
D22*
X18097500Y-76774500D03*
X18097500Y-73974500D03*
G36*
G01*
X17761000Y-54595500D02*
X18561000Y-54595500D01*
G75*
G02*
X18961000Y-54995500I0J-400000D01*
G01*
X18961000Y-55795500D01*
G75*
G02*
X18561000Y-56195500I-400000J0D01*
G01*
X17761000Y-56195500D01*
G75*
G02*
X17361000Y-55795500I0J400000D01*
G01*
X17361000Y-54995500D01*
G75*
G02*
X17761000Y-54595500I400000J0D01*
G01*
G37*
D21*
X18161000Y-47595500D03*
D22*
X18161000Y-52895500D03*
X18161000Y-50095500D03*
D13*
X91313000Y-83185000D03*
D14*
X88773000Y-88265000D03*
D13*
X84963000Y-85725000D03*
D15*
X83693000Y-88265000D03*
X93853000Y-88265000D03*
D13*
X72263000Y-83185000D03*
D14*
X69723000Y-88265000D03*
D13*
X65913000Y-85725000D03*
D15*
X64643000Y-88265000D03*
X74803000Y-88265000D03*
D13*
X53213000Y-83185000D03*
D14*
X50673000Y-88265000D03*
D13*
X46863000Y-85725000D03*
D15*
X45593000Y-88265000D03*
X55753000Y-88265000D03*
D13*
X34163000Y-83185000D03*
D14*
X31623000Y-88265000D03*
D13*
X27813000Y-85725000D03*
D15*
X26543000Y-88265000D03*
X36703000Y-88265000D03*
G36*
G01*
X78086000Y-92635000D02*
X78886000Y-92635000D01*
G75*
G02*
X79286000Y-93035000I0J-400000D01*
G01*
X79286000Y-93835000D01*
G75*
G02*
X78886000Y-94235000I-400000J0D01*
G01*
X78086000Y-94235000D01*
G75*
G02*
X77686000Y-93835000I0J400000D01*
G01*
X77686000Y-93035000D01*
G75*
G02*
X78086000Y-92635000I400000J0D01*
G01*
G37*
D21*
X78486000Y-85635000D03*
D22*
X78486000Y-90935000D03*
X78486000Y-88135000D03*
G36*
G01*
X61131500Y-92698500D02*
X61931500Y-92698500D01*
G75*
G02*
X62331500Y-93098500I0J-400000D01*
G01*
X62331500Y-93898500D01*
G75*
G02*
X61931500Y-94298500I-400000J0D01*
G01*
X61131500Y-94298500D01*
G75*
G02*
X60731500Y-93898500I0J400000D01*
G01*
X60731500Y-93098500D01*
G75*
G02*
X61131500Y-92698500I400000J0D01*
G01*
G37*
D21*
X61531500Y-85698500D03*
D22*
X61531500Y-90998500D03*
X61531500Y-88198500D03*
G36*
G01*
X58464500Y-92698500D02*
X59264500Y-92698500D01*
G75*
G02*
X59664500Y-93098500I0J-400000D01*
G01*
X59664500Y-93898500D01*
G75*
G02*
X59264500Y-94298500I-400000J0D01*
G01*
X58464500Y-94298500D01*
G75*
G02*
X58064500Y-93898500I0J400000D01*
G01*
X58064500Y-93098500D01*
G75*
G02*
X58464500Y-92698500I400000J0D01*
G01*
G37*
D21*
X58864500Y-85698500D03*
D22*
X58864500Y-90998500D03*
X58864500Y-88198500D03*
G36*
G01*
X22968000Y-92698500D02*
X23768000Y-92698500D01*
G75*
G02*
X24168000Y-93098500I0J-400000D01*
G01*
X24168000Y-93898500D01*
G75*
G02*
X23768000Y-94298500I-400000J0D01*
G01*
X22968000Y-94298500D01*
G75*
G02*
X22568000Y-93898500I0J400000D01*
G01*
X22568000Y-93098500D01*
G75*
G02*
X22968000Y-92698500I400000J0D01*
G01*
G37*
D21*
X23368000Y-85698500D03*
D22*
X23368000Y-90998500D03*
X23368000Y-88198500D03*
D13*
X91313000Y-64135000D03*
D14*
X88773000Y-69215000D03*
D13*
X84963000Y-66675000D03*
D15*
X83693000Y-69215000D03*
X93853000Y-69215000D03*
D13*
X91313000Y-45085000D03*
D14*
X88773000Y-50165000D03*
D13*
X84963000Y-47625000D03*
D15*
X83693000Y-50165000D03*
X93853000Y-50165000D03*
D13*
X91313000Y-26035000D03*
D14*
X88773000Y-31115000D03*
D13*
X84963000Y-28575000D03*
D15*
X83693000Y-31115000D03*
X93853000Y-31115000D03*
D13*
X91313000Y-6985000D03*
D14*
X88773000Y-12065000D03*
D13*
X84963000Y-9525000D03*
D15*
X83693000Y-12065000D03*
X93853000Y-12065000D03*
G36*
G01*
X20174000Y-92698500D02*
X20974000Y-92698500D01*
G75*
G02*
X21374000Y-93098500I0J-400000D01*
G01*
X21374000Y-93898500D01*
G75*
G02*
X20974000Y-94298500I-400000J0D01*
G01*
X20174000Y-94298500D01*
G75*
G02*
X19774000Y-93898500I0J400000D01*
G01*
X19774000Y-93098500D01*
G75*
G02*
X20174000Y-92698500I400000J0D01*
G01*
G37*
D21*
X20574000Y-85698500D03*
D22*
X20574000Y-90998500D03*
X20574000Y-88198500D03*
G36*
G01*
X78086000Y-73648500D02*
X78886000Y-73648500D01*
G75*
G02*
X79286000Y-74048500I0J-400000D01*
G01*
X79286000Y-74848500D01*
G75*
G02*
X78886000Y-75248500I-400000J0D01*
G01*
X78086000Y-75248500D01*
G75*
G02*
X77686000Y-74848500I0J400000D01*
G01*
X77686000Y-74048500D01*
G75*
G02*
X78086000Y-73648500I400000J0D01*
G01*
G37*
D21*
X78486000Y-66648500D03*
D22*
X78486000Y-71948500D03*
X78486000Y-69148500D03*
G36*
G01*
X78060600Y-54662000D02*
X78860600Y-54662000D01*
G75*
G02*
X79260600Y-55062000I0J-400000D01*
G01*
X79260600Y-55862000D01*
G75*
G02*
X78860600Y-56262000I-400000J0D01*
G01*
X78060600Y-56262000D01*
G75*
G02*
X77660600Y-55862000I0J400000D01*
G01*
X77660600Y-55062000D01*
G75*
G02*
X78060600Y-54662000I400000J0D01*
G01*
G37*
D21*
X78460600Y-47662000D03*
D22*
X78460600Y-52962000D03*
X78460600Y-50162000D03*
G36*
G01*
X78086000Y-35548500D02*
X78886000Y-35548500D01*
G75*
G02*
X79286000Y-35948500I0J-400000D01*
G01*
X79286000Y-36748500D01*
G75*
G02*
X78886000Y-37148500I-400000J0D01*
G01*
X78086000Y-37148500D01*
G75*
G02*
X77686000Y-36748500I0J400000D01*
G01*
X77686000Y-35948500D01*
G75*
G02*
X78086000Y-35548500I400000J0D01*
G01*
G37*
D21*
X78486000Y-28548500D03*
D22*
X78486000Y-33848500D03*
X78486000Y-31048500D03*
G36*
G01*
X78086000Y-16562000D02*
X78886000Y-16562000D01*
G75*
G02*
X79286000Y-16962000I0J-400000D01*
G01*
X79286000Y-17762000D01*
G75*
G02*
X78886000Y-18162000I-400000J0D01*
G01*
X78086000Y-18162000D01*
G75*
G02*
X77686000Y-17762000I0J400000D01*
G01*
X77686000Y-16962000D01*
G75*
G02*
X78086000Y-16562000I400000J0D01*
G01*
G37*
D21*
X78486000Y-9562000D03*
D22*
X78486000Y-14862000D03*
X78486000Y-12062000D03*
G36*
G01*
X59798000Y-73648500D02*
X60598000Y-73648500D01*
G75*
G02*
X60998000Y-74048500I0J-400000D01*
G01*
X60998000Y-74848500D01*
G75*
G02*
X60598000Y-75248500I-400000J0D01*
G01*
X59798000Y-75248500D01*
G75*
G02*
X59398000Y-74848500I0J400000D01*
G01*
X59398000Y-74048500D01*
G75*
G02*
X59798000Y-73648500I400000J0D01*
G01*
G37*
D21*
X60198000Y-66648500D03*
D22*
X60198000Y-71948500D03*
X60198000Y-69148500D03*
G36*
G01*
X59772600Y-54598500D02*
X60572600Y-54598500D01*
G75*
G02*
X60972600Y-54998500I0J-400000D01*
G01*
X60972600Y-55798500D01*
G75*
G02*
X60572600Y-56198500I-400000J0D01*
G01*
X59772600Y-56198500D01*
G75*
G02*
X59372600Y-55798500I0J400000D01*
G01*
X59372600Y-54998500D01*
G75*
G02*
X59772600Y-54598500I400000J0D01*
G01*
G37*
D21*
X60172600Y-47598500D03*
D22*
X60172600Y-52898500D03*
X60172600Y-50098500D03*
G36*
G01*
X59798000Y-35548500D02*
X60598000Y-35548500D01*
G75*
G02*
X60998000Y-35948500I0J-400000D01*
G01*
X60998000Y-36748500D01*
G75*
G02*
X60598000Y-37148500I-400000J0D01*
G01*
X59798000Y-37148500D01*
G75*
G02*
X59398000Y-36748500I0J400000D01*
G01*
X59398000Y-35948500D01*
G75*
G02*
X59798000Y-35548500I400000J0D01*
G01*
G37*
D21*
X60198000Y-28548500D03*
D22*
X60198000Y-33848500D03*
X60198000Y-31048500D03*
G36*
G01*
X59798000Y-16562000D02*
X60598000Y-16562000D01*
G75*
G02*
X60998000Y-16962000I0J-400000D01*
G01*
X60998000Y-17762000D01*
G75*
G02*
X60598000Y-18162000I-400000J0D01*
G01*
X59798000Y-18162000D01*
G75*
G02*
X59398000Y-17762000I0J400000D01*
G01*
X59398000Y-16962000D01*
G75*
G02*
X59798000Y-16562000I400000J0D01*
G01*
G37*
D21*
X60198000Y-9562000D03*
D22*
X60198000Y-14862000D03*
X60198000Y-12062000D03*
G36*
G01*
X40748000Y-73648500D02*
X41548000Y-73648500D01*
G75*
G02*
X41948000Y-74048500I0J-400000D01*
G01*
X41948000Y-74848500D01*
G75*
G02*
X41548000Y-75248500I-400000J0D01*
G01*
X40748000Y-75248500D01*
G75*
G02*
X40348000Y-74848500I0J400000D01*
G01*
X40348000Y-74048500D01*
G75*
G02*
X40748000Y-73648500I400000J0D01*
G01*
G37*
D21*
X41148000Y-66648500D03*
D22*
X41148000Y-71948500D03*
X41148000Y-69148500D03*
G36*
G01*
X40722600Y-54598500D02*
X41522600Y-54598500D01*
G75*
G02*
X41922600Y-54998500I0J-400000D01*
G01*
X41922600Y-55798500D01*
G75*
G02*
X41522600Y-56198500I-400000J0D01*
G01*
X40722600Y-56198500D01*
G75*
G02*
X40322600Y-55798500I0J400000D01*
G01*
X40322600Y-54998500D01*
G75*
G02*
X40722600Y-54598500I400000J0D01*
G01*
G37*
D21*
X41122600Y-47598500D03*
D22*
X41122600Y-52898500D03*
X41122600Y-50098500D03*
G36*
G01*
X40748000Y-35548500D02*
X41548000Y-35548500D01*
G75*
G02*
X41948000Y-35948500I0J-400000D01*
G01*
X41948000Y-36748500D01*
G75*
G02*
X41548000Y-37148500I-400000J0D01*
G01*
X40748000Y-37148500D01*
G75*
G02*
X40348000Y-36748500I0J400000D01*
G01*
X40348000Y-35948500D01*
G75*
G02*
X40748000Y-35548500I400000J0D01*
G01*
G37*
D21*
X41148000Y-28548500D03*
D22*
X41148000Y-33848500D03*
X41148000Y-31048500D03*
G36*
G01*
X40748000Y-16562000D02*
X41548000Y-16562000D01*
G75*
G02*
X41948000Y-16962000I0J-400000D01*
G01*
X41948000Y-17762000D01*
G75*
G02*
X41548000Y-18162000I-400000J0D01*
G01*
X40748000Y-18162000D01*
G75*
G02*
X40348000Y-17762000I0J400000D01*
G01*
X40348000Y-16962000D01*
G75*
G02*
X40748000Y-16562000I400000J0D01*
G01*
G37*
D21*
X41148000Y-9562000D03*
D22*
X41148000Y-14862000D03*
X41148000Y-12062000D03*
G36*
G01*
X22968000Y-73648500D02*
X23768000Y-73648500D01*
G75*
G02*
X24168000Y-74048500I0J-400000D01*
G01*
X24168000Y-74848500D01*
G75*
G02*
X23768000Y-75248500I-400000J0D01*
G01*
X22968000Y-75248500D01*
G75*
G02*
X22568000Y-74848500I0J400000D01*
G01*
X22568000Y-74048500D01*
G75*
G02*
X22968000Y-73648500I400000J0D01*
G01*
G37*
D21*
X23368000Y-66648500D03*
D22*
X23368000Y-71948500D03*
X23368000Y-69148500D03*
G36*
G01*
X22968000Y-54598500D02*
X23768000Y-54598500D01*
G75*
G02*
X24168000Y-54998500I0J-400000D01*
G01*
X24168000Y-55798500D01*
G75*
G02*
X23768000Y-56198500I-400000J0D01*
G01*
X22968000Y-56198500D01*
G75*
G02*
X22568000Y-55798500I0J400000D01*
G01*
X22568000Y-54998500D01*
G75*
G02*
X22968000Y-54598500I400000J0D01*
G01*
G37*
D21*
X23368000Y-47598500D03*
D22*
X23368000Y-52898500D03*
X23368000Y-50098500D03*
G36*
G01*
X22968000Y-35548500D02*
X23768000Y-35548500D01*
G75*
G02*
X24168000Y-35948500I0J-400000D01*
G01*
X24168000Y-36748500D01*
G75*
G02*
X23768000Y-37148500I-400000J0D01*
G01*
X22968000Y-37148500D01*
G75*
G02*
X22568000Y-36748500I0J400000D01*
G01*
X22568000Y-35948500D01*
G75*
G02*
X22968000Y-35548500I400000J0D01*
G01*
G37*
D21*
X23368000Y-28548500D03*
D22*
X23368000Y-33848500D03*
X23368000Y-31048500D03*
G36*
G01*
X22904500Y-16562000D02*
X23704500Y-16562000D01*
G75*
G02*
X24104500Y-16962000I0J-400000D01*
G01*
X24104500Y-17762000D01*
G75*
G02*
X23704500Y-18162000I-400000J0D01*
G01*
X22904500Y-18162000D01*
G75*
G02*
X22504500Y-17762000I0J400000D01*
G01*
X22504500Y-16962000D01*
G75*
G02*
X22904500Y-16562000I400000J0D01*
G01*
G37*
D21*
X23304500Y-9562000D03*
D22*
X23304500Y-14862000D03*
X23304500Y-12062000D03*
D13*
X72263000Y-64135000D03*
D14*
X69723000Y-69215000D03*
D13*
X65913000Y-66675000D03*
D15*
X64643000Y-69215000D03*
X74803000Y-69215000D03*
D13*
X72263000Y-45085000D03*
D14*
X69723000Y-50165000D03*
D13*
X65913000Y-47625000D03*
D15*
X64643000Y-50165000D03*
X74803000Y-50165000D03*
D13*
X72263000Y-6985000D03*
D14*
X69723000Y-12065000D03*
D13*
X65913000Y-9525000D03*
D15*
X64643000Y-12065000D03*
X74803000Y-12065000D03*
D13*
X53213000Y-64135000D03*
D14*
X50673000Y-69215000D03*
D13*
X46863000Y-66675000D03*
D15*
X45593000Y-69215000D03*
X55753000Y-69215000D03*
D13*
X53213000Y-45085000D03*
D14*
X50673000Y-50165000D03*
D13*
X46863000Y-47625000D03*
D15*
X45593000Y-50165000D03*
X55753000Y-50165000D03*
D13*
X53213000Y-6985000D03*
D14*
X50673000Y-12065000D03*
D13*
X46863000Y-9525000D03*
D15*
X45593000Y-12065000D03*
X55753000Y-12065000D03*
D13*
X34163000Y-64135000D03*
D14*
X31623000Y-69215000D03*
D13*
X27813000Y-66675000D03*
D15*
X26543000Y-69215000D03*
X36703000Y-69215000D03*
D13*
X34163000Y-45085000D03*
D14*
X31623000Y-50165000D03*
D13*
X27813000Y-47625000D03*
D15*
X26543000Y-50165000D03*
X36703000Y-50165000D03*
D13*
X34163000Y-26035000D03*
D14*
X31623000Y-31115000D03*
D13*
X27813000Y-28575000D03*
D15*
X26543000Y-31115000D03*
X36703000Y-31115000D03*
M02*
