G04 #@! TF.GenerationSoftware,KiCad,Pcbnew,5.99.0+really5.1.10+dfsg1-1*
G04 #@! TF.CreationDate,2021-05-18T01:02:47-04:00*
G04 #@! TF.ProjectId,numpad_0,6e756d70-6164-45f3-902e-6b696361645f,rev?*
G04 #@! TF.SameCoordinates,Original*
G04 #@! TF.FileFunction,Paste,Bot*
G04 #@! TF.FilePolarity,Positive*
%FSLAX46Y46*%
G04 Gerber Fmt 4.6, Leading zero omitted, Abs format (unit mm)*
G04 Created by KiCad (PCBNEW 5.99.0+really5.1.10+dfsg1-1) date 2021-05-18 01:02:47*
%MOMM*%
%LPD*%
G01*
G04 APERTURE LIST*
%ADD10R,1.200000X1.600000*%
G04 APERTURE END LIST*
D10*
X18097500Y-76774500D03*
X18097500Y-73974500D03*
X18161000Y-52895500D03*
X18161000Y-50095500D03*
X78486000Y-90935000D03*
X78486000Y-88135000D03*
X61531500Y-90998500D03*
X61531500Y-88198500D03*
X58864500Y-90998500D03*
X58864500Y-88198500D03*
X23368000Y-90998500D03*
X23368000Y-88198500D03*
X20574000Y-90998500D03*
X20574000Y-88198500D03*
X78486000Y-71948500D03*
X78486000Y-69148500D03*
X78460600Y-52962000D03*
X78460600Y-50162000D03*
X78486000Y-33848500D03*
X78486000Y-31048500D03*
X78486000Y-14862000D03*
X78486000Y-12062000D03*
X60198000Y-71948500D03*
X60198000Y-69148500D03*
X60172600Y-52898500D03*
X60172600Y-50098500D03*
X60198000Y-33848500D03*
X60198000Y-31048500D03*
X60198000Y-14862000D03*
X60198000Y-12062000D03*
X41148000Y-71948500D03*
X41148000Y-69148500D03*
X41122600Y-52898500D03*
X41122600Y-50098500D03*
X41148000Y-33848500D03*
X41148000Y-31048500D03*
X41148000Y-14862000D03*
X41148000Y-12062000D03*
X23368000Y-71948500D03*
X23368000Y-69148500D03*
X23368000Y-52898500D03*
X23368000Y-50098500D03*
X23368000Y-33848500D03*
X23368000Y-31048500D03*
X23304500Y-14862000D03*
X23304500Y-12062000D03*
M02*
