G04 #@! TF.GenerationSoftware,KiCad,Pcbnew,5.99.0+really5.1.10+dfsg1-1*
G04 #@! TF.CreationDate,2021-06-09T13:14:23-04:00*
G04 #@! TF.ProjectId,fake_duck,66616b65-5f64-4756-936b-2e6b69636164,rev?*
G04 #@! TF.SameCoordinates,Original*
G04 #@! TF.FileFunction,Soldermask,Bot*
G04 #@! TF.FilePolarity,Negative*
%FSLAX46Y46*%
G04 Gerber Fmt 4.6, Leading zero omitted, Abs format (unit mm)*
G04 Created by KiCad (PCBNEW 5.99.0+really5.1.10+dfsg1-1) date 2021-06-09 13:14:23*
%MOMM*%
%LPD*%
G01*
G04 APERTURE LIST*
%ADD10R,2.500000X2.550000*%
%ADD11C,1.750000*%
%ADD12C,3.000000*%
%ADD13C,3.987800*%
%ADD14R,2.550000X2.500000*%
%ADD15O,1.700000X1.700000*%
%ADD16C,2.250000*%
%ADD17C,3.048000*%
%ADD18R,1.600000X0.850000*%
%ADD19R,0.850000X1.600000*%
%ADD20R,2.000000X2.000000*%
%ADD21C,2.000000*%
%ADD22C,1.752600*%
%ADD23R,2.000000X3.200000*%
G04 APERTURE END LIST*
D10*
X88011000Y-77724000D03*
X90551000Y-90651000D03*
D11*
X93091000Y-78486000D03*
X93091000Y-88646000D03*
D12*
X90551000Y-87376000D03*
D13*
X93091000Y-83566000D03*
D12*
X88011000Y-81026000D03*
D14*
X51308000Y-88011000D03*
X38381000Y-90551000D03*
D11*
X50546000Y-93091000D03*
X40386000Y-93091000D03*
D12*
X41656000Y-90551000D03*
D13*
X45466000Y-93091000D03*
D12*
X48006000Y-88011000D03*
D10*
X88011000Y-39624000D03*
X90551000Y-52551000D03*
D11*
X93091000Y-40386000D03*
X93091000Y-50546000D03*
D12*
X90551000Y-49276000D03*
D13*
X93091000Y-45466000D03*
D12*
X88011000Y-42926000D03*
D15*
X10604500Y-45847000D03*
X13144500Y-45847000D03*
X15684500Y-45847000D03*
G36*
G01*
X17799500Y-44997000D02*
X18649500Y-44997000D01*
G75*
G02*
X19074500Y-45422000I0J-425000D01*
G01*
X19074500Y-46272000D01*
G75*
G02*
X18649500Y-46697000I-425000J0D01*
G01*
X17799500Y-46697000D01*
G75*
G02*
X17374500Y-46272000I0J425000D01*
G01*
X17374500Y-45422000D01*
G75*
G02*
X17799500Y-44997000I425000J0D01*
G01*
G37*
D16*
X98171000Y-86106000D03*
D13*
X93091000Y-83566000D03*
D16*
X95631000Y-79756000D03*
D11*
X93091000Y-78486000D03*
X93091000Y-88646000D03*
D17*
X100076000Y-71659750D03*
X100076000Y-95472250D03*
D13*
X84836000Y-71659750D03*
X84836000Y-95472250D03*
D16*
X98171000Y-48006000D03*
D13*
X93091000Y-45466000D03*
D16*
X95631000Y-41656000D03*
D11*
X93091000Y-40386000D03*
X93091000Y-50546000D03*
D17*
X100076000Y-33559750D03*
X100076000Y-57372250D03*
D13*
X84836000Y-33559750D03*
X84836000Y-57372250D03*
D16*
X42926000Y-98171000D03*
D13*
X45466000Y-93091000D03*
D16*
X49276000Y-95631000D03*
D11*
X50546000Y-93091000D03*
X40386000Y-93091000D03*
D17*
X57372250Y-100076000D03*
X33559750Y-100076000D03*
D13*
X57372250Y-84836000D03*
X33559750Y-84836000D03*
D14*
X98933000Y-11811000D03*
X86006000Y-14351000D03*
D11*
X98171000Y-16891000D03*
X88011000Y-16891000D03*
D12*
X89281000Y-14351000D03*
D13*
X93091000Y-16891000D03*
D12*
X95631000Y-11811000D03*
D16*
X90551000Y-21971000D03*
D13*
X93091000Y-16891000D03*
D16*
X96901000Y-19431000D03*
D11*
X98171000Y-16891000D03*
X88011000Y-16891000D03*
D14*
X79883000Y-11811000D03*
X66956000Y-14351000D03*
D11*
X79121000Y-16891000D03*
X68961000Y-16891000D03*
D12*
X70231000Y-14351000D03*
D13*
X74041000Y-16891000D03*
D12*
X76581000Y-11811000D03*
D16*
X71501000Y-21971000D03*
D13*
X74041000Y-16891000D03*
D16*
X77851000Y-19431000D03*
D11*
X79121000Y-16891000D03*
X68961000Y-16891000D03*
D14*
X60833000Y-11811000D03*
X47906000Y-14351000D03*
D11*
X60071000Y-16891000D03*
X49911000Y-16891000D03*
D12*
X51181000Y-14351000D03*
D13*
X54991000Y-16891000D03*
D12*
X57531000Y-11811000D03*
D16*
X52451000Y-21971000D03*
D13*
X54991000Y-16891000D03*
D16*
X58801000Y-19431000D03*
D11*
X60071000Y-16891000D03*
X49911000Y-16891000D03*
D14*
X41783000Y-11811000D03*
X28856000Y-14351000D03*
D11*
X41021000Y-16891000D03*
X30861000Y-16891000D03*
D12*
X32131000Y-14351000D03*
D13*
X35941000Y-16891000D03*
D12*
X38481000Y-11811000D03*
D16*
X33401000Y-21971000D03*
D13*
X35941000Y-16891000D03*
D16*
X39751000Y-19431000D03*
D11*
X41021000Y-16891000D03*
X30861000Y-16891000D03*
D14*
X22733000Y-88011000D03*
X9806000Y-90551000D03*
D11*
X21971000Y-93091000D03*
X11811000Y-93091000D03*
D12*
X13081000Y-90551000D03*
D13*
X16891000Y-93091000D03*
D12*
X19431000Y-88011000D03*
D16*
X14351000Y-98171000D03*
D13*
X16891000Y-93091000D03*
D16*
X20701000Y-95631000D03*
D11*
X21971000Y-93091000D03*
X11811000Y-93091000D03*
D18*
X33250000Y-5875000D03*
X33250000Y-4125000D03*
X36750000Y-5875000D03*
X36750000Y-4125000D03*
X73250000Y-5875000D03*
X73250000Y-4125000D03*
X76750000Y-5875000D03*
X76750000Y-4125000D03*
D19*
X104125000Y-33250000D03*
X105875000Y-33250000D03*
X104125000Y-36750000D03*
X105875000Y-36750000D03*
X104125000Y-73250000D03*
X105875000Y-73250000D03*
X104125000Y-76750000D03*
X105875000Y-76750000D03*
D18*
X76750000Y-104125000D03*
X76750000Y-105875000D03*
X73250000Y-104125000D03*
X73250000Y-105875000D03*
X36750000Y-104125000D03*
X36750000Y-105875000D03*
X33250000Y-104125000D03*
X33250000Y-105875000D03*
D19*
X5875000Y-76750000D03*
X4125000Y-76750000D03*
X5875000Y-73250000D03*
X4125000Y-73250000D03*
X5875000Y-36750000D03*
X4125000Y-36750000D03*
X5875000Y-33250000D03*
X4125000Y-33250000D03*
D20*
X89091000Y-8636000D03*
D21*
X97091000Y-8636000D03*
D20*
X70041000Y-8636000D03*
D21*
X78041000Y-8636000D03*
D20*
X50991000Y-8636000D03*
D21*
X58991000Y-8636000D03*
D20*
X32004500Y-8636000D03*
D21*
X40004500Y-8636000D03*
D20*
X12954500Y-84836000D03*
D21*
X20954500Y-84836000D03*
D20*
X12954500Y-81026000D03*
D21*
X20954500Y-81026000D03*
D10*
X88011000Y-87249000D03*
X90551000Y-100176000D03*
D11*
X93091000Y-88011000D03*
X93091000Y-98171000D03*
D12*
X90551000Y-96901000D03*
D13*
X93091000Y-93091000D03*
D12*
X88011000Y-90551000D03*
D16*
X98171000Y-95631000D03*
D13*
X93091000Y-93091000D03*
D16*
X95631000Y-89281000D03*
D11*
X93091000Y-88011000D03*
X93091000Y-98171000D03*
D10*
X88011000Y-68199000D03*
X90551000Y-81126000D03*
D11*
X93091000Y-68961000D03*
X93091000Y-79121000D03*
D12*
X90551000Y-77851000D03*
D13*
X93091000Y-74041000D03*
D12*
X88011000Y-71501000D03*
D16*
X98171000Y-76581000D03*
D13*
X93091000Y-74041000D03*
D16*
X95631000Y-70231000D03*
D11*
X93091000Y-68961000D03*
X93091000Y-79121000D03*
D10*
X88011000Y-49149000D03*
X90551000Y-62076000D03*
D11*
X93091000Y-49911000D03*
X93091000Y-60071000D03*
D12*
X90551000Y-58801000D03*
D13*
X93091000Y-54991000D03*
D12*
X88011000Y-52451000D03*
D16*
X98171000Y-57531000D03*
D13*
X93091000Y-54991000D03*
D16*
X95631000Y-51181000D03*
D11*
X93091000Y-49911000D03*
X93091000Y-60071000D03*
D10*
X88011000Y-30099000D03*
X90551000Y-43026000D03*
D11*
X93091000Y-30861000D03*
X93091000Y-41021000D03*
D12*
X90551000Y-39751000D03*
D13*
X93091000Y-35941000D03*
D12*
X88011000Y-33401000D03*
D16*
X98171000Y-38481000D03*
D13*
X93091000Y-35941000D03*
D16*
X95631000Y-32131000D03*
D11*
X93091000Y-30861000D03*
X93091000Y-41021000D03*
D20*
X75819500Y-82232500D03*
D21*
X83819500Y-82232500D03*
D20*
X88011500Y-65214500D03*
D21*
X96011500Y-65214500D03*
D20*
X79566000Y-62103000D03*
D21*
X87566000Y-62103000D03*
D20*
X88011500Y-27178000D03*
D21*
X96011500Y-27178000D03*
D14*
X79883000Y-88011000D03*
X66956000Y-90551000D03*
D11*
X79121000Y-93091000D03*
X68961000Y-93091000D03*
D12*
X70231000Y-90551000D03*
D13*
X74041000Y-93091000D03*
D12*
X76581000Y-88011000D03*
D16*
X71501000Y-98171000D03*
D13*
X74041000Y-93091000D03*
D16*
X77851000Y-95631000D03*
D11*
X79121000Y-93091000D03*
X68961000Y-93091000D03*
D14*
X79883000Y-68961000D03*
X66956000Y-71501000D03*
D11*
X79121000Y-74041000D03*
X68961000Y-74041000D03*
D12*
X70231000Y-71501000D03*
D13*
X74041000Y-74041000D03*
D12*
X76581000Y-68961000D03*
D16*
X71501000Y-79121000D03*
D13*
X74041000Y-74041000D03*
D16*
X77851000Y-76581000D03*
D11*
X79121000Y-74041000D03*
X68961000Y-74041000D03*
D14*
X79883000Y-49911000D03*
X66956000Y-52451000D03*
D11*
X79121000Y-54991000D03*
X68961000Y-54991000D03*
D12*
X70231000Y-52451000D03*
D13*
X74041000Y-54991000D03*
D12*
X76581000Y-49911000D03*
D16*
X71501000Y-60071000D03*
D13*
X74041000Y-54991000D03*
D16*
X77851000Y-57531000D03*
D11*
X79121000Y-54991000D03*
X68961000Y-54991000D03*
D14*
X79883000Y-30861000D03*
X66956000Y-33401000D03*
D11*
X79121000Y-35941000D03*
X68961000Y-35941000D03*
D12*
X70231000Y-33401000D03*
D13*
X74041000Y-35941000D03*
D12*
X76581000Y-30861000D03*
D16*
X71501000Y-41021000D03*
D13*
X74041000Y-35941000D03*
D16*
X77851000Y-38481000D03*
D11*
X79121000Y-35941000D03*
X68961000Y-35941000D03*
D14*
X60833000Y-88011000D03*
X47906000Y-90551000D03*
D11*
X60071000Y-93091000D03*
X49911000Y-93091000D03*
D12*
X51181000Y-90551000D03*
D13*
X54991000Y-93091000D03*
D12*
X57531000Y-88011000D03*
D16*
X52451000Y-98171000D03*
D13*
X54991000Y-93091000D03*
D16*
X58801000Y-95631000D03*
D11*
X60071000Y-93091000D03*
X49911000Y-93091000D03*
D14*
X60833000Y-68961000D03*
X47906000Y-71501000D03*
D11*
X60071000Y-74041000D03*
X49911000Y-74041000D03*
D12*
X51181000Y-71501000D03*
D13*
X54991000Y-74041000D03*
D12*
X57531000Y-68961000D03*
D16*
X52451000Y-79121000D03*
D13*
X54991000Y-74041000D03*
D16*
X58801000Y-76581000D03*
D11*
X60071000Y-74041000D03*
X49911000Y-74041000D03*
D14*
X60833000Y-49911000D03*
X47906000Y-52451000D03*
D11*
X60071000Y-54991000D03*
X49911000Y-54991000D03*
D12*
X51181000Y-52451000D03*
D13*
X54991000Y-54991000D03*
D12*
X57531000Y-49911000D03*
D16*
X52451000Y-60071000D03*
D13*
X54991000Y-54991000D03*
D16*
X58801000Y-57531000D03*
D11*
X60071000Y-54991000D03*
X49911000Y-54991000D03*
D14*
X60833000Y-30861000D03*
X47906000Y-33401000D03*
D11*
X60071000Y-35941000D03*
X49911000Y-35941000D03*
D12*
X51181000Y-33401000D03*
D13*
X54991000Y-35941000D03*
D12*
X57531000Y-30861000D03*
D16*
X52451000Y-41021000D03*
D13*
X54991000Y-35941000D03*
D16*
X58801000Y-38481000D03*
D11*
X60071000Y-35941000D03*
X49911000Y-35941000D03*
D14*
X41783000Y-88011000D03*
X28856000Y-90551000D03*
D11*
X41021000Y-93091000D03*
X30861000Y-93091000D03*
D12*
X32131000Y-90551000D03*
D13*
X35941000Y-93091000D03*
D12*
X38481000Y-88011000D03*
D16*
X33401000Y-98171000D03*
D13*
X35941000Y-93091000D03*
D16*
X39751000Y-95631000D03*
D11*
X41021000Y-93091000D03*
X30861000Y-93091000D03*
D14*
X41783000Y-68961000D03*
X28856000Y-71501000D03*
D11*
X41021000Y-74041000D03*
X30861000Y-74041000D03*
D12*
X32131000Y-71501000D03*
D13*
X35941000Y-74041000D03*
D12*
X38481000Y-68961000D03*
D16*
X33401000Y-79121000D03*
D13*
X35941000Y-74041000D03*
D16*
X39751000Y-76581000D03*
D11*
X41021000Y-74041000D03*
X30861000Y-74041000D03*
D14*
X41783000Y-49911000D03*
X28856000Y-52451000D03*
D11*
X41021000Y-54991000D03*
X30861000Y-54991000D03*
D12*
X32131000Y-52451000D03*
D13*
X35941000Y-54991000D03*
D12*
X38481000Y-49911000D03*
D16*
X33401000Y-60071000D03*
D13*
X35941000Y-54991000D03*
D16*
X39751000Y-57531000D03*
D11*
X41021000Y-54991000D03*
X30861000Y-54991000D03*
D14*
X41783000Y-30861000D03*
X28856000Y-33401000D03*
D11*
X41021000Y-35941000D03*
X30861000Y-35941000D03*
D12*
X32131000Y-33401000D03*
D13*
X35941000Y-35941000D03*
D12*
X38481000Y-30861000D03*
D16*
X33401000Y-41021000D03*
D13*
X35941000Y-35941000D03*
D16*
X39751000Y-38481000D03*
D11*
X41021000Y-35941000D03*
X30861000Y-35941000D03*
D20*
X70041000Y-84836000D03*
D21*
X78041000Y-84836000D03*
D20*
X70041000Y-65786000D03*
D21*
X78041000Y-65786000D03*
D20*
X70041000Y-46736000D03*
D21*
X78041000Y-46736000D03*
D20*
X70041000Y-27686000D03*
D21*
X78041000Y-27686000D03*
D20*
X45974500Y-84899500D03*
D21*
X53974500Y-84899500D03*
D20*
X50991000Y-65786000D03*
D21*
X58991000Y-65786000D03*
D20*
X51054500Y-46736000D03*
D21*
X59054500Y-46736000D03*
D20*
X50991000Y-27686000D03*
D21*
X58991000Y-27686000D03*
D20*
X37338500Y-82232500D03*
D21*
X45338500Y-82232500D03*
D20*
X31941000Y-65786000D03*
D21*
X39941000Y-65786000D03*
D20*
X32004500Y-46736000D03*
D21*
X40004500Y-46736000D03*
D20*
X31941000Y-27686000D03*
D21*
X39941000Y-27686000D03*
D22*
X24003000Y-6667500D03*
X8763000Y-34607500D03*
X24003000Y-9207500D03*
X24003000Y-11747500D03*
X24003000Y-14287500D03*
X24003000Y-16827500D03*
X24003000Y-19367500D03*
X24003000Y-21907500D03*
X24003000Y-24447500D03*
X24003000Y-26987500D03*
X24003000Y-29527500D03*
X24003000Y-32067500D03*
X24003000Y-34607500D03*
X8763000Y-32067500D03*
X8763000Y-29527500D03*
X8763000Y-26987500D03*
X8763000Y-24447500D03*
X8763000Y-21907500D03*
X8763000Y-19367500D03*
X8763000Y-16827500D03*
X8763000Y-14287500D03*
X8763000Y-11747500D03*
X8763000Y-9207500D03*
G36*
G01*
X8324850Y-5791200D02*
X9201150Y-5791200D01*
G75*
G02*
X9639300Y-6229350I0J-438150D01*
G01*
X9639300Y-7105650D01*
G75*
G02*
X9201150Y-7543800I-438150J0D01*
G01*
X8324850Y-7543800D01*
G75*
G02*
X7886700Y-7105650I0J438150D01*
G01*
X7886700Y-6229350D01*
G75*
G02*
X8324850Y-5791200I438150J0D01*
G01*
G37*
D21*
X11851000Y-71452500D03*
X16851000Y-71452500D03*
D23*
X8751000Y-64452500D03*
X19951000Y-64452500D03*
D21*
X11851000Y-56952500D03*
X14351000Y-56952500D03*
G36*
G01*
X16351000Y-55952500D02*
X17351000Y-55952500D01*
G75*
G02*
X17851000Y-56452500I0J-500000D01*
G01*
X17851000Y-57452500D01*
G75*
G02*
X17351000Y-57952500I-500000J0D01*
G01*
X16351000Y-57952500D01*
G75*
G02*
X15851000Y-57452500I0J500000D01*
G01*
X15851000Y-56452500D01*
G75*
G02*
X16351000Y-55952500I500000J0D01*
G01*
G37*
M02*
