G04 #@! TF.GenerationSoftware,KiCad,Pcbnew,5.99.0+really5.1.10+dfsg1-1*
G04 #@! TF.CreationDate,2021-06-09T13:14:23-04:00*
G04 #@! TF.ProjectId,fake_duck,66616b65-5f64-4756-936b-2e6b69636164,rev?*
G04 #@! TF.SameCoordinates,Original*
G04 #@! TF.FileFunction,Legend,Top*
G04 #@! TF.FilePolarity,Positive*
%FSLAX46Y46*%
G04 Gerber Fmt 4.6, Leading zero omitted, Abs format (unit mm)*
G04 Created by KiCad (PCBNEW 5.99.0+really5.1.10+dfsg1-1) date 2021-06-09 13:14:23*
%MOMM*%
%LPD*%
G01*
G04 APERTURE LIST*
%ADD10C,0.120000*%
%ADD11C,0.150000*%
%ADD12C,0.381000*%
%ADD13C,1.750000*%
%ADD14C,3.000000*%
%ADD15C,3.987800*%
%ADD16O,1.700000X1.700000*%
%ADD17C,3.048000*%
%ADD18R,2.000000X2.000000*%
%ADD19C,2.000000*%
%ADD20C,1.752600*%
%ADD21R,2.000000X3.200000*%
G04 APERTURE END LIST*
D10*
X9274500Y-44517000D02*
X9274500Y-47177000D01*
X16954500Y-44517000D02*
X9274500Y-44517000D01*
X16954500Y-47177000D02*
X9274500Y-47177000D01*
X16954500Y-44517000D02*
X16954500Y-47177000D01*
X18224500Y-44517000D02*
X19554500Y-44517000D01*
X19554500Y-44517000D02*
X19554500Y-45847000D01*
D11*
X91567000Y-7874000D02*
X91567000Y-9398000D01*
X95123000Y-7874000D02*
X91059000Y-7874000D01*
X95123000Y-9398000D02*
X95123000Y-7874000D01*
X91059000Y-9398000D02*
X95123000Y-9398000D01*
X95123000Y-9398000D02*
X91059000Y-9398000D01*
X91059000Y-7874000D02*
X91059000Y-9398000D01*
X72517000Y-7874000D02*
X72517000Y-9398000D01*
X76073000Y-7874000D02*
X72009000Y-7874000D01*
X76073000Y-9398000D02*
X76073000Y-7874000D01*
X72009000Y-9398000D02*
X76073000Y-9398000D01*
X76073000Y-9398000D02*
X72009000Y-9398000D01*
X72009000Y-7874000D02*
X72009000Y-9398000D01*
X53467000Y-7874000D02*
X53467000Y-9398000D01*
X57023000Y-7874000D02*
X52959000Y-7874000D01*
X57023000Y-9398000D02*
X57023000Y-7874000D01*
X52959000Y-9398000D02*
X57023000Y-9398000D01*
X57023000Y-9398000D02*
X52959000Y-9398000D01*
X52959000Y-7874000D02*
X52959000Y-9398000D01*
X34480500Y-7874000D02*
X34480500Y-9398000D01*
X38036500Y-7874000D02*
X33972500Y-7874000D01*
X38036500Y-9398000D02*
X38036500Y-7874000D01*
X33972500Y-9398000D02*
X38036500Y-9398000D01*
X38036500Y-9398000D02*
X33972500Y-9398000D01*
X33972500Y-7874000D02*
X33972500Y-9398000D01*
X15430500Y-84074000D02*
X15430500Y-85598000D01*
X18986500Y-84074000D02*
X14922500Y-84074000D01*
X18986500Y-85598000D02*
X18986500Y-84074000D01*
X14922500Y-85598000D02*
X18986500Y-85598000D01*
X18986500Y-85598000D02*
X14922500Y-85598000D01*
X14922500Y-84074000D02*
X14922500Y-85598000D01*
X15430500Y-80264000D02*
X15430500Y-81788000D01*
X18986500Y-80264000D02*
X14922500Y-80264000D01*
X18986500Y-81788000D02*
X18986500Y-80264000D01*
X14922500Y-81788000D02*
X18986500Y-81788000D01*
X18986500Y-81788000D02*
X14922500Y-81788000D01*
X14922500Y-80264000D02*
X14922500Y-81788000D01*
X77787500Y-81470500D02*
X77787500Y-82994500D01*
X81851500Y-82994500D02*
X77787500Y-82994500D01*
X77787500Y-82994500D02*
X81851500Y-82994500D01*
X81851500Y-82994500D02*
X81851500Y-81470500D01*
X81851500Y-81470500D02*
X77787500Y-81470500D01*
X78295500Y-81470500D02*
X78295500Y-82994500D01*
X89979500Y-64452500D02*
X89979500Y-65976500D01*
X94043500Y-65976500D02*
X89979500Y-65976500D01*
X89979500Y-65976500D02*
X94043500Y-65976500D01*
X94043500Y-65976500D02*
X94043500Y-64452500D01*
X94043500Y-64452500D02*
X89979500Y-64452500D01*
X90487500Y-64452500D02*
X90487500Y-65976500D01*
X81534000Y-61341000D02*
X81534000Y-62865000D01*
X85598000Y-62865000D02*
X81534000Y-62865000D01*
X81534000Y-62865000D02*
X85598000Y-62865000D01*
X85598000Y-62865000D02*
X85598000Y-61341000D01*
X85598000Y-61341000D02*
X81534000Y-61341000D01*
X82042000Y-61341000D02*
X82042000Y-62865000D01*
X89979500Y-26416000D02*
X89979500Y-27940000D01*
X94043500Y-27940000D02*
X89979500Y-27940000D01*
X89979500Y-27940000D02*
X94043500Y-27940000D01*
X94043500Y-27940000D02*
X94043500Y-26416000D01*
X94043500Y-26416000D02*
X89979500Y-26416000D01*
X90487500Y-26416000D02*
X90487500Y-27940000D01*
X72009000Y-84074000D02*
X72009000Y-85598000D01*
X76073000Y-85598000D02*
X72009000Y-85598000D01*
X72009000Y-85598000D02*
X76073000Y-85598000D01*
X76073000Y-85598000D02*
X76073000Y-84074000D01*
X76073000Y-84074000D02*
X72009000Y-84074000D01*
X72517000Y-84074000D02*
X72517000Y-85598000D01*
X72009000Y-65024000D02*
X72009000Y-66548000D01*
X76073000Y-66548000D02*
X72009000Y-66548000D01*
X72009000Y-66548000D02*
X76073000Y-66548000D01*
X76073000Y-66548000D02*
X76073000Y-65024000D01*
X76073000Y-65024000D02*
X72009000Y-65024000D01*
X72517000Y-65024000D02*
X72517000Y-66548000D01*
X72009000Y-45974000D02*
X72009000Y-47498000D01*
X76073000Y-47498000D02*
X72009000Y-47498000D01*
X72009000Y-47498000D02*
X76073000Y-47498000D01*
X76073000Y-47498000D02*
X76073000Y-45974000D01*
X76073000Y-45974000D02*
X72009000Y-45974000D01*
X72517000Y-45974000D02*
X72517000Y-47498000D01*
X72009000Y-26924000D02*
X72009000Y-28448000D01*
X76073000Y-28448000D02*
X72009000Y-28448000D01*
X72009000Y-28448000D02*
X76073000Y-28448000D01*
X76073000Y-28448000D02*
X76073000Y-26924000D01*
X76073000Y-26924000D02*
X72009000Y-26924000D01*
X72517000Y-26924000D02*
X72517000Y-28448000D01*
X47942500Y-84137500D02*
X47942500Y-85661500D01*
X52006500Y-85661500D02*
X47942500Y-85661500D01*
X47942500Y-85661500D02*
X52006500Y-85661500D01*
X52006500Y-85661500D02*
X52006500Y-84137500D01*
X52006500Y-84137500D02*
X47942500Y-84137500D01*
X48450500Y-84137500D02*
X48450500Y-85661500D01*
X52959000Y-65024000D02*
X52959000Y-66548000D01*
X57023000Y-66548000D02*
X52959000Y-66548000D01*
X52959000Y-66548000D02*
X57023000Y-66548000D01*
X57023000Y-66548000D02*
X57023000Y-65024000D01*
X57023000Y-65024000D02*
X52959000Y-65024000D01*
X53467000Y-65024000D02*
X53467000Y-66548000D01*
X53022500Y-45974000D02*
X53022500Y-47498000D01*
X57086500Y-47498000D02*
X53022500Y-47498000D01*
X53022500Y-47498000D02*
X57086500Y-47498000D01*
X57086500Y-47498000D02*
X57086500Y-45974000D01*
X57086500Y-45974000D02*
X53022500Y-45974000D01*
X53530500Y-45974000D02*
X53530500Y-47498000D01*
X52959000Y-26924000D02*
X52959000Y-28448000D01*
X57023000Y-28448000D02*
X52959000Y-28448000D01*
X52959000Y-28448000D02*
X57023000Y-28448000D01*
X57023000Y-28448000D02*
X57023000Y-26924000D01*
X57023000Y-26924000D02*
X52959000Y-26924000D01*
X53467000Y-26924000D02*
X53467000Y-28448000D01*
X39306500Y-81470500D02*
X39306500Y-82994500D01*
X43370500Y-82994500D02*
X39306500Y-82994500D01*
X39306500Y-82994500D02*
X43370500Y-82994500D01*
X43370500Y-82994500D02*
X43370500Y-81470500D01*
X43370500Y-81470500D02*
X39306500Y-81470500D01*
X39814500Y-81470500D02*
X39814500Y-82994500D01*
X33909000Y-65024000D02*
X33909000Y-66548000D01*
X37973000Y-66548000D02*
X33909000Y-66548000D01*
X33909000Y-66548000D02*
X37973000Y-66548000D01*
X37973000Y-66548000D02*
X37973000Y-65024000D01*
X37973000Y-65024000D02*
X33909000Y-65024000D01*
X34417000Y-65024000D02*
X34417000Y-66548000D01*
X33972500Y-45974000D02*
X33972500Y-47498000D01*
X38036500Y-47498000D02*
X33972500Y-47498000D01*
X33972500Y-47498000D02*
X38036500Y-47498000D01*
X38036500Y-47498000D02*
X38036500Y-45974000D01*
X38036500Y-45974000D02*
X33972500Y-45974000D01*
X34480500Y-45974000D02*
X34480500Y-47498000D01*
X33909000Y-26924000D02*
X33909000Y-28448000D01*
X37973000Y-28448000D02*
X33909000Y-28448000D01*
X33909000Y-28448000D02*
X37973000Y-28448000D01*
X37973000Y-28448000D02*
X37973000Y-26924000D01*
X37973000Y-26924000D02*
X33909000Y-26924000D01*
X34417000Y-26924000D02*
X34417000Y-28448000D01*
D12*
X10033000Y-5397500D02*
X7493000Y-5397500D01*
X7493000Y-2857500D02*
X7493000Y-5397500D01*
X25273000Y-2857500D02*
X7493000Y-2857500D01*
X25273000Y-5397500D02*
X25273000Y-2857500D01*
D11*
G36*
X21314568Y-11876860D02*
G01*
X21314568Y-12076860D01*
X21214568Y-12076860D01*
X21214568Y-11876860D01*
X21314568Y-11876860D01*
G37*
X21314568Y-11876860D02*
X21314568Y-12076860D01*
X21214568Y-12076860D01*
X21214568Y-11876860D01*
X21314568Y-11876860D01*
G36*
X20914568Y-11276860D02*
G01*
X20914568Y-12076860D01*
X20814568Y-12076860D01*
X20814568Y-11276860D01*
X20914568Y-11276860D01*
G37*
X20914568Y-11276860D02*
X20914568Y-12076860D01*
X20814568Y-12076860D01*
X20814568Y-11276860D01*
X20914568Y-11276860D01*
G36*
X21314568Y-11276860D02*
G01*
X21314568Y-11376860D01*
X20814568Y-11376860D01*
X20814568Y-11276860D01*
X21314568Y-11276860D01*
G37*
X21314568Y-11276860D02*
X21314568Y-11376860D01*
X20814568Y-11376860D01*
X20814568Y-11276860D01*
X21314568Y-11276860D01*
G36*
X21114568Y-11676860D02*
G01*
X21114568Y-11776860D01*
X21014568Y-11776860D01*
X21014568Y-11676860D01*
X21114568Y-11676860D01*
G37*
X21114568Y-11676860D02*
X21114568Y-11776860D01*
X21014568Y-11776860D01*
X21014568Y-11676860D01*
X21114568Y-11676860D01*
G36*
X21314568Y-11276860D02*
G01*
X21314568Y-11576860D01*
X21214568Y-11576860D01*
X21214568Y-11276860D01*
X21314568Y-11276860D01*
G37*
X21314568Y-11276860D02*
X21314568Y-11576860D01*
X21214568Y-11576860D01*
X21214568Y-11276860D01*
X21314568Y-11276860D01*
D12*
X10033000Y-7937500D02*
X7493000Y-7937500D01*
X10033000Y-5397500D02*
X10033000Y-7937500D01*
X25273000Y-35877500D02*
X25273000Y-5397500D01*
X7493000Y-35877500D02*
X25273000Y-35877500D01*
X7493000Y-5397500D02*
X7493000Y-35877500D01*
D10*
X14351000Y-63952500D02*
X14351000Y-64952500D01*
X14851000Y-64452500D02*
X13851000Y-64452500D01*
X10851000Y-70552500D02*
X8451000Y-70552500D01*
X15651000Y-70552500D02*
X13051000Y-70552500D01*
X20251000Y-70552500D02*
X17851000Y-70552500D01*
X18451000Y-57252500D02*
X18151000Y-56952500D01*
X18451000Y-56652500D02*
X18451000Y-57252500D01*
X18151000Y-56952500D02*
X18451000Y-56652500D01*
X20251000Y-58352500D02*
X8451000Y-58352500D01*
X20251000Y-62452500D02*
X20251000Y-58352500D01*
X8451000Y-62452500D02*
X8451000Y-58352500D01*
X8451000Y-70552500D02*
X8451000Y-66452500D01*
X20251000Y-66452500D02*
X20251000Y-70552500D01*
X17351000Y-64452500D02*
G75*
G03*
X17351000Y-64452500I-3000000J0D01*
G01*
D11*
X20006880Y-47775571D02*
X20006880Y-47585095D01*
X20054500Y-47489857D01*
X20149738Y-47394619D01*
X20340214Y-47347000D01*
X20673547Y-47347000D01*
X20864023Y-47394619D01*
X20959261Y-47489857D01*
X21006880Y-47585095D01*
X21006880Y-47775571D01*
X20959261Y-47870809D01*
X20864023Y-47966047D01*
X20673547Y-48013666D01*
X20340214Y-48013666D01*
X20149738Y-47966047D01*
X20054500Y-47870809D01*
X20006880Y-47775571D01*
X21006880Y-46442238D02*
X21006880Y-46918428D01*
X20006880Y-46918428D01*
X20483071Y-46108904D02*
X20483071Y-45775571D01*
X21006880Y-45632714D02*
X21006880Y-46108904D01*
X20006880Y-46108904D01*
X20006880Y-45632714D01*
X21006880Y-45204142D02*
X20006880Y-45204142D01*
X20006880Y-44966047D01*
X20054500Y-44823190D01*
X20149738Y-44727952D01*
X20244976Y-44680333D01*
X20435452Y-44632714D01*
X20578309Y-44632714D01*
X20768785Y-44680333D01*
X20864023Y-44727952D01*
X20959261Y-44823190D01*
X21006880Y-44966047D01*
X21006880Y-45204142D01*
X21006880Y-43680333D02*
X21006880Y-44251761D01*
X21006880Y-43966047D02*
X20006880Y-43966047D01*
X20149738Y-44061285D01*
X20244976Y-44156523D01*
X20292595Y-44251761D01*
X91974333Y-8997904D02*
X91974333Y-8197904D01*
X92141000Y-8197904D01*
X92241000Y-8236000D01*
X92307666Y-8312190D01*
X92341000Y-8388380D01*
X92374333Y-8540761D01*
X92374333Y-8655047D01*
X92341000Y-8807428D01*
X92307666Y-8883619D01*
X92241000Y-8959809D01*
X92141000Y-8997904D01*
X91974333Y-8997904D01*
X92507666Y-9074095D02*
X93041000Y-9074095D01*
X93507666Y-8464571D02*
X93507666Y-8997904D01*
X93341000Y-8159809D02*
X93174333Y-8731238D01*
X93607666Y-8731238D01*
X94007666Y-8197904D02*
X94074333Y-8197904D01*
X94141000Y-8236000D01*
X94174333Y-8274095D01*
X94207666Y-8350285D01*
X94241000Y-8502666D01*
X94241000Y-8693142D01*
X94207666Y-8845523D01*
X94174333Y-8921714D01*
X94141000Y-8959809D01*
X94074333Y-8997904D01*
X94007666Y-8997904D01*
X93941000Y-8959809D01*
X93907666Y-8921714D01*
X93874333Y-8845523D01*
X93841000Y-8693142D01*
X93841000Y-8502666D01*
X93874333Y-8350285D01*
X93907666Y-8274095D01*
X93941000Y-8236000D01*
X94007666Y-8197904D01*
X72924333Y-8997904D02*
X72924333Y-8197904D01*
X73091000Y-8197904D01*
X73191000Y-8236000D01*
X73257666Y-8312190D01*
X73291000Y-8388380D01*
X73324333Y-8540761D01*
X73324333Y-8655047D01*
X73291000Y-8807428D01*
X73257666Y-8883619D01*
X73191000Y-8959809D01*
X73091000Y-8997904D01*
X72924333Y-8997904D01*
X73457666Y-9074095D02*
X73991000Y-9074095D01*
X74091000Y-8197904D02*
X74524333Y-8197904D01*
X74291000Y-8502666D01*
X74391000Y-8502666D01*
X74457666Y-8540761D01*
X74491000Y-8578857D01*
X74524333Y-8655047D01*
X74524333Y-8845523D01*
X74491000Y-8921714D01*
X74457666Y-8959809D01*
X74391000Y-8997904D01*
X74191000Y-8997904D01*
X74124333Y-8959809D01*
X74091000Y-8921714D01*
X74957666Y-8197904D02*
X75024333Y-8197904D01*
X75091000Y-8236000D01*
X75124333Y-8274095D01*
X75157666Y-8350285D01*
X75191000Y-8502666D01*
X75191000Y-8693142D01*
X75157666Y-8845523D01*
X75124333Y-8921714D01*
X75091000Y-8959809D01*
X75024333Y-8997904D01*
X74957666Y-8997904D01*
X74891000Y-8959809D01*
X74857666Y-8921714D01*
X74824333Y-8845523D01*
X74791000Y-8693142D01*
X74791000Y-8502666D01*
X74824333Y-8350285D01*
X74857666Y-8274095D01*
X74891000Y-8236000D01*
X74957666Y-8197904D01*
X53874333Y-8997904D02*
X53874333Y-8197904D01*
X54041000Y-8197904D01*
X54141000Y-8236000D01*
X54207666Y-8312190D01*
X54241000Y-8388380D01*
X54274333Y-8540761D01*
X54274333Y-8655047D01*
X54241000Y-8807428D01*
X54207666Y-8883619D01*
X54141000Y-8959809D01*
X54041000Y-8997904D01*
X53874333Y-8997904D01*
X54407666Y-9074095D02*
X54941000Y-9074095D01*
X55074333Y-8274095D02*
X55107666Y-8236000D01*
X55174333Y-8197904D01*
X55341000Y-8197904D01*
X55407666Y-8236000D01*
X55441000Y-8274095D01*
X55474333Y-8350285D01*
X55474333Y-8426476D01*
X55441000Y-8540761D01*
X55041000Y-8997904D01*
X55474333Y-8997904D01*
X55907666Y-8197904D02*
X55974333Y-8197904D01*
X56041000Y-8236000D01*
X56074333Y-8274095D01*
X56107666Y-8350285D01*
X56141000Y-8502666D01*
X56141000Y-8693142D01*
X56107666Y-8845523D01*
X56074333Y-8921714D01*
X56041000Y-8959809D01*
X55974333Y-8997904D01*
X55907666Y-8997904D01*
X55841000Y-8959809D01*
X55807666Y-8921714D01*
X55774333Y-8845523D01*
X55741000Y-8693142D01*
X55741000Y-8502666D01*
X55774333Y-8350285D01*
X55807666Y-8274095D01*
X55841000Y-8236000D01*
X55907666Y-8197904D01*
X34887833Y-8997904D02*
X34887833Y-8197904D01*
X35054500Y-8197904D01*
X35154500Y-8236000D01*
X35221166Y-8312190D01*
X35254500Y-8388380D01*
X35287833Y-8540761D01*
X35287833Y-8655047D01*
X35254500Y-8807428D01*
X35221166Y-8883619D01*
X35154500Y-8959809D01*
X35054500Y-8997904D01*
X34887833Y-8997904D01*
X35421166Y-9074095D02*
X35954500Y-9074095D01*
X36487833Y-8997904D02*
X36087833Y-8997904D01*
X36287833Y-8997904D02*
X36287833Y-8197904D01*
X36221166Y-8312190D01*
X36154500Y-8388380D01*
X36087833Y-8426476D01*
X36921166Y-8197904D02*
X36987833Y-8197904D01*
X37054500Y-8236000D01*
X37087833Y-8274095D01*
X37121166Y-8350285D01*
X37154500Y-8502666D01*
X37154500Y-8693142D01*
X37121166Y-8845523D01*
X37087833Y-8921714D01*
X37054500Y-8959809D01*
X36987833Y-8997904D01*
X36921166Y-8997904D01*
X36854500Y-8959809D01*
X36821166Y-8921714D01*
X36787833Y-8845523D01*
X36754500Y-8693142D01*
X36754500Y-8502666D01*
X36787833Y-8350285D01*
X36821166Y-8274095D01*
X36854500Y-8236000D01*
X36921166Y-8197904D01*
X16171166Y-85197904D02*
X16171166Y-84397904D01*
X16337833Y-84397904D01*
X16437833Y-84436000D01*
X16504500Y-84512190D01*
X16537833Y-84588380D01*
X16571166Y-84740761D01*
X16571166Y-84855047D01*
X16537833Y-85007428D01*
X16504500Y-85083619D01*
X16437833Y-85159809D01*
X16337833Y-85197904D01*
X16171166Y-85197904D01*
X16704500Y-85274095D02*
X17237833Y-85274095D01*
X17704500Y-84664571D02*
X17704500Y-85197904D01*
X17537833Y-84359809D02*
X17371166Y-84931238D01*
X17804500Y-84931238D01*
X16171166Y-81387904D02*
X16171166Y-80587904D01*
X16337833Y-80587904D01*
X16437833Y-80626000D01*
X16504500Y-80702190D01*
X16537833Y-80778380D01*
X16571166Y-80930761D01*
X16571166Y-81045047D01*
X16537833Y-81197428D01*
X16504500Y-81273619D01*
X16437833Y-81349809D01*
X16337833Y-81387904D01*
X16171166Y-81387904D01*
X16704500Y-81464095D02*
X17237833Y-81464095D01*
X17771166Y-81387904D02*
X17371166Y-81387904D01*
X17571166Y-81387904D02*
X17571166Y-80587904D01*
X17504500Y-80702190D01*
X17437833Y-80778380D01*
X17371166Y-80816476D01*
X78702833Y-82594404D02*
X78702833Y-81794404D01*
X78869500Y-81794404D01*
X78969500Y-81832500D01*
X79036166Y-81908690D01*
X79069500Y-81984880D01*
X79102833Y-82137261D01*
X79102833Y-82251547D01*
X79069500Y-82403928D01*
X79036166Y-82480119D01*
X78969500Y-82556309D01*
X78869500Y-82594404D01*
X78702833Y-82594404D01*
X79236166Y-82670595D02*
X79769500Y-82670595D01*
X80236166Y-82061071D02*
X80236166Y-82594404D01*
X80069500Y-81756309D02*
X79902833Y-82327738D01*
X80336166Y-82327738D01*
X80902833Y-82061071D02*
X80902833Y-82594404D01*
X80736166Y-81756309D02*
X80569500Y-82327738D01*
X81002833Y-82327738D01*
X90894833Y-65576404D02*
X90894833Y-64776404D01*
X91061500Y-64776404D01*
X91161500Y-64814500D01*
X91228166Y-64890690D01*
X91261500Y-64966880D01*
X91294833Y-65119261D01*
X91294833Y-65233547D01*
X91261500Y-65385928D01*
X91228166Y-65462119D01*
X91161500Y-65538309D01*
X91061500Y-65576404D01*
X90894833Y-65576404D01*
X91428166Y-65652595D02*
X91961500Y-65652595D01*
X92428166Y-65043071D02*
X92428166Y-65576404D01*
X92261500Y-64738309D02*
X92094833Y-65309738D01*
X92528166Y-65309738D01*
X92728166Y-64776404D02*
X93161500Y-64776404D01*
X92928166Y-65081166D01*
X93028166Y-65081166D01*
X93094833Y-65119261D01*
X93128166Y-65157357D01*
X93161500Y-65233547D01*
X93161500Y-65424023D01*
X93128166Y-65500214D01*
X93094833Y-65538309D01*
X93028166Y-65576404D01*
X92828166Y-65576404D01*
X92761500Y-65538309D01*
X92728166Y-65500214D01*
X82449333Y-62464904D02*
X82449333Y-61664904D01*
X82616000Y-61664904D01*
X82716000Y-61703000D01*
X82782666Y-61779190D01*
X82816000Y-61855380D01*
X82849333Y-62007761D01*
X82849333Y-62122047D01*
X82816000Y-62274428D01*
X82782666Y-62350619D01*
X82716000Y-62426809D01*
X82616000Y-62464904D01*
X82449333Y-62464904D01*
X82982666Y-62541095D02*
X83516000Y-62541095D01*
X83982666Y-61931571D02*
X83982666Y-62464904D01*
X83816000Y-61626809D02*
X83649333Y-62198238D01*
X84082666Y-62198238D01*
X84316000Y-61741095D02*
X84349333Y-61703000D01*
X84416000Y-61664904D01*
X84582666Y-61664904D01*
X84649333Y-61703000D01*
X84682666Y-61741095D01*
X84716000Y-61817285D01*
X84716000Y-61893476D01*
X84682666Y-62007761D01*
X84282666Y-62464904D01*
X84716000Y-62464904D01*
X90894833Y-27539904D02*
X90894833Y-26739904D01*
X91061500Y-26739904D01*
X91161500Y-26778000D01*
X91228166Y-26854190D01*
X91261500Y-26930380D01*
X91294833Y-27082761D01*
X91294833Y-27197047D01*
X91261500Y-27349428D01*
X91228166Y-27425619D01*
X91161500Y-27501809D01*
X91061500Y-27539904D01*
X90894833Y-27539904D01*
X91428166Y-27616095D02*
X91961500Y-27616095D01*
X92428166Y-27006571D02*
X92428166Y-27539904D01*
X92261500Y-26701809D02*
X92094833Y-27273238D01*
X92528166Y-27273238D01*
X93161500Y-27539904D02*
X92761500Y-27539904D01*
X92961500Y-27539904D02*
X92961500Y-26739904D01*
X92894833Y-26854190D01*
X92828166Y-26930380D01*
X92761500Y-26968476D01*
X72924333Y-85197904D02*
X72924333Y-84397904D01*
X73091000Y-84397904D01*
X73191000Y-84436000D01*
X73257666Y-84512190D01*
X73291000Y-84588380D01*
X73324333Y-84740761D01*
X73324333Y-84855047D01*
X73291000Y-85007428D01*
X73257666Y-85083619D01*
X73191000Y-85159809D01*
X73091000Y-85197904D01*
X72924333Y-85197904D01*
X73457666Y-85274095D02*
X73991000Y-85274095D01*
X74091000Y-84397904D02*
X74524333Y-84397904D01*
X74291000Y-84702666D01*
X74391000Y-84702666D01*
X74457666Y-84740761D01*
X74491000Y-84778857D01*
X74524333Y-84855047D01*
X74524333Y-85045523D01*
X74491000Y-85121714D01*
X74457666Y-85159809D01*
X74391000Y-85197904D01*
X74191000Y-85197904D01*
X74124333Y-85159809D01*
X74091000Y-85121714D01*
X75124333Y-84664571D02*
X75124333Y-85197904D01*
X74957666Y-84359809D02*
X74791000Y-84931238D01*
X75224333Y-84931238D01*
X72924333Y-66147904D02*
X72924333Y-65347904D01*
X73091000Y-65347904D01*
X73191000Y-65386000D01*
X73257666Y-65462190D01*
X73291000Y-65538380D01*
X73324333Y-65690761D01*
X73324333Y-65805047D01*
X73291000Y-65957428D01*
X73257666Y-66033619D01*
X73191000Y-66109809D01*
X73091000Y-66147904D01*
X72924333Y-66147904D01*
X73457666Y-66224095D02*
X73991000Y-66224095D01*
X74091000Y-65347904D02*
X74524333Y-65347904D01*
X74291000Y-65652666D01*
X74391000Y-65652666D01*
X74457666Y-65690761D01*
X74491000Y-65728857D01*
X74524333Y-65805047D01*
X74524333Y-65995523D01*
X74491000Y-66071714D01*
X74457666Y-66109809D01*
X74391000Y-66147904D01*
X74191000Y-66147904D01*
X74124333Y-66109809D01*
X74091000Y-66071714D01*
X74757666Y-65347904D02*
X75191000Y-65347904D01*
X74957666Y-65652666D01*
X75057666Y-65652666D01*
X75124333Y-65690761D01*
X75157666Y-65728857D01*
X75191000Y-65805047D01*
X75191000Y-65995523D01*
X75157666Y-66071714D01*
X75124333Y-66109809D01*
X75057666Y-66147904D01*
X74857666Y-66147904D01*
X74791000Y-66109809D01*
X74757666Y-66071714D01*
X72924333Y-47097904D02*
X72924333Y-46297904D01*
X73091000Y-46297904D01*
X73191000Y-46336000D01*
X73257666Y-46412190D01*
X73291000Y-46488380D01*
X73324333Y-46640761D01*
X73324333Y-46755047D01*
X73291000Y-46907428D01*
X73257666Y-46983619D01*
X73191000Y-47059809D01*
X73091000Y-47097904D01*
X72924333Y-47097904D01*
X73457666Y-47174095D02*
X73991000Y-47174095D01*
X74091000Y-46297904D02*
X74524333Y-46297904D01*
X74291000Y-46602666D01*
X74391000Y-46602666D01*
X74457666Y-46640761D01*
X74491000Y-46678857D01*
X74524333Y-46755047D01*
X74524333Y-46945523D01*
X74491000Y-47021714D01*
X74457666Y-47059809D01*
X74391000Y-47097904D01*
X74191000Y-47097904D01*
X74124333Y-47059809D01*
X74091000Y-47021714D01*
X74791000Y-46374095D02*
X74824333Y-46336000D01*
X74891000Y-46297904D01*
X75057666Y-46297904D01*
X75124333Y-46336000D01*
X75157666Y-46374095D01*
X75191000Y-46450285D01*
X75191000Y-46526476D01*
X75157666Y-46640761D01*
X74757666Y-47097904D01*
X75191000Y-47097904D01*
X72924333Y-28047904D02*
X72924333Y-27247904D01*
X73091000Y-27247904D01*
X73191000Y-27286000D01*
X73257666Y-27362190D01*
X73291000Y-27438380D01*
X73324333Y-27590761D01*
X73324333Y-27705047D01*
X73291000Y-27857428D01*
X73257666Y-27933619D01*
X73191000Y-28009809D01*
X73091000Y-28047904D01*
X72924333Y-28047904D01*
X73457666Y-28124095D02*
X73991000Y-28124095D01*
X74091000Y-27247904D02*
X74524333Y-27247904D01*
X74291000Y-27552666D01*
X74391000Y-27552666D01*
X74457666Y-27590761D01*
X74491000Y-27628857D01*
X74524333Y-27705047D01*
X74524333Y-27895523D01*
X74491000Y-27971714D01*
X74457666Y-28009809D01*
X74391000Y-28047904D01*
X74191000Y-28047904D01*
X74124333Y-28009809D01*
X74091000Y-27971714D01*
X75191000Y-28047904D02*
X74791000Y-28047904D01*
X74991000Y-28047904D02*
X74991000Y-27247904D01*
X74924333Y-27362190D01*
X74857666Y-27438380D01*
X74791000Y-27476476D01*
X48857833Y-85261404D02*
X48857833Y-84461404D01*
X49024500Y-84461404D01*
X49124500Y-84499500D01*
X49191166Y-84575690D01*
X49224500Y-84651880D01*
X49257833Y-84804261D01*
X49257833Y-84918547D01*
X49224500Y-85070928D01*
X49191166Y-85147119D01*
X49124500Y-85223309D01*
X49024500Y-85261404D01*
X48857833Y-85261404D01*
X49391166Y-85337595D02*
X49924500Y-85337595D01*
X50057833Y-84537595D02*
X50091166Y-84499500D01*
X50157833Y-84461404D01*
X50324500Y-84461404D01*
X50391166Y-84499500D01*
X50424500Y-84537595D01*
X50457833Y-84613785D01*
X50457833Y-84689976D01*
X50424500Y-84804261D01*
X50024500Y-85261404D01*
X50457833Y-85261404D01*
X51057833Y-84728071D02*
X51057833Y-85261404D01*
X50891166Y-84423309D02*
X50724500Y-84994738D01*
X51157833Y-84994738D01*
X53874333Y-66147904D02*
X53874333Y-65347904D01*
X54041000Y-65347904D01*
X54141000Y-65386000D01*
X54207666Y-65462190D01*
X54241000Y-65538380D01*
X54274333Y-65690761D01*
X54274333Y-65805047D01*
X54241000Y-65957428D01*
X54207666Y-66033619D01*
X54141000Y-66109809D01*
X54041000Y-66147904D01*
X53874333Y-66147904D01*
X54407666Y-66224095D02*
X54941000Y-66224095D01*
X55074333Y-65424095D02*
X55107666Y-65386000D01*
X55174333Y-65347904D01*
X55341000Y-65347904D01*
X55407666Y-65386000D01*
X55441000Y-65424095D01*
X55474333Y-65500285D01*
X55474333Y-65576476D01*
X55441000Y-65690761D01*
X55041000Y-66147904D01*
X55474333Y-66147904D01*
X55707666Y-65347904D02*
X56141000Y-65347904D01*
X55907666Y-65652666D01*
X56007666Y-65652666D01*
X56074333Y-65690761D01*
X56107666Y-65728857D01*
X56141000Y-65805047D01*
X56141000Y-65995523D01*
X56107666Y-66071714D01*
X56074333Y-66109809D01*
X56007666Y-66147904D01*
X55807666Y-66147904D01*
X55741000Y-66109809D01*
X55707666Y-66071714D01*
X53937833Y-47097904D02*
X53937833Y-46297904D01*
X54104500Y-46297904D01*
X54204500Y-46336000D01*
X54271166Y-46412190D01*
X54304500Y-46488380D01*
X54337833Y-46640761D01*
X54337833Y-46755047D01*
X54304500Y-46907428D01*
X54271166Y-46983619D01*
X54204500Y-47059809D01*
X54104500Y-47097904D01*
X53937833Y-47097904D01*
X54471166Y-47174095D02*
X55004500Y-47174095D01*
X55137833Y-46374095D02*
X55171166Y-46336000D01*
X55237833Y-46297904D01*
X55404500Y-46297904D01*
X55471166Y-46336000D01*
X55504500Y-46374095D01*
X55537833Y-46450285D01*
X55537833Y-46526476D01*
X55504500Y-46640761D01*
X55104500Y-47097904D01*
X55537833Y-47097904D01*
X55804500Y-46374095D02*
X55837833Y-46336000D01*
X55904500Y-46297904D01*
X56071166Y-46297904D01*
X56137833Y-46336000D01*
X56171166Y-46374095D01*
X56204500Y-46450285D01*
X56204500Y-46526476D01*
X56171166Y-46640761D01*
X55771166Y-47097904D01*
X56204500Y-47097904D01*
X53874333Y-28047904D02*
X53874333Y-27247904D01*
X54041000Y-27247904D01*
X54141000Y-27286000D01*
X54207666Y-27362190D01*
X54241000Y-27438380D01*
X54274333Y-27590761D01*
X54274333Y-27705047D01*
X54241000Y-27857428D01*
X54207666Y-27933619D01*
X54141000Y-28009809D01*
X54041000Y-28047904D01*
X53874333Y-28047904D01*
X54407666Y-28124095D02*
X54941000Y-28124095D01*
X55074333Y-27324095D02*
X55107666Y-27286000D01*
X55174333Y-27247904D01*
X55341000Y-27247904D01*
X55407666Y-27286000D01*
X55441000Y-27324095D01*
X55474333Y-27400285D01*
X55474333Y-27476476D01*
X55441000Y-27590761D01*
X55041000Y-28047904D01*
X55474333Y-28047904D01*
X56141000Y-28047904D02*
X55741000Y-28047904D01*
X55941000Y-28047904D02*
X55941000Y-27247904D01*
X55874333Y-27362190D01*
X55807666Y-27438380D01*
X55741000Y-27476476D01*
X40221833Y-82594404D02*
X40221833Y-81794404D01*
X40388500Y-81794404D01*
X40488500Y-81832500D01*
X40555166Y-81908690D01*
X40588500Y-81984880D01*
X40621833Y-82137261D01*
X40621833Y-82251547D01*
X40588500Y-82403928D01*
X40555166Y-82480119D01*
X40488500Y-82556309D01*
X40388500Y-82594404D01*
X40221833Y-82594404D01*
X40755166Y-82670595D02*
X41288500Y-82670595D01*
X41821833Y-82594404D02*
X41421833Y-82594404D01*
X41621833Y-82594404D02*
X41621833Y-81794404D01*
X41555166Y-81908690D01*
X41488500Y-81984880D01*
X41421833Y-82022976D01*
X42421833Y-82061071D02*
X42421833Y-82594404D01*
X42255166Y-81756309D02*
X42088500Y-82327738D01*
X42521833Y-82327738D01*
X34824333Y-66147904D02*
X34824333Y-65347904D01*
X34991000Y-65347904D01*
X35091000Y-65386000D01*
X35157666Y-65462190D01*
X35191000Y-65538380D01*
X35224333Y-65690761D01*
X35224333Y-65805047D01*
X35191000Y-65957428D01*
X35157666Y-66033619D01*
X35091000Y-66109809D01*
X34991000Y-66147904D01*
X34824333Y-66147904D01*
X35357666Y-66224095D02*
X35891000Y-66224095D01*
X36424333Y-66147904D02*
X36024333Y-66147904D01*
X36224333Y-66147904D02*
X36224333Y-65347904D01*
X36157666Y-65462190D01*
X36091000Y-65538380D01*
X36024333Y-65576476D01*
X36657666Y-65347904D02*
X37091000Y-65347904D01*
X36857666Y-65652666D01*
X36957666Y-65652666D01*
X37024333Y-65690761D01*
X37057666Y-65728857D01*
X37091000Y-65805047D01*
X37091000Y-65995523D01*
X37057666Y-66071714D01*
X37024333Y-66109809D01*
X36957666Y-66147904D01*
X36757666Y-66147904D01*
X36691000Y-66109809D01*
X36657666Y-66071714D01*
X34887833Y-47097904D02*
X34887833Y-46297904D01*
X35054500Y-46297904D01*
X35154500Y-46336000D01*
X35221166Y-46412190D01*
X35254500Y-46488380D01*
X35287833Y-46640761D01*
X35287833Y-46755047D01*
X35254500Y-46907428D01*
X35221166Y-46983619D01*
X35154500Y-47059809D01*
X35054500Y-47097904D01*
X34887833Y-47097904D01*
X35421166Y-47174095D02*
X35954500Y-47174095D01*
X36487833Y-47097904D02*
X36087833Y-47097904D01*
X36287833Y-47097904D02*
X36287833Y-46297904D01*
X36221166Y-46412190D01*
X36154500Y-46488380D01*
X36087833Y-46526476D01*
X36754500Y-46374095D02*
X36787833Y-46336000D01*
X36854500Y-46297904D01*
X37021166Y-46297904D01*
X37087833Y-46336000D01*
X37121166Y-46374095D01*
X37154500Y-46450285D01*
X37154500Y-46526476D01*
X37121166Y-46640761D01*
X36721166Y-47097904D01*
X37154500Y-47097904D01*
X34824333Y-28047904D02*
X34824333Y-27247904D01*
X34991000Y-27247904D01*
X35091000Y-27286000D01*
X35157666Y-27362190D01*
X35191000Y-27438380D01*
X35224333Y-27590761D01*
X35224333Y-27705047D01*
X35191000Y-27857428D01*
X35157666Y-27933619D01*
X35091000Y-28009809D01*
X34991000Y-28047904D01*
X34824333Y-28047904D01*
X35357666Y-28124095D02*
X35891000Y-28124095D01*
X36424333Y-28047904D02*
X36024333Y-28047904D01*
X36224333Y-28047904D02*
X36224333Y-27247904D01*
X36157666Y-27362190D01*
X36091000Y-27438380D01*
X36024333Y-27476476D01*
X37091000Y-28047904D02*
X36691000Y-28047904D01*
X36891000Y-28047904D02*
X36891000Y-27247904D01*
X36824333Y-27362190D01*
X36757666Y-27438380D01*
X36691000Y-27476476D01*
X10620651Y-6229404D02*
X11077794Y-6229404D01*
X10849223Y-7029404D02*
X10849223Y-6229404D01*
X11268270Y-6229404D02*
X11801604Y-7029404D01*
X11801604Y-6229404D02*
X11268270Y-7029404D01*
X12258747Y-6229404D02*
X12334937Y-6229404D01*
X12411128Y-6267500D01*
X12449223Y-6305595D01*
X12487318Y-6381785D01*
X12525413Y-6534166D01*
X12525413Y-6724642D01*
X12487318Y-6877023D01*
X12449223Y-6953214D01*
X12411128Y-6991309D01*
X12334937Y-7029404D01*
X12258747Y-7029404D01*
X12182556Y-6991309D01*
X12144461Y-6953214D01*
X12106366Y-6877023D01*
X12068270Y-6724642D01*
X12068270Y-6534166D01*
X12106366Y-6381785D01*
X12144461Y-6305595D01*
X12182556Y-6267500D01*
X12258747Y-6229404D01*
X13439699Y-6191309D02*
X12753985Y-7219880D01*
X13706366Y-7029404D02*
X13706366Y-6229404D01*
X13896842Y-6229404D01*
X14011128Y-6267500D01*
X14087318Y-6343690D01*
X14125413Y-6419880D01*
X14163508Y-6572261D01*
X14163508Y-6686547D01*
X14125413Y-6838928D01*
X14087318Y-6915119D01*
X14011128Y-6991309D01*
X13896842Y-7029404D01*
X13706366Y-7029404D01*
X14430175Y-6229404D02*
X14925413Y-6229404D01*
X14658747Y-6534166D01*
X14773032Y-6534166D01*
X14849223Y-6572261D01*
X14887318Y-6610357D01*
X14925413Y-6686547D01*
X14925413Y-6877023D01*
X14887318Y-6953214D01*
X14849223Y-6991309D01*
X14773032Y-7029404D01*
X14544461Y-7029404D01*
X14468270Y-6991309D01*
X14430175Y-6953214D01*
X10331523Y-9569404D02*
X10331523Y-8769404D01*
X10522000Y-8769404D01*
X10636285Y-8807500D01*
X10712476Y-8883690D01*
X10750571Y-8959880D01*
X10788666Y-9112261D01*
X10788666Y-9226547D01*
X10750571Y-9378928D01*
X10712476Y-9455119D01*
X10636285Y-9531309D01*
X10522000Y-9569404D01*
X10331523Y-9569404D01*
X11093428Y-8845595D02*
X11131523Y-8807500D01*
X11207714Y-8769404D01*
X11398190Y-8769404D01*
X11474380Y-8807500D01*
X11512476Y-8845595D01*
X11550571Y-8921785D01*
X11550571Y-8997976D01*
X11512476Y-9112261D01*
X11055333Y-9569404D01*
X11550571Y-9569404D01*
X10331523Y-19729404D02*
X10331523Y-18929404D01*
X10522000Y-18929404D01*
X10636285Y-18967500D01*
X10712476Y-19043690D01*
X10750571Y-19119880D01*
X10788666Y-19272261D01*
X10788666Y-19386547D01*
X10750571Y-19538928D01*
X10712476Y-19615119D01*
X10636285Y-19691309D01*
X10522000Y-19729404D01*
X10331523Y-19729404D01*
X11283904Y-18929404D02*
X11360095Y-18929404D01*
X11436285Y-18967500D01*
X11474380Y-19005595D01*
X11512476Y-19081785D01*
X11550571Y-19234166D01*
X11550571Y-19424642D01*
X11512476Y-19577023D01*
X11474380Y-19653214D01*
X11436285Y-19691309D01*
X11360095Y-19729404D01*
X11283904Y-19729404D01*
X11207714Y-19691309D01*
X11169619Y-19653214D01*
X11131523Y-19577023D01*
X11093428Y-19424642D01*
X11093428Y-19234166D01*
X11131523Y-19081785D01*
X11169619Y-19005595D01*
X11207714Y-18967500D01*
X11283904Y-18929404D01*
X10331523Y-17189404D02*
X10331523Y-16389404D01*
X10522000Y-16389404D01*
X10636285Y-16427500D01*
X10712476Y-16503690D01*
X10750571Y-16579880D01*
X10788666Y-16732261D01*
X10788666Y-16846547D01*
X10750571Y-16998928D01*
X10712476Y-17075119D01*
X10636285Y-17151309D01*
X10522000Y-17189404D01*
X10331523Y-17189404D01*
X11550571Y-17189404D02*
X11093428Y-17189404D01*
X11322000Y-17189404D02*
X11322000Y-16389404D01*
X11245809Y-16503690D01*
X11169619Y-16579880D01*
X11093428Y-16617976D01*
X10312476Y-13887500D02*
X10236285Y-13849404D01*
X10122000Y-13849404D01*
X10007714Y-13887500D01*
X9931523Y-13963690D01*
X9893428Y-14039880D01*
X9855333Y-14192261D01*
X9855333Y-14306547D01*
X9893428Y-14458928D01*
X9931523Y-14535119D01*
X10007714Y-14611309D01*
X10122000Y-14649404D01*
X10198190Y-14649404D01*
X10312476Y-14611309D01*
X10350571Y-14573214D01*
X10350571Y-14306547D01*
X10198190Y-14306547D01*
X10693428Y-14649404D02*
X10693428Y-13849404D01*
X11150571Y-14649404D01*
X11150571Y-13849404D01*
X11531523Y-14649404D02*
X11531523Y-13849404D01*
X11722000Y-13849404D01*
X11836285Y-13887500D01*
X11912476Y-13963690D01*
X11950571Y-14039880D01*
X11988666Y-14192261D01*
X11988666Y-14306547D01*
X11950571Y-14458928D01*
X11912476Y-14535119D01*
X11836285Y-14611309D01*
X11722000Y-14649404D01*
X11531523Y-14649404D01*
X10312476Y-11347500D02*
X10236285Y-11309404D01*
X10122000Y-11309404D01*
X10007714Y-11347500D01*
X9931523Y-11423690D01*
X9893428Y-11499880D01*
X9855333Y-11652261D01*
X9855333Y-11766547D01*
X9893428Y-11918928D01*
X9931523Y-11995119D01*
X10007714Y-12071309D01*
X10122000Y-12109404D01*
X10198190Y-12109404D01*
X10312476Y-12071309D01*
X10350571Y-12033214D01*
X10350571Y-11766547D01*
X10198190Y-11766547D01*
X10693428Y-12109404D02*
X10693428Y-11309404D01*
X11150571Y-12109404D01*
X11150571Y-11309404D01*
X11531523Y-12109404D02*
X11531523Y-11309404D01*
X11722000Y-11309404D01*
X11836285Y-11347500D01*
X11912476Y-11423690D01*
X11950571Y-11499880D01*
X11988666Y-11652261D01*
X11988666Y-11766547D01*
X11950571Y-11918928D01*
X11912476Y-11995119D01*
X11836285Y-12071309D01*
X11722000Y-12109404D01*
X11531523Y-12109404D01*
X10331523Y-22269404D02*
X10331523Y-21469404D01*
X10522000Y-21469404D01*
X10636285Y-21507500D01*
X10712476Y-21583690D01*
X10750571Y-21659880D01*
X10788666Y-21812261D01*
X10788666Y-21926547D01*
X10750571Y-22078928D01*
X10712476Y-22155119D01*
X10636285Y-22231309D01*
X10522000Y-22269404D01*
X10331523Y-22269404D01*
X11474380Y-21736071D02*
X11474380Y-22269404D01*
X11283904Y-21431309D02*
X11093428Y-22002738D01*
X11588666Y-22002738D01*
X10788666Y-24733214D02*
X10750571Y-24771309D01*
X10636285Y-24809404D01*
X10560095Y-24809404D01*
X10445809Y-24771309D01*
X10369619Y-24695119D01*
X10331523Y-24618928D01*
X10293428Y-24466547D01*
X10293428Y-24352261D01*
X10331523Y-24199880D01*
X10369619Y-24123690D01*
X10445809Y-24047500D01*
X10560095Y-24009404D01*
X10636285Y-24009404D01*
X10750571Y-24047500D01*
X10788666Y-24085595D01*
X11474380Y-24009404D02*
X11322000Y-24009404D01*
X11245809Y-24047500D01*
X11207714Y-24085595D01*
X11131523Y-24199880D01*
X11093428Y-24352261D01*
X11093428Y-24657023D01*
X11131523Y-24733214D01*
X11169619Y-24771309D01*
X11245809Y-24809404D01*
X11398190Y-24809404D01*
X11474380Y-24771309D01*
X11512476Y-24733214D01*
X11550571Y-24657023D01*
X11550571Y-24466547D01*
X11512476Y-24390357D01*
X11474380Y-24352261D01*
X11398190Y-24314166D01*
X11245809Y-24314166D01*
X11169619Y-24352261D01*
X11131523Y-24390357D01*
X11093428Y-24466547D01*
X10331523Y-27349404D02*
X10331523Y-26549404D01*
X10522000Y-26549404D01*
X10636285Y-26587500D01*
X10712476Y-26663690D01*
X10750571Y-26739880D01*
X10788666Y-26892261D01*
X10788666Y-27006547D01*
X10750571Y-27158928D01*
X10712476Y-27235119D01*
X10636285Y-27311309D01*
X10522000Y-27349404D01*
X10331523Y-27349404D01*
X11055333Y-26549404D02*
X11588666Y-26549404D01*
X11245809Y-27349404D01*
X10369619Y-29470357D02*
X10636285Y-29470357D01*
X10750571Y-29889404D02*
X10369619Y-29889404D01*
X10369619Y-29089404D01*
X10750571Y-29089404D01*
X11436285Y-29089404D02*
X11283904Y-29089404D01*
X11207714Y-29127500D01*
X11169619Y-29165595D01*
X11093428Y-29279880D01*
X11055333Y-29432261D01*
X11055333Y-29737023D01*
X11093428Y-29813214D01*
X11131523Y-29851309D01*
X11207714Y-29889404D01*
X11360095Y-29889404D01*
X11436285Y-29851309D01*
X11474380Y-29813214D01*
X11512476Y-29737023D01*
X11512476Y-29546547D01*
X11474380Y-29470357D01*
X11436285Y-29432261D01*
X11360095Y-29394166D01*
X11207714Y-29394166D01*
X11131523Y-29432261D01*
X11093428Y-29470357D01*
X11055333Y-29546547D01*
X10598190Y-32010357D02*
X10712476Y-32048452D01*
X10750571Y-32086547D01*
X10788666Y-32162738D01*
X10788666Y-32277023D01*
X10750571Y-32353214D01*
X10712476Y-32391309D01*
X10636285Y-32429404D01*
X10331523Y-32429404D01*
X10331523Y-31629404D01*
X10598190Y-31629404D01*
X10674380Y-31667500D01*
X10712476Y-31705595D01*
X10750571Y-31781785D01*
X10750571Y-31857976D01*
X10712476Y-31934166D01*
X10674380Y-31972261D01*
X10598190Y-32010357D01*
X10331523Y-32010357D01*
X11474380Y-31896071D02*
X11474380Y-32429404D01*
X11283904Y-31591309D02*
X11093428Y-32162738D01*
X11588666Y-32162738D01*
X10598190Y-34550357D02*
X10712476Y-34588452D01*
X10750571Y-34626547D01*
X10788666Y-34702738D01*
X10788666Y-34817023D01*
X10750571Y-34893214D01*
X10712476Y-34931309D01*
X10636285Y-34969404D01*
X10331523Y-34969404D01*
X10331523Y-34169404D01*
X10598190Y-34169404D01*
X10674380Y-34207500D01*
X10712476Y-34245595D01*
X10750571Y-34321785D01*
X10750571Y-34397976D01*
X10712476Y-34474166D01*
X10674380Y-34512261D01*
X10598190Y-34550357D01*
X10331523Y-34550357D01*
X11512476Y-34169404D02*
X11131523Y-34169404D01*
X11093428Y-34550357D01*
X11131523Y-34512261D01*
X11207714Y-34474166D01*
X11398190Y-34474166D01*
X11474380Y-34512261D01*
X11512476Y-34550357D01*
X11550571Y-34626547D01*
X11550571Y-34817023D01*
X11512476Y-34893214D01*
X11474380Y-34931309D01*
X11398190Y-34969404D01*
X11207714Y-34969404D01*
X11131523Y-34931309D01*
X11093428Y-34893214D01*
X21520190Y-34550357D02*
X21634476Y-34588452D01*
X21672571Y-34626547D01*
X21710666Y-34702738D01*
X21710666Y-34817023D01*
X21672571Y-34893214D01*
X21634476Y-34931309D01*
X21558285Y-34969404D01*
X21253523Y-34969404D01*
X21253523Y-34169404D01*
X21520190Y-34169404D01*
X21596380Y-34207500D01*
X21634476Y-34245595D01*
X21672571Y-34321785D01*
X21672571Y-34397976D01*
X21634476Y-34474166D01*
X21596380Y-34512261D01*
X21520190Y-34550357D01*
X21253523Y-34550357D01*
X22396380Y-34169404D02*
X22244000Y-34169404D01*
X22167809Y-34207500D01*
X22129714Y-34245595D01*
X22053523Y-34359880D01*
X22015428Y-34512261D01*
X22015428Y-34817023D01*
X22053523Y-34893214D01*
X22091619Y-34931309D01*
X22167809Y-34969404D01*
X22320190Y-34969404D01*
X22396380Y-34931309D01*
X22434476Y-34893214D01*
X22472571Y-34817023D01*
X22472571Y-34626547D01*
X22434476Y-34550357D01*
X22396380Y-34512261D01*
X22320190Y-34474166D01*
X22167809Y-34474166D01*
X22091619Y-34512261D01*
X22053523Y-34550357D01*
X22015428Y-34626547D01*
X21520190Y-29470357D02*
X21634476Y-29508452D01*
X21672571Y-29546547D01*
X21710666Y-29622738D01*
X21710666Y-29737023D01*
X21672571Y-29813214D01*
X21634476Y-29851309D01*
X21558285Y-29889404D01*
X21253523Y-29889404D01*
X21253523Y-29089404D01*
X21520190Y-29089404D01*
X21596380Y-29127500D01*
X21634476Y-29165595D01*
X21672571Y-29241785D01*
X21672571Y-29317976D01*
X21634476Y-29394166D01*
X21596380Y-29432261D01*
X21520190Y-29470357D01*
X21253523Y-29470357D01*
X21977333Y-29089404D02*
X22472571Y-29089404D01*
X22205904Y-29394166D01*
X22320190Y-29394166D01*
X22396380Y-29432261D01*
X22434476Y-29470357D01*
X22472571Y-29546547D01*
X22472571Y-29737023D01*
X22434476Y-29813214D01*
X22396380Y-29851309D01*
X22320190Y-29889404D01*
X22091619Y-29889404D01*
X22015428Y-29851309D01*
X21977333Y-29813214D01*
X21520190Y-26930357D02*
X21634476Y-26968452D01*
X21672571Y-27006547D01*
X21710666Y-27082738D01*
X21710666Y-27197023D01*
X21672571Y-27273214D01*
X21634476Y-27311309D01*
X21558285Y-27349404D01*
X21253523Y-27349404D01*
X21253523Y-26549404D01*
X21520190Y-26549404D01*
X21596380Y-26587500D01*
X21634476Y-26625595D01*
X21672571Y-26701785D01*
X21672571Y-26777976D01*
X21634476Y-26854166D01*
X21596380Y-26892261D01*
X21520190Y-26930357D01*
X21253523Y-26930357D01*
X22472571Y-27349404D02*
X22015428Y-27349404D01*
X22244000Y-27349404D02*
X22244000Y-26549404D01*
X22167809Y-26663690D01*
X22091619Y-26739880D01*
X22015428Y-26777976D01*
X21577333Y-16770357D02*
X21310666Y-16770357D01*
X21310666Y-17189404D02*
X21310666Y-16389404D01*
X21691619Y-16389404D01*
X22339238Y-16656071D02*
X22339238Y-17189404D01*
X22148761Y-16351309D02*
X21958285Y-16922738D01*
X22453523Y-16922738D01*
X20777333Y-13849404D02*
X21044000Y-14649404D01*
X21310666Y-13849404D01*
X22034476Y-14573214D02*
X21996380Y-14611309D01*
X21882095Y-14649404D01*
X21805904Y-14649404D01*
X21691619Y-14611309D01*
X21615428Y-14535119D01*
X21577333Y-14458928D01*
X21539238Y-14306547D01*
X21539238Y-14192261D01*
X21577333Y-14039880D01*
X21615428Y-13963690D01*
X21691619Y-13887500D01*
X21805904Y-13849404D01*
X21882095Y-13849404D01*
X21996380Y-13887500D01*
X22034476Y-13925595D01*
X22834476Y-14573214D02*
X22796380Y-14611309D01*
X22682095Y-14649404D01*
X22605904Y-14649404D01*
X22491619Y-14611309D01*
X22415428Y-14535119D01*
X22377333Y-14458928D01*
X22339238Y-14306547D01*
X22339238Y-14192261D01*
X22377333Y-14039880D01*
X22415428Y-13963690D01*
X22491619Y-13887500D01*
X22605904Y-13849404D01*
X22682095Y-13849404D01*
X22796380Y-13887500D01*
X22834476Y-13925595D01*
X21582786Y-12041309D02*
X21697072Y-12079404D01*
X21887548Y-12079404D01*
X21963739Y-12041309D01*
X22001834Y-12003214D01*
X22039929Y-11927023D01*
X22039929Y-11850833D01*
X22001834Y-11774642D01*
X21963739Y-11736547D01*
X21887548Y-11698452D01*
X21735167Y-11660357D01*
X21658977Y-11622261D01*
X21620881Y-11584166D01*
X21582786Y-11507976D01*
X21582786Y-11431785D01*
X21620881Y-11355595D01*
X21658977Y-11317500D01*
X21735167Y-11279404D01*
X21925643Y-11279404D01*
X22039929Y-11317500D01*
X22268500Y-11279404D02*
X22725643Y-11279404D01*
X22497072Y-12079404D02*
X22497072Y-11279404D01*
X21234476Y-8807500D02*
X21158285Y-8769404D01*
X21044000Y-8769404D01*
X20929714Y-8807500D01*
X20853523Y-8883690D01*
X20815428Y-8959880D01*
X20777333Y-9112261D01*
X20777333Y-9226547D01*
X20815428Y-9378928D01*
X20853523Y-9455119D01*
X20929714Y-9531309D01*
X21044000Y-9569404D01*
X21120190Y-9569404D01*
X21234476Y-9531309D01*
X21272571Y-9493214D01*
X21272571Y-9226547D01*
X21120190Y-9226547D01*
X21615428Y-9569404D02*
X21615428Y-8769404D01*
X22072571Y-9569404D01*
X22072571Y-8769404D01*
X22453523Y-9569404D02*
X22453523Y-8769404D01*
X22644000Y-8769404D01*
X22758285Y-8807500D01*
X22834476Y-8883690D01*
X22872571Y-8959880D01*
X22910666Y-9112261D01*
X22910666Y-9226547D01*
X22872571Y-9378928D01*
X22834476Y-9455119D01*
X22758285Y-9531309D01*
X22644000Y-9569404D01*
X22453523Y-9569404D01*
X21291619Y-7029404D02*
X21024952Y-6648452D01*
X20834476Y-7029404D02*
X20834476Y-6229404D01*
X21139238Y-6229404D01*
X21215428Y-6267500D01*
X21253523Y-6305595D01*
X21291619Y-6381785D01*
X21291619Y-6496071D01*
X21253523Y-6572261D01*
X21215428Y-6610357D01*
X21139238Y-6648452D01*
X20834476Y-6648452D01*
X21596380Y-6800833D02*
X21977333Y-6800833D01*
X21520190Y-7029404D02*
X21786857Y-6229404D01*
X22053523Y-7029404D01*
X22244000Y-6229404D02*
X22434476Y-7029404D01*
X22586857Y-6457976D01*
X22739238Y-7029404D01*
X22929714Y-6229404D01*
X21577333Y-19310357D02*
X21310666Y-19310357D01*
X21310666Y-19729404D02*
X21310666Y-18929404D01*
X21691619Y-18929404D01*
X22377333Y-18929404D02*
X21996380Y-18929404D01*
X21958285Y-19310357D01*
X21996380Y-19272261D01*
X22072571Y-19234166D01*
X22263047Y-19234166D01*
X22339238Y-19272261D01*
X22377333Y-19310357D01*
X22415428Y-19386547D01*
X22415428Y-19577023D01*
X22377333Y-19653214D01*
X22339238Y-19691309D01*
X22263047Y-19729404D01*
X22072571Y-19729404D01*
X21996380Y-19691309D01*
X21958285Y-19653214D01*
X21577333Y-21850357D02*
X21310666Y-21850357D01*
X21310666Y-22269404D02*
X21310666Y-21469404D01*
X21691619Y-21469404D01*
X22339238Y-21469404D02*
X22186857Y-21469404D01*
X22110666Y-21507500D01*
X22072571Y-21545595D01*
X21996380Y-21659880D01*
X21958285Y-21812261D01*
X21958285Y-22117023D01*
X21996380Y-22193214D01*
X22034476Y-22231309D01*
X22110666Y-22269404D01*
X22263047Y-22269404D01*
X22339238Y-22231309D01*
X22377333Y-22193214D01*
X22415428Y-22117023D01*
X22415428Y-21926547D01*
X22377333Y-21850357D01*
X22339238Y-21812261D01*
X22263047Y-21774166D01*
X22110666Y-21774166D01*
X22034476Y-21812261D01*
X21996380Y-21850357D01*
X21958285Y-21926547D01*
X21577333Y-24390357D02*
X21310666Y-24390357D01*
X21310666Y-24809404D02*
X21310666Y-24009404D01*
X21691619Y-24009404D01*
X21920190Y-24009404D02*
X22453523Y-24009404D01*
X22110666Y-24809404D01*
X21520190Y-32010357D02*
X21634476Y-32048452D01*
X21672571Y-32086547D01*
X21710666Y-32162738D01*
X21710666Y-32277023D01*
X21672571Y-32353214D01*
X21634476Y-32391309D01*
X21558285Y-32429404D01*
X21253523Y-32429404D01*
X21253523Y-31629404D01*
X21520190Y-31629404D01*
X21596380Y-31667500D01*
X21634476Y-31705595D01*
X21672571Y-31781785D01*
X21672571Y-31857976D01*
X21634476Y-31934166D01*
X21596380Y-31972261D01*
X21520190Y-32010357D01*
X21253523Y-32010357D01*
X22015428Y-31705595D02*
X22053523Y-31667500D01*
X22129714Y-31629404D01*
X22320190Y-31629404D01*
X22396380Y-31667500D01*
X22434476Y-31705595D01*
X22472571Y-31781785D01*
X22472571Y-31857976D01*
X22434476Y-31972261D01*
X21977333Y-32429404D01*
X22472571Y-32429404D01*
X21955761Y-61085833D02*
X22003380Y-60942976D01*
X22003380Y-60704880D01*
X21955761Y-60609642D01*
X21908142Y-60562023D01*
X21812904Y-60514404D01*
X21717666Y-60514404D01*
X21622428Y-60562023D01*
X21574809Y-60609642D01*
X21527190Y-60704880D01*
X21479571Y-60895357D01*
X21431952Y-60990595D01*
X21384333Y-61038214D01*
X21289095Y-61085833D01*
X21193857Y-61085833D01*
X21098619Y-61038214D01*
X21051000Y-60990595D01*
X21003380Y-60895357D01*
X21003380Y-60657261D01*
X21051000Y-60514404D01*
X21003380Y-60181071D02*
X22003380Y-59942976D01*
X21289095Y-59752500D01*
X22003380Y-59562023D01*
X21003380Y-59323928D01*
X22003380Y-58419166D02*
X22003380Y-58990595D01*
X22003380Y-58704880D02*
X21003380Y-58704880D01*
X21146238Y-58800119D01*
X21241476Y-58895357D01*
X21289095Y-58990595D01*
%LPC*%
D13*
X93091000Y-78486000D03*
X93091000Y-88646000D03*
D14*
X90551000Y-87376000D03*
D15*
X93091000Y-83566000D03*
D14*
X88011000Y-81026000D03*
D13*
X50546000Y-93091000D03*
X40386000Y-93091000D03*
D14*
X41656000Y-90551000D03*
D15*
X45466000Y-93091000D03*
D14*
X48006000Y-88011000D03*
D13*
X93091000Y-40386000D03*
X93091000Y-50546000D03*
D14*
X90551000Y-49276000D03*
D15*
X93091000Y-45466000D03*
D14*
X88011000Y-42926000D03*
D16*
X10604500Y-45847000D03*
X13144500Y-45847000D03*
X15684500Y-45847000D03*
G36*
G01*
X17799500Y-44997000D02*
X18649500Y-44997000D01*
G75*
G02*
X19074500Y-45422000I0J-425000D01*
G01*
X19074500Y-46272000D01*
G75*
G02*
X18649500Y-46697000I-425000J0D01*
G01*
X17799500Y-46697000D01*
G75*
G02*
X17374500Y-46272000I0J425000D01*
G01*
X17374500Y-45422000D01*
G75*
G02*
X17799500Y-44997000I425000J0D01*
G01*
G37*
D15*
X93091000Y-83566000D03*
D13*
X93091000Y-78486000D03*
X93091000Y-88646000D03*
D17*
X100076000Y-71659750D03*
X100076000Y-95472250D03*
D15*
X84836000Y-71659750D03*
X84836000Y-95472250D03*
X93091000Y-45466000D03*
D13*
X93091000Y-40386000D03*
X93091000Y-50546000D03*
D17*
X100076000Y-33559750D03*
X100076000Y-57372250D03*
D15*
X84836000Y-33559750D03*
X84836000Y-57372250D03*
X45466000Y-93091000D03*
D13*
X50546000Y-93091000D03*
X40386000Y-93091000D03*
D17*
X57372250Y-100076000D03*
X33559750Y-100076000D03*
D15*
X57372250Y-84836000D03*
X33559750Y-84836000D03*
D13*
X98171000Y-16891000D03*
X88011000Y-16891000D03*
D14*
X89281000Y-14351000D03*
D15*
X93091000Y-16891000D03*
D14*
X95631000Y-11811000D03*
D15*
X93091000Y-16891000D03*
D13*
X98171000Y-16891000D03*
X88011000Y-16891000D03*
X79121000Y-16891000D03*
X68961000Y-16891000D03*
D14*
X70231000Y-14351000D03*
D15*
X74041000Y-16891000D03*
D14*
X76581000Y-11811000D03*
D15*
X74041000Y-16891000D03*
D13*
X79121000Y-16891000D03*
X68961000Y-16891000D03*
X60071000Y-16891000D03*
X49911000Y-16891000D03*
D14*
X51181000Y-14351000D03*
D15*
X54991000Y-16891000D03*
D14*
X57531000Y-11811000D03*
D15*
X54991000Y-16891000D03*
D13*
X60071000Y-16891000D03*
X49911000Y-16891000D03*
X41021000Y-16891000D03*
X30861000Y-16891000D03*
D14*
X32131000Y-14351000D03*
D15*
X35941000Y-16891000D03*
D14*
X38481000Y-11811000D03*
D15*
X35941000Y-16891000D03*
D13*
X41021000Y-16891000D03*
X30861000Y-16891000D03*
X21971000Y-93091000D03*
X11811000Y-93091000D03*
D14*
X13081000Y-90551000D03*
D15*
X16891000Y-93091000D03*
D14*
X19431000Y-88011000D03*
D15*
X16891000Y-93091000D03*
D13*
X21971000Y-93091000D03*
X11811000Y-93091000D03*
D18*
X89091000Y-8636000D03*
D19*
X97091000Y-8636000D03*
D18*
X70041000Y-8636000D03*
D19*
X78041000Y-8636000D03*
D18*
X50991000Y-8636000D03*
D19*
X58991000Y-8636000D03*
D18*
X32004500Y-8636000D03*
D19*
X40004500Y-8636000D03*
D18*
X12954500Y-84836000D03*
D19*
X20954500Y-84836000D03*
D18*
X12954500Y-81026000D03*
D19*
X20954500Y-81026000D03*
D13*
X93091000Y-88011000D03*
X93091000Y-98171000D03*
D14*
X90551000Y-96901000D03*
D15*
X93091000Y-93091000D03*
D14*
X88011000Y-90551000D03*
D15*
X93091000Y-93091000D03*
D13*
X93091000Y-88011000D03*
X93091000Y-98171000D03*
X93091000Y-68961000D03*
X93091000Y-79121000D03*
D14*
X90551000Y-77851000D03*
D15*
X93091000Y-74041000D03*
D14*
X88011000Y-71501000D03*
D15*
X93091000Y-74041000D03*
D13*
X93091000Y-68961000D03*
X93091000Y-79121000D03*
X93091000Y-49911000D03*
X93091000Y-60071000D03*
D14*
X90551000Y-58801000D03*
D15*
X93091000Y-54991000D03*
D14*
X88011000Y-52451000D03*
D15*
X93091000Y-54991000D03*
D13*
X93091000Y-49911000D03*
X93091000Y-60071000D03*
X93091000Y-30861000D03*
X93091000Y-41021000D03*
D14*
X90551000Y-39751000D03*
D15*
X93091000Y-35941000D03*
D14*
X88011000Y-33401000D03*
D15*
X93091000Y-35941000D03*
D13*
X93091000Y-30861000D03*
X93091000Y-41021000D03*
D18*
X75819500Y-82232500D03*
D19*
X83819500Y-82232500D03*
D18*
X88011500Y-65214500D03*
D19*
X96011500Y-65214500D03*
D18*
X79566000Y-62103000D03*
D19*
X87566000Y-62103000D03*
D18*
X88011500Y-27178000D03*
D19*
X96011500Y-27178000D03*
D13*
X79121000Y-93091000D03*
X68961000Y-93091000D03*
D14*
X70231000Y-90551000D03*
D15*
X74041000Y-93091000D03*
D14*
X76581000Y-88011000D03*
D15*
X74041000Y-93091000D03*
D13*
X79121000Y-93091000D03*
X68961000Y-93091000D03*
X79121000Y-74041000D03*
X68961000Y-74041000D03*
D14*
X70231000Y-71501000D03*
D15*
X74041000Y-74041000D03*
D14*
X76581000Y-68961000D03*
D15*
X74041000Y-74041000D03*
D13*
X79121000Y-74041000D03*
X68961000Y-74041000D03*
X79121000Y-54991000D03*
X68961000Y-54991000D03*
D14*
X70231000Y-52451000D03*
D15*
X74041000Y-54991000D03*
D14*
X76581000Y-49911000D03*
D15*
X74041000Y-54991000D03*
D13*
X79121000Y-54991000D03*
X68961000Y-54991000D03*
X79121000Y-35941000D03*
X68961000Y-35941000D03*
D14*
X70231000Y-33401000D03*
D15*
X74041000Y-35941000D03*
D14*
X76581000Y-30861000D03*
D15*
X74041000Y-35941000D03*
D13*
X79121000Y-35941000D03*
X68961000Y-35941000D03*
X60071000Y-93091000D03*
X49911000Y-93091000D03*
D14*
X51181000Y-90551000D03*
D15*
X54991000Y-93091000D03*
D14*
X57531000Y-88011000D03*
D15*
X54991000Y-93091000D03*
D13*
X60071000Y-93091000D03*
X49911000Y-93091000D03*
X60071000Y-74041000D03*
X49911000Y-74041000D03*
D14*
X51181000Y-71501000D03*
D15*
X54991000Y-74041000D03*
D14*
X57531000Y-68961000D03*
D15*
X54991000Y-74041000D03*
D13*
X60071000Y-74041000D03*
X49911000Y-74041000D03*
X60071000Y-54991000D03*
X49911000Y-54991000D03*
D14*
X51181000Y-52451000D03*
D15*
X54991000Y-54991000D03*
D14*
X57531000Y-49911000D03*
D15*
X54991000Y-54991000D03*
D13*
X60071000Y-54991000D03*
X49911000Y-54991000D03*
X60071000Y-35941000D03*
X49911000Y-35941000D03*
D14*
X51181000Y-33401000D03*
D15*
X54991000Y-35941000D03*
D14*
X57531000Y-30861000D03*
D15*
X54991000Y-35941000D03*
D13*
X60071000Y-35941000D03*
X49911000Y-35941000D03*
X41021000Y-93091000D03*
X30861000Y-93091000D03*
D14*
X32131000Y-90551000D03*
D15*
X35941000Y-93091000D03*
D14*
X38481000Y-88011000D03*
D15*
X35941000Y-93091000D03*
D13*
X41021000Y-93091000D03*
X30861000Y-93091000D03*
X41021000Y-74041000D03*
X30861000Y-74041000D03*
D14*
X32131000Y-71501000D03*
D15*
X35941000Y-74041000D03*
D14*
X38481000Y-68961000D03*
D15*
X35941000Y-74041000D03*
D13*
X41021000Y-74041000D03*
X30861000Y-74041000D03*
X41021000Y-54991000D03*
X30861000Y-54991000D03*
D14*
X32131000Y-52451000D03*
D15*
X35941000Y-54991000D03*
D14*
X38481000Y-49911000D03*
D15*
X35941000Y-54991000D03*
D13*
X41021000Y-54991000D03*
X30861000Y-54991000D03*
X41021000Y-35941000D03*
X30861000Y-35941000D03*
D14*
X32131000Y-33401000D03*
D15*
X35941000Y-35941000D03*
D14*
X38481000Y-30861000D03*
D15*
X35941000Y-35941000D03*
D13*
X41021000Y-35941000D03*
X30861000Y-35941000D03*
D18*
X70041000Y-84836000D03*
D19*
X78041000Y-84836000D03*
D18*
X70041000Y-65786000D03*
D19*
X78041000Y-65786000D03*
D18*
X70041000Y-46736000D03*
D19*
X78041000Y-46736000D03*
D18*
X70041000Y-27686000D03*
D19*
X78041000Y-27686000D03*
D18*
X45974500Y-84899500D03*
D19*
X53974500Y-84899500D03*
D18*
X50991000Y-65786000D03*
D19*
X58991000Y-65786000D03*
D18*
X51054500Y-46736000D03*
D19*
X59054500Y-46736000D03*
D18*
X50991000Y-27686000D03*
D19*
X58991000Y-27686000D03*
D18*
X37338500Y-82232500D03*
D19*
X45338500Y-82232500D03*
D18*
X31941000Y-65786000D03*
D19*
X39941000Y-65786000D03*
D18*
X32004500Y-46736000D03*
D19*
X40004500Y-46736000D03*
D18*
X31941000Y-27686000D03*
D19*
X39941000Y-27686000D03*
D20*
X24003000Y-6667500D03*
X8763000Y-34607500D03*
X24003000Y-9207500D03*
X24003000Y-11747500D03*
X24003000Y-14287500D03*
X24003000Y-16827500D03*
X24003000Y-19367500D03*
X24003000Y-21907500D03*
X24003000Y-24447500D03*
X24003000Y-26987500D03*
X24003000Y-29527500D03*
X24003000Y-32067500D03*
X24003000Y-34607500D03*
X8763000Y-32067500D03*
X8763000Y-29527500D03*
X8763000Y-26987500D03*
X8763000Y-24447500D03*
X8763000Y-21907500D03*
X8763000Y-19367500D03*
X8763000Y-16827500D03*
X8763000Y-14287500D03*
X8763000Y-11747500D03*
X8763000Y-9207500D03*
G36*
G01*
X8324850Y-5791200D02*
X9201150Y-5791200D01*
G75*
G02*
X9639300Y-6229350I0J-438150D01*
G01*
X9639300Y-7105650D01*
G75*
G02*
X9201150Y-7543800I-438150J0D01*
G01*
X8324850Y-7543800D01*
G75*
G02*
X7886700Y-7105650I0J438150D01*
G01*
X7886700Y-6229350D01*
G75*
G02*
X8324850Y-5791200I438150J0D01*
G01*
G37*
D19*
X11851000Y-71452500D03*
X16851000Y-71452500D03*
D21*
X8751000Y-64452500D03*
X19951000Y-64452500D03*
D19*
X11851000Y-56952500D03*
X14351000Y-56952500D03*
G36*
G01*
X16351000Y-55952500D02*
X17351000Y-55952500D01*
G75*
G02*
X17851000Y-56452500I0J-500000D01*
G01*
X17851000Y-57452500D01*
G75*
G02*
X17351000Y-57952500I-500000J0D01*
G01*
X16351000Y-57952500D01*
G75*
G02*
X15851000Y-57452500I0J500000D01*
G01*
X15851000Y-56452500D01*
G75*
G02*
X16351000Y-55952500I500000J0D01*
G01*
G37*
M02*
