M48
; DRILL file {KiCad 5.99.0+really5.1.10+dfsg1-1} date Wed Jun  9 13:14:25 2021
; FORMAT={-:-/ absolute / inch / decimal}
; #@! TF.CreationDate,2021-06-09T13:14:25-04:00
; #@! TF.GenerationSoftware,Kicad,Pcbnew,5.99.0+really5.1.10+dfsg1-1
FMAT,2
INCH
T1C0.0157
T2C0.0354
T3C0.0394
T4C0.0430
T5C0.0579
T6C0.0591
T7C0.0689
T8C0.1181
T9C0.1200
T10C0.1570
%
G90
G05
T1
X0.0394Y-0.0394
X0.0394Y-0.1181
X0.0394Y-0.1969
X0.0394Y-0.2756
X0.0394Y-0.3543
X0.0394Y-0.4331
X0.0394Y-0.5118
X0.0394Y-0.5906
X0.0394Y-0.6693
X0.0394Y-0.748
X0.0394Y-0.8268
X0.0394Y-0.9055
X0.0394Y-0.9843
X0.0394Y-1.063
X0.0394Y-1.1417
X0.0394Y-1.2205
X0.0394Y-1.2992
X0.0394Y-1.378
X0.0394Y-1.4567
X0.0394Y-1.5354
X0.0394Y-1.6142
X0.0394Y-1.6929
X0.0394Y-1.7717
X0.0394Y-1.8504
X0.0394Y-1.9291
X0.0394Y-2.0079
X0.0394Y-2.0866
X0.0394Y-2.1654
X0.0394Y-2.2441
X0.0394Y-2.3228
X0.0394Y-2.4016
X0.0394Y-2.4803
X0.0394Y-2.5591
X0.0394Y-2.6378
X0.0394Y-2.7165
X0.0394Y-2.7953
X0.0394Y-2.874
X0.0394Y-2.9528
X0.0394Y-3.0315
X0.0394Y-3.1102
X0.0394Y-3.189
X0.0394Y-3.2677
X0.0394Y-3.3465
X0.0394Y-3.4252
X0.0394Y-3.5039
X0.0394Y-3.5827
X0.0394Y-3.6614
X0.0394Y-3.7402
X0.0394Y-3.8189
X0.0394Y-3.8976
X0.0394Y-3.9764
X0.0394Y-4.0551
X0.0394Y-4.1339
X0.0394Y-4.2126
X0.0394Y-4.2913
X0.1181Y-0.0394
X0.1181Y-4.2913
X0.1969Y-0.0394
X0.1969Y-4.2913
X0.2756Y-0.0394
X0.2756Y-4.2913
X0.295Y-0.2125
X0.295Y-0.3125
X0.295Y-0.41
X0.295Y-0.5125
X0.295Y-0.6125
X0.295Y-0.7125
X0.295Y-0.8125
X0.295Y-0.9125
X0.295Y-1.0125
X0.295Y-1.1125
X0.295Y-1.2125
X0.295Y-1.3125
X0.3543Y-0.0394
X0.3543Y-4.2913
X0.3675Y-1.755
X0.3675Y-1.855
X0.395Y-0.2125
X0.395Y-0.2125
X0.395Y-0.3125
X0.395Y-0.41
X0.395Y-0.5125
X0.395Y-0.6125
X0.395Y-0.7125
X0.395Y-0.8125
X0.395Y-0.9125
X0.395Y-1.0125
X0.395Y-1.1125
X0.395Y-1.2125
X0.395Y-1.3125
X0.395Y-1.4125
X0.4331Y-0.0394
X0.4331Y-4.2913
X0.465Y-2.7475
X0.4675Y-1.755
X0.4675Y-1.855
X0.5118Y-0.0394
X0.5118Y-4.2913
X0.565Y-3.795
X0.5675Y-1.755
X0.5675Y-1.855
X0.575Y-3.19
X0.575Y-3.34
X0.5906Y-0.0394
X0.5906Y-4.2913
X0.5975Y-2.8125
X0.6675Y-1.755
X0.6675Y-1.855
X0.6693Y-0.0394
X0.6693Y-4.2913
X0.745Y-3.7625
X0.748Y-0.0394
X0.748Y-4.2913
X0.76Y-3.19
X0.76Y-3.34
X0.8268Y-0.0394
X0.8268Y-4.2913
X0.895Y-0.2125
X0.895Y-0.3125
X0.895Y-0.4125
X0.895Y-0.5125
X0.895Y-0.6125
X0.895Y-0.7125
X0.895Y-0.8125
X0.895Y-0.9125
X0.895Y-1.0125
X0.895Y-1.1125
X0.895Y-1.2125
X0.895Y-1.315
X0.895Y-1.4125
X0.9055Y-0.0394
X0.9055Y-4.2913
X0.9843Y-0.0394
X0.9843Y-4.2913
X0.995Y-0.2125
X0.995Y-0.3125
X0.995Y-0.4125
X0.995Y-0.5125
X0.995Y-0.6125
X0.995Y-0.7125
X0.995Y-0.8125
X0.995Y-0.9125
X0.995Y-1.0125
X0.995Y-1.1125
X0.995Y-1.2125
X0.995Y-1.315
X0.995Y-1.4125
X1.063Y-0.0394
X1.063Y-4.2913
X1.1417Y-0.0394
X1.1417Y-4.2913
X1.2205Y-0.0394
X1.2205Y-4.2913
X1.2992Y-0.0394
X1.2992Y-4.2913
X1.315Y-0.795
X1.315Y-1.5425
X1.315Y-2.295
X1.315Y-3.045
X1.315Y-3.795
X1.3225Y-1.0925
X1.3225Y-2.59
X1.325Y-0.34
X1.325Y-1.84
X1.378Y-0.0394
X1.378Y-4.2913
X1.4567Y-0.0394
X1.4567Y-4.2913
X1.495Y-0.765
X1.495Y-1.515
X1.495Y-2.265
X1.495Y-3.015
X1.495Y-3.765
X1.5075Y-1.09
X1.5075Y-2.59
X1.51Y-0.34
X1.51Y-1.84
X1.535Y-3.2375
X1.5354Y-0.0394
X1.5354Y-4.2913
X1.6142Y-0.0394
X1.6142Y-4.2913
X1.69Y-3.795
X1.6929Y-0.0394
X1.6929Y-4.2913
X1.72Y-3.2375
X1.7717Y-0.0394
X1.7717Y-4.2913
X1.8504Y-0.0394
X1.8504Y-4.2913
X1.87Y-3.765
X1.875Y-3.3425
X1.9291Y-0.0394
X1.9291Y-4.2913
X2.0079Y-0.0394
X2.0079Y-4.2913
X2.06Y-3.345
X2.065Y-0.795
X2.065Y-1.545
X2.065Y-2.295
X2.065Y-3.045
X2.065Y-3.795
X2.0725Y-0.34
X2.0725Y-1.09
X2.075Y-1.8425
X2.0866Y-0.0394
X2.0866Y-4.2913
X2.1654Y-0.0394
X2.1654Y-4.2913
X2.2441Y-0.0394
X2.2441Y-4.2913
X2.245Y-0.765
X2.245Y-1.515
X2.245Y-2.265
X2.245Y-3.015
X2.245Y-3.765
X2.2575Y-0.34
X2.2575Y-1.09
X2.26Y-1.84
X2.3228Y-0.0394
X2.3228Y-4.2913
X2.4016Y-0.0394
X2.4016Y-4.2913
X2.4803Y-0.0394
X2.4803Y-4.2913
X2.5591Y-0.0394
X2.5591Y-4.2913
X2.6378Y-0.0394
X2.6378Y-4.2913
X2.7165Y-0.0394
X2.7165Y-4.2913
X2.7953Y-0.0394
X2.7953Y-4.2913
X2.815Y-0.795
X2.815Y-1.545
X2.815Y-2.295
X2.815Y-3.045
X2.815Y-3.795
X2.8225Y-0.34
X2.8225Y-1.09
X2.8225Y-1.84
X2.8225Y-2.59
X2.8225Y-3.34
X2.874Y-0.0394
X2.874Y-4.2913
X2.9528Y-0.0394
X2.9528Y-4.2913
X2.995Y-0.765
X2.995Y-1.515
X2.995Y-2.265
X2.995Y-3.015
X2.995Y-3.765
X3.0075Y-0.34
X3.0075Y-1.09
X3.0075Y-1.84
X3.0075Y-2.59
X3.0075Y-3.34
X3.0315Y-0.0394
X3.0315Y-4.2913
X3.05Y-3.2375
X3.1102Y-0.0394
X3.1102Y-4.2913
X3.189Y-0.0394
X3.189Y-4.2913
X3.235Y-3.2375
X3.2677Y-0.0394
X3.2677Y-4.2913
X3.3465Y-0.0394
X3.3465Y-4.2913
X3.4252Y-0.0394
X3.4252Y-4.2913
X3.5039Y-0.0394
X3.5039Y-4.2913
X3.53Y-1.07
X3.53Y-2.5675
X3.565Y-0.795
X3.5725Y-0.34
X3.5827Y-0.0394
X3.5827Y-4.2913
X3.6614Y-0.0394
X3.6614Y-4.2913
X3.715Y-1.07
X3.715Y-2.5675
X3.7402Y-0.0394
X3.7402Y-4.2913
X3.745Y-0.765
X3.7575Y-0.34
X3.765Y-1.335
X3.765Y-1.71
X3.765Y-2.085
X3.765Y-2.835
X3.765Y-3.21
X3.765Y-3.585
X3.795Y-1.515
X3.795Y-1.89
X3.795Y-2.265
X3.795Y-3.015
X3.795Y-3.39
X3.795Y-3.765
X3.8189Y-0.0394
X3.8189Y-4.2913
X3.8976Y-0.0394
X3.8976Y-4.2913
X3.9764Y-0.0394
X3.9764Y-4.2913
X4.0551Y-0.0394
X4.0551Y-4.2913
X4.1339Y-0.0394
X4.1339Y-4.2913
X4.2126Y-0.0394
X4.2126Y-4.2913
X4.2913Y-0.0394
X4.2913Y-0.1181
X4.2913Y-0.1969
X4.2913Y-0.2756
X4.2913Y-0.3543
X4.2913Y-0.4331
X4.2913Y-0.5118
X4.2913Y-0.5906
X4.2913Y-0.6693
X4.2913Y-0.748
X4.2913Y-0.8268
X4.2913Y-0.9055
X4.2913Y-0.9843
X4.2913Y-1.063
X4.2913Y-1.1417
X4.2913Y-1.2205
X4.2913Y-1.2992
X4.2913Y-1.378
X4.2913Y-1.4567
X4.2913Y-1.5354
X4.2913Y-1.6142
X4.2913Y-1.6929
X4.2913Y-1.7717
X4.2913Y-1.8504
X4.2913Y-1.9291
X4.2913Y-2.0079
X4.2913Y-2.0866
X4.2913Y-2.1654
X4.2913Y-2.2441
X4.2913Y-2.3228
X4.2913Y-2.4016
X4.2913Y-2.4803
X4.2913Y-2.5591
X4.2913Y-2.6378
X4.2913Y-2.7165
X4.2913Y-2.7953
X4.2913Y-2.874
X4.2913Y-2.9528
X4.2913Y-3.0315
X4.2913Y-3.1102
X4.2913Y-3.189
X4.2913Y-3.2677
X4.2913Y-3.3465
X4.2913Y-3.4252
X4.2913Y-3.5039
X4.2913Y-3.5827
X4.2913Y-3.6614
X4.2913Y-3.7402
X4.2913Y-3.8189
X4.2913Y-3.8976
X4.2913Y-3.9764
X4.2913Y-4.0551
X4.2913Y-4.1339
X4.2913Y-4.2126
X4.2913Y-4.2913
T2
X0.51Y-3.19
X0.51Y-3.34
X0.825Y-3.19
X0.825Y-3.34
X1.2575Y-1.09
X1.2575Y-2.59
X1.26Y-0.34
X1.26Y-1.84
X1.47Y-3.2375
X1.5725Y-1.09
X1.5725Y-2.59
X1.575Y-0.34
X1.575Y-1.84
X1.785Y-3.2375
X1.81Y-3.3425
X2.0075Y-0.34
X2.0075Y-1.09
X2.0075Y-2.59
X2.01Y-1.84
X2.125Y-3.3425
X2.3225Y-0.34
X2.3225Y-1.09
X2.3225Y-2.59
X2.325Y-1.84
X2.7575Y-0.34
X2.7575Y-1.09
X2.7575Y-1.84
X2.7575Y-2.59
X2.7575Y-3.34
X2.985Y-3.2375
X3.0725Y-0.34
X3.0725Y-1.09
X3.0725Y-1.84
X3.0725Y-2.59
X3.0725Y-3.34
X3.1325Y-2.445
X3.3Y-3.2375
X3.4475Y-2.445
X3.465Y-1.07
X3.465Y-2.5675
X3.5075Y-0.34
X3.78Y-1.07
X3.78Y-2.5675
X3.8225Y-0.34
T3
X0.4175Y-1.805
X0.4666Y-2.2422
X0.4666Y-2.8131
X0.5175Y-1.805
X0.565Y-2.2422
X0.6175Y-1.805
X0.6634Y-2.2422
X0.6634Y-2.8131
X0.7175Y-1.805
T4
X0.345Y-0.2625
X0.345Y-0.3625
X0.345Y-0.4625
X0.345Y-0.5625
X0.345Y-0.6625
X0.345Y-0.7625
X0.345Y-0.8625
X0.345Y-0.9625
X0.345Y-1.0625
X0.345Y-1.1625
X0.345Y-1.2625
X0.345Y-1.3625
X0.945Y-0.2625
X0.945Y-0.3625
X0.945Y-0.4625
X0.945Y-0.5625
X0.945Y-0.6625
X0.945Y-0.7625
X0.945Y-0.8625
X0.945Y-0.9625
X0.945Y-1.0625
X0.945Y-1.1625
X0.945Y-1.2625
X0.945Y-1.3625
T5
X0.565Y-3.865
X0.815Y-3.765
X1.315Y-0.865
X1.315Y-1.615
X1.315Y-2.365
X1.315Y-3.115
X1.315Y-3.865
X1.565Y-0.765
X1.565Y-1.515
X1.565Y-2.265
X1.565Y-3.015
X1.565Y-3.765
X1.69Y-3.865
X1.94Y-3.765
X2.065Y-0.865
X2.065Y-1.615
X2.065Y-2.365
X2.065Y-3.115
X2.065Y-3.865
X2.315Y-0.765
X2.315Y-1.515
X2.315Y-2.265
X2.315Y-3.015
X2.315Y-3.765
X2.815Y-0.865
X2.815Y-1.615
X2.815Y-2.365
X2.815Y-3.115
X2.815Y-3.865
X3.065Y-0.765
X3.065Y-1.515
X3.065Y-2.265
X3.065Y-3.015
X3.065Y-3.765
X3.565Y-0.865
X3.765Y-1.265
X3.765Y-1.64
X3.765Y-2.015
X3.765Y-2.765
X3.765Y-3.14
X3.765Y-3.515
X3.815Y-0.765
X3.865Y-1.515
X3.865Y-1.89
X3.865Y-2.265
X3.865Y-3.015
X3.865Y-3.39
X3.865Y-3.765
T7
X0.465Y-3.665
X0.465Y-3.665
X0.865Y-3.665
X0.865Y-3.665
X1.215Y-0.665
X1.215Y-0.665
X1.215Y-1.415
X1.215Y-1.415
X1.215Y-2.165
X1.215Y-2.165
X1.215Y-2.915
X1.215Y-2.915
X1.215Y-3.665
X1.215Y-3.665
X1.59Y-3.665
X1.59Y-3.665
X1.615Y-0.665
X1.615Y-0.665
X1.615Y-1.415
X1.615Y-1.415
X1.615Y-2.165
X1.615Y-2.165
X1.615Y-2.915
X1.615Y-2.915
X1.615Y-3.665
X1.615Y-3.665
X1.965Y-0.665
X1.965Y-0.665
X1.965Y-1.415
X1.965Y-1.415
X1.965Y-2.165
X1.965Y-2.165
X1.965Y-2.915
X1.965Y-2.915
X1.965Y-3.665
X1.965Y-3.665
X1.99Y-3.665
X1.99Y-3.665
X2.365Y-0.665
X2.365Y-0.665
X2.365Y-1.415
X2.365Y-1.415
X2.365Y-2.165
X2.365Y-2.165
X2.365Y-2.915
X2.365Y-2.915
X2.365Y-3.665
X2.365Y-3.665
X2.715Y-0.665
X2.715Y-0.665
X2.715Y-1.415
X2.715Y-1.415
X2.715Y-2.165
X2.715Y-2.165
X2.715Y-2.915
X2.715Y-2.915
X2.715Y-3.665
X2.715Y-3.665
X3.115Y-0.665
X3.115Y-0.665
X3.115Y-1.415
X3.115Y-1.415
X3.115Y-2.165
X3.115Y-2.165
X3.115Y-2.915
X3.115Y-2.915
X3.115Y-3.665
X3.115Y-3.665
X3.465Y-0.665
X3.465Y-0.665
X3.665Y-1.215
X3.665Y-1.215
X3.665Y-1.59
X3.665Y-1.59
X3.665Y-1.615
X3.665Y-1.615
X3.665Y-1.965
X3.665Y-1.965
X3.665Y-1.99
X3.665Y-1.99
X3.665Y-2.365
X3.665Y-2.365
X3.665Y-2.715
X3.665Y-2.715
X3.665Y-3.09
X3.665Y-3.09
X3.665Y-3.115
X3.665Y-3.115
X3.665Y-3.465
X3.665Y-3.465
X3.665Y-3.49
X3.665Y-3.49
X3.665Y-3.865
X3.665Y-3.865
X3.865Y-0.665
X3.865Y-0.665
T8
X0.515Y-3.565
X0.765Y-3.465
X1.265Y-0.565
X1.265Y-1.315
X1.265Y-2.065
X1.265Y-2.815
X1.265Y-3.565
X1.515Y-0.465
X1.515Y-1.215
X1.515Y-1.965
X1.515Y-2.715
X1.515Y-3.465
X1.64Y-3.565
X1.89Y-3.465
X2.015Y-0.565
X2.015Y-1.315
X2.015Y-2.065
X2.015Y-2.815
X2.015Y-3.565
X2.265Y-0.465
X2.265Y-1.215
X2.265Y-1.965
X2.265Y-2.715
X2.265Y-3.465
X2.765Y-0.565
X2.765Y-1.315
X2.765Y-2.065
X2.765Y-2.815
X2.765Y-3.565
X3.015Y-0.465
X3.015Y-1.215
X3.015Y-1.965
X3.015Y-2.715
X3.015Y-3.465
X3.465Y-1.315
X3.465Y-1.69
X3.465Y-2.065
X3.465Y-2.815
X3.465Y-3.19
X3.465Y-3.565
X3.515Y-0.565
X3.565Y-1.565
X3.565Y-1.94
X3.565Y-2.315
X3.565Y-3.065
X3.565Y-3.44
X3.565Y-3.815
X3.765Y-0.465
T9
X1.3213Y-3.94
X2.2588Y-3.94
X3.94Y-1.3213
X3.94Y-2.2588
X3.94Y-2.8213
X3.94Y-3.7588
T10
X0.665Y-3.665
X0.665Y-3.665
X1.3213Y-3.34
X1.415Y-0.665
X1.415Y-0.665
X1.415Y-1.415
X1.415Y-1.415
X1.415Y-2.165
X1.415Y-2.165
X1.415Y-2.915
X1.415Y-2.915
X1.415Y-3.665
X1.415Y-3.665
X1.79Y-3.665
X1.79Y-3.665
X2.165Y-0.665
X2.165Y-0.665
X2.165Y-1.415
X2.165Y-1.415
X2.165Y-2.165
X2.165Y-2.165
X2.165Y-2.915
X2.165Y-2.915
X2.165Y-3.665
X2.165Y-3.665
X2.2588Y-3.34
X2.915Y-0.665
X2.915Y-0.665
X2.915Y-1.415
X2.915Y-1.415
X2.915Y-2.165
X2.915Y-2.165
X2.915Y-2.915
X2.915Y-2.915
X2.915Y-3.665
X2.915Y-3.665
X3.34Y-1.3213
X3.34Y-2.2588
X3.34Y-2.8213
X3.34Y-3.7588
X3.665Y-0.665
X3.665Y-0.665
X3.665Y-1.415
X3.665Y-1.415
X3.665Y-1.79
X3.665Y-1.79
X3.665Y-2.165
X3.665Y-2.165
X3.665Y-2.915
X3.665Y-2.915
X3.665Y-3.29
X3.665Y-3.29
X3.665Y-3.665
X3.665Y-3.665
T6
X0.3445Y-2.5119G85X0.3445Y-2.5631
G05
X0.7855Y-2.5119G85X0.7855Y-2.5631
G05
T0
M30
