%TF.GenerationSoftware,KiCad,Pcbnew,5.99.0+really5.1.10+dfsg1-1*%
%TF.CreationDate,2021-06-06T12:45:26-04:00*%
%TF.ProjectId,5x1,3578312e-6b69-4636-9164-5f7063625858,rev?*%
%TF.SameCoordinates,Original*%
%TF.FileFunction,Copper,L1,Top*%
%TF.FilePolarity,Positive*%
%FSLAX46Y46*%
G04 Gerber Fmt 4.6, Leading zero omitted, Abs format (unit mm)*
G04 Created by KiCad (PCBNEW 5.99.0+really5.1.10+dfsg1-1) date 2021-06-06 12:45:26*
%MOMM*%
%LPD*%
G01*
G04 APERTURE LIST*
%TA.AperFunction,ComponentPad*%
%ADD10C,1.752600*%
%TD*%
%TA.AperFunction,ComponentPad*%
%ADD11O,1.000000X1.000000*%
%TD*%
%TA.AperFunction,ComponentPad*%
%ADD12C,2.250000*%
%TD*%
%TA.AperFunction,ViaPad*%
%ADD13C,0.800000*%
%TD*%
%TA.AperFunction,Conductor*%
%ADD14C,0.254000*%
%TD*%
%TA.AperFunction,Conductor*%
%ADD15C,0.508000*%
%TD*%
%TA.AperFunction,Conductor*%
%ADD16C,0.381000*%
%TD*%
%TA.AperFunction,Conductor*%
%ADD17C,0.150000*%
%TD*%
G04 APERTURE END LIST*
D10*
%TO.P,U1,24*%
%TO.N,NC1*%
X2540000Y-17145000D03*
%TO.P,U1,12*%
%TO.N,R2*%
X30480000Y-1905000D03*
%TO.P,U1,23*%
%TO.N,GND*%
X5080000Y-17145000D03*
%TO.P,U1,22*%
%TO.N,NC2*%
X7620000Y-17145000D03*
%TO.P,U1,21*%
%TO.N,VCC*%
X10160000Y-17145000D03*
%TO.P,U1,20*%
%TO.N,Net-(J_0-Pad2)*%
X12700000Y-17145000D03*
%TO.P,U1,19*%
%TO.N,Net-(J_0-Pad3)*%
X15240000Y-17145000D03*
%TO.P,U1,18*%
%TO.N,Net-(J_0-Pad4)*%
X17780000Y-17145000D03*
%TO.P,U1,17*%
%TO.N,Net-(J_0-Pad5)*%
X20320000Y-17145000D03*
%TO.P,U1,16*%
%TO.N,Net-(J_0-Pad6)*%
X22860000Y-17145000D03*
%TO.P,U1,15*%
%TO.N,Net-(J_0-Pad7)*%
X25400000Y-17145000D03*
%TO.P,U1,14*%
%TO.N,Net-(J_0-Pad8)*%
X27940000Y-17145000D03*
%TO.P,U1,13*%
%TO.N,Net-(J_0-Pad9)*%
X30480000Y-17145000D03*
%TO.P,U1,11*%
%TO.N,R1*%
X27940000Y-1905000D03*
%TO.P,U1,10*%
%TO.N,C2*%
X25400000Y-1905000D03*
%TO.P,U1,9*%
%TO.N,C1*%
X22860000Y-1905000D03*
%TO.P,U1,8*%
%TO.N,R3*%
X20320000Y-1905000D03*
%TO.P,U1,7*%
%TO.N,C3*%
X17780000Y-1905000D03*
%TO.P,U1,6*%
%TO.N,R4*%
X15240000Y-1905000D03*
%TO.P,U1,5*%
%TO.N,C4*%
X12700000Y-1905000D03*
%TO.P,U1,4*%
%TO.N,GND*%
X10160000Y-1905000D03*
%TO.P,U1,3*%
X7620000Y-1905000D03*
%TO.P,U1,2*%
%TO.N,R0*%
X5080000Y-1905000D03*
%TO.P,U1,1*%
%TO.N,C0*%
%TA.AperFunction,ComponentPad*%
G36*
G01*
X1663700Y-2343150D02*
X1663700Y-1466850D01*
G75*
G02*
X2101850Y-1028700I438150J0D01*
G01*
X2978150Y-1028700D01*
G75*
G02*
X3416300Y-1466850I0J-438150D01*
G01*
X3416300Y-2343150D01*
G75*
G02*
X2978150Y-2781300I-438150J0D01*
G01*
X2101850Y-2781300D01*
G75*
G02*
X1663700Y-2343150I0J438150D01*
G01*
G37*
%TD.AperFunction*%
%TD*%
D11*
%TO.P,J_0,10*%
%TO.N,GND*%
X92583000Y-15176500D03*
%TO.P,J_0,9*%
%TO.N,Net-(J_0-Pad9)*%
X92583000Y-13906500D03*
%TO.P,J_0,8*%
%TO.N,Net-(J_0-Pad8)*%
X92583000Y-12636500D03*
%TO.P,J_0,7*%
%TO.N,Net-(J_0-Pad7)*%
X92583000Y-11366500D03*
%TO.P,J_0,6*%
%TO.N,Net-(J_0-Pad6)*%
X92583000Y-10096500D03*
%TO.P,J_0,5*%
%TO.N,Net-(J_0-Pad5)*%
X92583000Y-8826500D03*
%TO.P,J_0,4*%
%TO.N,Net-(J_0-Pad4)*%
X92583000Y-7556500D03*
%TO.P,J_0,3*%
%TO.N,Net-(J_0-Pad3)*%
X92583000Y-6286500D03*
%TO.P,J_0,2*%
%TO.N,Net-(J_0-Pad2)*%
X92583000Y-5016500D03*
%TO.P,J_0,1*%
%TO.N,GND*%
%TA.AperFunction,ComponentPad*%
G36*
G01*
X92083000Y-3996500D02*
X92083000Y-3496500D01*
G75*
G02*
X92333000Y-3246500I250000J0D01*
G01*
X92833000Y-3246500D01*
G75*
G02*
X93083000Y-3496500I0J-250000D01*
G01*
X93083000Y-3996500D01*
G75*
G02*
X92833000Y-4246500I-250000J0D01*
G01*
X92333000Y-4246500D01*
G75*
G02*
X92083000Y-3996500I0J250000D01*
G01*
G37*
%TD.AperFunction*%
%TD*%
D12*
%TO.P,MX_5,2*%
%TO.N,R4*%
X86931500Y-4445000D03*
%TO.P,MX_5,1*%
%TO.N,C4*%
X80581500Y-6985000D03*
%TD*%
%TO.P,MX_4,2*%
%TO.N,R3*%
X67881500Y-4445000D03*
%TO.P,MX_4,1*%
%TO.N,C3*%
X61531500Y-6985000D03*
%TD*%
%TO.P,MX_3,2*%
%TO.N,R2*%
X48831500Y-4445000D03*
%TO.P,MX_3,1*%
%TO.N,C2*%
X42481500Y-6985000D03*
%TD*%
%TO.P,MX_2,2*%
%TO.N,R1*%
X29781500Y-4445000D03*
%TO.P,MX_2,1*%
%TO.N,C1*%
X23431500Y-6985000D03*
%TD*%
%TO.P,MX_1,2*%
%TO.N,R0*%
X10731500Y-4445000D03*
%TO.P,MX_1,1*%
%TO.N,C0*%
X4381500Y-6985000D03*
%TD*%
D13*
%TO.N,GND*%
X24130000Y-15875000D03*
X34290000Y-635000D03*
X36830000Y-635000D03*
X39370000Y-635000D03*
X41910000Y-635000D03*
X44450000Y-635000D03*
X46990000Y-635000D03*
X49530000Y-635000D03*
X52070000Y-635000D03*
X54610000Y-635000D03*
X57150000Y-635000D03*
X59690000Y-635000D03*
X62230000Y-635000D03*
X64770000Y-635000D03*
X67310000Y-635000D03*
X69850000Y-635000D03*
X72390000Y-635000D03*
X74930000Y-635000D03*
X77470000Y-635000D03*
X80010000Y-635000D03*
X82550000Y-635000D03*
X85090000Y-635000D03*
X87630000Y-635000D03*
X90170000Y-635000D03*
X92710000Y-635000D03*
X4445000Y-8763000D03*
X42545000Y-8763000D03*
X61595000Y-8763000D03*
X80645000Y-8763000D03*
X31750000Y-18415000D03*
X24130000Y-18415000D03*
X13970000Y-18415000D03*
X1270000Y-18415000D03*
X3810000Y-18415000D03*
X1270000Y-15875000D03*
X6350000Y-18415000D03*
X19050000Y-18415000D03*
X3810000Y-15875000D03*
X8890000Y-18415000D03*
X8890000Y-15875000D03*
X21590000Y-18415000D03*
X26670000Y-18415000D03*
X11430000Y-15875000D03*
X6350000Y-15875000D03*
X13970000Y-635000D03*
X16510000Y-635000D03*
X19050000Y-635000D03*
X21590000Y-635000D03*
X24066500Y-635000D03*
X26670000Y-635000D03*
X3810000Y-635000D03*
X1270000Y-635000D03*
X3810000Y-3175000D03*
X1270000Y-3175000D03*
X6350000Y-3175000D03*
X6350000Y-635000D03*
X8890000Y-3175000D03*
X13970000Y-3175000D03*
X16510000Y-3175000D03*
X19050000Y-3175000D03*
X21590000Y-3175000D03*
X24066500Y-3175000D03*
X26670000Y-3175000D03*
X8890000Y-635000D03*
X11430000Y-635000D03*
X31686500Y-635000D03*
X31686500Y-3175000D03*
X11430000Y-18415000D03*
X29210000Y-18415000D03*
X11620500Y-6096000D03*
X49720500Y-6096000D03*
X68770500Y-6096000D03*
X92710000Y-18415000D03*
X90170000Y-18415000D03*
X87630000Y-18415000D03*
X85090000Y-18415000D03*
X82550000Y-18415000D03*
X80010000Y-18415000D03*
X77470000Y-18415000D03*
X74930000Y-18415000D03*
X72390000Y-18415000D03*
X69850000Y-18415000D03*
X67310000Y-18415000D03*
X64770000Y-18415000D03*
X62230000Y-18415000D03*
X59690000Y-18415000D03*
X57150000Y-18415000D03*
X54610000Y-18415000D03*
X52070000Y-18415000D03*
X49530000Y-18415000D03*
X46990000Y-18415000D03*
X44450000Y-18415000D03*
X41910000Y-18415000D03*
X39370000Y-18415000D03*
X36830000Y-18415000D03*
X29210000Y-635000D03*
X34290000Y-18415000D03*
X1270000Y-13335000D03*
X1270000Y-10795000D03*
X1270000Y-8255000D03*
X1270000Y-5715000D03*
X13970000Y-15875000D03*
X16510000Y-18415000D03*
X16510000Y-15875000D03*
X19050000Y-15875000D03*
X21590000Y-15875000D03*
X92710000Y-2222500D03*
X92710000Y-16827500D03*
X23495000Y-8763000D03*
X32004000Y-16891000D03*
X91313000Y-4836160D03*
X91313000Y-6299200D03*
X88389460Y-5377180D03*
X91313000Y-12771120D03*
X91313000Y-14234160D03*
X91313000Y-7975600D03*
X91315540Y-9646920D03*
X91315540Y-11303000D03*
%TD*%
D14*
%TO.N,C0*%
X2603500Y-5143500D02*
X2603500Y-1905000D01*
X4445000Y-6985000D02*
X2603500Y-5143500D01*
%TO.N,C1*%
X22860000Y-3873500D02*
X22860000Y-1905000D01*
X23495000Y-4508500D02*
X22860000Y-3873500D01*
X23495000Y-6985000D02*
X23495000Y-4508500D01*
%TO.N,C2*%
X25400000Y-3454400D02*
X25400000Y-1905000D01*
X28930600Y-6985000D02*
X25400000Y-3454400D01*
X42545000Y-6985000D02*
X28930600Y-6985000D01*
%TO.N,C3*%
X17780000Y-3144275D02*
X17780000Y-1905000D01*
X17780000Y-8796020D02*
X17780000Y-3144275D01*
X22298660Y-13314680D02*
X17780000Y-8796020D01*
X51241960Y-13314680D02*
X22298660Y-13314680D01*
X57571640Y-6985000D02*
X51241960Y-13314680D01*
X61531500Y-6985000D02*
X57571640Y-6985000D01*
%TO.N,C4*%
X12700000Y-6306820D02*
X12700000Y-1905000D01*
X21536660Y-15143480D02*
X12700000Y-6306820D01*
X68468240Y-15143480D02*
X21536660Y-15143480D01*
X76626720Y-6985000D02*
X68468240Y-15143480D01*
X80645000Y-6985000D02*
X76626720Y-6985000D01*
%TO.N,GND*%
X81015962Y-8763000D02*
X80645000Y-8763000D01*
X6286500Y-3111500D02*
X6413500Y-3111500D01*
X1270000Y-5932231D02*
X1270000Y-5715000D01*
X4445000Y-8763000D02*
X4191962Y-8763000D01*
X6098443Y-5463443D02*
X3810000Y-3175000D01*
X6098443Y-7675242D02*
X6098443Y-5463443D01*
X5010685Y-8763000D02*
X6098443Y-7675242D01*
X4445000Y-8763000D02*
X5010685Y-8763000D01*
X47233962Y-635000D02*
X46990000Y-635000D01*
D15*
X92710000Y-15303500D02*
X92583000Y-15176500D01*
D14*
X61965962Y-8763000D02*
X61595000Y-8763000D01*
X64632962Y-6096000D02*
X61965962Y-8763000D01*
X67119500Y-6096000D02*
X64632962Y-6096000D01*
X83682962Y-6096000D02*
X81015962Y-8763000D01*
X86169500Y-6096000D02*
X83682962Y-6096000D01*
D16*
X92710000Y-3619500D02*
X92583000Y-3746500D01*
D14*
X42545000Y-8763000D02*
X42291962Y-8763000D01*
X48333538Y-6096000D02*
X49720500Y-6096000D01*
X45412538Y-3175000D02*
X48333538Y-6096000D01*
X31686500Y-3175000D02*
X45412538Y-3175000D01*
X6731000Y-6096000D02*
X11620500Y-6096000D01*
X3810000Y-3175000D02*
X6731000Y-6096000D01*
X92583000Y-15176500D02*
X93459300Y-15176500D01*
X92583000Y-15176500D02*
X93370400Y-15963900D01*
X91768930Y-15990570D02*
X92583000Y-15176500D01*
X91313000Y-15534640D02*
X91768930Y-15990570D01*
X92583000Y-15176500D02*
X91381580Y-15176500D01*
X91381580Y-15176500D02*
X91313000Y-15245080D01*
X91313000Y-15245080D02*
X91313000Y-15534640D01*
X92605860Y-16827500D02*
X91768930Y-15990570D01*
X92710000Y-16827500D02*
X92605860Y-16827500D01*
X92583000Y-16700500D02*
X92710000Y-16827500D01*
X92583000Y-15176500D02*
X92583000Y-16700500D01*
X92583000Y-2349500D02*
X92710000Y-2222500D01*
X92583000Y-3746500D02*
X92583000Y-2349500D01*
X92583000Y-3746500D02*
X93624400Y-3746500D01*
X92583000Y-3746500D02*
X93408500Y-2921000D01*
X93408500Y-2921000D02*
X92710000Y-2222500D01*
X93624400Y-3136900D02*
X93408500Y-2921000D01*
X93624400Y-3746500D02*
X93624400Y-3136900D01*
X92085160Y-2222500D02*
X91244420Y-3063240D01*
X92710000Y-2222500D02*
X92085160Y-2222500D01*
X92583000Y-3746500D02*
X91572080Y-2735580D01*
X91485720Y-4843780D02*
X92583000Y-3746500D01*
X91315540Y-4843780D02*
X91485720Y-4843780D01*
X91236800Y-4765040D02*
X91236800Y-3070860D01*
X91315540Y-4843780D02*
X91236800Y-4765040D01*
X93624400Y-4787900D02*
X93624400Y-3746500D01*
X92583000Y-3746500D02*
X93624400Y-4787900D01*
X93624400Y-14135100D02*
X92583000Y-15176500D01*
X93624400Y-4787900D02*
X93624400Y-14135100D01*
X93621860Y-15915640D02*
X92710000Y-16827500D01*
X93621860Y-14137640D02*
X93621860Y-15915640D01*
X92583000Y-15176500D02*
X93621860Y-14137640D01*
X24130000Y-15875000D02*
X21590000Y-15875000D01*
X8890000Y-3175000D02*
X8890000Y-635000D01*
X11430000Y-635000D02*
X8890000Y-3175000D01*
X8890000Y-635000D02*
X6350000Y-3175000D01*
X6350000Y-635000D02*
X8890000Y-3175000D01*
X7620000Y-1905000D02*
X10160000Y-1905000D01*
X11239500Y-2984500D02*
X10160000Y-1905000D01*
X11430000Y-2794000D02*
X11239500Y-2984500D01*
X10160000Y-1905000D02*
X8890000Y-635000D01*
X11419840Y-1905000D02*
X11430000Y-1915160D01*
X10160000Y-1905000D02*
X11419840Y-1905000D01*
X11430000Y-1915160D02*
X11430000Y-2794000D01*
X11430000Y-635000D02*
X11430000Y-1915160D01*
X10160000Y-678180D02*
X10116820Y-635000D01*
X10160000Y-1905000D02*
X10160000Y-678180D01*
X10116820Y-635000D02*
X11430000Y-635000D01*
X7620000Y-675640D02*
X7579360Y-635000D01*
X7620000Y-1905000D02*
X7620000Y-675640D01*
X7579360Y-635000D02*
X10116820Y-635000D01*
X6350000Y-635000D02*
X7579360Y-635000D01*
X7620000Y-1905000D02*
X7620000Y-3175000D01*
X7620000Y-3175000D02*
X8890000Y-3175000D01*
X6350000Y-3175000D02*
X7620000Y-3175000D01*
X6413500Y-1905000D02*
X6350000Y-1968500D01*
X7620000Y-1905000D02*
X6413500Y-1905000D01*
X6350000Y-1968500D02*
X6350000Y-3175000D01*
X6350000Y-635000D02*
X6350000Y-1968500D01*
X3810000Y-15875000D02*
X6350000Y-18415000D01*
X6350000Y-15875000D02*
X3810000Y-18415000D01*
X3825240Y-17145000D02*
X3810000Y-17160240D01*
X5080000Y-17145000D02*
X3825240Y-17145000D01*
X3810000Y-17160240D02*
X3810000Y-15875000D01*
X3810000Y-18415000D02*
X3810000Y-17160240D01*
X5080000Y-15882620D02*
X5072380Y-15875000D01*
X5080000Y-17145000D02*
X5080000Y-15882620D01*
X5072380Y-15875000D02*
X6350000Y-15875000D01*
X3810000Y-15875000D02*
X5072380Y-15875000D01*
X6306820Y-17145000D02*
X6350000Y-17188180D01*
X5080000Y-17145000D02*
X6306820Y-17145000D01*
X6350000Y-17188180D02*
X6350000Y-18415000D01*
X6350000Y-15875000D02*
X6350000Y-17188180D01*
X5080000Y-17145000D02*
X5080000Y-18404840D01*
X5080000Y-18404840D02*
X5069840Y-18415000D01*
X5069840Y-18415000D02*
X3810000Y-18415000D01*
X6350000Y-18415000D02*
X5069840Y-18415000D01*
X91244420Y-3746500D02*
X91244420Y-3063240D01*
X92583000Y-3746500D02*
X91244420Y-3746500D01*
X91236800Y-3070860D02*
X91244420Y-3063240D01*
X91313000Y-14234160D02*
X91313000Y-15245080D01*
X91313000Y-14234160D02*
X91640660Y-14234160D01*
X91640660Y-14234160D02*
X92583000Y-15176500D01*
X91313000Y-14234160D02*
X91315540Y-14231620D01*
X91315540Y-14231620D02*
X91315540Y-4843780D01*
X11333480Y-2984500D02*
X11239500Y-2984500D01*
X12189460Y-3840480D02*
X11333480Y-2984500D01*
X12189460Y-5527040D02*
X12189460Y-3840480D01*
X11620500Y-6096000D02*
X12189460Y-5527040D01*
X24193500Y-15938500D02*
X24130000Y-15875000D01*
X31051500Y-15938500D02*
X24193500Y-15938500D01*
X32004000Y-16891000D02*
X31051500Y-15938500D01*
X47170462Y-635000D02*
X46990000Y-635000D01*
X50525680Y-3990218D02*
X47170462Y-635000D01*
X50525680Y-5290820D02*
X50525680Y-3990218D01*
X49720500Y-6096000D02*
X50525680Y-5290820D01*
X11567038Y-6111118D02*
X11567038Y-6042538D01*
X21330920Y-15875000D02*
X11567038Y-6111118D01*
X21590000Y-15875000D02*
X21330920Y-15875000D01*
X43110685Y-8763000D02*
X42545000Y-8763000D01*
X43997001Y-6288039D02*
X43997001Y-7876684D01*
X43106462Y-5397500D02*
X43997001Y-6288039D01*
X41846500Y-5397500D02*
X43106462Y-5397500D01*
X40960040Y-6283960D02*
X41846500Y-5397500D01*
X29334460Y-6283960D02*
X40960040Y-6283960D01*
X26670000Y-3619500D02*
X29334460Y-6283960D01*
X43997001Y-7876684D02*
X43110685Y-8763000D01*
X26670000Y-3175000D02*
X26670000Y-3619500D01*
X20955000Y-3810000D02*
X21590000Y-3175000D01*
X22778720Y-11849100D02*
X20955000Y-10025380D01*
X50756820Y-11849100D02*
X22778720Y-11849100D01*
X59964320Y-2641600D02*
X50756820Y-11849100D01*
X69397001Y-3748039D02*
X68290562Y-2641600D01*
X20955000Y-10025380D02*
X20955000Y-3810000D01*
X68290562Y-2641600D02*
X59964320Y-2641600D01*
X69397001Y-5141961D02*
X69397001Y-3748039D01*
X68442962Y-6096000D02*
X69397001Y-5141961D01*
X67119500Y-6096000D02*
X68442962Y-6096000D01*
X66550540Y-5527040D02*
X67119500Y-6096000D01*
X58379360Y-5527040D02*
X66550540Y-5527040D01*
X51048920Y-12857480D02*
X58379360Y-5527040D01*
X22489160Y-12857480D02*
X51048920Y-12857480D01*
X19050000Y-9418320D02*
X22489160Y-12857480D01*
X19050000Y-3175000D02*
X19050000Y-9418320D01*
X61206380Y-8763000D02*
X61595000Y-8763000D01*
X60761880Y-8318500D02*
X61206380Y-8763000D01*
X56901080Y-8318500D02*
X60761880Y-8318500D01*
X51447700Y-13771880D02*
X56901080Y-8318500D01*
X50406300Y-13771880D02*
X51447700Y-13771880D01*
X67881500Y-13771880D02*
X22108160Y-13771880D01*
X16510000Y-8173720D02*
X16510000Y-3175000D01*
X78663800Y-2989580D02*
X67881500Y-13771880D01*
X87688542Y-2989580D02*
X78663800Y-2989580D01*
X88447001Y-5141961D02*
X88447001Y-3748039D01*
X22108160Y-13771880D02*
X16510000Y-8173720D01*
X88447001Y-3748039D02*
X87688542Y-2989580D01*
X87492962Y-6096000D02*
X88447001Y-5141961D01*
X86169500Y-6096000D02*
X87492962Y-6096000D01*
X13970000Y-6929120D02*
X13970000Y-3175000D01*
X21727160Y-14686280D02*
X13970000Y-6929120D01*
X68272660Y-14686280D02*
X21727160Y-14686280D01*
X77597000Y-5361940D02*
X68272660Y-14686280D01*
X85435440Y-5361940D02*
X77597000Y-5361940D01*
X86169500Y-6096000D02*
X85435440Y-5361940D01*
X67368420Y-16891000D02*
X32004000Y-16891000D01*
X79849980Y-8285480D02*
X75973940Y-8285480D01*
X75973940Y-8285480D02*
X67368420Y-16891000D01*
X80327500Y-8763000D02*
X79849980Y-8285480D01*
X80645000Y-8763000D02*
X80327500Y-8763000D01*
X40957500Y-7556500D02*
X42164000Y-8763000D01*
X28564840Y-7556500D02*
X40957500Y-7556500D01*
X42164000Y-8763000D02*
X42545000Y-8763000D01*
X24583339Y-3574999D02*
X28564840Y-7556500D01*
X24466499Y-3574999D02*
X24583339Y-3574999D01*
X24066500Y-3175000D02*
X24466499Y-3574999D01*
%TO.N,R0*%
X6286500Y-4445000D02*
X10795000Y-4445000D01*
X5080000Y-3238500D02*
X6286500Y-4445000D01*
X5080000Y-1905000D02*
X5080000Y-3238500D01*
%TO.N,R1*%
X27940000Y-2540000D02*
X27940000Y-1905000D01*
X29845000Y-4445000D02*
X27940000Y-2540000D01*
%TO.N,R2*%
X46355000Y-1905000D02*
X30543500Y-1905000D01*
X48895000Y-4445000D02*
X46355000Y-1905000D01*
%TO.N,R3*%
X20259573Y-1965427D02*
X20320000Y-1905000D01*
X20320000Y-10040620D02*
X20320000Y-1905000D01*
X22679660Y-12400280D02*
X20320000Y-10040620D01*
X50855880Y-12400280D02*
X22679660Y-12400280D01*
X58811160Y-4445000D02*
X50855880Y-12400280D01*
X67881500Y-4445000D02*
X58811160Y-4445000D01*
%TO.N,R4*%
X68077080Y-14229080D02*
X77861160Y-4445000D01*
X21917660Y-14229080D02*
X68077080Y-14229080D01*
X77861160Y-4445000D02*
X86995000Y-4445000D01*
X15240000Y-7551420D02*
X21917660Y-14229080D01*
X86995000Y-4445000D02*
X87249000Y-4699000D01*
X15240000Y-1905000D02*
X15240000Y-7551420D01*
%TD*%
%TO.N,GND*%
X93612100Y-18682100D02*
X367900Y-18682100D01*
X367900Y-17024919D01*
X1320800Y-17024919D01*
X1320800Y-17265081D01*
X1367653Y-17500627D01*
X1459559Y-17722508D01*
X1592986Y-17922195D01*
X1762805Y-18092014D01*
X1962492Y-18225441D01*
X2184373Y-18317347D01*
X2419919Y-18364200D01*
X2660081Y-18364200D01*
X2895627Y-18317347D01*
X3117508Y-18225441D01*
X3317195Y-18092014D01*
X3326655Y-18082554D01*
X4232248Y-18082554D01*
X4314616Y-18306492D01*
X4555919Y-18433494D01*
X4817361Y-18510978D01*
X5088897Y-18535970D01*
X5360091Y-18507507D01*
X5620520Y-18426684D01*
X5845384Y-18306492D01*
X5927752Y-18082554D01*
X5080000Y-17234803D01*
X4232248Y-18082554D01*
X3326655Y-18082554D01*
X3487014Y-17922195D01*
X3620441Y-17722508D01*
X3712347Y-17500627D01*
X3723513Y-17444490D01*
X3798316Y-17685520D01*
X3918508Y-17910384D01*
X4142446Y-17992752D01*
X4990197Y-17145000D01*
X5169803Y-17145000D01*
X6017554Y-17992752D01*
X6241492Y-17910384D01*
X6368494Y-17669081D01*
X6435912Y-17441602D01*
X6447653Y-17500627D01*
X6539559Y-17722508D01*
X6672986Y-17922195D01*
X6842805Y-18092014D01*
X7042492Y-18225441D01*
X7264373Y-18317347D01*
X7499919Y-18364200D01*
X7740081Y-18364200D01*
X7975627Y-18317347D01*
X8197508Y-18225441D01*
X8397195Y-18092014D01*
X8567014Y-17922195D01*
X8700441Y-17722508D01*
X8792347Y-17500627D01*
X8839200Y-17265081D01*
X8839200Y-17024919D01*
X8940800Y-17024919D01*
X8940800Y-17265081D01*
X8987653Y-17500627D01*
X9079559Y-17722508D01*
X9212986Y-17922195D01*
X9382805Y-18092014D01*
X9582492Y-18225441D01*
X9804373Y-18317347D01*
X10039919Y-18364200D01*
X10280081Y-18364200D01*
X10515627Y-18317347D01*
X10737508Y-18225441D01*
X10937195Y-18092014D01*
X11107014Y-17922195D01*
X11240441Y-17722508D01*
X11332347Y-17500627D01*
X11379200Y-17265081D01*
X11379200Y-17024919D01*
X11480800Y-17024919D01*
X11480800Y-17265081D01*
X11527653Y-17500627D01*
X11619559Y-17722508D01*
X11752986Y-17922195D01*
X11922805Y-18092014D01*
X12122492Y-18225441D01*
X12344373Y-18317347D01*
X12579919Y-18364200D01*
X12820081Y-18364200D01*
X13055627Y-18317347D01*
X13277508Y-18225441D01*
X13477195Y-18092014D01*
X13647014Y-17922195D01*
X13780441Y-17722508D01*
X13872347Y-17500627D01*
X13919200Y-17265081D01*
X13919200Y-17024919D01*
X14020800Y-17024919D01*
X14020800Y-17265081D01*
X14067653Y-17500627D01*
X14159559Y-17722508D01*
X14292986Y-17922195D01*
X14462805Y-18092014D01*
X14662492Y-18225441D01*
X14884373Y-18317347D01*
X15119919Y-18364200D01*
X15360081Y-18364200D01*
X15595627Y-18317347D01*
X15817508Y-18225441D01*
X16017195Y-18092014D01*
X16187014Y-17922195D01*
X16320441Y-17722508D01*
X16412347Y-17500627D01*
X16459200Y-17265081D01*
X16459200Y-17024919D01*
X16560800Y-17024919D01*
X16560800Y-17265081D01*
X16607653Y-17500627D01*
X16699559Y-17722508D01*
X16832986Y-17922195D01*
X17002805Y-18092014D01*
X17202492Y-18225441D01*
X17424373Y-18317347D01*
X17659919Y-18364200D01*
X17900081Y-18364200D01*
X18135627Y-18317347D01*
X18357508Y-18225441D01*
X18557195Y-18092014D01*
X18727014Y-17922195D01*
X18860441Y-17722508D01*
X18952347Y-17500627D01*
X18999200Y-17265081D01*
X18999200Y-17024919D01*
X19100800Y-17024919D01*
X19100800Y-17265081D01*
X19147653Y-17500627D01*
X19239559Y-17722508D01*
X19372986Y-17922195D01*
X19542805Y-18092014D01*
X19742492Y-18225441D01*
X19964373Y-18317347D01*
X20199919Y-18364200D01*
X20440081Y-18364200D01*
X20675627Y-18317347D01*
X20897508Y-18225441D01*
X21097195Y-18092014D01*
X21267014Y-17922195D01*
X21400441Y-17722508D01*
X21492347Y-17500627D01*
X21539200Y-17265081D01*
X21539200Y-17024919D01*
X21640800Y-17024919D01*
X21640800Y-17265081D01*
X21687653Y-17500627D01*
X21779559Y-17722508D01*
X21912986Y-17922195D01*
X22082805Y-18092014D01*
X22282492Y-18225441D01*
X22504373Y-18317347D01*
X22739919Y-18364200D01*
X22980081Y-18364200D01*
X23215627Y-18317347D01*
X23437508Y-18225441D01*
X23637195Y-18092014D01*
X23807014Y-17922195D01*
X23940441Y-17722508D01*
X24032347Y-17500627D01*
X24079200Y-17265081D01*
X24079200Y-17024919D01*
X24180800Y-17024919D01*
X24180800Y-17265081D01*
X24227653Y-17500627D01*
X24319559Y-17722508D01*
X24452986Y-17922195D01*
X24622805Y-18092014D01*
X24822492Y-18225441D01*
X25044373Y-18317347D01*
X25279919Y-18364200D01*
X25520081Y-18364200D01*
X25755627Y-18317347D01*
X25977508Y-18225441D01*
X26177195Y-18092014D01*
X26347014Y-17922195D01*
X26480441Y-17722508D01*
X26572347Y-17500627D01*
X26619200Y-17265081D01*
X26619200Y-17024919D01*
X26720800Y-17024919D01*
X26720800Y-17265081D01*
X26767653Y-17500627D01*
X26859559Y-17722508D01*
X26992986Y-17922195D01*
X27162805Y-18092014D01*
X27362492Y-18225441D01*
X27584373Y-18317347D01*
X27819919Y-18364200D01*
X28060081Y-18364200D01*
X28295627Y-18317347D01*
X28517508Y-18225441D01*
X28717195Y-18092014D01*
X28887014Y-17922195D01*
X29020441Y-17722508D01*
X29112347Y-17500627D01*
X29159200Y-17265081D01*
X29159200Y-17024919D01*
X29260800Y-17024919D01*
X29260800Y-17265081D01*
X29307653Y-17500627D01*
X29399559Y-17722508D01*
X29532986Y-17922195D01*
X29702805Y-18092014D01*
X29902492Y-18225441D01*
X30124373Y-18317347D01*
X30359919Y-18364200D01*
X30600081Y-18364200D01*
X30835627Y-18317347D01*
X31057508Y-18225441D01*
X31257195Y-18092014D01*
X31427014Y-17922195D01*
X31560441Y-17722508D01*
X31652347Y-17500627D01*
X31699200Y-17265081D01*
X31699200Y-17024919D01*
X31652347Y-16789373D01*
X31560441Y-16567492D01*
X31427014Y-16367805D01*
X31257195Y-16197986D01*
X31057508Y-16064559D01*
X30835627Y-15972653D01*
X30600081Y-15925800D01*
X30359919Y-15925800D01*
X30124373Y-15972653D01*
X29902492Y-16064559D01*
X29702805Y-16197986D01*
X29532986Y-16367805D01*
X29399559Y-16567492D01*
X29307653Y-16789373D01*
X29260800Y-17024919D01*
X29159200Y-17024919D01*
X29112347Y-16789373D01*
X29020441Y-16567492D01*
X28887014Y-16367805D01*
X28717195Y-16197986D01*
X28517508Y-16064559D01*
X28295627Y-15972653D01*
X28060081Y-15925800D01*
X27819919Y-15925800D01*
X27584373Y-15972653D01*
X27362492Y-16064559D01*
X27162805Y-16197986D01*
X26992986Y-16367805D01*
X26859559Y-16567492D01*
X26767653Y-16789373D01*
X26720800Y-17024919D01*
X26619200Y-17024919D01*
X26572347Y-16789373D01*
X26480441Y-16567492D01*
X26347014Y-16367805D01*
X26177195Y-16197986D01*
X25977508Y-16064559D01*
X25755627Y-15972653D01*
X25520081Y-15925800D01*
X25279919Y-15925800D01*
X25044373Y-15972653D01*
X24822492Y-16064559D01*
X24622805Y-16197986D01*
X24452986Y-16367805D01*
X24319559Y-16567492D01*
X24227653Y-16789373D01*
X24180800Y-17024919D01*
X24079200Y-17024919D01*
X24032347Y-16789373D01*
X23940441Y-16567492D01*
X23807014Y-16367805D01*
X23637195Y-16197986D01*
X23437508Y-16064559D01*
X23215627Y-15972653D01*
X22980081Y-15925800D01*
X22739919Y-15925800D01*
X22504373Y-15972653D01*
X22282492Y-16064559D01*
X22082805Y-16197986D01*
X21912986Y-16367805D01*
X21779559Y-16567492D01*
X21687653Y-16789373D01*
X21640800Y-17024919D01*
X21539200Y-17024919D01*
X21492347Y-16789373D01*
X21400441Y-16567492D01*
X21267014Y-16367805D01*
X21097195Y-16197986D01*
X20897508Y-16064559D01*
X20675627Y-15972653D01*
X20440081Y-15925800D01*
X20199919Y-15925800D01*
X19964373Y-15972653D01*
X19742492Y-16064559D01*
X19542805Y-16197986D01*
X19372986Y-16367805D01*
X19239559Y-16567492D01*
X19147653Y-16789373D01*
X19100800Y-17024919D01*
X18999200Y-17024919D01*
X18952347Y-16789373D01*
X18860441Y-16567492D01*
X18727014Y-16367805D01*
X18557195Y-16197986D01*
X18357508Y-16064559D01*
X18135627Y-15972653D01*
X17900081Y-15925800D01*
X17659919Y-15925800D01*
X17424373Y-15972653D01*
X17202492Y-16064559D01*
X17002805Y-16197986D01*
X16832986Y-16367805D01*
X16699559Y-16567492D01*
X16607653Y-16789373D01*
X16560800Y-17024919D01*
X16459200Y-17024919D01*
X16412347Y-16789373D01*
X16320441Y-16567492D01*
X16187014Y-16367805D01*
X16017195Y-16197986D01*
X15817508Y-16064559D01*
X15595627Y-15972653D01*
X15360081Y-15925800D01*
X15119919Y-15925800D01*
X14884373Y-15972653D01*
X14662492Y-16064559D01*
X14462805Y-16197986D01*
X14292986Y-16367805D01*
X14159559Y-16567492D01*
X14067653Y-16789373D01*
X14020800Y-17024919D01*
X13919200Y-17024919D01*
X13872347Y-16789373D01*
X13780441Y-16567492D01*
X13647014Y-16367805D01*
X13477195Y-16197986D01*
X13277508Y-16064559D01*
X13055627Y-15972653D01*
X12820081Y-15925800D01*
X12579919Y-15925800D01*
X12344373Y-15972653D01*
X12122492Y-16064559D01*
X11922805Y-16197986D01*
X11752986Y-16367805D01*
X11619559Y-16567492D01*
X11527653Y-16789373D01*
X11480800Y-17024919D01*
X11379200Y-17024919D01*
X11332347Y-16789373D01*
X11240441Y-16567492D01*
X11107014Y-16367805D01*
X10937195Y-16197986D01*
X10737508Y-16064559D01*
X10515627Y-15972653D01*
X10280081Y-15925800D01*
X10039919Y-15925800D01*
X9804373Y-15972653D01*
X9582492Y-16064559D01*
X9382805Y-16197986D01*
X9212986Y-16367805D01*
X9079559Y-16567492D01*
X8987653Y-16789373D01*
X8940800Y-17024919D01*
X8839200Y-17024919D01*
X8792347Y-16789373D01*
X8700441Y-16567492D01*
X8567014Y-16367805D01*
X8397195Y-16197986D01*
X8197508Y-16064559D01*
X7975627Y-15972653D01*
X7740081Y-15925800D01*
X7499919Y-15925800D01*
X7264373Y-15972653D01*
X7042492Y-16064559D01*
X6842805Y-16197986D01*
X6672986Y-16367805D01*
X6539559Y-16567492D01*
X6447653Y-16789373D01*
X6436487Y-16845510D01*
X6361684Y-16604480D01*
X6241492Y-16379616D01*
X6017554Y-16297248D01*
X5169803Y-17145000D01*
X4990197Y-17145000D01*
X4142446Y-16297248D01*
X3918508Y-16379616D01*
X3791506Y-16620919D01*
X3724088Y-16848398D01*
X3712347Y-16789373D01*
X3620441Y-16567492D01*
X3487014Y-16367805D01*
X3326655Y-16207446D01*
X4232248Y-16207446D01*
X5080000Y-17055197D01*
X5927752Y-16207446D01*
X5845384Y-15983508D01*
X5604081Y-15856506D01*
X5342639Y-15779022D01*
X5071103Y-15754030D01*
X4799909Y-15782493D01*
X4539480Y-15863316D01*
X4314616Y-15983508D01*
X4232248Y-16207446D01*
X3326655Y-16207446D01*
X3317195Y-16197986D01*
X3117508Y-16064559D01*
X2895627Y-15972653D01*
X2660081Y-15925800D01*
X2419919Y-15925800D01*
X2184373Y-15972653D01*
X1962492Y-16064559D01*
X1762805Y-16197986D01*
X1592986Y-16367805D01*
X1459559Y-16567492D01*
X1367653Y-16789373D01*
X1320800Y-17024919D01*
X367900Y-17024919D01*
X367900Y-9405047D01*
X1893600Y-9405047D01*
X1893600Y-9644953D01*
X1940403Y-9880248D01*
X2032211Y-10101892D01*
X2165495Y-10301366D01*
X2335134Y-10471005D01*
X2534608Y-10604289D01*
X2756252Y-10696097D01*
X2991547Y-10742900D01*
X3231453Y-10742900D01*
X3466748Y-10696097D01*
X3688392Y-10604289D01*
X3887866Y-10471005D01*
X4057505Y-10301366D01*
X4190789Y-10101892D01*
X4282597Y-9880248D01*
X4329400Y-9644953D01*
X4329400Y-9405047D01*
X4307480Y-9294845D01*
X5854700Y-9294845D01*
X5854700Y-9755155D01*
X5944502Y-10206619D01*
X6120655Y-10631890D01*
X6376389Y-11014623D01*
X6701877Y-11340111D01*
X7084610Y-11595845D01*
X7509881Y-11771998D01*
X7961345Y-11861800D01*
X8421655Y-11861800D01*
X8873119Y-11771998D01*
X9298390Y-11595845D01*
X9681123Y-11340111D01*
X10006611Y-11014623D01*
X10262345Y-10631890D01*
X10438498Y-10206619D01*
X10528300Y-9755155D01*
X10528300Y-9405047D01*
X12053600Y-9405047D01*
X12053600Y-9644953D01*
X12100403Y-9880248D01*
X12192211Y-10101892D01*
X12325495Y-10301366D01*
X12495134Y-10471005D01*
X12694608Y-10604289D01*
X12916252Y-10696097D01*
X13151547Y-10742900D01*
X13391453Y-10742900D01*
X13626748Y-10696097D01*
X13848392Y-10604289D01*
X14047866Y-10471005D01*
X14217505Y-10301366D01*
X14350789Y-10101892D01*
X14442597Y-9880248D01*
X14489400Y-9644953D01*
X14489400Y-9405047D01*
X14442597Y-9169752D01*
X14350789Y-8948108D01*
X14217505Y-8748634D01*
X14047866Y-8578995D01*
X13848392Y-8445711D01*
X13626748Y-8353903D01*
X13391453Y-8307100D01*
X13151547Y-8307100D01*
X12916252Y-8353903D01*
X12694608Y-8445711D01*
X12495134Y-8578995D01*
X12325495Y-8748634D01*
X12192211Y-8948108D01*
X12100403Y-9169752D01*
X12053600Y-9405047D01*
X10528300Y-9405047D01*
X10528300Y-9294845D01*
X10438498Y-8843381D01*
X10262345Y-8418110D01*
X10006611Y-8035377D01*
X9681123Y-7709889D01*
X9298390Y-7454155D01*
X8873119Y-7278002D01*
X8421655Y-7188200D01*
X7961345Y-7188200D01*
X7509881Y-7278002D01*
X7084610Y-7454155D01*
X6701877Y-7709889D01*
X6376389Y-8035377D01*
X6120655Y-8418110D01*
X5944502Y-8843381D01*
X5854700Y-9294845D01*
X4307480Y-9294845D01*
X4282597Y-9169752D01*
X4190789Y-8948108D01*
X4057505Y-8748634D01*
X3887866Y-8578995D01*
X3688392Y-8445711D01*
X3466748Y-8353903D01*
X3231453Y-8307100D01*
X2991547Y-8307100D01*
X2756252Y-8353903D01*
X2534608Y-8445711D01*
X2335134Y-8578995D01*
X2165495Y-8748634D01*
X2032211Y-8948108D01*
X1940403Y-9169752D01*
X1893600Y-9405047D01*
X367900Y-9405047D01*
X367900Y-1466850D01*
X1319141Y-1466850D01*
X1319141Y-2343150D01*
X1334181Y-2495849D01*
X1378721Y-2642680D01*
X1451051Y-2778000D01*
X1548391Y-2896609D01*
X1667000Y-2993949D01*
X1802320Y-3066279D01*
X1949151Y-3110819D01*
X2101850Y-3125859D01*
X2133601Y-3125859D01*
X2133600Y-5120423D01*
X2131327Y-5143500D01*
X2133600Y-5166576D01*
X2140400Y-5235615D01*
X2167269Y-5324192D01*
X2210902Y-5405825D01*
X2269623Y-5477377D01*
X2287557Y-5492095D01*
X3082460Y-6286999D01*
X3080663Y-6289688D01*
X2970010Y-6556829D01*
X2913600Y-6840424D01*
X2913600Y-7129576D01*
X2970010Y-7413171D01*
X3080663Y-7680312D01*
X3241307Y-7920732D01*
X3445768Y-8125193D01*
X3686188Y-8285837D01*
X3953329Y-8396490D01*
X4236924Y-8452900D01*
X4526076Y-8452900D01*
X4809671Y-8396490D01*
X5076812Y-8285837D01*
X5317232Y-8125193D01*
X5521693Y-7920732D01*
X5682337Y-7680312D01*
X5792990Y-7413171D01*
X5849400Y-7129576D01*
X5849400Y-6840424D01*
X5792990Y-6556829D01*
X5682337Y-6289688D01*
X5521693Y-6049268D01*
X5317232Y-5844807D01*
X5076812Y-5684163D01*
X4809671Y-5573510D01*
X4526076Y-5517100D01*
X4236924Y-5517100D01*
X3953329Y-5573510D01*
X3772818Y-5648280D01*
X3073400Y-4948862D01*
X3073400Y-3116477D01*
X3130849Y-3110819D01*
X3277680Y-3066279D01*
X3413000Y-2993949D01*
X3531609Y-2896609D01*
X3628949Y-2778000D01*
X3701279Y-2642680D01*
X3745819Y-2495849D01*
X3760859Y-2343150D01*
X3760859Y-1784919D01*
X3860800Y-1784919D01*
X3860800Y-2025081D01*
X3907653Y-2260627D01*
X3999559Y-2482508D01*
X4132986Y-2682195D01*
X4302805Y-2852014D01*
X4502492Y-2985441D01*
X4610101Y-3030014D01*
X4610101Y-3215413D01*
X4607827Y-3238500D01*
X4616900Y-3330616D01*
X4643769Y-3419192D01*
X4643770Y-3419193D01*
X4687403Y-3500825D01*
X4746124Y-3572377D01*
X4764052Y-3587090D01*
X5937909Y-4760948D01*
X5952623Y-4778877D01*
X6024175Y-4837598D01*
X6060637Y-4857087D01*
X6105807Y-4881231D01*
X6194383Y-4908100D01*
X6286500Y-4917173D01*
X6309577Y-4914900D01*
X9337295Y-4914900D01*
X9430663Y-5140312D01*
X9591307Y-5380732D01*
X9795768Y-5585193D01*
X10036188Y-5745837D01*
X10303329Y-5856490D01*
X10586924Y-5912900D01*
X10876076Y-5912900D01*
X11159671Y-5856490D01*
X11426812Y-5745837D01*
X11667232Y-5585193D01*
X11871693Y-5380732D01*
X12032337Y-5140312D01*
X12142990Y-4873171D01*
X12199400Y-4589576D01*
X12199400Y-4300424D01*
X12142990Y-4016829D01*
X12032337Y-3749688D01*
X11871693Y-3509268D01*
X11667232Y-3304807D01*
X11426812Y-3144163D01*
X11159671Y-3033510D01*
X10952661Y-2992333D01*
X11007752Y-2842554D01*
X10160000Y-1994803D01*
X9312248Y-2842554D01*
X9394616Y-3066492D01*
X9635919Y-3193494D01*
X9862056Y-3260515D01*
X9795768Y-3304807D01*
X9591307Y-3509268D01*
X9430663Y-3749688D01*
X9337295Y-3975100D01*
X6481139Y-3975100D01*
X5549900Y-3043862D01*
X5549900Y-3030014D01*
X5657508Y-2985441D01*
X5857195Y-2852014D01*
X5866655Y-2842554D01*
X6772248Y-2842554D01*
X6854616Y-3066492D01*
X7095919Y-3193494D01*
X7357361Y-3270978D01*
X7628897Y-3295970D01*
X7900091Y-3267507D01*
X8160520Y-3186684D01*
X8385384Y-3066492D01*
X8467752Y-2842554D01*
X7620000Y-1994803D01*
X6772248Y-2842554D01*
X5866655Y-2842554D01*
X6027014Y-2682195D01*
X6160441Y-2482508D01*
X6252347Y-2260627D01*
X6263513Y-2204490D01*
X6338316Y-2445520D01*
X6458508Y-2670384D01*
X6682446Y-2752752D01*
X7530197Y-1905000D01*
X7709803Y-1905000D01*
X8557554Y-2752752D01*
X8781492Y-2670384D01*
X8889162Y-2465812D01*
X8998508Y-2670384D01*
X9222446Y-2752752D01*
X10070197Y-1905000D01*
X10249803Y-1905000D01*
X11097554Y-2752752D01*
X11321492Y-2670384D01*
X11448494Y-2429081D01*
X11515912Y-2201602D01*
X11527653Y-2260627D01*
X11619559Y-2482508D01*
X11752986Y-2682195D01*
X11922805Y-2852014D01*
X12122492Y-2985441D01*
X12230101Y-3030014D01*
X12230100Y-6283743D01*
X12227827Y-6306820D01*
X12236900Y-6398935D01*
X12263769Y-6487512D01*
X12307402Y-6569145D01*
X12366123Y-6640697D01*
X12384057Y-6655415D01*
X21188070Y-15459429D01*
X21202783Y-15477357D01*
X21274335Y-15536078D01*
X21355967Y-15579711D01*
X21411096Y-15596434D01*
X21444542Y-15606580D01*
X21536659Y-15615653D01*
X21559736Y-15613380D01*
X68445163Y-15613380D01*
X68468240Y-15615653D01*
X68491317Y-15613380D01*
X68560356Y-15606580D01*
X68648933Y-15579711D01*
X68730565Y-15536078D01*
X68802117Y-15477357D01*
X68816835Y-15459423D01*
X68879667Y-15396591D01*
X91599321Y-15396591D01*
X91642822Y-15540005D01*
X91731804Y-15716440D01*
X91853497Y-15872125D01*
X92003224Y-16001078D01*
X92175231Y-16098343D01*
X92362909Y-16160182D01*
X92519500Y-16055501D01*
X92519500Y-15240000D01*
X92646500Y-15240000D01*
X92646500Y-16055501D01*
X92803091Y-16160182D01*
X92990769Y-16098343D01*
X93162776Y-16001078D01*
X93312503Y-15872125D01*
X93434196Y-15716440D01*
X93523178Y-15540005D01*
X93566679Y-15396591D01*
X93461709Y-15240000D01*
X92646500Y-15240000D01*
X92519500Y-15240000D01*
X91704291Y-15240000D01*
X91599321Y-15396591D01*
X68879667Y-15396591D01*
X74871211Y-9405047D01*
X78093600Y-9405047D01*
X78093600Y-9644953D01*
X78140403Y-9880248D01*
X78232211Y-10101892D01*
X78365495Y-10301366D01*
X78535134Y-10471005D01*
X78734608Y-10604289D01*
X78956252Y-10696097D01*
X79191547Y-10742900D01*
X79431453Y-10742900D01*
X79666748Y-10696097D01*
X79888392Y-10604289D01*
X80087866Y-10471005D01*
X80257505Y-10301366D01*
X80390789Y-10101892D01*
X80482597Y-9880248D01*
X80529400Y-9644953D01*
X80529400Y-9405047D01*
X80507480Y-9294845D01*
X82054700Y-9294845D01*
X82054700Y-9755155D01*
X82144502Y-10206619D01*
X82320655Y-10631890D01*
X82576389Y-11014623D01*
X82901877Y-11340111D01*
X83284610Y-11595845D01*
X83709881Y-11771998D01*
X84161345Y-11861800D01*
X84621655Y-11861800D01*
X85073119Y-11771998D01*
X85498390Y-11595845D01*
X85881123Y-11340111D01*
X86206611Y-11014623D01*
X86462345Y-10631890D01*
X86638498Y-10206619D01*
X86728300Y-9755155D01*
X86728300Y-9405047D01*
X88253600Y-9405047D01*
X88253600Y-9644953D01*
X88300403Y-9880248D01*
X88392211Y-10101892D01*
X88525495Y-10301366D01*
X88695134Y-10471005D01*
X88894608Y-10604289D01*
X89116252Y-10696097D01*
X89351547Y-10742900D01*
X89591453Y-10742900D01*
X89826748Y-10696097D01*
X90048392Y-10604289D01*
X90247866Y-10471005D01*
X90417505Y-10301366D01*
X90550789Y-10101892D01*
X90642597Y-9880248D01*
X90689400Y-9644953D01*
X90689400Y-9405047D01*
X90642597Y-9169752D01*
X90550789Y-8948108D01*
X90417505Y-8748634D01*
X90247866Y-8578995D01*
X90048392Y-8445711D01*
X89826748Y-8353903D01*
X89591453Y-8307100D01*
X89351547Y-8307100D01*
X89116252Y-8353903D01*
X88894608Y-8445711D01*
X88695134Y-8578995D01*
X88525495Y-8748634D01*
X88392211Y-8948108D01*
X88300403Y-9169752D01*
X88253600Y-9405047D01*
X86728300Y-9405047D01*
X86728300Y-9294845D01*
X86638498Y-8843381D01*
X86462345Y-8418110D01*
X86206611Y-8035377D01*
X85881123Y-7709889D01*
X85498390Y-7454155D01*
X85073119Y-7278002D01*
X84621655Y-7188200D01*
X84161345Y-7188200D01*
X83709881Y-7278002D01*
X83284610Y-7454155D01*
X82901877Y-7709889D01*
X82576389Y-8035377D01*
X82320655Y-8418110D01*
X82144502Y-8843381D01*
X82054700Y-9294845D01*
X80507480Y-9294845D01*
X80482597Y-9169752D01*
X80390789Y-8948108D01*
X80257505Y-8748634D01*
X80087866Y-8578995D01*
X79888392Y-8445711D01*
X79666748Y-8353903D01*
X79431453Y-8307100D01*
X79191547Y-8307100D01*
X78956252Y-8353903D01*
X78734608Y-8445711D01*
X78535134Y-8578995D01*
X78365495Y-8748634D01*
X78232211Y-8948108D01*
X78140403Y-9169752D01*
X78093600Y-9405047D01*
X74871211Y-9405047D01*
X76821359Y-7454900D01*
X79187295Y-7454900D01*
X79280663Y-7680312D01*
X79441307Y-7920732D01*
X79645768Y-8125193D01*
X79886188Y-8285837D01*
X80153329Y-8396490D01*
X80436924Y-8452900D01*
X80726076Y-8452900D01*
X81009671Y-8396490D01*
X81276812Y-8285837D01*
X81517232Y-8125193D01*
X81721693Y-7920732D01*
X81882337Y-7680312D01*
X81992990Y-7413171D01*
X82049400Y-7129576D01*
X82049400Y-6840424D01*
X81992990Y-6556829D01*
X81882337Y-6289688D01*
X81721693Y-6049268D01*
X81517232Y-5844807D01*
X81276812Y-5684163D01*
X81009671Y-5573510D01*
X80726076Y-5517100D01*
X80436924Y-5517100D01*
X80153329Y-5573510D01*
X79886188Y-5684163D01*
X79645768Y-5844807D01*
X79441307Y-6049268D01*
X79280663Y-6289688D01*
X79187295Y-6515100D01*
X76649796Y-6515100D01*
X76626719Y-6512827D01*
X76534603Y-6521900D01*
X76446027Y-6548769D01*
X76394260Y-6576439D01*
X78055799Y-4914900D01*
X85537295Y-4914900D01*
X85630663Y-5140312D01*
X85791307Y-5380732D01*
X85995768Y-5585193D01*
X86236188Y-5745837D01*
X86503329Y-5856490D01*
X86786924Y-5912900D01*
X87076076Y-5912900D01*
X87359671Y-5856490D01*
X87626812Y-5745837D01*
X87867232Y-5585193D01*
X88071693Y-5380732D01*
X88232337Y-5140312D01*
X88342990Y-4873171D01*
X88399400Y-4589576D01*
X88399400Y-4300424D01*
X88388674Y-4246500D01*
X91572542Y-4246500D01*
X91582350Y-4346085D01*
X91611398Y-4441844D01*
X91658570Y-4530095D01*
X91722052Y-4607448D01*
X91799405Y-4670930D01*
X91811184Y-4677226D01*
X91772493Y-4770635D01*
X91740100Y-4933482D01*
X91740100Y-5099518D01*
X91772493Y-5262365D01*
X91836032Y-5415763D01*
X91928277Y-5553817D01*
X92025960Y-5651500D01*
X91928277Y-5749183D01*
X91836032Y-5887237D01*
X91772493Y-6040635D01*
X91740100Y-6203482D01*
X91740100Y-6369518D01*
X91772493Y-6532365D01*
X91836032Y-6685763D01*
X91928277Y-6823817D01*
X92025960Y-6921500D01*
X91928277Y-7019183D01*
X91836032Y-7157237D01*
X91772493Y-7310635D01*
X91740100Y-7473482D01*
X91740100Y-7639518D01*
X91772493Y-7802365D01*
X91836032Y-7955763D01*
X91928277Y-8093817D01*
X92025960Y-8191500D01*
X91928277Y-8289183D01*
X91836032Y-8427237D01*
X91772493Y-8580635D01*
X91740100Y-8743482D01*
X91740100Y-8909518D01*
X91772493Y-9072365D01*
X91836032Y-9225763D01*
X91928277Y-9363817D01*
X92025960Y-9461500D01*
X91928277Y-9559183D01*
X91836032Y-9697237D01*
X91772493Y-9850635D01*
X91740100Y-10013482D01*
X91740100Y-10179518D01*
X91772493Y-10342365D01*
X91836032Y-10495763D01*
X91928277Y-10633817D01*
X92025960Y-10731500D01*
X91928277Y-10829183D01*
X91836032Y-10967237D01*
X91772493Y-11120635D01*
X91740100Y-11283482D01*
X91740100Y-11449518D01*
X91772493Y-11612365D01*
X91836032Y-11765763D01*
X91928277Y-11903817D01*
X92025960Y-12001500D01*
X91928277Y-12099183D01*
X91836032Y-12237237D01*
X91772493Y-12390635D01*
X91740100Y-12553482D01*
X91740100Y-12719518D01*
X91772493Y-12882365D01*
X91836032Y-13035763D01*
X91928277Y-13173817D01*
X92025960Y-13271500D01*
X91928277Y-13369183D01*
X91836032Y-13507237D01*
X91772493Y-13660635D01*
X91740100Y-13823482D01*
X91740100Y-13989518D01*
X91772493Y-14152365D01*
X91836032Y-14305763D01*
X91916679Y-14426459D01*
X91853497Y-14480875D01*
X91731804Y-14636560D01*
X91642822Y-14812995D01*
X91599321Y-14956409D01*
X91704291Y-15113000D01*
X92519500Y-15113000D01*
X92519500Y-15093000D01*
X92646500Y-15093000D01*
X92646500Y-15113000D01*
X93461709Y-15113000D01*
X93566679Y-14956409D01*
X93523178Y-14812995D01*
X93434196Y-14636560D01*
X93312503Y-14480875D01*
X93249321Y-14426459D01*
X93329968Y-14305763D01*
X93393507Y-14152365D01*
X93425900Y-13989518D01*
X93425900Y-13823482D01*
X93393507Y-13660635D01*
X93329968Y-13507237D01*
X93237723Y-13369183D01*
X93140040Y-13271500D01*
X93237723Y-13173817D01*
X93329968Y-13035763D01*
X93393507Y-12882365D01*
X93425900Y-12719518D01*
X93425900Y-12553482D01*
X93393507Y-12390635D01*
X93329968Y-12237237D01*
X93237723Y-12099183D01*
X93140040Y-12001500D01*
X93237723Y-11903817D01*
X93329968Y-11765763D01*
X93393507Y-11612365D01*
X93425900Y-11449518D01*
X93425900Y-11283482D01*
X93393507Y-11120635D01*
X93329968Y-10967237D01*
X93237723Y-10829183D01*
X93140040Y-10731500D01*
X93237723Y-10633817D01*
X93329968Y-10495763D01*
X93393507Y-10342365D01*
X93425900Y-10179518D01*
X93425900Y-10013482D01*
X93393507Y-9850635D01*
X93329968Y-9697237D01*
X93237723Y-9559183D01*
X93140040Y-9461500D01*
X93237723Y-9363817D01*
X93329968Y-9225763D01*
X93393507Y-9072365D01*
X93425900Y-8909518D01*
X93425900Y-8743482D01*
X93393507Y-8580635D01*
X93329968Y-8427237D01*
X93237723Y-8289183D01*
X93140040Y-8191500D01*
X93237723Y-8093817D01*
X93329968Y-7955763D01*
X93393507Y-7802365D01*
X93425900Y-7639518D01*
X93425900Y-7473482D01*
X93393507Y-7310635D01*
X93329968Y-7157237D01*
X93237723Y-7019183D01*
X93140040Y-6921500D01*
X93237723Y-6823817D01*
X93329968Y-6685763D01*
X93393507Y-6532365D01*
X93425900Y-6369518D01*
X93425900Y-6203482D01*
X93393507Y-6040635D01*
X93329968Y-5887237D01*
X93237723Y-5749183D01*
X93140040Y-5651500D01*
X93237723Y-5553817D01*
X93329968Y-5415763D01*
X93393507Y-5262365D01*
X93425900Y-5099518D01*
X93425900Y-4933482D01*
X93393507Y-4770635D01*
X93354816Y-4677226D01*
X93366595Y-4670930D01*
X93443948Y-4607448D01*
X93507430Y-4530095D01*
X93554602Y-4441844D01*
X93583650Y-4346085D01*
X93593458Y-4246500D01*
X93591000Y-3937000D01*
X93464000Y-3810000D01*
X92646500Y-3810000D01*
X92646500Y-3830000D01*
X92519500Y-3830000D01*
X92519500Y-3810000D01*
X91702000Y-3810000D01*
X91575000Y-3937000D01*
X91572542Y-4246500D01*
X88388674Y-4246500D01*
X88342990Y-4016829D01*
X88232337Y-3749688D01*
X88071693Y-3509268D01*
X87867232Y-3304807D01*
X87779970Y-3246500D01*
X91572542Y-3246500D01*
X91575000Y-3556000D01*
X91702000Y-3683000D01*
X92519500Y-3683000D01*
X92519500Y-2865500D01*
X92646500Y-2865500D01*
X92646500Y-3683000D01*
X93464000Y-3683000D01*
X93591000Y-3556000D01*
X93593458Y-3246500D01*
X93583650Y-3146915D01*
X93554602Y-3051156D01*
X93507430Y-2962905D01*
X93443948Y-2885552D01*
X93366595Y-2822070D01*
X93278344Y-2774898D01*
X93182585Y-2745850D01*
X93083000Y-2736042D01*
X92773500Y-2738500D01*
X92646500Y-2865500D01*
X92519500Y-2865500D01*
X92392500Y-2738500D01*
X92083000Y-2736042D01*
X91983415Y-2745850D01*
X91887656Y-2774898D01*
X91799405Y-2822070D01*
X91722052Y-2885552D01*
X91658570Y-2962905D01*
X91611398Y-3051156D01*
X91582350Y-3146915D01*
X91572542Y-3246500D01*
X87779970Y-3246500D01*
X87626812Y-3144163D01*
X87359671Y-3033510D01*
X87076076Y-2977100D01*
X86786924Y-2977100D01*
X86503329Y-3033510D01*
X86236188Y-3144163D01*
X85995768Y-3304807D01*
X85791307Y-3509268D01*
X85630663Y-3749688D01*
X85537295Y-3975100D01*
X77884237Y-3975100D01*
X77861160Y-3972827D01*
X77769043Y-3981900D01*
X77680467Y-4008769D01*
X77598835Y-4052402D01*
X77527283Y-4111123D01*
X77512570Y-4129051D01*
X71422376Y-10219246D01*
X71500789Y-10101892D01*
X71592597Y-9880248D01*
X71639400Y-9644953D01*
X71639400Y-9405047D01*
X71592597Y-9169752D01*
X71500789Y-8948108D01*
X71367505Y-8748634D01*
X71197866Y-8578995D01*
X70998392Y-8445711D01*
X70776748Y-8353903D01*
X70541453Y-8307100D01*
X70301547Y-8307100D01*
X70066252Y-8353903D01*
X69844608Y-8445711D01*
X69645134Y-8578995D01*
X69475495Y-8748634D01*
X69342211Y-8948108D01*
X69250403Y-9169752D01*
X69203600Y-9405047D01*
X69203600Y-9644953D01*
X69250403Y-9880248D01*
X69342211Y-10101892D01*
X69475495Y-10301366D01*
X69645134Y-10471005D01*
X69844608Y-10604289D01*
X70066252Y-10696097D01*
X70301547Y-10742900D01*
X70541453Y-10742900D01*
X70776748Y-10696097D01*
X70998392Y-10604289D01*
X71115746Y-10525876D01*
X67882442Y-13759180D01*
X51395393Y-13759180D01*
X51422653Y-13750911D01*
X51504285Y-13707278D01*
X51575837Y-13648557D01*
X51590555Y-13630623D01*
X55816131Y-9405047D01*
X59043600Y-9405047D01*
X59043600Y-9644953D01*
X59090403Y-9880248D01*
X59182211Y-10101892D01*
X59315495Y-10301366D01*
X59485134Y-10471005D01*
X59684608Y-10604289D01*
X59906252Y-10696097D01*
X60141547Y-10742900D01*
X60381453Y-10742900D01*
X60616748Y-10696097D01*
X60838392Y-10604289D01*
X61037866Y-10471005D01*
X61207505Y-10301366D01*
X61340789Y-10101892D01*
X61432597Y-9880248D01*
X61479400Y-9644953D01*
X61479400Y-9405047D01*
X61457480Y-9294845D01*
X63004700Y-9294845D01*
X63004700Y-9755155D01*
X63094502Y-10206619D01*
X63270655Y-10631890D01*
X63526389Y-11014623D01*
X63851877Y-11340111D01*
X64234610Y-11595845D01*
X64659881Y-11771998D01*
X65111345Y-11861800D01*
X65571655Y-11861800D01*
X66023119Y-11771998D01*
X66448390Y-11595845D01*
X66831123Y-11340111D01*
X67156611Y-11014623D01*
X67412345Y-10631890D01*
X67588498Y-10206619D01*
X67678300Y-9755155D01*
X67678300Y-9294845D01*
X67588498Y-8843381D01*
X67412345Y-8418110D01*
X67156611Y-8035377D01*
X66831123Y-7709889D01*
X66448390Y-7454155D01*
X66023119Y-7278002D01*
X65571655Y-7188200D01*
X65111345Y-7188200D01*
X64659881Y-7278002D01*
X64234610Y-7454155D01*
X63851877Y-7709889D01*
X63526389Y-8035377D01*
X63270655Y-8418110D01*
X63094502Y-8843381D01*
X63004700Y-9294845D01*
X61457480Y-9294845D01*
X61432597Y-9169752D01*
X61340789Y-8948108D01*
X61207505Y-8748634D01*
X61037866Y-8578995D01*
X60838392Y-8445711D01*
X60616748Y-8353903D01*
X60381453Y-8307100D01*
X60141547Y-8307100D01*
X59906252Y-8353903D01*
X59684608Y-8445711D01*
X59485134Y-8578995D01*
X59315495Y-8748634D01*
X59182211Y-8948108D01*
X59090403Y-9169752D01*
X59043600Y-9405047D01*
X55816131Y-9405047D01*
X57766279Y-7454900D01*
X60137295Y-7454900D01*
X60230663Y-7680312D01*
X60391307Y-7920732D01*
X60595768Y-8125193D01*
X60836188Y-8285837D01*
X61103329Y-8396490D01*
X61386924Y-8452900D01*
X61676076Y-8452900D01*
X61959671Y-8396490D01*
X62226812Y-8285837D01*
X62467232Y-8125193D01*
X62671693Y-7920732D01*
X62832337Y-7680312D01*
X62942990Y-7413171D01*
X62999400Y-7129576D01*
X62999400Y-6840424D01*
X62942990Y-6556829D01*
X62832337Y-6289688D01*
X62671693Y-6049268D01*
X62467232Y-5844807D01*
X62226812Y-5684163D01*
X61959671Y-5573510D01*
X61676076Y-5517100D01*
X61386924Y-5517100D01*
X61103329Y-5573510D01*
X60836188Y-5684163D01*
X60595768Y-5844807D01*
X60391307Y-6049268D01*
X60230663Y-6289688D01*
X60137295Y-6515100D01*
X57594716Y-6515100D01*
X57571639Y-6512827D01*
X57479522Y-6521900D01*
X57446076Y-6532046D01*
X57390947Y-6548769D01*
X57350093Y-6570606D01*
X59005799Y-4914900D01*
X66487295Y-4914900D01*
X66580663Y-5140312D01*
X66741307Y-5380732D01*
X66945768Y-5585193D01*
X67186188Y-5745837D01*
X67453329Y-5856490D01*
X67736924Y-5912900D01*
X68026076Y-5912900D01*
X68309671Y-5856490D01*
X68576812Y-5745837D01*
X68817232Y-5585193D01*
X69021693Y-5380732D01*
X69182337Y-5140312D01*
X69292990Y-4873171D01*
X69349400Y-4589576D01*
X69349400Y-4300424D01*
X69292990Y-4016829D01*
X69182337Y-3749688D01*
X69021693Y-3509268D01*
X68817232Y-3304807D01*
X68576812Y-3144163D01*
X68309671Y-3033510D01*
X68026076Y-2977100D01*
X67736924Y-2977100D01*
X67453329Y-3033510D01*
X67186188Y-3144163D01*
X66945768Y-3304807D01*
X66741307Y-3509268D01*
X66580663Y-3749688D01*
X66487295Y-3975100D01*
X58834237Y-3975100D01*
X58811160Y-3972827D01*
X58719043Y-3981900D01*
X58630467Y-4008769D01*
X58548835Y-4052402D01*
X58477283Y-4111123D01*
X58462570Y-4129051D01*
X52372376Y-10219246D01*
X52450789Y-10101892D01*
X52542597Y-9880248D01*
X52589400Y-9644953D01*
X52589400Y-9405047D01*
X52542597Y-9169752D01*
X52450789Y-8948108D01*
X52317505Y-8748634D01*
X52147866Y-8578995D01*
X51948392Y-8445711D01*
X51726748Y-8353903D01*
X51491453Y-8307100D01*
X51251547Y-8307100D01*
X51016252Y-8353903D01*
X50794608Y-8445711D01*
X50595134Y-8578995D01*
X50425495Y-8748634D01*
X50292211Y-8948108D01*
X50200403Y-9169752D01*
X50153600Y-9405047D01*
X50153600Y-9644953D01*
X50200403Y-9880248D01*
X50292211Y-10101892D01*
X50425495Y-10301366D01*
X50595134Y-10471005D01*
X50794608Y-10604289D01*
X51016252Y-10696097D01*
X51251547Y-10742900D01*
X51491453Y-10742900D01*
X51726748Y-10696097D01*
X51948392Y-10604289D01*
X52065746Y-10525876D01*
X50661242Y-11930380D01*
X22874299Y-11930380D01*
X21474909Y-10530991D01*
X21584608Y-10604289D01*
X21806252Y-10696097D01*
X22041547Y-10742900D01*
X22281453Y-10742900D01*
X22516748Y-10696097D01*
X22738392Y-10604289D01*
X22937866Y-10471005D01*
X23107505Y-10301366D01*
X23240789Y-10101892D01*
X23332597Y-9880248D01*
X23379400Y-9644953D01*
X23379400Y-9405047D01*
X23357480Y-9294845D01*
X24904700Y-9294845D01*
X24904700Y-9755155D01*
X24994502Y-10206619D01*
X25170655Y-10631890D01*
X25426389Y-11014623D01*
X25751877Y-11340111D01*
X26134610Y-11595845D01*
X26559881Y-11771998D01*
X27011345Y-11861800D01*
X27471655Y-11861800D01*
X27923119Y-11771998D01*
X28348390Y-11595845D01*
X28731123Y-11340111D01*
X29056611Y-11014623D01*
X29312345Y-10631890D01*
X29488498Y-10206619D01*
X29578300Y-9755155D01*
X29578300Y-9405047D01*
X31103600Y-9405047D01*
X31103600Y-9644953D01*
X31150403Y-9880248D01*
X31242211Y-10101892D01*
X31375495Y-10301366D01*
X31545134Y-10471005D01*
X31744608Y-10604289D01*
X31966252Y-10696097D01*
X32201547Y-10742900D01*
X32441453Y-10742900D01*
X32676748Y-10696097D01*
X32898392Y-10604289D01*
X33097866Y-10471005D01*
X33267505Y-10301366D01*
X33400789Y-10101892D01*
X33492597Y-9880248D01*
X33539400Y-9644953D01*
X33539400Y-9405047D01*
X39993600Y-9405047D01*
X39993600Y-9644953D01*
X40040403Y-9880248D01*
X40132211Y-10101892D01*
X40265495Y-10301366D01*
X40435134Y-10471005D01*
X40634608Y-10604289D01*
X40856252Y-10696097D01*
X41091547Y-10742900D01*
X41331453Y-10742900D01*
X41566748Y-10696097D01*
X41788392Y-10604289D01*
X41987866Y-10471005D01*
X42157505Y-10301366D01*
X42290789Y-10101892D01*
X42382597Y-9880248D01*
X42429400Y-9644953D01*
X42429400Y-9405047D01*
X42407480Y-9294845D01*
X43954700Y-9294845D01*
X43954700Y-9755155D01*
X44044502Y-10206619D01*
X44220655Y-10631890D01*
X44476389Y-11014623D01*
X44801877Y-11340111D01*
X45184610Y-11595845D01*
X45609881Y-11771998D01*
X46061345Y-11861800D01*
X46521655Y-11861800D01*
X46973119Y-11771998D01*
X47398390Y-11595845D01*
X47781123Y-11340111D01*
X48106611Y-11014623D01*
X48362345Y-10631890D01*
X48538498Y-10206619D01*
X48628300Y-9755155D01*
X48628300Y-9294845D01*
X48538498Y-8843381D01*
X48362345Y-8418110D01*
X48106611Y-8035377D01*
X47781123Y-7709889D01*
X47398390Y-7454155D01*
X46973119Y-7278002D01*
X46521655Y-7188200D01*
X46061345Y-7188200D01*
X45609881Y-7278002D01*
X45184610Y-7454155D01*
X44801877Y-7709889D01*
X44476389Y-8035377D01*
X44220655Y-8418110D01*
X44044502Y-8843381D01*
X43954700Y-9294845D01*
X42407480Y-9294845D01*
X42382597Y-9169752D01*
X42290789Y-8948108D01*
X42157505Y-8748634D01*
X41987866Y-8578995D01*
X41788392Y-8445711D01*
X41566748Y-8353903D01*
X41331453Y-8307100D01*
X41091547Y-8307100D01*
X40856252Y-8353903D01*
X40634608Y-8445711D01*
X40435134Y-8578995D01*
X40265495Y-8748634D01*
X40132211Y-8948108D01*
X40040403Y-9169752D01*
X39993600Y-9405047D01*
X33539400Y-9405047D01*
X33492597Y-9169752D01*
X33400789Y-8948108D01*
X33267505Y-8748634D01*
X33097866Y-8578995D01*
X32898392Y-8445711D01*
X32676748Y-8353903D01*
X32441453Y-8307100D01*
X32201547Y-8307100D01*
X31966252Y-8353903D01*
X31744608Y-8445711D01*
X31545134Y-8578995D01*
X31375495Y-8748634D01*
X31242211Y-8948108D01*
X31150403Y-9169752D01*
X31103600Y-9405047D01*
X29578300Y-9405047D01*
X29578300Y-9294845D01*
X29488498Y-8843381D01*
X29312345Y-8418110D01*
X29056611Y-8035377D01*
X28731123Y-7709889D01*
X28348390Y-7454155D01*
X27923119Y-7278002D01*
X27471655Y-7188200D01*
X27011345Y-7188200D01*
X26559881Y-7278002D01*
X26134610Y-7454155D01*
X25751877Y-7709889D01*
X25426389Y-8035377D01*
X25170655Y-8418110D01*
X24994502Y-8843381D01*
X24904700Y-9294845D01*
X23357480Y-9294845D01*
X23332597Y-9169752D01*
X23240789Y-8948108D01*
X23107505Y-8748634D01*
X22937866Y-8578995D01*
X22738392Y-8445711D01*
X22516748Y-8353903D01*
X22281453Y-8307100D01*
X22041547Y-8307100D01*
X21806252Y-8353903D01*
X21584608Y-8445711D01*
X21385134Y-8578995D01*
X21215495Y-8748634D01*
X21082211Y-8948108D01*
X20990403Y-9169752D01*
X20943600Y-9405047D01*
X20943600Y-9644953D01*
X20990403Y-9880248D01*
X21082211Y-10101892D01*
X21155510Y-10211591D01*
X20789900Y-9845982D01*
X20789900Y-3030014D01*
X20897508Y-2985441D01*
X21097195Y-2852014D01*
X21267014Y-2682195D01*
X21400441Y-2482508D01*
X21492347Y-2260627D01*
X21539200Y-2025081D01*
X21539200Y-1784919D01*
X21640800Y-1784919D01*
X21640800Y-2025081D01*
X21687653Y-2260627D01*
X21779559Y-2482508D01*
X21912986Y-2682195D01*
X22082805Y-2852014D01*
X22282492Y-2985441D01*
X22390100Y-3030014D01*
X22390100Y-3850423D01*
X22387827Y-3873500D01*
X22396900Y-3965616D01*
X22399777Y-3975100D01*
X22423769Y-4054192D01*
X22467402Y-4135825D01*
X22526123Y-4207377D01*
X22544057Y-4222095D01*
X23025101Y-4703140D01*
X23025101Y-5569179D01*
X23003329Y-5573510D01*
X22736188Y-5684163D01*
X22495768Y-5844807D01*
X22291307Y-6049268D01*
X22130663Y-6289688D01*
X22020010Y-6556829D01*
X21963600Y-6840424D01*
X21963600Y-7129576D01*
X22020010Y-7413171D01*
X22130663Y-7680312D01*
X22291307Y-7920732D01*
X22495768Y-8125193D01*
X22736188Y-8285837D01*
X23003329Y-8396490D01*
X23286924Y-8452900D01*
X23576076Y-8452900D01*
X23859671Y-8396490D01*
X24126812Y-8285837D01*
X24367232Y-8125193D01*
X24571693Y-7920732D01*
X24732337Y-7680312D01*
X24842990Y-7413171D01*
X24899400Y-7129576D01*
X24899400Y-6840424D01*
X24842990Y-6556829D01*
X24732337Y-6289688D01*
X24571693Y-6049268D01*
X24367232Y-5844807D01*
X24126812Y-5684163D01*
X23964900Y-5617097D01*
X23964900Y-4531577D01*
X23967173Y-4508500D01*
X23958100Y-4416383D01*
X23931231Y-4327807D01*
X23921569Y-4309731D01*
X23887598Y-4246175D01*
X23828877Y-4174623D01*
X23810948Y-4159909D01*
X23329900Y-3678862D01*
X23329900Y-3030014D01*
X23437508Y-2985441D01*
X23637195Y-2852014D01*
X23807014Y-2682195D01*
X23940441Y-2482508D01*
X24032347Y-2260627D01*
X24079200Y-2025081D01*
X24079200Y-1784919D01*
X24180800Y-1784919D01*
X24180800Y-2025081D01*
X24227653Y-2260627D01*
X24319559Y-2482508D01*
X24452986Y-2682195D01*
X24622805Y-2852014D01*
X24822492Y-2985441D01*
X24930100Y-3030014D01*
X24930100Y-3431322D01*
X24927827Y-3454400D01*
X24936900Y-3546516D01*
X24962557Y-3631098D01*
X24963769Y-3635092D01*
X25007402Y-3716725D01*
X25066123Y-3788277D01*
X25084057Y-3802995D01*
X28582010Y-7300949D01*
X28596723Y-7318877D01*
X28668275Y-7377598D01*
X28749907Y-7421231D01*
X28805036Y-7437954D01*
X28838482Y-7448100D01*
X28930599Y-7457173D01*
X28953676Y-7454900D01*
X41087295Y-7454900D01*
X41180663Y-7680312D01*
X41341307Y-7920732D01*
X41545768Y-8125193D01*
X41786188Y-8285837D01*
X42053329Y-8396490D01*
X42336924Y-8452900D01*
X42626076Y-8452900D01*
X42909671Y-8396490D01*
X43176812Y-8285837D01*
X43417232Y-8125193D01*
X43621693Y-7920732D01*
X43782337Y-7680312D01*
X43892990Y-7413171D01*
X43949400Y-7129576D01*
X43949400Y-6840424D01*
X43892990Y-6556829D01*
X43782337Y-6289688D01*
X43621693Y-6049268D01*
X43417232Y-5844807D01*
X43176812Y-5684163D01*
X42909671Y-5573510D01*
X42626076Y-5517100D01*
X42336924Y-5517100D01*
X42053329Y-5573510D01*
X41786188Y-5684163D01*
X41545768Y-5844807D01*
X41341307Y-6049268D01*
X41180663Y-6289688D01*
X41087295Y-6515100D01*
X29125239Y-6515100D01*
X25869900Y-3259762D01*
X25869900Y-3030014D01*
X25977508Y-2985441D01*
X26177195Y-2852014D01*
X26347014Y-2682195D01*
X26480441Y-2482508D01*
X26572347Y-2260627D01*
X26619200Y-2025081D01*
X26619200Y-1784919D01*
X26720800Y-1784919D01*
X26720800Y-2025081D01*
X26767653Y-2260627D01*
X26859559Y-2482508D01*
X26992986Y-2682195D01*
X27162805Y-2852014D01*
X27362492Y-2985441D01*
X27584373Y-3077347D01*
X27819919Y-3124200D01*
X27859662Y-3124200D01*
X28482460Y-3746999D01*
X28480663Y-3749688D01*
X28370010Y-4016829D01*
X28313600Y-4300424D01*
X28313600Y-4589576D01*
X28370010Y-4873171D01*
X28480663Y-5140312D01*
X28641307Y-5380732D01*
X28845768Y-5585193D01*
X29086188Y-5745837D01*
X29353329Y-5856490D01*
X29636924Y-5912900D01*
X29926076Y-5912900D01*
X30209671Y-5856490D01*
X30476812Y-5745837D01*
X30717232Y-5585193D01*
X30921693Y-5380732D01*
X31082337Y-5140312D01*
X31192990Y-4873171D01*
X31249400Y-4589576D01*
X31249400Y-4300424D01*
X31192990Y-4016829D01*
X31082337Y-3749688D01*
X30921693Y-3509268D01*
X30717232Y-3304807D01*
X30476812Y-3144163D01*
X30428617Y-3124200D01*
X30600081Y-3124200D01*
X30835627Y-3077347D01*
X31057508Y-2985441D01*
X31257195Y-2852014D01*
X31427014Y-2682195D01*
X31560441Y-2482508D01*
X31605014Y-2374900D01*
X46160362Y-2374900D01*
X47532460Y-3746999D01*
X47530663Y-3749688D01*
X47420010Y-4016829D01*
X47363600Y-4300424D01*
X47363600Y-4589576D01*
X47420010Y-4873171D01*
X47530663Y-5140312D01*
X47691307Y-5380732D01*
X47895768Y-5585193D01*
X48136188Y-5745837D01*
X48403329Y-5856490D01*
X48686924Y-5912900D01*
X48976076Y-5912900D01*
X49259671Y-5856490D01*
X49526812Y-5745837D01*
X49767232Y-5585193D01*
X49971693Y-5380732D01*
X50132337Y-5140312D01*
X50242990Y-4873171D01*
X50299400Y-4589576D01*
X50299400Y-4300424D01*
X50242990Y-4016829D01*
X50132337Y-3749688D01*
X49971693Y-3509268D01*
X49767232Y-3304807D01*
X49526812Y-3144163D01*
X49259671Y-3033510D01*
X48976076Y-2977100D01*
X48686924Y-2977100D01*
X48403329Y-3033510D01*
X48222818Y-3108280D01*
X46703595Y-1589057D01*
X46688877Y-1571123D01*
X46617325Y-1512402D01*
X46535693Y-1468769D01*
X46447116Y-1441900D01*
X46378077Y-1435100D01*
X46355000Y-1432827D01*
X46331923Y-1435100D01*
X31605014Y-1435100D01*
X31560441Y-1327492D01*
X31427014Y-1127805D01*
X31257195Y-957986D01*
X31057508Y-824559D01*
X30835627Y-732653D01*
X30600081Y-685800D01*
X30359919Y-685800D01*
X30124373Y-732653D01*
X29902492Y-824559D01*
X29702805Y-957986D01*
X29532986Y-1127805D01*
X29399559Y-1327492D01*
X29307653Y-1549373D01*
X29260800Y-1784919D01*
X29260800Y-2025081D01*
X29307653Y-2260627D01*
X29399559Y-2482508D01*
X29532986Y-2682195D01*
X29702805Y-2852014D01*
X29890009Y-2977100D01*
X29636924Y-2977100D01*
X29353329Y-3033510D01*
X29172818Y-3108280D01*
X28816874Y-2752335D01*
X28887014Y-2682195D01*
X29020441Y-2482508D01*
X29112347Y-2260627D01*
X29159200Y-2025081D01*
X29159200Y-1784919D01*
X29112347Y-1549373D01*
X29020441Y-1327492D01*
X28887014Y-1127805D01*
X28717195Y-957986D01*
X28517508Y-824559D01*
X28295627Y-732653D01*
X28060081Y-685800D01*
X27819919Y-685800D01*
X27584373Y-732653D01*
X27362492Y-824559D01*
X27162805Y-957986D01*
X26992986Y-1127805D01*
X26859559Y-1327492D01*
X26767653Y-1549373D01*
X26720800Y-1784919D01*
X26619200Y-1784919D01*
X26572347Y-1549373D01*
X26480441Y-1327492D01*
X26347014Y-1127805D01*
X26177195Y-957986D01*
X25977508Y-824559D01*
X25755627Y-732653D01*
X25520081Y-685800D01*
X25279919Y-685800D01*
X25044373Y-732653D01*
X24822492Y-824559D01*
X24622805Y-957986D01*
X24452986Y-1127805D01*
X24319559Y-1327492D01*
X24227653Y-1549373D01*
X24180800Y-1784919D01*
X24079200Y-1784919D01*
X24032347Y-1549373D01*
X23940441Y-1327492D01*
X23807014Y-1127805D01*
X23637195Y-957986D01*
X23437508Y-824559D01*
X23215627Y-732653D01*
X22980081Y-685800D01*
X22739919Y-685800D01*
X22504373Y-732653D01*
X22282492Y-824559D01*
X22082805Y-957986D01*
X21912986Y-1127805D01*
X21779559Y-1327492D01*
X21687653Y-1549373D01*
X21640800Y-1784919D01*
X21539200Y-1784919D01*
X21492347Y-1549373D01*
X21400441Y-1327492D01*
X21267014Y-1127805D01*
X21097195Y-957986D01*
X20897508Y-824559D01*
X20675627Y-732653D01*
X20440081Y-685800D01*
X20199919Y-685800D01*
X19964373Y-732653D01*
X19742492Y-824559D01*
X19542805Y-957986D01*
X19372986Y-1127805D01*
X19239559Y-1327492D01*
X19147653Y-1549373D01*
X19100800Y-1784919D01*
X19100800Y-2025081D01*
X19147653Y-2260627D01*
X19239559Y-2482508D01*
X19372986Y-2682195D01*
X19542805Y-2852014D01*
X19742492Y-2985441D01*
X19850101Y-3030014D01*
X19850100Y-10017543D01*
X19847827Y-10040620D01*
X19850100Y-10063696D01*
X19856900Y-10132735D01*
X19883769Y-10221312D01*
X19899774Y-10251255D01*
X18249900Y-8601382D01*
X18249900Y-3030014D01*
X18357508Y-2985441D01*
X18557195Y-2852014D01*
X18727014Y-2682195D01*
X18860441Y-2482508D01*
X18952347Y-2260627D01*
X18999200Y-2025081D01*
X18999200Y-1784919D01*
X18952347Y-1549373D01*
X18860441Y-1327492D01*
X18727014Y-1127805D01*
X18557195Y-957986D01*
X18357508Y-824559D01*
X18135627Y-732653D01*
X17900081Y-685800D01*
X17659919Y-685800D01*
X17424373Y-732653D01*
X17202492Y-824559D01*
X17002805Y-957986D01*
X16832986Y-1127805D01*
X16699559Y-1327492D01*
X16607653Y-1549373D01*
X16560800Y-1784919D01*
X16560800Y-2025081D01*
X16607653Y-2260627D01*
X16699559Y-2482508D01*
X16832986Y-2682195D01*
X17002805Y-2852014D01*
X17202492Y-2985441D01*
X17310100Y-3030014D01*
X17310100Y-3167351D01*
X17310101Y-3167361D01*
X17310100Y-8772943D01*
X17307827Y-8796020D01*
X17310100Y-8819096D01*
X17316900Y-8888135D01*
X17343769Y-8976712D01*
X17359774Y-9006656D01*
X15709900Y-7356782D01*
X15709900Y-3030014D01*
X15817508Y-2985441D01*
X16017195Y-2852014D01*
X16187014Y-2682195D01*
X16320441Y-2482508D01*
X16412347Y-2260627D01*
X16459200Y-2025081D01*
X16459200Y-1784919D01*
X16412347Y-1549373D01*
X16320441Y-1327492D01*
X16187014Y-1127805D01*
X16017195Y-957986D01*
X15817508Y-824559D01*
X15595627Y-732653D01*
X15360081Y-685800D01*
X15119919Y-685800D01*
X14884373Y-732653D01*
X14662492Y-824559D01*
X14462805Y-957986D01*
X14292986Y-1127805D01*
X14159559Y-1327492D01*
X14067653Y-1549373D01*
X14020800Y-1784919D01*
X14020800Y-2025081D01*
X14067653Y-2260627D01*
X14159559Y-2482508D01*
X14292986Y-2682195D01*
X14462805Y-2852014D01*
X14662492Y-2985441D01*
X14770100Y-3030014D01*
X14770101Y-7528333D01*
X14767827Y-7551420D01*
X14776900Y-7643536D01*
X14803769Y-7732112D01*
X14803770Y-7732113D01*
X14819775Y-7762057D01*
X13169900Y-6112182D01*
X13169900Y-3030014D01*
X13277508Y-2985441D01*
X13477195Y-2852014D01*
X13647014Y-2682195D01*
X13780441Y-2482508D01*
X13872347Y-2260627D01*
X13919200Y-2025081D01*
X13919200Y-1784919D01*
X13872347Y-1549373D01*
X13780441Y-1327492D01*
X13647014Y-1127805D01*
X13477195Y-957986D01*
X13277508Y-824559D01*
X13055627Y-732653D01*
X12820081Y-685800D01*
X12579919Y-685800D01*
X12344373Y-732653D01*
X12122492Y-824559D01*
X11922805Y-957986D01*
X11752986Y-1127805D01*
X11619559Y-1327492D01*
X11527653Y-1549373D01*
X11516487Y-1605510D01*
X11441684Y-1364480D01*
X11321492Y-1139616D01*
X11097554Y-1057248D01*
X10249803Y-1905000D01*
X10070197Y-1905000D01*
X9222446Y-1057248D01*
X8998508Y-1139616D01*
X8890838Y-1344188D01*
X8781492Y-1139616D01*
X8557554Y-1057248D01*
X7709803Y-1905000D01*
X7530197Y-1905000D01*
X6682446Y-1057248D01*
X6458508Y-1139616D01*
X6331506Y-1380919D01*
X6264088Y-1608398D01*
X6252347Y-1549373D01*
X6160441Y-1327492D01*
X6027014Y-1127805D01*
X5866655Y-967446D01*
X6772248Y-967446D01*
X7620000Y-1815197D01*
X8467752Y-967446D01*
X9312248Y-967446D01*
X10160000Y-1815197D01*
X11007752Y-967446D01*
X10925384Y-743508D01*
X10684081Y-616506D01*
X10422639Y-539022D01*
X10151103Y-514030D01*
X9879909Y-542493D01*
X9619480Y-623316D01*
X9394616Y-743508D01*
X9312248Y-967446D01*
X8467752Y-967446D01*
X8385384Y-743508D01*
X8144081Y-616506D01*
X7882639Y-539022D01*
X7611103Y-514030D01*
X7339909Y-542493D01*
X7079480Y-623316D01*
X6854616Y-743508D01*
X6772248Y-967446D01*
X5866655Y-967446D01*
X5857195Y-957986D01*
X5657508Y-824559D01*
X5435627Y-732653D01*
X5200081Y-685800D01*
X4959919Y-685800D01*
X4724373Y-732653D01*
X4502492Y-824559D01*
X4302805Y-957986D01*
X4132986Y-1127805D01*
X3999559Y-1327492D01*
X3907653Y-1549373D01*
X3860800Y-1784919D01*
X3760859Y-1784919D01*
X3760859Y-1466850D01*
X3745819Y-1314151D01*
X3701279Y-1167320D01*
X3628949Y-1032000D01*
X3531609Y-913391D01*
X3413000Y-816051D01*
X3277680Y-743721D01*
X3130849Y-699181D01*
X2978150Y-684141D01*
X2101850Y-684141D01*
X1949151Y-699181D01*
X1802320Y-743721D01*
X1667000Y-816051D01*
X1548391Y-913391D01*
X1451051Y-1032000D01*
X1378721Y-1167320D01*
X1334181Y-1314151D01*
X1319141Y-1466850D01*
X367900Y-1466850D01*
X367900Y-367900D01*
X93612101Y-367900D01*
X93612100Y-18682100D01*
%TA.AperFunction,Conductor*%
D17*
G36*
X93612100Y-18682100D02*
G01*
X367900Y-18682100D01*
X367900Y-17024919D01*
X1320800Y-17024919D01*
X1320800Y-17265081D01*
X1367653Y-17500627D01*
X1459559Y-17722508D01*
X1592986Y-17922195D01*
X1762805Y-18092014D01*
X1962492Y-18225441D01*
X2184373Y-18317347D01*
X2419919Y-18364200D01*
X2660081Y-18364200D01*
X2895627Y-18317347D01*
X3117508Y-18225441D01*
X3317195Y-18092014D01*
X3326655Y-18082554D01*
X4232248Y-18082554D01*
X4314616Y-18306492D01*
X4555919Y-18433494D01*
X4817361Y-18510978D01*
X5088897Y-18535970D01*
X5360091Y-18507507D01*
X5620520Y-18426684D01*
X5845384Y-18306492D01*
X5927752Y-18082554D01*
X5080000Y-17234803D01*
X4232248Y-18082554D01*
X3326655Y-18082554D01*
X3487014Y-17922195D01*
X3620441Y-17722508D01*
X3712347Y-17500627D01*
X3723513Y-17444490D01*
X3798316Y-17685520D01*
X3918508Y-17910384D01*
X4142446Y-17992752D01*
X4990197Y-17145000D01*
X5169803Y-17145000D01*
X6017554Y-17992752D01*
X6241492Y-17910384D01*
X6368494Y-17669081D01*
X6435912Y-17441602D01*
X6447653Y-17500627D01*
X6539559Y-17722508D01*
X6672986Y-17922195D01*
X6842805Y-18092014D01*
X7042492Y-18225441D01*
X7264373Y-18317347D01*
X7499919Y-18364200D01*
X7740081Y-18364200D01*
X7975627Y-18317347D01*
X8197508Y-18225441D01*
X8397195Y-18092014D01*
X8567014Y-17922195D01*
X8700441Y-17722508D01*
X8792347Y-17500627D01*
X8839200Y-17265081D01*
X8839200Y-17024919D01*
X8940800Y-17024919D01*
X8940800Y-17265081D01*
X8987653Y-17500627D01*
X9079559Y-17722508D01*
X9212986Y-17922195D01*
X9382805Y-18092014D01*
X9582492Y-18225441D01*
X9804373Y-18317347D01*
X10039919Y-18364200D01*
X10280081Y-18364200D01*
X10515627Y-18317347D01*
X10737508Y-18225441D01*
X10937195Y-18092014D01*
X11107014Y-17922195D01*
X11240441Y-17722508D01*
X11332347Y-17500627D01*
X11379200Y-17265081D01*
X11379200Y-17024919D01*
X11480800Y-17024919D01*
X11480800Y-17265081D01*
X11527653Y-17500627D01*
X11619559Y-17722508D01*
X11752986Y-17922195D01*
X11922805Y-18092014D01*
X12122492Y-18225441D01*
X12344373Y-18317347D01*
X12579919Y-18364200D01*
X12820081Y-18364200D01*
X13055627Y-18317347D01*
X13277508Y-18225441D01*
X13477195Y-18092014D01*
X13647014Y-17922195D01*
X13780441Y-17722508D01*
X13872347Y-17500627D01*
X13919200Y-17265081D01*
X13919200Y-17024919D01*
X14020800Y-17024919D01*
X14020800Y-17265081D01*
X14067653Y-17500627D01*
X14159559Y-17722508D01*
X14292986Y-17922195D01*
X14462805Y-18092014D01*
X14662492Y-18225441D01*
X14884373Y-18317347D01*
X15119919Y-18364200D01*
X15360081Y-18364200D01*
X15595627Y-18317347D01*
X15817508Y-18225441D01*
X16017195Y-18092014D01*
X16187014Y-17922195D01*
X16320441Y-17722508D01*
X16412347Y-17500627D01*
X16459200Y-17265081D01*
X16459200Y-17024919D01*
X16560800Y-17024919D01*
X16560800Y-17265081D01*
X16607653Y-17500627D01*
X16699559Y-17722508D01*
X16832986Y-17922195D01*
X17002805Y-18092014D01*
X17202492Y-18225441D01*
X17424373Y-18317347D01*
X17659919Y-18364200D01*
X17900081Y-18364200D01*
X18135627Y-18317347D01*
X18357508Y-18225441D01*
X18557195Y-18092014D01*
X18727014Y-17922195D01*
X18860441Y-17722508D01*
X18952347Y-17500627D01*
X18999200Y-17265081D01*
X18999200Y-17024919D01*
X19100800Y-17024919D01*
X19100800Y-17265081D01*
X19147653Y-17500627D01*
X19239559Y-17722508D01*
X19372986Y-17922195D01*
X19542805Y-18092014D01*
X19742492Y-18225441D01*
X19964373Y-18317347D01*
X20199919Y-18364200D01*
X20440081Y-18364200D01*
X20675627Y-18317347D01*
X20897508Y-18225441D01*
X21097195Y-18092014D01*
X21267014Y-17922195D01*
X21400441Y-17722508D01*
X21492347Y-17500627D01*
X21539200Y-17265081D01*
X21539200Y-17024919D01*
X21640800Y-17024919D01*
X21640800Y-17265081D01*
X21687653Y-17500627D01*
X21779559Y-17722508D01*
X21912986Y-17922195D01*
X22082805Y-18092014D01*
X22282492Y-18225441D01*
X22504373Y-18317347D01*
X22739919Y-18364200D01*
X22980081Y-18364200D01*
X23215627Y-18317347D01*
X23437508Y-18225441D01*
X23637195Y-18092014D01*
X23807014Y-17922195D01*
X23940441Y-17722508D01*
X24032347Y-17500627D01*
X24079200Y-17265081D01*
X24079200Y-17024919D01*
X24180800Y-17024919D01*
X24180800Y-17265081D01*
X24227653Y-17500627D01*
X24319559Y-17722508D01*
X24452986Y-17922195D01*
X24622805Y-18092014D01*
X24822492Y-18225441D01*
X25044373Y-18317347D01*
X25279919Y-18364200D01*
X25520081Y-18364200D01*
X25755627Y-18317347D01*
X25977508Y-18225441D01*
X26177195Y-18092014D01*
X26347014Y-17922195D01*
X26480441Y-17722508D01*
X26572347Y-17500627D01*
X26619200Y-17265081D01*
X26619200Y-17024919D01*
X26720800Y-17024919D01*
X26720800Y-17265081D01*
X26767653Y-17500627D01*
X26859559Y-17722508D01*
X26992986Y-17922195D01*
X27162805Y-18092014D01*
X27362492Y-18225441D01*
X27584373Y-18317347D01*
X27819919Y-18364200D01*
X28060081Y-18364200D01*
X28295627Y-18317347D01*
X28517508Y-18225441D01*
X28717195Y-18092014D01*
X28887014Y-17922195D01*
X29020441Y-17722508D01*
X29112347Y-17500627D01*
X29159200Y-17265081D01*
X29159200Y-17024919D01*
X29260800Y-17024919D01*
X29260800Y-17265081D01*
X29307653Y-17500627D01*
X29399559Y-17722508D01*
X29532986Y-17922195D01*
X29702805Y-18092014D01*
X29902492Y-18225441D01*
X30124373Y-18317347D01*
X30359919Y-18364200D01*
X30600081Y-18364200D01*
X30835627Y-18317347D01*
X31057508Y-18225441D01*
X31257195Y-18092014D01*
X31427014Y-17922195D01*
X31560441Y-17722508D01*
X31652347Y-17500627D01*
X31699200Y-17265081D01*
X31699200Y-17024919D01*
X31652347Y-16789373D01*
X31560441Y-16567492D01*
X31427014Y-16367805D01*
X31257195Y-16197986D01*
X31057508Y-16064559D01*
X30835627Y-15972653D01*
X30600081Y-15925800D01*
X30359919Y-15925800D01*
X30124373Y-15972653D01*
X29902492Y-16064559D01*
X29702805Y-16197986D01*
X29532986Y-16367805D01*
X29399559Y-16567492D01*
X29307653Y-16789373D01*
X29260800Y-17024919D01*
X29159200Y-17024919D01*
X29112347Y-16789373D01*
X29020441Y-16567492D01*
X28887014Y-16367805D01*
X28717195Y-16197986D01*
X28517508Y-16064559D01*
X28295627Y-15972653D01*
X28060081Y-15925800D01*
X27819919Y-15925800D01*
X27584373Y-15972653D01*
X27362492Y-16064559D01*
X27162805Y-16197986D01*
X26992986Y-16367805D01*
X26859559Y-16567492D01*
X26767653Y-16789373D01*
X26720800Y-17024919D01*
X26619200Y-17024919D01*
X26572347Y-16789373D01*
X26480441Y-16567492D01*
X26347014Y-16367805D01*
X26177195Y-16197986D01*
X25977508Y-16064559D01*
X25755627Y-15972653D01*
X25520081Y-15925800D01*
X25279919Y-15925800D01*
X25044373Y-15972653D01*
X24822492Y-16064559D01*
X24622805Y-16197986D01*
X24452986Y-16367805D01*
X24319559Y-16567492D01*
X24227653Y-16789373D01*
X24180800Y-17024919D01*
X24079200Y-17024919D01*
X24032347Y-16789373D01*
X23940441Y-16567492D01*
X23807014Y-16367805D01*
X23637195Y-16197986D01*
X23437508Y-16064559D01*
X23215627Y-15972653D01*
X22980081Y-15925800D01*
X22739919Y-15925800D01*
X22504373Y-15972653D01*
X22282492Y-16064559D01*
X22082805Y-16197986D01*
X21912986Y-16367805D01*
X21779559Y-16567492D01*
X21687653Y-16789373D01*
X21640800Y-17024919D01*
X21539200Y-17024919D01*
X21492347Y-16789373D01*
X21400441Y-16567492D01*
X21267014Y-16367805D01*
X21097195Y-16197986D01*
X20897508Y-16064559D01*
X20675627Y-15972653D01*
X20440081Y-15925800D01*
X20199919Y-15925800D01*
X19964373Y-15972653D01*
X19742492Y-16064559D01*
X19542805Y-16197986D01*
X19372986Y-16367805D01*
X19239559Y-16567492D01*
X19147653Y-16789373D01*
X19100800Y-17024919D01*
X18999200Y-17024919D01*
X18952347Y-16789373D01*
X18860441Y-16567492D01*
X18727014Y-16367805D01*
X18557195Y-16197986D01*
X18357508Y-16064559D01*
X18135627Y-15972653D01*
X17900081Y-15925800D01*
X17659919Y-15925800D01*
X17424373Y-15972653D01*
X17202492Y-16064559D01*
X17002805Y-16197986D01*
X16832986Y-16367805D01*
X16699559Y-16567492D01*
X16607653Y-16789373D01*
X16560800Y-17024919D01*
X16459200Y-17024919D01*
X16412347Y-16789373D01*
X16320441Y-16567492D01*
X16187014Y-16367805D01*
X16017195Y-16197986D01*
X15817508Y-16064559D01*
X15595627Y-15972653D01*
X15360081Y-15925800D01*
X15119919Y-15925800D01*
X14884373Y-15972653D01*
X14662492Y-16064559D01*
X14462805Y-16197986D01*
X14292986Y-16367805D01*
X14159559Y-16567492D01*
X14067653Y-16789373D01*
X14020800Y-17024919D01*
X13919200Y-17024919D01*
X13872347Y-16789373D01*
X13780441Y-16567492D01*
X13647014Y-16367805D01*
X13477195Y-16197986D01*
X13277508Y-16064559D01*
X13055627Y-15972653D01*
X12820081Y-15925800D01*
X12579919Y-15925800D01*
X12344373Y-15972653D01*
X12122492Y-16064559D01*
X11922805Y-16197986D01*
X11752986Y-16367805D01*
X11619559Y-16567492D01*
X11527653Y-16789373D01*
X11480800Y-17024919D01*
X11379200Y-17024919D01*
X11332347Y-16789373D01*
X11240441Y-16567492D01*
X11107014Y-16367805D01*
X10937195Y-16197986D01*
X10737508Y-16064559D01*
X10515627Y-15972653D01*
X10280081Y-15925800D01*
X10039919Y-15925800D01*
X9804373Y-15972653D01*
X9582492Y-16064559D01*
X9382805Y-16197986D01*
X9212986Y-16367805D01*
X9079559Y-16567492D01*
X8987653Y-16789373D01*
X8940800Y-17024919D01*
X8839200Y-17024919D01*
X8792347Y-16789373D01*
X8700441Y-16567492D01*
X8567014Y-16367805D01*
X8397195Y-16197986D01*
X8197508Y-16064559D01*
X7975627Y-15972653D01*
X7740081Y-15925800D01*
X7499919Y-15925800D01*
X7264373Y-15972653D01*
X7042492Y-16064559D01*
X6842805Y-16197986D01*
X6672986Y-16367805D01*
X6539559Y-16567492D01*
X6447653Y-16789373D01*
X6436487Y-16845510D01*
X6361684Y-16604480D01*
X6241492Y-16379616D01*
X6017554Y-16297248D01*
X5169803Y-17145000D01*
X4990197Y-17145000D01*
X4142446Y-16297248D01*
X3918508Y-16379616D01*
X3791506Y-16620919D01*
X3724088Y-16848398D01*
X3712347Y-16789373D01*
X3620441Y-16567492D01*
X3487014Y-16367805D01*
X3326655Y-16207446D01*
X4232248Y-16207446D01*
X5080000Y-17055197D01*
X5927752Y-16207446D01*
X5845384Y-15983508D01*
X5604081Y-15856506D01*
X5342639Y-15779022D01*
X5071103Y-15754030D01*
X4799909Y-15782493D01*
X4539480Y-15863316D01*
X4314616Y-15983508D01*
X4232248Y-16207446D01*
X3326655Y-16207446D01*
X3317195Y-16197986D01*
X3117508Y-16064559D01*
X2895627Y-15972653D01*
X2660081Y-15925800D01*
X2419919Y-15925800D01*
X2184373Y-15972653D01*
X1962492Y-16064559D01*
X1762805Y-16197986D01*
X1592986Y-16367805D01*
X1459559Y-16567492D01*
X1367653Y-16789373D01*
X1320800Y-17024919D01*
X367900Y-17024919D01*
X367900Y-9405047D01*
X1893600Y-9405047D01*
X1893600Y-9644953D01*
X1940403Y-9880248D01*
X2032211Y-10101892D01*
X2165495Y-10301366D01*
X2335134Y-10471005D01*
X2534608Y-10604289D01*
X2756252Y-10696097D01*
X2991547Y-10742900D01*
X3231453Y-10742900D01*
X3466748Y-10696097D01*
X3688392Y-10604289D01*
X3887866Y-10471005D01*
X4057505Y-10301366D01*
X4190789Y-10101892D01*
X4282597Y-9880248D01*
X4329400Y-9644953D01*
X4329400Y-9405047D01*
X4307480Y-9294845D01*
X5854700Y-9294845D01*
X5854700Y-9755155D01*
X5944502Y-10206619D01*
X6120655Y-10631890D01*
X6376389Y-11014623D01*
X6701877Y-11340111D01*
X7084610Y-11595845D01*
X7509881Y-11771998D01*
X7961345Y-11861800D01*
X8421655Y-11861800D01*
X8873119Y-11771998D01*
X9298390Y-11595845D01*
X9681123Y-11340111D01*
X10006611Y-11014623D01*
X10262345Y-10631890D01*
X10438498Y-10206619D01*
X10528300Y-9755155D01*
X10528300Y-9405047D01*
X12053600Y-9405047D01*
X12053600Y-9644953D01*
X12100403Y-9880248D01*
X12192211Y-10101892D01*
X12325495Y-10301366D01*
X12495134Y-10471005D01*
X12694608Y-10604289D01*
X12916252Y-10696097D01*
X13151547Y-10742900D01*
X13391453Y-10742900D01*
X13626748Y-10696097D01*
X13848392Y-10604289D01*
X14047866Y-10471005D01*
X14217505Y-10301366D01*
X14350789Y-10101892D01*
X14442597Y-9880248D01*
X14489400Y-9644953D01*
X14489400Y-9405047D01*
X14442597Y-9169752D01*
X14350789Y-8948108D01*
X14217505Y-8748634D01*
X14047866Y-8578995D01*
X13848392Y-8445711D01*
X13626748Y-8353903D01*
X13391453Y-8307100D01*
X13151547Y-8307100D01*
X12916252Y-8353903D01*
X12694608Y-8445711D01*
X12495134Y-8578995D01*
X12325495Y-8748634D01*
X12192211Y-8948108D01*
X12100403Y-9169752D01*
X12053600Y-9405047D01*
X10528300Y-9405047D01*
X10528300Y-9294845D01*
X10438498Y-8843381D01*
X10262345Y-8418110D01*
X10006611Y-8035377D01*
X9681123Y-7709889D01*
X9298390Y-7454155D01*
X8873119Y-7278002D01*
X8421655Y-7188200D01*
X7961345Y-7188200D01*
X7509881Y-7278002D01*
X7084610Y-7454155D01*
X6701877Y-7709889D01*
X6376389Y-8035377D01*
X6120655Y-8418110D01*
X5944502Y-8843381D01*
X5854700Y-9294845D01*
X4307480Y-9294845D01*
X4282597Y-9169752D01*
X4190789Y-8948108D01*
X4057505Y-8748634D01*
X3887866Y-8578995D01*
X3688392Y-8445711D01*
X3466748Y-8353903D01*
X3231453Y-8307100D01*
X2991547Y-8307100D01*
X2756252Y-8353903D01*
X2534608Y-8445711D01*
X2335134Y-8578995D01*
X2165495Y-8748634D01*
X2032211Y-8948108D01*
X1940403Y-9169752D01*
X1893600Y-9405047D01*
X367900Y-9405047D01*
X367900Y-1466850D01*
X1319141Y-1466850D01*
X1319141Y-2343150D01*
X1334181Y-2495849D01*
X1378721Y-2642680D01*
X1451051Y-2778000D01*
X1548391Y-2896609D01*
X1667000Y-2993949D01*
X1802320Y-3066279D01*
X1949151Y-3110819D01*
X2101850Y-3125859D01*
X2133601Y-3125859D01*
X2133600Y-5120423D01*
X2131327Y-5143500D01*
X2133600Y-5166576D01*
X2140400Y-5235615D01*
X2167269Y-5324192D01*
X2210902Y-5405825D01*
X2269623Y-5477377D01*
X2287557Y-5492095D01*
X3082460Y-6286999D01*
X3080663Y-6289688D01*
X2970010Y-6556829D01*
X2913600Y-6840424D01*
X2913600Y-7129576D01*
X2970010Y-7413171D01*
X3080663Y-7680312D01*
X3241307Y-7920732D01*
X3445768Y-8125193D01*
X3686188Y-8285837D01*
X3953329Y-8396490D01*
X4236924Y-8452900D01*
X4526076Y-8452900D01*
X4809671Y-8396490D01*
X5076812Y-8285837D01*
X5317232Y-8125193D01*
X5521693Y-7920732D01*
X5682337Y-7680312D01*
X5792990Y-7413171D01*
X5849400Y-7129576D01*
X5849400Y-6840424D01*
X5792990Y-6556829D01*
X5682337Y-6289688D01*
X5521693Y-6049268D01*
X5317232Y-5844807D01*
X5076812Y-5684163D01*
X4809671Y-5573510D01*
X4526076Y-5517100D01*
X4236924Y-5517100D01*
X3953329Y-5573510D01*
X3772818Y-5648280D01*
X3073400Y-4948862D01*
X3073400Y-3116477D01*
X3130849Y-3110819D01*
X3277680Y-3066279D01*
X3413000Y-2993949D01*
X3531609Y-2896609D01*
X3628949Y-2778000D01*
X3701279Y-2642680D01*
X3745819Y-2495849D01*
X3760859Y-2343150D01*
X3760859Y-1784919D01*
X3860800Y-1784919D01*
X3860800Y-2025081D01*
X3907653Y-2260627D01*
X3999559Y-2482508D01*
X4132986Y-2682195D01*
X4302805Y-2852014D01*
X4502492Y-2985441D01*
X4610101Y-3030014D01*
X4610101Y-3215413D01*
X4607827Y-3238500D01*
X4616900Y-3330616D01*
X4643769Y-3419192D01*
X4643770Y-3419193D01*
X4687403Y-3500825D01*
X4746124Y-3572377D01*
X4764052Y-3587090D01*
X5937909Y-4760948D01*
X5952623Y-4778877D01*
X6024175Y-4837598D01*
X6060637Y-4857087D01*
X6105807Y-4881231D01*
X6194383Y-4908100D01*
X6286500Y-4917173D01*
X6309577Y-4914900D01*
X9337295Y-4914900D01*
X9430663Y-5140312D01*
X9591307Y-5380732D01*
X9795768Y-5585193D01*
X10036188Y-5745837D01*
X10303329Y-5856490D01*
X10586924Y-5912900D01*
X10876076Y-5912900D01*
X11159671Y-5856490D01*
X11426812Y-5745837D01*
X11667232Y-5585193D01*
X11871693Y-5380732D01*
X12032337Y-5140312D01*
X12142990Y-4873171D01*
X12199400Y-4589576D01*
X12199400Y-4300424D01*
X12142990Y-4016829D01*
X12032337Y-3749688D01*
X11871693Y-3509268D01*
X11667232Y-3304807D01*
X11426812Y-3144163D01*
X11159671Y-3033510D01*
X10952661Y-2992333D01*
X11007752Y-2842554D01*
X10160000Y-1994803D01*
X9312248Y-2842554D01*
X9394616Y-3066492D01*
X9635919Y-3193494D01*
X9862056Y-3260515D01*
X9795768Y-3304807D01*
X9591307Y-3509268D01*
X9430663Y-3749688D01*
X9337295Y-3975100D01*
X6481139Y-3975100D01*
X5549900Y-3043862D01*
X5549900Y-3030014D01*
X5657508Y-2985441D01*
X5857195Y-2852014D01*
X5866655Y-2842554D01*
X6772248Y-2842554D01*
X6854616Y-3066492D01*
X7095919Y-3193494D01*
X7357361Y-3270978D01*
X7628897Y-3295970D01*
X7900091Y-3267507D01*
X8160520Y-3186684D01*
X8385384Y-3066492D01*
X8467752Y-2842554D01*
X7620000Y-1994803D01*
X6772248Y-2842554D01*
X5866655Y-2842554D01*
X6027014Y-2682195D01*
X6160441Y-2482508D01*
X6252347Y-2260627D01*
X6263513Y-2204490D01*
X6338316Y-2445520D01*
X6458508Y-2670384D01*
X6682446Y-2752752D01*
X7530197Y-1905000D01*
X7709803Y-1905000D01*
X8557554Y-2752752D01*
X8781492Y-2670384D01*
X8889162Y-2465812D01*
X8998508Y-2670384D01*
X9222446Y-2752752D01*
X10070197Y-1905000D01*
X10249803Y-1905000D01*
X11097554Y-2752752D01*
X11321492Y-2670384D01*
X11448494Y-2429081D01*
X11515912Y-2201602D01*
X11527653Y-2260627D01*
X11619559Y-2482508D01*
X11752986Y-2682195D01*
X11922805Y-2852014D01*
X12122492Y-2985441D01*
X12230101Y-3030014D01*
X12230100Y-6283743D01*
X12227827Y-6306820D01*
X12236900Y-6398935D01*
X12263769Y-6487512D01*
X12307402Y-6569145D01*
X12366123Y-6640697D01*
X12384057Y-6655415D01*
X21188070Y-15459429D01*
X21202783Y-15477357D01*
X21274335Y-15536078D01*
X21355967Y-15579711D01*
X21411096Y-15596434D01*
X21444542Y-15606580D01*
X21536659Y-15615653D01*
X21559736Y-15613380D01*
X68445163Y-15613380D01*
X68468240Y-15615653D01*
X68491317Y-15613380D01*
X68560356Y-15606580D01*
X68648933Y-15579711D01*
X68730565Y-15536078D01*
X68802117Y-15477357D01*
X68816835Y-15459423D01*
X68879667Y-15396591D01*
X91599321Y-15396591D01*
X91642822Y-15540005D01*
X91731804Y-15716440D01*
X91853497Y-15872125D01*
X92003224Y-16001078D01*
X92175231Y-16098343D01*
X92362909Y-16160182D01*
X92519500Y-16055501D01*
X92519500Y-15240000D01*
X92646500Y-15240000D01*
X92646500Y-16055501D01*
X92803091Y-16160182D01*
X92990769Y-16098343D01*
X93162776Y-16001078D01*
X93312503Y-15872125D01*
X93434196Y-15716440D01*
X93523178Y-15540005D01*
X93566679Y-15396591D01*
X93461709Y-15240000D01*
X92646500Y-15240000D01*
X92519500Y-15240000D01*
X91704291Y-15240000D01*
X91599321Y-15396591D01*
X68879667Y-15396591D01*
X74871211Y-9405047D01*
X78093600Y-9405047D01*
X78093600Y-9644953D01*
X78140403Y-9880248D01*
X78232211Y-10101892D01*
X78365495Y-10301366D01*
X78535134Y-10471005D01*
X78734608Y-10604289D01*
X78956252Y-10696097D01*
X79191547Y-10742900D01*
X79431453Y-10742900D01*
X79666748Y-10696097D01*
X79888392Y-10604289D01*
X80087866Y-10471005D01*
X80257505Y-10301366D01*
X80390789Y-10101892D01*
X80482597Y-9880248D01*
X80529400Y-9644953D01*
X80529400Y-9405047D01*
X80507480Y-9294845D01*
X82054700Y-9294845D01*
X82054700Y-9755155D01*
X82144502Y-10206619D01*
X82320655Y-10631890D01*
X82576389Y-11014623D01*
X82901877Y-11340111D01*
X83284610Y-11595845D01*
X83709881Y-11771998D01*
X84161345Y-11861800D01*
X84621655Y-11861800D01*
X85073119Y-11771998D01*
X85498390Y-11595845D01*
X85881123Y-11340111D01*
X86206611Y-11014623D01*
X86462345Y-10631890D01*
X86638498Y-10206619D01*
X86728300Y-9755155D01*
X86728300Y-9405047D01*
X88253600Y-9405047D01*
X88253600Y-9644953D01*
X88300403Y-9880248D01*
X88392211Y-10101892D01*
X88525495Y-10301366D01*
X88695134Y-10471005D01*
X88894608Y-10604289D01*
X89116252Y-10696097D01*
X89351547Y-10742900D01*
X89591453Y-10742900D01*
X89826748Y-10696097D01*
X90048392Y-10604289D01*
X90247866Y-10471005D01*
X90417505Y-10301366D01*
X90550789Y-10101892D01*
X90642597Y-9880248D01*
X90689400Y-9644953D01*
X90689400Y-9405047D01*
X90642597Y-9169752D01*
X90550789Y-8948108D01*
X90417505Y-8748634D01*
X90247866Y-8578995D01*
X90048392Y-8445711D01*
X89826748Y-8353903D01*
X89591453Y-8307100D01*
X89351547Y-8307100D01*
X89116252Y-8353903D01*
X88894608Y-8445711D01*
X88695134Y-8578995D01*
X88525495Y-8748634D01*
X88392211Y-8948108D01*
X88300403Y-9169752D01*
X88253600Y-9405047D01*
X86728300Y-9405047D01*
X86728300Y-9294845D01*
X86638498Y-8843381D01*
X86462345Y-8418110D01*
X86206611Y-8035377D01*
X85881123Y-7709889D01*
X85498390Y-7454155D01*
X85073119Y-7278002D01*
X84621655Y-7188200D01*
X84161345Y-7188200D01*
X83709881Y-7278002D01*
X83284610Y-7454155D01*
X82901877Y-7709889D01*
X82576389Y-8035377D01*
X82320655Y-8418110D01*
X82144502Y-8843381D01*
X82054700Y-9294845D01*
X80507480Y-9294845D01*
X80482597Y-9169752D01*
X80390789Y-8948108D01*
X80257505Y-8748634D01*
X80087866Y-8578995D01*
X79888392Y-8445711D01*
X79666748Y-8353903D01*
X79431453Y-8307100D01*
X79191547Y-8307100D01*
X78956252Y-8353903D01*
X78734608Y-8445711D01*
X78535134Y-8578995D01*
X78365495Y-8748634D01*
X78232211Y-8948108D01*
X78140403Y-9169752D01*
X78093600Y-9405047D01*
X74871211Y-9405047D01*
X76821359Y-7454900D01*
X79187295Y-7454900D01*
X79280663Y-7680312D01*
X79441307Y-7920732D01*
X79645768Y-8125193D01*
X79886188Y-8285837D01*
X80153329Y-8396490D01*
X80436924Y-8452900D01*
X80726076Y-8452900D01*
X81009671Y-8396490D01*
X81276812Y-8285837D01*
X81517232Y-8125193D01*
X81721693Y-7920732D01*
X81882337Y-7680312D01*
X81992990Y-7413171D01*
X82049400Y-7129576D01*
X82049400Y-6840424D01*
X81992990Y-6556829D01*
X81882337Y-6289688D01*
X81721693Y-6049268D01*
X81517232Y-5844807D01*
X81276812Y-5684163D01*
X81009671Y-5573510D01*
X80726076Y-5517100D01*
X80436924Y-5517100D01*
X80153329Y-5573510D01*
X79886188Y-5684163D01*
X79645768Y-5844807D01*
X79441307Y-6049268D01*
X79280663Y-6289688D01*
X79187295Y-6515100D01*
X76649796Y-6515100D01*
X76626719Y-6512827D01*
X76534603Y-6521900D01*
X76446027Y-6548769D01*
X76394260Y-6576439D01*
X78055799Y-4914900D01*
X85537295Y-4914900D01*
X85630663Y-5140312D01*
X85791307Y-5380732D01*
X85995768Y-5585193D01*
X86236188Y-5745837D01*
X86503329Y-5856490D01*
X86786924Y-5912900D01*
X87076076Y-5912900D01*
X87359671Y-5856490D01*
X87626812Y-5745837D01*
X87867232Y-5585193D01*
X88071693Y-5380732D01*
X88232337Y-5140312D01*
X88342990Y-4873171D01*
X88399400Y-4589576D01*
X88399400Y-4300424D01*
X88388674Y-4246500D01*
X91572542Y-4246500D01*
X91582350Y-4346085D01*
X91611398Y-4441844D01*
X91658570Y-4530095D01*
X91722052Y-4607448D01*
X91799405Y-4670930D01*
X91811184Y-4677226D01*
X91772493Y-4770635D01*
X91740100Y-4933482D01*
X91740100Y-5099518D01*
X91772493Y-5262365D01*
X91836032Y-5415763D01*
X91928277Y-5553817D01*
X92025960Y-5651500D01*
X91928277Y-5749183D01*
X91836032Y-5887237D01*
X91772493Y-6040635D01*
X91740100Y-6203482D01*
X91740100Y-6369518D01*
X91772493Y-6532365D01*
X91836032Y-6685763D01*
X91928277Y-6823817D01*
X92025960Y-6921500D01*
X91928277Y-7019183D01*
X91836032Y-7157237D01*
X91772493Y-7310635D01*
X91740100Y-7473482D01*
X91740100Y-7639518D01*
X91772493Y-7802365D01*
X91836032Y-7955763D01*
X91928277Y-8093817D01*
X92025960Y-8191500D01*
X91928277Y-8289183D01*
X91836032Y-8427237D01*
X91772493Y-8580635D01*
X91740100Y-8743482D01*
X91740100Y-8909518D01*
X91772493Y-9072365D01*
X91836032Y-9225763D01*
X91928277Y-9363817D01*
X92025960Y-9461500D01*
X91928277Y-9559183D01*
X91836032Y-9697237D01*
X91772493Y-9850635D01*
X91740100Y-10013482D01*
X91740100Y-10179518D01*
X91772493Y-10342365D01*
X91836032Y-10495763D01*
X91928277Y-10633817D01*
X92025960Y-10731500D01*
X91928277Y-10829183D01*
X91836032Y-10967237D01*
X91772493Y-11120635D01*
X91740100Y-11283482D01*
X91740100Y-11449518D01*
X91772493Y-11612365D01*
X91836032Y-11765763D01*
X91928277Y-11903817D01*
X92025960Y-12001500D01*
X91928277Y-12099183D01*
X91836032Y-12237237D01*
X91772493Y-12390635D01*
X91740100Y-12553482D01*
X91740100Y-12719518D01*
X91772493Y-12882365D01*
X91836032Y-13035763D01*
X91928277Y-13173817D01*
X92025960Y-13271500D01*
X91928277Y-13369183D01*
X91836032Y-13507237D01*
X91772493Y-13660635D01*
X91740100Y-13823482D01*
X91740100Y-13989518D01*
X91772493Y-14152365D01*
X91836032Y-14305763D01*
X91916679Y-14426459D01*
X91853497Y-14480875D01*
X91731804Y-14636560D01*
X91642822Y-14812995D01*
X91599321Y-14956409D01*
X91704291Y-15113000D01*
X92519500Y-15113000D01*
X92519500Y-15093000D01*
X92646500Y-15093000D01*
X92646500Y-15113000D01*
X93461709Y-15113000D01*
X93566679Y-14956409D01*
X93523178Y-14812995D01*
X93434196Y-14636560D01*
X93312503Y-14480875D01*
X93249321Y-14426459D01*
X93329968Y-14305763D01*
X93393507Y-14152365D01*
X93425900Y-13989518D01*
X93425900Y-13823482D01*
X93393507Y-13660635D01*
X93329968Y-13507237D01*
X93237723Y-13369183D01*
X93140040Y-13271500D01*
X93237723Y-13173817D01*
X93329968Y-13035763D01*
X93393507Y-12882365D01*
X93425900Y-12719518D01*
X93425900Y-12553482D01*
X93393507Y-12390635D01*
X93329968Y-12237237D01*
X93237723Y-12099183D01*
X93140040Y-12001500D01*
X93237723Y-11903817D01*
X93329968Y-11765763D01*
X93393507Y-11612365D01*
X93425900Y-11449518D01*
X93425900Y-11283482D01*
X93393507Y-11120635D01*
X93329968Y-10967237D01*
X93237723Y-10829183D01*
X93140040Y-10731500D01*
X93237723Y-10633817D01*
X93329968Y-10495763D01*
X93393507Y-10342365D01*
X93425900Y-10179518D01*
X93425900Y-10013482D01*
X93393507Y-9850635D01*
X93329968Y-9697237D01*
X93237723Y-9559183D01*
X93140040Y-9461500D01*
X93237723Y-9363817D01*
X93329968Y-9225763D01*
X93393507Y-9072365D01*
X93425900Y-8909518D01*
X93425900Y-8743482D01*
X93393507Y-8580635D01*
X93329968Y-8427237D01*
X93237723Y-8289183D01*
X93140040Y-8191500D01*
X93237723Y-8093817D01*
X93329968Y-7955763D01*
X93393507Y-7802365D01*
X93425900Y-7639518D01*
X93425900Y-7473482D01*
X93393507Y-7310635D01*
X93329968Y-7157237D01*
X93237723Y-7019183D01*
X93140040Y-6921500D01*
X93237723Y-6823817D01*
X93329968Y-6685763D01*
X93393507Y-6532365D01*
X93425900Y-6369518D01*
X93425900Y-6203482D01*
X93393507Y-6040635D01*
X93329968Y-5887237D01*
X93237723Y-5749183D01*
X93140040Y-5651500D01*
X93237723Y-5553817D01*
X93329968Y-5415763D01*
X93393507Y-5262365D01*
X93425900Y-5099518D01*
X93425900Y-4933482D01*
X93393507Y-4770635D01*
X93354816Y-4677226D01*
X93366595Y-4670930D01*
X93443948Y-4607448D01*
X93507430Y-4530095D01*
X93554602Y-4441844D01*
X93583650Y-4346085D01*
X93593458Y-4246500D01*
X93591000Y-3937000D01*
X93464000Y-3810000D01*
X92646500Y-3810000D01*
X92646500Y-3830000D01*
X92519500Y-3830000D01*
X92519500Y-3810000D01*
X91702000Y-3810000D01*
X91575000Y-3937000D01*
X91572542Y-4246500D01*
X88388674Y-4246500D01*
X88342990Y-4016829D01*
X88232337Y-3749688D01*
X88071693Y-3509268D01*
X87867232Y-3304807D01*
X87779970Y-3246500D01*
X91572542Y-3246500D01*
X91575000Y-3556000D01*
X91702000Y-3683000D01*
X92519500Y-3683000D01*
X92519500Y-2865500D01*
X92646500Y-2865500D01*
X92646500Y-3683000D01*
X93464000Y-3683000D01*
X93591000Y-3556000D01*
X93593458Y-3246500D01*
X93583650Y-3146915D01*
X93554602Y-3051156D01*
X93507430Y-2962905D01*
X93443948Y-2885552D01*
X93366595Y-2822070D01*
X93278344Y-2774898D01*
X93182585Y-2745850D01*
X93083000Y-2736042D01*
X92773500Y-2738500D01*
X92646500Y-2865500D01*
X92519500Y-2865500D01*
X92392500Y-2738500D01*
X92083000Y-2736042D01*
X91983415Y-2745850D01*
X91887656Y-2774898D01*
X91799405Y-2822070D01*
X91722052Y-2885552D01*
X91658570Y-2962905D01*
X91611398Y-3051156D01*
X91582350Y-3146915D01*
X91572542Y-3246500D01*
X87779970Y-3246500D01*
X87626812Y-3144163D01*
X87359671Y-3033510D01*
X87076076Y-2977100D01*
X86786924Y-2977100D01*
X86503329Y-3033510D01*
X86236188Y-3144163D01*
X85995768Y-3304807D01*
X85791307Y-3509268D01*
X85630663Y-3749688D01*
X85537295Y-3975100D01*
X77884237Y-3975100D01*
X77861160Y-3972827D01*
X77769043Y-3981900D01*
X77680467Y-4008769D01*
X77598835Y-4052402D01*
X77527283Y-4111123D01*
X77512570Y-4129051D01*
X71422376Y-10219246D01*
X71500789Y-10101892D01*
X71592597Y-9880248D01*
X71639400Y-9644953D01*
X71639400Y-9405047D01*
X71592597Y-9169752D01*
X71500789Y-8948108D01*
X71367505Y-8748634D01*
X71197866Y-8578995D01*
X70998392Y-8445711D01*
X70776748Y-8353903D01*
X70541453Y-8307100D01*
X70301547Y-8307100D01*
X70066252Y-8353903D01*
X69844608Y-8445711D01*
X69645134Y-8578995D01*
X69475495Y-8748634D01*
X69342211Y-8948108D01*
X69250403Y-9169752D01*
X69203600Y-9405047D01*
X69203600Y-9644953D01*
X69250403Y-9880248D01*
X69342211Y-10101892D01*
X69475495Y-10301366D01*
X69645134Y-10471005D01*
X69844608Y-10604289D01*
X70066252Y-10696097D01*
X70301547Y-10742900D01*
X70541453Y-10742900D01*
X70776748Y-10696097D01*
X70998392Y-10604289D01*
X71115746Y-10525876D01*
X67882442Y-13759180D01*
X51395393Y-13759180D01*
X51422653Y-13750911D01*
X51504285Y-13707278D01*
X51575837Y-13648557D01*
X51590555Y-13630623D01*
X55816131Y-9405047D01*
X59043600Y-9405047D01*
X59043600Y-9644953D01*
X59090403Y-9880248D01*
X59182211Y-10101892D01*
X59315495Y-10301366D01*
X59485134Y-10471005D01*
X59684608Y-10604289D01*
X59906252Y-10696097D01*
X60141547Y-10742900D01*
X60381453Y-10742900D01*
X60616748Y-10696097D01*
X60838392Y-10604289D01*
X61037866Y-10471005D01*
X61207505Y-10301366D01*
X61340789Y-10101892D01*
X61432597Y-9880248D01*
X61479400Y-9644953D01*
X61479400Y-9405047D01*
X61457480Y-9294845D01*
X63004700Y-9294845D01*
X63004700Y-9755155D01*
X63094502Y-10206619D01*
X63270655Y-10631890D01*
X63526389Y-11014623D01*
X63851877Y-11340111D01*
X64234610Y-11595845D01*
X64659881Y-11771998D01*
X65111345Y-11861800D01*
X65571655Y-11861800D01*
X66023119Y-11771998D01*
X66448390Y-11595845D01*
X66831123Y-11340111D01*
X67156611Y-11014623D01*
X67412345Y-10631890D01*
X67588498Y-10206619D01*
X67678300Y-9755155D01*
X67678300Y-9294845D01*
X67588498Y-8843381D01*
X67412345Y-8418110D01*
X67156611Y-8035377D01*
X66831123Y-7709889D01*
X66448390Y-7454155D01*
X66023119Y-7278002D01*
X65571655Y-7188200D01*
X65111345Y-7188200D01*
X64659881Y-7278002D01*
X64234610Y-7454155D01*
X63851877Y-7709889D01*
X63526389Y-8035377D01*
X63270655Y-8418110D01*
X63094502Y-8843381D01*
X63004700Y-9294845D01*
X61457480Y-9294845D01*
X61432597Y-9169752D01*
X61340789Y-8948108D01*
X61207505Y-8748634D01*
X61037866Y-8578995D01*
X60838392Y-8445711D01*
X60616748Y-8353903D01*
X60381453Y-8307100D01*
X60141547Y-8307100D01*
X59906252Y-8353903D01*
X59684608Y-8445711D01*
X59485134Y-8578995D01*
X59315495Y-8748634D01*
X59182211Y-8948108D01*
X59090403Y-9169752D01*
X59043600Y-9405047D01*
X55816131Y-9405047D01*
X57766279Y-7454900D01*
X60137295Y-7454900D01*
X60230663Y-7680312D01*
X60391307Y-7920732D01*
X60595768Y-8125193D01*
X60836188Y-8285837D01*
X61103329Y-8396490D01*
X61386924Y-8452900D01*
X61676076Y-8452900D01*
X61959671Y-8396490D01*
X62226812Y-8285837D01*
X62467232Y-8125193D01*
X62671693Y-7920732D01*
X62832337Y-7680312D01*
X62942990Y-7413171D01*
X62999400Y-7129576D01*
X62999400Y-6840424D01*
X62942990Y-6556829D01*
X62832337Y-6289688D01*
X62671693Y-6049268D01*
X62467232Y-5844807D01*
X62226812Y-5684163D01*
X61959671Y-5573510D01*
X61676076Y-5517100D01*
X61386924Y-5517100D01*
X61103329Y-5573510D01*
X60836188Y-5684163D01*
X60595768Y-5844807D01*
X60391307Y-6049268D01*
X60230663Y-6289688D01*
X60137295Y-6515100D01*
X57594716Y-6515100D01*
X57571639Y-6512827D01*
X57479522Y-6521900D01*
X57446076Y-6532046D01*
X57390947Y-6548769D01*
X57350093Y-6570606D01*
X59005799Y-4914900D01*
X66487295Y-4914900D01*
X66580663Y-5140312D01*
X66741307Y-5380732D01*
X66945768Y-5585193D01*
X67186188Y-5745837D01*
X67453329Y-5856490D01*
X67736924Y-5912900D01*
X68026076Y-5912900D01*
X68309671Y-5856490D01*
X68576812Y-5745837D01*
X68817232Y-5585193D01*
X69021693Y-5380732D01*
X69182337Y-5140312D01*
X69292990Y-4873171D01*
X69349400Y-4589576D01*
X69349400Y-4300424D01*
X69292990Y-4016829D01*
X69182337Y-3749688D01*
X69021693Y-3509268D01*
X68817232Y-3304807D01*
X68576812Y-3144163D01*
X68309671Y-3033510D01*
X68026076Y-2977100D01*
X67736924Y-2977100D01*
X67453329Y-3033510D01*
X67186188Y-3144163D01*
X66945768Y-3304807D01*
X66741307Y-3509268D01*
X66580663Y-3749688D01*
X66487295Y-3975100D01*
X58834237Y-3975100D01*
X58811160Y-3972827D01*
X58719043Y-3981900D01*
X58630467Y-4008769D01*
X58548835Y-4052402D01*
X58477283Y-4111123D01*
X58462570Y-4129051D01*
X52372376Y-10219246D01*
X52450789Y-10101892D01*
X52542597Y-9880248D01*
X52589400Y-9644953D01*
X52589400Y-9405047D01*
X52542597Y-9169752D01*
X52450789Y-8948108D01*
X52317505Y-8748634D01*
X52147866Y-8578995D01*
X51948392Y-8445711D01*
X51726748Y-8353903D01*
X51491453Y-8307100D01*
X51251547Y-8307100D01*
X51016252Y-8353903D01*
X50794608Y-8445711D01*
X50595134Y-8578995D01*
X50425495Y-8748634D01*
X50292211Y-8948108D01*
X50200403Y-9169752D01*
X50153600Y-9405047D01*
X50153600Y-9644953D01*
X50200403Y-9880248D01*
X50292211Y-10101892D01*
X50425495Y-10301366D01*
X50595134Y-10471005D01*
X50794608Y-10604289D01*
X51016252Y-10696097D01*
X51251547Y-10742900D01*
X51491453Y-10742900D01*
X51726748Y-10696097D01*
X51948392Y-10604289D01*
X52065746Y-10525876D01*
X50661242Y-11930380D01*
X22874299Y-11930380D01*
X21474909Y-10530991D01*
X21584608Y-10604289D01*
X21806252Y-10696097D01*
X22041547Y-10742900D01*
X22281453Y-10742900D01*
X22516748Y-10696097D01*
X22738392Y-10604289D01*
X22937866Y-10471005D01*
X23107505Y-10301366D01*
X23240789Y-10101892D01*
X23332597Y-9880248D01*
X23379400Y-9644953D01*
X23379400Y-9405047D01*
X23357480Y-9294845D01*
X24904700Y-9294845D01*
X24904700Y-9755155D01*
X24994502Y-10206619D01*
X25170655Y-10631890D01*
X25426389Y-11014623D01*
X25751877Y-11340111D01*
X26134610Y-11595845D01*
X26559881Y-11771998D01*
X27011345Y-11861800D01*
X27471655Y-11861800D01*
X27923119Y-11771998D01*
X28348390Y-11595845D01*
X28731123Y-11340111D01*
X29056611Y-11014623D01*
X29312345Y-10631890D01*
X29488498Y-10206619D01*
X29578300Y-9755155D01*
X29578300Y-9405047D01*
X31103600Y-9405047D01*
X31103600Y-9644953D01*
X31150403Y-9880248D01*
X31242211Y-10101892D01*
X31375495Y-10301366D01*
X31545134Y-10471005D01*
X31744608Y-10604289D01*
X31966252Y-10696097D01*
X32201547Y-10742900D01*
X32441453Y-10742900D01*
X32676748Y-10696097D01*
X32898392Y-10604289D01*
X33097866Y-10471005D01*
X33267505Y-10301366D01*
X33400789Y-10101892D01*
X33492597Y-9880248D01*
X33539400Y-9644953D01*
X33539400Y-9405047D01*
X39993600Y-9405047D01*
X39993600Y-9644953D01*
X40040403Y-9880248D01*
X40132211Y-10101892D01*
X40265495Y-10301366D01*
X40435134Y-10471005D01*
X40634608Y-10604289D01*
X40856252Y-10696097D01*
X41091547Y-10742900D01*
X41331453Y-10742900D01*
X41566748Y-10696097D01*
X41788392Y-10604289D01*
X41987866Y-10471005D01*
X42157505Y-10301366D01*
X42290789Y-10101892D01*
X42382597Y-9880248D01*
X42429400Y-9644953D01*
X42429400Y-9405047D01*
X42407480Y-9294845D01*
X43954700Y-9294845D01*
X43954700Y-9755155D01*
X44044502Y-10206619D01*
X44220655Y-10631890D01*
X44476389Y-11014623D01*
X44801877Y-11340111D01*
X45184610Y-11595845D01*
X45609881Y-11771998D01*
X46061345Y-11861800D01*
X46521655Y-11861800D01*
X46973119Y-11771998D01*
X47398390Y-11595845D01*
X47781123Y-11340111D01*
X48106611Y-11014623D01*
X48362345Y-10631890D01*
X48538498Y-10206619D01*
X48628300Y-9755155D01*
X48628300Y-9294845D01*
X48538498Y-8843381D01*
X48362345Y-8418110D01*
X48106611Y-8035377D01*
X47781123Y-7709889D01*
X47398390Y-7454155D01*
X46973119Y-7278002D01*
X46521655Y-7188200D01*
X46061345Y-7188200D01*
X45609881Y-7278002D01*
X45184610Y-7454155D01*
X44801877Y-7709889D01*
X44476389Y-8035377D01*
X44220655Y-8418110D01*
X44044502Y-8843381D01*
X43954700Y-9294845D01*
X42407480Y-9294845D01*
X42382597Y-9169752D01*
X42290789Y-8948108D01*
X42157505Y-8748634D01*
X41987866Y-8578995D01*
X41788392Y-8445711D01*
X41566748Y-8353903D01*
X41331453Y-8307100D01*
X41091547Y-8307100D01*
X40856252Y-8353903D01*
X40634608Y-8445711D01*
X40435134Y-8578995D01*
X40265495Y-8748634D01*
X40132211Y-8948108D01*
X40040403Y-9169752D01*
X39993600Y-9405047D01*
X33539400Y-9405047D01*
X33492597Y-9169752D01*
X33400789Y-8948108D01*
X33267505Y-8748634D01*
X33097866Y-8578995D01*
X32898392Y-8445711D01*
X32676748Y-8353903D01*
X32441453Y-8307100D01*
X32201547Y-8307100D01*
X31966252Y-8353903D01*
X31744608Y-8445711D01*
X31545134Y-8578995D01*
X31375495Y-8748634D01*
X31242211Y-8948108D01*
X31150403Y-9169752D01*
X31103600Y-9405047D01*
X29578300Y-9405047D01*
X29578300Y-9294845D01*
X29488498Y-8843381D01*
X29312345Y-8418110D01*
X29056611Y-8035377D01*
X28731123Y-7709889D01*
X28348390Y-7454155D01*
X27923119Y-7278002D01*
X27471655Y-7188200D01*
X27011345Y-7188200D01*
X26559881Y-7278002D01*
X26134610Y-7454155D01*
X25751877Y-7709889D01*
X25426389Y-8035377D01*
X25170655Y-8418110D01*
X24994502Y-8843381D01*
X24904700Y-9294845D01*
X23357480Y-9294845D01*
X23332597Y-9169752D01*
X23240789Y-8948108D01*
X23107505Y-8748634D01*
X22937866Y-8578995D01*
X22738392Y-8445711D01*
X22516748Y-8353903D01*
X22281453Y-8307100D01*
X22041547Y-8307100D01*
X21806252Y-8353903D01*
X21584608Y-8445711D01*
X21385134Y-8578995D01*
X21215495Y-8748634D01*
X21082211Y-8948108D01*
X20990403Y-9169752D01*
X20943600Y-9405047D01*
X20943600Y-9644953D01*
X20990403Y-9880248D01*
X21082211Y-10101892D01*
X21155510Y-10211591D01*
X20789900Y-9845982D01*
X20789900Y-3030014D01*
X20897508Y-2985441D01*
X21097195Y-2852014D01*
X21267014Y-2682195D01*
X21400441Y-2482508D01*
X21492347Y-2260627D01*
X21539200Y-2025081D01*
X21539200Y-1784919D01*
X21640800Y-1784919D01*
X21640800Y-2025081D01*
X21687653Y-2260627D01*
X21779559Y-2482508D01*
X21912986Y-2682195D01*
X22082805Y-2852014D01*
X22282492Y-2985441D01*
X22390100Y-3030014D01*
X22390100Y-3850423D01*
X22387827Y-3873500D01*
X22396900Y-3965616D01*
X22399777Y-3975100D01*
X22423769Y-4054192D01*
X22467402Y-4135825D01*
X22526123Y-4207377D01*
X22544057Y-4222095D01*
X23025101Y-4703140D01*
X23025101Y-5569179D01*
X23003329Y-5573510D01*
X22736188Y-5684163D01*
X22495768Y-5844807D01*
X22291307Y-6049268D01*
X22130663Y-6289688D01*
X22020010Y-6556829D01*
X21963600Y-6840424D01*
X21963600Y-7129576D01*
X22020010Y-7413171D01*
X22130663Y-7680312D01*
X22291307Y-7920732D01*
X22495768Y-8125193D01*
X22736188Y-8285837D01*
X23003329Y-8396490D01*
X23286924Y-8452900D01*
X23576076Y-8452900D01*
X23859671Y-8396490D01*
X24126812Y-8285837D01*
X24367232Y-8125193D01*
X24571693Y-7920732D01*
X24732337Y-7680312D01*
X24842990Y-7413171D01*
X24899400Y-7129576D01*
X24899400Y-6840424D01*
X24842990Y-6556829D01*
X24732337Y-6289688D01*
X24571693Y-6049268D01*
X24367232Y-5844807D01*
X24126812Y-5684163D01*
X23964900Y-5617097D01*
X23964900Y-4531577D01*
X23967173Y-4508500D01*
X23958100Y-4416383D01*
X23931231Y-4327807D01*
X23921569Y-4309731D01*
X23887598Y-4246175D01*
X23828877Y-4174623D01*
X23810948Y-4159909D01*
X23329900Y-3678862D01*
X23329900Y-3030014D01*
X23437508Y-2985441D01*
X23637195Y-2852014D01*
X23807014Y-2682195D01*
X23940441Y-2482508D01*
X24032347Y-2260627D01*
X24079200Y-2025081D01*
X24079200Y-1784919D01*
X24180800Y-1784919D01*
X24180800Y-2025081D01*
X24227653Y-2260627D01*
X24319559Y-2482508D01*
X24452986Y-2682195D01*
X24622805Y-2852014D01*
X24822492Y-2985441D01*
X24930100Y-3030014D01*
X24930100Y-3431322D01*
X24927827Y-3454400D01*
X24936900Y-3546516D01*
X24962557Y-3631098D01*
X24963769Y-3635092D01*
X25007402Y-3716725D01*
X25066123Y-3788277D01*
X25084057Y-3802995D01*
X28582010Y-7300949D01*
X28596723Y-7318877D01*
X28668275Y-7377598D01*
X28749907Y-7421231D01*
X28805036Y-7437954D01*
X28838482Y-7448100D01*
X28930599Y-7457173D01*
X28953676Y-7454900D01*
X41087295Y-7454900D01*
X41180663Y-7680312D01*
X41341307Y-7920732D01*
X41545768Y-8125193D01*
X41786188Y-8285837D01*
X42053329Y-8396490D01*
X42336924Y-8452900D01*
X42626076Y-8452900D01*
X42909671Y-8396490D01*
X43176812Y-8285837D01*
X43417232Y-8125193D01*
X43621693Y-7920732D01*
X43782337Y-7680312D01*
X43892990Y-7413171D01*
X43949400Y-7129576D01*
X43949400Y-6840424D01*
X43892990Y-6556829D01*
X43782337Y-6289688D01*
X43621693Y-6049268D01*
X43417232Y-5844807D01*
X43176812Y-5684163D01*
X42909671Y-5573510D01*
X42626076Y-5517100D01*
X42336924Y-5517100D01*
X42053329Y-5573510D01*
X41786188Y-5684163D01*
X41545768Y-5844807D01*
X41341307Y-6049268D01*
X41180663Y-6289688D01*
X41087295Y-6515100D01*
X29125239Y-6515100D01*
X25869900Y-3259762D01*
X25869900Y-3030014D01*
X25977508Y-2985441D01*
X26177195Y-2852014D01*
X26347014Y-2682195D01*
X26480441Y-2482508D01*
X26572347Y-2260627D01*
X26619200Y-2025081D01*
X26619200Y-1784919D01*
X26720800Y-1784919D01*
X26720800Y-2025081D01*
X26767653Y-2260627D01*
X26859559Y-2482508D01*
X26992986Y-2682195D01*
X27162805Y-2852014D01*
X27362492Y-2985441D01*
X27584373Y-3077347D01*
X27819919Y-3124200D01*
X27859662Y-3124200D01*
X28482460Y-3746999D01*
X28480663Y-3749688D01*
X28370010Y-4016829D01*
X28313600Y-4300424D01*
X28313600Y-4589576D01*
X28370010Y-4873171D01*
X28480663Y-5140312D01*
X28641307Y-5380732D01*
X28845768Y-5585193D01*
X29086188Y-5745837D01*
X29353329Y-5856490D01*
X29636924Y-5912900D01*
X29926076Y-5912900D01*
X30209671Y-5856490D01*
X30476812Y-5745837D01*
X30717232Y-5585193D01*
X30921693Y-5380732D01*
X31082337Y-5140312D01*
X31192990Y-4873171D01*
X31249400Y-4589576D01*
X31249400Y-4300424D01*
X31192990Y-4016829D01*
X31082337Y-3749688D01*
X30921693Y-3509268D01*
X30717232Y-3304807D01*
X30476812Y-3144163D01*
X30428617Y-3124200D01*
X30600081Y-3124200D01*
X30835627Y-3077347D01*
X31057508Y-2985441D01*
X31257195Y-2852014D01*
X31427014Y-2682195D01*
X31560441Y-2482508D01*
X31605014Y-2374900D01*
X46160362Y-2374900D01*
X47532460Y-3746999D01*
X47530663Y-3749688D01*
X47420010Y-4016829D01*
X47363600Y-4300424D01*
X47363600Y-4589576D01*
X47420010Y-4873171D01*
X47530663Y-5140312D01*
X47691307Y-5380732D01*
X47895768Y-5585193D01*
X48136188Y-5745837D01*
X48403329Y-5856490D01*
X48686924Y-5912900D01*
X48976076Y-5912900D01*
X49259671Y-5856490D01*
X49526812Y-5745837D01*
X49767232Y-5585193D01*
X49971693Y-5380732D01*
X50132337Y-5140312D01*
X50242990Y-4873171D01*
X50299400Y-4589576D01*
X50299400Y-4300424D01*
X50242990Y-4016829D01*
X50132337Y-3749688D01*
X49971693Y-3509268D01*
X49767232Y-3304807D01*
X49526812Y-3144163D01*
X49259671Y-3033510D01*
X48976076Y-2977100D01*
X48686924Y-2977100D01*
X48403329Y-3033510D01*
X48222818Y-3108280D01*
X46703595Y-1589057D01*
X46688877Y-1571123D01*
X46617325Y-1512402D01*
X46535693Y-1468769D01*
X46447116Y-1441900D01*
X46378077Y-1435100D01*
X46355000Y-1432827D01*
X46331923Y-1435100D01*
X31605014Y-1435100D01*
X31560441Y-1327492D01*
X31427014Y-1127805D01*
X31257195Y-957986D01*
X31057508Y-824559D01*
X30835627Y-732653D01*
X30600081Y-685800D01*
X30359919Y-685800D01*
X30124373Y-732653D01*
X29902492Y-824559D01*
X29702805Y-957986D01*
X29532986Y-1127805D01*
X29399559Y-1327492D01*
X29307653Y-1549373D01*
X29260800Y-1784919D01*
X29260800Y-2025081D01*
X29307653Y-2260627D01*
X29399559Y-2482508D01*
X29532986Y-2682195D01*
X29702805Y-2852014D01*
X29890009Y-2977100D01*
X29636924Y-2977100D01*
X29353329Y-3033510D01*
X29172818Y-3108280D01*
X28816874Y-2752335D01*
X28887014Y-2682195D01*
X29020441Y-2482508D01*
X29112347Y-2260627D01*
X29159200Y-2025081D01*
X29159200Y-1784919D01*
X29112347Y-1549373D01*
X29020441Y-1327492D01*
X28887014Y-1127805D01*
X28717195Y-957986D01*
X28517508Y-824559D01*
X28295627Y-732653D01*
X28060081Y-685800D01*
X27819919Y-685800D01*
X27584373Y-732653D01*
X27362492Y-824559D01*
X27162805Y-957986D01*
X26992986Y-1127805D01*
X26859559Y-1327492D01*
X26767653Y-1549373D01*
X26720800Y-1784919D01*
X26619200Y-1784919D01*
X26572347Y-1549373D01*
X26480441Y-1327492D01*
X26347014Y-1127805D01*
X26177195Y-957986D01*
X25977508Y-824559D01*
X25755627Y-732653D01*
X25520081Y-685800D01*
X25279919Y-685800D01*
X25044373Y-732653D01*
X24822492Y-824559D01*
X24622805Y-957986D01*
X24452986Y-1127805D01*
X24319559Y-1327492D01*
X24227653Y-1549373D01*
X24180800Y-1784919D01*
X24079200Y-1784919D01*
X24032347Y-1549373D01*
X23940441Y-1327492D01*
X23807014Y-1127805D01*
X23637195Y-957986D01*
X23437508Y-824559D01*
X23215627Y-732653D01*
X22980081Y-685800D01*
X22739919Y-685800D01*
X22504373Y-732653D01*
X22282492Y-824559D01*
X22082805Y-957986D01*
X21912986Y-1127805D01*
X21779559Y-1327492D01*
X21687653Y-1549373D01*
X21640800Y-1784919D01*
X21539200Y-1784919D01*
X21492347Y-1549373D01*
X21400441Y-1327492D01*
X21267014Y-1127805D01*
X21097195Y-957986D01*
X20897508Y-824559D01*
X20675627Y-732653D01*
X20440081Y-685800D01*
X20199919Y-685800D01*
X19964373Y-732653D01*
X19742492Y-824559D01*
X19542805Y-957986D01*
X19372986Y-1127805D01*
X19239559Y-1327492D01*
X19147653Y-1549373D01*
X19100800Y-1784919D01*
X19100800Y-2025081D01*
X19147653Y-2260627D01*
X19239559Y-2482508D01*
X19372986Y-2682195D01*
X19542805Y-2852014D01*
X19742492Y-2985441D01*
X19850101Y-3030014D01*
X19850100Y-10017543D01*
X19847827Y-10040620D01*
X19850100Y-10063696D01*
X19856900Y-10132735D01*
X19883769Y-10221312D01*
X19899774Y-10251255D01*
X18249900Y-8601382D01*
X18249900Y-3030014D01*
X18357508Y-2985441D01*
X18557195Y-2852014D01*
X18727014Y-2682195D01*
X18860441Y-2482508D01*
X18952347Y-2260627D01*
X18999200Y-2025081D01*
X18999200Y-1784919D01*
X18952347Y-1549373D01*
X18860441Y-1327492D01*
X18727014Y-1127805D01*
X18557195Y-957986D01*
X18357508Y-824559D01*
X18135627Y-732653D01*
X17900081Y-685800D01*
X17659919Y-685800D01*
X17424373Y-732653D01*
X17202492Y-824559D01*
X17002805Y-957986D01*
X16832986Y-1127805D01*
X16699559Y-1327492D01*
X16607653Y-1549373D01*
X16560800Y-1784919D01*
X16560800Y-2025081D01*
X16607653Y-2260627D01*
X16699559Y-2482508D01*
X16832986Y-2682195D01*
X17002805Y-2852014D01*
X17202492Y-2985441D01*
X17310100Y-3030014D01*
X17310100Y-3167351D01*
X17310101Y-3167361D01*
X17310100Y-8772943D01*
X17307827Y-8796020D01*
X17310100Y-8819096D01*
X17316900Y-8888135D01*
X17343769Y-8976712D01*
X17359774Y-9006656D01*
X15709900Y-7356782D01*
X15709900Y-3030014D01*
X15817508Y-2985441D01*
X16017195Y-2852014D01*
X16187014Y-2682195D01*
X16320441Y-2482508D01*
X16412347Y-2260627D01*
X16459200Y-2025081D01*
X16459200Y-1784919D01*
X16412347Y-1549373D01*
X16320441Y-1327492D01*
X16187014Y-1127805D01*
X16017195Y-957986D01*
X15817508Y-824559D01*
X15595627Y-732653D01*
X15360081Y-685800D01*
X15119919Y-685800D01*
X14884373Y-732653D01*
X14662492Y-824559D01*
X14462805Y-957986D01*
X14292986Y-1127805D01*
X14159559Y-1327492D01*
X14067653Y-1549373D01*
X14020800Y-1784919D01*
X14020800Y-2025081D01*
X14067653Y-2260627D01*
X14159559Y-2482508D01*
X14292986Y-2682195D01*
X14462805Y-2852014D01*
X14662492Y-2985441D01*
X14770100Y-3030014D01*
X14770101Y-7528333D01*
X14767827Y-7551420D01*
X14776900Y-7643536D01*
X14803769Y-7732112D01*
X14803770Y-7732113D01*
X14819775Y-7762057D01*
X13169900Y-6112182D01*
X13169900Y-3030014D01*
X13277508Y-2985441D01*
X13477195Y-2852014D01*
X13647014Y-2682195D01*
X13780441Y-2482508D01*
X13872347Y-2260627D01*
X13919200Y-2025081D01*
X13919200Y-1784919D01*
X13872347Y-1549373D01*
X13780441Y-1327492D01*
X13647014Y-1127805D01*
X13477195Y-957986D01*
X13277508Y-824559D01*
X13055627Y-732653D01*
X12820081Y-685800D01*
X12579919Y-685800D01*
X12344373Y-732653D01*
X12122492Y-824559D01*
X11922805Y-957986D01*
X11752986Y-1127805D01*
X11619559Y-1327492D01*
X11527653Y-1549373D01*
X11516487Y-1605510D01*
X11441684Y-1364480D01*
X11321492Y-1139616D01*
X11097554Y-1057248D01*
X10249803Y-1905000D01*
X10070197Y-1905000D01*
X9222446Y-1057248D01*
X8998508Y-1139616D01*
X8890838Y-1344188D01*
X8781492Y-1139616D01*
X8557554Y-1057248D01*
X7709803Y-1905000D01*
X7530197Y-1905000D01*
X6682446Y-1057248D01*
X6458508Y-1139616D01*
X6331506Y-1380919D01*
X6264088Y-1608398D01*
X6252347Y-1549373D01*
X6160441Y-1327492D01*
X6027014Y-1127805D01*
X5866655Y-967446D01*
X6772248Y-967446D01*
X7620000Y-1815197D01*
X8467752Y-967446D01*
X9312248Y-967446D01*
X10160000Y-1815197D01*
X11007752Y-967446D01*
X10925384Y-743508D01*
X10684081Y-616506D01*
X10422639Y-539022D01*
X10151103Y-514030D01*
X9879909Y-542493D01*
X9619480Y-623316D01*
X9394616Y-743508D01*
X9312248Y-967446D01*
X8467752Y-967446D01*
X8385384Y-743508D01*
X8144081Y-616506D01*
X7882639Y-539022D01*
X7611103Y-514030D01*
X7339909Y-542493D01*
X7079480Y-623316D01*
X6854616Y-743508D01*
X6772248Y-967446D01*
X5866655Y-967446D01*
X5857195Y-957986D01*
X5657508Y-824559D01*
X5435627Y-732653D01*
X5200081Y-685800D01*
X4959919Y-685800D01*
X4724373Y-732653D01*
X4502492Y-824559D01*
X4302805Y-957986D01*
X4132986Y-1127805D01*
X3999559Y-1327492D01*
X3907653Y-1549373D01*
X3860800Y-1784919D01*
X3760859Y-1784919D01*
X3760859Y-1466850D01*
X3745819Y-1314151D01*
X3701279Y-1167320D01*
X3628949Y-1032000D01*
X3531609Y-913391D01*
X3413000Y-816051D01*
X3277680Y-743721D01*
X3130849Y-699181D01*
X2978150Y-684141D01*
X2101850Y-684141D01*
X1949151Y-699181D01*
X1802320Y-743721D01*
X1667000Y-816051D01*
X1548391Y-913391D01*
X1451051Y-1032000D01*
X1378721Y-1167320D01*
X1334181Y-1314151D01*
X1319141Y-1466850D01*
X367900Y-1466850D01*
X367900Y-367900D01*
X93612101Y-367900D01*
X93612100Y-18682100D01*
G37*
%TD.AperFunction*%
D14*
X68273602Y-14673580D02*
X68230513Y-14673580D01*
X68257773Y-14665311D01*
X68309542Y-14637640D01*
X68273602Y-14673580D01*
%TA.AperFunction,Conductor*%
D17*
G36*
X68273602Y-14673580D02*
G01*
X68230513Y-14673580D01*
X68257773Y-14665311D01*
X68309542Y-14637640D01*
X68273602Y-14673580D01*
G37*
%TD.AperFunction*%
D14*
X21736967Y-14665311D02*
X21764227Y-14673580D01*
X21731299Y-14673580D01*
X21707027Y-14649308D01*
X21736967Y-14665311D01*
%TA.AperFunction,Conductor*%
D17*
G36*
X21736967Y-14665311D02*
G01*
X21764227Y-14673580D01*
X21731299Y-14673580D01*
X21707027Y-14649308D01*
X21736967Y-14665311D01*
G37*
%TD.AperFunction*%
D14*
X22117967Y-13750911D02*
X22145227Y-13759180D01*
X22112299Y-13759180D01*
X22088027Y-13734908D01*
X22117967Y-13750911D01*
%TA.AperFunction,Conductor*%
D17*
G36*
X22117967Y-13750911D02*
G01*
X22145227Y-13759180D01*
X22112299Y-13759180D01*
X22088027Y-13734908D01*
X22117967Y-13750911D01*
G37*
%TD.AperFunction*%
D14*
X22498967Y-12836511D02*
X22526226Y-12844780D01*
X22493299Y-12844780D01*
X22469027Y-12820508D01*
X22498967Y-12836511D01*
%TA.AperFunction,Conductor*%
D17*
G36*
X22498967Y-12836511D02*
G01*
X22526226Y-12844780D01*
X22493299Y-12844780D01*
X22469027Y-12820508D01*
X22498967Y-12836511D01*
G37*
%TD.AperFunction*%
D14*
X51047322Y-12844780D02*
X51009313Y-12844780D01*
X51036573Y-12836511D01*
X51077429Y-12814673D01*
X51047322Y-12844780D01*
%TA.AperFunction,Conductor*%
D17*
G36*
X51047322Y-12844780D02*
G01*
X51009313Y-12844780D01*
X51036573Y-12836511D01*
X51077429Y-12814673D01*
X51047322Y-12844780D01*
G37*
%TD.AperFunction*%
%TD*%
M02*
