M48
; DRILL file {KiCad 5.99.0+really5.1.10+dfsg1-1} date Sun Jun  6 12:45:30 2021
; FORMAT={-:-/ absolute / inch / decimal}
; #@! TF.CreationDate,2021-06-06T12:45:30-04:00
; #@! TF.GenerationSoftware,Kicad,Pcbnew,5.99.0+really5.1.10+dfsg1-1
FMAT,2
INCH
T1C0.0157
T2C0.0256
T3C0.0430
T4C0.0579
T5C0.0689
T6C0.1570
%
G90
G05
T1
X0.05Y-0.025
X0.05Y-0.125
X0.05Y-0.225
X0.05Y-0.325
X0.05Y-0.425
X0.05Y-0.525
X0.05Y-0.625
X0.05Y-0.725
X0.15Y-0.025
X0.15Y-0.125
X0.15Y-0.625
X0.15Y-0.725
X0.175Y-0.345
X0.25Y-0.025
X0.25Y-0.125
X0.25Y-0.625
X0.25Y-0.725
X0.35Y-0.025
X0.35Y-0.125
X0.35Y-0.625
X0.35Y-0.725
X0.45Y-0.025
X0.45Y-0.625
X0.45Y-0.725
X0.4575Y-0.24
X0.55Y-0.025
X0.55Y-0.125
X0.55Y-0.625
X0.55Y-0.725
X0.65Y-0.025
X0.65Y-0.125
X0.65Y-0.625
X0.65Y-0.725
X0.75Y-0.025
X0.75Y-0.125
X0.75Y-0.625
X0.75Y-0.725
X0.85Y-0.025
X0.85Y-0.125
X0.85Y-0.625
X0.85Y-0.725
X0.925Y-0.345
X0.9475Y-0.025
X0.9475Y-0.125
X0.95Y-0.625
X0.95Y-0.725
X1.05Y-0.025
X1.05Y-0.125
X1.05Y-0.725
X1.15Y-0.025
X1.15Y-0.725
X1.2475Y-0.025
X1.2475Y-0.125
X1.25Y-0.725
X1.26Y-0.665
X1.35Y-0.025
X1.35Y-0.725
X1.45Y-0.025
X1.45Y-0.725
X1.55Y-0.025
X1.55Y-0.725
X1.65Y-0.025
X1.65Y-0.725
X1.675Y-0.345
X1.75Y-0.025
X1.75Y-0.725
X1.85Y-0.025
X1.85Y-0.725
X1.95Y-0.025
X1.95Y-0.725
X1.9575Y-0.24
X2.05Y-0.025
X2.05Y-0.725
X2.15Y-0.025
X2.15Y-0.725
X2.25Y-0.025
X2.25Y-0.725
X2.35Y-0.025
X2.35Y-0.725
X2.425Y-0.345
X2.45Y-0.025
X2.45Y-0.725
X2.55Y-0.025
X2.55Y-0.725
X2.65Y-0.025
X2.65Y-0.725
X2.7075Y-0.24
X2.75Y-0.025
X2.75Y-0.725
X2.85Y-0.025
X2.85Y-0.725
X2.95Y-0.025
X2.95Y-0.725
X3.05Y-0.025
X3.05Y-0.725
X3.15Y-0.025
X3.15Y-0.725
X3.175Y-0.345
X3.25Y-0.025
X3.25Y-0.725
X3.35Y-0.025
X3.35Y-0.725
X3.45Y-0.025
X3.45Y-0.725
X3.4799Y-0.2117
X3.55Y-0.025
X3.55Y-0.725
X3.595Y-0.1904
X3.595Y-0.248
X3.595Y-0.314
X3.595Y-0.5028
X3.595Y-0.5604
X3.5951Y-0.3798
X3.5951Y-0.445
X3.65Y-0.025
X3.65Y-0.0875
X3.65Y-0.6625
X3.65Y-0.725
T2
X3.645Y-0.1475
X3.645Y-0.1975
X3.645Y-0.2475
X3.645Y-0.2975
X3.645Y-0.3475
X3.645Y-0.3975
X3.645Y-0.4475
X3.645Y-0.4975
X3.645Y-0.5475
X3.645Y-0.5975
T3
X0.1Y-0.075
X0.1Y-0.675
X0.2Y-0.075
X0.2Y-0.675
X0.3Y-0.075
X0.3Y-0.675
X0.4Y-0.075
X0.4Y-0.675
X0.5Y-0.075
X0.5Y-0.675
X0.6Y-0.075
X0.6Y-0.675
X0.7Y-0.075
X0.7Y-0.675
X0.8Y-0.075
X0.8Y-0.675
X0.9Y-0.075
X0.9Y-0.675
X1.0Y-0.075
X1.0Y-0.675
X1.1Y-0.075
X1.1Y-0.675
X1.2Y-0.075
X1.2Y-0.675
T4
X0.1725Y-0.275
X0.4225Y-0.175
X0.9225Y-0.275
X1.1725Y-0.175
X1.6725Y-0.275
X1.9225Y-0.175
X2.4225Y-0.275
X2.6725Y-0.175
X3.1725Y-0.275
X3.4225Y-0.175
T5
X0.1225Y-0.375
X0.5225Y-0.375
X0.8725Y-0.375
X1.2725Y-0.375
X1.6225Y-0.375
X2.0225Y-0.375
X2.3725Y-0.375
X2.7725Y-0.375
X3.1225Y-0.375
X3.5225Y-0.375
T6
X0.3225Y-0.375
X1.0725Y-0.375
X1.8225Y-0.375
X2.5725Y-0.375
X3.3225Y-0.375
T0
M30
