%TF.GenerationSoftware,KiCad,Pcbnew,5.99.0+really5.1.10+dfsg1-1*%
%TF.CreationDate,2021-05-25T04:06:56-04:00*%
%TF.ProjectId,5x1,3578312e-6b69-4636-9164-5f7063625858,rev?*%
%TF.SameCoordinates,Original*%
%TF.FileFunction,Copper,L2,Bot*%
%TF.FilePolarity,Positive*%
%FSLAX46Y46*%
G04 Gerber Fmt 4.6, Leading zero omitted, Abs format (unit mm)*
G04 Created by KiCad (PCBNEW 5.99.0+really5.1.10+dfsg1-1) date 2021-05-25 04:06:56*
%MOMM*%
%LPD*%
G01*
G04 APERTURE LIST*
%TA.AperFunction,ComponentPad*%
%ADD10C,2.250000*%
%TD*%
%TA.AperFunction,ComponentPad*%
%ADD11O,1.000000X1.000000*%
%TD*%
%TA.AperFunction,ComponentPad*%
%ADD12C,1.752600*%
%TD*%
%TA.AperFunction,ViaPad*%
%ADD13C,0.800000*%
%TD*%
%TA.AperFunction,Conductor*%
%ADD14C,0.254000*%
%TD*%
%TA.AperFunction,Conductor*%
%ADD15C,0.381000*%
%TD*%
%TA.AperFunction,Conductor*%
%ADD16C,0.762000*%
%TD*%
%TA.AperFunction,Conductor*%
%ADD17C,0.304800*%
%TD*%
%TA.AperFunction,Conductor*%
%ADD18C,0.203200*%
%TD*%
%TA.AperFunction,Conductor*%
%ADD19C,0.508000*%
%TD*%
%TA.AperFunction,Conductor*%
%ADD20C,0.250000*%
%TD*%
%TA.AperFunction,Conductor*%
%ADD21C,0.150000*%
%TD*%
G04 APERTURE END LIST*
D10*
%TO.P,MX_4,2*%
%TO.N,R4*%
X86995000Y-4445000D03*
%TO.P,MX_4,1*%
%TO.N,C4*%
X80645000Y-6985000D03*
%TD*%
D11*
%TO.P,J1,10*%
%TO.N,GND*%
X92583000Y-3746500D03*
%TO.P,J1,9*%
%TO.N,Net-(J1-Pad9)*%
X92583000Y-5016500D03*
%TO.P,J1,8*%
%TO.N,Net-(J1-Pad8)*%
X92583000Y-6286500D03*
%TO.P,J1,7*%
%TO.N,Net-(J1-Pad7)*%
X92583000Y-7556500D03*
%TO.P,J1,6*%
%TO.N,Net-(J1-Pad6)*%
X92583000Y-8826500D03*
%TO.P,J1,5*%
%TO.N,Net-(J1-Pad5)*%
X92583000Y-10096500D03*
%TO.P,J1,4*%
%TO.N,Net-(J1-Pad4)*%
X92583000Y-11366500D03*
%TO.P,J1,3*%
%TO.N,Net-(J1-Pad3)*%
X92583000Y-12636500D03*
%TO.P,J1,2*%
%TO.N,Net-(J1-Pad2)*%
X92583000Y-13906500D03*
%TO.P,J1,1*%
%TO.N,GND*%
%TA.AperFunction,ComponentPad*%
G36*
G01*
X93083000Y-14926500D02*
X93083000Y-15426500D01*
G75*
G02*
X92833000Y-15676500I-250000J0D01*
G01*
X92333000Y-15676500D01*
G75*
G02*
X92083000Y-15426500I0J250000D01*
G01*
X92083000Y-14926500D01*
G75*
G02*
X92333000Y-14676500I250000J0D01*
G01*
X92833000Y-14676500D01*
G75*
G02*
X93083000Y-14926500I0J-250000D01*
G01*
G37*
%TD.AperFunction*%
%TD*%
D10*
%TO.P,MX_3,2*%
%TO.N,R3*%
X67945000Y-4445000D03*
%TO.P,MX_3,1*%
%TO.N,C3*%
X61595000Y-6985000D03*
%TD*%
%TO.P,MX_2,2*%
%TO.N,R2*%
X48895000Y-4445000D03*
%TO.P,MX_2,1*%
%TO.N,C2*%
X42545000Y-6985000D03*
%TD*%
%TO.P,MX_0,2*%
%TO.N,R0*%
X10795000Y-4445000D03*
%TO.P,MX_0,1*%
%TO.N,C0*%
X4445000Y-6985000D03*
%TD*%
%TO.P,MX_1,2*%
%TO.N,R1*%
X29845000Y-4445000D03*
%TO.P,MX_1,1*%
%TO.N,C1*%
X23495000Y-6985000D03*
%TD*%
D12*
%TO.P,U1,24*%
%TO.N,NC1*%
X2540000Y-17145000D03*
%TO.P,U1,12*%
%TO.N,R2*%
X30480000Y-1905000D03*
%TO.P,U1,23*%
%TO.N,GND*%
X5080000Y-17145000D03*
%TO.P,U1,22*%
%TO.N,NC2*%
X7620000Y-17145000D03*
%TO.P,U1,21*%
%TO.N,VCC*%
X10160000Y-17145000D03*
%TO.P,U1,20*%
%TO.N,Net-(J1-Pad9)*%
X12700000Y-17145000D03*
%TO.P,U1,19*%
%TO.N,Net-(J1-Pad8)*%
X15240000Y-17145000D03*
%TO.P,U1,18*%
%TO.N,Net-(J1-Pad7)*%
X17780000Y-17145000D03*
%TO.P,U1,17*%
%TO.N,Net-(J1-Pad6)*%
X20320000Y-17145000D03*
%TO.P,U1,16*%
%TO.N,Net-(J1-Pad5)*%
X22860000Y-17145000D03*
%TO.P,U1,15*%
%TO.N,Net-(J1-Pad4)*%
X25400000Y-17145000D03*
%TO.P,U1,14*%
%TO.N,Net-(J1-Pad3)*%
X27940000Y-17145000D03*
%TO.P,U1,13*%
%TO.N,Net-(J1-Pad2)*%
X30480000Y-17145000D03*
%TO.P,U1,11*%
%TO.N,R1*%
X27940000Y-1905000D03*
%TO.P,U1,10*%
%TO.N,C2*%
X25400000Y-1905000D03*
%TO.P,U1,9*%
%TO.N,C1*%
X22860000Y-1905000D03*
%TO.P,U1,8*%
%TO.N,R3*%
X20320000Y-1905000D03*
%TO.P,U1,7*%
%TO.N,C3*%
X17780000Y-1905000D03*
%TO.P,U1,6*%
%TO.N,R4*%
X15240000Y-1905000D03*
%TO.P,U1,5*%
%TO.N,C4*%
X12700000Y-1905000D03*
%TO.P,U1,4*%
%TO.N,GND*%
X10160000Y-1905000D03*
%TO.P,U1,3*%
X7620000Y-1905000D03*
%TO.P,U1,2*%
%TO.N,R0*%
X5080000Y-1905000D03*
%TO.P,U1,1*%
%TO.N,C0*%
%TA.AperFunction,ComponentPad*%
G36*
G01*
X1663700Y-2343150D02*
X1663700Y-1466850D01*
G75*
G02*
X2101850Y-1028700I438150J0D01*
G01*
X2978150Y-1028700D01*
G75*
G02*
X3416300Y-1466850I0J-438150D01*
G01*
X3416300Y-2343150D01*
G75*
G02*
X2978150Y-2781300I-438150J0D01*
G01*
X2101850Y-2781300D01*
G75*
G02*
X1663700Y-2343150I0J438150D01*
G01*
G37*
%TD.AperFunction*%
%TD*%
D13*
%TO.N,GND*%
X24130000Y-15875000D03*
X91503500Y-12001500D03*
X91567000Y-9461500D03*
X34290000Y-635000D03*
X36830000Y-635000D03*
X39370000Y-635000D03*
X41910000Y-635000D03*
X44450000Y-635000D03*
X46990000Y-635000D03*
X49530000Y-635000D03*
X52070000Y-635000D03*
X54610000Y-635000D03*
X57150000Y-635000D03*
X59690000Y-635000D03*
X62230000Y-635000D03*
X64770000Y-635000D03*
X67310000Y-635000D03*
X69850000Y-635000D03*
X72390000Y-635000D03*
X74930000Y-635000D03*
X77470000Y-635000D03*
X80010000Y-635000D03*
X82550000Y-635000D03*
X85090000Y-635000D03*
X87630000Y-635000D03*
X90170000Y-635000D03*
X92710000Y-635000D03*
X4445000Y-8763000D03*
X42545000Y-8763000D03*
X61595000Y-8763000D03*
X80645000Y-8763000D03*
X31750000Y-18415000D03*
X24130000Y-18415000D03*
X13970000Y-18415000D03*
X1270000Y-18415000D03*
X3810000Y-18415000D03*
X1270000Y-15875000D03*
X6350000Y-18415000D03*
X19050000Y-18415000D03*
X3810000Y-15875000D03*
X8890000Y-18415000D03*
X8890000Y-15875000D03*
X21590000Y-18415000D03*
X26670000Y-18415000D03*
X11430000Y-15875000D03*
X6350000Y-15875000D03*
X13970000Y-635000D03*
X16510000Y-635000D03*
X19050000Y-635000D03*
X21590000Y-635000D03*
X24066500Y-635000D03*
X26670000Y-635000D03*
X3810000Y-635000D03*
X1270000Y-635000D03*
X3810000Y-3175000D03*
X1270000Y-3175000D03*
X6350000Y-3175000D03*
X6350000Y-635000D03*
X8890000Y-3175000D03*
X13970000Y-3175000D03*
X16510000Y-3175000D03*
X19050000Y-3175000D03*
X21590000Y-3175000D03*
X24066500Y-3175000D03*
X26670000Y-3175000D03*
X8890000Y-635000D03*
X11430000Y-635000D03*
X31686500Y-635000D03*
X31686500Y-3175000D03*
X11430000Y-18415000D03*
X29210000Y-18415000D03*
X11620500Y-6096000D03*
X49720500Y-6096000D03*
X68770500Y-6096000D03*
X87820500Y-6096000D03*
X92710000Y-18415000D03*
X90170000Y-18415000D03*
X87630000Y-18415000D03*
X85090000Y-18415000D03*
X82550000Y-18415000D03*
X80010000Y-18415000D03*
X77470000Y-18415000D03*
X74930000Y-18415000D03*
X72390000Y-18415000D03*
X69850000Y-18415000D03*
X67310000Y-18415000D03*
X64770000Y-18415000D03*
X62230000Y-18415000D03*
X59690000Y-18415000D03*
X57150000Y-18415000D03*
X54610000Y-18415000D03*
X52070000Y-18415000D03*
X49530000Y-18415000D03*
X46990000Y-18415000D03*
X44450000Y-18415000D03*
X41910000Y-18415000D03*
X39370000Y-18415000D03*
X36830000Y-18415000D03*
X29210000Y-635000D03*
X34290000Y-18415000D03*
X1270000Y-13335000D03*
X1270000Y-10795000D03*
X1270000Y-8255000D03*
X1270000Y-5715000D03*
X13970000Y-15875000D03*
X16510000Y-18415000D03*
X16510000Y-15875000D03*
X19050000Y-15875000D03*
X21590000Y-15875000D03*
X92710000Y-1905000D03*
X92710000Y-17145000D03*
X91440000Y-635000D03*
X88900000Y-635000D03*
X86360000Y-635000D03*
X83820000Y-635000D03*
X81280000Y-635000D03*
X78740000Y-635000D03*
X76200000Y-635000D03*
X73660000Y-635000D03*
X71120000Y-635000D03*
X68580000Y-635000D03*
X66040000Y-635000D03*
X63500000Y-635000D03*
X60960000Y-635000D03*
X58420000Y-635000D03*
X55880000Y-635000D03*
X53340000Y-635000D03*
X50800000Y-635000D03*
X48260000Y-635000D03*
X45720000Y-635000D03*
X43180000Y-635000D03*
X40640000Y-635000D03*
X38100000Y-635000D03*
X33020000Y-635000D03*
X91440000Y-18415000D03*
X88900000Y-18415000D03*
X86360000Y-18415000D03*
X83820000Y-18415000D03*
X81280000Y-18415000D03*
X78740000Y-18415000D03*
X76200000Y-18415000D03*
X73660000Y-18415000D03*
X71120000Y-18415000D03*
X68580000Y-18415000D03*
X66040000Y-18415000D03*
X63500000Y-18415000D03*
X60960000Y-18415000D03*
X58420000Y-18415000D03*
X55880000Y-18415000D03*
X53340000Y-18415000D03*
X50800000Y-18415000D03*
X48260000Y-18415000D03*
X45720000Y-18415000D03*
X43180000Y-18415000D03*
X40640000Y-18415000D03*
X38100000Y-18415000D03*
X35560000Y-18415000D03*
X33020000Y-18415000D03*
X1270000Y-14605000D03*
X1270000Y-12065000D03*
X1270000Y-9525000D03*
X1270000Y-6985000D03*
X1270000Y-4445000D03*
X26676074Y-15881074D03*
X91567000Y-6921500D03*
X31750000Y-15875000D03*
X23495000Y-8763000D03*
X30670500Y-6096000D03*
X35560000Y-635000D03*
X91503500Y-14541500D03*
X91567000Y-4381500D03*
%TD*%
D14*
%TO.N,GND*%
X88296750Y-12731750D02*
X91567000Y-9461500D01*
X11676933Y-15875000D02*
X11430000Y-15875000D01*
D15*
X92710000Y-3619500D02*
X92583000Y-3746500D01*
X92710000Y-15303500D02*
X92583000Y-15176500D01*
D16*
X3810000Y-15875000D02*
X5080000Y-17145000D01*
X6350000Y-15875000D02*
X5080000Y-17145000D01*
X5080000Y-17145000D02*
X6350000Y-18415000D01*
X5080000Y-17145000D02*
X3810000Y-18415000D01*
D17*
X6350000Y-3175000D02*
X6350000Y-635000D01*
X8890000Y-635000D02*
X8890000Y-3175000D01*
D16*
X6350000Y-635000D02*
X7620000Y-1905000D01*
X8890000Y-635000D02*
X7620000Y-1905000D01*
X8890000Y-3175000D02*
X7620000Y-1905000D01*
X6350000Y-3175000D02*
X7620000Y-1905000D01*
X8890000Y-635000D02*
X10160000Y-1905000D01*
X11430000Y-635000D02*
X10160000Y-1905000D01*
X8890000Y-3175000D02*
X10160000Y-1905000D01*
D14*
X26670000Y-15887148D02*
X26676074Y-15881074D01*
D18*
X31750000Y-15875000D02*
X31657901Y-15967099D01*
D14*
X11430000Y-15621000D02*
X11430000Y-15875000D01*
X87638499Y-2992999D02*
X91167001Y-6521501D01*
X81462001Y-2992999D02*
X87638499Y-2992999D01*
X70964468Y-13490532D02*
X81462001Y-2992999D01*
X70386532Y-13490532D02*
X70964468Y-13490532D01*
D16*
X10160000Y-1905000D02*
X10993999Y-2738999D01*
X10993999Y-2738999D02*
X11377193Y-2738999D01*
D17*
X11430000Y-2931038D02*
X11430000Y-635000D01*
D14*
X91567000Y-6921500D02*
X91167001Y-6521501D01*
X91059000Y-12001500D02*
X86820448Y-16240052D01*
X91503500Y-12001500D02*
X91059000Y-12001500D01*
X86820448Y-16240052D02*
X86661552Y-16240052D01*
X88265000Y-12700000D02*
X88296750Y-12731750D01*
X90233500Y-8128000D02*
X89034068Y-8128000D01*
X88265000Y-8897068D02*
X88265000Y-12700000D01*
X91567000Y-9461500D02*
X90233500Y-8128000D01*
X89034068Y-8128000D02*
X88265000Y-8897068D01*
X91167001Y-6521501D02*
X88650863Y-6521501D01*
X85569468Y-13490532D02*
X70386532Y-13490532D01*
X86868000Y-12192000D02*
X85569468Y-13490532D01*
X88650863Y-6521501D02*
X86868000Y-8304364D01*
X86868000Y-8304364D02*
X86868000Y-12192000D01*
D17*
X3810000Y-15875000D02*
X3810000Y-18415000D01*
X6350000Y-15875000D02*
X6350000Y-18415000D01*
D14*
X32538090Y-14687522D02*
X34090620Y-16240052D01*
X27869626Y-14687522D02*
X32538090Y-14687522D01*
X34090620Y-16240052D02*
X86661552Y-16240052D01*
X26676074Y-15881074D02*
X27869626Y-14687522D01*
X37620532Y-13490532D02*
X70386532Y-13490532D01*
X26670000Y-3528864D02*
X26670000Y-3175000D01*
X29237136Y-6096000D02*
X26670000Y-3528864D01*
X30670500Y-6096000D02*
X29237136Y-6096000D01*
X34654790Y-14878018D02*
X33076805Y-13300033D01*
X88296750Y-12731750D02*
X86150479Y-14878019D01*
X86150479Y-14878019D02*
X34654790Y-14878018D01*
X33076805Y-13300033D02*
X24164967Y-13300033D01*
X24164967Y-13300033D02*
X21590000Y-15875000D01*
X20320000Y-11874500D02*
X19939000Y-12255500D01*
X26494945Y-5280011D02*
X22674125Y-5280011D01*
X20320000Y-7634136D02*
X20320000Y-11874500D01*
X28961934Y-7747000D02*
X26494945Y-5280011D01*
X32385962Y-7747000D02*
X28961934Y-7747000D01*
X22674125Y-5280011D02*
X20320000Y-7634136D01*
X38129494Y-13490532D02*
X32385962Y-7747000D01*
X37620532Y-13490532D02*
X38129494Y-13490532D01*
X35193733Y-13490532D02*
X37620532Y-13490532D01*
X33641201Y-11938000D02*
X35193733Y-13490532D01*
X20256500Y-11938000D02*
X33641201Y-11938000D01*
X16510000Y-15684500D02*
X20256500Y-11938000D01*
X16510000Y-15875000D02*
X16510000Y-15684500D01*
X91503500Y-12192000D02*
X91503500Y-12001500D01*
X87455448Y-16240052D02*
X91503500Y-12192000D01*
X86661552Y-16240052D02*
X87455448Y-16240052D01*
D19*
X92138500Y-15176500D02*
X92583000Y-15176500D01*
X91503500Y-14541500D02*
X92138500Y-15176500D01*
X92202000Y-3746500D02*
X92583000Y-3746500D01*
X91567000Y-4381500D02*
X92202000Y-3746500D01*
D14*
X33147000Y-6096000D02*
X30670500Y-6096000D01*
X39179499Y-12128499D02*
X33147000Y-6096000D01*
X70294501Y-12128499D02*
X39179499Y-12128499D01*
X80908510Y-1514490D02*
X70294501Y-12128499D01*
X88191990Y-1514490D02*
X80908510Y-1514490D01*
X91059000Y-4381500D02*
X88191990Y-1514490D01*
X91567000Y-4381500D02*
X91059000Y-4381500D01*
D19*
X92583000Y-17018000D02*
X92710000Y-17145000D01*
X92583000Y-15176500D02*
X92583000Y-17018000D01*
X92583000Y-2032000D02*
X92710000Y-1905000D01*
X92583000Y-3746500D02*
X92583000Y-2032000D01*
X92583000Y-3746500D02*
X93281500Y-3746500D01*
X92583000Y-15176500D02*
X93345000Y-15176500D01*
D14*
%TO.N,Net-(J1-Pad3)*%
X29943467Y-15141533D02*
X28816299Y-16268701D01*
X32209320Y-15141533D02*
X29943467Y-15141533D01*
X33761847Y-16694060D02*
X32209320Y-15141533D01*
X28816299Y-16268701D02*
X27940000Y-17145000D01*
X87643508Y-16694060D02*
X33761847Y-16694060D01*
X91266079Y-13071489D02*
X87643508Y-16694060D01*
X92148011Y-13071489D02*
X91266079Y-13071489D01*
X92583000Y-12636500D02*
X92148011Y-13071489D01*
%TO.N,Net-(J1-Pad9)*%
X12700000Y-15905725D02*
X12700000Y-17145000D01*
X88057921Y-2022489D02*
X81042578Y-2022490D01*
X13457726Y-15147999D02*
X12700000Y-15905725D01*
X91496432Y-5461000D02*
X88057921Y-2022489D01*
X15332001Y-15147999D02*
X13457726Y-15147999D01*
X70482558Y-12582510D02*
X38808010Y-12582510D01*
X33064478Y-6838978D02*
X29338048Y-6838978D01*
X29338048Y-6838978D02*
X26817070Y-4318000D01*
X92583000Y-5016500D02*
X92138500Y-5461000D01*
X92138500Y-5461000D02*
X91496432Y-5461000D01*
X81042578Y-2022490D02*
X70482558Y-12582510D01*
X38808010Y-12582510D02*
X33064478Y-6838978D01*
X26817070Y-4318000D02*
X22352000Y-4318000D01*
X22352000Y-4318000D02*
X19411978Y-7258022D01*
X19411978Y-7258022D02*
X19411978Y-11068022D01*
X19411978Y-11068022D02*
X15332001Y-15147999D01*
%TO.N,Net-(J1-Pad8)*%
X91259011Y-5915011D02*
X87820500Y-2476500D01*
X26683002Y-4826000D02*
X22486068Y-4826000D01*
X81230636Y-2476500D02*
X70670615Y-13036521D01*
X32756489Y-7292989D02*
X29149990Y-7292988D01*
X22486068Y-4826000D02*
X19865989Y-7446079D01*
X70670615Y-13036521D02*
X38500021Y-13036521D01*
X29149990Y-7292988D02*
X26683002Y-4826000D01*
X19865989Y-11279736D02*
X15240000Y-15905725D01*
X87820500Y-2476500D02*
X81230636Y-2476500D01*
X38500021Y-13036521D02*
X32756489Y-7292989D01*
X19865989Y-7446079D02*
X19865989Y-11279736D01*
X15240000Y-15905725D02*
X15240000Y-17145000D01*
X92211511Y-5915011D02*
X91259011Y-5915011D01*
X92583000Y-6286500D02*
X92211511Y-5915011D01*
%TO.N,Net-(J1-Pad7)*%
X91408250Y-8001000D02*
X92138500Y-8001000D01*
X92138500Y-8001000D02*
X92583000Y-7556500D01*
X90627230Y-7219980D02*
X91408250Y-8001000D01*
X88657954Y-7219980D02*
X90627230Y-7219980D01*
X87322011Y-8555923D02*
X88657954Y-7219980D01*
X85732071Y-13969997D02*
X87322011Y-12380057D01*
X35031128Y-13969997D02*
X85732071Y-13969997D01*
X33453142Y-12392011D02*
X35031128Y-13969997D01*
X21293714Y-12392011D02*
X33453142Y-12392011D01*
X17780000Y-15905725D02*
X21293714Y-12392011D01*
X17780000Y-17145000D02*
X17780000Y-15905725D01*
X87322011Y-12380057D02*
X87322011Y-8555923D01*
%TO.N,Net-(J1-Pad6)*%
X20320000Y-15905725D02*
X20320000Y-17145000D01*
X23379703Y-12846022D02*
X20320000Y-15905725D01*
X87776022Y-8743980D02*
X87776022Y-12610408D01*
X88846011Y-7673991D02*
X87776022Y-8743980D01*
X90421559Y-7673991D02*
X88846011Y-7673991D01*
X85962422Y-14424008D02*
X34842848Y-14424008D01*
X92583000Y-8826500D02*
X92211511Y-8455011D01*
X87776022Y-12610408D02*
X85962422Y-14424008D01*
X33264862Y-12846022D02*
X23379703Y-12846022D01*
X92211511Y-8455011D02*
X91202579Y-8455011D01*
X34842848Y-14424008D02*
X33264862Y-12846022D01*
X91202579Y-8455011D02*
X90421559Y-7673991D01*
%TO.N,Net-(J1-Pad5)*%
X91202578Y-10467989D02*
X92211511Y-10467989D01*
X32914206Y-13779502D02*
X34466734Y-15332030D01*
X24986225Y-13779500D02*
X29695774Y-13779500D01*
X86338537Y-15332030D02*
X91202578Y-10467989D01*
X29695774Y-13779500D02*
X32914206Y-13779502D01*
X22860000Y-17145000D02*
X22860000Y-15905725D01*
X92211511Y-10467989D02*
X92583000Y-10096500D01*
X22860000Y-15905725D02*
X24986225Y-13779500D01*
X34466734Y-15332030D02*
X86338537Y-15332030D01*
D20*
%TO.N,Net-(J1-Pad4)*%
X92138500Y-10922000D02*
X92583000Y-11366500D01*
D14*
X86632391Y-15786041D02*
X91496432Y-10922000D01*
X25400000Y-17145000D02*
X25400000Y-15905725D01*
X34278677Y-15786041D02*
X86632391Y-15786041D01*
X25400000Y-15905725D02*
X27072214Y-14233511D01*
X32726148Y-14233512D02*
X34278677Y-15786041D01*
X27072214Y-14233511D02*
X32726148Y-14233512D01*
D20*
X92138500Y-10922000D02*
X91496432Y-10922000D01*
D14*
%TO.N,Net-(J1-Pad2)*%
X87831565Y-17148071D02*
X30483071Y-17148071D01*
X91454136Y-13525500D02*
X87831565Y-17148071D01*
X92583000Y-13906500D02*
X92202000Y-13525500D01*
X92202000Y-13525500D02*
X91454136Y-13525500D01*
X30483071Y-17148071D02*
X30480000Y-17145000D01*
%TD*%
%TO.N,GND*%
X93624800Y-18694800D02*
X355200Y-18694800D01*
X355200Y-17026170D01*
X1333500Y-17026170D01*
X1333500Y-17263830D01*
X1379865Y-17496923D01*
X1470813Y-17716492D01*
X1602850Y-17914099D01*
X1770901Y-18082150D01*
X1968508Y-18214187D01*
X2188077Y-18305135D01*
X2421170Y-18351500D01*
X2658830Y-18351500D01*
X2891923Y-18305135D01*
X3111492Y-18214187D01*
X3308494Y-18082554D01*
X4232248Y-18082554D01*
X4314616Y-18306492D01*
X4555919Y-18433494D01*
X4817361Y-18510978D01*
X5088897Y-18535970D01*
X5360091Y-18507507D01*
X5620520Y-18426684D01*
X5845384Y-18306492D01*
X5927752Y-18082554D01*
X5080000Y-17234803D01*
X4232248Y-18082554D01*
X3308494Y-18082554D01*
X3309099Y-18082150D01*
X3477150Y-17914099D01*
X3609187Y-17716492D01*
X3700135Y-17496923D01*
X3716433Y-17414989D01*
X3717493Y-17425091D01*
X3798316Y-17685520D01*
X3918508Y-17910384D01*
X4142446Y-17992752D01*
X4990197Y-17145000D01*
X5169803Y-17145000D01*
X6017554Y-17992752D01*
X6241492Y-17910384D01*
X6368494Y-17669081D01*
X6443661Y-17415458D01*
X6459865Y-17496923D01*
X6550813Y-17716492D01*
X6682850Y-17914099D01*
X6850901Y-18082150D01*
X7048508Y-18214187D01*
X7268077Y-18305135D01*
X7501170Y-18351500D01*
X7738830Y-18351500D01*
X7971923Y-18305135D01*
X8191492Y-18214187D01*
X8389099Y-18082150D01*
X8557150Y-17914099D01*
X8689187Y-17716492D01*
X8780135Y-17496923D01*
X8826500Y-17263830D01*
X8826500Y-17026170D01*
X8953500Y-17026170D01*
X8953500Y-17263830D01*
X8999865Y-17496923D01*
X9090813Y-17716492D01*
X9222850Y-17914099D01*
X9390901Y-18082150D01*
X9588508Y-18214187D01*
X9808077Y-18305135D01*
X10041170Y-18351500D01*
X10278830Y-18351500D01*
X10511923Y-18305135D01*
X10731492Y-18214187D01*
X10929099Y-18082150D01*
X11097150Y-17914099D01*
X11229187Y-17716492D01*
X11320135Y-17496923D01*
X11366500Y-17263830D01*
X11366500Y-17026170D01*
X11493500Y-17026170D01*
X11493500Y-17263830D01*
X11539865Y-17496923D01*
X11630813Y-17716492D01*
X11762850Y-17914099D01*
X11930901Y-18082150D01*
X12128508Y-18214187D01*
X12348077Y-18305135D01*
X12581170Y-18351500D01*
X12818830Y-18351500D01*
X13051923Y-18305135D01*
X13271492Y-18214187D01*
X13469099Y-18082150D01*
X13637150Y-17914099D01*
X13769187Y-17716492D01*
X13860135Y-17496923D01*
X13906500Y-17263830D01*
X13906500Y-17026170D01*
X13860135Y-16793077D01*
X13769187Y-16573508D01*
X13637150Y-16375901D01*
X13469099Y-16207850D01*
X13271492Y-16075813D01*
X13204315Y-16047987D01*
X13647104Y-15605199D01*
X14895182Y-15605199D01*
X14858013Y-15650490D01*
X14815559Y-15729917D01*
X14789415Y-15816099D01*
X14782800Y-15883266D01*
X14782800Y-15883275D01*
X14780589Y-15905725D01*
X14782800Y-15928175D01*
X14782800Y-16028472D01*
X14668508Y-16075813D01*
X14470901Y-16207850D01*
X14302850Y-16375901D01*
X14170813Y-16573508D01*
X14079865Y-16793077D01*
X14033500Y-17026170D01*
X14033500Y-17263830D01*
X14079865Y-17496923D01*
X14170813Y-17716492D01*
X14302850Y-17914099D01*
X14470901Y-18082150D01*
X14668508Y-18214187D01*
X14888077Y-18305135D01*
X15121170Y-18351500D01*
X15358830Y-18351500D01*
X15591923Y-18305135D01*
X15811492Y-18214187D01*
X16009099Y-18082150D01*
X16177150Y-17914099D01*
X16309187Y-17716492D01*
X16400135Y-17496923D01*
X16446500Y-17263830D01*
X16446500Y-17026170D01*
X16400135Y-16793077D01*
X16309187Y-16573508D01*
X16177150Y-16375901D01*
X16009099Y-16207850D01*
X15811492Y-16075813D01*
X15744315Y-16047987D01*
X20173397Y-11618906D01*
X20190842Y-11604589D01*
X20242586Y-11541540D01*
X20247976Y-11534973D01*
X20290429Y-11455546D01*
X20290430Y-11455545D01*
X20316574Y-11369363D01*
X20323189Y-11302196D01*
X20323189Y-11302187D01*
X20325400Y-11279737D01*
X20323189Y-11257287D01*
X20323189Y-9406298D01*
X21019800Y-9406298D01*
X21019800Y-9643702D01*
X21066116Y-9876544D01*
X21156966Y-10095876D01*
X21288860Y-10293270D01*
X21456730Y-10461140D01*
X21654124Y-10593034D01*
X21873456Y-10683884D01*
X22106298Y-10730200D01*
X22343702Y-10730200D01*
X22576544Y-10683884D01*
X22795876Y-10593034D01*
X22993270Y-10461140D01*
X23161140Y-10293270D01*
X23293034Y-10095876D01*
X23383884Y-9876544D01*
X23430200Y-9643702D01*
X23430200Y-9406298D01*
X23408280Y-9296096D01*
X24980900Y-9296096D01*
X24980900Y-9753904D01*
X25070214Y-10202915D01*
X25245410Y-10625874D01*
X25499754Y-11006527D01*
X25823473Y-11330246D01*
X26204126Y-11584590D01*
X26627085Y-11759786D01*
X27076096Y-11849100D01*
X27533904Y-11849100D01*
X27982915Y-11759786D01*
X28405874Y-11584590D01*
X28786527Y-11330246D01*
X29110246Y-11006527D01*
X29364590Y-10625874D01*
X29539786Y-10202915D01*
X29629100Y-9753904D01*
X29629100Y-9406298D01*
X31179800Y-9406298D01*
X31179800Y-9643702D01*
X31226116Y-9876544D01*
X31316966Y-10095876D01*
X31448860Y-10293270D01*
X31616730Y-10461140D01*
X31814124Y-10593034D01*
X32033456Y-10683884D01*
X32266298Y-10730200D01*
X32503702Y-10730200D01*
X32736544Y-10683884D01*
X32955876Y-10593034D01*
X33153270Y-10461140D01*
X33321140Y-10293270D01*
X33453034Y-10095876D01*
X33543884Y-9876544D01*
X33590200Y-9643702D01*
X33590200Y-9406298D01*
X33543884Y-9173456D01*
X33453034Y-8954124D01*
X33321140Y-8756730D01*
X33153270Y-8588860D01*
X32955876Y-8456966D01*
X32736544Y-8366116D01*
X32503702Y-8319800D01*
X32266298Y-8319800D01*
X32033456Y-8366116D01*
X31814124Y-8456966D01*
X31616730Y-8588860D01*
X31448860Y-8756730D01*
X31316966Y-8954124D01*
X31226116Y-9173456D01*
X31179800Y-9406298D01*
X29629100Y-9406298D01*
X29629100Y-9296096D01*
X29539786Y-8847085D01*
X29364590Y-8424126D01*
X29110246Y-8043473D01*
X28786527Y-7719754D01*
X28405874Y-7465410D01*
X27982915Y-7290214D01*
X27533904Y-7200900D01*
X27076096Y-7200900D01*
X26627085Y-7290214D01*
X26204126Y-7465410D01*
X25823473Y-7719754D01*
X25499754Y-8043473D01*
X25245410Y-8424126D01*
X25070214Y-8847085D01*
X24980900Y-9296096D01*
X23408280Y-9296096D01*
X23383884Y-9173456D01*
X23293034Y-8954124D01*
X23161140Y-8756730D01*
X22993270Y-8588860D01*
X22795876Y-8456966D01*
X22576544Y-8366116D01*
X22343702Y-8319800D01*
X22106298Y-8319800D01*
X21873456Y-8366116D01*
X21654124Y-8456966D01*
X21456730Y-8588860D01*
X21288860Y-8756730D01*
X21156966Y-8954124D01*
X21066116Y-9173456D01*
X21019800Y-9406298D01*
X20323189Y-9406298D01*
X20323189Y-7635456D01*
X21116970Y-6841675D01*
X22039800Y-6841675D01*
X22039800Y-7128325D01*
X22095723Y-7409466D01*
X22205419Y-7674296D01*
X22364672Y-7912636D01*
X22567364Y-8115328D01*
X22805704Y-8274581D01*
X23070534Y-8384277D01*
X23351675Y-8440200D01*
X23638325Y-8440200D01*
X23919466Y-8384277D01*
X24184296Y-8274581D01*
X24422636Y-8115328D01*
X24625328Y-7912636D01*
X24784581Y-7674296D01*
X24894277Y-7409466D01*
X24950200Y-7128325D01*
X24950200Y-6841675D01*
X24894277Y-6560534D01*
X24784581Y-6295704D01*
X24625328Y-6057364D01*
X24422636Y-5854672D01*
X24184296Y-5695419D01*
X23919466Y-5585723D01*
X23638325Y-5529800D01*
X23351675Y-5529800D01*
X23070534Y-5585723D01*
X22805704Y-5695419D01*
X22567364Y-5854672D01*
X22364672Y-6057364D01*
X22205419Y-6295704D01*
X22095723Y-6560534D01*
X22039800Y-6841675D01*
X21116970Y-6841675D01*
X22675446Y-5283200D01*
X26493625Y-5283200D01*
X28810825Y-7600401D01*
X28825137Y-7617840D01*
X28842576Y-7632152D01*
X28842582Y-7632158D01*
X28894754Y-7674975D01*
X28974180Y-7717428D01*
X29060363Y-7743572D01*
X29149990Y-7752399D01*
X29172450Y-7750187D01*
X32567112Y-7750189D01*
X38160851Y-13343929D01*
X38175168Y-13361374D01*
X38192613Y-13375691D01*
X38217776Y-13396342D01*
X38244785Y-13418508D01*
X38324212Y-13460962D01*
X38410394Y-13487106D01*
X38477561Y-13493721D01*
X38477571Y-13493721D01*
X38500021Y-13495932D01*
X38522471Y-13493721D01*
X70648165Y-13493721D01*
X70670615Y-13495932D01*
X70693065Y-13493721D01*
X70693075Y-13493721D01*
X70760242Y-13487106D01*
X70846424Y-13460962D01*
X70925851Y-13418508D01*
X70995468Y-13361374D01*
X71009789Y-13343924D01*
X74947415Y-9406298D01*
X78169800Y-9406298D01*
X78169800Y-9643702D01*
X78216116Y-9876544D01*
X78306966Y-10095876D01*
X78438860Y-10293270D01*
X78606730Y-10461140D01*
X78804124Y-10593034D01*
X79023456Y-10683884D01*
X79256298Y-10730200D01*
X79493702Y-10730200D01*
X79726544Y-10683884D01*
X79945876Y-10593034D01*
X80143270Y-10461140D01*
X80311140Y-10293270D01*
X80443034Y-10095876D01*
X80533884Y-9876544D01*
X80580200Y-9643702D01*
X80580200Y-9406298D01*
X80558280Y-9296096D01*
X82130900Y-9296096D01*
X82130900Y-9753904D01*
X82220214Y-10202915D01*
X82395410Y-10625874D01*
X82649754Y-11006527D01*
X82973473Y-11330246D01*
X83354126Y-11584590D01*
X83777085Y-11759786D01*
X84226096Y-11849100D01*
X84683904Y-11849100D01*
X85132915Y-11759786D01*
X85555874Y-11584590D01*
X85936527Y-11330246D01*
X86260246Y-11006527D01*
X86514590Y-10625874D01*
X86689786Y-10202915D01*
X86779100Y-9753904D01*
X86779100Y-9296096D01*
X86689786Y-8847085D01*
X86514590Y-8424126D01*
X86260246Y-8043473D01*
X85936527Y-7719754D01*
X85555874Y-7465410D01*
X85132915Y-7290214D01*
X84683904Y-7200900D01*
X84226096Y-7200900D01*
X83777085Y-7290214D01*
X83354126Y-7465410D01*
X82973473Y-7719754D01*
X82649754Y-8043473D01*
X82395410Y-8424126D01*
X82220214Y-8847085D01*
X82130900Y-9296096D01*
X80558280Y-9296096D01*
X80533884Y-9173456D01*
X80443034Y-8954124D01*
X80311140Y-8756730D01*
X80143270Y-8588860D01*
X79945876Y-8456966D01*
X79726544Y-8366116D01*
X79493702Y-8319800D01*
X79256298Y-8319800D01*
X79023456Y-8366116D01*
X78804124Y-8456966D01*
X78606730Y-8588860D01*
X78438860Y-8756730D01*
X78306966Y-8954124D01*
X78216116Y-9173456D01*
X78169800Y-9406298D01*
X74947415Y-9406298D01*
X77512038Y-6841675D01*
X79189800Y-6841675D01*
X79189800Y-7128325D01*
X79245723Y-7409466D01*
X79355419Y-7674296D01*
X79514672Y-7912636D01*
X79717364Y-8115328D01*
X79955704Y-8274581D01*
X80220534Y-8384277D01*
X80501675Y-8440200D01*
X80788325Y-8440200D01*
X81069466Y-8384277D01*
X81334296Y-8274581D01*
X81572636Y-8115328D01*
X81775328Y-7912636D01*
X81934581Y-7674296D01*
X82044277Y-7409466D01*
X82100200Y-7128325D01*
X82100200Y-6841675D01*
X82044277Y-6560534D01*
X81934581Y-6295704D01*
X81775328Y-6057364D01*
X81572636Y-5854672D01*
X81334296Y-5695419D01*
X81069466Y-5585723D01*
X80788325Y-5529800D01*
X80501675Y-5529800D01*
X80220534Y-5585723D01*
X79955704Y-5695419D01*
X79717364Y-5854672D01*
X79514672Y-6057364D01*
X79355419Y-6295704D01*
X79245723Y-6560534D01*
X79189800Y-6841675D01*
X77512038Y-6841675D01*
X80052038Y-4301675D01*
X85539800Y-4301675D01*
X85539800Y-4588325D01*
X85595723Y-4869466D01*
X85705419Y-5134296D01*
X85864672Y-5372636D01*
X86067364Y-5575328D01*
X86305704Y-5734581D01*
X86570534Y-5844277D01*
X86851675Y-5900200D01*
X87138325Y-5900200D01*
X87419466Y-5844277D01*
X87684296Y-5734581D01*
X87922636Y-5575328D01*
X88125328Y-5372636D01*
X88284581Y-5134296D01*
X88394277Y-4869466D01*
X88450200Y-4588325D01*
X88450200Y-4301675D01*
X88394277Y-4020534D01*
X88284581Y-3755704D01*
X88125328Y-3517364D01*
X87922636Y-3314672D01*
X87684296Y-3155419D01*
X87419466Y-3045723D01*
X87138325Y-2989800D01*
X86851675Y-2989800D01*
X86570534Y-3045723D01*
X86305704Y-3155419D01*
X86067364Y-3314672D01*
X85864672Y-3517364D01*
X85705419Y-3755704D01*
X85595723Y-4020534D01*
X85539800Y-4301675D01*
X80052038Y-4301675D01*
X81420014Y-2933700D01*
X87631123Y-2933700D01*
X90919840Y-6222418D01*
X90934158Y-6239864D01*
X91003775Y-6296998D01*
X91083202Y-6339452D01*
X91169384Y-6365596D01*
X91236551Y-6372211D01*
X91236561Y-6372211D01*
X91259011Y-6374422D01*
X91281461Y-6372211D01*
X91753584Y-6372211D01*
X91784704Y-6528660D01*
X91847286Y-6679747D01*
X91938142Y-6815722D01*
X92043920Y-6921500D01*
X91938142Y-7027278D01*
X91847286Y-7163253D01*
X91784704Y-7314340D01*
X91752800Y-7474732D01*
X91752800Y-7543800D01*
X91597628Y-7543800D01*
X90966404Y-6912577D01*
X90952083Y-6895127D01*
X90882466Y-6837993D01*
X90803039Y-6795539D01*
X90716857Y-6769395D01*
X90649690Y-6762780D01*
X90649680Y-6762780D01*
X90627230Y-6760569D01*
X90604780Y-6762780D01*
X88680404Y-6762780D01*
X88657954Y-6760569D01*
X88635504Y-6762780D01*
X88635494Y-6762780D01*
X88568327Y-6769395D01*
X88502203Y-6789454D01*
X88482144Y-6795539D01*
X88402718Y-6837993D01*
X88350546Y-6880809D01*
X88350540Y-6880815D01*
X88333101Y-6895127D01*
X88318789Y-6912566D01*
X87014603Y-8216754D01*
X86997159Y-8231070D01*
X86982842Y-8248515D01*
X86982841Y-8248516D01*
X86940024Y-8300688D01*
X86907257Y-8361993D01*
X86897571Y-8380114D01*
X86873213Y-8460411D01*
X86871427Y-8466297D01*
X86862600Y-8555923D01*
X86864812Y-8578383D01*
X86864811Y-12190678D01*
X85542694Y-13512797D01*
X35220506Y-13512797D01*
X33792316Y-12084608D01*
X33777995Y-12067158D01*
X33708378Y-12010024D01*
X33628951Y-11967570D01*
X33542769Y-11941426D01*
X33475602Y-11934811D01*
X33475592Y-11934811D01*
X33453142Y-11932600D01*
X33430692Y-11934811D01*
X21316164Y-11934811D01*
X21293714Y-11932600D01*
X21271264Y-11934811D01*
X21271254Y-11934811D01*
X21204087Y-11941426D01*
X21117905Y-11967570D01*
X21038478Y-12010024D01*
X20968861Y-12067158D01*
X20954544Y-12084603D01*
X17472593Y-15566555D01*
X17455148Y-15580872D01*
X17440831Y-15598317D01*
X17440830Y-15598318D01*
X17398014Y-15650489D01*
X17355560Y-15729916D01*
X17331482Y-15809290D01*
X17329416Y-15816099D01*
X17320589Y-15905725D01*
X17322801Y-15928184D01*
X17322801Y-16028472D01*
X17208508Y-16075813D01*
X17010901Y-16207850D01*
X16842850Y-16375901D01*
X16710813Y-16573508D01*
X16619865Y-16793077D01*
X16573500Y-17026170D01*
X16573500Y-17263830D01*
X16619865Y-17496923D01*
X16710813Y-17716492D01*
X16842850Y-17914099D01*
X17010901Y-18082150D01*
X17208508Y-18214187D01*
X17428077Y-18305135D01*
X17661170Y-18351500D01*
X17898830Y-18351500D01*
X18131923Y-18305135D01*
X18351492Y-18214187D01*
X18549099Y-18082150D01*
X18717150Y-17914099D01*
X18849187Y-17716492D01*
X18940135Y-17496923D01*
X18986500Y-17263830D01*
X18986500Y-17026170D01*
X18940135Y-16793077D01*
X18849187Y-16573508D01*
X18717150Y-16375901D01*
X18549099Y-16207850D01*
X18351492Y-16075813D01*
X18284315Y-16047987D01*
X21483092Y-12849211D01*
X22729936Y-12849211D01*
X20012597Y-15566551D01*
X19995147Y-15580872D01*
X19938013Y-15650490D01*
X19895559Y-15729917D01*
X19869415Y-15816099D01*
X19862800Y-15883266D01*
X19862800Y-15883275D01*
X19860589Y-15905725D01*
X19862800Y-15928175D01*
X19862800Y-16028472D01*
X19748508Y-16075813D01*
X19550901Y-16207850D01*
X19382850Y-16375901D01*
X19250813Y-16573508D01*
X19159865Y-16793077D01*
X19113500Y-17026170D01*
X19113500Y-17263830D01*
X19159865Y-17496923D01*
X19250813Y-17716492D01*
X19382850Y-17914099D01*
X19550901Y-18082150D01*
X19748508Y-18214187D01*
X19968077Y-18305135D01*
X20201170Y-18351500D01*
X20438830Y-18351500D01*
X20671923Y-18305135D01*
X20891492Y-18214187D01*
X21089099Y-18082150D01*
X21257150Y-17914099D01*
X21389187Y-17716492D01*
X21480135Y-17496923D01*
X21526500Y-17263830D01*
X21526500Y-17026170D01*
X21480135Y-16793077D01*
X21389187Y-16573508D01*
X21257150Y-16375901D01*
X21089099Y-16207850D01*
X20891492Y-16075813D01*
X20824315Y-16047987D01*
X23569081Y-13303222D01*
X33075485Y-13303222D01*
X33171320Y-13399057D01*
X33169441Y-13397515D01*
X33090015Y-13355062D01*
X33072310Y-13349691D01*
X33003833Y-13328918D01*
X32936666Y-13322303D01*
X32914206Y-13320091D01*
X32891747Y-13322303D01*
X29718234Y-13322300D01*
X25008674Y-13322300D01*
X24986224Y-13320089D01*
X24963774Y-13322300D01*
X24963765Y-13322300D01*
X24896598Y-13328915D01*
X24810416Y-13355059D01*
X24778321Y-13372214D01*
X24730988Y-13397513D01*
X24678817Y-13440330D01*
X24661372Y-13454647D01*
X24647055Y-13472092D01*
X22552593Y-15566555D01*
X22535148Y-15580872D01*
X22520831Y-15598317D01*
X22520830Y-15598318D01*
X22478014Y-15650489D01*
X22435560Y-15729916D01*
X22411482Y-15809290D01*
X22409416Y-15816099D01*
X22400589Y-15905725D01*
X22402801Y-15928184D01*
X22402801Y-16028472D01*
X22288508Y-16075813D01*
X22090901Y-16207850D01*
X21922850Y-16375901D01*
X21790813Y-16573508D01*
X21699865Y-16793077D01*
X21653500Y-17026170D01*
X21653500Y-17263830D01*
X21699865Y-17496923D01*
X21790813Y-17716492D01*
X21922850Y-17914099D01*
X22090901Y-18082150D01*
X22288508Y-18214187D01*
X22508077Y-18305135D01*
X22741170Y-18351500D01*
X22978830Y-18351500D01*
X23211923Y-18305135D01*
X23431492Y-18214187D01*
X23629099Y-18082150D01*
X23797150Y-17914099D01*
X23929187Y-17716492D01*
X24020135Y-17496923D01*
X24066500Y-17263830D01*
X24066500Y-17026170D01*
X24020135Y-16793077D01*
X23929187Y-16573508D01*
X23797150Y-16375901D01*
X23629099Y-16207850D01*
X23431492Y-16075813D01*
X23364315Y-16047987D01*
X25175603Y-14236700D01*
X26422446Y-14236700D01*
X25092592Y-15566555D01*
X25075148Y-15580872D01*
X25060831Y-15598317D01*
X25060830Y-15598318D01*
X25018014Y-15650489D01*
X24975560Y-15729916D01*
X24951482Y-15809290D01*
X24949416Y-15816099D01*
X24940589Y-15905725D01*
X24942801Y-15928184D01*
X24942801Y-16028472D01*
X24828508Y-16075813D01*
X24630901Y-16207850D01*
X24462850Y-16375901D01*
X24330813Y-16573508D01*
X24239865Y-16793077D01*
X24193500Y-17026170D01*
X24193500Y-17263830D01*
X24239865Y-17496923D01*
X24330813Y-17716492D01*
X24462850Y-17914099D01*
X24630901Y-18082150D01*
X24828508Y-18214187D01*
X25048077Y-18305135D01*
X25281170Y-18351500D01*
X25518830Y-18351500D01*
X25751923Y-18305135D01*
X25971492Y-18214187D01*
X26169099Y-18082150D01*
X26337150Y-17914099D01*
X26469187Y-17716492D01*
X26560135Y-17496923D01*
X26606500Y-17263830D01*
X26606500Y-17026170D01*
X26560135Y-16793077D01*
X26469187Y-16573508D01*
X26337150Y-16375901D01*
X26169099Y-16207850D01*
X25971492Y-16075813D01*
X25904315Y-16047987D01*
X27261594Y-14690710D01*
X29856247Y-14690711D01*
X29853840Y-14690948D01*
X29767658Y-14717092D01*
X29730973Y-14736700D01*
X29688230Y-14759546D01*
X29636059Y-14802363D01*
X29618614Y-14816680D01*
X29604297Y-14834125D01*
X28508896Y-15929527D01*
X28508891Y-15929531D01*
X28406216Y-16032206D01*
X28291923Y-15984865D01*
X28058830Y-15938500D01*
X27821170Y-15938500D01*
X27588077Y-15984865D01*
X27368508Y-16075813D01*
X27170901Y-16207850D01*
X27002850Y-16375901D01*
X26870813Y-16573508D01*
X26779865Y-16793077D01*
X26733500Y-17026170D01*
X26733500Y-17263830D01*
X26779865Y-17496923D01*
X26870813Y-17716492D01*
X27002850Y-17914099D01*
X27170901Y-18082150D01*
X27368508Y-18214187D01*
X27588077Y-18305135D01*
X27821170Y-18351500D01*
X28058830Y-18351500D01*
X28291923Y-18305135D01*
X28511492Y-18214187D01*
X28709099Y-18082150D01*
X28877150Y-17914099D01*
X29009187Y-17716492D01*
X29100135Y-17496923D01*
X29146500Y-17263830D01*
X29146500Y-17026170D01*
X29100135Y-16793077D01*
X29052794Y-16678784D01*
X29155469Y-16576109D01*
X29155473Y-16576104D01*
X30132845Y-15598733D01*
X32019943Y-15598733D01*
X33112079Y-16690871D01*
X31597800Y-16690871D01*
X31549187Y-16573508D01*
X31417150Y-16375901D01*
X31249099Y-16207850D01*
X31051492Y-16075813D01*
X30831923Y-15984865D01*
X30598830Y-15938500D01*
X30361170Y-15938500D01*
X30128077Y-15984865D01*
X29908508Y-16075813D01*
X29710901Y-16207850D01*
X29542850Y-16375901D01*
X29410813Y-16573508D01*
X29319865Y-16793077D01*
X29273500Y-17026170D01*
X29273500Y-17263830D01*
X29319865Y-17496923D01*
X29410813Y-17716492D01*
X29542850Y-17914099D01*
X29710901Y-18082150D01*
X29908508Y-18214187D01*
X30128077Y-18305135D01*
X30361170Y-18351500D01*
X30598830Y-18351500D01*
X30831923Y-18305135D01*
X31051492Y-18214187D01*
X31249099Y-18082150D01*
X31417150Y-17914099D01*
X31549187Y-17716492D01*
X31595256Y-17605271D01*
X87809115Y-17605271D01*
X87831565Y-17607482D01*
X87854015Y-17605271D01*
X87854025Y-17605271D01*
X87921192Y-17598656D01*
X88007374Y-17572512D01*
X88086801Y-17530058D01*
X88156418Y-17472924D01*
X88170739Y-17455474D01*
X89949713Y-15676500D01*
X91572542Y-15676500D01*
X91582350Y-15776085D01*
X91611398Y-15871844D01*
X91658570Y-15960095D01*
X91722052Y-16037448D01*
X91799405Y-16100930D01*
X91887656Y-16148102D01*
X91983415Y-16177150D01*
X92083000Y-16186958D01*
X92392500Y-16184500D01*
X92519500Y-16057500D01*
X92519500Y-15240000D01*
X92646500Y-15240000D01*
X92646500Y-16057500D01*
X92773500Y-16184500D01*
X93083000Y-16186958D01*
X93182585Y-16177150D01*
X93278344Y-16148102D01*
X93366595Y-16100930D01*
X93443948Y-16037448D01*
X93507430Y-15960095D01*
X93554602Y-15871844D01*
X93583650Y-15776085D01*
X93593458Y-15676500D01*
X93591000Y-15367000D01*
X93464000Y-15240000D01*
X92646500Y-15240000D01*
X92519500Y-15240000D01*
X91702000Y-15240000D01*
X91575000Y-15367000D01*
X91572542Y-15676500D01*
X89949713Y-15676500D01*
X91643514Y-13982700D01*
X91752800Y-13982700D01*
X91752800Y-13988268D01*
X91784704Y-14148660D01*
X91822438Y-14239758D01*
X91799405Y-14252070D01*
X91722052Y-14315552D01*
X91658570Y-14392905D01*
X91611398Y-14481156D01*
X91582350Y-14576915D01*
X91572542Y-14676500D01*
X91575000Y-14986000D01*
X91702000Y-15113000D01*
X92519500Y-15113000D01*
X92519500Y-15093000D01*
X92646500Y-15093000D01*
X92646500Y-15113000D01*
X93464000Y-15113000D01*
X93591000Y-14986000D01*
X93593458Y-14676500D01*
X93583650Y-14576915D01*
X93554602Y-14481156D01*
X93507430Y-14392905D01*
X93443948Y-14315552D01*
X93366595Y-14252070D01*
X93343562Y-14239758D01*
X93381296Y-14148660D01*
X93413200Y-13988268D01*
X93413200Y-13824732D01*
X93381296Y-13664340D01*
X93318714Y-13513253D01*
X93227858Y-13377278D01*
X93122080Y-13271500D01*
X93227858Y-13165722D01*
X93318714Y-13029747D01*
X93381296Y-12878660D01*
X93413200Y-12718268D01*
X93413200Y-12554732D01*
X93381296Y-12394340D01*
X93318714Y-12243253D01*
X93227858Y-12107278D01*
X93122080Y-12001500D01*
X93227858Y-11895722D01*
X93318714Y-11759747D01*
X93381296Y-11608660D01*
X93413200Y-11448268D01*
X93413200Y-11284732D01*
X93381296Y-11124340D01*
X93318714Y-10973253D01*
X93227858Y-10837278D01*
X93122080Y-10731500D01*
X93227858Y-10625722D01*
X93318714Y-10489747D01*
X93381296Y-10338660D01*
X93413200Y-10178268D01*
X93413200Y-10014732D01*
X93381296Y-9854340D01*
X93318714Y-9703253D01*
X93227858Y-9567278D01*
X93122080Y-9461500D01*
X93227858Y-9355722D01*
X93318714Y-9219747D01*
X93381296Y-9068660D01*
X93413200Y-8908268D01*
X93413200Y-8744732D01*
X93381296Y-8584340D01*
X93318714Y-8433253D01*
X93227858Y-8297278D01*
X93122080Y-8191500D01*
X93227858Y-8085722D01*
X93318714Y-7949747D01*
X93381296Y-7798660D01*
X93413200Y-7638268D01*
X93413200Y-7474732D01*
X93381296Y-7314340D01*
X93318714Y-7163253D01*
X93227858Y-7027278D01*
X93122080Y-6921500D01*
X93227858Y-6815722D01*
X93318714Y-6679747D01*
X93381296Y-6528660D01*
X93413200Y-6368268D01*
X93413200Y-6204732D01*
X93381296Y-6044340D01*
X93318714Y-5893253D01*
X93227858Y-5757278D01*
X93122080Y-5651500D01*
X93227858Y-5545722D01*
X93318714Y-5409747D01*
X93381296Y-5258660D01*
X93413200Y-5098268D01*
X93413200Y-4934732D01*
X93381296Y-4774340D01*
X93318714Y-4623253D01*
X93239626Y-4504890D01*
X93312503Y-4442125D01*
X93434196Y-4286440D01*
X93523178Y-4110005D01*
X93566679Y-3966591D01*
X93461709Y-3810000D01*
X92646500Y-3810000D01*
X92646500Y-3830000D01*
X92519500Y-3830000D01*
X92519500Y-3810000D01*
X91704291Y-3810000D01*
X91599321Y-3966591D01*
X91642822Y-4110005D01*
X91731804Y-4286440D01*
X91853497Y-4442125D01*
X91926374Y-4504890D01*
X91847286Y-4623253D01*
X91784704Y-4774340D01*
X91752800Y-4934732D01*
X91752800Y-5003800D01*
X91685810Y-5003800D01*
X90208419Y-3526409D01*
X91599321Y-3526409D01*
X91704291Y-3683000D01*
X92519500Y-3683000D01*
X92519500Y-2867499D01*
X92646500Y-2867499D01*
X92646500Y-3683000D01*
X93461709Y-3683000D01*
X93566679Y-3526409D01*
X93523178Y-3382995D01*
X93434196Y-3206560D01*
X93312503Y-3050875D01*
X93162776Y-2921922D01*
X92990769Y-2824657D01*
X92803091Y-2762818D01*
X92646500Y-2867499D01*
X92519500Y-2867499D01*
X92362909Y-2762818D01*
X92175231Y-2824657D01*
X92003224Y-2921922D01*
X91853497Y-3050875D01*
X91731804Y-3206560D01*
X91642822Y-3382995D01*
X91599321Y-3526409D01*
X90208419Y-3526409D01*
X88397090Y-1715081D01*
X88382773Y-1697636D01*
X88313156Y-1640502D01*
X88233729Y-1598048D01*
X88147547Y-1571904D01*
X88080380Y-1565289D01*
X88080371Y-1565289D01*
X88057921Y-1563078D01*
X88035471Y-1565289D01*
X81065040Y-1565291D01*
X81042578Y-1563079D01*
X80952951Y-1571905D01*
X80866768Y-1598049D01*
X80787342Y-1640503D01*
X80735170Y-1683319D01*
X80735159Y-1683330D01*
X80717725Y-1697638D01*
X80703417Y-1715072D01*
X70293181Y-12125310D01*
X38997388Y-12125310D01*
X36278376Y-9406298D01*
X40069800Y-9406298D01*
X40069800Y-9643702D01*
X40116116Y-9876544D01*
X40206966Y-10095876D01*
X40338860Y-10293270D01*
X40506730Y-10461140D01*
X40704124Y-10593034D01*
X40923456Y-10683884D01*
X41156298Y-10730200D01*
X41393702Y-10730200D01*
X41626544Y-10683884D01*
X41845876Y-10593034D01*
X42043270Y-10461140D01*
X42211140Y-10293270D01*
X42343034Y-10095876D01*
X42433884Y-9876544D01*
X42480200Y-9643702D01*
X42480200Y-9406298D01*
X42458280Y-9296096D01*
X44030900Y-9296096D01*
X44030900Y-9753904D01*
X44120214Y-10202915D01*
X44295410Y-10625874D01*
X44549754Y-11006527D01*
X44873473Y-11330246D01*
X45254126Y-11584590D01*
X45677085Y-11759786D01*
X46126096Y-11849100D01*
X46583904Y-11849100D01*
X47032915Y-11759786D01*
X47455874Y-11584590D01*
X47836527Y-11330246D01*
X48160246Y-11006527D01*
X48414590Y-10625874D01*
X48589786Y-10202915D01*
X48679100Y-9753904D01*
X48679100Y-9406298D01*
X50229800Y-9406298D01*
X50229800Y-9643702D01*
X50276116Y-9876544D01*
X50366966Y-10095876D01*
X50498860Y-10293270D01*
X50666730Y-10461140D01*
X50864124Y-10593034D01*
X51083456Y-10683884D01*
X51316298Y-10730200D01*
X51553702Y-10730200D01*
X51786544Y-10683884D01*
X52005876Y-10593034D01*
X52203270Y-10461140D01*
X52371140Y-10293270D01*
X52503034Y-10095876D01*
X52593884Y-9876544D01*
X52640200Y-9643702D01*
X52640200Y-9406298D01*
X59119800Y-9406298D01*
X59119800Y-9643702D01*
X59166116Y-9876544D01*
X59256966Y-10095876D01*
X59388860Y-10293270D01*
X59556730Y-10461140D01*
X59754124Y-10593034D01*
X59973456Y-10683884D01*
X60206298Y-10730200D01*
X60443702Y-10730200D01*
X60676544Y-10683884D01*
X60895876Y-10593034D01*
X61093270Y-10461140D01*
X61261140Y-10293270D01*
X61393034Y-10095876D01*
X61483884Y-9876544D01*
X61530200Y-9643702D01*
X61530200Y-9406298D01*
X61508280Y-9296096D01*
X63080900Y-9296096D01*
X63080900Y-9753904D01*
X63170214Y-10202915D01*
X63345410Y-10625874D01*
X63599754Y-11006527D01*
X63923473Y-11330246D01*
X64304126Y-11584590D01*
X64727085Y-11759786D01*
X65176096Y-11849100D01*
X65633904Y-11849100D01*
X66082915Y-11759786D01*
X66505874Y-11584590D01*
X66886527Y-11330246D01*
X67210246Y-11006527D01*
X67464590Y-10625874D01*
X67639786Y-10202915D01*
X67729100Y-9753904D01*
X67729100Y-9406298D01*
X69279800Y-9406298D01*
X69279800Y-9643702D01*
X69326116Y-9876544D01*
X69416966Y-10095876D01*
X69548860Y-10293270D01*
X69716730Y-10461140D01*
X69914124Y-10593034D01*
X70133456Y-10683884D01*
X70366298Y-10730200D01*
X70603702Y-10730200D01*
X70836544Y-10683884D01*
X71055876Y-10593034D01*
X71253270Y-10461140D01*
X71421140Y-10293270D01*
X71553034Y-10095876D01*
X71643884Y-9876544D01*
X71690200Y-9643702D01*
X71690200Y-9406298D01*
X71643884Y-9173456D01*
X71553034Y-8954124D01*
X71421140Y-8756730D01*
X71253270Y-8588860D01*
X71055876Y-8456966D01*
X70836544Y-8366116D01*
X70603702Y-8319800D01*
X70366298Y-8319800D01*
X70133456Y-8366116D01*
X69914124Y-8456966D01*
X69716730Y-8588860D01*
X69548860Y-8756730D01*
X69416966Y-8954124D01*
X69326116Y-9173456D01*
X69279800Y-9406298D01*
X67729100Y-9406298D01*
X67729100Y-9296096D01*
X67639786Y-8847085D01*
X67464590Y-8424126D01*
X67210246Y-8043473D01*
X66886527Y-7719754D01*
X66505874Y-7465410D01*
X66082915Y-7290214D01*
X65633904Y-7200900D01*
X65176096Y-7200900D01*
X64727085Y-7290214D01*
X64304126Y-7465410D01*
X63923473Y-7719754D01*
X63599754Y-8043473D01*
X63345410Y-8424126D01*
X63170214Y-8847085D01*
X63080900Y-9296096D01*
X61508280Y-9296096D01*
X61483884Y-9173456D01*
X61393034Y-8954124D01*
X61261140Y-8756730D01*
X61093270Y-8588860D01*
X60895876Y-8456966D01*
X60676544Y-8366116D01*
X60443702Y-8319800D01*
X60206298Y-8319800D01*
X59973456Y-8366116D01*
X59754124Y-8456966D01*
X59556730Y-8588860D01*
X59388860Y-8756730D01*
X59256966Y-8954124D01*
X59166116Y-9173456D01*
X59119800Y-9406298D01*
X52640200Y-9406298D01*
X52593884Y-9173456D01*
X52503034Y-8954124D01*
X52371140Y-8756730D01*
X52203270Y-8588860D01*
X52005876Y-8456966D01*
X51786544Y-8366116D01*
X51553702Y-8319800D01*
X51316298Y-8319800D01*
X51083456Y-8366116D01*
X50864124Y-8456966D01*
X50666730Y-8588860D01*
X50498860Y-8756730D01*
X50366966Y-8954124D01*
X50276116Y-9173456D01*
X50229800Y-9406298D01*
X48679100Y-9406298D01*
X48679100Y-9296096D01*
X48589786Y-8847085D01*
X48414590Y-8424126D01*
X48160246Y-8043473D01*
X47836527Y-7719754D01*
X47455874Y-7465410D01*
X47032915Y-7290214D01*
X46583904Y-7200900D01*
X46126096Y-7200900D01*
X45677085Y-7290214D01*
X45254126Y-7465410D01*
X44873473Y-7719754D01*
X44549754Y-8043473D01*
X44295410Y-8424126D01*
X44120214Y-8847085D01*
X44030900Y-9296096D01*
X42458280Y-9296096D01*
X42433884Y-9173456D01*
X42343034Y-8954124D01*
X42211140Y-8756730D01*
X42043270Y-8588860D01*
X41845876Y-8456966D01*
X41626544Y-8366116D01*
X41393702Y-8319800D01*
X41156298Y-8319800D01*
X40923456Y-8366116D01*
X40704124Y-8456966D01*
X40506730Y-8588860D01*
X40338860Y-8756730D01*
X40206966Y-8954124D01*
X40116116Y-9173456D01*
X40069800Y-9406298D01*
X36278376Y-9406298D01*
X33713753Y-6841675D01*
X41089800Y-6841675D01*
X41089800Y-7128325D01*
X41145723Y-7409466D01*
X41255419Y-7674296D01*
X41414672Y-7912636D01*
X41617364Y-8115328D01*
X41855704Y-8274581D01*
X42120534Y-8384277D01*
X42401675Y-8440200D01*
X42688325Y-8440200D01*
X42969466Y-8384277D01*
X43234296Y-8274581D01*
X43472636Y-8115328D01*
X43675328Y-7912636D01*
X43834581Y-7674296D01*
X43944277Y-7409466D01*
X44000200Y-7128325D01*
X44000200Y-6841675D01*
X60139800Y-6841675D01*
X60139800Y-7128325D01*
X60195723Y-7409466D01*
X60305419Y-7674296D01*
X60464672Y-7912636D01*
X60667364Y-8115328D01*
X60905704Y-8274581D01*
X61170534Y-8384277D01*
X61451675Y-8440200D01*
X61738325Y-8440200D01*
X62019466Y-8384277D01*
X62284296Y-8274581D01*
X62522636Y-8115328D01*
X62725328Y-7912636D01*
X62884581Y-7674296D01*
X62994277Y-7409466D01*
X63050200Y-7128325D01*
X63050200Y-6841675D01*
X62994277Y-6560534D01*
X62884581Y-6295704D01*
X62725328Y-6057364D01*
X62522636Y-5854672D01*
X62284296Y-5695419D01*
X62019466Y-5585723D01*
X61738325Y-5529800D01*
X61451675Y-5529800D01*
X61170534Y-5585723D01*
X60905704Y-5695419D01*
X60667364Y-5854672D01*
X60464672Y-6057364D01*
X60305419Y-6295704D01*
X60195723Y-6560534D01*
X60139800Y-6841675D01*
X44000200Y-6841675D01*
X43944277Y-6560534D01*
X43834581Y-6295704D01*
X43675328Y-6057364D01*
X43472636Y-5854672D01*
X43234296Y-5695419D01*
X42969466Y-5585723D01*
X42688325Y-5529800D01*
X42401675Y-5529800D01*
X42120534Y-5585723D01*
X41855704Y-5695419D01*
X41617364Y-5854672D01*
X41414672Y-6057364D01*
X41255419Y-6295704D01*
X41145723Y-6560534D01*
X41089800Y-6841675D01*
X33713753Y-6841675D01*
X33403652Y-6531575D01*
X33389331Y-6514125D01*
X33319714Y-6456991D01*
X33240287Y-6414537D01*
X33154105Y-6388393D01*
X33086938Y-6381778D01*
X33086928Y-6381778D01*
X33064478Y-6379567D01*
X33042028Y-6381778D01*
X29527426Y-6381778D01*
X27447323Y-4301675D01*
X28389800Y-4301675D01*
X28389800Y-4588325D01*
X28445723Y-4869466D01*
X28555419Y-5134296D01*
X28714672Y-5372636D01*
X28917364Y-5575328D01*
X29155704Y-5734581D01*
X29420534Y-5844277D01*
X29701675Y-5900200D01*
X29988325Y-5900200D01*
X30269466Y-5844277D01*
X30534296Y-5734581D01*
X30772636Y-5575328D01*
X30975328Y-5372636D01*
X31134581Y-5134296D01*
X31244277Y-4869466D01*
X31300200Y-4588325D01*
X31300200Y-4301675D01*
X47439800Y-4301675D01*
X47439800Y-4588325D01*
X47495723Y-4869466D01*
X47605419Y-5134296D01*
X47764672Y-5372636D01*
X47967364Y-5575328D01*
X48205704Y-5734581D01*
X48470534Y-5844277D01*
X48751675Y-5900200D01*
X49038325Y-5900200D01*
X49319466Y-5844277D01*
X49584296Y-5734581D01*
X49822636Y-5575328D01*
X50025328Y-5372636D01*
X50184581Y-5134296D01*
X50294277Y-4869466D01*
X50350200Y-4588325D01*
X50350200Y-4301675D01*
X66489800Y-4301675D01*
X66489800Y-4588325D01*
X66545723Y-4869466D01*
X66655419Y-5134296D01*
X66814672Y-5372636D01*
X67017364Y-5575328D01*
X67255704Y-5734581D01*
X67520534Y-5844277D01*
X67801675Y-5900200D01*
X68088325Y-5900200D01*
X68369466Y-5844277D01*
X68634296Y-5734581D01*
X68872636Y-5575328D01*
X69075328Y-5372636D01*
X69234581Y-5134296D01*
X69344277Y-4869466D01*
X69400200Y-4588325D01*
X69400200Y-4301675D01*
X69344277Y-4020534D01*
X69234581Y-3755704D01*
X69075328Y-3517364D01*
X68872636Y-3314672D01*
X68634296Y-3155419D01*
X68369466Y-3045723D01*
X68088325Y-2989800D01*
X67801675Y-2989800D01*
X67520534Y-3045723D01*
X67255704Y-3155419D01*
X67017364Y-3314672D01*
X66814672Y-3517364D01*
X66655419Y-3755704D01*
X66545723Y-4020534D01*
X66489800Y-4301675D01*
X50350200Y-4301675D01*
X50294277Y-4020534D01*
X50184581Y-3755704D01*
X50025328Y-3517364D01*
X49822636Y-3314672D01*
X49584296Y-3155419D01*
X49319466Y-3045723D01*
X49038325Y-2989800D01*
X48751675Y-2989800D01*
X48470534Y-3045723D01*
X48205704Y-3155419D01*
X47967364Y-3314672D01*
X47764672Y-3517364D01*
X47605419Y-3755704D01*
X47495723Y-4020534D01*
X47439800Y-4301675D01*
X31300200Y-4301675D01*
X31244277Y-4020534D01*
X31134581Y-3755704D01*
X30975328Y-3517364D01*
X30772636Y-3314672D01*
X30534296Y-3155419D01*
X30428266Y-3111500D01*
X30598830Y-3111500D01*
X30831923Y-3065135D01*
X31051492Y-2974187D01*
X31249099Y-2842150D01*
X31417150Y-2674099D01*
X31549187Y-2476492D01*
X31640135Y-2256923D01*
X31686500Y-2023830D01*
X31686500Y-1786170D01*
X31640135Y-1553077D01*
X31549187Y-1333508D01*
X31417150Y-1135901D01*
X31249099Y-967850D01*
X31051492Y-835813D01*
X30831923Y-744865D01*
X30598830Y-698500D01*
X30361170Y-698500D01*
X30128077Y-744865D01*
X29908508Y-835813D01*
X29710901Y-967850D01*
X29542850Y-1135901D01*
X29410813Y-1333508D01*
X29319865Y-1553077D01*
X29273500Y-1786170D01*
X29273500Y-2023830D01*
X29319865Y-2256923D01*
X29410813Y-2476492D01*
X29542850Y-2674099D01*
X29710901Y-2842150D01*
X29908508Y-2974187D01*
X29946201Y-2989800D01*
X29701675Y-2989800D01*
X29420534Y-3045723D01*
X29155704Y-3155419D01*
X28917364Y-3314672D01*
X28714672Y-3517364D01*
X28555419Y-3755704D01*
X28445723Y-4020534D01*
X28389800Y-4301675D01*
X27447323Y-4301675D01*
X27156244Y-4010597D01*
X27141923Y-3993147D01*
X27072306Y-3936013D01*
X26992879Y-3893559D01*
X26906697Y-3867415D01*
X26839530Y-3860800D01*
X26839520Y-3860800D01*
X26817070Y-3858589D01*
X26794620Y-3860800D01*
X22374450Y-3860800D01*
X22352000Y-3858589D01*
X22329550Y-3860800D01*
X22329540Y-3860800D01*
X22262373Y-3867415D01*
X22176191Y-3893559D01*
X22096764Y-3936013D01*
X22027147Y-3993147D01*
X22012830Y-4010592D01*
X19104575Y-6918848D01*
X19087125Y-6933169D01*
X19029991Y-7002787D01*
X18987537Y-7082214D01*
X18961393Y-7168396D01*
X18954778Y-7235563D01*
X18954778Y-7235572D01*
X18952567Y-7258022D01*
X18954778Y-7280472D01*
X18954779Y-10878643D01*
X15142624Y-14690799D01*
X13480175Y-14690799D01*
X13457725Y-14688588D01*
X13435275Y-14690799D01*
X13435266Y-14690799D01*
X13368099Y-14697414D01*
X13281917Y-14723558D01*
X13257330Y-14736700D01*
X13202489Y-14766012D01*
X13158197Y-14802363D01*
X13132873Y-14823146D01*
X13118556Y-14840591D01*
X12392597Y-15566551D01*
X12375147Y-15580872D01*
X12318013Y-15650490D01*
X12275559Y-15729917D01*
X12249415Y-15816099D01*
X12242800Y-15883266D01*
X12242800Y-15883275D01*
X12240589Y-15905725D01*
X12242800Y-15928175D01*
X12242800Y-16028472D01*
X12128508Y-16075813D01*
X11930901Y-16207850D01*
X11762850Y-16375901D01*
X11630813Y-16573508D01*
X11539865Y-16793077D01*
X11493500Y-17026170D01*
X11366500Y-17026170D01*
X11320135Y-16793077D01*
X11229187Y-16573508D01*
X11097150Y-16375901D01*
X10929099Y-16207850D01*
X10731492Y-16075813D01*
X10511923Y-15984865D01*
X10278830Y-15938500D01*
X10041170Y-15938500D01*
X9808077Y-15984865D01*
X9588508Y-16075813D01*
X9390901Y-16207850D01*
X9222850Y-16375901D01*
X9090813Y-16573508D01*
X8999865Y-16793077D01*
X8953500Y-17026170D01*
X8826500Y-17026170D01*
X8780135Y-16793077D01*
X8689187Y-16573508D01*
X8557150Y-16375901D01*
X8389099Y-16207850D01*
X8191492Y-16075813D01*
X7971923Y-15984865D01*
X7738830Y-15938500D01*
X7501170Y-15938500D01*
X7268077Y-15984865D01*
X7048508Y-16075813D01*
X6850901Y-16207850D01*
X6682850Y-16375901D01*
X6550813Y-16573508D01*
X6459865Y-16793077D01*
X6443567Y-16875011D01*
X6442507Y-16864909D01*
X6361684Y-16604480D01*
X6241492Y-16379616D01*
X6017554Y-16297248D01*
X5169803Y-17145000D01*
X4990197Y-17145000D01*
X4142446Y-16297248D01*
X3918508Y-16379616D01*
X3791506Y-16620919D01*
X3716339Y-16874542D01*
X3700135Y-16793077D01*
X3609187Y-16573508D01*
X3477150Y-16375901D01*
X3309099Y-16207850D01*
X3308495Y-16207446D01*
X4232248Y-16207446D01*
X5080000Y-17055197D01*
X5927752Y-16207446D01*
X5845384Y-15983508D01*
X5604081Y-15856506D01*
X5342639Y-15779022D01*
X5071103Y-15754030D01*
X4799909Y-15782493D01*
X4539480Y-15863316D01*
X4314616Y-15983508D01*
X4232248Y-16207446D01*
X3308495Y-16207446D01*
X3111492Y-16075813D01*
X2891923Y-15984865D01*
X2658830Y-15938500D01*
X2421170Y-15938500D01*
X2188077Y-15984865D01*
X1968508Y-16075813D01*
X1770901Y-16207850D01*
X1602850Y-16375901D01*
X1470813Y-16573508D01*
X1379865Y-16793077D01*
X1333500Y-17026170D01*
X355200Y-17026170D01*
X355200Y-9406298D01*
X1969800Y-9406298D01*
X1969800Y-9643702D01*
X2016116Y-9876544D01*
X2106966Y-10095876D01*
X2238860Y-10293270D01*
X2406730Y-10461140D01*
X2604124Y-10593034D01*
X2823456Y-10683884D01*
X3056298Y-10730200D01*
X3293702Y-10730200D01*
X3526544Y-10683884D01*
X3745876Y-10593034D01*
X3943270Y-10461140D01*
X4111140Y-10293270D01*
X4243034Y-10095876D01*
X4333884Y-9876544D01*
X4380200Y-9643702D01*
X4380200Y-9406298D01*
X4358280Y-9296096D01*
X5930900Y-9296096D01*
X5930900Y-9753904D01*
X6020214Y-10202915D01*
X6195410Y-10625874D01*
X6449754Y-11006527D01*
X6773473Y-11330246D01*
X7154126Y-11584590D01*
X7577085Y-11759786D01*
X8026096Y-11849100D01*
X8483904Y-11849100D01*
X8932915Y-11759786D01*
X9355874Y-11584590D01*
X9736527Y-11330246D01*
X10060246Y-11006527D01*
X10314590Y-10625874D01*
X10489786Y-10202915D01*
X10579100Y-9753904D01*
X10579100Y-9406298D01*
X12129800Y-9406298D01*
X12129800Y-9643702D01*
X12176116Y-9876544D01*
X12266966Y-10095876D01*
X12398860Y-10293270D01*
X12566730Y-10461140D01*
X12764124Y-10593034D01*
X12983456Y-10683884D01*
X13216298Y-10730200D01*
X13453702Y-10730200D01*
X13686544Y-10683884D01*
X13905876Y-10593034D01*
X14103270Y-10461140D01*
X14271140Y-10293270D01*
X14403034Y-10095876D01*
X14493884Y-9876544D01*
X14540200Y-9643702D01*
X14540200Y-9406298D01*
X14493884Y-9173456D01*
X14403034Y-8954124D01*
X14271140Y-8756730D01*
X14103270Y-8588860D01*
X13905876Y-8456966D01*
X13686544Y-8366116D01*
X13453702Y-8319800D01*
X13216298Y-8319800D01*
X12983456Y-8366116D01*
X12764124Y-8456966D01*
X12566730Y-8588860D01*
X12398860Y-8756730D01*
X12266966Y-8954124D01*
X12176116Y-9173456D01*
X12129800Y-9406298D01*
X10579100Y-9406298D01*
X10579100Y-9296096D01*
X10489786Y-8847085D01*
X10314590Y-8424126D01*
X10060246Y-8043473D01*
X9736527Y-7719754D01*
X9355874Y-7465410D01*
X8932915Y-7290214D01*
X8483904Y-7200900D01*
X8026096Y-7200900D01*
X7577085Y-7290214D01*
X7154126Y-7465410D01*
X6773473Y-7719754D01*
X6449754Y-8043473D01*
X6195410Y-8424126D01*
X6020214Y-8847085D01*
X5930900Y-9296096D01*
X4358280Y-9296096D01*
X4333884Y-9173456D01*
X4243034Y-8954124D01*
X4111140Y-8756730D01*
X3943270Y-8588860D01*
X3745876Y-8456966D01*
X3526544Y-8366116D01*
X3293702Y-8319800D01*
X3056298Y-8319800D01*
X2823456Y-8366116D01*
X2604124Y-8456966D01*
X2406730Y-8588860D01*
X2238860Y-8756730D01*
X2106966Y-8954124D01*
X2016116Y-9173456D01*
X1969800Y-9406298D01*
X355200Y-9406298D01*
X355200Y-6841675D01*
X2989800Y-6841675D01*
X2989800Y-7128325D01*
X3045723Y-7409466D01*
X3155419Y-7674296D01*
X3314672Y-7912636D01*
X3517364Y-8115328D01*
X3755704Y-8274581D01*
X4020534Y-8384277D01*
X4301675Y-8440200D01*
X4588325Y-8440200D01*
X4869466Y-8384277D01*
X5134296Y-8274581D01*
X5372636Y-8115328D01*
X5575328Y-7912636D01*
X5734581Y-7674296D01*
X5844277Y-7409466D01*
X5900200Y-7128325D01*
X5900200Y-6841675D01*
X5844277Y-6560534D01*
X5734581Y-6295704D01*
X5575328Y-6057364D01*
X5372636Y-5854672D01*
X5134296Y-5695419D01*
X4869466Y-5585723D01*
X4588325Y-5529800D01*
X4301675Y-5529800D01*
X4020534Y-5585723D01*
X3755704Y-5695419D01*
X3517364Y-5854672D01*
X3314672Y-6057364D01*
X3155419Y-6295704D01*
X3045723Y-6560534D01*
X2989800Y-6841675D01*
X355200Y-6841675D01*
X355200Y-1466850D01*
X1331903Y-1466850D01*
X1331903Y-2343150D01*
X1346697Y-2493359D01*
X1390512Y-2637796D01*
X1461662Y-2770910D01*
X1557415Y-2887585D01*
X1674090Y-2983338D01*
X1807204Y-3054488D01*
X1951641Y-3098303D01*
X2101850Y-3113097D01*
X2978150Y-3113097D01*
X3128359Y-3098303D01*
X3272796Y-3054488D01*
X3405910Y-2983338D01*
X3522585Y-2887585D01*
X3618338Y-2770910D01*
X3689488Y-2637796D01*
X3733303Y-2493359D01*
X3748097Y-2343150D01*
X3748097Y-1786170D01*
X3873500Y-1786170D01*
X3873500Y-2023830D01*
X3919865Y-2256923D01*
X4010813Y-2476492D01*
X4142850Y-2674099D01*
X4310901Y-2842150D01*
X4508508Y-2974187D01*
X4728077Y-3065135D01*
X4961170Y-3111500D01*
X5198830Y-3111500D01*
X5431923Y-3065135D01*
X5651492Y-2974187D01*
X5848494Y-2842554D01*
X6772248Y-2842554D01*
X6854616Y-3066492D01*
X7095919Y-3193494D01*
X7357361Y-3270978D01*
X7628897Y-3295970D01*
X7900091Y-3267507D01*
X8160520Y-3186684D01*
X8385384Y-3066492D01*
X8467752Y-2842554D01*
X9312248Y-2842554D01*
X9394616Y-3066492D01*
X9635919Y-3193494D01*
X9897361Y-3270978D01*
X9928472Y-3273841D01*
X9867364Y-3314672D01*
X9664672Y-3517364D01*
X9505419Y-3755704D01*
X9395723Y-4020534D01*
X9339800Y-4301675D01*
X9339800Y-4588325D01*
X9395723Y-4869466D01*
X9505419Y-5134296D01*
X9664672Y-5372636D01*
X9867364Y-5575328D01*
X10105704Y-5734581D01*
X10370534Y-5844277D01*
X10651675Y-5900200D01*
X10938325Y-5900200D01*
X11219466Y-5844277D01*
X11484296Y-5734581D01*
X11722636Y-5575328D01*
X11925328Y-5372636D01*
X12084581Y-5134296D01*
X12194277Y-4869466D01*
X12250200Y-4588325D01*
X12250200Y-4301675D01*
X12194277Y-4020534D01*
X12084581Y-3755704D01*
X11925328Y-3517364D01*
X11722636Y-3314672D01*
X11484296Y-3155419D01*
X11219466Y-3045723D01*
X10952552Y-2992630D01*
X11007752Y-2842554D01*
X10160000Y-1994803D01*
X9312248Y-2842554D01*
X8467752Y-2842554D01*
X7620000Y-1994803D01*
X6772248Y-2842554D01*
X5848494Y-2842554D01*
X5849099Y-2842150D01*
X6017150Y-2674099D01*
X6149187Y-2476492D01*
X6240135Y-2256923D01*
X6256433Y-2174989D01*
X6257493Y-2185091D01*
X6338316Y-2445520D01*
X6458508Y-2670384D01*
X6682446Y-2752752D01*
X7530197Y-1905000D01*
X7709803Y-1905000D01*
X8557554Y-2752752D01*
X8781492Y-2670384D01*
X8889162Y-2465812D01*
X8998508Y-2670384D01*
X9222446Y-2752752D01*
X10070197Y-1905000D01*
X10249803Y-1905000D01*
X11097554Y-2752752D01*
X11321492Y-2670384D01*
X11448494Y-2429081D01*
X11523661Y-2175458D01*
X11539865Y-2256923D01*
X11630813Y-2476492D01*
X11762850Y-2674099D01*
X11930901Y-2842150D01*
X12128508Y-2974187D01*
X12348077Y-3065135D01*
X12581170Y-3111500D01*
X12818830Y-3111500D01*
X13051923Y-3065135D01*
X13271492Y-2974187D01*
X13469099Y-2842150D01*
X13637150Y-2674099D01*
X13769187Y-2476492D01*
X13860135Y-2256923D01*
X13906500Y-2023830D01*
X13906500Y-1786170D01*
X14033500Y-1786170D01*
X14033500Y-2023830D01*
X14079865Y-2256923D01*
X14170813Y-2476492D01*
X14302850Y-2674099D01*
X14470901Y-2842150D01*
X14668508Y-2974187D01*
X14888077Y-3065135D01*
X15121170Y-3111500D01*
X15358830Y-3111500D01*
X15591923Y-3065135D01*
X15811492Y-2974187D01*
X16009099Y-2842150D01*
X16177150Y-2674099D01*
X16309187Y-2476492D01*
X16400135Y-2256923D01*
X16446500Y-2023830D01*
X16446500Y-1786170D01*
X16573500Y-1786170D01*
X16573500Y-2023830D01*
X16619865Y-2256923D01*
X16710813Y-2476492D01*
X16842850Y-2674099D01*
X17010901Y-2842150D01*
X17208508Y-2974187D01*
X17428077Y-3065135D01*
X17661170Y-3111500D01*
X17898830Y-3111500D01*
X18131923Y-3065135D01*
X18351492Y-2974187D01*
X18549099Y-2842150D01*
X18717150Y-2674099D01*
X18849187Y-2476492D01*
X18940135Y-2256923D01*
X18986500Y-2023830D01*
X18986500Y-1786170D01*
X19113500Y-1786170D01*
X19113500Y-2023830D01*
X19159865Y-2256923D01*
X19250813Y-2476492D01*
X19382850Y-2674099D01*
X19550901Y-2842150D01*
X19748508Y-2974187D01*
X19968077Y-3065135D01*
X20201170Y-3111500D01*
X20438830Y-3111500D01*
X20671923Y-3065135D01*
X20891492Y-2974187D01*
X21089099Y-2842150D01*
X21257150Y-2674099D01*
X21389187Y-2476492D01*
X21480135Y-2256923D01*
X21526500Y-2023830D01*
X21526500Y-1786170D01*
X21653500Y-1786170D01*
X21653500Y-2023830D01*
X21699865Y-2256923D01*
X21790813Y-2476492D01*
X21922850Y-2674099D01*
X22090901Y-2842150D01*
X22288508Y-2974187D01*
X22508077Y-3065135D01*
X22741170Y-3111500D01*
X22978830Y-3111500D01*
X23211923Y-3065135D01*
X23431492Y-2974187D01*
X23629099Y-2842150D01*
X23797150Y-2674099D01*
X23929187Y-2476492D01*
X24020135Y-2256923D01*
X24066500Y-2023830D01*
X24066500Y-1786170D01*
X24193500Y-1786170D01*
X24193500Y-2023830D01*
X24239865Y-2256923D01*
X24330813Y-2476492D01*
X24462850Y-2674099D01*
X24630901Y-2842150D01*
X24828508Y-2974187D01*
X25048077Y-3065135D01*
X25281170Y-3111500D01*
X25518830Y-3111500D01*
X25751923Y-3065135D01*
X25971492Y-2974187D01*
X26169099Y-2842150D01*
X26337150Y-2674099D01*
X26469187Y-2476492D01*
X26560135Y-2256923D01*
X26606500Y-2023830D01*
X26606500Y-1786170D01*
X26733500Y-1786170D01*
X26733500Y-2023830D01*
X26779865Y-2256923D01*
X26870813Y-2476492D01*
X27002850Y-2674099D01*
X27170901Y-2842150D01*
X27368508Y-2974187D01*
X27588077Y-3065135D01*
X27821170Y-3111500D01*
X28058830Y-3111500D01*
X28291923Y-3065135D01*
X28511492Y-2974187D01*
X28709099Y-2842150D01*
X28877150Y-2674099D01*
X29009187Y-2476492D01*
X29100135Y-2256923D01*
X29146500Y-2023830D01*
X29146500Y-1786170D01*
X29100135Y-1553077D01*
X29009187Y-1333508D01*
X28877150Y-1135901D01*
X28709099Y-967850D01*
X28511492Y-835813D01*
X28291923Y-744865D01*
X28058830Y-698500D01*
X27821170Y-698500D01*
X27588077Y-744865D01*
X27368508Y-835813D01*
X27170901Y-967850D01*
X27002850Y-1135901D01*
X26870813Y-1333508D01*
X26779865Y-1553077D01*
X26733500Y-1786170D01*
X26606500Y-1786170D01*
X26560135Y-1553077D01*
X26469187Y-1333508D01*
X26337150Y-1135901D01*
X26169099Y-967850D01*
X25971492Y-835813D01*
X25751923Y-744865D01*
X25518830Y-698500D01*
X25281170Y-698500D01*
X25048077Y-744865D01*
X24828508Y-835813D01*
X24630901Y-967850D01*
X24462850Y-1135901D01*
X24330813Y-1333508D01*
X24239865Y-1553077D01*
X24193500Y-1786170D01*
X24066500Y-1786170D01*
X24020135Y-1553077D01*
X23929187Y-1333508D01*
X23797150Y-1135901D01*
X23629099Y-967850D01*
X23431492Y-835813D01*
X23211923Y-744865D01*
X22978830Y-698500D01*
X22741170Y-698500D01*
X22508077Y-744865D01*
X22288508Y-835813D01*
X22090901Y-967850D01*
X21922850Y-1135901D01*
X21790813Y-1333508D01*
X21699865Y-1553077D01*
X21653500Y-1786170D01*
X21526500Y-1786170D01*
X21480135Y-1553077D01*
X21389187Y-1333508D01*
X21257150Y-1135901D01*
X21089099Y-967850D01*
X20891492Y-835813D01*
X20671923Y-744865D01*
X20438830Y-698500D01*
X20201170Y-698500D01*
X19968077Y-744865D01*
X19748508Y-835813D01*
X19550901Y-967850D01*
X19382850Y-1135901D01*
X19250813Y-1333508D01*
X19159865Y-1553077D01*
X19113500Y-1786170D01*
X18986500Y-1786170D01*
X18940135Y-1553077D01*
X18849187Y-1333508D01*
X18717150Y-1135901D01*
X18549099Y-967850D01*
X18351492Y-835813D01*
X18131923Y-744865D01*
X17898830Y-698500D01*
X17661170Y-698500D01*
X17428077Y-744865D01*
X17208508Y-835813D01*
X17010901Y-967850D01*
X16842850Y-1135901D01*
X16710813Y-1333508D01*
X16619865Y-1553077D01*
X16573500Y-1786170D01*
X16446500Y-1786170D01*
X16400135Y-1553077D01*
X16309187Y-1333508D01*
X16177150Y-1135901D01*
X16009099Y-967850D01*
X15811492Y-835813D01*
X15591923Y-744865D01*
X15358830Y-698500D01*
X15121170Y-698500D01*
X14888077Y-744865D01*
X14668508Y-835813D01*
X14470901Y-967850D01*
X14302850Y-1135901D01*
X14170813Y-1333508D01*
X14079865Y-1553077D01*
X14033500Y-1786170D01*
X13906500Y-1786170D01*
X13860135Y-1553077D01*
X13769187Y-1333508D01*
X13637150Y-1135901D01*
X13469099Y-967850D01*
X13271492Y-835813D01*
X13051923Y-744865D01*
X12818830Y-698500D01*
X12581170Y-698500D01*
X12348077Y-744865D01*
X12128508Y-835813D01*
X11930901Y-967850D01*
X11762850Y-1135901D01*
X11630813Y-1333508D01*
X11539865Y-1553077D01*
X11523567Y-1635011D01*
X11522507Y-1624909D01*
X11441684Y-1364480D01*
X11321492Y-1139616D01*
X11097554Y-1057248D01*
X10249803Y-1905000D01*
X10070197Y-1905000D01*
X9222446Y-1057248D01*
X8998508Y-1139616D01*
X8890838Y-1344188D01*
X8781492Y-1139616D01*
X8557554Y-1057248D01*
X7709803Y-1905000D01*
X7530197Y-1905000D01*
X6682446Y-1057248D01*
X6458508Y-1139616D01*
X6331506Y-1380919D01*
X6256339Y-1634542D01*
X6240135Y-1553077D01*
X6149187Y-1333508D01*
X6017150Y-1135901D01*
X5849099Y-967850D01*
X5848495Y-967446D01*
X6772248Y-967446D01*
X7620000Y-1815197D01*
X8467752Y-967446D01*
X9312248Y-967446D01*
X10160000Y-1815197D01*
X11007752Y-967446D01*
X10925384Y-743508D01*
X10684081Y-616506D01*
X10422639Y-539022D01*
X10151103Y-514030D01*
X9879909Y-542493D01*
X9619480Y-623316D01*
X9394616Y-743508D01*
X9312248Y-967446D01*
X8467752Y-967446D01*
X8385384Y-743508D01*
X8144081Y-616506D01*
X7882639Y-539022D01*
X7611103Y-514030D01*
X7339909Y-542493D01*
X7079480Y-623316D01*
X6854616Y-743508D01*
X6772248Y-967446D01*
X5848495Y-967446D01*
X5651492Y-835813D01*
X5431923Y-744865D01*
X5198830Y-698500D01*
X4961170Y-698500D01*
X4728077Y-744865D01*
X4508508Y-835813D01*
X4310901Y-967850D01*
X4142850Y-1135901D01*
X4010813Y-1333508D01*
X3919865Y-1553077D01*
X3873500Y-1786170D01*
X3748097Y-1786170D01*
X3748097Y-1466850D01*
X3733303Y-1316641D01*
X3689488Y-1172204D01*
X3618338Y-1039090D01*
X3522585Y-922415D01*
X3405910Y-826662D01*
X3272796Y-755512D01*
X3128359Y-711697D01*
X2978150Y-696903D01*
X2101850Y-696903D01*
X1951641Y-711697D01*
X1807204Y-755512D01*
X1674090Y-826662D01*
X1557415Y-922415D01*
X1461662Y-1039090D01*
X1390512Y-1172204D01*
X1346697Y-1316641D01*
X1331903Y-1466850D01*
X355200Y-1466850D01*
X355200Y-355200D01*
X93624801Y-355200D01*
X93624800Y-18694800D01*
%TA.AperFunction,Conductor*%
D21*
G36*
X93624800Y-18694800D02*
G01*
X355200Y-18694800D01*
X355200Y-17026170D01*
X1333500Y-17026170D01*
X1333500Y-17263830D01*
X1379865Y-17496923D01*
X1470813Y-17716492D01*
X1602850Y-17914099D01*
X1770901Y-18082150D01*
X1968508Y-18214187D01*
X2188077Y-18305135D01*
X2421170Y-18351500D01*
X2658830Y-18351500D01*
X2891923Y-18305135D01*
X3111492Y-18214187D01*
X3308494Y-18082554D01*
X4232248Y-18082554D01*
X4314616Y-18306492D01*
X4555919Y-18433494D01*
X4817361Y-18510978D01*
X5088897Y-18535970D01*
X5360091Y-18507507D01*
X5620520Y-18426684D01*
X5845384Y-18306492D01*
X5927752Y-18082554D01*
X5080000Y-17234803D01*
X4232248Y-18082554D01*
X3308494Y-18082554D01*
X3309099Y-18082150D01*
X3477150Y-17914099D01*
X3609187Y-17716492D01*
X3700135Y-17496923D01*
X3716433Y-17414989D01*
X3717493Y-17425091D01*
X3798316Y-17685520D01*
X3918508Y-17910384D01*
X4142446Y-17992752D01*
X4990197Y-17145000D01*
X5169803Y-17145000D01*
X6017554Y-17992752D01*
X6241492Y-17910384D01*
X6368494Y-17669081D01*
X6443661Y-17415458D01*
X6459865Y-17496923D01*
X6550813Y-17716492D01*
X6682850Y-17914099D01*
X6850901Y-18082150D01*
X7048508Y-18214187D01*
X7268077Y-18305135D01*
X7501170Y-18351500D01*
X7738830Y-18351500D01*
X7971923Y-18305135D01*
X8191492Y-18214187D01*
X8389099Y-18082150D01*
X8557150Y-17914099D01*
X8689187Y-17716492D01*
X8780135Y-17496923D01*
X8826500Y-17263830D01*
X8826500Y-17026170D01*
X8953500Y-17026170D01*
X8953500Y-17263830D01*
X8999865Y-17496923D01*
X9090813Y-17716492D01*
X9222850Y-17914099D01*
X9390901Y-18082150D01*
X9588508Y-18214187D01*
X9808077Y-18305135D01*
X10041170Y-18351500D01*
X10278830Y-18351500D01*
X10511923Y-18305135D01*
X10731492Y-18214187D01*
X10929099Y-18082150D01*
X11097150Y-17914099D01*
X11229187Y-17716492D01*
X11320135Y-17496923D01*
X11366500Y-17263830D01*
X11366500Y-17026170D01*
X11493500Y-17026170D01*
X11493500Y-17263830D01*
X11539865Y-17496923D01*
X11630813Y-17716492D01*
X11762850Y-17914099D01*
X11930901Y-18082150D01*
X12128508Y-18214187D01*
X12348077Y-18305135D01*
X12581170Y-18351500D01*
X12818830Y-18351500D01*
X13051923Y-18305135D01*
X13271492Y-18214187D01*
X13469099Y-18082150D01*
X13637150Y-17914099D01*
X13769187Y-17716492D01*
X13860135Y-17496923D01*
X13906500Y-17263830D01*
X13906500Y-17026170D01*
X13860135Y-16793077D01*
X13769187Y-16573508D01*
X13637150Y-16375901D01*
X13469099Y-16207850D01*
X13271492Y-16075813D01*
X13204315Y-16047987D01*
X13647104Y-15605199D01*
X14895182Y-15605199D01*
X14858013Y-15650490D01*
X14815559Y-15729917D01*
X14789415Y-15816099D01*
X14782800Y-15883266D01*
X14782800Y-15883275D01*
X14780589Y-15905725D01*
X14782800Y-15928175D01*
X14782800Y-16028472D01*
X14668508Y-16075813D01*
X14470901Y-16207850D01*
X14302850Y-16375901D01*
X14170813Y-16573508D01*
X14079865Y-16793077D01*
X14033500Y-17026170D01*
X14033500Y-17263830D01*
X14079865Y-17496923D01*
X14170813Y-17716492D01*
X14302850Y-17914099D01*
X14470901Y-18082150D01*
X14668508Y-18214187D01*
X14888077Y-18305135D01*
X15121170Y-18351500D01*
X15358830Y-18351500D01*
X15591923Y-18305135D01*
X15811492Y-18214187D01*
X16009099Y-18082150D01*
X16177150Y-17914099D01*
X16309187Y-17716492D01*
X16400135Y-17496923D01*
X16446500Y-17263830D01*
X16446500Y-17026170D01*
X16400135Y-16793077D01*
X16309187Y-16573508D01*
X16177150Y-16375901D01*
X16009099Y-16207850D01*
X15811492Y-16075813D01*
X15744315Y-16047987D01*
X20173397Y-11618906D01*
X20190842Y-11604589D01*
X20242586Y-11541540D01*
X20247976Y-11534973D01*
X20290429Y-11455546D01*
X20290430Y-11455545D01*
X20316574Y-11369363D01*
X20323189Y-11302196D01*
X20323189Y-11302187D01*
X20325400Y-11279737D01*
X20323189Y-11257287D01*
X20323189Y-9406298D01*
X21019800Y-9406298D01*
X21019800Y-9643702D01*
X21066116Y-9876544D01*
X21156966Y-10095876D01*
X21288860Y-10293270D01*
X21456730Y-10461140D01*
X21654124Y-10593034D01*
X21873456Y-10683884D01*
X22106298Y-10730200D01*
X22343702Y-10730200D01*
X22576544Y-10683884D01*
X22795876Y-10593034D01*
X22993270Y-10461140D01*
X23161140Y-10293270D01*
X23293034Y-10095876D01*
X23383884Y-9876544D01*
X23430200Y-9643702D01*
X23430200Y-9406298D01*
X23408280Y-9296096D01*
X24980900Y-9296096D01*
X24980900Y-9753904D01*
X25070214Y-10202915D01*
X25245410Y-10625874D01*
X25499754Y-11006527D01*
X25823473Y-11330246D01*
X26204126Y-11584590D01*
X26627085Y-11759786D01*
X27076096Y-11849100D01*
X27533904Y-11849100D01*
X27982915Y-11759786D01*
X28405874Y-11584590D01*
X28786527Y-11330246D01*
X29110246Y-11006527D01*
X29364590Y-10625874D01*
X29539786Y-10202915D01*
X29629100Y-9753904D01*
X29629100Y-9406298D01*
X31179800Y-9406298D01*
X31179800Y-9643702D01*
X31226116Y-9876544D01*
X31316966Y-10095876D01*
X31448860Y-10293270D01*
X31616730Y-10461140D01*
X31814124Y-10593034D01*
X32033456Y-10683884D01*
X32266298Y-10730200D01*
X32503702Y-10730200D01*
X32736544Y-10683884D01*
X32955876Y-10593034D01*
X33153270Y-10461140D01*
X33321140Y-10293270D01*
X33453034Y-10095876D01*
X33543884Y-9876544D01*
X33590200Y-9643702D01*
X33590200Y-9406298D01*
X33543884Y-9173456D01*
X33453034Y-8954124D01*
X33321140Y-8756730D01*
X33153270Y-8588860D01*
X32955876Y-8456966D01*
X32736544Y-8366116D01*
X32503702Y-8319800D01*
X32266298Y-8319800D01*
X32033456Y-8366116D01*
X31814124Y-8456966D01*
X31616730Y-8588860D01*
X31448860Y-8756730D01*
X31316966Y-8954124D01*
X31226116Y-9173456D01*
X31179800Y-9406298D01*
X29629100Y-9406298D01*
X29629100Y-9296096D01*
X29539786Y-8847085D01*
X29364590Y-8424126D01*
X29110246Y-8043473D01*
X28786527Y-7719754D01*
X28405874Y-7465410D01*
X27982915Y-7290214D01*
X27533904Y-7200900D01*
X27076096Y-7200900D01*
X26627085Y-7290214D01*
X26204126Y-7465410D01*
X25823473Y-7719754D01*
X25499754Y-8043473D01*
X25245410Y-8424126D01*
X25070214Y-8847085D01*
X24980900Y-9296096D01*
X23408280Y-9296096D01*
X23383884Y-9173456D01*
X23293034Y-8954124D01*
X23161140Y-8756730D01*
X22993270Y-8588860D01*
X22795876Y-8456966D01*
X22576544Y-8366116D01*
X22343702Y-8319800D01*
X22106298Y-8319800D01*
X21873456Y-8366116D01*
X21654124Y-8456966D01*
X21456730Y-8588860D01*
X21288860Y-8756730D01*
X21156966Y-8954124D01*
X21066116Y-9173456D01*
X21019800Y-9406298D01*
X20323189Y-9406298D01*
X20323189Y-7635456D01*
X21116970Y-6841675D01*
X22039800Y-6841675D01*
X22039800Y-7128325D01*
X22095723Y-7409466D01*
X22205419Y-7674296D01*
X22364672Y-7912636D01*
X22567364Y-8115328D01*
X22805704Y-8274581D01*
X23070534Y-8384277D01*
X23351675Y-8440200D01*
X23638325Y-8440200D01*
X23919466Y-8384277D01*
X24184296Y-8274581D01*
X24422636Y-8115328D01*
X24625328Y-7912636D01*
X24784581Y-7674296D01*
X24894277Y-7409466D01*
X24950200Y-7128325D01*
X24950200Y-6841675D01*
X24894277Y-6560534D01*
X24784581Y-6295704D01*
X24625328Y-6057364D01*
X24422636Y-5854672D01*
X24184296Y-5695419D01*
X23919466Y-5585723D01*
X23638325Y-5529800D01*
X23351675Y-5529800D01*
X23070534Y-5585723D01*
X22805704Y-5695419D01*
X22567364Y-5854672D01*
X22364672Y-6057364D01*
X22205419Y-6295704D01*
X22095723Y-6560534D01*
X22039800Y-6841675D01*
X21116970Y-6841675D01*
X22675446Y-5283200D01*
X26493625Y-5283200D01*
X28810825Y-7600401D01*
X28825137Y-7617840D01*
X28842576Y-7632152D01*
X28842582Y-7632158D01*
X28894754Y-7674975D01*
X28974180Y-7717428D01*
X29060363Y-7743572D01*
X29149990Y-7752399D01*
X29172450Y-7750187D01*
X32567112Y-7750189D01*
X38160851Y-13343929D01*
X38175168Y-13361374D01*
X38192613Y-13375691D01*
X38217776Y-13396342D01*
X38244785Y-13418508D01*
X38324212Y-13460962D01*
X38410394Y-13487106D01*
X38477561Y-13493721D01*
X38477571Y-13493721D01*
X38500021Y-13495932D01*
X38522471Y-13493721D01*
X70648165Y-13493721D01*
X70670615Y-13495932D01*
X70693065Y-13493721D01*
X70693075Y-13493721D01*
X70760242Y-13487106D01*
X70846424Y-13460962D01*
X70925851Y-13418508D01*
X70995468Y-13361374D01*
X71009789Y-13343924D01*
X74947415Y-9406298D01*
X78169800Y-9406298D01*
X78169800Y-9643702D01*
X78216116Y-9876544D01*
X78306966Y-10095876D01*
X78438860Y-10293270D01*
X78606730Y-10461140D01*
X78804124Y-10593034D01*
X79023456Y-10683884D01*
X79256298Y-10730200D01*
X79493702Y-10730200D01*
X79726544Y-10683884D01*
X79945876Y-10593034D01*
X80143270Y-10461140D01*
X80311140Y-10293270D01*
X80443034Y-10095876D01*
X80533884Y-9876544D01*
X80580200Y-9643702D01*
X80580200Y-9406298D01*
X80558280Y-9296096D01*
X82130900Y-9296096D01*
X82130900Y-9753904D01*
X82220214Y-10202915D01*
X82395410Y-10625874D01*
X82649754Y-11006527D01*
X82973473Y-11330246D01*
X83354126Y-11584590D01*
X83777085Y-11759786D01*
X84226096Y-11849100D01*
X84683904Y-11849100D01*
X85132915Y-11759786D01*
X85555874Y-11584590D01*
X85936527Y-11330246D01*
X86260246Y-11006527D01*
X86514590Y-10625874D01*
X86689786Y-10202915D01*
X86779100Y-9753904D01*
X86779100Y-9296096D01*
X86689786Y-8847085D01*
X86514590Y-8424126D01*
X86260246Y-8043473D01*
X85936527Y-7719754D01*
X85555874Y-7465410D01*
X85132915Y-7290214D01*
X84683904Y-7200900D01*
X84226096Y-7200900D01*
X83777085Y-7290214D01*
X83354126Y-7465410D01*
X82973473Y-7719754D01*
X82649754Y-8043473D01*
X82395410Y-8424126D01*
X82220214Y-8847085D01*
X82130900Y-9296096D01*
X80558280Y-9296096D01*
X80533884Y-9173456D01*
X80443034Y-8954124D01*
X80311140Y-8756730D01*
X80143270Y-8588860D01*
X79945876Y-8456966D01*
X79726544Y-8366116D01*
X79493702Y-8319800D01*
X79256298Y-8319800D01*
X79023456Y-8366116D01*
X78804124Y-8456966D01*
X78606730Y-8588860D01*
X78438860Y-8756730D01*
X78306966Y-8954124D01*
X78216116Y-9173456D01*
X78169800Y-9406298D01*
X74947415Y-9406298D01*
X77512038Y-6841675D01*
X79189800Y-6841675D01*
X79189800Y-7128325D01*
X79245723Y-7409466D01*
X79355419Y-7674296D01*
X79514672Y-7912636D01*
X79717364Y-8115328D01*
X79955704Y-8274581D01*
X80220534Y-8384277D01*
X80501675Y-8440200D01*
X80788325Y-8440200D01*
X81069466Y-8384277D01*
X81334296Y-8274581D01*
X81572636Y-8115328D01*
X81775328Y-7912636D01*
X81934581Y-7674296D01*
X82044277Y-7409466D01*
X82100200Y-7128325D01*
X82100200Y-6841675D01*
X82044277Y-6560534D01*
X81934581Y-6295704D01*
X81775328Y-6057364D01*
X81572636Y-5854672D01*
X81334296Y-5695419D01*
X81069466Y-5585723D01*
X80788325Y-5529800D01*
X80501675Y-5529800D01*
X80220534Y-5585723D01*
X79955704Y-5695419D01*
X79717364Y-5854672D01*
X79514672Y-6057364D01*
X79355419Y-6295704D01*
X79245723Y-6560534D01*
X79189800Y-6841675D01*
X77512038Y-6841675D01*
X80052038Y-4301675D01*
X85539800Y-4301675D01*
X85539800Y-4588325D01*
X85595723Y-4869466D01*
X85705419Y-5134296D01*
X85864672Y-5372636D01*
X86067364Y-5575328D01*
X86305704Y-5734581D01*
X86570534Y-5844277D01*
X86851675Y-5900200D01*
X87138325Y-5900200D01*
X87419466Y-5844277D01*
X87684296Y-5734581D01*
X87922636Y-5575328D01*
X88125328Y-5372636D01*
X88284581Y-5134296D01*
X88394277Y-4869466D01*
X88450200Y-4588325D01*
X88450200Y-4301675D01*
X88394277Y-4020534D01*
X88284581Y-3755704D01*
X88125328Y-3517364D01*
X87922636Y-3314672D01*
X87684296Y-3155419D01*
X87419466Y-3045723D01*
X87138325Y-2989800D01*
X86851675Y-2989800D01*
X86570534Y-3045723D01*
X86305704Y-3155419D01*
X86067364Y-3314672D01*
X85864672Y-3517364D01*
X85705419Y-3755704D01*
X85595723Y-4020534D01*
X85539800Y-4301675D01*
X80052038Y-4301675D01*
X81420014Y-2933700D01*
X87631123Y-2933700D01*
X90919840Y-6222418D01*
X90934158Y-6239864D01*
X91003775Y-6296998D01*
X91083202Y-6339452D01*
X91169384Y-6365596D01*
X91236551Y-6372211D01*
X91236561Y-6372211D01*
X91259011Y-6374422D01*
X91281461Y-6372211D01*
X91753584Y-6372211D01*
X91784704Y-6528660D01*
X91847286Y-6679747D01*
X91938142Y-6815722D01*
X92043920Y-6921500D01*
X91938142Y-7027278D01*
X91847286Y-7163253D01*
X91784704Y-7314340D01*
X91752800Y-7474732D01*
X91752800Y-7543800D01*
X91597628Y-7543800D01*
X90966404Y-6912577D01*
X90952083Y-6895127D01*
X90882466Y-6837993D01*
X90803039Y-6795539D01*
X90716857Y-6769395D01*
X90649690Y-6762780D01*
X90649680Y-6762780D01*
X90627230Y-6760569D01*
X90604780Y-6762780D01*
X88680404Y-6762780D01*
X88657954Y-6760569D01*
X88635504Y-6762780D01*
X88635494Y-6762780D01*
X88568327Y-6769395D01*
X88502203Y-6789454D01*
X88482144Y-6795539D01*
X88402718Y-6837993D01*
X88350546Y-6880809D01*
X88350540Y-6880815D01*
X88333101Y-6895127D01*
X88318789Y-6912566D01*
X87014603Y-8216754D01*
X86997159Y-8231070D01*
X86982842Y-8248515D01*
X86982841Y-8248516D01*
X86940024Y-8300688D01*
X86907257Y-8361993D01*
X86897571Y-8380114D01*
X86873213Y-8460411D01*
X86871427Y-8466297D01*
X86862600Y-8555923D01*
X86864812Y-8578383D01*
X86864811Y-12190678D01*
X85542694Y-13512797D01*
X35220506Y-13512797D01*
X33792316Y-12084608D01*
X33777995Y-12067158D01*
X33708378Y-12010024D01*
X33628951Y-11967570D01*
X33542769Y-11941426D01*
X33475602Y-11934811D01*
X33475592Y-11934811D01*
X33453142Y-11932600D01*
X33430692Y-11934811D01*
X21316164Y-11934811D01*
X21293714Y-11932600D01*
X21271264Y-11934811D01*
X21271254Y-11934811D01*
X21204087Y-11941426D01*
X21117905Y-11967570D01*
X21038478Y-12010024D01*
X20968861Y-12067158D01*
X20954544Y-12084603D01*
X17472593Y-15566555D01*
X17455148Y-15580872D01*
X17440831Y-15598317D01*
X17440830Y-15598318D01*
X17398014Y-15650489D01*
X17355560Y-15729916D01*
X17331482Y-15809290D01*
X17329416Y-15816099D01*
X17320589Y-15905725D01*
X17322801Y-15928184D01*
X17322801Y-16028472D01*
X17208508Y-16075813D01*
X17010901Y-16207850D01*
X16842850Y-16375901D01*
X16710813Y-16573508D01*
X16619865Y-16793077D01*
X16573500Y-17026170D01*
X16573500Y-17263830D01*
X16619865Y-17496923D01*
X16710813Y-17716492D01*
X16842850Y-17914099D01*
X17010901Y-18082150D01*
X17208508Y-18214187D01*
X17428077Y-18305135D01*
X17661170Y-18351500D01*
X17898830Y-18351500D01*
X18131923Y-18305135D01*
X18351492Y-18214187D01*
X18549099Y-18082150D01*
X18717150Y-17914099D01*
X18849187Y-17716492D01*
X18940135Y-17496923D01*
X18986500Y-17263830D01*
X18986500Y-17026170D01*
X18940135Y-16793077D01*
X18849187Y-16573508D01*
X18717150Y-16375901D01*
X18549099Y-16207850D01*
X18351492Y-16075813D01*
X18284315Y-16047987D01*
X21483092Y-12849211D01*
X22729936Y-12849211D01*
X20012597Y-15566551D01*
X19995147Y-15580872D01*
X19938013Y-15650490D01*
X19895559Y-15729917D01*
X19869415Y-15816099D01*
X19862800Y-15883266D01*
X19862800Y-15883275D01*
X19860589Y-15905725D01*
X19862800Y-15928175D01*
X19862800Y-16028472D01*
X19748508Y-16075813D01*
X19550901Y-16207850D01*
X19382850Y-16375901D01*
X19250813Y-16573508D01*
X19159865Y-16793077D01*
X19113500Y-17026170D01*
X19113500Y-17263830D01*
X19159865Y-17496923D01*
X19250813Y-17716492D01*
X19382850Y-17914099D01*
X19550901Y-18082150D01*
X19748508Y-18214187D01*
X19968077Y-18305135D01*
X20201170Y-18351500D01*
X20438830Y-18351500D01*
X20671923Y-18305135D01*
X20891492Y-18214187D01*
X21089099Y-18082150D01*
X21257150Y-17914099D01*
X21389187Y-17716492D01*
X21480135Y-17496923D01*
X21526500Y-17263830D01*
X21526500Y-17026170D01*
X21480135Y-16793077D01*
X21389187Y-16573508D01*
X21257150Y-16375901D01*
X21089099Y-16207850D01*
X20891492Y-16075813D01*
X20824315Y-16047987D01*
X23569081Y-13303222D01*
X33075485Y-13303222D01*
X33171320Y-13399057D01*
X33169441Y-13397515D01*
X33090015Y-13355062D01*
X33072310Y-13349691D01*
X33003833Y-13328918D01*
X32936666Y-13322303D01*
X32914206Y-13320091D01*
X32891747Y-13322303D01*
X29718234Y-13322300D01*
X25008674Y-13322300D01*
X24986224Y-13320089D01*
X24963774Y-13322300D01*
X24963765Y-13322300D01*
X24896598Y-13328915D01*
X24810416Y-13355059D01*
X24778321Y-13372214D01*
X24730988Y-13397513D01*
X24678817Y-13440330D01*
X24661372Y-13454647D01*
X24647055Y-13472092D01*
X22552593Y-15566555D01*
X22535148Y-15580872D01*
X22520831Y-15598317D01*
X22520830Y-15598318D01*
X22478014Y-15650489D01*
X22435560Y-15729916D01*
X22411482Y-15809290D01*
X22409416Y-15816099D01*
X22400589Y-15905725D01*
X22402801Y-15928184D01*
X22402801Y-16028472D01*
X22288508Y-16075813D01*
X22090901Y-16207850D01*
X21922850Y-16375901D01*
X21790813Y-16573508D01*
X21699865Y-16793077D01*
X21653500Y-17026170D01*
X21653500Y-17263830D01*
X21699865Y-17496923D01*
X21790813Y-17716492D01*
X21922850Y-17914099D01*
X22090901Y-18082150D01*
X22288508Y-18214187D01*
X22508077Y-18305135D01*
X22741170Y-18351500D01*
X22978830Y-18351500D01*
X23211923Y-18305135D01*
X23431492Y-18214187D01*
X23629099Y-18082150D01*
X23797150Y-17914099D01*
X23929187Y-17716492D01*
X24020135Y-17496923D01*
X24066500Y-17263830D01*
X24066500Y-17026170D01*
X24020135Y-16793077D01*
X23929187Y-16573508D01*
X23797150Y-16375901D01*
X23629099Y-16207850D01*
X23431492Y-16075813D01*
X23364315Y-16047987D01*
X25175603Y-14236700D01*
X26422446Y-14236700D01*
X25092592Y-15566555D01*
X25075148Y-15580872D01*
X25060831Y-15598317D01*
X25060830Y-15598318D01*
X25018014Y-15650489D01*
X24975560Y-15729916D01*
X24951482Y-15809290D01*
X24949416Y-15816099D01*
X24940589Y-15905725D01*
X24942801Y-15928184D01*
X24942801Y-16028472D01*
X24828508Y-16075813D01*
X24630901Y-16207850D01*
X24462850Y-16375901D01*
X24330813Y-16573508D01*
X24239865Y-16793077D01*
X24193500Y-17026170D01*
X24193500Y-17263830D01*
X24239865Y-17496923D01*
X24330813Y-17716492D01*
X24462850Y-17914099D01*
X24630901Y-18082150D01*
X24828508Y-18214187D01*
X25048077Y-18305135D01*
X25281170Y-18351500D01*
X25518830Y-18351500D01*
X25751923Y-18305135D01*
X25971492Y-18214187D01*
X26169099Y-18082150D01*
X26337150Y-17914099D01*
X26469187Y-17716492D01*
X26560135Y-17496923D01*
X26606500Y-17263830D01*
X26606500Y-17026170D01*
X26560135Y-16793077D01*
X26469187Y-16573508D01*
X26337150Y-16375901D01*
X26169099Y-16207850D01*
X25971492Y-16075813D01*
X25904315Y-16047987D01*
X27261594Y-14690710D01*
X29856247Y-14690711D01*
X29853840Y-14690948D01*
X29767658Y-14717092D01*
X29730973Y-14736700D01*
X29688230Y-14759546D01*
X29636059Y-14802363D01*
X29618614Y-14816680D01*
X29604297Y-14834125D01*
X28508896Y-15929527D01*
X28508891Y-15929531D01*
X28406216Y-16032206D01*
X28291923Y-15984865D01*
X28058830Y-15938500D01*
X27821170Y-15938500D01*
X27588077Y-15984865D01*
X27368508Y-16075813D01*
X27170901Y-16207850D01*
X27002850Y-16375901D01*
X26870813Y-16573508D01*
X26779865Y-16793077D01*
X26733500Y-17026170D01*
X26733500Y-17263830D01*
X26779865Y-17496923D01*
X26870813Y-17716492D01*
X27002850Y-17914099D01*
X27170901Y-18082150D01*
X27368508Y-18214187D01*
X27588077Y-18305135D01*
X27821170Y-18351500D01*
X28058830Y-18351500D01*
X28291923Y-18305135D01*
X28511492Y-18214187D01*
X28709099Y-18082150D01*
X28877150Y-17914099D01*
X29009187Y-17716492D01*
X29100135Y-17496923D01*
X29146500Y-17263830D01*
X29146500Y-17026170D01*
X29100135Y-16793077D01*
X29052794Y-16678784D01*
X29155469Y-16576109D01*
X29155473Y-16576104D01*
X30132845Y-15598733D01*
X32019943Y-15598733D01*
X33112079Y-16690871D01*
X31597800Y-16690871D01*
X31549187Y-16573508D01*
X31417150Y-16375901D01*
X31249099Y-16207850D01*
X31051492Y-16075813D01*
X30831923Y-15984865D01*
X30598830Y-15938500D01*
X30361170Y-15938500D01*
X30128077Y-15984865D01*
X29908508Y-16075813D01*
X29710901Y-16207850D01*
X29542850Y-16375901D01*
X29410813Y-16573508D01*
X29319865Y-16793077D01*
X29273500Y-17026170D01*
X29273500Y-17263830D01*
X29319865Y-17496923D01*
X29410813Y-17716492D01*
X29542850Y-17914099D01*
X29710901Y-18082150D01*
X29908508Y-18214187D01*
X30128077Y-18305135D01*
X30361170Y-18351500D01*
X30598830Y-18351500D01*
X30831923Y-18305135D01*
X31051492Y-18214187D01*
X31249099Y-18082150D01*
X31417150Y-17914099D01*
X31549187Y-17716492D01*
X31595256Y-17605271D01*
X87809115Y-17605271D01*
X87831565Y-17607482D01*
X87854015Y-17605271D01*
X87854025Y-17605271D01*
X87921192Y-17598656D01*
X88007374Y-17572512D01*
X88086801Y-17530058D01*
X88156418Y-17472924D01*
X88170739Y-17455474D01*
X89949713Y-15676500D01*
X91572542Y-15676500D01*
X91582350Y-15776085D01*
X91611398Y-15871844D01*
X91658570Y-15960095D01*
X91722052Y-16037448D01*
X91799405Y-16100930D01*
X91887656Y-16148102D01*
X91983415Y-16177150D01*
X92083000Y-16186958D01*
X92392500Y-16184500D01*
X92519500Y-16057500D01*
X92519500Y-15240000D01*
X92646500Y-15240000D01*
X92646500Y-16057500D01*
X92773500Y-16184500D01*
X93083000Y-16186958D01*
X93182585Y-16177150D01*
X93278344Y-16148102D01*
X93366595Y-16100930D01*
X93443948Y-16037448D01*
X93507430Y-15960095D01*
X93554602Y-15871844D01*
X93583650Y-15776085D01*
X93593458Y-15676500D01*
X93591000Y-15367000D01*
X93464000Y-15240000D01*
X92646500Y-15240000D01*
X92519500Y-15240000D01*
X91702000Y-15240000D01*
X91575000Y-15367000D01*
X91572542Y-15676500D01*
X89949713Y-15676500D01*
X91643514Y-13982700D01*
X91752800Y-13982700D01*
X91752800Y-13988268D01*
X91784704Y-14148660D01*
X91822438Y-14239758D01*
X91799405Y-14252070D01*
X91722052Y-14315552D01*
X91658570Y-14392905D01*
X91611398Y-14481156D01*
X91582350Y-14576915D01*
X91572542Y-14676500D01*
X91575000Y-14986000D01*
X91702000Y-15113000D01*
X92519500Y-15113000D01*
X92519500Y-15093000D01*
X92646500Y-15093000D01*
X92646500Y-15113000D01*
X93464000Y-15113000D01*
X93591000Y-14986000D01*
X93593458Y-14676500D01*
X93583650Y-14576915D01*
X93554602Y-14481156D01*
X93507430Y-14392905D01*
X93443948Y-14315552D01*
X93366595Y-14252070D01*
X93343562Y-14239758D01*
X93381296Y-14148660D01*
X93413200Y-13988268D01*
X93413200Y-13824732D01*
X93381296Y-13664340D01*
X93318714Y-13513253D01*
X93227858Y-13377278D01*
X93122080Y-13271500D01*
X93227858Y-13165722D01*
X93318714Y-13029747D01*
X93381296Y-12878660D01*
X93413200Y-12718268D01*
X93413200Y-12554732D01*
X93381296Y-12394340D01*
X93318714Y-12243253D01*
X93227858Y-12107278D01*
X93122080Y-12001500D01*
X93227858Y-11895722D01*
X93318714Y-11759747D01*
X93381296Y-11608660D01*
X93413200Y-11448268D01*
X93413200Y-11284732D01*
X93381296Y-11124340D01*
X93318714Y-10973253D01*
X93227858Y-10837278D01*
X93122080Y-10731500D01*
X93227858Y-10625722D01*
X93318714Y-10489747D01*
X93381296Y-10338660D01*
X93413200Y-10178268D01*
X93413200Y-10014732D01*
X93381296Y-9854340D01*
X93318714Y-9703253D01*
X93227858Y-9567278D01*
X93122080Y-9461500D01*
X93227858Y-9355722D01*
X93318714Y-9219747D01*
X93381296Y-9068660D01*
X93413200Y-8908268D01*
X93413200Y-8744732D01*
X93381296Y-8584340D01*
X93318714Y-8433253D01*
X93227858Y-8297278D01*
X93122080Y-8191500D01*
X93227858Y-8085722D01*
X93318714Y-7949747D01*
X93381296Y-7798660D01*
X93413200Y-7638268D01*
X93413200Y-7474732D01*
X93381296Y-7314340D01*
X93318714Y-7163253D01*
X93227858Y-7027278D01*
X93122080Y-6921500D01*
X93227858Y-6815722D01*
X93318714Y-6679747D01*
X93381296Y-6528660D01*
X93413200Y-6368268D01*
X93413200Y-6204732D01*
X93381296Y-6044340D01*
X93318714Y-5893253D01*
X93227858Y-5757278D01*
X93122080Y-5651500D01*
X93227858Y-5545722D01*
X93318714Y-5409747D01*
X93381296Y-5258660D01*
X93413200Y-5098268D01*
X93413200Y-4934732D01*
X93381296Y-4774340D01*
X93318714Y-4623253D01*
X93239626Y-4504890D01*
X93312503Y-4442125D01*
X93434196Y-4286440D01*
X93523178Y-4110005D01*
X93566679Y-3966591D01*
X93461709Y-3810000D01*
X92646500Y-3810000D01*
X92646500Y-3830000D01*
X92519500Y-3830000D01*
X92519500Y-3810000D01*
X91704291Y-3810000D01*
X91599321Y-3966591D01*
X91642822Y-4110005D01*
X91731804Y-4286440D01*
X91853497Y-4442125D01*
X91926374Y-4504890D01*
X91847286Y-4623253D01*
X91784704Y-4774340D01*
X91752800Y-4934732D01*
X91752800Y-5003800D01*
X91685810Y-5003800D01*
X90208419Y-3526409D01*
X91599321Y-3526409D01*
X91704291Y-3683000D01*
X92519500Y-3683000D01*
X92519500Y-2867499D01*
X92646500Y-2867499D01*
X92646500Y-3683000D01*
X93461709Y-3683000D01*
X93566679Y-3526409D01*
X93523178Y-3382995D01*
X93434196Y-3206560D01*
X93312503Y-3050875D01*
X93162776Y-2921922D01*
X92990769Y-2824657D01*
X92803091Y-2762818D01*
X92646500Y-2867499D01*
X92519500Y-2867499D01*
X92362909Y-2762818D01*
X92175231Y-2824657D01*
X92003224Y-2921922D01*
X91853497Y-3050875D01*
X91731804Y-3206560D01*
X91642822Y-3382995D01*
X91599321Y-3526409D01*
X90208419Y-3526409D01*
X88397090Y-1715081D01*
X88382773Y-1697636D01*
X88313156Y-1640502D01*
X88233729Y-1598048D01*
X88147547Y-1571904D01*
X88080380Y-1565289D01*
X88080371Y-1565289D01*
X88057921Y-1563078D01*
X88035471Y-1565289D01*
X81065040Y-1565291D01*
X81042578Y-1563079D01*
X80952951Y-1571905D01*
X80866768Y-1598049D01*
X80787342Y-1640503D01*
X80735170Y-1683319D01*
X80735159Y-1683330D01*
X80717725Y-1697638D01*
X80703417Y-1715072D01*
X70293181Y-12125310D01*
X38997388Y-12125310D01*
X36278376Y-9406298D01*
X40069800Y-9406298D01*
X40069800Y-9643702D01*
X40116116Y-9876544D01*
X40206966Y-10095876D01*
X40338860Y-10293270D01*
X40506730Y-10461140D01*
X40704124Y-10593034D01*
X40923456Y-10683884D01*
X41156298Y-10730200D01*
X41393702Y-10730200D01*
X41626544Y-10683884D01*
X41845876Y-10593034D01*
X42043270Y-10461140D01*
X42211140Y-10293270D01*
X42343034Y-10095876D01*
X42433884Y-9876544D01*
X42480200Y-9643702D01*
X42480200Y-9406298D01*
X42458280Y-9296096D01*
X44030900Y-9296096D01*
X44030900Y-9753904D01*
X44120214Y-10202915D01*
X44295410Y-10625874D01*
X44549754Y-11006527D01*
X44873473Y-11330246D01*
X45254126Y-11584590D01*
X45677085Y-11759786D01*
X46126096Y-11849100D01*
X46583904Y-11849100D01*
X47032915Y-11759786D01*
X47455874Y-11584590D01*
X47836527Y-11330246D01*
X48160246Y-11006527D01*
X48414590Y-10625874D01*
X48589786Y-10202915D01*
X48679100Y-9753904D01*
X48679100Y-9406298D01*
X50229800Y-9406298D01*
X50229800Y-9643702D01*
X50276116Y-9876544D01*
X50366966Y-10095876D01*
X50498860Y-10293270D01*
X50666730Y-10461140D01*
X50864124Y-10593034D01*
X51083456Y-10683884D01*
X51316298Y-10730200D01*
X51553702Y-10730200D01*
X51786544Y-10683884D01*
X52005876Y-10593034D01*
X52203270Y-10461140D01*
X52371140Y-10293270D01*
X52503034Y-10095876D01*
X52593884Y-9876544D01*
X52640200Y-9643702D01*
X52640200Y-9406298D01*
X59119800Y-9406298D01*
X59119800Y-9643702D01*
X59166116Y-9876544D01*
X59256966Y-10095876D01*
X59388860Y-10293270D01*
X59556730Y-10461140D01*
X59754124Y-10593034D01*
X59973456Y-10683884D01*
X60206298Y-10730200D01*
X60443702Y-10730200D01*
X60676544Y-10683884D01*
X60895876Y-10593034D01*
X61093270Y-10461140D01*
X61261140Y-10293270D01*
X61393034Y-10095876D01*
X61483884Y-9876544D01*
X61530200Y-9643702D01*
X61530200Y-9406298D01*
X61508280Y-9296096D01*
X63080900Y-9296096D01*
X63080900Y-9753904D01*
X63170214Y-10202915D01*
X63345410Y-10625874D01*
X63599754Y-11006527D01*
X63923473Y-11330246D01*
X64304126Y-11584590D01*
X64727085Y-11759786D01*
X65176096Y-11849100D01*
X65633904Y-11849100D01*
X66082915Y-11759786D01*
X66505874Y-11584590D01*
X66886527Y-11330246D01*
X67210246Y-11006527D01*
X67464590Y-10625874D01*
X67639786Y-10202915D01*
X67729100Y-9753904D01*
X67729100Y-9406298D01*
X69279800Y-9406298D01*
X69279800Y-9643702D01*
X69326116Y-9876544D01*
X69416966Y-10095876D01*
X69548860Y-10293270D01*
X69716730Y-10461140D01*
X69914124Y-10593034D01*
X70133456Y-10683884D01*
X70366298Y-10730200D01*
X70603702Y-10730200D01*
X70836544Y-10683884D01*
X71055876Y-10593034D01*
X71253270Y-10461140D01*
X71421140Y-10293270D01*
X71553034Y-10095876D01*
X71643884Y-9876544D01*
X71690200Y-9643702D01*
X71690200Y-9406298D01*
X71643884Y-9173456D01*
X71553034Y-8954124D01*
X71421140Y-8756730D01*
X71253270Y-8588860D01*
X71055876Y-8456966D01*
X70836544Y-8366116D01*
X70603702Y-8319800D01*
X70366298Y-8319800D01*
X70133456Y-8366116D01*
X69914124Y-8456966D01*
X69716730Y-8588860D01*
X69548860Y-8756730D01*
X69416966Y-8954124D01*
X69326116Y-9173456D01*
X69279800Y-9406298D01*
X67729100Y-9406298D01*
X67729100Y-9296096D01*
X67639786Y-8847085D01*
X67464590Y-8424126D01*
X67210246Y-8043473D01*
X66886527Y-7719754D01*
X66505874Y-7465410D01*
X66082915Y-7290214D01*
X65633904Y-7200900D01*
X65176096Y-7200900D01*
X64727085Y-7290214D01*
X64304126Y-7465410D01*
X63923473Y-7719754D01*
X63599754Y-8043473D01*
X63345410Y-8424126D01*
X63170214Y-8847085D01*
X63080900Y-9296096D01*
X61508280Y-9296096D01*
X61483884Y-9173456D01*
X61393034Y-8954124D01*
X61261140Y-8756730D01*
X61093270Y-8588860D01*
X60895876Y-8456966D01*
X60676544Y-8366116D01*
X60443702Y-8319800D01*
X60206298Y-8319800D01*
X59973456Y-8366116D01*
X59754124Y-8456966D01*
X59556730Y-8588860D01*
X59388860Y-8756730D01*
X59256966Y-8954124D01*
X59166116Y-9173456D01*
X59119800Y-9406298D01*
X52640200Y-9406298D01*
X52593884Y-9173456D01*
X52503034Y-8954124D01*
X52371140Y-8756730D01*
X52203270Y-8588860D01*
X52005876Y-8456966D01*
X51786544Y-8366116D01*
X51553702Y-8319800D01*
X51316298Y-8319800D01*
X51083456Y-8366116D01*
X50864124Y-8456966D01*
X50666730Y-8588860D01*
X50498860Y-8756730D01*
X50366966Y-8954124D01*
X50276116Y-9173456D01*
X50229800Y-9406298D01*
X48679100Y-9406298D01*
X48679100Y-9296096D01*
X48589786Y-8847085D01*
X48414590Y-8424126D01*
X48160246Y-8043473D01*
X47836527Y-7719754D01*
X47455874Y-7465410D01*
X47032915Y-7290214D01*
X46583904Y-7200900D01*
X46126096Y-7200900D01*
X45677085Y-7290214D01*
X45254126Y-7465410D01*
X44873473Y-7719754D01*
X44549754Y-8043473D01*
X44295410Y-8424126D01*
X44120214Y-8847085D01*
X44030900Y-9296096D01*
X42458280Y-9296096D01*
X42433884Y-9173456D01*
X42343034Y-8954124D01*
X42211140Y-8756730D01*
X42043270Y-8588860D01*
X41845876Y-8456966D01*
X41626544Y-8366116D01*
X41393702Y-8319800D01*
X41156298Y-8319800D01*
X40923456Y-8366116D01*
X40704124Y-8456966D01*
X40506730Y-8588860D01*
X40338860Y-8756730D01*
X40206966Y-8954124D01*
X40116116Y-9173456D01*
X40069800Y-9406298D01*
X36278376Y-9406298D01*
X33713753Y-6841675D01*
X41089800Y-6841675D01*
X41089800Y-7128325D01*
X41145723Y-7409466D01*
X41255419Y-7674296D01*
X41414672Y-7912636D01*
X41617364Y-8115328D01*
X41855704Y-8274581D01*
X42120534Y-8384277D01*
X42401675Y-8440200D01*
X42688325Y-8440200D01*
X42969466Y-8384277D01*
X43234296Y-8274581D01*
X43472636Y-8115328D01*
X43675328Y-7912636D01*
X43834581Y-7674296D01*
X43944277Y-7409466D01*
X44000200Y-7128325D01*
X44000200Y-6841675D01*
X60139800Y-6841675D01*
X60139800Y-7128325D01*
X60195723Y-7409466D01*
X60305419Y-7674296D01*
X60464672Y-7912636D01*
X60667364Y-8115328D01*
X60905704Y-8274581D01*
X61170534Y-8384277D01*
X61451675Y-8440200D01*
X61738325Y-8440200D01*
X62019466Y-8384277D01*
X62284296Y-8274581D01*
X62522636Y-8115328D01*
X62725328Y-7912636D01*
X62884581Y-7674296D01*
X62994277Y-7409466D01*
X63050200Y-7128325D01*
X63050200Y-6841675D01*
X62994277Y-6560534D01*
X62884581Y-6295704D01*
X62725328Y-6057364D01*
X62522636Y-5854672D01*
X62284296Y-5695419D01*
X62019466Y-5585723D01*
X61738325Y-5529800D01*
X61451675Y-5529800D01*
X61170534Y-5585723D01*
X60905704Y-5695419D01*
X60667364Y-5854672D01*
X60464672Y-6057364D01*
X60305419Y-6295704D01*
X60195723Y-6560534D01*
X60139800Y-6841675D01*
X44000200Y-6841675D01*
X43944277Y-6560534D01*
X43834581Y-6295704D01*
X43675328Y-6057364D01*
X43472636Y-5854672D01*
X43234296Y-5695419D01*
X42969466Y-5585723D01*
X42688325Y-5529800D01*
X42401675Y-5529800D01*
X42120534Y-5585723D01*
X41855704Y-5695419D01*
X41617364Y-5854672D01*
X41414672Y-6057364D01*
X41255419Y-6295704D01*
X41145723Y-6560534D01*
X41089800Y-6841675D01*
X33713753Y-6841675D01*
X33403652Y-6531575D01*
X33389331Y-6514125D01*
X33319714Y-6456991D01*
X33240287Y-6414537D01*
X33154105Y-6388393D01*
X33086938Y-6381778D01*
X33086928Y-6381778D01*
X33064478Y-6379567D01*
X33042028Y-6381778D01*
X29527426Y-6381778D01*
X27447323Y-4301675D01*
X28389800Y-4301675D01*
X28389800Y-4588325D01*
X28445723Y-4869466D01*
X28555419Y-5134296D01*
X28714672Y-5372636D01*
X28917364Y-5575328D01*
X29155704Y-5734581D01*
X29420534Y-5844277D01*
X29701675Y-5900200D01*
X29988325Y-5900200D01*
X30269466Y-5844277D01*
X30534296Y-5734581D01*
X30772636Y-5575328D01*
X30975328Y-5372636D01*
X31134581Y-5134296D01*
X31244277Y-4869466D01*
X31300200Y-4588325D01*
X31300200Y-4301675D01*
X47439800Y-4301675D01*
X47439800Y-4588325D01*
X47495723Y-4869466D01*
X47605419Y-5134296D01*
X47764672Y-5372636D01*
X47967364Y-5575328D01*
X48205704Y-5734581D01*
X48470534Y-5844277D01*
X48751675Y-5900200D01*
X49038325Y-5900200D01*
X49319466Y-5844277D01*
X49584296Y-5734581D01*
X49822636Y-5575328D01*
X50025328Y-5372636D01*
X50184581Y-5134296D01*
X50294277Y-4869466D01*
X50350200Y-4588325D01*
X50350200Y-4301675D01*
X66489800Y-4301675D01*
X66489800Y-4588325D01*
X66545723Y-4869466D01*
X66655419Y-5134296D01*
X66814672Y-5372636D01*
X67017364Y-5575328D01*
X67255704Y-5734581D01*
X67520534Y-5844277D01*
X67801675Y-5900200D01*
X68088325Y-5900200D01*
X68369466Y-5844277D01*
X68634296Y-5734581D01*
X68872636Y-5575328D01*
X69075328Y-5372636D01*
X69234581Y-5134296D01*
X69344277Y-4869466D01*
X69400200Y-4588325D01*
X69400200Y-4301675D01*
X69344277Y-4020534D01*
X69234581Y-3755704D01*
X69075328Y-3517364D01*
X68872636Y-3314672D01*
X68634296Y-3155419D01*
X68369466Y-3045723D01*
X68088325Y-2989800D01*
X67801675Y-2989800D01*
X67520534Y-3045723D01*
X67255704Y-3155419D01*
X67017364Y-3314672D01*
X66814672Y-3517364D01*
X66655419Y-3755704D01*
X66545723Y-4020534D01*
X66489800Y-4301675D01*
X50350200Y-4301675D01*
X50294277Y-4020534D01*
X50184581Y-3755704D01*
X50025328Y-3517364D01*
X49822636Y-3314672D01*
X49584296Y-3155419D01*
X49319466Y-3045723D01*
X49038325Y-2989800D01*
X48751675Y-2989800D01*
X48470534Y-3045723D01*
X48205704Y-3155419D01*
X47967364Y-3314672D01*
X47764672Y-3517364D01*
X47605419Y-3755704D01*
X47495723Y-4020534D01*
X47439800Y-4301675D01*
X31300200Y-4301675D01*
X31244277Y-4020534D01*
X31134581Y-3755704D01*
X30975328Y-3517364D01*
X30772636Y-3314672D01*
X30534296Y-3155419D01*
X30428266Y-3111500D01*
X30598830Y-3111500D01*
X30831923Y-3065135D01*
X31051492Y-2974187D01*
X31249099Y-2842150D01*
X31417150Y-2674099D01*
X31549187Y-2476492D01*
X31640135Y-2256923D01*
X31686500Y-2023830D01*
X31686500Y-1786170D01*
X31640135Y-1553077D01*
X31549187Y-1333508D01*
X31417150Y-1135901D01*
X31249099Y-967850D01*
X31051492Y-835813D01*
X30831923Y-744865D01*
X30598830Y-698500D01*
X30361170Y-698500D01*
X30128077Y-744865D01*
X29908508Y-835813D01*
X29710901Y-967850D01*
X29542850Y-1135901D01*
X29410813Y-1333508D01*
X29319865Y-1553077D01*
X29273500Y-1786170D01*
X29273500Y-2023830D01*
X29319865Y-2256923D01*
X29410813Y-2476492D01*
X29542850Y-2674099D01*
X29710901Y-2842150D01*
X29908508Y-2974187D01*
X29946201Y-2989800D01*
X29701675Y-2989800D01*
X29420534Y-3045723D01*
X29155704Y-3155419D01*
X28917364Y-3314672D01*
X28714672Y-3517364D01*
X28555419Y-3755704D01*
X28445723Y-4020534D01*
X28389800Y-4301675D01*
X27447323Y-4301675D01*
X27156244Y-4010597D01*
X27141923Y-3993147D01*
X27072306Y-3936013D01*
X26992879Y-3893559D01*
X26906697Y-3867415D01*
X26839530Y-3860800D01*
X26839520Y-3860800D01*
X26817070Y-3858589D01*
X26794620Y-3860800D01*
X22374450Y-3860800D01*
X22352000Y-3858589D01*
X22329550Y-3860800D01*
X22329540Y-3860800D01*
X22262373Y-3867415D01*
X22176191Y-3893559D01*
X22096764Y-3936013D01*
X22027147Y-3993147D01*
X22012830Y-4010592D01*
X19104575Y-6918848D01*
X19087125Y-6933169D01*
X19029991Y-7002787D01*
X18987537Y-7082214D01*
X18961393Y-7168396D01*
X18954778Y-7235563D01*
X18954778Y-7235572D01*
X18952567Y-7258022D01*
X18954778Y-7280472D01*
X18954779Y-10878643D01*
X15142624Y-14690799D01*
X13480175Y-14690799D01*
X13457725Y-14688588D01*
X13435275Y-14690799D01*
X13435266Y-14690799D01*
X13368099Y-14697414D01*
X13281917Y-14723558D01*
X13257330Y-14736700D01*
X13202489Y-14766012D01*
X13158197Y-14802363D01*
X13132873Y-14823146D01*
X13118556Y-14840591D01*
X12392597Y-15566551D01*
X12375147Y-15580872D01*
X12318013Y-15650490D01*
X12275559Y-15729917D01*
X12249415Y-15816099D01*
X12242800Y-15883266D01*
X12242800Y-15883275D01*
X12240589Y-15905725D01*
X12242800Y-15928175D01*
X12242800Y-16028472D01*
X12128508Y-16075813D01*
X11930901Y-16207850D01*
X11762850Y-16375901D01*
X11630813Y-16573508D01*
X11539865Y-16793077D01*
X11493500Y-17026170D01*
X11366500Y-17026170D01*
X11320135Y-16793077D01*
X11229187Y-16573508D01*
X11097150Y-16375901D01*
X10929099Y-16207850D01*
X10731492Y-16075813D01*
X10511923Y-15984865D01*
X10278830Y-15938500D01*
X10041170Y-15938500D01*
X9808077Y-15984865D01*
X9588508Y-16075813D01*
X9390901Y-16207850D01*
X9222850Y-16375901D01*
X9090813Y-16573508D01*
X8999865Y-16793077D01*
X8953500Y-17026170D01*
X8826500Y-17026170D01*
X8780135Y-16793077D01*
X8689187Y-16573508D01*
X8557150Y-16375901D01*
X8389099Y-16207850D01*
X8191492Y-16075813D01*
X7971923Y-15984865D01*
X7738830Y-15938500D01*
X7501170Y-15938500D01*
X7268077Y-15984865D01*
X7048508Y-16075813D01*
X6850901Y-16207850D01*
X6682850Y-16375901D01*
X6550813Y-16573508D01*
X6459865Y-16793077D01*
X6443567Y-16875011D01*
X6442507Y-16864909D01*
X6361684Y-16604480D01*
X6241492Y-16379616D01*
X6017554Y-16297248D01*
X5169803Y-17145000D01*
X4990197Y-17145000D01*
X4142446Y-16297248D01*
X3918508Y-16379616D01*
X3791506Y-16620919D01*
X3716339Y-16874542D01*
X3700135Y-16793077D01*
X3609187Y-16573508D01*
X3477150Y-16375901D01*
X3309099Y-16207850D01*
X3308495Y-16207446D01*
X4232248Y-16207446D01*
X5080000Y-17055197D01*
X5927752Y-16207446D01*
X5845384Y-15983508D01*
X5604081Y-15856506D01*
X5342639Y-15779022D01*
X5071103Y-15754030D01*
X4799909Y-15782493D01*
X4539480Y-15863316D01*
X4314616Y-15983508D01*
X4232248Y-16207446D01*
X3308495Y-16207446D01*
X3111492Y-16075813D01*
X2891923Y-15984865D01*
X2658830Y-15938500D01*
X2421170Y-15938500D01*
X2188077Y-15984865D01*
X1968508Y-16075813D01*
X1770901Y-16207850D01*
X1602850Y-16375901D01*
X1470813Y-16573508D01*
X1379865Y-16793077D01*
X1333500Y-17026170D01*
X355200Y-17026170D01*
X355200Y-9406298D01*
X1969800Y-9406298D01*
X1969800Y-9643702D01*
X2016116Y-9876544D01*
X2106966Y-10095876D01*
X2238860Y-10293270D01*
X2406730Y-10461140D01*
X2604124Y-10593034D01*
X2823456Y-10683884D01*
X3056298Y-10730200D01*
X3293702Y-10730200D01*
X3526544Y-10683884D01*
X3745876Y-10593034D01*
X3943270Y-10461140D01*
X4111140Y-10293270D01*
X4243034Y-10095876D01*
X4333884Y-9876544D01*
X4380200Y-9643702D01*
X4380200Y-9406298D01*
X4358280Y-9296096D01*
X5930900Y-9296096D01*
X5930900Y-9753904D01*
X6020214Y-10202915D01*
X6195410Y-10625874D01*
X6449754Y-11006527D01*
X6773473Y-11330246D01*
X7154126Y-11584590D01*
X7577085Y-11759786D01*
X8026096Y-11849100D01*
X8483904Y-11849100D01*
X8932915Y-11759786D01*
X9355874Y-11584590D01*
X9736527Y-11330246D01*
X10060246Y-11006527D01*
X10314590Y-10625874D01*
X10489786Y-10202915D01*
X10579100Y-9753904D01*
X10579100Y-9406298D01*
X12129800Y-9406298D01*
X12129800Y-9643702D01*
X12176116Y-9876544D01*
X12266966Y-10095876D01*
X12398860Y-10293270D01*
X12566730Y-10461140D01*
X12764124Y-10593034D01*
X12983456Y-10683884D01*
X13216298Y-10730200D01*
X13453702Y-10730200D01*
X13686544Y-10683884D01*
X13905876Y-10593034D01*
X14103270Y-10461140D01*
X14271140Y-10293270D01*
X14403034Y-10095876D01*
X14493884Y-9876544D01*
X14540200Y-9643702D01*
X14540200Y-9406298D01*
X14493884Y-9173456D01*
X14403034Y-8954124D01*
X14271140Y-8756730D01*
X14103270Y-8588860D01*
X13905876Y-8456966D01*
X13686544Y-8366116D01*
X13453702Y-8319800D01*
X13216298Y-8319800D01*
X12983456Y-8366116D01*
X12764124Y-8456966D01*
X12566730Y-8588860D01*
X12398860Y-8756730D01*
X12266966Y-8954124D01*
X12176116Y-9173456D01*
X12129800Y-9406298D01*
X10579100Y-9406298D01*
X10579100Y-9296096D01*
X10489786Y-8847085D01*
X10314590Y-8424126D01*
X10060246Y-8043473D01*
X9736527Y-7719754D01*
X9355874Y-7465410D01*
X8932915Y-7290214D01*
X8483904Y-7200900D01*
X8026096Y-7200900D01*
X7577085Y-7290214D01*
X7154126Y-7465410D01*
X6773473Y-7719754D01*
X6449754Y-8043473D01*
X6195410Y-8424126D01*
X6020214Y-8847085D01*
X5930900Y-9296096D01*
X4358280Y-9296096D01*
X4333884Y-9173456D01*
X4243034Y-8954124D01*
X4111140Y-8756730D01*
X3943270Y-8588860D01*
X3745876Y-8456966D01*
X3526544Y-8366116D01*
X3293702Y-8319800D01*
X3056298Y-8319800D01*
X2823456Y-8366116D01*
X2604124Y-8456966D01*
X2406730Y-8588860D01*
X2238860Y-8756730D01*
X2106966Y-8954124D01*
X2016116Y-9173456D01*
X1969800Y-9406298D01*
X355200Y-9406298D01*
X355200Y-6841675D01*
X2989800Y-6841675D01*
X2989800Y-7128325D01*
X3045723Y-7409466D01*
X3155419Y-7674296D01*
X3314672Y-7912636D01*
X3517364Y-8115328D01*
X3755704Y-8274581D01*
X4020534Y-8384277D01*
X4301675Y-8440200D01*
X4588325Y-8440200D01*
X4869466Y-8384277D01*
X5134296Y-8274581D01*
X5372636Y-8115328D01*
X5575328Y-7912636D01*
X5734581Y-7674296D01*
X5844277Y-7409466D01*
X5900200Y-7128325D01*
X5900200Y-6841675D01*
X5844277Y-6560534D01*
X5734581Y-6295704D01*
X5575328Y-6057364D01*
X5372636Y-5854672D01*
X5134296Y-5695419D01*
X4869466Y-5585723D01*
X4588325Y-5529800D01*
X4301675Y-5529800D01*
X4020534Y-5585723D01*
X3755704Y-5695419D01*
X3517364Y-5854672D01*
X3314672Y-6057364D01*
X3155419Y-6295704D01*
X3045723Y-6560534D01*
X2989800Y-6841675D01*
X355200Y-6841675D01*
X355200Y-1466850D01*
X1331903Y-1466850D01*
X1331903Y-2343150D01*
X1346697Y-2493359D01*
X1390512Y-2637796D01*
X1461662Y-2770910D01*
X1557415Y-2887585D01*
X1674090Y-2983338D01*
X1807204Y-3054488D01*
X1951641Y-3098303D01*
X2101850Y-3113097D01*
X2978150Y-3113097D01*
X3128359Y-3098303D01*
X3272796Y-3054488D01*
X3405910Y-2983338D01*
X3522585Y-2887585D01*
X3618338Y-2770910D01*
X3689488Y-2637796D01*
X3733303Y-2493359D01*
X3748097Y-2343150D01*
X3748097Y-1786170D01*
X3873500Y-1786170D01*
X3873500Y-2023830D01*
X3919865Y-2256923D01*
X4010813Y-2476492D01*
X4142850Y-2674099D01*
X4310901Y-2842150D01*
X4508508Y-2974187D01*
X4728077Y-3065135D01*
X4961170Y-3111500D01*
X5198830Y-3111500D01*
X5431923Y-3065135D01*
X5651492Y-2974187D01*
X5848494Y-2842554D01*
X6772248Y-2842554D01*
X6854616Y-3066492D01*
X7095919Y-3193494D01*
X7357361Y-3270978D01*
X7628897Y-3295970D01*
X7900091Y-3267507D01*
X8160520Y-3186684D01*
X8385384Y-3066492D01*
X8467752Y-2842554D01*
X9312248Y-2842554D01*
X9394616Y-3066492D01*
X9635919Y-3193494D01*
X9897361Y-3270978D01*
X9928472Y-3273841D01*
X9867364Y-3314672D01*
X9664672Y-3517364D01*
X9505419Y-3755704D01*
X9395723Y-4020534D01*
X9339800Y-4301675D01*
X9339800Y-4588325D01*
X9395723Y-4869466D01*
X9505419Y-5134296D01*
X9664672Y-5372636D01*
X9867364Y-5575328D01*
X10105704Y-5734581D01*
X10370534Y-5844277D01*
X10651675Y-5900200D01*
X10938325Y-5900200D01*
X11219466Y-5844277D01*
X11484296Y-5734581D01*
X11722636Y-5575328D01*
X11925328Y-5372636D01*
X12084581Y-5134296D01*
X12194277Y-4869466D01*
X12250200Y-4588325D01*
X12250200Y-4301675D01*
X12194277Y-4020534D01*
X12084581Y-3755704D01*
X11925328Y-3517364D01*
X11722636Y-3314672D01*
X11484296Y-3155419D01*
X11219466Y-3045723D01*
X10952552Y-2992630D01*
X11007752Y-2842554D01*
X10160000Y-1994803D01*
X9312248Y-2842554D01*
X8467752Y-2842554D01*
X7620000Y-1994803D01*
X6772248Y-2842554D01*
X5848494Y-2842554D01*
X5849099Y-2842150D01*
X6017150Y-2674099D01*
X6149187Y-2476492D01*
X6240135Y-2256923D01*
X6256433Y-2174989D01*
X6257493Y-2185091D01*
X6338316Y-2445520D01*
X6458508Y-2670384D01*
X6682446Y-2752752D01*
X7530197Y-1905000D01*
X7709803Y-1905000D01*
X8557554Y-2752752D01*
X8781492Y-2670384D01*
X8889162Y-2465812D01*
X8998508Y-2670384D01*
X9222446Y-2752752D01*
X10070197Y-1905000D01*
X10249803Y-1905000D01*
X11097554Y-2752752D01*
X11321492Y-2670384D01*
X11448494Y-2429081D01*
X11523661Y-2175458D01*
X11539865Y-2256923D01*
X11630813Y-2476492D01*
X11762850Y-2674099D01*
X11930901Y-2842150D01*
X12128508Y-2974187D01*
X12348077Y-3065135D01*
X12581170Y-3111500D01*
X12818830Y-3111500D01*
X13051923Y-3065135D01*
X13271492Y-2974187D01*
X13469099Y-2842150D01*
X13637150Y-2674099D01*
X13769187Y-2476492D01*
X13860135Y-2256923D01*
X13906500Y-2023830D01*
X13906500Y-1786170D01*
X14033500Y-1786170D01*
X14033500Y-2023830D01*
X14079865Y-2256923D01*
X14170813Y-2476492D01*
X14302850Y-2674099D01*
X14470901Y-2842150D01*
X14668508Y-2974187D01*
X14888077Y-3065135D01*
X15121170Y-3111500D01*
X15358830Y-3111500D01*
X15591923Y-3065135D01*
X15811492Y-2974187D01*
X16009099Y-2842150D01*
X16177150Y-2674099D01*
X16309187Y-2476492D01*
X16400135Y-2256923D01*
X16446500Y-2023830D01*
X16446500Y-1786170D01*
X16573500Y-1786170D01*
X16573500Y-2023830D01*
X16619865Y-2256923D01*
X16710813Y-2476492D01*
X16842850Y-2674099D01*
X17010901Y-2842150D01*
X17208508Y-2974187D01*
X17428077Y-3065135D01*
X17661170Y-3111500D01*
X17898830Y-3111500D01*
X18131923Y-3065135D01*
X18351492Y-2974187D01*
X18549099Y-2842150D01*
X18717150Y-2674099D01*
X18849187Y-2476492D01*
X18940135Y-2256923D01*
X18986500Y-2023830D01*
X18986500Y-1786170D01*
X19113500Y-1786170D01*
X19113500Y-2023830D01*
X19159865Y-2256923D01*
X19250813Y-2476492D01*
X19382850Y-2674099D01*
X19550901Y-2842150D01*
X19748508Y-2974187D01*
X19968077Y-3065135D01*
X20201170Y-3111500D01*
X20438830Y-3111500D01*
X20671923Y-3065135D01*
X20891492Y-2974187D01*
X21089099Y-2842150D01*
X21257150Y-2674099D01*
X21389187Y-2476492D01*
X21480135Y-2256923D01*
X21526500Y-2023830D01*
X21526500Y-1786170D01*
X21653500Y-1786170D01*
X21653500Y-2023830D01*
X21699865Y-2256923D01*
X21790813Y-2476492D01*
X21922850Y-2674099D01*
X22090901Y-2842150D01*
X22288508Y-2974187D01*
X22508077Y-3065135D01*
X22741170Y-3111500D01*
X22978830Y-3111500D01*
X23211923Y-3065135D01*
X23431492Y-2974187D01*
X23629099Y-2842150D01*
X23797150Y-2674099D01*
X23929187Y-2476492D01*
X24020135Y-2256923D01*
X24066500Y-2023830D01*
X24066500Y-1786170D01*
X24193500Y-1786170D01*
X24193500Y-2023830D01*
X24239865Y-2256923D01*
X24330813Y-2476492D01*
X24462850Y-2674099D01*
X24630901Y-2842150D01*
X24828508Y-2974187D01*
X25048077Y-3065135D01*
X25281170Y-3111500D01*
X25518830Y-3111500D01*
X25751923Y-3065135D01*
X25971492Y-2974187D01*
X26169099Y-2842150D01*
X26337150Y-2674099D01*
X26469187Y-2476492D01*
X26560135Y-2256923D01*
X26606500Y-2023830D01*
X26606500Y-1786170D01*
X26733500Y-1786170D01*
X26733500Y-2023830D01*
X26779865Y-2256923D01*
X26870813Y-2476492D01*
X27002850Y-2674099D01*
X27170901Y-2842150D01*
X27368508Y-2974187D01*
X27588077Y-3065135D01*
X27821170Y-3111500D01*
X28058830Y-3111500D01*
X28291923Y-3065135D01*
X28511492Y-2974187D01*
X28709099Y-2842150D01*
X28877150Y-2674099D01*
X29009187Y-2476492D01*
X29100135Y-2256923D01*
X29146500Y-2023830D01*
X29146500Y-1786170D01*
X29100135Y-1553077D01*
X29009187Y-1333508D01*
X28877150Y-1135901D01*
X28709099Y-967850D01*
X28511492Y-835813D01*
X28291923Y-744865D01*
X28058830Y-698500D01*
X27821170Y-698500D01*
X27588077Y-744865D01*
X27368508Y-835813D01*
X27170901Y-967850D01*
X27002850Y-1135901D01*
X26870813Y-1333508D01*
X26779865Y-1553077D01*
X26733500Y-1786170D01*
X26606500Y-1786170D01*
X26560135Y-1553077D01*
X26469187Y-1333508D01*
X26337150Y-1135901D01*
X26169099Y-967850D01*
X25971492Y-835813D01*
X25751923Y-744865D01*
X25518830Y-698500D01*
X25281170Y-698500D01*
X25048077Y-744865D01*
X24828508Y-835813D01*
X24630901Y-967850D01*
X24462850Y-1135901D01*
X24330813Y-1333508D01*
X24239865Y-1553077D01*
X24193500Y-1786170D01*
X24066500Y-1786170D01*
X24020135Y-1553077D01*
X23929187Y-1333508D01*
X23797150Y-1135901D01*
X23629099Y-967850D01*
X23431492Y-835813D01*
X23211923Y-744865D01*
X22978830Y-698500D01*
X22741170Y-698500D01*
X22508077Y-744865D01*
X22288508Y-835813D01*
X22090901Y-967850D01*
X21922850Y-1135901D01*
X21790813Y-1333508D01*
X21699865Y-1553077D01*
X21653500Y-1786170D01*
X21526500Y-1786170D01*
X21480135Y-1553077D01*
X21389187Y-1333508D01*
X21257150Y-1135901D01*
X21089099Y-967850D01*
X20891492Y-835813D01*
X20671923Y-744865D01*
X20438830Y-698500D01*
X20201170Y-698500D01*
X19968077Y-744865D01*
X19748508Y-835813D01*
X19550901Y-967850D01*
X19382850Y-1135901D01*
X19250813Y-1333508D01*
X19159865Y-1553077D01*
X19113500Y-1786170D01*
X18986500Y-1786170D01*
X18940135Y-1553077D01*
X18849187Y-1333508D01*
X18717150Y-1135901D01*
X18549099Y-967850D01*
X18351492Y-835813D01*
X18131923Y-744865D01*
X17898830Y-698500D01*
X17661170Y-698500D01*
X17428077Y-744865D01*
X17208508Y-835813D01*
X17010901Y-967850D01*
X16842850Y-1135901D01*
X16710813Y-1333508D01*
X16619865Y-1553077D01*
X16573500Y-1786170D01*
X16446500Y-1786170D01*
X16400135Y-1553077D01*
X16309187Y-1333508D01*
X16177150Y-1135901D01*
X16009099Y-967850D01*
X15811492Y-835813D01*
X15591923Y-744865D01*
X15358830Y-698500D01*
X15121170Y-698500D01*
X14888077Y-744865D01*
X14668508Y-835813D01*
X14470901Y-967850D01*
X14302850Y-1135901D01*
X14170813Y-1333508D01*
X14079865Y-1553077D01*
X14033500Y-1786170D01*
X13906500Y-1786170D01*
X13860135Y-1553077D01*
X13769187Y-1333508D01*
X13637150Y-1135901D01*
X13469099Y-967850D01*
X13271492Y-835813D01*
X13051923Y-744865D01*
X12818830Y-698500D01*
X12581170Y-698500D01*
X12348077Y-744865D01*
X12128508Y-835813D01*
X11930901Y-967850D01*
X11762850Y-1135901D01*
X11630813Y-1333508D01*
X11539865Y-1553077D01*
X11523567Y-1635011D01*
X11522507Y-1624909D01*
X11441684Y-1364480D01*
X11321492Y-1139616D01*
X11097554Y-1057248D01*
X10249803Y-1905000D01*
X10070197Y-1905000D01*
X9222446Y-1057248D01*
X8998508Y-1139616D01*
X8890838Y-1344188D01*
X8781492Y-1139616D01*
X8557554Y-1057248D01*
X7709803Y-1905000D01*
X7530197Y-1905000D01*
X6682446Y-1057248D01*
X6458508Y-1139616D01*
X6331506Y-1380919D01*
X6256339Y-1634542D01*
X6240135Y-1553077D01*
X6149187Y-1333508D01*
X6017150Y-1135901D01*
X5849099Y-967850D01*
X5848495Y-967446D01*
X6772248Y-967446D01*
X7620000Y-1815197D01*
X8467752Y-967446D01*
X9312248Y-967446D01*
X10160000Y-1815197D01*
X11007752Y-967446D01*
X10925384Y-743508D01*
X10684081Y-616506D01*
X10422639Y-539022D01*
X10151103Y-514030D01*
X9879909Y-542493D01*
X9619480Y-623316D01*
X9394616Y-743508D01*
X9312248Y-967446D01*
X8467752Y-967446D01*
X8385384Y-743508D01*
X8144081Y-616506D01*
X7882639Y-539022D01*
X7611103Y-514030D01*
X7339909Y-542493D01*
X7079480Y-623316D01*
X6854616Y-743508D01*
X6772248Y-967446D01*
X5848495Y-967446D01*
X5651492Y-835813D01*
X5431923Y-744865D01*
X5198830Y-698500D01*
X4961170Y-698500D01*
X4728077Y-744865D01*
X4508508Y-835813D01*
X4310901Y-967850D01*
X4142850Y-1135901D01*
X4010813Y-1333508D01*
X3919865Y-1553077D01*
X3873500Y-1786170D01*
X3748097Y-1786170D01*
X3748097Y-1466850D01*
X3733303Y-1316641D01*
X3689488Y-1172204D01*
X3618338Y-1039090D01*
X3522585Y-922415D01*
X3405910Y-826662D01*
X3272796Y-755512D01*
X3128359Y-711697D01*
X2978150Y-696903D01*
X2101850Y-696903D01*
X1951641Y-711697D01*
X1807204Y-755512D01*
X1674090Y-826662D01*
X1557415Y-922415D01*
X1461662Y-1039090D01*
X1390512Y-1172204D01*
X1346697Y-1316641D01*
X1331903Y-1466850D01*
X355200Y-1466850D01*
X355200Y-355200D01*
X93624801Y-355200D01*
X93624800Y-18694800D01*
G37*
%TD.AperFunction*%
D14*
X91752800Y-11448268D02*
X91784704Y-11608660D01*
X91847286Y-11759747D01*
X91938142Y-11895722D01*
X92043920Y-12001500D01*
X91938142Y-12107278D01*
X91847286Y-12243253D01*
X91784704Y-12394340D01*
X91752800Y-12554732D01*
X91752800Y-12614289D01*
X91288528Y-12614289D01*
X91266078Y-12612078D01*
X91243628Y-12614289D01*
X91243619Y-12614289D01*
X91176452Y-12620904D01*
X91090270Y-12647048D01*
X91046931Y-12670213D01*
X91010843Y-12689502D01*
X90962578Y-12729113D01*
X90941226Y-12746636D01*
X90926909Y-12764081D01*
X87454131Y-16236860D01*
X86719642Y-16236860D01*
X86722018Y-16236626D01*
X86808200Y-16210482D01*
X86887627Y-16168028D01*
X86957244Y-16110894D01*
X86971565Y-16093444D01*
X91687811Y-11377200D01*
X91752800Y-11377200D01*
X91752800Y-11448268D01*
%TA.AperFunction,Conductor*%
D21*
G36*
X91752800Y-11448268D02*
G01*
X91784704Y-11608660D01*
X91847286Y-11759747D01*
X91938142Y-11895722D01*
X92043920Y-12001500D01*
X91938142Y-12107278D01*
X91847286Y-12243253D01*
X91784704Y-12394340D01*
X91752800Y-12554732D01*
X91752800Y-12614289D01*
X91288528Y-12614289D01*
X91266078Y-12612078D01*
X91243628Y-12614289D01*
X91243619Y-12614289D01*
X91176452Y-12620904D01*
X91090270Y-12647048D01*
X91046931Y-12670213D01*
X91010843Y-12689502D01*
X90962578Y-12729113D01*
X90941226Y-12746636D01*
X90926909Y-12764081D01*
X87454131Y-16236860D01*
X86719642Y-16236860D01*
X86722018Y-16236626D01*
X86808200Y-16210482D01*
X86887627Y-16168028D01*
X86957244Y-16110894D01*
X86971565Y-16093444D01*
X91687811Y-11377200D01*
X91752800Y-11377200D01*
X91752800Y-11448268D01*
G37*
%TD.AperFunction*%
D14*
X33939512Y-16093455D02*
X33953824Y-16110894D01*
X33971263Y-16125206D01*
X33971269Y-16125212D01*
X34023441Y-16168028D01*
X34102867Y-16210482D01*
X34169113Y-16230578D01*
X34189050Y-16236626D01*
X34191426Y-16236860D01*
X33951226Y-16236860D01*
X32548494Y-14834130D01*
X32534173Y-14816680D01*
X32464556Y-14759546D01*
X32385129Y-14717092D01*
X32298947Y-14690948D01*
X32296549Y-14690712D01*
X32536771Y-14690712D01*
X33939512Y-16093455D01*
%TA.AperFunction,Conductor*%
D21*
G36*
X33939512Y-16093455D02*
G01*
X33953824Y-16110894D01*
X33971263Y-16125206D01*
X33971269Y-16125212D01*
X34023441Y-16168028D01*
X34102867Y-16210482D01*
X34169113Y-16230578D01*
X34189050Y-16236626D01*
X34191426Y-16236860D01*
X33951226Y-16236860D01*
X32548494Y-14834130D01*
X32534173Y-14816680D01*
X32464556Y-14759546D01*
X32385129Y-14717092D01*
X32298947Y-14690948D01*
X32296549Y-14690712D01*
X32536771Y-14690712D01*
X33939512Y-16093455D01*
G37*
%TD.AperFunction*%
D14*
X86149160Y-14874830D02*
X86049643Y-14874830D01*
X86052049Y-14874593D01*
X86138231Y-14848449D01*
X86217658Y-14805995D01*
X86219537Y-14804453D01*
X86149160Y-14874830D01*
%TA.AperFunction,Conductor*%
D21*
G36*
X86149160Y-14874830D02*
G01*
X86049643Y-14874830D01*
X86052049Y-14874593D01*
X86138231Y-14848449D01*
X86217658Y-14805995D01*
X86219537Y-14804453D01*
X86149160Y-14874830D01*
G37*
%TD.AperFunction*%
D14*
X34587612Y-14805995D02*
X34667039Y-14848449D01*
X34753221Y-14874593D01*
X34755627Y-14874830D01*
X34656112Y-14874830D01*
X34585743Y-14804461D01*
X34587612Y-14805995D01*
%TA.AperFunction,Conductor*%
D21*
G36*
X34587612Y-14805995D02*
G01*
X34667039Y-14848449D01*
X34753221Y-14874593D01*
X34755627Y-14874830D01*
X34656112Y-14874830D01*
X34585743Y-14804461D01*
X34587612Y-14805995D01*
G37*
%TD.AperFunction*%
D14*
X90863408Y-8762418D02*
X90877726Y-8779864D01*
X90947343Y-8836998D01*
X91026770Y-8879452D01*
X91112952Y-8905596D01*
X91180119Y-8912211D01*
X91180128Y-8912211D01*
X91202578Y-8914422D01*
X91225028Y-8912211D01*
X91753584Y-8912211D01*
X91784704Y-9068660D01*
X91847286Y-9219747D01*
X91938142Y-9355722D01*
X92043920Y-9461500D01*
X91938142Y-9567278D01*
X91847286Y-9703253D01*
X91784704Y-9854340D01*
X91753584Y-10010789D01*
X91225028Y-10010789D01*
X91202578Y-10008578D01*
X91180128Y-10010789D01*
X91180118Y-10010789D01*
X91112951Y-10017404D01*
X91046827Y-10037463D01*
X91026768Y-10043548D01*
X90947342Y-10086002D01*
X90895170Y-10128818D01*
X90895164Y-10128824D01*
X90877725Y-10143136D01*
X90863413Y-10160575D01*
X88156471Y-12867518D01*
X88158009Y-12865644D01*
X88200463Y-12786218D01*
X88216813Y-12732319D01*
X88226607Y-12700035D01*
X88233222Y-12632868D01*
X88233222Y-12632858D01*
X88235433Y-12610408D01*
X88233222Y-12587958D01*
X88233222Y-9406298D01*
X88329800Y-9406298D01*
X88329800Y-9643702D01*
X88376116Y-9876544D01*
X88466966Y-10095876D01*
X88598860Y-10293270D01*
X88766730Y-10461140D01*
X88964124Y-10593034D01*
X89183456Y-10683884D01*
X89416298Y-10730200D01*
X89653702Y-10730200D01*
X89886544Y-10683884D01*
X90105876Y-10593034D01*
X90303270Y-10461140D01*
X90471140Y-10293270D01*
X90603034Y-10095876D01*
X90693884Y-9876544D01*
X90740200Y-9643702D01*
X90740200Y-9406298D01*
X90693884Y-9173456D01*
X90603034Y-8954124D01*
X90471140Y-8756730D01*
X90303270Y-8588860D01*
X90105876Y-8456966D01*
X89886544Y-8366116D01*
X89653702Y-8319800D01*
X89416298Y-8319800D01*
X89183456Y-8366116D01*
X88964124Y-8456966D01*
X88766730Y-8588860D01*
X88598860Y-8756730D01*
X88466966Y-8954124D01*
X88376116Y-9173456D01*
X88329800Y-9406298D01*
X88233222Y-9406298D01*
X88233222Y-8933357D01*
X89035389Y-8131191D01*
X90232182Y-8131191D01*
X90863408Y-8762418D01*
%TA.AperFunction,Conductor*%
D21*
G36*
X90863408Y-8762418D02*
G01*
X90877726Y-8779864D01*
X90947343Y-8836998D01*
X91026770Y-8879452D01*
X91112952Y-8905596D01*
X91180119Y-8912211D01*
X91180128Y-8912211D01*
X91202578Y-8914422D01*
X91225028Y-8912211D01*
X91753584Y-8912211D01*
X91784704Y-9068660D01*
X91847286Y-9219747D01*
X91938142Y-9355722D01*
X92043920Y-9461500D01*
X91938142Y-9567278D01*
X91847286Y-9703253D01*
X91784704Y-9854340D01*
X91753584Y-10010789D01*
X91225028Y-10010789D01*
X91202578Y-10008578D01*
X91180128Y-10010789D01*
X91180118Y-10010789D01*
X91112951Y-10017404D01*
X91046827Y-10037463D01*
X91026768Y-10043548D01*
X90947342Y-10086002D01*
X90895170Y-10128818D01*
X90895164Y-10128824D01*
X90877725Y-10143136D01*
X90863413Y-10160575D01*
X88156471Y-12867518D01*
X88158009Y-12865644D01*
X88200463Y-12786218D01*
X88216813Y-12732319D01*
X88226607Y-12700035D01*
X88233222Y-12632868D01*
X88233222Y-12632858D01*
X88235433Y-12610408D01*
X88233222Y-12587958D01*
X88233222Y-9406298D01*
X88329800Y-9406298D01*
X88329800Y-9643702D01*
X88376116Y-9876544D01*
X88466966Y-10095876D01*
X88598860Y-10293270D01*
X88766730Y-10461140D01*
X88964124Y-10593034D01*
X89183456Y-10683884D01*
X89416298Y-10730200D01*
X89653702Y-10730200D01*
X89886544Y-10683884D01*
X90105876Y-10593034D01*
X90303270Y-10461140D01*
X90471140Y-10293270D01*
X90603034Y-10095876D01*
X90693884Y-9876544D01*
X90740200Y-9643702D01*
X90740200Y-9406298D01*
X90693884Y-9173456D01*
X90603034Y-8954124D01*
X90471140Y-8756730D01*
X90303270Y-8588860D01*
X90105876Y-8456966D01*
X89886544Y-8366116D01*
X89653702Y-8319800D01*
X89416298Y-8319800D01*
X89183456Y-8366116D01*
X88964124Y-8456966D01*
X88766730Y-8588860D01*
X88598860Y-8756730D01*
X88466966Y-8954124D01*
X88376116Y-9173456D01*
X88329800Y-9406298D01*
X88233222Y-9406298D01*
X88233222Y-8933357D01*
X89035389Y-8131191D01*
X90232182Y-8131191D01*
X90863408Y-8762418D01*
G37*
%TD.AperFunction*%
%TD*%
M02*
