%TF.GenerationSoftware,KiCad,Pcbnew,5.99.0+really5.1.10+dfsg1-1*%
%TF.CreationDate,2021-05-25T02:09:24-04:00*%
%TF.ProjectId,5x1,3578312e-6b69-4636-9164-5f7063625858,rev?*%
%TF.SameCoordinates,Original*%
%TF.FileFunction,Legend,Top*%
%TF.FilePolarity,Positive*%
%FSLAX46Y46*%
G04 Gerber Fmt 4.6, Leading zero omitted, Abs format (unit mm)*
G04 Created by KiCad (PCBNEW 5.99.0+really5.1.10+dfsg1-1) date 2021-05-25 02:09:24*
%MOMM*%
%LPD*%
G01*
G04 APERTURE LIST*
%ADD10C,0.120000*%
%ADD11C,0.381000*%
%ADD12C,0.150000*%
G04 APERTURE END LIST*
D10*
%TO.C,J1*%
X94963000Y-3051500D02*
X94160530Y-3051500D01*
X93545470Y-3051500D02*
X92743000Y-3051500D01*
X94963000Y-14416500D02*
X94963000Y-3051500D01*
X92743000Y-14416500D02*
X92743000Y-3051500D01*
X94963000Y-14416500D02*
X94416471Y-14416500D01*
X93289529Y-14416500D02*
X92743000Y-14416500D01*
X94963000Y-15176500D02*
X94963000Y-15936500D01*
X94963000Y-15936500D02*
X93853000Y-15936500D01*
D11*
%TO.C,U1*%
X5080000Y-3175000D02*
X5080000Y-635000D01*
X2540000Y-3175000D02*
X5080000Y-3175000D01*
D12*
G36*
X8829030Y-15569635D02*
G01*
X8929030Y-15569635D01*
X8929030Y-15669635D01*
X8829030Y-15669635D01*
X8829030Y-15569635D01*
G37*
X8829030Y-15569635D02*
X8929030Y-15569635D01*
X8929030Y-15669635D01*
X8829030Y-15669635D01*
X8829030Y-15569635D01*
G36*
X8429030Y-15769635D02*
G01*
X9229030Y-15769635D01*
X9229030Y-15869635D01*
X8429030Y-15869635D01*
X8429030Y-15769635D01*
G37*
X8429030Y-15769635D02*
X9229030Y-15769635D01*
X9229030Y-15869635D01*
X8429030Y-15869635D01*
X8429030Y-15769635D01*
G36*
X9029030Y-15369635D02*
G01*
X9229030Y-15369635D01*
X9229030Y-15469635D01*
X9029030Y-15469635D01*
X9029030Y-15369635D01*
G37*
X9029030Y-15369635D02*
X9229030Y-15369635D01*
X9229030Y-15469635D01*
X9029030Y-15469635D01*
X9029030Y-15369635D01*
G36*
X8429030Y-15369635D02*
G01*
X8729030Y-15369635D01*
X8729030Y-15469635D01*
X8429030Y-15469635D01*
X8429030Y-15369635D01*
G37*
X8429030Y-15369635D02*
X8729030Y-15369635D01*
X8729030Y-15469635D01*
X8429030Y-15469635D01*
X8429030Y-15369635D01*
G36*
X8429030Y-15369635D02*
G01*
X8529030Y-15369635D01*
X8529030Y-15869635D01*
X8429030Y-15869635D01*
X8429030Y-15369635D01*
G37*
X8429030Y-15369635D02*
X8529030Y-15369635D01*
X8529030Y-15869635D01*
X8429030Y-15869635D01*
X8429030Y-15369635D01*
D11*
X33020000Y-18415000D02*
X0Y-18415000D01*
X33020000Y-635000D02*
X33020000Y-18415000D01*
X0Y-635000D02*
X33020000Y-635000D01*
X0Y-18415000D02*
X0Y-635000D01*
X2540000Y-3175000D02*
X2540000Y-635000D01*
%TO.C,J1*%
D12*
X93519666Y-16323880D02*
X93519666Y-17038166D01*
X93472047Y-17181023D01*
X93376809Y-17276261D01*
X93233952Y-17323880D01*
X93138714Y-17323880D01*
X94519666Y-17323880D02*
X93948238Y-17323880D01*
X94233952Y-17323880D02*
X94233952Y-16323880D01*
X94138714Y-16466738D01*
X94043476Y-16561976D01*
X93948238Y-16609595D01*
%TO.C,U1*%
X8546190Y-14031666D02*
X8508095Y-14145952D01*
X8508095Y-14336428D01*
X8546190Y-14412619D01*
X8584285Y-14450714D01*
X8660476Y-14488809D01*
X8736666Y-14488809D01*
X8812857Y-14450714D01*
X8850952Y-14412619D01*
X8889047Y-14336428D01*
X8927142Y-14184047D01*
X8965238Y-14107857D01*
X9003333Y-14069761D01*
X9079523Y-14031666D01*
X9155714Y-14031666D01*
X9231904Y-14069761D01*
X9270000Y-14107857D01*
X9308095Y-14184047D01*
X9308095Y-14374523D01*
X9270000Y-14488809D01*
X9308095Y-14717380D02*
X9308095Y-15174523D01*
X8508095Y-14945952D02*
X9308095Y-14945952D01*
X4248095Y-3762651D02*
X4248095Y-4219794D01*
X3448095Y-3991223D02*
X4248095Y-3991223D01*
X4248095Y-4410270D02*
X3448095Y-4943604D01*
X4248095Y-4943604D02*
X3448095Y-4410270D01*
X4248095Y-5400747D02*
X4248095Y-5476937D01*
X4210000Y-5553128D01*
X4171904Y-5591223D01*
X4095714Y-5629318D01*
X3943333Y-5667413D01*
X3752857Y-5667413D01*
X3600476Y-5629318D01*
X3524285Y-5591223D01*
X3486190Y-5553128D01*
X3448095Y-5476937D01*
X3448095Y-5400747D01*
X3486190Y-5324556D01*
X3524285Y-5286461D01*
X3600476Y-5248366D01*
X3752857Y-5210270D01*
X3943333Y-5210270D01*
X4095714Y-5248366D01*
X4171904Y-5286461D01*
X4210000Y-5324556D01*
X4248095Y-5400747D01*
X4286190Y-6581699D02*
X3257619Y-5895985D01*
X3448095Y-6848366D02*
X4248095Y-6848366D01*
X4248095Y-7038842D01*
X4210000Y-7153128D01*
X4133809Y-7229318D01*
X4057619Y-7267413D01*
X3905238Y-7305508D01*
X3790952Y-7305508D01*
X3638571Y-7267413D01*
X3562380Y-7229318D01*
X3486190Y-7153128D01*
X3448095Y-7038842D01*
X3448095Y-6848366D01*
X4248095Y-7572175D02*
X4248095Y-8067413D01*
X3943333Y-7800747D01*
X3943333Y-7915032D01*
X3905238Y-7991223D01*
X3867142Y-8029318D01*
X3790952Y-8067413D01*
X3600476Y-8067413D01*
X3524285Y-8029318D01*
X3486190Y-7991223D01*
X3448095Y-7915032D01*
X3448095Y-7686461D01*
X3486190Y-7610270D01*
X3524285Y-7572175D01*
X29267142Y-14662190D02*
X29229047Y-14776476D01*
X29190952Y-14814571D01*
X29114761Y-14852666D01*
X29000476Y-14852666D01*
X28924285Y-14814571D01*
X28886190Y-14776476D01*
X28848095Y-14700285D01*
X28848095Y-14395523D01*
X29648095Y-14395523D01*
X29648095Y-14662190D01*
X29610000Y-14738380D01*
X29571904Y-14776476D01*
X29495714Y-14814571D01*
X29419523Y-14814571D01*
X29343333Y-14776476D01*
X29305238Y-14738380D01*
X29267142Y-14662190D01*
X29267142Y-14395523D01*
X29571904Y-15157428D02*
X29610000Y-15195523D01*
X29648095Y-15271714D01*
X29648095Y-15462190D01*
X29610000Y-15538380D01*
X29571904Y-15576476D01*
X29495714Y-15614571D01*
X29419523Y-15614571D01*
X29305238Y-15576476D01*
X28848095Y-15119333D01*
X28848095Y-15614571D01*
X21647142Y-14719333D02*
X21647142Y-14452666D01*
X21228095Y-14452666D02*
X22028095Y-14452666D01*
X22028095Y-14833619D01*
X22028095Y-15062190D02*
X22028095Y-15595523D01*
X21228095Y-15252666D01*
X19107142Y-14719333D02*
X19107142Y-14452666D01*
X18688095Y-14452666D02*
X19488095Y-14452666D01*
X19488095Y-14833619D01*
X19488095Y-15481238D02*
X19488095Y-15328857D01*
X19450000Y-15252666D01*
X19411904Y-15214571D01*
X19297619Y-15138380D01*
X19145238Y-15100285D01*
X18840476Y-15100285D01*
X18764285Y-15138380D01*
X18726190Y-15176476D01*
X18688095Y-15252666D01*
X18688095Y-15405047D01*
X18726190Y-15481238D01*
X18764285Y-15519333D01*
X18840476Y-15557428D01*
X19030952Y-15557428D01*
X19107142Y-15519333D01*
X19145238Y-15481238D01*
X19183333Y-15405047D01*
X19183333Y-15252666D01*
X19145238Y-15176476D01*
X19107142Y-15138380D01*
X19030952Y-15100285D01*
X16567142Y-14719333D02*
X16567142Y-14452666D01*
X16148095Y-14452666D02*
X16948095Y-14452666D01*
X16948095Y-14833619D01*
X16948095Y-15519333D02*
X16948095Y-15138380D01*
X16567142Y-15100285D01*
X16605238Y-15138380D01*
X16643333Y-15214571D01*
X16643333Y-15405047D01*
X16605238Y-15481238D01*
X16567142Y-15519333D01*
X16490952Y-15557428D01*
X16300476Y-15557428D01*
X16224285Y-15519333D01*
X16186190Y-15481238D01*
X16148095Y-15405047D01*
X16148095Y-15214571D01*
X16186190Y-15138380D01*
X16224285Y-15100285D01*
X3448095Y-14433619D02*
X3829047Y-14166952D01*
X3448095Y-13976476D02*
X4248095Y-13976476D01*
X4248095Y-14281238D01*
X4210000Y-14357428D01*
X4171904Y-14395523D01*
X4095714Y-14433619D01*
X3981428Y-14433619D01*
X3905238Y-14395523D01*
X3867142Y-14357428D01*
X3829047Y-14281238D01*
X3829047Y-13976476D01*
X3676666Y-14738380D02*
X3676666Y-15119333D01*
X3448095Y-14662190D02*
X4248095Y-14928857D01*
X3448095Y-15195523D01*
X4248095Y-15386000D02*
X3448095Y-15576476D01*
X4019523Y-15728857D01*
X3448095Y-15881238D01*
X4248095Y-16071714D01*
X6750000Y-14376476D02*
X6788095Y-14300285D01*
X6788095Y-14186000D01*
X6750000Y-14071714D01*
X6673809Y-13995523D01*
X6597619Y-13957428D01*
X6445238Y-13919333D01*
X6330952Y-13919333D01*
X6178571Y-13957428D01*
X6102380Y-13995523D01*
X6026190Y-14071714D01*
X5988095Y-14186000D01*
X5988095Y-14262190D01*
X6026190Y-14376476D01*
X6064285Y-14414571D01*
X6330952Y-14414571D01*
X6330952Y-14262190D01*
X5988095Y-14757428D02*
X6788095Y-14757428D01*
X5988095Y-15214571D01*
X6788095Y-15214571D01*
X5988095Y-15595523D02*
X6788095Y-15595523D01*
X6788095Y-15786000D01*
X6750000Y-15900285D01*
X6673809Y-15976476D01*
X6597619Y-16014571D01*
X6445238Y-16052666D01*
X6330952Y-16052666D01*
X6178571Y-16014571D01*
X6102380Y-15976476D01*
X6026190Y-15900285D01*
X5988095Y-15786000D01*
X5988095Y-15595523D01*
X11868095Y-13919333D02*
X11068095Y-14186000D01*
X11868095Y-14452666D01*
X11144285Y-15176476D02*
X11106190Y-15138380D01*
X11068095Y-15024095D01*
X11068095Y-14947904D01*
X11106190Y-14833619D01*
X11182380Y-14757428D01*
X11258571Y-14719333D01*
X11410952Y-14681238D01*
X11525238Y-14681238D01*
X11677619Y-14719333D01*
X11753809Y-14757428D01*
X11830000Y-14833619D01*
X11868095Y-14947904D01*
X11868095Y-15024095D01*
X11830000Y-15138380D01*
X11791904Y-15176476D01*
X11144285Y-15976476D02*
X11106190Y-15938380D01*
X11068095Y-15824095D01*
X11068095Y-15747904D01*
X11106190Y-15633619D01*
X11182380Y-15557428D01*
X11258571Y-15519333D01*
X11410952Y-15481238D01*
X11525238Y-15481238D01*
X11677619Y-15519333D01*
X11753809Y-15557428D01*
X11830000Y-15633619D01*
X11868095Y-15747904D01*
X11868095Y-15824095D01*
X11830000Y-15938380D01*
X11791904Y-15976476D01*
X14027142Y-14719333D02*
X14027142Y-14452666D01*
X13608095Y-14452666D02*
X14408095Y-14452666D01*
X14408095Y-14833619D01*
X14141428Y-15481238D02*
X13608095Y-15481238D01*
X14446190Y-15290761D02*
X13874761Y-15100285D01*
X13874761Y-15595523D01*
X24187142Y-14662190D02*
X24149047Y-14776476D01*
X24110952Y-14814571D01*
X24034761Y-14852666D01*
X23920476Y-14852666D01*
X23844285Y-14814571D01*
X23806190Y-14776476D01*
X23768095Y-14700285D01*
X23768095Y-14395523D01*
X24568095Y-14395523D01*
X24568095Y-14662190D01*
X24530000Y-14738380D01*
X24491904Y-14776476D01*
X24415714Y-14814571D01*
X24339523Y-14814571D01*
X24263333Y-14776476D01*
X24225238Y-14738380D01*
X24187142Y-14662190D01*
X24187142Y-14395523D01*
X23768095Y-15614571D02*
X23768095Y-15157428D01*
X23768095Y-15386000D02*
X24568095Y-15386000D01*
X24453809Y-15309809D01*
X24377619Y-15233619D01*
X24339523Y-15157428D01*
X26727142Y-14662190D02*
X26689047Y-14776476D01*
X26650952Y-14814571D01*
X26574761Y-14852666D01*
X26460476Y-14852666D01*
X26384285Y-14814571D01*
X26346190Y-14776476D01*
X26308095Y-14700285D01*
X26308095Y-14395523D01*
X27108095Y-14395523D01*
X27108095Y-14662190D01*
X27070000Y-14738380D01*
X27031904Y-14776476D01*
X26955714Y-14814571D01*
X26879523Y-14814571D01*
X26803333Y-14776476D01*
X26765238Y-14738380D01*
X26727142Y-14662190D01*
X26727142Y-14395523D01*
X27108095Y-15119333D02*
X27108095Y-15614571D01*
X26803333Y-15347904D01*
X26803333Y-15462190D01*
X26765238Y-15538380D01*
X26727142Y-15576476D01*
X26650952Y-15614571D01*
X26460476Y-15614571D01*
X26384285Y-15576476D01*
X26346190Y-15538380D01*
X26308095Y-15462190D01*
X26308095Y-15233619D01*
X26346190Y-15157428D01*
X26384285Y-15119333D01*
X31807142Y-14662190D02*
X31769047Y-14776476D01*
X31730952Y-14814571D01*
X31654761Y-14852666D01*
X31540476Y-14852666D01*
X31464285Y-14814571D01*
X31426190Y-14776476D01*
X31388095Y-14700285D01*
X31388095Y-14395523D01*
X32188095Y-14395523D01*
X32188095Y-14662190D01*
X32150000Y-14738380D01*
X32111904Y-14776476D01*
X32035714Y-14814571D01*
X31959523Y-14814571D01*
X31883333Y-14776476D01*
X31845238Y-14738380D01*
X31807142Y-14662190D01*
X31807142Y-14395523D01*
X32188095Y-15538380D02*
X32188095Y-15386000D01*
X32150000Y-15309809D01*
X32111904Y-15271714D01*
X31997619Y-15195523D01*
X31845238Y-15157428D01*
X31540476Y-15157428D01*
X31464285Y-15195523D01*
X31426190Y-15233619D01*
X31388095Y-15309809D01*
X31388095Y-15462190D01*
X31426190Y-15538380D01*
X31464285Y-15576476D01*
X31540476Y-15614571D01*
X31730952Y-15614571D01*
X31807142Y-15576476D01*
X31845238Y-15538380D01*
X31883333Y-15462190D01*
X31883333Y-15309809D01*
X31845238Y-15233619D01*
X31807142Y-15195523D01*
X31730952Y-15157428D01*
X31807142Y-3740190D02*
X31769047Y-3854476D01*
X31730952Y-3892571D01*
X31654761Y-3930666D01*
X31540476Y-3930666D01*
X31464285Y-3892571D01*
X31426190Y-3854476D01*
X31388095Y-3778285D01*
X31388095Y-3473523D01*
X32188095Y-3473523D01*
X32188095Y-3740190D01*
X32150000Y-3816380D01*
X32111904Y-3854476D01*
X32035714Y-3892571D01*
X31959523Y-3892571D01*
X31883333Y-3854476D01*
X31845238Y-3816380D01*
X31807142Y-3740190D01*
X31807142Y-3473523D01*
X32188095Y-4654476D02*
X32188095Y-4273523D01*
X31807142Y-4235428D01*
X31845238Y-4273523D01*
X31883333Y-4349714D01*
X31883333Y-4540190D01*
X31845238Y-4616380D01*
X31807142Y-4654476D01*
X31730952Y-4692571D01*
X31540476Y-4692571D01*
X31464285Y-4654476D01*
X31426190Y-4616380D01*
X31388095Y-4540190D01*
X31388095Y-4349714D01*
X31426190Y-4273523D01*
X31464285Y-4235428D01*
X29267142Y-3740190D02*
X29229047Y-3854476D01*
X29190952Y-3892571D01*
X29114761Y-3930666D01*
X29000476Y-3930666D01*
X28924285Y-3892571D01*
X28886190Y-3854476D01*
X28848095Y-3778285D01*
X28848095Y-3473523D01*
X29648095Y-3473523D01*
X29648095Y-3740190D01*
X29610000Y-3816380D01*
X29571904Y-3854476D01*
X29495714Y-3892571D01*
X29419523Y-3892571D01*
X29343333Y-3854476D01*
X29305238Y-3816380D01*
X29267142Y-3740190D01*
X29267142Y-3473523D01*
X29381428Y-4616380D02*
X28848095Y-4616380D01*
X29686190Y-4425904D02*
X29114761Y-4235428D01*
X29114761Y-4730666D01*
X26727142Y-3511619D02*
X26727142Y-3778285D01*
X26308095Y-3892571D02*
X26308095Y-3511619D01*
X27108095Y-3511619D01*
X27108095Y-3892571D01*
X27108095Y-4578285D02*
X27108095Y-4425904D01*
X27070000Y-4349714D01*
X27031904Y-4311619D01*
X26917619Y-4235428D01*
X26765238Y-4197333D01*
X26460476Y-4197333D01*
X26384285Y-4235428D01*
X26346190Y-4273523D01*
X26308095Y-4349714D01*
X26308095Y-4502095D01*
X26346190Y-4578285D01*
X26384285Y-4616380D01*
X26460476Y-4654476D01*
X26650952Y-4654476D01*
X26727142Y-4616380D01*
X26765238Y-4578285D01*
X26803333Y-4502095D01*
X26803333Y-4349714D01*
X26765238Y-4273523D01*
X26727142Y-4235428D01*
X26650952Y-4197333D01*
X23768095Y-3473523D02*
X24568095Y-3473523D01*
X24568095Y-3664000D01*
X24530000Y-3778285D01*
X24453809Y-3854476D01*
X24377619Y-3892571D01*
X24225238Y-3930666D01*
X24110952Y-3930666D01*
X23958571Y-3892571D01*
X23882380Y-3854476D01*
X23806190Y-3778285D01*
X23768095Y-3664000D01*
X23768095Y-3473523D01*
X24568095Y-4197333D02*
X24568095Y-4730666D01*
X23768095Y-4387809D01*
X21304285Y-3930666D02*
X21266190Y-3892571D01*
X21228095Y-3778285D01*
X21228095Y-3702095D01*
X21266190Y-3587809D01*
X21342380Y-3511619D01*
X21418571Y-3473523D01*
X21570952Y-3435428D01*
X21685238Y-3435428D01*
X21837619Y-3473523D01*
X21913809Y-3511619D01*
X21990000Y-3587809D01*
X22028095Y-3702095D01*
X22028095Y-3778285D01*
X21990000Y-3892571D01*
X21951904Y-3930666D01*
X22028095Y-4616380D02*
X22028095Y-4464000D01*
X21990000Y-4387809D01*
X21951904Y-4349714D01*
X21837619Y-4273523D01*
X21685238Y-4235428D01*
X21380476Y-4235428D01*
X21304285Y-4273523D01*
X21266190Y-4311619D01*
X21228095Y-4387809D01*
X21228095Y-4540190D01*
X21266190Y-4616380D01*
X21304285Y-4654476D01*
X21380476Y-4692571D01*
X21570952Y-4692571D01*
X21647142Y-4654476D01*
X21685238Y-4616380D01*
X21723333Y-4540190D01*
X21723333Y-4387809D01*
X21685238Y-4311619D01*
X21647142Y-4273523D01*
X21570952Y-4235428D01*
X18688095Y-3473523D02*
X19488095Y-3473523D01*
X19488095Y-3664000D01*
X19450000Y-3778285D01*
X19373809Y-3854476D01*
X19297619Y-3892571D01*
X19145238Y-3930666D01*
X19030952Y-3930666D01*
X18878571Y-3892571D01*
X18802380Y-3854476D01*
X18726190Y-3778285D01*
X18688095Y-3664000D01*
X18688095Y-3473523D01*
X19221428Y-4616380D02*
X18688095Y-4616380D01*
X19526190Y-4425904D02*
X18954761Y-4235428D01*
X18954761Y-4730666D01*
X9290000Y-3454476D02*
X9328095Y-3378285D01*
X9328095Y-3264000D01*
X9290000Y-3149714D01*
X9213809Y-3073523D01*
X9137619Y-3035428D01*
X8985238Y-2997333D01*
X8870952Y-2997333D01*
X8718571Y-3035428D01*
X8642380Y-3073523D01*
X8566190Y-3149714D01*
X8528095Y-3264000D01*
X8528095Y-3340190D01*
X8566190Y-3454476D01*
X8604285Y-3492571D01*
X8870952Y-3492571D01*
X8870952Y-3340190D01*
X8528095Y-3835428D02*
X9328095Y-3835428D01*
X8528095Y-4292571D01*
X9328095Y-4292571D01*
X8528095Y-4673523D02*
X9328095Y-4673523D01*
X9328095Y-4864000D01*
X9290000Y-4978285D01*
X9213809Y-5054476D01*
X9137619Y-5092571D01*
X8985238Y-5130666D01*
X8870952Y-5130666D01*
X8718571Y-5092571D01*
X8642380Y-5054476D01*
X8566190Y-4978285D01*
X8528095Y-4864000D01*
X8528095Y-4673523D01*
X11830000Y-3454476D02*
X11868095Y-3378285D01*
X11868095Y-3264000D01*
X11830000Y-3149714D01*
X11753809Y-3073523D01*
X11677619Y-3035428D01*
X11525238Y-2997333D01*
X11410952Y-2997333D01*
X11258571Y-3035428D01*
X11182380Y-3073523D01*
X11106190Y-3149714D01*
X11068095Y-3264000D01*
X11068095Y-3340190D01*
X11106190Y-3454476D01*
X11144285Y-3492571D01*
X11410952Y-3492571D01*
X11410952Y-3340190D01*
X11068095Y-3835428D02*
X11868095Y-3835428D01*
X11068095Y-4292571D01*
X11868095Y-4292571D01*
X11068095Y-4673523D02*
X11868095Y-4673523D01*
X11868095Y-4864000D01*
X11830000Y-4978285D01*
X11753809Y-5054476D01*
X11677619Y-5092571D01*
X11525238Y-5130666D01*
X11410952Y-5130666D01*
X11258571Y-5092571D01*
X11182380Y-5054476D01*
X11106190Y-4978285D01*
X11068095Y-4864000D01*
X11068095Y-4673523D01*
X13608095Y-3473523D02*
X14408095Y-3473523D01*
X14408095Y-3664000D01*
X14370000Y-3778285D01*
X14293809Y-3854476D01*
X14217619Y-3892571D01*
X14065238Y-3930666D01*
X13950952Y-3930666D01*
X13798571Y-3892571D01*
X13722380Y-3854476D01*
X13646190Y-3778285D01*
X13608095Y-3664000D01*
X13608095Y-3473523D01*
X13608095Y-4692571D02*
X13608095Y-4235428D01*
X13608095Y-4464000D02*
X14408095Y-4464000D01*
X14293809Y-4387809D01*
X14217619Y-4311619D01*
X14179523Y-4235428D01*
X16148095Y-3473523D02*
X16948095Y-3473523D01*
X16948095Y-3664000D01*
X16910000Y-3778285D01*
X16833809Y-3854476D01*
X16757619Y-3892571D01*
X16605238Y-3930666D01*
X16490952Y-3930666D01*
X16338571Y-3892571D01*
X16262380Y-3854476D01*
X16186190Y-3778285D01*
X16148095Y-3664000D01*
X16148095Y-3473523D01*
X16948095Y-4425904D02*
X16948095Y-4502095D01*
X16910000Y-4578285D01*
X16871904Y-4616380D01*
X16795714Y-4654476D01*
X16643333Y-4692571D01*
X16452857Y-4692571D01*
X16300476Y-4654476D01*
X16224285Y-4616380D01*
X16186190Y-4578285D01*
X16148095Y-4502095D01*
X16148095Y-4425904D01*
X16186190Y-4349714D01*
X16224285Y-4311619D01*
X16300476Y-4273523D01*
X16452857Y-4235428D01*
X16643333Y-4235428D01*
X16795714Y-4273523D01*
X16871904Y-4311619D01*
X16910000Y-4349714D01*
X16948095Y-4425904D01*
X5988095Y-3473523D02*
X6788095Y-3473523D01*
X6788095Y-3664000D01*
X6750000Y-3778285D01*
X6673809Y-3854476D01*
X6597619Y-3892571D01*
X6445238Y-3930666D01*
X6330952Y-3930666D01*
X6178571Y-3892571D01*
X6102380Y-3854476D01*
X6026190Y-3778285D01*
X5988095Y-3664000D01*
X5988095Y-3473523D01*
X6711904Y-4235428D02*
X6750000Y-4273523D01*
X6788095Y-4349714D01*
X6788095Y-4540190D01*
X6750000Y-4616380D01*
X6711904Y-4654476D01*
X6635714Y-4692571D01*
X6559523Y-4692571D01*
X6445238Y-4654476D01*
X5988095Y-4197333D01*
X5988095Y-4692571D01*
%TD*%
M02*
