%TF.GenerationSoftware,KiCad,Pcbnew,5.99.0+really5.1.10+dfsg1-1*%
%TF.CreationDate,2021-05-25T02:09:24-04:00*%
%TF.ProjectId,5x1,3578312e-6b69-4636-9164-5f7063625858,rev?*%
%TF.SameCoordinates,Original*%
%TF.FileFunction,Legend,Bot*%
%TF.FilePolarity,Positive*%
%FSLAX46Y46*%
G04 Gerber Fmt 4.6, Leading zero omitted, Abs format (unit mm)*
G04 Created by KiCad (PCBNEW 5.99.0+really5.1.10+dfsg1-1) date 2021-05-25 02:09:24*
%MOMM*%
%LPD*%
G01*
G04 APERTURE LIST*
%ADD10C,0.120000*%
%ADD11C,0.381000*%
%ADD12C,0.150000*%
G04 APERTURE END LIST*
D10*
X88773000Y-10731500D02*
X87503000Y-12001500D01*
X89090500Y-11049000D02*
X87820500Y-12319000D01*
X87185500Y-11684000D02*
X88455500Y-10414000D01*
X13970000Y-11684000D02*
X13970000Y-14160500D01*
X87185500Y-11684000D02*
X13970000Y-11684000D01*
X88455500Y-8318500D02*
X88455500Y-10414000D01*
X91757500Y-5016500D02*
X88455500Y-8318500D01*
X93853000Y-5016500D02*
X91757500Y-5016500D01*
X88773000Y-8636000D02*
X91122500Y-6286500D01*
X88773000Y-10731500D02*
X88773000Y-8636000D01*
X16510000Y-12001500D02*
X87503000Y-12001500D01*
X16510000Y-14160500D02*
X16510000Y-12001500D01*
X93853000Y-6286500D02*
X91122500Y-6286500D01*
X90487500Y-7556500D02*
X89090500Y-8953500D01*
X93853000Y-7556500D02*
X90487500Y-7556500D01*
X89090500Y-11049000D02*
X89090500Y-8953500D01*
X19050000Y-12319000D02*
X87820500Y-12319000D01*
X19050000Y-14160500D02*
X19050000Y-12319000D01*
X21590000Y-12636500D02*
X21590000Y-14160500D01*
X90043000Y-12636500D02*
X21590000Y-12636500D01*
X92900500Y-13589000D02*
X29210000Y-13589000D01*
X93853000Y-12636500D02*
X92900500Y-13589000D01*
X93853000Y-8826500D02*
X90043000Y-12636500D01*
X24130000Y-12954000D02*
X24130000Y-14160500D01*
X93853000Y-10096500D02*
X90995500Y-12954000D01*
X26670000Y-13271500D02*
X26670000Y-14160500D01*
X90995500Y-12954000D02*
X24130000Y-12954000D01*
X93853000Y-11366500D02*
X91948000Y-13271500D01*
X29210000Y-13589000D02*
X29210000Y-14160500D01*
X91948000Y-13271500D02*
X26670000Y-13271500D01*
X93853000Y-12636500D02*
X93218000Y-13271500D01*
X31750000Y-13906500D02*
X31750000Y-14160500D01*
X93853000Y-13906500D02*
X31750000Y-13906500D01*
D11*
%TO.C,U1*%
X2540000Y-635000D02*
X33020000Y-635000D01*
X33020000Y-635000D02*
X33020000Y-18415000D01*
X33020000Y-18415000D02*
X2540000Y-18415000D01*
X2540000Y-3175000D02*
X5080000Y-3175000D01*
X5080000Y-3175000D02*
X5080000Y-635000D01*
D12*
G36*
X8419360Y-14456568D02*
G01*
X8719360Y-14456568D01*
X8719360Y-14356568D01*
X8419360Y-14356568D01*
X8419360Y-14456568D01*
G37*
X8419360Y-14456568D02*
X8719360Y-14456568D01*
X8719360Y-14356568D01*
X8419360Y-14356568D01*
X8419360Y-14456568D01*
G36*
X8819360Y-14256568D02*
G01*
X8919360Y-14256568D01*
X8919360Y-14156568D01*
X8819360Y-14156568D01*
X8819360Y-14256568D01*
G37*
X8819360Y-14256568D02*
X8919360Y-14256568D01*
X8919360Y-14156568D01*
X8819360Y-14156568D01*
X8819360Y-14256568D01*
G36*
X8419360Y-14456568D02*
G01*
X8519360Y-14456568D01*
X8519360Y-13956568D01*
X8419360Y-13956568D01*
X8419360Y-14456568D01*
G37*
X8419360Y-14456568D02*
X8519360Y-14456568D01*
X8519360Y-13956568D01*
X8419360Y-13956568D01*
X8419360Y-14456568D01*
G36*
X8419360Y-14056568D02*
G01*
X9219360Y-14056568D01*
X9219360Y-13956568D01*
X8419360Y-13956568D01*
X8419360Y-14056568D01*
G37*
X8419360Y-14056568D02*
X9219360Y-14056568D01*
X9219360Y-13956568D01*
X8419360Y-13956568D01*
X8419360Y-14056568D01*
G36*
X9019360Y-14456568D02*
G01*
X9219360Y-14456568D01*
X9219360Y-14356568D01*
X9019360Y-14356568D01*
X9019360Y-14456568D01*
G37*
X9019360Y-14456568D02*
X9219360Y-14456568D01*
X9219360Y-14356568D01*
X9019360Y-14356568D01*
X9019360Y-14456568D01*
D11*
X2540000Y-18415000D02*
X0Y-18415000D01*
X0Y-18415000D02*
X0Y-635000D01*
X0Y-635000D02*
X2540000Y-635000D01*
X2540000Y-3175000D02*
X2540000Y-635000D01*
D12*
X4248095Y-8143604D02*
X4248095Y-7686461D01*
X3448095Y-7915032D02*
X4248095Y-7915032D01*
X4248095Y-7495985D02*
X3448095Y-6962651D01*
X4248095Y-6962651D02*
X3448095Y-7495985D01*
X4248095Y-6505508D02*
X4248095Y-6429318D01*
X4210000Y-6353128D01*
X4171904Y-6315032D01*
X4095714Y-6276937D01*
X3943333Y-6238842D01*
X3752857Y-6238842D01*
X3600476Y-6276937D01*
X3524285Y-6315032D01*
X3486190Y-6353128D01*
X3448095Y-6429318D01*
X3448095Y-6505508D01*
X3486190Y-6581699D01*
X3524285Y-6619794D01*
X3600476Y-6657889D01*
X3752857Y-6695985D01*
X3943333Y-6695985D01*
X4095714Y-6657889D01*
X4171904Y-6619794D01*
X4210000Y-6581699D01*
X4248095Y-6505508D01*
X4286190Y-5324556D02*
X3257619Y-6010270D01*
X3448095Y-5057889D02*
X4248095Y-5057889D01*
X4248095Y-4867413D01*
X4210000Y-4753128D01*
X4133809Y-4676937D01*
X4057619Y-4638842D01*
X3905238Y-4600747D01*
X3790952Y-4600747D01*
X3638571Y-4638842D01*
X3562380Y-4676937D01*
X3486190Y-4753128D01*
X3448095Y-4867413D01*
X3448095Y-5057889D01*
X4248095Y-4334080D02*
X4248095Y-3838842D01*
X3943333Y-4105508D01*
X3943333Y-3991223D01*
X3905238Y-3915032D01*
X3867142Y-3876937D01*
X3790952Y-3838842D01*
X3600476Y-3838842D01*
X3524285Y-3876937D01*
X3486190Y-3915032D01*
X3448095Y-3991223D01*
X3448095Y-4219794D01*
X3486190Y-4295985D01*
X3524285Y-4334080D01*
X5988095Y-4654476D02*
X6788095Y-4654476D01*
X6788095Y-4464000D01*
X6750000Y-4349714D01*
X6673809Y-4273523D01*
X6597619Y-4235428D01*
X6445238Y-4197333D01*
X6330952Y-4197333D01*
X6178571Y-4235428D01*
X6102380Y-4273523D01*
X6026190Y-4349714D01*
X5988095Y-4464000D01*
X5988095Y-4654476D01*
X6711904Y-3892571D02*
X6750000Y-3854476D01*
X6788095Y-3778285D01*
X6788095Y-3587809D01*
X6750000Y-3511619D01*
X6711904Y-3473523D01*
X6635714Y-3435428D01*
X6559523Y-3435428D01*
X6445238Y-3473523D01*
X5988095Y-3930666D01*
X5988095Y-3435428D01*
X16148095Y-4654476D02*
X16948095Y-4654476D01*
X16948095Y-4464000D01*
X16910000Y-4349714D01*
X16833809Y-4273523D01*
X16757619Y-4235428D01*
X16605238Y-4197333D01*
X16490952Y-4197333D01*
X16338571Y-4235428D01*
X16262380Y-4273523D01*
X16186190Y-4349714D01*
X16148095Y-4464000D01*
X16148095Y-4654476D01*
X16948095Y-3702095D02*
X16948095Y-3625904D01*
X16910000Y-3549714D01*
X16871904Y-3511619D01*
X16795714Y-3473523D01*
X16643333Y-3435428D01*
X16452857Y-3435428D01*
X16300476Y-3473523D01*
X16224285Y-3511619D01*
X16186190Y-3549714D01*
X16148095Y-3625904D01*
X16148095Y-3702095D01*
X16186190Y-3778285D01*
X16224285Y-3816380D01*
X16300476Y-3854476D01*
X16452857Y-3892571D01*
X16643333Y-3892571D01*
X16795714Y-3854476D01*
X16871904Y-3816380D01*
X16910000Y-3778285D01*
X16948095Y-3702095D01*
X13608095Y-4654476D02*
X14408095Y-4654476D01*
X14408095Y-4464000D01*
X14370000Y-4349714D01*
X14293809Y-4273523D01*
X14217619Y-4235428D01*
X14065238Y-4197333D01*
X13950952Y-4197333D01*
X13798571Y-4235428D01*
X13722380Y-4273523D01*
X13646190Y-4349714D01*
X13608095Y-4464000D01*
X13608095Y-4654476D01*
X13608095Y-3435428D02*
X13608095Y-3892571D01*
X13608095Y-3664000D02*
X14408095Y-3664000D01*
X14293809Y-3740190D01*
X14217619Y-3816380D01*
X14179523Y-3892571D01*
X11830000Y-4673523D02*
X11868095Y-4749714D01*
X11868095Y-4864000D01*
X11830000Y-4978285D01*
X11753809Y-5054476D01*
X11677619Y-5092571D01*
X11525238Y-5130666D01*
X11410952Y-5130666D01*
X11258571Y-5092571D01*
X11182380Y-5054476D01*
X11106190Y-4978285D01*
X11068095Y-4864000D01*
X11068095Y-4787809D01*
X11106190Y-4673523D01*
X11144285Y-4635428D01*
X11410952Y-4635428D01*
X11410952Y-4787809D01*
X11068095Y-4292571D02*
X11868095Y-4292571D01*
X11068095Y-3835428D01*
X11868095Y-3835428D01*
X11068095Y-3454476D02*
X11868095Y-3454476D01*
X11868095Y-3264000D01*
X11830000Y-3149714D01*
X11753809Y-3073523D01*
X11677619Y-3035428D01*
X11525238Y-2997333D01*
X11410952Y-2997333D01*
X11258571Y-3035428D01*
X11182380Y-3073523D01*
X11106190Y-3149714D01*
X11068095Y-3264000D01*
X11068095Y-3454476D01*
X9290000Y-4673523D02*
X9328095Y-4749714D01*
X9328095Y-4864000D01*
X9290000Y-4978285D01*
X9213809Y-5054476D01*
X9137619Y-5092571D01*
X8985238Y-5130666D01*
X8870952Y-5130666D01*
X8718571Y-5092571D01*
X8642380Y-5054476D01*
X8566190Y-4978285D01*
X8528095Y-4864000D01*
X8528095Y-4787809D01*
X8566190Y-4673523D01*
X8604285Y-4635428D01*
X8870952Y-4635428D01*
X8870952Y-4787809D01*
X8528095Y-4292571D02*
X9328095Y-4292571D01*
X8528095Y-3835428D01*
X9328095Y-3835428D01*
X8528095Y-3454476D02*
X9328095Y-3454476D01*
X9328095Y-3264000D01*
X9290000Y-3149714D01*
X9213809Y-3073523D01*
X9137619Y-3035428D01*
X8985238Y-2997333D01*
X8870952Y-2997333D01*
X8718571Y-3035428D01*
X8642380Y-3073523D01*
X8566190Y-3149714D01*
X8528095Y-3264000D01*
X8528095Y-3454476D01*
X18688095Y-4654476D02*
X19488095Y-4654476D01*
X19488095Y-4464000D01*
X19450000Y-4349714D01*
X19373809Y-4273523D01*
X19297619Y-4235428D01*
X19145238Y-4197333D01*
X19030952Y-4197333D01*
X18878571Y-4235428D01*
X18802380Y-4273523D01*
X18726190Y-4349714D01*
X18688095Y-4464000D01*
X18688095Y-4654476D01*
X19221428Y-3511619D02*
X18688095Y-3511619D01*
X19526190Y-3702095D02*
X18954761Y-3892571D01*
X18954761Y-3397333D01*
X21304285Y-4197333D02*
X21266190Y-4235428D01*
X21228095Y-4349714D01*
X21228095Y-4425904D01*
X21266190Y-4540190D01*
X21342380Y-4616380D01*
X21418571Y-4654476D01*
X21570952Y-4692571D01*
X21685238Y-4692571D01*
X21837619Y-4654476D01*
X21913809Y-4616380D01*
X21990000Y-4540190D01*
X22028095Y-4425904D01*
X22028095Y-4349714D01*
X21990000Y-4235428D01*
X21951904Y-4197333D01*
X22028095Y-3511619D02*
X22028095Y-3664000D01*
X21990000Y-3740190D01*
X21951904Y-3778285D01*
X21837619Y-3854476D01*
X21685238Y-3892571D01*
X21380476Y-3892571D01*
X21304285Y-3854476D01*
X21266190Y-3816380D01*
X21228095Y-3740190D01*
X21228095Y-3587809D01*
X21266190Y-3511619D01*
X21304285Y-3473523D01*
X21380476Y-3435428D01*
X21570952Y-3435428D01*
X21647142Y-3473523D01*
X21685238Y-3511619D01*
X21723333Y-3587809D01*
X21723333Y-3740190D01*
X21685238Y-3816380D01*
X21647142Y-3854476D01*
X21570952Y-3892571D01*
X23768095Y-4654476D02*
X24568095Y-4654476D01*
X24568095Y-4464000D01*
X24530000Y-4349714D01*
X24453809Y-4273523D01*
X24377619Y-4235428D01*
X24225238Y-4197333D01*
X24110952Y-4197333D01*
X23958571Y-4235428D01*
X23882380Y-4273523D01*
X23806190Y-4349714D01*
X23768095Y-4464000D01*
X23768095Y-4654476D01*
X24568095Y-3930666D02*
X24568095Y-3397333D01*
X23768095Y-3740190D01*
X26727142Y-4616380D02*
X26727142Y-4349714D01*
X26308095Y-4235428D02*
X26308095Y-4616380D01*
X27108095Y-4616380D01*
X27108095Y-4235428D01*
X27108095Y-3549714D02*
X27108095Y-3702095D01*
X27070000Y-3778285D01*
X27031904Y-3816380D01*
X26917619Y-3892571D01*
X26765238Y-3930666D01*
X26460476Y-3930666D01*
X26384285Y-3892571D01*
X26346190Y-3854476D01*
X26308095Y-3778285D01*
X26308095Y-3625904D01*
X26346190Y-3549714D01*
X26384285Y-3511619D01*
X26460476Y-3473523D01*
X26650952Y-3473523D01*
X26727142Y-3511619D01*
X26765238Y-3549714D01*
X26803333Y-3625904D01*
X26803333Y-3778285D01*
X26765238Y-3854476D01*
X26727142Y-3892571D01*
X26650952Y-3930666D01*
X29267142Y-4387809D02*
X29229047Y-4273523D01*
X29190952Y-4235428D01*
X29114761Y-4197333D01*
X29000476Y-4197333D01*
X28924285Y-4235428D01*
X28886190Y-4273523D01*
X28848095Y-4349714D01*
X28848095Y-4654476D01*
X29648095Y-4654476D01*
X29648095Y-4387809D01*
X29610000Y-4311619D01*
X29571904Y-4273523D01*
X29495714Y-4235428D01*
X29419523Y-4235428D01*
X29343333Y-4273523D01*
X29305238Y-4311619D01*
X29267142Y-4387809D01*
X29267142Y-4654476D01*
X29381428Y-3511619D02*
X28848095Y-3511619D01*
X29686190Y-3702095D02*
X29114761Y-3892571D01*
X29114761Y-3397333D01*
X31807142Y-4387809D02*
X31769047Y-4273523D01*
X31730952Y-4235428D01*
X31654761Y-4197333D01*
X31540476Y-4197333D01*
X31464285Y-4235428D01*
X31426190Y-4273523D01*
X31388095Y-4349714D01*
X31388095Y-4654476D01*
X32188095Y-4654476D01*
X32188095Y-4387809D01*
X32150000Y-4311619D01*
X32111904Y-4273523D01*
X32035714Y-4235428D01*
X31959523Y-4235428D01*
X31883333Y-4273523D01*
X31845238Y-4311619D01*
X31807142Y-4387809D01*
X31807142Y-4654476D01*
X32188095Y-3473523D02*
X32188095Y-3854476D01*
X31807142Y-3892571D01*
X31845238Y-3854476D01*
X31883333Y-3778285D01*
X31883333Y-3587809D01*
X31845238Y-3511619D01*
X31807142Y-3473523D01*
X31730952Y-3435428D01*
X31540476Y-3435428D01*
X31464285Y-3473523D01*
X31426190Y-3511619D01*
X31388095Y-3587809D01*
X31388095Y-3778285D01*
X31426190Y-3854476D01*
X31464285Y-3892571D01*
X31807142Y-15309809D02*
X31769047Y-15195523D01*
X31730952Y-15157428D01*
X31654761Y-15119333D01*
X31540476Y-15119333D01*
X31464285Y-15157428D01*
X31426190Y-15195523D01*
X31388095Y-15271714D01*
X31388095Y-15576476D01*
X32188095Y-15576476D01*
X32188095Y-15309809D01*
X32150000Y-15233619D01*
X32111904Y-15195523D01*
X32035714Y-15157428D01*
X31959523Y-15157428D01*
X31883333Y-15195523D01*
X31845238Y-15233619D01*
X31807142Y-15309809D01*
X31807142Y-15576476D01*
X32188095Y-14433619D02*
X32188095Y-14586000D01*
X32150000Y-14662190D01*
X32111904Y-14700285D01*
X31997619Y-14776476D01*
X31845238Y-14814571D01*
X31540476Y-14814571D01*
X31464285Y-14776476D01*
X31426190Y-14738380D01*
X31388095Y-14662190D01*
X31388095Y-14509809D01*
X31426190Y-14433619D01*
X31464285Y-14395523D01*
X31540476Y-14357428D01*
X31730952Y-14357428D01*
X31807142Y-14395523D01*
X31845238Y-14433619D01*
X31883333Y-14509809D01*
X31883333Y-14662190D01*
X31845238Y-14738380D01*
X31807142Y-14776476D01*
X31730952Y-14814571D01*
X26727142Y-15309809D02*
X26689047Y-15195523D01*
X26650952Y-15157428D01*
X26574761Y-15119333D01*
X26460476Y-15119333D01*
X26384285Y-15157428D01*
X26346190Y-15195523D01*
X26308095Y-15271714D01*
X26308095Y-15576476D01*
X27108095Y-15576476D01*
X27108095Y-15309809D01*
X27070000Y-15233619D01*
X27031904Y-15195523D01*
X26955714Y-15157428D01*
X26879523Y-15157428D01*
X26803333Y-15195523D01*
X26765238Y-15233619D01*
X26727142Y-15309809D01*
X26727142Y-15576476D01*
X27108095Y-14852666D02*
X27108095Y-14357428D01*
X26803333Y-14624095D01*
X26803333Y-14509809D01*
X26765238Y-14433619D01*
X26727142Y-14395523D01*
X26650952Y-14357428D01*
X26460476Y-14357428D01*
X26384285Y-14395523D01*
X26346190Y-14433619D01*
X26308095Y-14509809D01*
X26308095Y-14738380D01*
X26346190Y-14814571D01*
X26384285Y-14852666D01*
X24187142Y-15309809D02*
X24149047Y-15195523D01*
X24110952Y-15157428D01*
X24034761Y-15119333D01*
X23920476Y-15119333D01*
X23844285Y-15157428D01*
X23806190Y-15195523D01*
X23768095Y-15271714D01*
X23768095Y-15576476D01*
X24568095Y-15576476D01*
X24568095Y-15309809D01*
X24530000Y-15233619D01*
X24491904Y-15195523D01*
X24415714Y-15157428D01*
X24339523Y-15157428D01*
X24263333Y-15195523D01*
X24225238Y-15233619D01*
X24187142Y-15309809D01*
X24187142Y-15576476D01*
X23768095Y-14357428D02*
X23768095Y-14814571D01*
X23768095Y-14586000D02*
X24568095Y-14586000D01*
X24453809Y-14662190D01*
X24377619Y-14738380D01*
X24339523Y-14814571D01*
X14027142Y-15252666D02*
X14027142Y-15519333D01*
X13608095Y-15519333D02*
X14408095Y-15519333D01*
X14408095Y-15138380D01*
X14141428Y-14490761D02*
X13608095Y-14490761D01*
X14446190Y-14681238D02*
X13874761Y-14871714D01*
X13874761Y-14376476D01*
X11868095Y-16052666D02*
X11068095Y-15786000D01*
X11868095Y-15519333D01*
X11144285Y-14795523D02*
X11106190Y-14833619D01*
X11068095Y-14947904D01*
X11068095Y-15024095D01*
X11106190Y-15138380D01*
X11182380Y-15214571D01*
X11258571Y-15252666D01*
X11410952Y-15290761D01*
X11525238Y-15290761D01*
X11677619Y-15252666D01*
X11753809Y-15214571D01*
X11830000Y-15138380D01*
X11868095Y-15024095D01*
X11868095Y-14947904D01*
X11830000Y-14833619D01*
X11791904Y-14795523D01*
X11144285Y-13995523D02*
X11106190Y-14033619D01*
X11068095Y-14147904D01*
X11068095Y-14224095D01*
X11106190Y-14338380D01*
X11182380Y-14414571D01*
X11258571Y-14452666D01*
X11410952Y-14490761D01*
X11525238Y-14490761D01*
X11677619Y-14452666D01*
X11753809Y-14414571D01*
X11830000Y-14338380D01*
X11868095Y-14224095D01*
X11868095Y-14147904D01*
X11830000Y-14033619D01*
X11791904Y-13995523D01*
X8536190Y-15791453D02*
X8498095Y-15677167D01*
X8498095Y-15486691D01*
X8536190Y-15410500D01*
X8574285Y-15372405D01*
X8650476Y-15334310D01*
X8726666Y-15334310D01*
X8802857Y-15372405D01*
X8840952Y-15410500D01*
X8879047Y-15486691D01*
X8917142Y-15639072D01*
X8955238Y-15715262D01*
X8993333Y-15753358D01*
X9069523Y-15791453D01*
X9145714Y-15791453D01*
X9221904Y-15753358D01*
X9260000Y-15715262D01*
X9298095Y-15639072D01*
X9298095Y-15448596D01*
X9260000Y-15334310D01*
X9298095Y-15105739D02*
X9298095Y-14648596D01*
X8498095Y-14877167D02*
X9298095Y-14877167D01*
X6750000Y-15595523D02*
X6788095Y-15671714D01*
X6788095Y-15786000D01*
X6750000Y-15900285D01*
X6673809Y-15976476D01*
X6597619Y-16014571D01*
X6445238Y-16052666D01*
X6330952Y-16052666D01*
X6178571Y-16014571D01*
X6102380Y-15976476D01*
X6026190Y-15900285D01*
X5988095Y-15786000D01*
X5988095Y-15709809D01*
X6026190Y-15595523D01*
X6064285Y-15557428D01*
X6330952Y-15557428D01*
X6330952Y-15709809D01*
X5988095Y-15214571D02*
X6788095Y-15214571D01*
X5988095Y-14757428D01*
X6788095Y-14757428D01*
X5988095Y-14376476D02*
X6788095Y-14376476D01*
X6788095Y-14186000D01*
X6750000Y-14071714D01*
X6673809Y-13995523D01*
X6597619Y-13957428D01*
X6445238Y-13919333D01*
X6330952Y-13919333D01*
X6178571Y-13957428D01*
X6102380Y-13995523D01*
X6026190Y-14071714D01*
X5988095Y-14186000D01*
X5988095Y-14376476D01*
X3448095Y-15538380D02*
X3829047Y-15805047D01*
X3448095Y-15995523D02*
X4248095Y-15995523D01*
X4248095Y-15690761D01*
X4210000Y-15614571D01*
X4171904Y-15576476D01*
X4095714Y-15538380D01*
X3981428Y-15538380D01*
X3905238Y-15576476D01*
X3867142Y-15614571D01*
X3829047Y-15690761D01*
X3829047Y-15995523D01*
X3676666Y-15233619D02*
X3676666Y-14852666D01*
X3448095Y-15309809D02*
X4248095Y-15043142D01*
X3448095Y-14776476D01*
X4248095Y-14586000D02*
X3448095Y-14395523D01*
X4019523Y-14243142D01*
X3448095Y-14090761D01*
X4248095Y-13900285D01*
X16567142Y-15252666D02*
X16567142Y-15519333D01*
X16148095Y-15519333D02*
X16948095Y-15519333D01*
X16948095Y-15138380D01*
X16948095Y-14452666D02*
X16948095Y-14833619D01*
X16567142Y-14871714D01*
X16605238Y-14833619D01*
X16643333Y-14757428D01*
X16643333Y-14566952D01*
X16605238Y-14490761D01*
X16567142Y-14452666D01*
X16490952Y-14414571D01*
X16300476Y-14414571D01*
X16224285Y-14452666D01*
X16186190Y-14490761D01*
X16148095Y-14566952D01*
X16148095Y-14757428D01*
X16186190Y-14833619D01*
X16224285Y-14871714D01*
X19107142Y-15252666D02*
X19107142Y-15519333D01*
X18688095Y-15519333D02*
X19488095Y-15519333D01*
X19488095Y-15138380D01*
X19488095Y-14490761D02*
X19488095Y-14643142D01*
X19450000Y-14719333D01*
X19411904Y-14757428D01*
X19297619Y-14833619D01*
X19145238Y-14871714D01*
X18840476Y-14871714D01*
X18764285Y-14833619D01*
X18726190Y-14795523D01*
X18688095Y-14719333D01*
X18688095Y-14566952D01*
X18726190Y-14490761D01*
X18764285Y-14452666D01*
X18840476Y-14414571D01*
X19030952Y-14414571D01*
X19107142Y-14452666D01*
X19145238Y-14490761D01*
X19183333Y-14566952D01*
X19183333Y-14719333D01*
X19145238Y-14795523D01*
X19107142Y-14833619D01*
X19030952Y-14871714D01*
X21647142Y-15252666D02*
X21647142Y-15519333D01*
X21228095Y-15519333D02*
X22028095Y-15519333D01*
X22028095Y-15138380D01*
X22028095Y-14909809D02*
X22028095Y-14376476D01*
X21228095Y-14719333D01*
X29267142Y-15309809D02*
X29229047Y-15195523D01*
X29190952Y-15157428D01*
X29114761Y-15119333D01*
X29000476Y-15119333D01*
X28924285Y-15157428D01*
X28886190Y-15195523D01*
X28848095Y-15271714D01*
X28848095Y-15576476D01*
X29648095Y-15576476D01*
X29648095Y-15309809D01*
X29610000Y-15233619D01*
X29571904Y-15195523D01*
X29495714Y-15157428D01*
X29419523Y-15157428D01*
X29343333Y-15195523D01*
X29305238Y-15233619D01*
X29267142Y-15309809D01*
X29267142Y-15576476D01*
X29571904Y-14814571D02*
X29610000Y-14776476D01*
X29648095Y-14700285D01*
X29648095Y-14509809D01*
X29610000Y-14433619D01*
X29571904Y-14395523D01*
X29495714Y-14357428D01*
X29419523Y-14357428D01*
X29305238Y-14395523D01*
X28848095Y-14852666D01*
X28848095Y-14357428D01*
%TD*%
M02*
