M48
; DRILL file {KiCad 5.99.0+really5.1.10+dfsg1-1} date Tue May 25 00:40:37 2021
; FORMAT={-:-/ absolute / inch / decimal}
; #@! TF.CreationDate,2021-05-25T00:40:37-04:00
; #@! TF.GenerationSoftware,Kicad,Pcbnew,5.99.0+really5.1.10+dfsg1-1
; #@! TF.FileFunction,Plated,1,2,PTH
FMAT,2
INCH
T1C0.0157
T2C0.0256
T3C0.0430
T4C0.0579
%
G90
G05
T1
X0.1Y-0.025
X0.1Y-0.125
X0.1Y-0.175
X0.1Y-0.225
X0.1Y-0.275
X0.1Y-0.325
X0.1Y-0.375
X0.1Y-0.425
X0.1Y-0.475
X0.1Y-0.525
X0.1Y-0.575
X0.1Y-0.625
X0.1Y-0.725
X0.2Y-0.025
X0.2Y-0.125
X0.2Y-0.625
X0.2Y-0.725
X0.225Y-0.345
X0.3Y-0.025
X0.3Y-0.125
X0.3Y-0.625
X0.3Y-0.725
X0.4Y-0.025
X0.4Y-0.125
X0.4Y-0.625
X0.4Y-0.725
X0.4425Y-0.24
X0.5Y-0.025
X0.5Y-0.625
X0.5Y-0.725
X0.6Y-0.025
X0.6Y-0.125
X0.6Y-0.625
X0.6Y-0.725
X0.7Y-0.025
X0.7Y-0.125
X0.7Y-0.625
X0.7Y-0.725
X0.8Y-0.025
X0.8Y-0.125
X0.8Y-0.625
X0.8Y-0.725
X0.9Y-0.025
X0.9Y-0.125
X0.9Y-0.625
X0.9Y-0.725
X0.975Y-0.345
X0.9975Y-0.025
X0.9975Y-0.125
X1.0Y-0.625
X1.0Y-0.725
X1.0425Y-0.4375
X1.1Y-0.025
X1.1Y-0.125
X1.1Y-0.725
X1.1002Y-0.6252
X1.1927Y-0.2398
X1.2Y-0.025
X1.2Y-0.725
X1.2175Y-0.4225
X1.2975Y-0.025
X1.2975Y-0.125
X1.3Y-0.625
X1.3Y-0.725
X1.35Y-0.025
X1.35Y-0.725
X1.365Y-0.42
X1.4Y-0.025
X1.4Y-0.725
X1.43Y-0.42
X1.45Y-0.025
X1.45Y-0.725
X1.5Y-0.025
X1.5Y-0.725
X1.55Y-0.025
X1.55Y-0.45
X1.55Y-0.725
X1.6Y-0.025
X1.6Y-0.725
X1.65Y-0.025
X1.65Y-0.725
X1.7Y-0.025
X1.7Y-0.725
X1.725Y-0.345
X1.75Y-0.025
X1.75Y-0.725
X1.8Y-0.025
X1.8Y-0.725
X1.85Y-0.025
X1.85Y-0.725
X1.9Y-0.025
X1.9Y-0.725
X1.9425Y-0.24
X1.95Y-0.025
X1.95Y-0.725
X2.0Y-0.025
X2.0Y-0.725
X2.05Y-0.025
X2.05Y-0.725
X2.1Y-0.025
X2.1Y-0.725
X2.15Y-0.025
X2.15Y-0.725
X2.2Y-0.025
X2.2Y-0.725
X2.25Y-0.025
X2.25Y-0.725
X2.3Y-0.025
X2.3Y-0.725
X2.35Y-0.025
X2.35Y-0.725
X2.4Y-0.025
X2.4Y-0.725
X2.45Y-0.025
X2.45Y-0.725
X2.475Y-0.345
X2.5Y-0.025
X2.5Y-0.725
X2.55Y-0.025
X2.55Y-0.725
X2.6Y-0.025
X2.6Y-0.725
X2.65Y-0.025
X2.65Y-0.725
X2.6925Y-0.24
X2.7Y-0.025
X2.7Y-0.725
X2.75Y-0.025
X2.75Y-0.725
X2.8Y-0.025
X2.8Y-0.725
X2.85Y-0.025
X2.85Y-0.725
X2.87Y-0.52
X2.9Y-0.025
X2.9Y-0.725
X2.95Y-0.025
X2.95Y-0.725
X3.0Y-0.025
X3.0Y-0.725
X3.05Y-0.025
X3.05Y-0.725
X3.1Y-0.025
X3.1Y-0.725
X3.15Y-0.025
X3.15Y-0.725
X3.2Y-0.025
X3.2Y-0.725
X3.225Y-0.345
X3.25Y-0.025
X3.25Y-0.725
X3.3Y-0.025
X3.3Y-0.725
X3.35Y-0.025
X3.35Y-0.725
X3.4Y-0.025
X3.4Y-0.725
X3.4425Y-0.24
X3.45Y-0.025
X3.45Y-0.725
X3.5Y-0.025
X3.5Y-0.725
X3.5425Y-0.465
X3.55Y-0.025
X3.55Y-0.725
X3.6Y-0.025
X3.6Y-0.725
X3.65Y-0.025
X3.65Y-0.725
X3.6525Y-0.4725
X3.655Y-0.2725
X3.655Y-0.3725
X3.7Y-0.025
X3.7Y-0.075
X3.7Y-0.675
X3.7Y-0.725
T2
X3.695Y-0.1475
X3.695Y-0.1975
X3.695Y-0.2475
X3.695Y-0.2975
X3.695Y-0.3475
X3.695Y-0.3975
X3.695Y-0.4475
X3.695Y-0.4975
X3.695Y-0.5475
X3.695Y-0.5975
T3
X0.15Y-0.075
X0.15Y-0.675
X0.25Y-0.075
X0.25Y-0.675
X0.35Y-0.075
X0.35Y-0.675
X0.45Y-0.075
X0.45Y-0.675
X0.55Y-0.075
X0.55Y-0.675
X0.65Y-0.075
X0.65Y-0.675
X0.75Y-0.075
X0.75Y-0.675
X0.85Y-0.075
X0.85Y-0.675
X0.95Y-0.075
X0.95Y-0.675
X1.05Y-0.075
X1.05Y-0.675
X1.15Y-0.075
X1.15Y-0.675
X1.25Y-0.075
X1.25Y-0.675
T4
X0.225Y-0.275
X0.475Y-0.175
X0.975Y-0.275
X1.225Y-0.175
X1.725Y-0.275
X1.975Y-0.175
X2.475Y-0.275
X2.725Y-0.175
X3.225Y-0.275
X3.475Y-0.175
T0
M30
