%TF.GenerationSoftware,KiCad,Pcbnew,5.99.0+really5.1.10+dfsg1-1*%
%TF.CreationDate,2021-05-25T04:06:56-04:00*%
%TF.ProjectId,5x1,3578312e-6b69-4636-9164-5f7063625858,rev?*%
%TF.SameCoordinates,Original*%
%TF.FileFunction,Legend,Top*%
%TF.FilePolarity,Positive*%
%FSLAX46Y46*%
G04 Gerber Fmt 4.6, Leading zero omitted, Abs format (unit mm)*
G04 Created by KiCad (PCBNEW 5.99.0+really5.1.10+dfsg1-1) date 2021-05-25 04:06:56*
%MOMM*%
%LPD*%
G01*
G04 APERTURE LIST*
%ADD10C,0.150000*%
%ADD11C,0.381000*%
G04 APERTURE END LIST*
D10*
X90805023Y-14358880D02*
X90233595Y-14358880D01*
X90519309Y-14358880D02*
X90519309Y-13358880D01*
X90424071Y-13501738D01*
X90328833Y-13596976D01*
X90233595Y-13644595D01*
X91138357Y-13358880D02*
X91757404Y-13358880D01*
X91424071Y-13739833D01*
X91566928Y-13739833D01*
X91662166Y-13787452D01*
X91709785Y-13835071D01*
X91757404Y-13930309D01*
X91757404Y-14168404D01*
X91709785Y-14263642D01*
X91662166Y-14311261D01*
X91566928Y-14358880D01*
X91281214Y-14358880D01*
X91185976Y-14311261D01*
X91138357Y-14263642D01*
X90805023Y-13088880D02*
X90233595Y-13088880D01*
X90519309Y-13088880D02*
X90519309Y-12088880D01*
X90424071Y-12231738D01*
X90328833Y-12326976D01*
X90233595Y-12374595D01*
X91662166Y-12422214D02*
X91662166Y-13088880D01*
X91424071Y-12041261D02*
X91185976Y-12755547D01*
X91805023Y-12755547D01*
X90805023Y-11818880D02*
X90233595Y-11818880D01*
X90519309Y-11818880D02*
X90519309Y-10818880D01*
X90424071Y-10961738D01*
X90328833Y-11056976D01*
X90233595Y-11104595D01*
X91709785Y-10818880D02*
X91233595Y-10818880D01*
X91185976Y-11295071D01*
X91233595Y-11247452D01*
X91328833Y-11199833D01*
X91566928Y-11199833D01*
X91662166Y-11247452D01*
X91709785Y-11295071D01*
X91757404Y-11390309D01*
X91757404Y-11628404D01*
X91709785Y-11723642D01*
X91662166Y-11771261D01*
X91566928Y-11818880D01*
X91328833Y-11818880D01*
X91233595Y-11771261D01*
X91185976Y-11723642D01*
X90805023Y-10548880D02*
X90233595Y-10548880D01*
X90519309Y-10548880D02*
X90519309Y-9548880D01*
X90424071Y-9691738D01*
X90328833Y-9786976D01*
X90233595Y-9834595D01*
X91662166Y-9548880D02*
X91471690Y-9548880D01*
X91376452Y-9596500D01*
X91328833Y-9644119D01*
X91233595Y-9786976D01*
X91185976Y-9977452D01*
X91185976Y-10358404D01*
X91233595Y-10453642D01*
X91281214Y-10501261D01*
X91376452Y-10548880D01*
X91566928Y-10548880D01*
X91662166Y-10501261D01*
X91709785Y-10453642D01*
X91757404Y-10358404D01*
X91757404Y-10120309D01*
X91709785Y-10025071D01*
X91662166Y-9977452D01*
X91566928Y-9929833D01*
X91376452Y-9929833D01*
X91281214Y-9977452D01*
X91233595Y-10025071D01*
X91185976Y-10120309D01*
X90805023Y-9278880D02*
X90233595Y-9278880D01*
X90519309Y-9278880D02*
X90519309Y-8278880D01*
X90424071Y-8421738D01*
X90328833Y-8516976D01*
X90233595Y-8564595D01*
X91138357Y-8278880D02*
X91805023Y-8278880D01*
X91376452Y-9278880D01*
X90805023Y-8008880D02*
X90233595Y-8008880D01*
X90519309Y-8008880D02*
X90519309Y-7008880D01*
X90424071Y-7151738D01*
X90328833Y-7246976D01*
X90233595Y-7294595D01*
X91376452Y-7437452D02*
X91281214Y-7389833D01*
X91233595Y-7342214D01*
X91185976Y-7246976D01*
X91185976Y-7199357D01*
X91233595Y-7104119D01*
X91281214Y-7056500D01*
X91376452Y-7008880D01*
X91566928Y-7008880D01*
X91662166Y-7056500D01*
X91709785Y-7104119D01*
X91757404Y-7199357D01*
X91757404Y-7246976D01*
X91709785Y-7342214D01*
X91662166Y-7389833D01*
X91566928Y-7437452D01*
X91376452Y-7437452D01*
X91281214Y-7485071D01*
X91233595Y-7532690D01*
X91185976Y-7627928D01*
X91185976Y-7818404D01*
X91233595Y-7913642D01*
X91281214Y-7961261D01*
X91376452Y-8008880D01*
X91566928Y-8008880D01*
X91662166Y-7961261D01*
X91709785Y-7913642D01*
X91757404Y-7818404D01*
X91757404Y-7627928D01*
X91709785Y-7532690D01*
X91662166Y-7485071D01*
X91566928Y-7437452D01*
X90805023Y-6738880D02*
X90233595Y-6738880D01*
X90519309Y-6738880D02*
X90519309Y-5738880D01*
X90424071Y-5881738D01*
X90328833Y-5976976D01*
X90233595Y-6024595D01*
X91281214Y-6738880D02*
X91471690Y-6738880D01*
X91566928Y-6691261D01*
X91614547Y-6643642D01*
X91709785Y-6500785D01*
X91757404Y-6310309D01*
X91757404Y-5929357D01*
X91709785Y-5834119D01*
X91662166Y-5786500D01*
X91566928Y-5738880D01*
X91376452Y-5738880D01*
X91281214Y-5786500D01*
X91233595Y-5834119D01*
X91185976Y-5929357D01*
X91185976Y-6167452D01*
X91233595Y-6262690D01*
X91281214Y-6310309D01*
X91376452Y-6357928D01*
X91566928Y-6357928D01*
X91662166Y-6310309D01*
X91709785Y-6262690D01*
X91757404Y-6167452D01*
X90233595Y-4564119D02*
X90281214Y-4516500D01*
X90376452Y-4468880D01*
X90614547Y-4468880D01*
X90709785Y-4516500D01*
X90757404Y-4564119D01*
X90805023Y-4659357D01*
X90805023Y-4754595D01*
X90757404Y-4897452D01*
X90185976Y-5468880D01*
X90805023Y-5468880D01*
X91424071Y-4468880D02*
X91519309Y-4468880D01*
X91614547Y-4516500D01*
X91662166Y-4564119D01*
X91709785Y-4659357D01*
X91757404Y-4849833D01*
X91757404Y-5087928D01*
X91709785Y-5278404D01*
X91662166Y-5373642D01*
X91614547Y-5421261D01*
X91519309Y-5468880D01*
X91424071Y-5468880D01*
X91328833Y-5421261D01*
X91281214Y-5373642D01*
X91233595Y-5278404D01*
X91185976Y-5087928D01*
X91185976Y-4849833D01*
X91233595Y-4659357D01*
X91281214Y-4564119D01*
X91328833Y-4516500D01*
X91424071Y-4468880D01*
X87185476Y-5865880D02*
X86995000Y-5865880D01*
X86899761Y-5913500D01*
X86852142Y-5961119D01*
X86756904Y-6103976D01*
X86709285Y-6294452D01*
X86709285Y-6675404D01*
X86756904Y-6770642D01*
X86804523Y-6818261D01*
X86899761Y-6865880D01*
X87090238Y-6865880D01*
X87185476Y-6818261D01*
X87233095Y-6770642D01*
X87280714Y-6675404D01*
X87280714Y-6437309D01*
X87233095Y-6342071D01*
X87185476Y-6294452D01*
X87090238Y-6246833D01*
X86899761Y-6246833D01*
X86804523Y-6294452D01*
X86756904Y-6342071D01*
X86709285Y-6437309D01*
X82597595Y-6437380D02*
X82121404Y-6437380D01*
X82073785Y-6913571D01*
X82121404Y-6865952D01*
X82216642Y-6818333D01*
X82454738Y-6818333D01*
X82549976Y-6865952D01*
X82597595Y-6913571D01*
X82645214Y-7008809D01*
X82645214Y-7246904D01*
X82597595Y-7342142D01*
X82549976Y-7389761D01*
X82454738Y-7437380D01*
X82216642Y-7437380D01*
X82121404Y-7389761D01*
X82073785Y-7342142D01*
X67849761Y-6294452D02*
X67754523Y-6246833D01*
X67706904Y-6199214D01*
X67659285Y-6103976D01*
X67659285Y-6056357D01*
X67706904Y-5961119D01*
X67754523Y-5913500D01*
X67849761Y-5865880D01*
X68040238Y-5865880D01*
X68135476Y-5913500D01*
X68183095Y-5961119D01*
X68230714Y-6056357D01*
X68230714Y-6103976D01*
X68183095Y-6199214D01*
X68135476Y-6246833D01*
X68040238Y-6294452D01*
X67849761Y-6294452D01*
X67754523Y-6342071D01*
X67706904Y-6389690D01*
X67659285Y-6484928D01*
X67659285Y-6675404D01*
X67706904Y-6770642D01*
X67754523Y-6818261D01*
X67849761Y-6865880D01*
X68040238Y-6865880D01*
X68135476Y-6818261D01*
X68183095Y-6770642D01*
X68230714Y-6675404D01*
X68230714Y-6484928D01*
X68183095Y-6389690D01*
X68135476Y-6342071D01*
X68040238Y-6294452D01*
X62912666Y-6437380D02*
X63579333Y-6437380D01*
X63150761Y-7437380D01*
X48704523Y-6802380D02*
X48133095Y-6802380D01*
X48418809Y-6802380D02*
X48418809Y-5802380D01*
X48323571Y-5945238D01*
X48228333Y-6040476D01*
X48133095Y-6088095D01*
X49085476Y-5897619D02*
X49133095Y-5850000D01*
X49228333Y-5802380D01*
X49466428Y-5802380D01*
X49561666Y-5850000D01*
X49609285Y-5897619D01*
X49656904Y-5992857D01*
X49656904Y-6088095D01*
X49609285Y-6230952D01*
X49037857Y-6802380D01*
X49656904Y-6802380D01*
X44513523Y-7437380D02*
X43942095Y-7437380D01*
X44227809Y-7437380D02*
X44227809Y-6437380D01*
X44132571Y-6580238D01*
X44037333Y-6675476D01*
X43942095Y-6723095D01*
X45132571Y-6437380D02*
X45227809Y-6437380D01*
X45323047Y-6485000D01*
X45370666Y-6532619D01*
X45418285Y-6627857D01*
X45465904Y-6818333D01*
X45465904Y-7056428D01*
X45418285Y-7246904D01*
X45370666Y-7342142D01*
X45323047Y-7389761D01*
X45227809Y-7437380D01*
X45132571Y-7437380D01*
X45037333Y-7389761D01*
X44989714Y-7342142D01*
X44942095Y-7246904D01*
X44894476Y-7056428D01*
X44894476Y-6818333D01*
X44942095Y-6627857D01*
X44989714Y-6532619D01*
X45037333Y-6485000D01*
X45132571Y-6437380D01*
X29654523Y-6738880D02*
X29083095Y-6738880D01*
X29368809Y-6738880D02*
X29368809Y-5738880D01*
X29273571Y-5881738D01*
X29178333Y-5976976D01*
X29083095Y-6024595D01*
X30606904Y-6738880D02*
X30035476Y-6738880D01*
X30321190Y-6738880D02*
X30321190Y-5738880D01*
X30225952Y-5881738D01*
X30130714Y-5976976D01*
X30035476Y-6024595D01*
X25019023Y-7437380D02*
X25209500Y-7437380D01*
X25304738Y-7389761D01*
X25352357Y-7342142D01*
X25447595Y-7199285D01*
X25495214Y-7008809D01*
X25495214Y-6627857D01*
X25447595Y-6532619D01*
X25399976Y-6485000D01*
X25304738Y-6437380D01*
X25114261Y-6437380D01*
X25019023Y-6485000D01*
X24971404Y-6532619D01*
X24923785Y-6627857D01*
X24923785Y-6865952D01*
X24971404Y-6961190D01*
X25019023Y-7008809D01*
X25114261Y-7056428D01*
X25304738Y-7056428D01*
X25399976Y-7008809D01*
X25447595Y-6961190D01*
X25495214Y-6865952D01*
X10509285Y-5961119D02*
X10556904Y-5913500D01*
X10652142Y-5865880D01*
X10890238Y-5865880D01*
X10985476Y-5913500D01*
X11033095Y-5961119D01*
X11080714Y-6056357D01*
X11080714Y-6151595D01*
X11033095Y-6294452D01*
X10461666Y-6865880D01*
X11080714Y-6865880D01*
X6381714Y-7437380D02*
X5810285Y-7437380D01*
X6096000Y-7437380D02*
X6096000Y-6437380D01*
X6000761Y-6580238D01*
X5905523Y-6675476D01*
X5810285Y-6723095D01*
D11*
%TO.C,U1*%
X1270000Y-3175000D02*
X1270000Y-635000D01*
X-1270000Y-18415000D02*
X-1270000Y-635000D01*
X-1270000Y-635000D02*
X31750000Y-635000D01*
X31750000Y-635000D02*
X31750000Y-18415000D01*
X31750000Y-18415000D02*
X-1270000Y-18415000D01*
D10*
G36*
X7159030Y-15369635D02*
G01*
X7259030Y-15369635D01*
X7259030Y-15869635D01*
X7159030Y-15869635D01*
X7159030Y-15369635D01*
G37*
X7159030Y-15369635D02*
X7259030Y-15369635D01*
X7259030Y-15869635D01*
X7159030Y-15869635D01*
X7159030Y-15369635D01*
G36*
X7159030Y-15369635D02*
G01*
X7459030Y-15369635D01*
X7459030Y-15469635D01*
X7159030Y-15469635D01*
X7159030Y-15369635D01*
G37*
X7159030Y-15369635D02*
X7459030Y-15369635D01*
X7459030Y-15469635D01*
X7159030Y-15469635D01*
X7159030Y-15369635D01*
G36*
X7759030Y-15369635D02*
G01*
X7959030Y-15369635D01*
X7959030Y-15469635D01*
X7759030Y-15469635D01*
X7759030Y-15369635D01*
G37*
X7759030Y-15369635D02*
X7959030Y-15369635D01*
X7959030Y-15469635D01*
X7759030Y-15469635D01*
X7759030Y-15369635D01*
G36*
X7159030Y-15769635D02*
G01*
X7959030Y-15769635D01*
X7959030Y-15869635D01*
X7159030Y-15869635D01*
X7159030Y-15769635D01*
G37*
X7159030Y-15769635D02*
X7959030Y-15769635D01*
X7959030Y-15869635D01*
X7159030Y-15869635D01*
X7159030Y-15769635D01*
G36*
X7559030Y-15569635D02*
G01*
X7659030Y-15569635D01*
X7659030Y-15669635D01*
X7559030Y-15669635D01*
X7559030Y-15569635D01*
G37*
X7559030Y-15569635D02*
X7659030Y-15569635D01*
X7659030Y-15669635D01*
X7559030Y-15669635D01*
X7559030Y-15569635D01*
D11*
X1270000Y-3175000D02*
X3810000Y-3175000D01*
X3810000Y-3175000D02*
X3810000Y-635000D01*
D10*
X7276190Y-14031666D02*
X7238095Y-14145952D01*
X7238095Y-14336428D01*
X7276190Y-14412619D01*
X7314285Y-14450714D01*
X7390476Y-14488809D01*
X7466666Y-14488809D01*
X7542857Y-14450714D01*
X7580952Y-14412619D01*
X7619047Y-14336428D01*
X7657142Y-14184047D01*
X7695238Y-14107857D01*
X7733333Y-14069761D01*
X7809523Y-14031666D01*
X7885714Y-14031666D01*
X7961904Y-14069761D01*
X8000000Y-14107857D01*
X8038095Y-14184047D01*
X8038095Y-14374523D01*
X8000000Y-14488809D01*
X8038095Y-14717380D02*
X8038095Y-15174523D01*
X7238095Y-14945952D02*
X8038095Y-14945952D01*
X2978095Y-3762651D02*
X2978095Y-4219794D01*
X2178095Y-3991223D02*
X2978095Y-3991223D01*
X2978095Y-4410270D02*
X2178095Y-4943604D01*
X2978095Y-4943604D02*
X2178095Y-4410270D01*
X2978095Y-5400747D02*
X2978095Y-5476937D01*
X2940000Y-5553128D01*
X2901904Y-5591223D01*
X2825714Y-5629318D01*
X2673333Y-5667413D01*
X2482857Y-5667413D01*
X2330476Y-5629318D01*
X2254285Y-5591223D01*
X2216190Y-5553128D01*
X2178095Y-5476937D01*
X2178095Y-5400747D01*
X2216190Y-5324556D01*
X2254285Y-5286461D01*
X2330476Y-5248366D01*
X2482857Y-5210270D01*
X2673333Y-5210270D01*
X2825714Y-5248366D01*
X2901904Y-5286461D01*
X2940000Y-5324556D01*
X2978095Y-5400747D01*
X3016190Y-6581699D02*
X1987619Y-5895985D01*
X2178095Y-6848366D02*
X2978095Y-6848366D01*
X2978095Y-7038842D01*
X2940000Y-7153128D01*
X2863809Y-7229318D01*
X2787619Y-7267413D01*
X2635238Y-7305508D01*
X2520952Y-7305508D01*
X2368571Y-7267413D01*
X2292380Y-7229318D01*
X2216190Y-7153128D01*
X2178095Y-7038842D01*
X2178095Y-6848366D01*
X2978095Y-7572175D02*
X2978095Y-8067413D01*
X2673333Y-7800747D01*
X2673333Y-7915032D01*
X2635238Y-7991223D01*
X2597142Y-8029318D01*
X2520952Y-8067413D01*
X2330476Y-8067413D01*
X2254285Y-8029318D01*
X2216190Y-7991223D01*
X2178095Y-7915032D01*
X2178095Y-7686461D01*
X2216190Y-7610270D01*
X2254285Y-7572175D01*
X27997142Y-14662190D02*
X27959047Y-14776476D01*
X27920952Y-14814571D01*
X27844761Y-14852666D01*
X27730476Y-14852666D01*
X27654285Y-14814571D01*
X27616190Y-14776476D01*
X27578095Y-14700285D01*
X27578095Y-14395523D01*
X28378095Y-14395523D01*
X28378095Y-14662190D01*
X28340000Y-14738380D01*
X28301904Y-14776476D01*
X28225714Y-14814571D01*
X28149523Y-14814571D01*
X28073333Y-14776476D01*
X28035238Y-14738380D01*
X27997142Y-14662190D01*
X27997142Y-14395523D01*
X28301904Y-15157428D02*
X28340000Y-15195523D01*
X28378095Y-15271714D01*
X28378095Y-15462190D01*
X28340000Y-15538380D01*
X28301904Y-15576476D01*
X28225714Y-15614571D01*
X28149523Y-15614571D01*
X28035238Y-15576476D01*
X27578095Y-15119333D01*
X27578095Y-15614571D01*
X20377142Y-14719333D02*
X20377142Y-14452666D01*
X19958095Y-14452666D02*
X20758095Y-14452666D01*
X20758095Y-14833619D01*
X20758095Y-15062190D02*
X20758095Y-15595523D01*
X19958095Y-15252666D01*
X17837142Y-14719333D02*
X17837142Y-14452666D01*
X17418095Y-14452666D02*
X18218095Y-14452666D01*
X18218095Y-14833619D01*
X18218095Y-15481238D02*
X18218095Y-15328857D01*
X18180000Y-15252666D01*
X18141904Y-15214571D01*
X18027619Y-15138380D01*
X17875238Y-15100285D01*
X17570476Y-15100285D01*
X17494285Y-15138380D01*
X17456190Y-15176476D01*
X17418095Y-15252666D01*
X17418095Y-15405047D01*
X17456190Y-15481238D01*
X17494285Y-15519333D01*
X17570476Y-15557428D01*
X17760952Y-15557428D01*
X17837142Y-15519333D01*
X17875238Y-15481238D01*
X17913333Y-15405047D01*
X17913333Y-15252666D01*
X17875238Y-15176476D01*
X17837142Y-15138380D01*
X17760952Y-15100285D01*
X15297142Y-14719333D02*
X15297142Y-14452666D01*
X14878095Y-14452666D02*
X15678095Y-14452666D01*
X15678095Y-14833619D01*
X15678095Y-15519333D02*
X15678095Y-15138380D01*
X15297142Y-15100285D01*
X15335238Y-15138380D01*
X15373333Y-15214571D01*
X15373333Y-15405047D01*
X15335238Y-15481238D01*
X15297142Y-15519333D01*
X15220952Y-15557428D01*
X15030476Y-15557428D01*
X14954285Y-15519333D01*
X14916190Y-15481238D01*
X14878095Y-15405047D01*
X14878095Y-15214571D01*
X14916190Y-15138380D01*
X14954285Y-15100285D01*
X2178095Y-14433619D02*
X2559047Y-14166952D01*
X2178095Y-13976476D02*
X2978095Y-13976476D01*
X2978095Y-14281238D01*
X2940000Y-14357428D01*
X2901904Y-14395523D01*
X2825714Y-14433619D01*
X2711428Y-14433619D01*
X2635238Y-14395523D01*
X2597142Y-14357428D01*
X2559047Y-14281238D01*
X2559047Y-13976476D01*
X2406666Y-14738380D02*
X2406666Y-15119333D01*
X2178095Y-14662190D02*
X2978095Y-14928857D01*
X2178095Y-15195523D01*
X2978095Y-15386000D02*
X2178095Y-15576476D01*
X2749523Y-15728857D01*
X2178095Y-15881238D01*
X2978095Y-16071714D01*
X5480000Y-14376476D02*
X5518095Y-14300285D01*
X5518095Y-14186000D01*
X5480000Y-14071714D01*
X5403809Y-13995523D01*
X5327619Y-13957428D01*
X5175238Y-13919333D01*
X5060952Y-13919333D01*
X4908571Y-13957428D01*
X4832380Y-13995523D01*
X4756190Y-14071714D01*
X4718095Y-14186000D01*
X4718095Y-14262190D01*
X4756190Y-14376476D01*
X4794285Y-14414571D01*
X5060952Y-14414571D01*
X5060952Y-14262190D01*
X4718095Y-14757428D02*
X5518095Y-14757428D01*
X4718095Y-15214571D01*
X5518095Y-15214571D01*
X4718095Y-15595523D02*
X5518095Y-15595523D01*
X5518095Y-15786000D01*
X5480000Y-15900285D01*
X5403809Y-15976476D01*
X5327619Y-16014571D01*
X5175238Y-16052666D01*
X5060952Y-16052666D01*
X4908571Y-16014571D01*
X4832380Y-15976476D01*
X4756190Y-15900285D01*
X4718095Y-15786000D01*
X4718095Y-15595523D01*
X10598095Y-13919333D02*
X9798095Y-14186000D01*
X10598095Y-14452666D01*
X9874285Y-15176476D02*
X9836190Y-15138380D01*
X9798095Y-15024095D01*
X9798095Y-14947904D01*
X9836190Y-14833619D01*
X9912380Y-14757428D01*
X9988571Y-14719333D01*
X10140952Y-14681238D01*
X10255238Y-14681238D01*
X10407619Y-14719333D01*
X10483809Y-14757428D01*
X10560000Y-14833619D01*
X10598095Y-14947904D01*
X10598095Y-15024095D01*
X10560000Y-15138380D01*
X10521904Y-15176476D01*
X9874285Y-15976476D02*
X9836190Y-15938380D01*
X9798095Y-15824095D01*
X9798095Y-15747904D01*
X9836190Y-15633619D01*
X9912380Y-15557428D01*
X9988571Y-15519333D01*
X10140952Y-15481238D01*
X10255238Y-15481238D01*
X10407619Y-15519333D01*
X10483809Y-15557428D01*
X10560000Y-15633619D01*
X10598095Y-15747904D01*
X10598095Y-15824095D01*
X10560000Y-15938380D01*
X10521904Y-15976476D01*
X12757142Y-14719333D02*
X12757142Y-14452666D01*
X12338095Y-14452666D02*
X13138095Y-14452666D01*
X13138095Y-14833619D01*
X12871428Y-15481238D02*
X12338095Y-15481238D01*
X13176190Y-15290761D02*
X12604761Y-15100285D01*
X12604761Y-15595523D01*
X22917142Y-14662190D02*
X22879047Y-14776476D01*
X22840952Y-14814571D01*
X22764761Y-14852666D01*
X22650476Y-14852666D01*
X22574285Y-14814571D01*
X22536190Y-14776476D01*
X22498095Y-14700285D01*
X22498095Y-14395523D01*
X23298095Y-14395523D01*
X23298095Y-14662190D01*
X23260000Y-14738380D01*
X23221904Y-14776476D01*
X23145714Y-14814571D01*
X23069523Y-14814571D01*
X22993333Y-14776476D01*
X22955238Y-14738380D01*
X22917142Y-14662190D01*
X22917142Y-14395523D01*
X22498095Y-15614571D02*
X22498095Y-15157428D01*
X22498095Y-15386000D02*
X23298095Y-15386000D01*
X23183809Y-15309809D01*
X23107619Y-15233619D01*
X23069523Y-15157428D01*
X25457142Y-14662190D02*
X25419047Y-14776476D01*
X25380952Y-14814571D01*
X25304761Y-14852666D01*
X25190476Y-14852666D01*
X25114285Y-14814571D01*
X25076190Y-14776476D01*
X25038095Y-14700285D01*
X25038095Y-14395523D01*
X25838095Y-14395523D01*
X25838095Y-14662190D01*
X25800000Y-14738380D01*
X25761904Y-14776476D01*
X25685714Y-14814571D01*
X25609523Y-14814571D01*
X25533333Y-14776476D01*
X25495238Y-14738380D01*
X25457142Y-14662190D01*
X25457142Y-14395523D01*
X25838095Y-15119333D02*
X25838095Y-15614571D01*
X25533333Y-15347904D01*
X25533333Y-15462190D01*
X25495238Y-15538380D01*
X25457142Y-15576476D01*
X25380952Y-15614571D01*
X25190476Y-15614571D01*
X25114285Y-15576476D01*
X25076190Y-15538380D01*
X25038095Y-15462190D01*
X25038095Y-15233619D01*
X25076190Y-15157428D01*
X25114285Y-15119333D01*
X30537142Y-14662190D02*
X30499047Y-14776476D01*
X30460952Y-14814571D01*
X30384761Y-14852666D01*
X30270476Y-14852666D01*
X30194285Y-14814571D01*
X30156190Y-14776476D01*
X30118095Y-14700285D01*
X30118095Y-14395523D01*
X30918095Y-14395523D01*
X30918095Y-14662190D01*
X30880000Y-14738380D01*
X30841904Y-14776476D01*
X30765714Y-14814571D01*
X30689523Y-14814571D01*
X30613333Y-14776476D01*
X30575238Y-14738380D01*
X30537142Y-14662190D01*
X30537142Y-14395523D01*
X30918095Y-15538380D02*
X30918095Y-15386000D01*
X30880000Y-15309809D01*
X30841904Y-15271714D01*
X30727619Y-15195523D01*
X30575238Y-15157428D01*
X30270476Y-15157428D01*
X30194285Y-15195523D01*
X30156190Y-15233619D01*
X30118095Y-15309809D01*
X30118095Y-15462190D01*
X30156190Y-15538380D01*
X30194285Y-15576476D01*
X30270476Y-15614571D01*
X30460952Y-15614571D01*
X30537142Y-15576476D01*
X30575238Y-15538380D01*
X30613333Y-15462190D01*
X30613333Y-15309809D01*
X30575238Y-15233619D01*
X30537142Y-15195523D01*
X30460952Y-15157428D01*
X30537142Y-3740190D02*
X30499047Y-3854476D01*
X30460952Y-3892571D01*
X30384761Y-3930666D01*
X30270476Y-3930666D01*
X30194285Y-3892571D01*
X30156190Y-3854476D01*
X30118095Y-3778285D01*
X30118095Y-3473523D01*
X30918095Y-3473523D01*
X30918095Y-3740190D01*
X30880000Y-3816380D01*
X30841904Y-3854476D01*
X30765714Y-3892571D01*
X30689523Y-3892571D01*
X30613333Y-3854476D01*
X30575238Y-3816380D01*
X30537142Y-3740190D01*
X30537142Y-3473523D01*
X30918095Y-4654476D02*
X30918095Y-4273523D01*
X30537142Y-4235428D01*
X30575238Y-4273523D01*
X30613333Y-4349714D01*
X30613333Y-4540190D01*
X30575238Y-4616380D01*
X30537142Y-4654476D01*
X30460952Y-4692571D01*
X30270476Y-4692571D01*
X30194285Y-4654476D01*
X30156190Y-4616380D01*
X30118095Y-4540190D01*
X30118095Y-4349714D01*
X30156190Y-4273523D01*
X30194285Y-4235428D01*
X27997142Y-3740190D02*
X27959047Y-3854476D01*
X27920952Y-3892571D01*
X27844761Y-3930666D01*
X27730476Y-3930666D01*
X27654285Y-3892571D01*
X27616190Y-3854476D01*
X27578095Y-3778285D01*
X27578095Y-3473523D01*
X28378095Y-3473523D01*
X28378095Y-3740190D01*
X28340000Y-3816380D01*
X28301904Y-3854476D01*
X28225714Y-3892571D01*
X28149523Y-3892571D01*
X28073333Y-3854476D01*
X28035238Y-3816380D01*
X27997142Y-3740190D01*
X27997142Y-3473523D01*
X28111428Y-4616380D02*
X27578095Y-4616380D01*
X28416190Y-4425904D02*
X27844761Y-4235428D01*
X27844761Y-4730666D01*
X25457142Y-3511619D02*
X25457142Y-3778285D01*
X25038095Y-3892571D02*
X25038095Y-3511619D01*
X25838095Y-3511619D01*
X25838095Y-3892571D01*
X25838095Y-4578285D02*
X25838095Y-4425904D01*
X25800000Y-4349714D01*
X25761904Y-4311619D01*
X25647619Y-4235428D01*
X25495238Y-4197333D01*
X25190476Y-4197333D01*
X25114285Y-4235428D01*
X25076190Y-4273523D01*
X25038095Y-4349714D01*
X25038095Y-4502095D01*
X25076190Y-4578285D01*
X25114285Y-4616380D01*
X25190476Y-4654476D01*
X25380952Y-4654476D01*
X25457142Y-4616380D01*
X25495238Y-4578285D01*
X25533333Y-4502095D01*
X25533333Y-4349714D01*
X25495238Y-4273523D01*
X25457142Y-4235428D01*
X25380952Y-4197333D01*
X22498095Y-3473523D02*
X23298095Y-3473523D01*
X23298095Y-3664000D01*
X23260000Y-3778285D01*
X23183809Y-3854476D01*
X23107619Y-3892571D01*
X22955238Y-3930666D01*
X22840952Y-3930666D01*
X22688571Y-3892571D01*
X22612380Y-3854476D01*
X22536190Y-3778285D01*
X22498095Y-3664000D01*
X22498095Y-3473523D01*
X23298095Y-4197333D02*
X23298095Y-4730666D01*
X22498095Y-4387809D01*
X20034285Y-3930666D02*
X19996190Y-3892571D01*
X19958095Y-3778285D01*
X19958095Y-3702095D01*
X19996190Y-3587809D01*
X20072380Y-3511619D01*
X20148571Y-3473523D01*
X20300952Y-3435428D01*
X20415238Y-3435428D01*
X20567619Y-3473523D01*
X20643809Y-3511619D01*
X20720000Y-3587809D01*
X20758095Y-3702095D01*
X20758095Y-3778285D01*
X20720000Y-3892571D01*
X20681904Y-3930666D01*
X20758095Y-4616380D02*
X20758095Y-4464000D01*
X20720000Y-4387809D01*
X20681904Y-4349714D01*
X20567619Y-4273523D01*
X20415238Y-4235428D01*
X20110476Y-4235428D01*
X20034285Y-4273523D01*
X19996190Y-4311619D01*
X19958095Y-4387809D01*
X19958095Y-4540190D01*
X19996190Y-4616380D01*
X20034285Y-4654476D01*
X20110476Y-4692571D01*
X20300952Y-4692571D01*
X20377142Y-4654476D01*
X20415238Y-4616380D01*
X20453333Y-4540190D01*
X20453333Y-4387809D01*
X20415238Y-4311619D01*
X20377142Y-4273523D01*
X20300952Y-4235428D01*
X17418095Y-3473523D02*
X18218095Y-3473523D01*
X18218095Y-3664000D01*
X18180000Y-3778285D01*
X18103809Y-3854476D01*
X18027619Y-3892571D01*
X17875238Y-3930666D01*
X17760952Y-3930666D01*
X17608571Y-3892571D01*
X17532380Y-3854476D01*
X17456190Y-3778285D01*
X17418095Y-3664000D01*
X17418095Y-3473523D01*
X17951428Y-4616380D02*
X17418095Y-4616380D01*
X18256190Y-4425904D02*
X17684761Y-4235428D01*
X17684761Y-4730666D01*
X8020000Y-3454476D02*
X8058095Y-3378285D01*
X8058095Y-3264000D01*
X8020000Y-3149714D01*
X7943809Y-3073523D01*
X7867619Y-3035428D01*
X7715238Y-2997333D01*
X7600952Y-2997333D01*
X7448571Y-3035428D01*
X7372380Y-3073523D01*
X7296190Y-3149714D01*
X7258095Y-3264000D01*
X7258095Y-3340190D01*
X7296190Y-3454476D01*
X7334285Y-3492571D01*
X7600952Y-3492571D01*
X7600952Y-3340190D01*
X7258095Y-3835428D02*
X8058095Y-3835428D01*
X7258095Y-4292571D01*
X8058095Y-4292571D01*
X7258095Y-4673523D02*
X8058095Y-4673523D01*
X8058095Y-4864000D01*
X8020000Y-4978285D01*
X7943809Y-5054476D01*
X7867619Y-5092571D01*
X7715238Y-5130666D01*
X7600952Y-5130666D01*
X7448571Y-5092571D01*
X7372380Y-5054476D01*
X7296190Y-4978285D01*
X7258095Y-4864000D01*
X7258095Y-4673523D01*
X10560000Y-3454476D02*
X10598095Y-3378285D01*
X10598095Y-3264000D01*
X10560000Y-3149714D01*
X10483809Y-3073523D01*
X10407619Y-3035428D01*
X10255238Y-2997333D01*
X10140952Y-2997333D01*
X9988571Y-3035428D01*
X9912380Y-3073523D01*
X9836190Y-3149714D01*
X9798095Y-3264000D01*
X9798095Y-3340190D01*
X9836190Y-3454476D01*
X9874285Y-3492571D01*
X10140952Y-3492571D01*
X10140952Y-3340190D01*
X9798095Y-3835428D02*
X10598095Y-3835428D01*
X9798095Y-4292571D01*
X10598095Y-4292571D01*
X9798095Y-4673523D02*
X10598095Y-4673523D01*
X10598095Y-4864000D01*
X10560000Y-4978285D01*
X10483809Y-5054476D01*
X10407619Y-5092571D01*
X10255238Y-5130666D01*
X10140952Y-5130666D01*
X9988571Y-5092571D01*
X9912380Y-5054476D01*
X9836190Y-4978285D01*
X9798095Y-4864000D01*
X9798095Y-4673523D01*
X12338095Y-3473523D02*
X13138095Y-3473523D01*
X13138095Y-3664000D01*
X13100000Y-3778285D01*
X13023809Y-3854476D01*
X12947619Y-3892571D01*
X12795238Y-3930666D01*
X12680952Y-3930666D01*
X12528571Y-3892571D01*
X12452380Y-3854476D01*
X12376190Y-3778285D01*
X12338095Y-3664000D01*
X12338095Y-3473523D01*
X12338095Y-4692571D02*
X12338095Y-4235428D01*
X12338095Y-4464000D02*
X13138095Y-4464000D01*
X13023809Y-4387809D01*
X12947619Y-4311619D01*
X12909523Y-4235428D01*
X14878095Y-3473523D02*
X15678095Y-3473523D01*
X15678095Y-3664000D01*
X15640000Y-3778285D01*
X15563809Y-3854476D01*
X15487619Y-3892571D01*
X15335238Y-3930666D01*
X15220952Y-3930666D01*
X15068571Y-3892571D01*
X14992380Y-3854476D01*
X14916190Y-3778285D01*
X14878095Y-3664000D01*
X14878095Y-3473523D01*
X15678095Y-4425904D02*
X15678095Y-4502095D01*
X15640000Y-4578285D01*
X15601904Y-4616380D01*
X15525714Y-4654476D01*
X15373333Y-4692571D01*
X15182857Y-4692571D01*
X15030476Y-4654476D01*
X14954285Y-4616380D01*
X14916190Y-4578285D01*
X14878095Y-4502095D01*
X14878095Y-4425904D01*
X14916190Y-4349714D01*
X14954285Y-4311619D01*
X15030476Y-4273523D01*
X15182857Y-4235428D01*
X15373333Y-4235428D01*
X15525714Y-4273523D01*
X15601904Y-4311619D01*
X15640000Y-4349714D01*
X15678095Y-4425904D01*
X4718095Y-3473523D02*
X5518095Y-3473523D01*
X5518095Y-3664000D01*
X5480000Y-3778285D01*
X5403809Y-3854476D01*
X5327619Y-3892571D01*
X5175238Y-3930666D01*
X5060952Y-3930666D01*
X4908571Y-3892571D01*
X4832380Y-3854476D01*
X4756190Y-3778285D01*
X4718095Y-3664000D01*
X4718095Y-3473523D01*
X5441904Y-4235428D02*
X5480000Y-4273523D01*
X5518095Y-4349714D01*
X5518095Y-4540190D01*
X5480000Y-4616380D01*
X5441904Y-4654476D01*
X5365714Y-4692571D01*
X5289523Y-4692571D01*
X5175238Y-4654476D01*
X4718095Y-4197333D01*
X4718095Y-4692571D01*
%TD*%
M02*
