%TF.GenerationSoftware,KiCad,Pcbnew,5.99.0+really5.1.10+dfsg1-1*%
%TF.CreationDate,2021-05-25T02:09:23-04:00*%
%TF.ProjectId,5x1,3578312e-6b69-4636-9164-5f7063625858,rev?*%
%TF.SameCoordinates,Original*%
%TF.FileFunction,Copper,L2,Bot*%
%TF.FilePolarity,Positive*%
%FSLAX46Y46*%
G04 Gerber Fmt 4.6, Leading zero omitted, Abs format (unit mm)*
G04 Created by KiCad (PCBNEW 5.99.0+really5.1.10+dfsg1-1) date 2021-05-25 02:09:23*
%MOMM*%
%LPD*%
G01*
G04 APERTURE LIST*
%TA.AperFunction,ComponentPad*%
%ADD10O,1.000000X1.000000*%
%TD*%
%TA.AperFunction,ComponentPad*%
%ADD11C,2.250000*%
%TD*%
%TA.AperFunction,ComponentPad*%
%ADD12C,1.752600*%
%TD*%
%TA.AperFunction,ViaPad*%
%ADD13C,0.800000*%
%TD*%
%TA.AperFunction,Conductor*%
%ADD14C,0.254000*%
%TD*%
%TA.AperFunction,Conductor*%
%ADD15C,0.381000*%
%TD*%
%TA.AperFunction,Conductor*%
%ADD16C,0.762000*%
%TD*%
%TA.AperFunction,Conductor*%
%ADD17C,0.304800*%
%TD*%
%TA.AperFunction,Conductor*%
%ADD18C,0.203200*%
%TD*%
%TA.AperFunction,Conductor*%
%ADD19C,0.508000*%
%TD*%
%TA.AperFunction,Conductor*%
%ADD20C,0.150000*%
%TD*%
G04 APERTURE END LIST*
D10*
%TO.P,J1,10*%
%TO.N,GND*%
X93853000Y-3746500D03*
%TO.P,J1,9*%
%TO.N,Net-(J1-Pad9)*%
X93853000Y-5016500D03*
%TO.P,J1,8*%
%TO.N,Net-(J1-Pad8)*%
X93853000Y-6286500D03*
%TO.P,J1,7*%
%TO.N,Net-(J1-Pad7)*%
X93853000Y-7556500D03*
%TO.P,J1,6*%
%TO.N,Net-(J1-Pad6)*%
X93853000Y-8826500D03*
%TO.P,J1,5*%
%TO.N,Net-(J1-Pad5)*%
X93853000Y-10096500D03*
%TO.P,J1,4*%
%TO.N,Net-(J1-Pad4)*%
X93853000Y-11366500D03*
%TO.P,J1,3*%
%TO.N,Net-(J1-Pad3)*%
X93853000Y-12636500D03*
%TO.P,J1,2*%
%TO.N,Net-(J1-Pad2)*%
X93853000Y-13906500D03*
%TO.P,J1,1*%
%TO.N,GND*%
%TA.AperFunction,ComponentPad*%
G36*
G01*
X94353000Y-14926500D02*
X94353000Y-15426500D01*
G75*
G02*
X94103000Y-15676500I-250000J0D01*
G01*
X93603000Y-15676500D01*
G75*
G02*
X93353000Y-15426500I0J250000D01*
G01*
X93353000Y-14926500D01*
G75*
G02*
X93603000Y-14676500I250000J0D01*
G01*
X94103000Y-14676500D01*
G75*
G02*
X94353000Y-14926500I0J-250000D01*
G01*
G37*
%TD.AperFunction*%
%TD*%
D11*
%TO.P,MX_3,2*%
%TO.N,R3*%
X69215000Y-4445000D03*
%TO.P,MX_3,1*%
%TO.N,C3*%
X62865000Y-6985000D03*
%TD*%
%TO.P,MX_2,2*%
%TO.N,R2*%
X50165000Y-4445000D03*
%TO.P,MX_2,1*%
%TO.N,C2*%
X43815000Y-6985000D03*
%TD*%
%TO.P,MX_0,2*%
%TO.N,R0*%
X12065000Y-4445000D03*
%TO.P,MX_0,1*%
%TO.N,C0*%
X5715000Y-6985000D03*
%TD*%
%TO.P,MX_1,2*%
%TO.N,R1*%
X31115000Y-4445000D03*
%TO.P,MX_1,1*%
%TO.N,C1*%
X24765000Y-6985000D03*
%TD*%
%TO.P,MX_4,2*%
%TO.N,R4*%
X88265000Y-4445000D03*
%TO.P,MX_4,1*%
%TO.N,C4*%
X81915000Y-6985000D03*
%TD*%
D12*
%TO.P,U1,24*%
%TO.N,NC1*%
X3810000Y-17145000D03*
%TO.P,U1,12*%
%TO.N,R2*%
X31750000Y-1905000D03*
%TO.P,U1,23*%
%TO.N,GND*%
X6350000Y-17145000D03*
%TO.P,U1,22*%
%TO.N,NC2*%
X8890000Y-17145000D03*
%TO.P,U1,21*%
%TO.N,VCC*%
X11430000Y-17145000D03*
%TO.P,U1,20*%
%TO.N,Net-(J1-Pad9)*%
X13970000Y-17145000D03*
%TO.P,U1,19*%
%TO.N,Net-(J1-Pad8)*%
X16510000Y-17145000D03*
%TO.P,U1,18*%
%TO.N,Net-(J1-Pad7)*%
X19050000Y-17145000D03*
%TO.P,U1,17*%
%TO.N,Net-(J1-Pad6)*%
X21590000Y-17145000D03*
%TO.P,U1,16*%
%TO.N,Net-(J1-Pad5)*%
X24130000Y-17145000D03*
%TO.P,U1,15*%
%TO.N,Net-(J1-Pad4)*%
X26670000Y-17145000D03*
%TO.P,U1,14*%
%TO.N,Net-(J1-Pad3)*%
X29210000Y-17145000D03*
%TO.P,U1,13*%
%TO.N,Net-(J1-Pad2)*%
X31750000Y-17145000D03*
%TO.P,U1,11*%
%TO.N,R1*%
X29210000Y-1905000D03*
%TO.P,U1,10*%
%TO.N,C2*%
X26670000Y-1905000D03*
%TO.P,U1,9*%
%TO.N,C1*%
X24130000Y-1905000D03*
%TO.P,U1,8*%
%TO.N,R3*%
X21590000Y-1905000D03*
%TO.P,U1,7*%
%TO.N,C3*%
X19050000Y-1905000D03*
%TO.P,U1,6*%
%TO.N,R4*%
X16510000Y-1905000D03*
%TO.P,U1,5*%
%TO.N,C4*%
X13970000Y-1905000D03*
%TO.P,U1,4*%
%TO.N,GND*%
X11430000Y-1905000D03*
%TO.P,U1,3*%
X8890000Y-1905000D03*
%TO.P,U1,2*%
%TO.N,R0*%
X6350000Y-1905000D03*
%TO.P,U1,1*%
%TO.N,C0*%
%TA.AperFunction,ComponentPad*%
G36*
G01*
X2933700Y-2343150D02*
X2933700Y-1466850D01*
G75*
G02*
X3371850Y-1028700I438150J0D01*
G01*
X4248150Y-1028700D01*
G75*
G02*
X4686300Y-1466850I0J-438150D01*
G01*
X4686300Y-2343150D01*
G75*
G02*
X4248150Y-2781300I-438150J0D01*
G01*
X3371850Y-2781300D01*
G75*
G02*
X2933700Y-2343150I0J438150D01*
G01*
G37*
%TD.AperFunction*%
%TD*%
D13*
%TO.N,GND*%
X25400000Y-15875000D03*
X92773500Y-12001500D03*
X92837000Y-9461500D03*
X35560000Y-635000D03*
X38100000Y-635000D03*
X40640000Y-635000D03*
X43180000Y-635000D03*
X45720000Y-635000D03*
X48260000Y-635000D03*
X50800000Y-635000D03*
X53340000Y-635000D03*
X55880000Y-635000D03*
X58420000Y-635000D03*
X60960000Y-635000D03*
X63500000Y-635000D03*
X66040000Y-635000D03*
X68580000Y-635000D03*
X71120000Y-635000D03*
X73660000Y-635000D03*
X76200000Y-635000D03*
X78740000Y-635000D03*
X81280000Y-635000D03*
X83820000Y-635000D03*
X86360000Y-635000D03*
X88900000Y-635000D03*
X91440000Y-635000D03*
X93980000Y-635000D03*
X5715000Y-8763000D03*
X43815000Y-8763000D03*
X62865000Y-8763000D03*
X81915000Y-8763000D03*
X33020000Y-18415000D03*
X25400000Y-18415000D03*
X15240000Y-18415000D03*
X2540000Y-18415000D03*
X5080000Y-18415000D03*
X2540000Y-15875000D03*
X7620000Y-18415000D03*
X20320000Y-18415000D03*
X5080000Y-15875000D03*
X10160000Y-18415000D03*
X10160000Y-15875000D03*
X22860000Y-18415000D03*
X27940000Y-18415000D03*
X12700000Y-15875000D03*
X7620000Y-15875000D03*
X15240000Y-635000D03*
X17780000Y-635000D03*
X20320000Y-635000D03*
X22860000Y-635000D03*
X25336500Y-635000D03*
X27940000Y-635000D03*
X5080000Y-635000D03*
X2540000Y-635000D03*
X5080000Y-3175000D03*
X2540000Y-3175000D03*
X7620000Y-3175000D03*
X7620000Y-635000D03*
X10160000Y-3175000D03*
X15240000Y-3175000D03*
X17780000Y-3175000D03*
X20320000Y-3175000D03*
X22860000Y-3175000D03*
X25336500Y-3175000D03*
X27940000Y-3175000D03*
X10160000Y-635000D03*
X12700000Y-635000D03*
X32956500Y-635000D03*
X32956500Y-3175000D03*
X12700000Y-18415000D03*
X30480000Y-18415000D03*
X12890500Y-6096000D03*
X50990500Y-6096000D03*
X70040500Y-6096000D03*
X89090500Y-6096000D03*
X93980000Y-18415000D03*
X91440000Y-18415000D03*
X88900000Y-18415000D03*
X86360000Y-18415000D03*
X83820000Y-18415000D03*
X81280000Y-18415000D03*
X78740000Y-18415000D03*
X76200000Y-18415000D03*
X73660000Y-18415000D03*
X71120000Y-18415000D03*
X68580000Y-18415000D03*
X66040000Y-18415000D03*
X63500000Y-18415000D03*
X60960000Y-18415000D03*
X58420000Y-18415000D03*
X55880000Y-18415000D03*
X53340000Y-18415000D03*
X50800000Y-18415000D03*
X48260000Y-18415000D03*
X45720000Y-18415000D03*
X43180000Y-18415000D03*
X40640000Y-18415000D03*
X38100000Y-18415000D03*
X30480000Y-635000D03*
X35560000Y-18415000D03*
X2540000Y-13335000D03*
X2540000Y-10795000D03*
X2540000Y-8255000D03*
X2540000Y-5715000D03*
X15240000Y-15875000D03*
X17780000Y-18415000D03*
X17780000Y-15875000D03*
X20320000Y-15875000D03*
X22860000Y-15875000D03*
X93980000Y-1905000D03*
X93980000Y-17145000D03*
X92710000Y-635000D03*
X90170000Y-635000D03*
X87630000Y-635000D03*
X85090000Y-635000D03*
X82550000Y-635000D03*
X80010000Y-635000D03*
X77470000Y-635000D03*
X74930000Y-635000D03*
X72390000Y-635000D03*
X69850000Y-635000D03*
X67310000Y-635000D03*
X64770000Y-635000D03*
X62230000Y-635000D03*
X59690000Y-635000D03*
X57150000Y-635000D03*
X54610000Y-635000D03*
X52070000Y-635000D03*
X49530000Y-635000D03*
X46990000Y-635000D03*
X44450000Y-635000D03*
X41910000Y-635000D03*
X39370000Y-635000D03*
X34290000Y-635000D03*
X92710000Y-18415000D03*
X90170000Y-18415000D03*
X87630000Y-18415000D03*
X85090000Y-18415000D03*
X82550000Y-18415000D03*
X80010000Y-18415000D03*
X77470000Y-18415000D03*
X74930000Y-18415000D03*
X72390000Y-18415000D03*
X69850000Y-18415000D03*
X67310000Y-18415000D03*
X64770000Y-18415000D03*
X62230000Y-18415000D03*
X59690000Y-18415000D03*
X57150000Y-18415000D03*
X54610000Y-18415000D03*
X52070000Y-18415000D03*
X49530000Y-18415000D03*
X46990000Y-18415000D03*
X44450000Y-18415000D03*
X41910000Y-18415000D03*
X39370000Y-18415000D03*
X36830000Y-18415000D03*
X34290000Y-18415000D03*
X2540000Y-14605000D03*
X2540000Y-12065000D03*
X2540000Y-9525000D03*
X2540000Y-6985000D03*
X2540000Y-4445000D03*
X27946074Y-15881074D03*
X92837000Y-6921500D03*
X33020000Y-15875000D03*
X24765000Y-8763000D03*
X31940500Y-6096000D03*
X36830000Y-635000D03*
%TD*%
D14*
%TO.N,GND*%
X89566750Y-12731750D02*
X92837000Y-9461500D01*
X12946933Y-15875000D02*
X12700000Y-15875000D01*
D15*
X93980000Y-3619500D02*
X93853000Y-3746500D01*
X93980000Y-15303500D02*
X93853000Y-15176500D01*
D16*
X5080000Y-15875000D02*
X6350000Y-17145000D01*
X7620000Y-15875000D02*
X6350000Y-17145000D01*
X6350000Y-17145000D02*
X7620000Y-18415000D01*
X6350000Y-17145000D02*
X5080000Y-18415000D01*
D17*
X7620000Y-3175000D02*
X7620000Y-635000D01*
X10160000Y-635000D02*
X10160000Y-3175000D01*
D16*
X7620000Y-635000D02*
X8890000Y-1905000D01*
X10160000Y-635000D02*
X8890000Y-1905000D01*
X10160000Y-3175000D02*
X8890000Y-1905000D01*
X7620000Y-3175000D02*
X8890000Y-1905000D01*
X10160000Y-635000D02*
X11430000Y-1905000D01*
X12700000Y-635000D02*
X11430000Y-1905000D01*
X10160000Y-3175000D02*
X11430000Y-1905000D01*
D14*
X27940000Y-15887148D02*
X27946074Y-15881074D01*
D18*
X33020000Y-15875000D02*
X32927901Y-15967099D01*
D14*
X12700000Y-15621000D02*
X12700000Y-15875000D01*
X88908499Y-2992999D02*
X92437001Y-6521501D01*
X82732001Y-2992999D02*
X88908499Y-2992999D01*
X72234468Y-13490532D02*
X82732001Y-2992999D01*
X71656532Y-13490532D02*
X72234468Y-13490532D01*
D16*
X11430000Y-1905000D02*
X12263999Y-2738999D01*
X12263999Y-2738999D02*
X12647193Y-2738999D01*
D17*
X12700000Y-2931038D02*
X12700000Y-635000D01*
D14*
X92837000Y-6921500D02*
X92437001Y-6521501D01*
X92329000Y-12001500D02*
X88090448Y-16240052D01*
X92773500Y-12001500D02*
X92329000Y-12001500D01*
X88090448Y-16240052D02*
X87931552Y-16240052D01*
X89535000Y-12700000D02*
X89566750Y-12731750D01*
X91503500Y-8128000D02*
X90304068Y-8128000D01*
X89535000Y-8897068D02*
X89535000Y-12700000D01*
X92837000Y-9461500D02*
X91503500Y-8128000D01*
X90304068Y-8128000D02*
X89535000Y-8897068D01*
X92437001Y-6521501D02*
X89920863Y-6521501D01*
X86839468Y-13490532D02*
X71656532Y-13490532D01*
X88138000Y-12192000D02*
X86839468Y-13490532D01*
X89920863Y-6521501D02*
X88138000Y-8304364D01*
X88138000Y-8304364D02*
X88138000Y-12192000D01*
D17*
X5080000Y-15875000D02*
X5080000Y-18415000D01*
X7620000Y-15875000D02*
X7620000Y-18415000D01*
D19*
X93853000Y-15176500D02*
X92837000Y-15176500D01*
X93853000Y-3746500D02*
X92837000Y-3746500D01*
X93853000Y-3746500D02*
X93853000Y-2921000D01*
X93853000Y-3746500D02*
X94678500Y-3746500D01*
X93853000Y-15176500D02*
X93853000Y-16192500D01*
X93853000Y-15176500D02*
X94742000Y-15176500D01*
D14*
X34819102Y-11845901D02*
X36463733Y-13490532D01*
X21809099Y-11845901D02*
X34819102Y-11845901D01*
X17780000Y-15875000D02*
X21809099Y-11845901D01*
X25460455Y-13274545D02*
X22860000Y-15875000D01*
X34321317Y-13274545D02*
X25460455Y-13274545D01*
X35924790Y-14878018D02*
X34321317Y-13274545D01*
X87420479Y-14878019D02*
X35924790Y-14878018D01*
X89566750Y-12731750D02*
X87420479Y-14878019D01*
X33808090Y-14687522D02*
X35360620Y-16240052D01*
X29139626Y-14687522D02*
X33808090Y-14687522D01*
X35360620Y-16240052D02*
X87931552Y-16240052D01*
X27946074Y-15881074D02*
X29139626Y-14687522D01*
X36463733Y-13490532D02*
X38890532Y-13490532D01*
X38890532Y-13490532D02*
X71656532Y-13490532D01*
X40449499Y-12128499D02*
X34417000Y-6096000D01*
X71564501Y-12128499D02*
X40449499Y-12128499D01*
X82178510Y-1514490D02*
X71564501Y-12128499D01*
X34417000Y-6096000D02*
X31940500Y-6096000D01*
X89461990Y-1514490D02*
X82178510Y-1514490D01*
X91694000Y-3746500D02*
X89461990Y-1514490D01*
X92837000Y-3746500D02*
X91694000Y-3746500D01*
X27940000Y-3528864D02*
X27940000Y-3175000D01*
X30507136Y-6096000D02*
X27940000Y-3528864D01*
X31940500Y-6096000D02*
X30507136Y-6096000D01*
X27764945Y-5280011D02*
X23929989Y-5280011D01*
X30231934Y-7747000D02*
X27764945Y-5280011D01*
X33655962Y-7747000D02*
X30231934Y-7747000D01*
X39399494Y-13490532D02*
X33655962Y-7747000D01*
X38890532Y-13490532D02*
X39399494Y-13490532D01*
X23929989Y-5280011D02*
X21809099Y-7400901D01*
X21809099Y-7400901D02*
X21809099Y-11845901D01*
X92773500Y-13017500D02*
X92773500Y-12001500D01*
X89550948Y-16240052D02*
X92773500Y-13017500D01*
X87931552Y-16240052D02*
X89550948Y-16240052D01*
%TO.N,Net-(J1-Pad3)*%
X30086299Y-16268701D02*
X29210000Y-17145000D01*
X31213467Y-15141533D02*
X30086299Y-16268701D01*
X33479320Y-15141533D02*
X31213467Y-15141533D01*
X93853000Y-12636500D02*
X93796568Y-12636500D01*
X93796568Y-12636500D02*
X89739005Y-16694063D01*
X35031850Y-16694063D02*
X33479320Y-15141533D01*
X89739005Y-16694063D02*
X35031850Y-16694063D01*
%TO.N,Net-(J1-Pad9)*%
X13970000Y-15905725D02*
X13970000Y-17145000D01*
X23368000Y-4318000D02*
X20691489Y-6994511D01*
X20691489Y-11058511D02*
X16602001Y-15147999D01*
X28087070Y-4318000D02*
X23368000Y-4318000D01*
X34334478Y-6838978D02*
X30608048Y-6838978D01*
X14727726Y-15147999D02*
X13970000Y-15905725D01*
X93853000Y-5016500D02*
X93535500Y-5334000D01*
X93535500Y-5334000D02*
X92639432Y-5334000D01*
X40078010Y-12582510D02*
X34334478Y-6838978D01*
X92639432Y-5334000D02*
X89327921Y-2022489D01*
X89327921Y-2022489D02*
X82312578Y-2022490D01*
X82312578Y-2022490D02*
X71752558Y-12582510D01*
X71752558Y-12582510D02*
X40078010Y-12582510D01*
X30608048Y-6838978D02*
X28087070Y-4318000D01*
X20691489Y-6994511D02*
X20691489Y-11058511D01*
X16602001Y-15147999D02*
X14727726Y-15147999D01*
%TO.N,Net-(J1-Pad8)*%
X89090500Y-2476500D02*
X82500636Y-2476500D01*
X82500636Y-2476500D02*
X71940615Y-13036521D01*
X71940615Y-13036521D02*
X39770021Y-13036521D01*
X30419990Y-7292988D02*
X27953002Y-4826000D01*
X21145500Y-11270225D02*
X16510000Y-15905725D01*
X39770021Y-13036521D02*
X34026489Y-7292989D01*
X21145500Y-7239000D02*
X21145500Y-11270225D01*
X23558500Y-4826000D02*
X21145500Y-7239000D01*
X93853000Y-6286500D02*
X93354511Y-5788011D01*
X16510000Y-15905725D02*
X16510000Y-17145000D01*
X93354511Y-5788011D02*
X92402011Y-5788011D01*
X27953002Y-4826000D02*
X23558500Y-4826000D01*
X34026489Y-7292989D02*
X30419990Y-7292988D01*
X92402011Y-5788011D02*
X89090500Y-2476500D01*
%TO.N,Net-(J1-Pad7)*%
X93535500Y-7874000D02*
X93853000Y-7556500D01*
X91897230Y-7219980D02*
X92551250Y-7874000D01*
X89927954Y-7219980D02*
X91897230Y-7219980D01*
X88592011Y-8555923D02*
X89927954Y-7219980D01*
X92551250Y-7874000D02*
X93535500Y-7874000D01*
X87002071Y-13969997D02*
X88592011Y-12380057D01*
X34697654Y-12366523D02*
X36301128Y-13969997D01*
X22589202Y-12366523D02*
X34697654Y-12366523D01*
X88592011Y-12380057D02*
X88592011Y-8555923D01*
X19050000Y-15905725D02*
X22589202Y-12366523D01*
X36301128Y-13969997D02*
X87002071Y-13969997D01*
X19050000Y-17145000D02*
X19050000Y-15905725D01*
%TO.N,Net-(J1-Pad6)*%
X21590000Y-15905725D02*
X21590000Y-17145000D01*
X24675191Y-12820534D02*
X21590000Y-15905725D01*
X34509374Y-12820534D02*
X30640602Y-12820534D01*
X87232422Y-14424008D02*
X36112848Y-14424008D01*
X36112848Y-14424008D02*
X34509374Y-12820534D01*
X89046022Y-8743980D02*
X89046022Y-12610408D01*
X90116011Y-7673991D02*
X89046022Y-8743980D01*
X89046022Y-12610408D02*
X87232422Y-14424008D01*
X91691559Y-7673991D02*
X90116011Y-7673991D01*
X92345579Y-8328011D02*
X91691559Y-7673991D01*
X30640602Y-12820534D02*
X24675191Y-12820534D01*
X93354511Y-8328011D02*
X92345579Y-8328011D01*
X93853000Y-8826500D02*
X93354511Y-8328011D01*
%TO.N,Net-(J1-Pad5)*%
X92590067Y-10350500D02*
X93599000Y-10350500D01*
X87608537Y-15332030D02*
X92590067Y-10350500D01*
X35736734Y-15332030D02*
X87608537Y-15332030D01*
X30965774Y-13779500D02*
X34184206Y-13779502D01*
X34184206Y-13779502D02*
X35736734Y-15332030D01*
X26256225Y-13779500D02*
X30965774Y-13779500D01*
X93599000Y-10350500D02*
X93853000Y-10096500D01*
X24130000Y-15905725D02*
X26256225Y-13779500D01*
X24130000Y-17145000D02*
X24130000Y-15905725D01*
%TO.N,Net-(J1-Pad4)*%
X93853000Y-11366500D02*
X93354511Y-10868011D01*
X35548677Y-15786041D02*
X87902391Y-15786041D01*
X33996148Y-14233512D02*
X35548677Y-15786041D01*
X28342214Y-14233511D02*
X33996148Y-14233512D01*
X92821931Y-10866501D02*
X93353001Y-10866501D01*
X87902391Y-15786041D02*
X92821931Y-10866501D01*
X26670000Y-15905725D02*
X28342214Y-14233511D01*
X26670000Y-17145000D02*
X26670000Y-15905725D01*
%TO.N,Net-(J1-Pad2)*%
X31753071Y-17148071D02*
X31750000Y-17145000D01*
X89927062Y-17148074D02*
X31753071Y-17148071D01*
X93168636Y-13906500D02*
X89927062Y-17148074D01*
X93853000Y-13906500D02*
X93168636Y-13906500D01*
%TD*%
%TO.N,GND*%
X94894800Y-18694800D02*
X355200Y-18694800D01*
X355200Y-17026170D01*
X2603500Y-17026170D01*
X2603500Y-17263830D01*
X2649865Y-17496923D01*
X2740813Y-17716492D01*
X2872850Y-17914099D01*
X3040901Y-18082150D01*
X3238508Y-18214187D01*
X3458077Y-18305135D01*
X3691170Y-18351500D01*
X3928830Y-18351500D01*
X4161923Y-18305135D01*
X4381492Y-18214187D01*
X4578494Y-18082554D01*
X5502248Y-18082554D01*
X5584616Y-18306492D01*
X5825919Y-18433494D01*
X6087361Y-18510978D01*
X6358897Y-18535970D01*
X6630091Y-18507507D01*
X6890520Y-18426684D01*
X7115384Y-18306492D01*
X7197752Y-18082554D01*
X6350000Y-17234803D01*
X5502248Y-18082554D01*
X4578494Y-18082554D01*
X4579099Y-18082150D01*
X4747150Y-17914099D01*
X4879187Y-17716492D01*
X4970135Y-17496923D01*
X4986433Y-17414989D01*
X4987493Y-17425091D01*
X5068316Y-17685520D01*
X5188508Y-17910384D01*
X5412446Y-17992752D01*
X6260197Y-17145000D01*
X6439803Y-17145000D01*
X7287554Y-17992752D01*
X7511492Y-17910384D01*
X7638494Y-17669081D01*
X7713661Y-17415458D01*
X7729865Y-17496923D01*
X7820813Y-17716492D01*
X7952850Y-17914099D01*
X8120901Y-18082150D01*
X8318508Y-18214187D01*
X8538077Y-18305135D01*
X8771170Y-18351500D01*
X9008830Y-18351500D01*
X9241923Y-18305135D01*
X9461492Y-18214187D01*
X9659099Y-18082150D01*
X9827150Y-17914099D01*
X9959187Y-17716492D01*
X10050135Y-17496923D01*
X10096500Y-17263830D01*
X10096500Y-17026170D01*
X10223500Y-17026170D01*
X10223500Y-17263830D01*
X10269865Y-17496923D01*
X10360813Y-17716492D01*
X10492850Y-17914099D01*
X10660901Y-18082150D01*
X10858508Y-18214187D01*
X11078077Y-18305135D01*
X11311170Y-18351500D01*
X11548830Y-18351500D01*
X11781923Y-18305135D01*
X12001492Y-18214187D01*
X12199099Y-18082150D01*
X12367150Y-17914099D01*
X12499187Y-17716492D01*
X12590135Y-17496923D01*
X12636500Y-17263830D01*
X12636500Y-17026170D01*
X12763500Y-17026170D01*
X12763500Y-17263830D01*
X12809865Y-17496923D01*
X12900813Y-17716492D01*
X13032850Y-17914099D01*
X13200901Y-18082150D01*
X13398508Y-18214187D01*
X13618077Y-18305135D01*
X13851170Y-18351500D01*
X14088830Y-18351500D01*
X14321923Y-18305135D01*
X14541492Y-18214187D01*
X14739099Y-18082150D01*
X14907150Y-17914099D01*
X15039187Y-17716492D01*
X15130135Y-17496923D01*
X15176500Y-17263830D01*
X15176500Y-17026170D01*
X15130135Y-16793077D01*
X15039187Y-16573508D01*
X14907150Y-16375901D01*
X14739099Y-16207850D01*
X14541492Y-16075813D01*
X14474315Y-16047987D01*
X14917104Y-15605199D01*
X16165182Y-15605199D01*
X16128013Y-15650490D01*
X16085559Y-15729917D01*
X16059415Y-15816099D01*
X16052800Y-15883266D01*
X16052800Y-15883275D01*
X16050589Y-15905725D01*
X16052800Y-15928175D01*
X16052800Y-16028472D01*
X15938508Y-16075813D01*
X15740901Y-16207850D01*
X15572850Y-16375901D01*
X15440813Y-16573508D01*
X15349865Y-16793077D01*
X15303500Y-17026170D01*
X15303500Y-17263830D01*
X15349865Y-17496923D01*
X15440813Y-17716492D01*
X15572850Y-17914099D01*
X15740901Y-18082150D01*
X15938508Y-18214187D01*
X16158077Y-18305135D01*
X16391170Y-18351500D01*
X16628830Y-18351500D01*
X16861923Y-18305135D01*
X17081492Y-18214187D01*
X17279099Y-18082150D01*
X17447150Y-17914099D01*
X17579187Y-17716492D01*
X17670135Y-17496923D01*
X17716500Y-17263830D01*
X17716500Y-17026170D01*
X17670135Y-16793077D01*
X17579187Y-16573508D01*
X17447150Y-16375901D01*
X17279099Y-16207850D01*
X17081492Y-16075813D01*
X17014315Y-16047987D01*
X21452908Y-11609395D01*
X21470353Y-11595078D01*
X21527487Y-11525461D01*
X21569941Y-11446034D01*
X21596085Y-11359852D01*
X21602700Y-11292685D01*
X21602700Y-11292675D01*
X21604911Y-11270225D01*
X21602700Y-11247775D01*
X21602700Y-9406298D01*
X22289800Y-9406298D01*
X22289800Y-9643702D01*
X22336116Y-9876544D01*
X22426966Y-10095876D01*
X22558860Y-10293270D01*
X22726730Y-10461140D01*
X22924124Y-10593034D01*
X23143456Y-10683884D01*
X23376298Y-10730200D01*
X23613702Y-10730200D01*
X23846544Y-10683884D01*
X24065876Y-10593034D01*
X24263270Y-10461140D01*
X24431140Y-10293270D01*
X24563034Y-10095876D01*
X24653884Y-9876544D01*
X24700200Y-9643702D01*
X24700200Y-9406298D01*
X24678280Y-9296096D01*
X26250900Y-9296096D01*
X26250900Y-9753904D01*
X26340214Y-10202915D01*
X26515410Y-10625874D01*
X26769754Y-11006527D01*
X27093473Y-11330246D01*
X27474126Y-11584590D01*
X27897085Y-11759786D01*
X28346096Y-11849100D01*
X28803904Y-11849100D01*
X29252915Y-11759786D01*
X29675874Y-11584590D01*
X30056527Y-11330246D01*
X30380246Y-11006527D01*
X30634590Y-10625874D01*
X30809786Y-10202915D01*
X30899100Y-9753904D01*
X30899100Y-9406298D01*
X32449800Y-9406298D01*
X32449800Y-9643702D01*
X32496116Y-9876544D01*
X32586966Y-10095876D01*
X32718860Y-10293270D01*
X32886730Y-10461140D01*
X33084124Y-10593034D01*
X33303456Y-10683884D01*
X33536298Y-10730200D01*
X33773702Y-10730200D01*
X34006544Y-10683884D01*
X34225876Y-10593034D01*
X34423270Y-10461140D01*
X34591140Y-10293270D01*
X34723034Y-10095876D01*
X34813884Y-9876544D01*
X34860200Y-9643702D01*
X34860200Y-9406298D01*
X34813884Y-9173456D01*
X34723034Y-8954124D01*
X34591140Y-8756730D01*
X34423270Y-8588860D01*
X34225876Y-8456966D01*
X34006544Y-8366116D01*
X33773702Y-8319800D01*
X33536298Y-8319800D01*
X33303456Y-8366116D01*
X33084124Y-8456966D01*
X32886730Y-8588860D01*
X32718860Y-8756730D01*
X32586966Y-8954124D01*
X32496116Y-9173456D01*
X32449800Y-9406298D01*
X30899100Y-9406298D01*
X30899100Y-9296096D01*
X30809786Y-8847085D01*
X30634590Y-8424126D01*
X30380246Y-8043473D01*
X30056527Y-7719754D01*
X29675874Y-7465410D01*
X29252915Y-7290214D01*
X28803904Y-7200900D01*
X28346096Y-7200900D01*
X27897085Y-7290214D01*
X27474126Y-7465410D01*
X27093473Y-7719754D01*
X26769754Y-8043473D01*
X26515410Y-8424126D01*
X26340214Y-8847085D01*
X26250900Y-9296096D01*
X24678280Y-9296096D01*
X24653884Y-9173456D01*
X24563034Y-8954124D01*
X24431140Y-8756730D01*
X24263270Y-8588860D01*
X24065876Y-8456966D01*
X23846544Y-8366116D01*
X23613702Y-8319800D01*
X23376298Y-8319800D01*
X23143456Y-8366116D01*
X22924124Y-8456966D01*
X22726730Y-8588860D01*
X22558860Y-8756730D01*
X22426966Y-8954124D01*
X22336116Y-9173456D01*
X22289800Y-9406298D01*
X21602700Y-9406298D01*
X21602700Y-7428377D01*
X22189402Y-6841675D01*
X23309800Y-6841675D01*
X23309800Y-7128325D01*
X23365723Y-7409466D01*
X23475419Y-7674296D01*
X23634672Y-7912636D01*
X23837364Y-8115328D01*
X24075704Y-8274581D01*
X24340534Y-8384277D01*
X24621675Y-8440200D01*
X24908325Y-8440200D01*
X25189466Y-8384277D01*
X25454296Y-8274581D01*
X25692636Y-8115328D01*
X25895328Y-7912636D01*
X26054581Y-7674296D01*
X26164277Y-7409466D01*
X26220200Y-7128325D01*
X26220200Y-6841675D01*
X26164277Y-6560534D01*
X26054581Y-6295704D01*
X25895328Y-6057364D01*
X25692636Y-5854672D01*
X25454296Y-5695419D01*
X25189466Y-5585723D01*
X24908325Y-5529800D01*
X24621675Y-5529800D01*
X24340534Y-5585723D01*
X24075704Y-5695419D01*
X23837364Y-5854672D01*
X23634672Y-6057364D01*
X23475419Y-6295704D01*
X23365723Y-6560534D01*
X23309800Y-6841675D01*
X22189402Y-6841675D01*
X23747878Y-5283200D01*
X27763625Y-5283200D01*
X30080825Y-7600401D01*
X30095137Y-7617840D01*
X30112576Y-7632152D01*
X30112582Y-7632158D01*
X30164754Y-7674975D01*
X30244180Y-7717428D01*
X30330363Y-7743572D01*
X30419990Y-7752399D01*
X30442450Y-7750187D01*
X33837112Y-7750189D01*
X39430851Y-13343929D01*
X39445168Y-13361374D01*
X39514785Y-13418508D01*
X39594212Y-13460962D01*
X39680394Y-13487106D01*
X39747561Y-13493721D01*
X39747571Y-13493721D01*
X39770021Y-13495932D01*
X39792471Y-13493721D01*
X71918165Y-13493721D01*
X71940615Y-13495932D01*
X71963065Y-13493721D01*
X71963075Y-13493721D01*
X72030242Y-13487106D01*
X72116424Y-13460962D01*
X72195851Y-13418508D01*
X72265468Y-13361374D01*
X72279789Y-13343924D01*
X76217415Y-9406298D01*
X79439800Y-9406298D01*
X79439800Y-9643702D01*
X79486116Y-9876544D01*
X79576966Y-10095876D01*
X79708860Y-10293270D01*
X79876730Y-10461140D01*
X80074124Y-10593034D01*
X80293456Y-10683884D01*
X80526298Y-10730200D01*
X80763702Y-10730200D01*
X80996544Y-10683884D01*
X81215876Y-10593034D01*
X81413270Y-10461140D01*
X81581140Y-10293270D01*
X81713034Y-10095876D01*
X81803884Y-9876544D01*
X81850200Y-9643702D01*
X81850200Y-9406298D01*
X81828280Y-9296096D01*
X83400900Y-9296096D01*
X83400900Y-9753904D01*
X83490214Y-10202915D01*
X83665410Y-10625874D01*
X83919754Y-11006527D01*
X84243473Y-11330246D01*
X84624126Y-11584590D01*
X85047085Y-11759786D01*
X85496096Y-11849100D01*
X85953904Y-11849100D01*
X86402915Y-11759786D01*
X86825874Y-11584590D01*
X87206527Y-11330246D01*
X87530246Y-11006527D01*
X87784590Y-10625874D01*
X87959786Y-10202915D01*
X88049100Y-9753904D01*
X88049100Y-9296096D01*
X87959786Y-8847085D01*
X87784590Y-8424126D01*
X87530246Y-8043473D01*
X87206527Y-7719754D01*
X86825874Y-7465410D01*
X86402915Y-7290214D01*
X85953904Y-7200900D01*
X85496096Y-7200900D01*
X85047085Y-7290214D01*
X84624126Y-7465410D01*
X84243473Y-7719754D01*
X83919754Y-8043473D01*
X83665410Y-8424126D01*
X83490214Y-8847085D01*
X83400900Y-9296096D01*
X81828280Y-9296096D01*
X81803884Y-9173456D01*
X81713034Y-8954124D01*
X81581140Y-8756730D01*
X81413270Y-8588860D01*
X81215876Y-8456966D01*
X80996544Y-8366116D01*
X80763702Y-8319800D01*
X80526298Y-8319800D01*
X80293456Y-8366116D01*
X80074124Y-8456966D01*
X79876730Y-8588860D01*
X79708860Y-8756730D01*
X79576966Y-8954124D01*
X79486116Y-9173456D01*
X79439800Y-9406298D01*
X76217415Y-9406298D01*
X78782038Y-6841675D01*
X80459800Y-6841675D01*
X80459800Y-7128325D01*
X80515723Y-7409466D01*
X80625419Y-7674296D01*
X80784672Y-7912636D01*
X80987364Y-8115328D01*
X81225704Y-8274581D01*
X81490534Y-8384277D01*
X81771675Y-8440200D01*
X82058325Y-8440200D01*
X82339466Y-8384277D01*
X82604296Y-8274581D01*
X82842636Y-8115328D01*
X83045328Y-7912636D01*
X83204581Y-7674296D01*
X83314277Y-7409466D01*
X83370200Y-7128325D01*
X83370200Y-6841675D01*
X83314277Y-6560534D01*
X83204581Y-6295704D01*
X83045328Y-6057364D01*
X82842636Y-5854672D01*
X82604296Y-5695419D01*
X82339466Y-5585723D01*
X82058325Y-5529800D01*
X81771675Y-5529800D01*
X81490534Y-5585723D01*
X81225704Y-5695419D01*
X80987364Y-5854672D01*
X80784672Y-6057364D01*
X80625419Y-6295704D01*
X80515723Y-6560534D01*
X80459800Y-6841675D01*
X78782038Y-6841675D01*
X81322038Y-4301675D01*
X86809800Y-4301675D01*
X86809800Y-4588325D01*
X86865723Y-4869466D01*
X86975419Y-5134296D01*
X87134672Y-5372636D01*
X87337364Y-5575328D01*
X87575704Y-5734581D01*
X87840534Y-5844277D01*
X88121675Y-5900200D01*
X88408325Y-5900200D01*
X88689466Y-5844277D01*
X88954296Y-5734581D01*
X89192636Y-5575328D01*
X89395328Y-5372636D01*
X89554581Y-5134296D01*
X89664277Y-4869466D01*
X89720200Y-4588325D01*
X89720200Y-4301675D01*
X89664277Y-4020534D01*
X89554581Y-3755704D01*
X89395328Y-3517364D01*
X89192636Y-3314672D01*
X88954296Y-3155419D01*
X88689466Y-3045723D01*
X88408325Y-2989800D01*
X88121675Y-2989800D01*
X87840534Y-3045723D01*
X87575704Y-3155419D01*
X87337364Y-3314672D01*
X87134672Y-3517364D01*
X86975419Y-3755704D01*
X86865723Y-4020534D01*
X86809800Y-4301675D01*
X81322038Y-4301675D01*
X82690014Y-2933700D01*
X88901123Y-2933700D01*
X92062846Y-6095425D01*
X92077158Y-6112864D01*
X92094597Y-6127176D01*
X92094603Y-6127182D01*
X92146775Y-6169998D01*
X92226201Y-6212452D01*
X92246260Y-6218537D01*
X92312384Y-6238596D01*
X92379551Y-6245211D01*
X92379561Y-6245211D01*
X92402011Y-6247422D01*
X92424461Y-6245211D01*
X93022800Y-6245211D01*
X93022800Y-6368268D01*
X93054704Y-6528660D01*
X93117286Y-6679747D01*
X93208142Y-6815722D01*
X93313920Y-6921500D01*
X93208142Y-7027278D01*
X93117286Y-7163253D01*
X93054704Y-7314340D01*
X93034323Y-7416800D01*
X92740628Y-7416800D01*
X92236404Y-6912577D01*
X92222083Y-6895127D01*
X92152466Y-6837993D01*
X92073039Y-6795539D01*
X91986857Y-6769395D01*
X91919690Y-6762780D01*
X91919680Y-6762780D01*
X91897230Y-6760569D01*
X91874780Y-6762780D01*
X89950404Y-6762780D01*
X89927954Y-6760569D01*
X89905504Y-6762780D01*
X89905494Y-6762780D01*
X89838327Y-6769395D01*
X89775629Y-6788415D01*
X89752144Y-6795539D01*
X89672718Y-6837993D01*
X89620546Y-6880809D01*
X89620540Y-6880815D01*
X89603101Y-6895127D01*
X89588789Y-6912566D01*
X88284603Y-8216754D01*
X88267159Y-8231070D01*
X88252842Y-8248515D01*
X88252841Y-8248516D01*
X88210024Y-8300688D01*
X88177257Y-8361993D01*
X88167571Y-8380114D01*
X88144258Y-8456966D01*
X88141427Y-8466297D01*
X88132600Y-8555923D01*
X88134812Y-8578383D01*
X88134811Y-12190678D01*
X86812694Y-13512797D01*
X36490507Y-13512797D01*
X35036828Y-12059120D01*
X35022507Y-12041670D01*
X34952890Y-11984536D01*
X34873463Y-11942082D01*
X34787281Y-11915938D01*
X34720114Y-11909323D01*
X34720104Y-11909323D01*
X34697654Y-11907112D01*
X34675204Y-11909323D01*
X22611651Y-11909323D01*
X22589201Y-11907112D01*
X22566751Y-11909323D01*
X22566742Y-11909323D01*
X22499575Y-11915938D01*
X22413393Y-11942082D01*
X22376419Y-11961845D01*
X22333965Y-11984536D01*
X22281794Y-12027353D01*
X22264349Y-12041670D01*
X22250032Y-12059115D01*
X18742593Y-15566555D01*
X18725148Y-15580872D01*
X18710831Y-15598317D01*
X18710830Y-15598318D01*
X18668014Y-15650489D01*
X18625560Y-15729916D01*
X18601482Y-15809290D01*
X18599416Y-15816099D01*
X18590589Y-15905725D01*
X18592801Y-15928184D01*
X18592801Y-16028472D01*
X18478508Y-16075813D01*
X18280901Y-16207850D01*
X18112850Y-16375901D01*
X17980813Y-16573508D01*
X17889865Y-16793077D01*
X17843500Y-17026170D01*
X17843500Y-17263830D01*
X17889865Y-17496923D01*
X17980813Y-17716492D01*
X18112850Y-17914099D01*
X18280901Y-18082150D01*
X18478508Y-18214187D01*
X18698077Y-18305135D01*
X18931170Y-18351500D01*
X19168830Y-18351500D01*
X19401923Y-18305135D01*
X19621492Y-18214187D01*
X19819099Y-18082150D01*
X19987150Y-17914099D01*
X20119187Y-17716492D01*
X20210135Y-17496923D01*
X20256500Y-17263830D01*
X20256500Y-17026170D01*
X20210135Y-16793077D01*
X20119187Y-16573508D01*
X19987150Y-16375901D01*
X19819099Y-16207850D01*
X19621492Y-16075813D01*
X19554315Y-16047987D01*
X22778580Y-12823723D01*
X24025424Y-12823723D01*
X21282597Y-15566551D01*
X21265147Y-15580872D01*
X21208013Y-15650490D01*
X21165559Y-15729917D01*
X21139415Y-15816099D01*
X21132800Y-15883266D01*
X21132800Y-15883275D01*
X21130589Y-15905725D01*
X21132800Y-15928175D01*
X21132800Y-16028472D01*
X21018508Y-16075813D01*
X20820901Y-16207850D01*
X20652850Y-16375901D01*
X20520813Y-16573508D01*
X20429865Y-16793077D01*
X20383500Y-17026170D01*
X20383500Y-17263830D01*
X20429865Y-17496923D01*
X20520813Y-17716492D01*
X20652850Y-17914099D01*
X20820901Y-18082150D01*
X21018508Y-18214187D01*
X21238077Y-18305135D01*
X21471170Y-18351500D01*
X21708830Y-18351500D01*
X21941923Y-18305135D01*
X22161492Y-18214187D01*
X22359099Y-18082150D01*
X22527150Y-17914099D01*
X22659187Y-17716492D01*
X22750135Y-17496923D01*
X22796500Y-17263830D01*
X22796500Y-17026170D01*
X22750135Y-16793077D01*
X22659187Y-16573508D01*
X22527150Y-16375901D01*
X22359099Y-16207850D01*
X22161492Y-16075813D01*
X22094315Y-16047987D01*
X24864569Y-13277734D01*
X34319997Y-13277734D01*
X34441319Y-13399056D01*
X34439441Y-13397515D01*
X34360015Y-13355062D01*
X34360005Y-13355059D01*
X34273833Y-13328918D01*
X34206666Y-13322303D01*
X34184206Y-13320091D01*
X34161747Y-13322303D01*
X30988234Y-13322300D01*
X26278674Y-13322300D01*
X26256224Y-13320089D01*
X26233774Y-13322300D01*
X26233765Y-13322300D01*
X26166598Y-13328915D01*
X26080416Y-13355059D01*
X26048321Y-13372214D01*
X26000988Y-13397513D01*
X25955560Y-13434796D01*
X25931372Y-13454647D01*
X25917055Y-13472092D01*
X23822593Y-15566555D01*
X23805148Y-15580872D01*
X23790831Y-15598317D01*
X23790830Y-15598318D01*
X23748014Y-15650489D01*
X23705560Y-15729916D01*
X23681482Y-15809290D01*
X23679416Y-15816099D01*
X23670589Y-15905725D01*
X23672801Y-15928184D01*
X23672801Y-16028472D01*
X23558508Y-16075813D01*
X23360901Y-16207850D01*
X23192850Y-16375901D01*
X23060813Y-16573508D01*
X22969865Y-16793077D01*
X22923500Y-17026170D01*
X22923500Y-17263830D01*
X22969865Y-17496923D01*
X23060813Y-17716492D01*
X23192850Y-17914099D01*
X23360901Y-18082150D01*
X23558508Y-18214187D01*
X23778077Y-18305135D01*
X24011170Y-18351500D01*
X24248830Y-18351500D01*
X24481923Y-18305135D01*
X24701492Y-18214187D01*
X24899099Y-18082150D01*
X25067150Y-17914099D01*
X25199187Y-17716492D01*
X25290135Y-17496923D01*
X25336500Y-17263830D01*
X25336500Y-17026170D01*
X25290135Y-16793077D01*
X25199187Y-16573508D01*
X25067150Y-16375901D01*
X24899099Y-16207850D01*
X24701492Y-16075813D01*
X24634315Y-16047987D01*
X26445603Y-14236700D01*
X27692446Y-14236700D01*
X26362592Y-15566555D01*
X26345148Y-15580872D01*
X26330831Y-15598317D01*
X26330830Y-15598318D01*
X26288014Y-15650489D01*
X26245560Y-15729916D01*
X26221482Y-15809290D01*
X26219416Y-15816099D01*
X26210589Y-15905725D01*
X26212801Y-15928184D01*
X26212801Y-16028472D01*
X26098508Y-16075813D01*
X25900901Y-16207850D01*
X25732850Y-16375901D01*
X25600813Y-16573508D01*
X25509865Y-16793077D01*
X25463500Y-17026170D01*
X25463500Y-17263830D01*
X25509865Y-17496923D01*
X25600813Y-17716492D01*
X25732850Y-17914099D01*
X25900901Y-18082150D01*
X26098508Y-18214187D01*
X26318077Y-18305135D01*
X26551170Y-18351500D01*
X26788830Y-18351500D01*
X27021923Y-18305135D01*
X27241492Y-18214187D01*
X27439099Y-18082150D01*
X27607150Y-17914099D01*
X27739187Y-17716492D01*
X27830135Y-17496923D01*
X27876500Y-17263830D01*
X27876500Y-17026170D01*
X27830135Y-16793077D01*
X27739187Y-16573508D01*
X27607150Y-16375901D01*
X27439099Y-16207850D01*
X27241492Y-16075813D01*
X27174315Y-16047987D01*
X28531594Y-14690710D01*
X31126247Y-14690711D01*
X31123840Y-14690948D01*
X31037658Y-14717092D01*
X31000973Y-14736700D01*
X30958230Y-14759546D01*
X30906059Y-14802363D01*
X30888614Y-14816680D01*
X30874297Y-14834125D01*
X29778896Y-15929527D01*
X29778891Y-15929531D01*
X29676216Y-16032206D01*
X29561923Y-15984865D01*
X29328830Y-15938500D01*
X29091170Y-15938500D01*
X28858077Y-15984865D01*
X28638508Y-16075813D01*
X28440901Y-16207850D01*
X28272850Y-16375901D01*
X28140813Y-16573508D01*
X28049865Y-16793077D01*
X28003500Y-17026170D01*
X28003500Y-17263830D01*
X28049865Y-17496923D01*
X28140813Y-17716492D01*
X28272850Y-17914099D01*
X28440901Y-18082150D01*
X28638508Y-18214187D01*
X28858077Y-18305135D01*
X29091170Y-18351500D01*
X29328830Y-18351500D01*
X29561923Y-18305135D01*
X29781492Y-18214187D01*
X29979099Y-18082150D01*
X30147150Y-17914099D01*
X30279187Y-17716492D01*
X30370135Y-17496923D01*
X30416500Y-17263830D01*
X30416500Y-17026170D01*
X30370135Y-16793077D01*
X30322794Y-16678784D01*
X30425469Y-16576109D01*
X30425473Y-16576104D01*
X31402845Y-15598733D01*
X33289943Y-15598733D01*
X34382080Y-16690871D01*
X32867800Y-16690871D01*
X32819187Y-16573508D01*
X32687150Y-16375901D01*
X32519099Y-16207850D01*
X32321492Y-16075813D01*
X32101923Y-15984865D01*
X31868830Y-15938500D01*
X31631170Y-15938500D01*
X31398077Y-15984865D01*
X31178508Y-16075813D01*
X30980901Y-16207850D01*
X30812850Y-16375901D01*
X30680813Y-16573508D01*
X30589865Y-16793077D01*
X30543500Y-17026170D01*
X30543500Y-17263830D01*
X30589865Y-17496923D01*
X30680813Y-17716492D01*
X30812850Y-17914099D01*
X30980901Y-18082150D01*
X31178508Y-18214187D01*
X31398077Y-18305135D01*
X31631170Y-18351500D01*
X31868830Y-18351500D01*
X32101923Y-18305135D01*
X32321492Y-18214187D01*
X32519099Y-18082150D01*
X32687150Y-17914099D01*
X32819187Y-17716492D01*
X32865256Y-17605270D01*
X89904612Y-17605274D01*
X89927062Y-17607485D01*
X89949512Y-17605274D01*
X89949521Y-17605274D01*
X90016688Y-17598659D01*
X90102870Y-17572515D01*
X90182297Y-17530061D01*
X90251914Y-17472927D01*
X90266231Y-17455482D01*
X92045213Y-15676500D01*
X92842542Y-15676500D01*
X92852350Y-15776085D01*
X92881398Y-15871844D01*
X92928570Y-15960095D01*
X92992052Y-16037448D01*
X93069405Y-16100930D01*
X93157656Y-16148102D01*
X93253415Y-16177150D01*
X93353000Y-16186958D01*
X93662500Y-16184500D01*
X93789500Y-16057500D01*
X93789500Y-15240000D01*
X93916500Y-15240000D01*
X93916500Y-16057500D01*
X94043500Y-16184500D01*
X94353000Y-16186958D01*
X94452585Y-16177150D01*
X94548344Y-16148102D01*
X94636595Y-16100930D01*
X94713948Y-16037448D01*
X94777430Y-15960095D01*
X94824602Y-15871844D01*
X94853650Y-15776085D01*
X94863458Y-15676500D01*
X94861000Y-15367000D01*
X94734000Y-15240000D01*
X93916500Y-15240000D01*
X93789500Y-15240000D01*
X92972000Y-15240000D01*
X92845000Y-15367000D01*
X92842542Y-15676500D01*
X92045213Y-15676500D01*
X92844139Y-14877575D01*
X92845000Y-14986000D01*
X92972000Y-15113000D01*
X93789500Y-15113000D01*
X93789500Y-15093000D01*
X93916500Y-15093000D01*
X93916500Y-15113000D01*
X94734000Y-15113000D01*
X94861000Y-14986000D01*
X94863458Y-14676500D01*
X94853650Y-14576915D01*
X94824602Y-14481156D01*
X94777430Y-14392905D01*
X94713948Y-14315552D01*
X94636595Y-14252070D01*
X94613562Y-14239758D01*
X94651296Y-14148660D01*
X94683200Y-13988268D01*
X94683200Y-13824732D01*
X94651296Y-13664340D01*
X94588714Y-13513253D01*
X94497858Y-13377278D01*
X94392080Y-13271500D01*
X94497858Y-13165722D01*
X94588714Y-13029747D01*
X94651296Y-12878660D01*
X94683200Y-12718268D01*
X94683200Y-12554732D01*
X94651296Y-12394340D01*
X94588714Y-12243253D01*
X94497858Y-12107278D01*
X94392080Y-12001500D01*
X94497858Y-11895722D01*
X94588714Y-11759747D01*
X94651296Y-11608660D01*
X94683200Y-11448268D01*
X94683200Y-11284732D01*
X94651296Y-11124340D01*
X94588714Y-10973253D01*
X94497858Y-10837278D01*
X94392080Y-10731500D01*
X94497858Y-10625722D01*
X94588714Y-10489747D01*
X94651296Y-10338660D01*
X94683200Y-10178268D01*
X94683200Y-10014732D01*
X94651296Y-9854340D01*
X94588714Y-9703253D01*
X94497858Y-9567278D01*
X94392080Y-9461500D01*
X94497858Y-9355722D01*
X94588714Y-9219747D01*
X94651296Y-9068660D01*
X94683200Y-8908268D01*
X94683200Y-8744732D01*
X94651296Y-8584340D01*
X94588714Y-8433253D01*
X94497858Y-8297278D01*
X94392080Y-8191500D01*
X94497858Y-8085722D01*
X94588714Y-7949747D01*
X94651296Y-7798660D01*
X94683200Y-7638268D01*
X94683200Y-7474732D01*
X94651296Y-7314340D01*
X94588714Y-7163253D01*
X94497858Y-7027278D01*
X94392080Y-6921500D01*
X94497858Y-6815722D01*
X94588714Y-6679747D01*
X94651296Y-6528660D01*
X94683200Y-6368268D01*
X94683200Y-6204732D01*
X94651296Y-6044340D01*
X94588714Y-5893253D01*
X94497858Y-5757278D01*
X94392080Y-5651500D01*
X94497858Y-5545722D01*
X94588714Y-5409747D01*
X94651296Y-5258660D01*
X94683200Y-5098268D01*
X94683200Y-4934732D01*
X94651296Y-4774340D01*
X94588714Y-4623253D01*
X94509626Y-4504890D01*
X94582503Y-4442125D01*
X94704196Y-4286440D01*
X94793178Y-4110005D01*
X94836679Y-3966591D01*
X94731709Y-3810000D01*
X93916500Y-3810000D01*
X93916500Y-3830000D01*
X93789500Y-3830000D01*
X93789500Y-3810000D01*
X92974291Y-3810000D01*
X92869321Y-3966591D01*
X92912822Y-4110005D01*
X93001804Y-4286440D01*
X93123497Y-4442125D01*
X93196374Y-4504890D01*
X93117286Y-4623253D01*
X93054704Y-4774340D01*
X93034323Y-4876800D01*
X92828811Y-4876800D01*
X91478420Y-3526409D01*
X92869321Y-3526409D01*
X92974291Y-3683000D01*
X93789500Y-3683000D01*
X93789500Y-2867499D01*
X93916500Y-2867499D01*
X93916500Y-3683000D01*
X94731709Y-3683000D01*
X94836679Y-3526409D01*
X94793178Y-3382995D01*
X94704196Y-3206560D01*
X94582503Y-3050875D01*
X94432776Y-2921922D01*
X94260769Y-2824657D01*
X94073091Y-2762818D01*
X93916500Y-2867499D01*
X93789500Y-2867499D01*
X93632909Y-2762818D01*
X93445231Y-2824657D01*
X93273224Y-2921922D01*
X93123497Y-3050875D01*
X93001804Y-3206560D01*
X92912822Y-3382995D01*
X92869321Y-3526409D01*
X91478420Y-3526409D01*
X89667090Y-1715081D01*
X89652773Y-1697636D01*
X89583156Y-1640502D01*
X89503729Y-1598048D01*
X89417547Y-1571904D01*
X89350380Y-1565289D01*
X89350371Y-1565289D01*
X89327921Y-1563078D01*
X89305471Y-1565289D01*
X82335040Y-1565291D01*
X82312578Y-1563079D01*
X82222951Y-1571905D01*
X82136768Y-1598049D01*
X82057342Y-1640503D01*
X82005170Y-1683319D01*
X82005159Y-1683330D01*
X81987725Y-1697638D01*
X81973417Y-1715072D01*
X71563181Y-12125310D01*
X40267388Y-12125310D01*
X37548376Y-9406298D01*
X41339800Y-9406298D01*
X41339800Y-9643702D01*
X41386116Y-9876544D01*
X41476966Y-10095876D01*
X41608860Y-10293270D01*
X41776730Y-10461140D01*
X41974124Y-10593034D01*
X42193456Y-10683884D01*
X42426298Y-10730200D01*
X42663702Y-10730200D01*
X42896544Y-10683884D01*
X43115876Y-10593034D01*
X43313270Y-10461140D01*
X43481140Y-10293270D01*
X43613034Y-10095876D01*
X43703884Y-9876544D01*
X43750200Y-9643702D01*
X43750200Y-9406298D01*
X43728280Y-9296096D01*
X45300900Y-9296096D01*
X45300900Y-9753904D01*
X45390214Y-10202915D01*
X45565410Y-10625874D01*
X45819754Y-11006527D01*
X46143473Y-11330246D01*
X46524126Y-11584590D01*
X46947085Y-11759786D01*
X47396096Y-11849100D01*
X47853904Y-11849100D01*
X48302915Y-11759786D01*
X48725874Y-11584590D01*
X49106527Y-11330246D01*
X49430246Y-11006527D01*
X49684590Y-10625874D01*
X49859786Y-10202915D01*
X49949100Y-9753904D01*
X49949100Y-9406298D01*
X51499800Y-9406298D01*
X51499800Y-9643702D01*
X51546116Y-9876544D01*
X51636966Y-10095876D01*
X51768860Y-10293270D01*
X51936730Y-10461140D01*
X52134124Y-10593034D01*
X52353456Y-10683884D01*
X52586298Y-10730200D01*
X52823702Y-10730200D01*
X53056544Y-10683884D01*
X53275876Y-10593034D01*
X53473270Y-10461140D01*
X53641140Y-10293270D01*
X53773034Y-10095876D01*
X53863884Y-9876544D01*
X53910200Y-9643702D01*
X53910200Y-9406298D01*
X60389800Y-9406298D01*
X60389800Y-9643702D01*
X60436116Y-9876544D01*
X60526966Y-10095876D01*
X60658860Y-10293270D01*
X60826730Y-10461140D01*
X61024124Y-10593034D01*
X61243456Y-10683884D01*
X61476298Y-10730200D01*
X61713702Y-10730200D01*
X61946544Y-10683884D01*
X62165876Y-10593034D01*
X62363270Y-10461140D01*
X62531140Y-10293270D01*
X62663034Y-10095876D01*
X62753884Y-9876544D01*
X62800200Y-9643702D01*
X62800200Y-9406298D01*
X62778280Y-9296096D01*
X64350900Y-9296096D01*
X64350900Y-9753904D01*
X64440214Y-10202915D01*
X64615410Y-10625874D01*
X64869754Y-11006527D01*
X65193473Y-11330246D01*
X65574126Y-11584590D01*
X65997085Y-11759786D01*
X66446096Y-11849100D01*
X66903904Y-11849100D01*
X67352915Y-11759786D01*
X67775874Y-11584590D01*
X68156527Y-11330246D01*
X68480246Y-11006527D01*
X68734590Y-10625874D01*
X68909786Y-10202915D01*
X68999100Y-9753904D01*
X68999100Y-9406298D01*
X70549800Y-9406298D01*
X70549800Y-9643702D01*
X70596116Y-9876544D01*
X70686966Y-10095876D01*
X70818860Y-10293270D01*
X70986730Y-10461140D01*
X71184124Y-10593034D01*
X71403456Y-10683884D01*
X71636298Y-10730200D01*
X71873702Y-10730200D01*
X72106544Y-10683884D01*
X72325876Y-10593034D01*
X72523270Y-10461140D01*
X72691140Y-10293270D01*
X72823034Y-10095876D01*
X72913884Y-9876544D01*
X72960200Y-9643702D01*
X72960200Y-9406298D01*
X72913884Y-9173456D01*
X72823034Y-8954124D01*
X72691140Y-8756730D01*
X72523270Y-8588860D01*
X72325876Y-8456966D01*
X72106544Y-8366116D01*
X71873702Y-8319800D01*
X71636298Y-8319800D01*
X71403456Y-8366116D01*
X71184124Y-8456966D01*
X70986730Y-8588860D01*
X70818860Y-8756730D01*
X70686966Y-8954124D01*
X70596116Y-9173456D01*
X70549800Y-9406298D01*
X68999100Y-9406298D01*
X68999100Y-9296096D01*
X68909786Y-8847085D01*
X68734590Y-8424126D01*
X68480246Y-8043473D01*
X68156527Y-7719754D01*
X67775874Y-7465410D01*
X67352915Y-7290214D01*
X66903904Y-7200900D01*
X66446096Y-7200900D01*
X65997085Y-7290214D01*
X65574126Y-7465410D01*
X65193473Y-7719754D01*
X64869754Y-8043473D01*
X64615410Y-8424126D01*
X64440214Y-8847085D01*
X64350900Y-9296096D01*
X62778280Y-9296096D01*
X62753884Y-9173456D01*
X62663034Y-8954124D01*
X62531140Y-8756730D01*
X62363270Y-8588860D01*
X62165876Y-8456966D01*
X61946544Y-8366116D01*
X61713702Y-8319800D01*
X61476298Y-8319800D01*
X61243456Y-8366116D01*
X61024124Y-8456966D01*
X60826730Y-8588860D01*
X60658860Y-8756730D01*
X60526966Y-8954124D01*
X60436116Y-9173456D01*
X60389800Y-9406298D01*
X53910200Y-9406298D01*
X53863884Y-9173456D01*
X53773034Y-8954124D01*
X53641140Y-8756730D01*
X53473270Y-8588860D01*
X53275876Y-8456966D01*
X53056544Y-8366116D01*
X52823702Y-8319800D01*
X52586298Y-8319800D01*
X52353456Y-8366116D01*
X52134124Y-8456966D01*
X51936730Y-8588860D01*
X51768860Y-8756730D01*
X51636966Y-8954124D01*
X51546116Y-9173456D01*
X51499800Y-9406298D01*
X49949100Y-9406298D01*
X49949100Y-9296096D01*
X49859786Y-8847085D01*
X49684590Y-8424126D01*
X49430246Y-8043473D01*
X49106527Y-7719754D01*
X48725874Y-7465410D01*
X48302915Y-7290214D01*
X47853904Y-7200900D01*
X47396096Y-7200900D01*
X46947085Y-7290214D01*
X46524126Y-7465410D01*
X46143473Y-7719754D01*
X45819754Y-8043473D01*
X45565410Y-8424126D01*
X45390214Y-8847085D01*
X45300900Y-9296096D01*
X43728280Y-9296096D01*
X43703884Y-9173456D01*
X43613034Y-8954124D01*
X43481140Y-8756730D01*
X43313270Y-8588860D01*
X43115876Y-8456966D01*
X42896544Y-8366116D01*
X42663702Y-8319800D01*
X42426298Y-8319800D01*
X42193456Y-8366116D01*
X41974124Y-8456966D01*
X41776730Y-8588860D01*
X41608860Y-8756730D01*
X41476966Y-8954124D01*
X41386116Y-9173456D01*
X41339800Y-9406298D01*
X37548376Y-9406298D01*
X34983753Y-6841675D01*
X42359800Y-6841675D01*
X42359800Y-7128325D01*
X42415723Y-7409466D01*
X42525419Y-7674296D01*
X42684672Y-7912636D01*
X42887364Y-8115328D01*
X43125704Y-8274581D01*
X43390534Y-8384277D01*
X43671675Y-8440200D01*
X43958325Y-8440200D01*
X44239466Y-8384277D01*
X44504296Y-8274581D01*
X44742636Y-8115328D01*
X44945328Y-7912636D01*
X45104581Y-7674296D01*
X45214277Y-7409466D01*
X45270200Y-7128325D01*
X45270200Y-6841675D01*
X61409800Y-6841675D01*
X61409800Y-7128325D01*
X61465723Y-7409466D01*
X61575419Y-7674296D01*
X61734672Y-7912636D01*
X61937364Y-8115328D01*
X62175704Y-8274581D01*
X62440534Y-8384277D01*
X62721675Y-8440200D01*
X63008325Y-8440200D01*
X63289466Y-8384277D01*
X63554296Y-8274581D01*
X63792636Y-8115328D01*
X63995328Y-7912636D01*
X64154581Y-7674296D01*
X64264277Y-7409466D01*
X64320200Y-7128325D01*
X64320200Y-6841675D01*
X64264277Y-6560534D01*
X64154581Y-6295704D01*
X63995328Y-6057364D01*
X63792636Y-5854672D01*
X63554296Y-5695419D01*
X63289466Y-5585723D01*
X63008325Y-5529800D01*
X62721675Y-5529800D01*
X62440534Y-5585723D01*
X62175704Y-5695419D01*
X61937364Y-5854672D01*
X61734672Y-6057364D01*
X61575419Y-6295704D01*
X61465723Y-6560534D01*
X61409800Y-6841675D01*
X45270200Y-6841675D01*
X45214277Y-6560534D01*
X45104581Y-6295704D01*
X44945328Y-6057364D01*
X44742636Y-5854672D01*
X44504296Y-5695419D01*
X44239466Y-5585723D01*
X43958325Y-5529800D01*
X43671675Y-5529800D01*
X43390534Y-5585723D01*
X43125704Y-5695419D01*
X42887364Y-5854672D01*
X42684672Y-6057364D01*
X42525419Y-6295704D01*
X42415723Y-6560534D01*
X42359800Y-6841675D01*
X34983753Y-6841675D01*
X34673652Y-6531575D01*
X34659331Y-6514125D01*
X34589714Y-6456991D01*
X34510287Y-6414537D01*
X34424105Y-6388393D01*
X34356938Y-6381778D01*
X34356928Y-6381778D01*
X34334478Y-6379567D01*
X34312028Y-6381778D01*
X30797426Y-6381778D01*
X28717323Y-4301675D01*
X29659800Y-4301675D01*
X29659800Y-4588325D01*
X29715723Y-4869466D01*
X29825419Y-5134296D01*
X29984672Y-5372636D01*
X30187364Y-5575328D01*
X30425704Y-5734581D01*
X30690534Y-5844277D01*
X30971675Y-5900200D01*
X31258325Y-5900200D01*
X31539466Y-5844277D01*
X31804296Y-5734581D01*
X32042636Y-5575328D01*
X32245328Y-5372636D01*
X32404581Y-5134296D01*
X32514277Y-4869466D01*
X32570200Y-4588325D01*
X32570200Y-4301675D01*
X48709800Y-4301675D01*
X48709800Y-4588325D01*
X48765723Y-4869466D01*
X48875419Y-5134296D01*
X49034672Y-5372636D01*
X49237364Y-5575328D01*
X49475704Y-5734581D01*
X49740534Y-5844277D01*
X50021675Y-5900200D01*
X50308325Y-5900200D01*
X50589466Y-5844277D01*
X50854296Y-5734581D01*
X51092636Y-5575328D01*
X51295328Y-5372636D01*
X51454581Y-5134296D01*
X51564277Y-4869466D01*
X51620200Y-4588325D01*
X51620200Y-4301675D01*
X67759800Y-4301675D01*
X67759800Y-4588325D01*
X67815723Y-4869466D01*
X67925419Y-5134296D01*
X68084672Y-5372636D01*
X68287364Y-5575328D01*
X68525704Y-5734581D01*
X68790534Y-5844277D01*
X69071675Y-5900200D01*
X69358325Y-5900200D01*
X69639466Y-5844277D01*
X69904296Y-5734581D01*
X70142636Y-5575328D01*
X70345328Y-5372636D01*
X70504581Y-5134296D01*
X70614277Y-4869466D01*
X70670200Y-4588325D01*
X70670200Y-4301675D01*
X70614277Y-4020534D01*
X70504581Y-3755704D01*
X70345328Y-3517364D01*
X70142636Y-3314672D01*
X69904296Y-3155419D01*
X69639466Y-3045723D01*
X69358325Y-2989800D01*
X69071675Y-2989800D01*
X68790534Y-3045723D01*
X68525704Y-3155419D01*
X68287364Y-3314672D01*
X68084672Y-3517364D01*
X67925419Y-3755704D01*
X67815723Y-4020534D01*
X67759800Y-4301675D01*
X51620200Y-4301675D01*
X51564277Y-4020534D01*
X51454581Y-3755704D01*
X51295328Y-3517364D01*
X51092636Y-3314672D01*
X50854296Y-3155419D01*
X50589466Y-3045723D01*
X50308325Y-2989800D01*
X50021675Y-2989800D01*
X49740534Y-3045723D01*
X49475704Y-3155419D01*
X49237364Y-3314672D01*
X49034672Y-3517364D01*
X48875419Y-3755704D01*
X48765723Y-4020534D01*
X48709800Y-4301675D01*
X32570200Y-4301675D01*
X32514277Y-4020534D01*
X32404581Y-3755704D01*
X32245328Y-3517364D01*
X32042636Y-3314672D01*
X31804296Y-3155419D01*
X31698266Y-3111500D01*
X31868830Y-3111500D01*
X32101923Y-3065135D01*
X32321492Y-2974187D01*
X32519099Y-2842150D01*
X32687150Y-2674099D01*
X32819187Y-2476492D01*
X32910135Y-2256923D01*
X32956500Y-2023830D01*
X32956500Y-1786170D01*
X32910135Y-1553077D01*
X32819187Y-1333508D01*
X32687150Y-1135901D01*
X32519099Y-967850D01*
X32321492Y-835813D01*
X32101923Y-744865D01*
X31868830Y-698500D01*
X31631170Y-698500D01*
X31398077Y-744865D01*
X31178508Y-835813D01*
X30980901Y-967850D01*
X30812850Y-1135901D01*
X30680813Y-1333508D01*
X30589865Y-1553077D01*
X30543500Y-1786170D01*
X30543500Y-2023830D01*
X30589865Y-2256923D01*
X30680813Y-2476492D01*
X30812850Y-2674099D01*
X30980901Y-2842150D01*
X31178508Y-2974187D01*
X31216201Y-2989800D01*
X30971675Y-2989800D01*
X30690534Y-3045723D01*
X30425704Y-3155419D01*
X30187364Y-3314672D01*
X29984672Y-3517364D01*
X29825419Y-3755704D01*
X29715723Y-4020534D01*
X29659800Y-4301675D01*
X28717323Y-4301675D01*
X28426244Y-4010597D01*
X28411923Y-3993147D01*
X28342306Y-3936013D01*
X28262879Y-3893559D01*
X28176697Y-3867415D01*
X28109530Y-3860800D01*
X28109520Y-3860800D01*
X28087070Y-3858589D01*
X28064620Y-3860800D01*
X23390449Y-3860800D01*
X23367999Y-3858589D01*
X23345549Y-3860800D01*
X23345540Y-3860800D01*
X23278373Y-3867415D01*
X23192191Y-3893559D01*
X23112764Y-3936013D01*
X23043147Y-3993147D01*
X23028830Y-4010592D01*
X20384086Y-6655337D01*
X20366636Y-6669658D01*
X20309502Y-6739276D01*
X20267048Y-6818703D01*
X20240904Y-6904885D01*
X20234289Y-6972052D01*
X20234289Y-6972061D01*
X20232078Y-6994511D01*
X20234289Y-7016961D01*
X20234290Y-10869132D01*
X16412624Y-14690799D01*
X14750175Y-14690799D01*
X14727725Y-14688588D01*
X14705275Y-14690799D01*
X14705266Y-14690799D01*
X14638099Y-14697414D01*
X14551917Y-14723558D01*
X14527330Y-14736700D01*
X14472489Y-14766012D01*
X14428197Y-14802363D01*
X14402873Y-14823146D01*
X14388556Y-14840591D01*
X13662597Y-15566551D01*
X13645147Y-15580872D01*
X13588013Y-15650490D01*
X13545559Y-15729917D01*
X13519415Y-15816099D01*
X13512800Y-15883266D01*
X13512800Y-15883275D01*
X13510589Y-15905725D01*
X13512800Y-15928175D01*
X13512800Y-16028472D01*
X13398508Y-16075813D01*
X13200901Y-16207850D01*
X13032850Y-16375901D01*
X12900813Y-16573508D01*
X12809865Y-16793077D01*
X12763500Y-17026170D01*
X12636500Y-17026170D01*
X12590135Y-16793077D01*
X12499187Y-16573508D01*
X12367150Y-16375901D01*
X12199099Y-16207850D01*
X12001492Y-16075813D01*
X11781923Y-15984865D01*
X11548830Y-15938500D01*
X11311170Y-15938500D01*
X11078077Y-15984865D01*
X10858508Y-16075813D01*
X10660901Y-16207850D01*
X10492850Y-16375901D01*
X10360813Y-16573508D01*
X10269865Y-16793077D01*
X10223500Y-17026170D01*
X10096500Y-17026170D01*
X10050135Y-16793077D01*
X9959187Y-16573508D01*
X9827150Y-16375901D01*
X9659099Y-16207850D01*
X9461492Y-16075813D01*
X9241923Y-15984865D01*
X9008830Y-15938500D01*
X8771170Y-15938500D01*
X8538077Y-15984865D01*
X8318508Y-16075813D01*
X8120901Y-16207850D01*
X7952850Y-16375901D01*
X7820813Y-16573508D01*
X7729865Y-16793077D01*
X7713567Y-16875011D01*
X7712507Y-16864909D01*
X7631684Y-16604480D01*
X7511492Y-16379616D01*
X7287554Y-16297248D01*
X6439803Y-17145000D01*
X6260197Y-17145000D01*
X5412446Y-16297248D01*
X5188508Y-16379616D01*
X5061506Y-16620919D01*
X4986339Y-16874542D01*
X4970135Y-16793077D01*
X4879187Y-16573508D01*
X4747150Y-16375901D01*
X4579099Y-16207850D01*
X4578495Y-16207446D01*
X5502248Y-16207446D01*
X6350000Y-17055197D01*
X7197752Y-16207446D01*
X7115384Y-15983508D01*
X6874081Y-15856506D01*
X6612639Y-15779022D01*
X6341103Y-15754030D01*
X6069909Y-15782493D01*
X5809480Y-15863316D01*
X5584616Y-15983508D01*
X5502248Y-16207446D01*
X4578495Y-16207446D01*
X4381492Y-16075813D01*
X4161923Y-15984865D01*
X3928830Y-15938500D01*
X3691170Y-15938500D01*
X3458077Y-15984865D01*
X3238508Y-16075813D01*
X3040901Y-16207850D01*
X2872850Y-16375901D01*
X2740813Y-16573508D01*
X2649865Y-16793077D01*
X2603500Y-17026170D01*
X355200Y-17026170D01*
X355200Y-9406298D01*
X3239800Y-9406298D01*
X3239800Y-9643702D01*
X3286116Y-9876544D01*
X3376966Y-10095876D01*
X3508860Y-10293270D01*
X3676730Y-10461140D01*
X3874124Y-10593034D01*
X4093456Y-10683884D01*
X4326298Y-10730200D01*
X4563702Y-10730200D01*
X4796544Y-10683884D01*
X5015876Y-10593034D01*
X5213270Y-10461140D01*
X5381140Y-10293270D01*
X5513034Y-10095876D01*
X5603884Y-9876544D01*
X5650200Y-9643702D01*
X5650200Y-9406298D01*
X5628280Y-9296096D01*
X7200900Y-9296096D01*
X7200900Y-9753904D01*
X7290214Y-10202915D01*
X7465410Y-10625874D01*
X7719754Y-11006527D01*
X8043473Y-11330246D01*
X8424126Y-11584590D01*
X8847085Y-11759786D01*
X9296096Y-11849100D01*
X9753904Y-11849100D01*
X10202915Y-11759786D01*
X10625874Y-11584590D01*
X11006527Y-11330246D01*
X11330246Y-11006527D01*
X11584590Y-10625874D01*
X11759786Y-10202915D01*
X11849100Y-9753904D01*
X11849100Y-9406298D01*
X13399800Y-9406298D01*
X13399800Y-9643702D01*
X13446116Y-9876544D01*
X13536966Y-10095876D01*
X13668860Y-10293270D01*
X13836730Y-10461140D01*
X14034124Y-10593034D01*
X14253456Y-10683884D01*
X14486298Y-10730200D01*
X14723702Y-10730200D01*
X14956544Y-10683884D01*
X15175876Y-10593034D01*
X15373270Y-10461140D01*
X15541140Y-10293270D01*
X15673034Y-10095876D01*
X15763884Y-9876544D01*
X15810200Y-9643702D01*
X15810200Y-9406298D01*
X15763884Y-9173456D01*
X15673034Y-8954124D01*
X15541140Y-8756730D01*
X15373270Y-8588860D01*
X15175876Y-8456966D01*
X14956544Y-8366116D01*
X14723702Y-8319800D01*
X14486298Y-8319800D01*
X14253456Y-8366116D01*
X14034124Y-8456966D01*
X13836730Y-8588860D01*
X13668860Y-8756730D01*
X13536966Y-8954124D01*
X13446116Y-9173456D01*
X13399800Y-9406298D01*
X11849100Y-9406298D01*
X11849100Y-9296096D01*
X11759786Y-8847085D01*
X11584590Y-8424126D01*
X11330246Y-8043473D01*
X11006527Y-7719754D01*
X10625874Y-7465410D01*
X10202915Y-7290214D01*
X9753904Y-7200900D01*
X9296096Y-7200900D01*
X8847085Y-7290214D01*
X8424126Y-7465410D01*
X8043473Y-7719754D01*
X7719754Y-8043473D01*
X7465410Y-8424126D01*
X7290214Y-8847085D01*
X7200900Y-9296096D01*
X5628280Y-9296096D01*
X5603884Y-9173456D01*
X5513034Y-8954124D01*
X5381140Y-8756730D01*
X5213270Y-8588860D01*
X5015876Y-8456966D01*
X4796544Y-8366116D01*
X4563702Y-8319800D01*
X4326298Y-8319800D01*
X4093456Y-8366116D01*
X3874124Y-8456966D01*
X3676730Y-8588860D01*
X3508860Y-8756730D01*
X3376966Y-8954124D01*
X3286116Y-9173456D01*
X3239800Y-9406298D01*
X355200Y-9406298D01*
X355200Y-6841675D01*
X4259800Y-6841675D01*
X4259800Y-7128325D01*
X4315723Y-7409466D01*
X4425419Y-7674296D01*
X4584672Y-7912636D01*
X4787364Y-8115328D01*
X5025704Y-8274581D01*
X5290534Y-8384277D01*
X5571675Y-8440200D01*
X5858325Y-8440200D01*
X6139466Y-8384277D01*
X6404296Y-8274581D01*
X6642636Y-8115328D01*
X6845328Y-7912636D01*
X7004581Y-7674296D01*
X7114277Y-7409466D01*
X7170200Y-7128325D01*
X7170200Y-6841675D01*
X7114277Y-6560534D01*
X7004581Y-6295704D01*
X6845328Y-6057364D01*
X6642636Y-5854672D01*
X6404296Y-5695419D01*
X6139466Y-5585723D01*
X5858325Y-5529800D01*
X5571675Y-5529800D01*
X5290534Y-5585723D01*
X5025704Y-5695419D01*
X4787364Y-5854672D01*
X4584672Y-6057364D01*
X4425419Y-6295704D01*
X4315723Y-6560534D01*
X4259800Y-6841675D01*
X355200Y-6841675D01*
X355200Y-1466850D01*
X2601903Y-1466850D01*
X2601903Y-2343150D01*
X2616697Y-2493359D01*
X2660512Y-2637796D01*
X2731662Y-2770910D01*
X2827415Y-2887585D01*
X2944090Y-2983338D01*
X3077204Y-3054488D01*
X3221641Y-3098303D01*
X3371850Y-3113097D01*
X4248150Y-3113097D01*
X4398359Y-3098303D01*
X4542796Y-3054488D01*
X4675910Y-2983338D01*
X4792585Y-2887585D01*
X4888338Y-2770910D01*
X4959488Y-2637796D01*
X5003303Y-2493359D01*
X5018097Y-2343150D01*
X5018097Y-1786170D01*
X5143500Y-1786170D01*
X5143500Y-2023830D01*
X5189865Y-2256923D01*
X5280813Y-2476492D01*
X5412850Y-2674099D01*
X5580901Y-2842150D01*
X5778508Y-2974187D01*
X5998077Y-3065135D01*
X6231170Y-3111500D01*
X6468830Y-3111500D01*
X6701923Y-3065135D01*
X6921492Y-2974187D01*
X7118494Y-2842554D01*
X8042248Y-2842554D01*
X8124616Y-3066492D01*
X8365919Y-3193494D01*
X8627361Y-3270978D01*
X8898897Y-3295970D01*
X9170091Y-3267507D01*
X9430520Y-3186684D01*
X9655384Y-3066492D01*
X9737752Y-2842554D01*
X10582248Y-2842554D01*
X10664616Y-3066492D01*
X10905919Y-3193494D01*
X11167361Y-3270978D01*
X11198472Y-3273841D01*
X11137364Y-3314672D01*
X10934672Y-3517364D01*
X10775419Y-3755704D01*
X10665723Y-4020534D01*
X10609800Y-4301675D01*
X10609800Y-4588325D01*
X10665723Y-4869466D01*
X10775419Y-5134296D01*
X10934672Y-5372636D01*
X11137364Y-5575328D01*
X11375704Y-5734581D01*
X11640534Y-5844277D01*
X11921675Y-5900200D01*
X12208325Y-5900200D01*
X12489466Y-5844277D01*
X12754296Y-5734581D01*
X12992636Y-5575328D01*
X13195328Y-5372636D01*
X13354581Y-5134296D01*
X13464277Y-4869466D01*
X13520200Y-4588325D01*
X13520200Y-4301675D01*
X13464277Y-4020534D01*
X13354581Y-3755704D01*
X13195328Y-3517364D01*
X12992636Y-3314672D01*
X12754296Y-3155419D01*
X12489466Y-3045723D01*
X12222552Y-2992630D01*
X12277752Y-2842554D01*
X11430000Y-1994803D01*
X10582248Y-2842554D01*
X9737752Y-2842554D01*
X8890000Y-1994803D01*
X8042248Y-2842554D01*
X7118494Y-2842554D01*
X7119099Y-2842150D01*
X7287150Y-2674099D01*
X7419187Y-2476492D01*
X7510135Y-2256923D01*
X7526433Y-2174989D01*
X7527493Y-2185091D01*
X7608316Y-2445520D01*
X7728508Y-2670384D01*
X7952446Y-2752752D01*
X8800197Y-1905000D01*
X8979803Y-1905000D01*
X9827554Y-2752752D01*
X10051492Y-2670384D01*
X10159162Y-2465812D01*
X10268508Y-2670384D01*
X10492446Y-2752752D01*
X11340197Y-1905000D01*
X11519803Y-1905000D01*
X12367554Y-2752752D01*
X12591492Y-2670384D01*
X12718494Y-2429081D01*
X12793661Y-2175458D01*
X12809865Y-2256923D01*
X12900813Y-2476492D01*
X13032850Y-2674099D01*
X13200901Y-2842150D01*
X13398508Y-2974187D01*
X13618077Y-3065135D01*
X13851170Y-3111500D01*
X14088830Y-3111500D01*
X14321923Y-3065135D01*
X14541492Y-2974187D01*
X14739099Y-2842150D01*
X14907150Y-2674099D01*
X15039187Y-2476492D01*
X15130135Y-2256923D01*
X15176500Y-2023830D01*
X15176500Y-1786170D01*
X15303500Y-1786170D01*
X15303500Y-2023830D01*
X15349865Y-2256923D01*
X15440813Y-2476492D01*
X15572850Y-2674099D01*
X15740901Y-2842150D01*
X15938508Y-2974187D01*
X16158077Y-3065135D01*
X16391170Y-3111500D01*
X16628830Y-3111500D01*
X16861923Y-3065135D01*
X17081492Y-2974187D01*
X17279099Y-2842150D01*
X17447150Y-2674099D01*
X17579187Y-2476492D01*
X17670135Y-2256923D01*
X17716500Y-2023830D01*
X17716500Y-1786170D01*
X17843500Y-1786170D01*
X17843500Y-2023830D01*
X17889865Y-2256923D01*
X17980813Y-2476492D01*
X18112850Y-2674099D01*
X18280901Y-2842150D01*
X18478508Y-2974187D01*
X18698077Y-3065135D01*
X18931170Y-3111500D01*
X19168830Y-3111500D01*
X19401923Y-3065135D01*
X19621492Y-2974187D01*
X19819099Y-2842150D01*
X19987150Y-2674099D01*
X20119187Y-2476492D01*
X20210135Y-2256923D01*
X20256500Y-2023830D01*
X20256500Y-1786170D01*
X20383500Y-1786170D01*
X20383500Y-2023830D01*
X20429865Y-2256923D01*
X20520813Y-2476492D01*
X20652850Y-2674099D01*
X20820901Y-2842150D01*
X21018508Y-2974187D01*
X21238077Y-3065135D01*
X21471170Y-3111500D01*
X21708830Y-3111500D01*
X21941923Y-3065135D01*
X22161492Y-2974187D01*
X22359099Y-2842150D01*
X22527150Y-2674099D01*
X22659187Y-2476492D01*
X22750135Y-2256923D01*
X22796500Y-2023830D01*
X22796500Y-1786170D01*
X22923500Y-1786170D01*
X22923500Y-2023830D01*
X22969865Y-2256923D01*
X23060813Y-2476492D01*
X23192850Y-2674099D01*
X23360901Y-2842150D01*
X23558508Y-2974187D01*
X23778077Y-3065135D01*
X24011170Y-3111500D01*
X24248830Y-3111500D01*
X24481923Y-3065135D01*
X24701492Y-2974187D01*
X24899099Y-2842150D01*
X25067150Y-2674099D01*
X25199187Y-2476492D01*
X25290135Y-2256923D01*
X25336500Y-2023830D01*
X25336500Y-1786170D01*
X25463500Y-1786170D01*
X25463500Y-2023830D01*
X25509865Y-2256923D01*
X25600813Y-2476492D01*
X25732850Y-2674099D01*
X25900901Y-2842150D01*
X26098508Y-2974187D01*
X26318077Y-3065135D01*
X26551170Y-3111500D01*
X26788830Y-3111500D01*
X27021923Y-3065135D01*
X27241492Y-2974187D01*
X27439099Y-2842150D01*
X27607150Y-2674099D01*
X27739187Y-2476492D01*
X27830135Y-2256923D01*
X27876500Y-2023830D01*
X27876500Y-1786170D01*
X28003500Y-1786170D01*
X28003500Y-2023830D01*
X28049865Y-2256923D01*
X28140813Y-2476492D01*
X28272850Y-2674099D01*
X28440901Y-2842150D01*
X28638508Y-2974187D01*
X28858077Y-3065135D01*
X29091170Y-3111500D01*
X29328830Y-3111500D01*
X29561923Y-3065135D01*
X29781492Y-2974187D01*
X29979099Y-2842150D01*
X30147150Y-2674099D01*
X30279187Y-2476492D01*
X30370135Y-2256923D01*
X30416500Y-2023830D01*
X30416500Y-1786170D01*
X30370135Y-1553077D01*
X30279187Y-1333508D01*
X30147150Y-1135901D01*
X29979099Y-967850D01*
X29781492Y-835813D01*
X29561923Y-744865D01*
X29328830Y-698500D01*
X29091170Y-698500D01*
X28858077Y-744865D01*
X28638508Y-835813D01*
X28440901Y-967850D01*
X28272850Y-1135901D01*
X28140813Y-1333508D01*
X28049865Y-1553077D01*
X28003500Y-1786170D01*
X27876500Y-1786170D01*
X27830135Y-1553077D01*
X27739187Y-1333508D01*
X27607150Y-1135901D01*
X27439099Y-967850D01*
X27241492Y-835813D01*
X27021923Y-744865D01*
X26788830Y-698500D01*
X26551170Y-698500D01*
X26318077Y-744865D01*
X26098508Y-835813D01*
X25900901Y-967850D01*
X25732850Y-1135901D01*
X25600813Y-1333508D01*
X25509865Y-1553077D01*
X25463500Y-1786170D01*
X25336500Y-1786170D01*
X25290135Y-1553077D01*
X25199187Y-1333508D01*
X25067150Y-1135901D01*
X24899099Y-967850D01*
X24701492Y-835813D01*
X24481923Y-744865D01*
X24248830Y-698500D01*
X24011170Y-698500D01*
X23778077Y-744865D01*
X23558508Y-835813D01*
X23360901Y-967850D01*
X23192850Y-1135901D01*
X23060813Y-1333508D01*
X22969865Y-1553077D01*
X22923500Y-1786170D01*
X22796500Y-1786170D01*
X22750135Y-1553077D01*
X22659187Y-1333508D01*
X22527150Y-1135901D01*
X22359099Y-967850D01*
X22161492Y-835813D01*
X21941923Y-744865D01*
X21708830Y-698500D01*
X21471170Y-698500D01*
X21238077Y-744865D01*
X21018508Y-835813D01*
X20820901Y-967850D01*
X20652850Y-1135901D01*
X20520813Y-1333508D01*
X20429865Y-1553077D01*
X20383500Y-1786170D01*
X20256500Y-1786170D01*
X20210135Y-1553077D01*
X20119187Y-1333508D01*
X19987150Y-1135901D01*
X19819099Y-967850D01*
X19621492Y-835813D01*
X19401923Y-744865D01*
X19168830Y-698500D01*
X18931170Y-698500D01*
X18698077Y-744865D01*
X18478508Y-835813D01*
X18280901Y-967850D01*
X18112850Y-1135901D01*
X17980813Y-1333508D01*
X17889865Y-1553077D01*
X17843500Y-1786170D01*
X17716500Y-1786170D01*
X17670135Y-1553077D01*
X17579187Y-1333508D01*
X17447150Y-1135901D01*
X17279099Y-967850D01*
X17081492Y-835813D01*
X16861923Y-744865D01*
X16628830Y-698500D01*
X16391170Y-698500D01*
X16158077Y-744865D01*
X15938508Y-835813D01*
X15740901Y-967850D01*
X15572850Y-1135901D01*
X15440813Y-1333508D01*
X15349865Y-1553077D01*
X15303500Y-1786170D01*
X15176500Y-1786170D01*
X15130135Y-1553077D01*
X15039187Y-1333508D01*
X14907150Y-1135901D01*
X14739099Y-967850D01*
X14541492Y-835813D01*
X14321923Y-744865D01*
X14088830Y-698500D01*
X13851170Y-698500D01*
X13618077Y-744865D01*
X13398508Y-835813D01*
X13200901Y-967850D01*
X13032850Y-1135901D01*
X12900813Y-1333508D01*
X12809865Y-1553077D01*
X12793567Y-1635011D01*
X12792507Y-1624909D01*
X12711684Y-1364480D01*
X12591492Y-1139616D01*
X12367554Y-1057248D01*
X11519803Y-1905000D01*
X11340197Y-1905000D01*
X10492446Y-1057248D01*
X10268508Y-1139616D01*
X10160838Y-1344188D01*
X10051492Y-1139616D01*
X9827554Y-1057248D01*
X8979803Y-1905000D01*
X8800197Y-1905000D01*
X7952446Y-1057248D01*
X7728508Y-1139616D01*
X7601506Y-1380919D01*
X7526339Y-1634542D01*
X7510135Y-1553077D01*
X7419187Y-1333508D01*
X7287150Y-1135901D01*
X7119099Y-967850D01*
X7118495Y-967446D01*
X8042248Y-967446D01*
X8890000Y-1815197D01*
X9737752Y-967446D01*
X10582248Y-967446D01*
X11430000Y-1815197D01*
X12277752Y-967446D01*
X12195384Y-743508D01*
X11954081Y-616506D01*
X11692639Y-539022D01*
X11421103Y-514030D01*
X11149909Y-542493D01*
X10889480Y-623316D01*
X10664616Y-743508D01*
X10582248Y-967446D01*
X9737752Y-967446D01*
X9655384Y-743508D01*
X9414081Y-616506D01*
X9152639Y-539022D01*
X8881103Y-514030D01*
X8609909Y-542493D01*
X8349480Y-623316D01*
X8124616Y-743508D01*
X8042248Y-967446D01*
X7118495Y-967446D01*
X6921492Y-835813D01*
X6701923Y-744865D01*
X6468830Y-698500D01*
X6231170Y-698500D01*
X5998077Y-744865D01*
X5778508Y-835813D01*
X5580901Y-967850D01*
X5412850Y-1135901D01*
X5280813Y-1333508D01*
X5189865Y-1553077D01*
X5143500Y-1786170D01*
X5018097Y-1786170D01*
X5018097Y-1466850D01*
X5003303Y-1316641D01*
X4959488Y-1172204D01*
X4888338Y-1039090D01*
X4792585Y-922415D01*
X4675910Y-826662D01*
X4542796Y-755512D01*
X4398359Y-711697D01*
X4248150Y-696903D01*
X3371850Y-696903D01*
X3221641Y-711697D01*
X3077204Y-755512D01*
X2944090Y-826662D01*
X2827415Y-922415D01*
X2731662Y-1039090D01*
X2660512Y-1172204D01*
X2616697Y-1316641D01*
X2601903Y-1466850D01*
X355200Y-1466850D01*
X355200Y-355200D01*
X94894801Y-355200D01*
X94894800Y-18694800D01*
%TA.AperFunction,Conductor*%
D20*
G36*
X94894800Y-18694800D02*
G01*
X355200Y-18694800D01*
X355200Y-17026170D01*
X2603500Y-17026170D01*
X2603500Y-17263830D01*
X2649865Y-17496923D01*
X2740813Y-17716492D01*
X2872850Y-17914099D01*
X3040901Y-18082150D01*
X3238508Y-18214187D01*
X3458077Y-18305135D01*
X3691170Y-18351500D01*
X3928830Y-18351500D01*
X4161923Y-18305135D01*
X4381492Y-18214187D01*
X4578494Y-18082554D01*
X5502248Y-18082554D01*
X5584616Y-18306492D01*
X5825919Y-18433494D01*
X6087361Y-18510978D01*
X6358897Y-18535970D01*
X6630091Y-18507507D01*
X6890520Y-18426684D01*
X7115384Y-18306492D01*
X7197752Y-18082554D01*
X6350000Y-17234803D01*
X5502248Y-18082554D01*
X4578494Y-18082554D01*
X4579099Y-18082150D01*
X4747150Y-17914099D01*
X4879187Y-17716492D01*
X4970135Y-17496923D01*
X4986433Y-17414989D01*
X4987493Y-17425091D01*
X5068316Y-17685520D01*
X5188508Y-17910384D01*
X5412446Y-17992752D01*
X6260197Y-17145000D01*
X6439803Y-17145000D01*
X7287554Y-17992752D01*
X7511492Y-17910384D01*
X7638494Y-17669081D01*
X7713661Y-17415458D01*
X7729865Y-17496923D01*
X7820813Y-17716492D01*
X7952850Y-17914099D01*
X8120901Y-18082150D01*
X8318508Y-18214187D01*
X8538077Y-18305135D01*
X8771170Y-18351500D01*
X9008830Y-18351500D01*
X9241923Y-18305135D01*
X9461492Y-18214187D01*
X9659099Y-18082150D01*
X9827150Y-17914099D01*
X9959187Y-17716492D01*
X10050135Y-17496923D01*
X10096500Y-17263830D01*
X10096500Y-17026170D01*
X10223500Y-17026170D01*
X10223500Y-17263830D01*
X10269865Y-17496923D01*
X10360813Y-17716492D01*
X10492850Y-17914099D01*
X10660901Y-18082150D01*
X10858508Y-18214187D01*
X11078077Y-18305135D01*
X11311170Y-18351500D01*
X11548830Y-18351500D01*
X11781923Y-18305135D01*
X12001492Y-18214187D01*
X12199099Y-18082150D01*
X12367150Y-17914099D01*
X12499187Y-17716492D01*
X12590135Y-17496923D01*
X12636500Y-17263830D01*
X12636500Y-17026170D01*
X12763500Y-17026170D01*
X12763500Y-17263830D01*
X12809865Y-17496923D01*
X12900813Y-17716492D01*
X13032850Y-17914099D01*
X13200901Y-18082150D01*
X13398508Y-18214187D01*
X13618077Y-18305135D01*
X13851170Y-18351500D01*
X14088830Y-18351500D01*
X14321923Y-18305135D01*
X14541492Y-18214187D01*
X14739099Y-18082150D01*
X14907150Y-17914099D01*
X15039187Y-17716492D01*
X15130135Y-17496923D01*
X15176500Y-17263830D01*
X15176500Y-17026170D01*
X15130135Y-16793077D01*
X15039187Y-16573508D01*
X14907150Y-16375901D01*
X14739099Y-16207850D01*
X14541492Y-16075813D01*
X14474315Y-16047987D01*
X14917104Y-15605199D01*
X16165182Y-15605199D01*
X16128013Y-15650490D01*
X16085559Y-15729917D01*
X16059415Y-15816099D01*
X16052800Y-15883266D01*
X16052800Y-15883275D01*
X16050589Y-15905725D01*
X16052800Y-15928175D01*
X16052800Y-16028472D01*
X15938508Y-16075813D01*
X15740901Y-16207850D01*
X15572850Y-16375901D01*
X15440813Y-16573508D01*
X15349865Y-16793077D01*
X15303500Y-17026170D01*
X15303500Y-17263830D01*
X15349865Y-17496923D01*
X15440813Y-17716492D01*
X15572850Y-17914099D01*
X15740901Y-18082150D01*
X15938508Y-18214187D01*
X16158077Y-18305135D01*
X16391170Y-18351500D01*
X16628830Y-18351500D01*
X16861923Y-18305135D01*
X17081492Y-18214187D01*
X17279099Y-18082150D01*
X17447150Y-17914099D01*
X17579187Y-17716492D01*
X17670135Y-17496923D01*
X17716500Y-17263830D01*
X17716500Y-17026170D01*
X17670135Y-16793077D01*
X17579187Y-16573508D01*
X17447150Y-16375901D01*
X17279099Y-16207850D01*
X17081492Y-16075813D01*
X17014315Y-16047987D01*
X21452908Y-11609395D01*
X21470353Y-11595078D01*
X21527487Y-11525461D01*
X21569941Y-11446034D01*
X21596085Y-11359852D01*
X21602700Y-11292685D01*
X21602700Y-11292675D01*
X21604911Y-11270225D01*
X21602700Y-11247775D01*
X21602700Y-9406298D01*
X22289800Y-9406298D01*
X22289800Y-9643702D01*
X22336116Y-9876544D01*
X22426966Y-10095876D01*
X22558860Y-10293270D01*
X22726730Y-10461140D01*
X22924124Y-10593034D01*
X23143456Y-10683884D01*
X23376298Y-10730200D01*
X23613702Y-10730200D01*
X23846544Y-10683884D01*
X24065876Y-10593034D01*
X24263270Y-10461140D01*
X24431140Y-10293270D01*
X24563034Y-10095876D01*
X24653884Y-9876544D01*
X24700200Y-9643702D01*
X24700200Y-9406298D01*
X24678280Y-9296096D01*
X26250900Y-9296096D01*
X26250900Y-9753904D01*
X26340214Y-10202915D01*
X26515410Y-10625874D01*
X26769754Y-11006527D01*
X27093473Y-11330246D01*
X27474126Y-11584590D01*
X27897085Y-11759786D01*
X28346096Y-11849100D01*
X28803904Y-11849100D01*
X29252915Y-11759786D01*
X29675874Y-11584590D01*
X30056527Y-11330246D01*
X30380246Y-11006527D01*
X30634590Y-10625874D01*
X30809786Y-10202915D01*
X30899100Y-9753904D01*
X30899100Y-9406298D01*
X32449800Y-9406298D01*
X32449800Y-9643702D01*
X32496116Y-9876544D01*
X32586966Y-10095876D01*
X32718860Y-10293270D01*
X32886730Y-10461140D01*
X33084124Y-10593034D01*
X33303456Y-10683884D01*
X33536298Y-10730200D01*
X33773702Y-10730200D01*
X34006544Y-10683884D01*
X34225876Y-10593034D01*
X34423270Y-10461140D01*
X34591140Y-10293270D01*
X34723034Y-10095876D01*
X34813884Y-9876544D01*
X34860200Y-9643702D01*
X34860200Y-9406298D01*
X34813884Y-9173456D01*
X34723034Y-8954124D01*
X34591140Y-8756730D01*
X34423270Y-8588860D01*
X34225876Y-8456966D01*
X34006544Y-8366116D01*
X33773702Y-8319800D01*
X33536298Y-8319800D01*
X33303456Y-8366116D01*
X33084124Y-8456966D01*
X32886730Y-8588860D01*
X32718860Y-8756730D01*
X32586966Y-8954124D01*
X32496116Y-9173456D01*
X32449800Y-9406298D01*
X30899100Y-9406298D01*
X30899100Y-9296096D01*
X30809786Y-8847085D01*
X30634590Y-8424126D01*
X30380246Y-8043473D01*
X30056527Y-7719754D01*
X29675874Y-7465410D01*
X29252915Y-7290214D01*
X28803904Y-7200900D01*
X28346096Y-7200900D01*
X27897085Y-7290214D01*
X27474126Y-7465410D01*
X27093473Y-7719754D01*
X26769754Y-8043473D01*
X26515410Y-8424126D01*
X26340214Y-8847085D01*
X26250900Y-9296096D01*
X24678280Y-9296096D01*
X24653884Y-9173456D01*
X24563034Y-8954124D01*
X24431140Y-8756730D01*
X24263270Y-8588860D01*
X24065876Y-8456966D01*
X23846544Y-8366116D01*
X23613702Y-8319800D01*
X23376298Y-8319800D01*
X23143456Y-8366116D01*
X22924124Y-8456966D01*
X22726730Y-8588860D01*
X22558860Y-8756730D01*
X22426966Y-8954124D01*
X22336116Y-9173456D01*
X22289800Y-9406298D01*
X21602700Y-9406298D01*
X21602700Y-7428377D01*
X22189402Y-6841675D01*
X23309800Y-6841675D01*
X23309800Y-7128325D01*
X23365723Y-7409466D01*
X23475419Y-7674296D01*
X23634672Y-7912636D01*
X23837364Y-8115328D01*
X24075704Y-8274581D01*
X24340534Y-8384277D01*
X24621675Y-8440200D01*
X24908325Y-8440200D01*
X25189466Y-8384277D01*
X25454296Y-8274581D01*
X25692636Y-8115328D01*
X25895328Y-7912636D01*
X26054581Y-7674296D01*
X26164277Y-7409466D01*
X26220200Y-7128325D01*
X26220200Y-6841675D01*
X26164277Y-6560534D01*
X26054581Y-6295704D01*
X25895328Y-6057364D01*
X25692636Y-5854672D01*
X25454296Y-5695419D01*
X25189466Y-5585723D01*
X24908325Y-5529800D01*
X24621675Y-5529800D01*
X24340534Y-5585723D01*
X24075704Y-5695419D01*
X23837364Y-5854672D01*
X23634672Y-6057364D01*
X23475419Y-6295704D01*
X23365723Y-6560534D01*
X23309800Y-6841675D01*
X22189402Y-6841675D01*
X23747878Y-5283200D01*
X27763625Y-5283200D01*
X30080825Y-7600401D01*
X30095137Y-7617840D01*
X30112576Y-7632152D01*
X30112582Y-7632158D01*
X30164754Y-7674975D01*
X30244180Y-7717428D01*
X30330363Y-7743572D01*
X30419990Y-7752399D01*
X30442450Y-7750187D01*
X33837112Y-7750189D01*
X39430851Y-13343929D01*
X39445168Y-13361374D01*
X39514785Y-13418508D01*
X39594212Y-13460962D01*
X39680394Y-13487106D01*
X39747561Y-13493721D01*
X39747571Y-13493721D01*
X39770021Y-13495932D01*
X39792471Y-13493721D01*
X71918165Y-13493721D01*
X71940615Y-13495932D01*
X71963065Y-13493721D01*
X71963075Y-13493721D01*
X72030242Y-13487106D01*
X72116424Y-13460962D01*
X72195851Y-13418508D01*
X72265468Y-13361374D01*
X72279789Y-13343924D01*
X76217415Y-9406298D01*
X79439800Y-9406298D01*
X79439800Y-9643702D01*
X79486116Y-9876544D01*
X79576966Y-10095876D01*
X79708860Y-10293270D01*
X79876730Y-10461140D01*
X80074124Y-10593034D01*
X80293456Y-10683884D01*
X80526298Y-10730200D01*
X80763702Y-10730200D01*
X80996544Y-10683884D01*
X81215876Y-10593034D01*
X81413270Y-10461140D01*
X81581140Y-10293270D01*
X81713034Y-10095876D01*
X81803884Y-9876544D01*
X81850200Y-9643702D01*
X81850200Y-9406298D01*
X81828280Y-9296096D01*
X83400900Y-9296096D01*
X83400900Y-9753904D01*
X83490214Y-10202915D01*
X83665410Y-10625874D01*
X83919754Y-11006527D01*
X84243473Y-11330246D01*
X84624126Y-11584590D01*
X85047085Y-11759786D01*
X85496096Y-11849100D01*
X85953904Y-11849100D01*
X86402915Y-11759786D01*
X86825874Y-11584590D01*
X87206527Y-11330246D01*
X87530246Y-11006527D01*
X87784590Y-10625874D01*
X87959786Y-10202915D01*
X88049100Y-9753904D01*
X88049100Y-9296096D01*
X87959786Y-8847085D01*
X87784590Y-8424126D01*
X87530246Y-8043473D01*
X87206527Y-7719754D01*
X86825874Y-7465410D01*
X86402915Y-7290214D01*
X85953904Y-7200900D01*
X85496096Y-7200900D01*
X85047085Y-7290214D01*
X84624126Y-7465410D01*
X84243473Y-7719754D01*
X83919754Y-8043473D01*
X83665410Y-8424126D01*
X83490214Y-8847085D01*
X83400900Y-9296096D01*
X81828280Y-9296096D01*
X81803884Y-9173456D01*
X81713034Y-8954124D01*
X81581140Y-8756730D01*
X81413270Y-8588860D01*
X81215876Y-8456966D01*
X80996544Y-8366116D01*
X80763702Y-8319800D01*
X80526298Y-8319800D01*
X80293456Y-8366116D01*
X80074124Y-8456966D01*
X79876730Y-8588860D01*
X79708860Y-8756730D01*
X79576966Y-8954124D01*
X79486116Y-9173456D01*
X79439800Y-9406298D01*
X76217415Y-9406298D01*
X78782038Y-6841675D01*
X80459800Y-6841675D01*
X80459800Y-7128325D01*
X80515723Y-7409466D01*
X80625419Y-7674296D01*
X80784672Y-7912636D01*
X80987364Y-8115328D01*
X81225704Y-8274581D01*
X81490534Y-8384277D01*
X81771675Y-8440200D01*
X82058325Y-8440200D01*
X82339466Y-8384277D01*
X82604296Y-8274581D01*
X82842636Y-8115328D01*
X83045328Y-7912636D01*
X83204581Y-7674296D01*
X83314277Y-7409466D01*
X83370200Y-7128325D01*
X83370200Y-6841675D01*
X83314277Y-6560534D01*
X83204581Y-6295704D01*
X83045328Y-6057364D01*
X82842636Y-5854672D01*
X82604296Y-5695419D01*
X82339466Y-5585723D01*
X82058325Y-5529800D01*
X81771675Y-5529800D01*
X81490534Y-5585723D01*
X81225704Y-5695419D01*
X80987364Y-5854672D01*
X80784672Y-6057364D01*
X80625419Y-6295704D01*
X80515723Y-6560534D01*
X80459800Y-6841675D01*
X78782038Y-6841675D01*
X81322038Y-4301675D01*
X86809800Y-4301675D01*
X86809800Y-4588325D01*
X86865723Y-4869466D01*
X86975419Y-5134296D01*
X87134672Y-5372636D01*
X87337364Y-5575328D01*
X87575704Y-5734581D01*
X87840534Y-5844277D01*
X88121675Y-5900200D01*
X88408325Y-5900200D01*
X88689466Y-5844277D01*
X88954296Y-5734581D01*
X89192636Y-5575328D01*
X89395328Y-5372636D01*
X89554581Y-5134296D01*
X89664277Y-4869466D01*
X89720200Y-4588325D01*
X89720200Y-4301675D01*
X89664277Y-4020534D01*
X89554581Y-3755704D01*
X89395328Y-3517364D01*
X89192636Y-3314672D01*
X88954296Y-3155419D01*
X88689466Y-3045723D01*
X88408325Y-2989800D01*
X88121675Y-2989800D01*
X87840534Y-3045723D01*
X87575704Y-3155419D01*
X87337364Y-3314672D01*
X87134672Y-3517364D01*
X86975419Y-3755704D01*
X86865723Y-4020534D01*
X86809800Y-4301675D01*
X81322038Y-4301675D01*
X82690014Y-2933700D01*
X88901123Y-2933700D01*
X92062846Y-6095425D01*
X92077158Y-6112864D01*
X92094597Y-6127176D01*
X92094603Y-6127182D01*
X92146775Y-6169998D01*
X92226201Y-6212452D01*
X92246260Y-6218537D01*
X92312384Y-6238596D01*
X92379551Y-6245211D01*
X92379561Y-6245211D01*
X92402011Y-6247422D01*
X92424461Y-6245211D01*
X93022800Y-6245211D01*
X93022800Y-6368268D01*
X93054704Y-6528660D01*
X93117286Y-6679747D01*
X93208142Y-6815722D01*
X93313920Y-6921500D01*
X93208142Y-7027278D01*
X93117286Y-7163253D01*
X93054704Y-7314340D01*
X93034323Y-7416800D01*
X92740628Y-7416800D01*
X92236404Y-6912577D01*
X92222083Y-6895127D01*
X92152466Y-6837993D01*
X92073039Y-6795539D01*
X91986857Y-6769395D01*
X91919690Y-6762780D01*
X91919680Y-6762780D01*
X91897230Y-6760569D01*
X91874780Y-6762780D01*
X89950404Y-6762780D01*
X89927954Y-6760569D01*
X89905504Y-6762780D01*
X89905494Y-6762780D01*
X89838327Y-6769395D01*
X89775629Y-6788415D01*
X89752144Y-6795539D01*
X89672718Y-6837993D01*
X89620546Y-6880809D01*
X89620540Y-6880815D01*
X89603101Y-6895127D01*
X89588789Y-6912566D01*
X88284603Y-8216754D01*
X88267159Y-8231070D01*
X88252842Y-8248515D01*
X88252841Y-8248516D01*
X88210024Y-8300688D01*
X88177257Y-8361993D01*
X88167571Y-8380114D01*
X88144258Y-8456966D01*
X88141427Y-8466297D01*
X88132600Y-8555923D01*
X88134812Y-8578383D01*
X88134811Y-12190678D01*
X86812694Y-13512797D01*
X36490507Y-13512797D01*
X35036828Y-12059120D01*
X35022507Y-12041670D01*
X34952890Y-11984536D01*
X34873463Y-11942082D01*
X34787281Y-11915938D01*
X34720114Y-11909323D01*
X34720104Y-11909323D01*
X34697654Y-11907112D01*
X34675204Y-11909323D01*
X22611651Y-11909323D01*
X22589201Y-11907112D01*
X22566751Y-11909323D01*
X22566742Y-11909323D01*
X22499575Y-11915938D01*
X22413393Y-11942082D01*
X22376419Y-11961845D01*
X22333965Y-11984536D01*
X22281794Y-12027353D01*
X22264349Y-12041670D01*
X22250032Y-12059115D01*
X18742593Y-15566555D01*
X18725148Y-15580872D01*
X18710831Y-15598317D01*
X18710830Y-15598318D01*
X18668014Y-15650489D01*
X18625560Y-15729916D01*
X18601482Y-15809290D01*
X18599416Y-15816099D01*
X18590589Y-15905725D01*
X18592801Y-15928184D01*
X18592801Y-16028472D01*
X18478508Y-16075813D01*
X18280901Y-16207850D01*
X18112850Y-16375901D01*
X17980813Y-16573508D01*
X17889865Y-16793077D01*
X17843500Y-17026170D01*
X17843500Y-17263830D01*
X17889865Y-17496923D01*
X17980813Y-17716492D01*
X18112850Y-17914099D01*
X18280901Y-18082150D01*
X18478508Y-18214187D01*
X18698077Y-18305135D01*
X18931170Y-18351500D01*
X19168830Y-18351500D01*
X19401923Y-18305135D01*
X19621492Y-18214187D01*
X19819099Y-18082150D01*
X19987150Y-17914099D01*
X20119187Y-17716492D01*
X20210135Y-17496923D01*
X20256500Y-17263830D01*
X20256500Y-17026170D01*
X20210135Y-16793077D01*
X20119187Y-16573508D01*
X19987150Y-16375901D01*
X19819099Y-16207850D01*
X19621492Y-16075813D01*
X19554315Y-16047987D01*
X22778580Y-12823723D01*
X24025424Y-12823723D01*
X21282597Y-15566551D01*
X21265147Y-15580872D01*
X21208013Y-15650490D01*
X21165559Y-15729917D01*
X21139415Y-15816099D01*
X21132800Y-15883266D01*
X21132800Y-15883275D01*
X21130589Y-15905725D01*
X21132800Y-15928175D01*
X21132800Y-16028472D01*
X21018508Y-16075813D01*
X20820901Y-16207850D01*
X20652850Y-16375901D01*
X20520813Y-16573508D01*
X20429865Y-16793077D01*
X20383500Y-17026170D01*
X20383500Y-17263830D01*
X20429865Y-17496923D01*
X20520813Y-17716492D01*
X20652850Y-17914099D01*
X20820901Y-18082150D01*
X21018508Y-18214187D01*
X21238077Y-18305135D01*
X21471170Y-18351500D01*
X21708830Y-18351500D01*
X21941923Y-18305135D01*
X22161492Y-18214187D01*
X22359099Y-18082150D01*
X22527150Y-17914099D01*
X22659187Y-17716492D01*
X22750135Y-17496923D01*
X22796500Y-17263830D01*
X22796500Y-17026170D01*
X22750135Y-16793077D01*
X22659187Y-16573508D01*
X22527150Y-16375901D01*
X22359099Y-16207850D01*
X22161492Y-16075813D01*
X22094315Y-16047987D01*
X24864569Y-13277734D01*
X34319997Y-13277734D01*
X34441319Y-13399056D01*
X34439441Y-13397515D01*
X34360015Y-13355062D01*
X34360005Y-13355059D01*
X34273833Y-13328918D01*
X34206666Y-13322303D01*
X34184206Y-13320091D01*
X34161747Y-13322303D01*
X30988234Y-13322300D01*
X26278674Y-13322300D01*
X26256224Y-13320089D01*
X26233774Y-13322300D01*
X26233765Y-13322300D01*
X26166598Y-13328915D01*
X26080416Y-13355059D01*
X26048321Y-13372214D01*
X26000988Y-13397513D01*
X25955560Y-13434796D01*
X25931372Y-13454647D01*
X25917055Y-13472092D01*
X23822593Y-15566555D01*
X23805148Y-15580872D01*
X23790831Y-15598317D01*
X23790830Y-15598318D01*
X23748014Y-15650489D01*
X23705560Y-15729916D01*
X23681482Y-15809290D01*
X23679416Y-15816099D01*
X23670589Y-15905725D01*
X23672801Y-15928184D01*
X23672801Y-16028472D01*
X23558508Y-16075813D01*
X23360901Y-16207850D01*
X23192850Y-16375901D01*
X23060813Y-16573508D01*
X22969865Y-16793077D01*
X22923500Y-17026170D01*
X22923500Y-17263830D01*
X22969865Y-17496923D01*
X23060813Y-17716492D01*
X23192850Y-17914099D01*
X23360901Y-18082150D01*
X23558508Y-18214187D01*
X23778077Y-18305135D01*
X24011170Y-18351500D01*
X24248830Y-18351500D01*
X24481923Y-18305135D01*
X24701492Y-18214187D01*
X24899099Y-18082150D01*
X25067150Y-17914099D01*
X25199187Y-17716492D01*
X25290135Y-17496923D01*
X25336500Y-17263830D01*
X25336500Y-17026170D01*
X25290135Y-16793077D01*
X25199187Y-16573508D01*
X25067150Y-16375901D01*
X24899099Y-16207850D01*
X24701492Y-16075813D01*
X24634315Y-16047987D01*
X26445603Y-14236700D01*
X27692446Y-14236700D01*
X26362592Y-15566555D01*
X26345148Y-15580872D01*
X26330831Y-15598317D01*
X26330830Y-15598318D01*
X26288014Y-15650489D01*
X26245560Y-15729916D01*
X26221482Y-15809290D01*
X26219416Y-15816099D01*
X26210589Y-15905725D01*
X26212801Y-15928184D01*
X26212801Y-16028472D01*
X26098508Y-16075813D01*
X25900901Y-16207850D01*
X25732850Y-16375901D01*
X25600813Y-16573508D01*
X25509865Y-16793077D01*
X25463500Y-17026170D01*
X25463500Y-17263830D01*
X25509865Y-17496923D01*
X25600813Y-17716492D01*
X25732850Y-17914099D01*
X25900901Y-18082150D01*
X26098508Y-18214187D01*
X26318077Y-18305135D01*
X26551170Y-18351500D01*
X26788830Y-18351500D01*
X27021923Y-18305135D01*
X27241492Y-18214187D01*
X27439099Y-18082150D01*
X27607150Y-17914099D01*
X27739187Y-17716492D01*
X27830135Y-17496923D01*
X27876500Y-17263830D01*
X27876500Y-17026170D01*
X27830135Y-16793077D01*
X27739187Y-16573508D01*
X27607150Y-16375901D01*
X27439099Y-16207850D01*
X27241492Y-16075813D01*
X27174315Y-16047987D01*
X28531594Y-14690710D01*
X31126247Y-14690711D01*
X31123840Y-14690948D01*
X31037658Y-14717092D01*
X31000973Y-14736700D01*
X30958230Y-14759546D01*
X30906059Y-14802363D01*
X30888614Y-14816680D01*
X30874297Y-14834125D01*
X29778896Y-15929527D01*
X29778891Y-15929531D01*
X29676216Y-16032206D01*
X29561923Y-15984865D01*
X29328830Y-15938500D01*
X29091170Y-15938500D01*
X28858077Y-15984865D01*
X28638508Y-16075813D01*
X28440901Y-16207850D01*
X28272850Y-16375901D01*
X28140813Y-16573508D01*
X28049865Y-16793077D01*
X28003500Y-17026170D01*
X28003500Y-17263830D01*
X28049865Y-17496923D01*
X28140813Y-17716492D01*
X28272850Y-17914099D01*
X28440901Y-18082150D01*
X28638508Y-18214187D01*
X28858077Y-18305135D01*
X29091170Y-18351500D01*
X29328830Y-18351500D01*
X29561923Y-18305135D01*
X29781492Y-18214187D01*
X29979099Y-18082150D01*
X30147150Y-17914099D01*
X30279187Y-17716492D01*
X30370135Y-17496923D01*
X30416500Y-17263830D01*
X30416500Y-17026170D01*
X30370135Y-16793077D01*
X30322794Y-16678784D01*
X30425469Y-16576109D01*
X30425473Y-16576104D01*
X31402845Y-15598733D01*
X33289943Y-15598733D01*
X34382080Y-16690871D01*
X32867800Y-16690871D01*
X32819187Y-16573508D01*
X32687150Y-16375901D01*
X32519099Y-16207850D01*
X32321492Y-16075813D01*
X32101923Y-15984865D01*
X31868830Y-15938500D01*
X31631170Y-15938500D01*
X31398077Y-15984865D01*
X31178508Y-16075813D01*
X30980901Y-16207850D01*
X30812850Y-16375901D01*
X30680813Y-16573508D01*
X30589865Y-16793077D01*
X30543500Y-17026170D01*
X30543500Y-17263830D01*
X30589865Y-17496923D01*
X30680813Y-17716492D01*
X30812850Y-17914099D01*
X30980901Y-18082150D01*
X31178508Y-18214187D01*
X31398077Y-18305135D01*
X31631170Y-18351500D01*
X31868830Y-18351500D01*
X32101923Y-18305135D01*
X32321492Y-18214187D01*
X32519099Y-18082150D01*
X32687150Y-17914099D01*
X32819187Y-17716492D01*
X32865256Y-17605270D01*
X89904612Y-17605274D01*
X89927062Y-17607485D01*
X89949512Y-17605274D01*
X89949521Y-17605274D01*
X90016688Y-17598659D01*
X90102870Y-17572515D01*
X90182297Y-17530061D01*
X90251914Y-17472927D01*
X90266231Y-17455482D01*
X92045213Y-15676500D01*
X92842542Y-15676500D01*
X92852350Y-15776085D01*
X92881398Y-15871844D01*
X92928570Y-15960095D01*
X92992052Y-16037448D01*
X93069405Y-16100930D01*
X93157656Y-16148102D01*
X93253415Y-16177150D01*
X93353000Y-16186958D01*
X93662500Y-16184500D01*
X93789500Y-16057500D01*
X93789500Y-15240000D01*
X93916500Y-15240000D01*
X93916500Y-16057500D01*
X94043500Y-16184500D01*
X94353000Y-16186958D01*
X94452585Y-16177150D01*
X94548344Y-16148102D01*
X94636595Y-16100930D01*
X94713948Y-16037448D01*
X94777430Y-15960095D01*
X94824602Y-15871844D01*
X94853650Y-15776085D01*
X94863458Y-15676500D01*
X94861000Y-15367000D01*
X94734000Y-15240000D01*
X93916500Y-15240000D01*
X93789500Y-15240000D01*
X92972000Y-15240000D01*
X92845000Y-15367000D01*
X92842542Y-15676500D01*
X92045213Y-15676500D01*
X92844139Y-14877575D01*
X92845000Y-14986000D01*
X92972000Y-15113000D01*
X93789500Y-15113000D01*
X93789500Y-15093000D01*
X93916500Y-15093000D01*
X93916500Y-15113000D01*
X94734000Y-15113000D01*
X94861000Y-14986000D01*
X94863458Y-14676500D01*
X94853650Y-14576915D01*
X94824602Y-14481156D01*
X94777430Y-14392905D01*
X94713948Y-14315552D01*
X94636595Y-14252070D01*
X94613562Y-14239758D01*
X94651296Y-14148660D01*
X94683200Y-13988268D01*
X94683200Y-13824732D01*
X94651296Y-13664340D01*
X94588714Y-13513253D01*
X94497858Y-13377278D01*
X94392080Y-13271500D01*
X94497858Y-13165722D01*
X94588714Y-13029747D01*
X94651296Y-12878660D01*
X94683200Y-12718268D01*
X94683200Y-12554732D01*
X94651296Y-12394340D01*
X94588714Y-12243253D01*
X94497858Y-12107278D01*
X94392080Y-12001500D01*
X94497858Y-11895722D01*
X94588714Y-11759747D01*
X94651296Y-11608660D01*
X94683200Y-11448268D01*
X94683200Y-11284732D01*
X94651296Y-11124340D01*
X94588714Y-10973253D01*
X94497858Y-10837278D01*
X94392080Y-10731500D01*
X94497858Y-10625722D01*
X94588714Y-10489747D01*
X94651296Y-10338660D01*
X94683200Y-10178268D01*
X94683200Y-10014732D01*
X94651296Y-9854340D01*
X94588714Y-9703253D01*
X94497858Y-9567278D01*
X94392080Y-9461500D01*
X94497858Y-9355722D01*
X94588714Y-9219747D01*
X94651296Y-9068660D01*
X94683200Y-8908268D01*
X94683200Y-8744732D01*
X94651296Y-8584340D01*
X94588714Y-8433253D01*
X94497858Y-8297278D01*
X94392080Y-8191500D01*
X94497858Y-8085722D01*
X94588714Y-7949747D01*
X94651296Y-7798660D01*
X94683200Y-7638268D01*
X94683200Y-7474732D01*
X94651296Y-7314340D01*
X94588714Y-7163253D01*
X94497858Y-7027278D01*
X94392080Y-6921500D01*
X94497858Y-6815722D01*
X94588714Y-6679747D01*
X94651296Y-6528660D01*
X94683200Y-6368268D01*
X94683200Y-6204732D01*
X94651296Y-6044340D01*
X94588714Y-5893253D01*
X94497858Y-5757278D01*
X94392080Y-5651500D01*
X94497858Y-5545722D01*
X94588714Y-5409747D01*
X94651296Y-5258660D01*
X94683200Y-5098268D01*
X94683200Y-4934732D01*
X94651296Y-4774340D01*
X94588714Y-4623253D01*
X94509626Y-4504890D01*
X94582503Y-4442125D01*
X94704196Y-4286440D01*
X94793178Y-4110005D01*
X94836679Y-3966591D01*
X94731709Y-3810000D01*
X93916500Y-3810000D01*
X93916500Y-3830000D01*
X93789500Y-3830000D01*
X93789500Y-3810000D01*
X92974291Y-3810000D01*
X92869321Y-3966591D01*
X92912822Y-4110005D01*
X93001804Y-4286440D01*
X93123497Y-4442125D01*
X93196374Y-4504890D01*
X93117286Y-4623253D01*
X93054704Y-4774340D01*
X93034323Y-4876800D01*
X92828811Y-4876800D01*
X91478420Y-3526409D01*
X92869321Y-3526409D01*
X92974291Y-3683000D01*
X93789500Y-3683000D01*
X93789500Y-2867499D01*
X93916500Y-2867499D01*
X93916500Y-3683000D01*
X94731709Y-3683000D01*
X94836679Y-3526409D01*
X94793178Y-3382995D01*
X94704196Y-3206560D01*
X94582503Y-3050875D01*
X94432776Y-2921922D01*
X94260769Y-2824657D01*
X94073091Y-2762818D01*
X93916500Y-2867499D01*
X93789500Y-2867499D01*
X93632909Y-2762818D01*
X93445231Y-2824657D01*
X93273224Y-2921922D01*
X93123497Y-3050875D01*
X93001804Y-3206560D01*
X92912822Y-3382995D01*
X92869321Y-3526409D01*
X91478420Y-3526409D01*
X89667090Y-1715081D01*
X89652773Y-1697636D01*
X89583156Y-1640502D01*
X89503729Y-1598048D01*
X89417547Y-1571904D01*
X89350380Y-1565289D01*
X89350371Y-1565289D01*
X89327921Y-1563078D01*
X89305471Y-1565289D01*
X82335040Y-1565291D01*
X82312578Y-1563079D01*
X82222951Y-1571905D01*
X82136768Y-1598049D01*
X82057342Y-1640503D01*
X82005170Y-1683319D01*
X82005159Y-1683330D01*
X81987725Y-1697638D01*
X81973417Y-1715072D01*
X71563181Y-12125310D01*
X40267388Y-12125310D01*
X37548376Y-9406298D01*
X41339800Y-9406298D01*
X41339800Y-9643702D01*
X41386116Y-9876544D01*
X41476966Y-10095876D01*
X41608860Y-10293270D01*
X41776730Y-10461140D01*
X41974124Y-10593034D01*
X42193456Y-10683884D01*
X42426298Y-10730200D01*
X42663702Y-10730200D01*
X42896544Y-10683884D01*
X43115876Y-10593034D01*
X43313270Y-10461140D01*
X43481140Y-10293270D01*
X43613034Y-10095876D01*
X43703884Y-9876544D01*
X43750200Y-9643702D01*
X43750200Y-9406298D01*
X43728280Y-9296096D01*
X45300900Y-9296096D01*
X45300900Y-9753904D01*
X45390214Y-10202915D01*
X45565410Y-10625874D01*
X45819754Y-11006527D01*
X46143473Y-11330246D01*
X46524126Y-11584590D01*
X46947085Y-11759786D01*
X47396096Y-11849100D01*
X47853904Y-11849100D01*
X48302915Y-11759786D01*
X48725874Y-11584590D01*
X49106527Y-11330246D01*
X49430246Y-11006527D01*
X49684590Y-10625874D01*
X49859786Y-10202915D01*
X49949100Y-9753904D01*
X49949100Y-9406298D01*
X51499800Y-9406298D01*
X51499800Y-9643702D01*
X51546116Y-9876544D01*
X51636966Y-10095876D01*
X51768860Y-10293270D01*
X51936730Y-10461140D01*
X52134124Y-10593034D01*
X52353456Y-10683884D01*
X52586298Y-10730200D01*
X52823702Y-10730200D01*
X53056544Y-10683884D01*
X53275876Y-10593034D01*
X53473270Y-10461140D01*
X53641140Y-10293270D01*
X53773034Y-10095876D01*
X53863884Y-9876544D01*
X53910200Y-9643702D01*
X53910200Y-9406298D01*
X60389800Y-9406298D01*
X60389800Y-9643702D01*
X60436116Y-9876544D01*
X60526966Y-10095876D01*
X60658860Y-10293270D01*
X60826730Y-10461140D01*
X61024124Y-10593034D01*
X61243456Y-10683884D01*
X61476298Y-10730200D01*
X61713702Y-10730200D01*
X61946544Y-10683884D01*
X62165876Y-10593034D01*
X62363270Y-10461140D01*
X62531140Y-10293270D01*
X62663034Y-10095876D01*
X62753884Y-9876544D01*
X62800200Y-9643702D01*
X62800200Y-9406298D01*
X62778280Y-9296096D01*
X64350900Y-9296096D01*
X64350900Y-9753904D01*
X64440214Y-10202915D01*
X64615410Y-10625874D01*
X64869754Y-11006527D01*
X65193473Y-11330246D01*
X65574126Y-11584590D01*
X65997085Y-11759786D01*
X66446096Y-11849100D01*
X66903904Y-11849100D01*
X67352915Y-11759786D01*
X67775874Y-11584590D01*
X68156527Y-11330246D01*
X68480246Y-11006527D01*
X68734590Y-10625874D01*
X68909786Y-10202915D01*
X68999100Y-9753904D01*
X68999100Y-9406298D01*
X70549800Y-9406298D01*
X70549800Y-9643702D01*
X70596116Y-9876544D01*
X70686966Y-10095876D01*
X70818860Y-10293270D01*
X70986730Y-10461140D01*
X71184124Y-10593034D01*
X71403456Y-10683884D01*
X71636298Y-10730200D01*
X71873702Y-10730200D01*
X72106544Y-10683884D01*
X72325876Y-10593034D01*
X72523270Y-10461140D01*
X72691140Y-10293270D01*
X72823034Y-10095876D01*
X72913884Y-9876544D01*
X72960200Y-9643702D01*
X72960200Y-9406298D01*
X72913884Y-9173456D01*
X72823034Y-8954124D01*
X72691140Y-8756730D01*
X72523270Y-8588860D01*
X72325876Y-8456966D01*
X72106544Y-8366116D01*
X71873702Y-8319800D01*
X71636298Y-8319800D01*
X71403456Y-8366116D01*
X71184124Y-8456966D01*
X70986730Y-8588860D01*
X70818860Y-8756730D01*
X70686966Y-8954124D01*
X70596116Y-9173456D01*
X70549800Y-9406298D01*
X68999100Y-9406298D01*
X68999100Y-9296096D01*
X68909786Y-8847085D01*
X68734590Y-8424126D01*
X68480246Y-8043473D01*
X68156527Y-7719754D01*
X67775874Y-7465410D01*
X67352915Y-7290214D01*
X66903904Y-7200900D01*
X66446096Y-7200900D01*
X65997085Y-7290214D01*
X65574126Y-7465410D01*
X65193473Y-7719754D01*
X64869754Y-8043473D01*
X64615410Y-8424126D01*
X64440214Y-8847085D01*
X64350900Y-9296096D01*
X62778280Y-9296096D01*
X62753884Y-9173456D01*
X62663034Y-8954124D01*
X62531140Y-8756730D01*
X62363270Y-8588860D01*
X62165876Y-8456966D01*
X61946544Y-8366116D01*
X61713702Y-8319800D01*
X61476298Y-8319800D01*
X61243456Y-8366116D01*
X61024124Y-8456966D01*
X60826730Y-8588860D01*
X60658860Y-8756730D01*
X60526966Y-8954124D01*
X60436116Y-9173456D01*
X60389800Y-9406298D01*
X53910200Y-9406298D01*
X53863884Y-9173456D01*
X53773034Y-8954124D01*
X53641140Y-8756730D01*
X53473270Y-8588860D01*
X53275876Y-8456966D01*
X53056544Y-8366116D01*
X52823702Y-8319800D01*
X52586298Y-8319800D01*
X52353456Y-8366116D01*
X52134124Y-8456966D01*
X51936730Y-8588860D01*
X51768860Y-8756730D01*
X51636966Y-8954124D01*
X51546116Y-9173456D01*
X51499800Y-9406298D01*
X49949100Y-9406298D01*
X49949100Y-9296096D01*
X49859786Y-8847085D01*
X49684590Y-8424126D01*
X49430246Y-8043473D01*
X49106527Y-7719754D01*
X48725874Y-7465410D01*
X48302915Y-7290214D01*
X47853904Y-7200900D01*
X47396096Y-7200900D01*
X46947085Y-7290214D01*
X46524126Y-7465410D01*
X46143473Y-7719754D01*
X45819754Y-8043473D01*
X45565410Y-8424126D01*
X45390214Y-8847085D01*
X45300900Y-9296096D01*
X43728280Y-9296096D01*
X43703884Y-9173456D01*
X43613034Y-8954124D01*
X43481140Y-8756730D01*
X43313270Y-8588860D01*
X43115876Y-8456966D01*
X42896544Y-8366116D01*
X42663702Y-8319800D01*
X42426298Y-8319800D01*
X42193456Y-8366116D01*
X41974124Y-8456966D01*
X41776730Y-8588860D01*
X41608860Y-8756730D01*
X41476966Y-8954124D01*
X41386116Y-9173456D01*
X41339800Y-9406298D01*
X37548376Y-9406298D01*
X34983753Y-6841675D01*
X42359800Y-6841675D01*
X42359800Y-7128325D01*
X42415723Y-7409466D01*
X42525419Y-7674296D01*
X42684672Y-7912636D01*
X42887364Y-8115328D01*
X43125704Y-8274581D01*
X43390534Y-8384277D01*
X43671675Y-8440200D01*
X43958325Y-8440200D01*
X44239466Y-8384277D01*
X44504296Y-8274581D01*
X44742636Y-8115328D01*
X44945328Y-7912636D01*
X45104581Y-7674296D01*
X45214277Y-7409466D01*
X45270200Y-7128325D01*
X45270200Y-6841675D01*
X61409800Y-6841675D01*
X61409800Y-7128325D01*
X61465723Y-7409466D01*
X61575419Y-7674296D01*
X61734672Y-7912636D01*
X61937364Y-8115328D01*
X62175704Y-8274581D01*
X62440534Y-8384277D01*
X62721675Y-8440200D01*
X63008325Y-8440200D01*
X63289466Y-8384277D01*
X63554296Y-8274581D01*
X63792636Y-8115328D01*
X63995328Y-7912636D01*
X64154581Y-7674296D01*
X64264277Y-7409466D01*
X64320200Y-7128325D01*
X64320200Y-6841675D01*
X64264277Y-6560534D01*
X64154581Y-6295704D01*
X63995328Y-6057364D01*
X63792636Y-5854672D01*
X63554296Y-5695419D01*
X63289466Y-5585723D01*
X63008325Y-5529800D01*
X62721675Y-5529800D01*
X62440534Y-5585723D01*
X62175704Y-5695419D01*
X61937364Y-5854672D01*
X61734672Y-6057364D01*
X61575419Y-6295704D01*
X61465723Y-6560534D01*
X61409800Y-6841675D01*
X45270200Y-6841675D01*
X45214277Y-6560534D01*
X45104581Y-6295704D01*
X44945328Y-6057364D01*
X44742636Y-5854672D01*
X44504296Y-5695419D01*
X44239466Y-5585723D01*
X43958325Y-5529800D01*
X43671675Y-5529800D01*
X43390534Y-5585723D01*
X43125704Y-5695419D01*
X42887364Y-5854672D01*
X42684672Y-6057364D01*
X42525419Y-6295704D01*
X42415723Y-6560534D01*
X42359800Y-6841675D01*
X34983753Y-6841675D01*
X34673652Y-6531575D01*
X34659331Y-6514125D01*
X34589714Y-6456991D01*
X34510287Y-6414537D01*
X34424105Y-6388393D01*
X34356938Y-6381778D01*
X34356928Y-6381778D01*
X34334478Y-6379567D01*
X34312028Y-6381778D01*
X30797426Y-6381778D01*
X28717323Y-4301675D01*
X29659800Y-4301675D01*
X29659800Y-4588325D01*
X29715723Y-4869466D01*
X29825419Y-5134296D01*
X29984672Y-5372636D01*
X30187364Y-5575328D01*
X30425704Y-5734581D01*
X30690534Y-5844277D01*
X30971675Y-5900200D01*
X31258325Y-5900200D01*
X31539466Y-5844277D01*
X31804296Y-5734581D01*
X32042636Y-5575328D01*
X32245328Y-5372636D01*
X32404581Y-5134296D01*
X32514277Y-4869466D01*
X32570200Y-4588325D01*
X32570200Y-4301675D01*
X48709800Y-4301675D01*
X48709800Y-4588325D01*
X48765723Y-4869466D01*
X48875419Y-5134296D01*
X49034672Y-5372636D01*
X49237364Y-5575328D01*
X49475704Y-5734581D01*
X49740534Y-5844277D01*
X50021675Y-5900200D01*
X50308325Y-5900200D01*
X50589466Y-5844277D01*
X50854296Y-5734581D01*
X51092636Y-5575328D01*
X51295328Y-5372636D01*
X51454581Y-5134296D01*
X51564277Y-4869466D01*
X51620200Y-4588325D01*
X51620200Y-4301675D01*
X67759800Y-4301675D01*
X67759800Y-4588325D01*
X67815723Y-4869466D01*
X67925419Y-5134296D01*
X68084672Y-5372636D01*
X68287364Y-5575328D01*
X68525704Y-5734581D01*
X68790534Y-5844277D01*
X69071675Y-5900200D01*
X69358325Y-5900200D01*
X69639466Y-5844277D01*
X69904296Y-5734581D01*
X70142636Y-5575328D01*
X70345328Y-5372636D01*
X70504581Y-5134296D01*
X70614277Y-4869466D01*
X70670200Y-4588325D01*
X70670200Y-4301675D01*
X70614277Y-4020534D01*
X70504581Y-3755704D01*
X70345328Y-3517364D01*
X70142636Y-3314672D01*
X69904296Y-3155419D01*
X69639466Y-3045723D01*
X69358325Y-2989800D01*
X69071675Y-2989800D01*
X68790534Y-3045723D01*
X68525704Y-3155419D01*
X68287364Y-3314672D01*
X68084672Y-3517364D01*
X67925419Y-3755704D01*
X67815723Y-4020534D01*
X67759800Y-4301675D01*
X51620200Y-4301675D01*
X51564277Y-4020534D01*
X51454581Y-3755704D01*
X51295328Y-3517364D01*
X51092636Y-3314672D01*
X50854296Y-3155419D01*
X50589466Y-3045723D01*
X50308325Y-2989800D01*
X50021675Y-2989800D01*
X49740534Y-3045723D01*
X49475704Y-3155419D01*
X49237364Y-3314672D01*
X49034672Y-3517364D01*
X48875419Y-3755704D01*
X48765723Y-4020534D01*
X48709800Y-4301675D01*
X32570200Y-4301675D01*
X32514277Y-4020534D01*
X32404581Y-3755704D01*
X32245328Y-3517364D01*
X32042636Y-3314672D01*
X31804296Y-3155419D01*
X31698266Y-3111500D01*
X31868830Y-3111500D01*
X32101923Y-3065135D01*
X32321492Y-2974187D01*
X32519099Y-2842150D01*
X32687150Y-2674099D01*
X32819187Y-2476492D01*
X32910135Y-2256923D01*
X32956500Y-2023830D01*
X32956500Y-1786170D01*
X32910135Y-1553077D01*
X32819187Y-1333508D01*
X32687150Y-1135901D01*
X32519099Y-967850D01*
X32321492Y-835813D01*
X32101923Y-744865D01*
X31868830Y-698500D01*
X31631170Y-698500D01*
X31398077Y-744865D01*
X31178508Y-835813D01*
X30980901Y-967850D01*
X30812850Y-1135901D01*
X30680813Y-1333508D01*
X30589865Y-1553077D01*
X30543500Y-1786170D01*
X30543500Y-2023830D01*
X30589865Y-2256923D01*
X30680813Y-2476492D01*
X30812850Y-2674099D01*
X30980901Y-2842150D01*
X31178508Y-2974187D01*
X31216201Y-2989800D01*
X30971675Y-2989800D01*
X30690534Y-3045723D01*
X30425704Y-3155419D01*
X30187364Y-3314672D01*
X29984672Y-3517364D01*
X29825419Y-3755704D01*
X29715723Y-4020534D01*
X29659800Y-4301675D01*
X28717323Y-4301675D01*
X28426244Y-4010597D01*
X28411923Y-3993147D01*
X28342306Y-3936013D01*
X28262879Y-3893559D01*
X28176697Y-3867415D01*
X28109530Y-3860800D01*
X28109520Y-3860800D01*
X28087070Y-3858589D01*
X28064620Y-3860800D01*
X23390449Y-3860800D01*
X23367999Y-3858589D01*
X23345549Y-3860800D01*
X23345540Y-3860800D01*
X23278373Y-3867415D01*
X23192191Y-3893559D01*
X23112764Y-3936013D01*
X23043147Y-3993147D01*
X23028830Y-4010592D01*
X20384086Y-6655337D01*
X20366636Y-6669658D01*
X20309502Y-6739276D01*
X20267048Y-6818703D01*
X20240904Y-6904885D01*
X20234289Y-6972052D01*
X20234289Y-6972061D01*
X20232078Y-6994511D01*
X20234289Y-7016961D01*
X20234290Y-10869132D01*
X16412624Y-14690799D01*
X14750175Y-14690799D01*
X14727725Y-14688588D01*
X14705275Y-14690799D01*
X14705266Y-14690799D01*
X14638099Y-14697414D01*
X14551917Y-14723558D01*
X14527330Y-14736700D01*
X14472489Y-14766012D01*
X14428197Y-14802363D01*
X14402873Y-14823146D01*
X14388556Y-14840591D01*
X13662597Y-15566551D01*
X13645147Y-15580872D01*
X13588013Y-15650490D01*
X13545559Y-15729917D01*
X13519415Y-15816099D01*
X13512800Y-15883266D01*
X13512800Y-15883275D01*
X13510589Y-15905725D01*
X13512800Y-15928175D01*
X13512800Y-16028472D01*
X13398508Y-16075813D01*
X13200901Y-16207850D01*
X13032850Y-16375901D01*
X12900813Y-16573508D01*
X12809865Y-16793077D01*
X12763500Y-17026170D01*
X12636500Y-17026170D01*
X12590135Y-16793077D01*
X12499187Y-16573508D01*
X12367150Y-16375901D01*
X12199099Y-16207850D01*
X12001492Y-16075813D01*
X11781923Y-15984865D01*
X11548830Y-15938500D01*
X11311170Y-15938500D01*
X11078077Y-15984865D01*
X10858508Y-16075813D01*
X10660901Y-16207850D01*
X10492850Y-16375901D01*
X10360813Y-16573508D01*
X10269865Y-16793077D01*
X10223500Y-17026170D01*
X10096500Y-17026170D01*
X10050135Y-16793077D01*
X9959187Y-16573508D01*
X9827150Y-16375901D01*
X9659099Y-16207850D01*
X9461492Y-16075813D01*
X9241923Y-15984865D01*
X9008830Y-15938500D01*
X8771170Y-15938500D01*
X8538077Y-15984865D01*
X8318508Y-16075813D01*
X8120901Y-16207850D01*
X7952850Y-16375901D01*
X7820813Y-16573508D01*
X7729865Y-16793077D01*
X7713567Y-16875011D01*
X7712507Y-16864909D01*
X7631684Y-16604480D01*
X7511492Y-16379616D01*
X7287554Y-16297248D01*
X6439803Y-17145000D01*
X6260197Y-17145000D01*
X5412446Y-16297248D01*
X5188508Y-16379616D01*
X5061506Y-16620919D01*
X4986339Y-16874542D01*
X4970135Y-16793077D01*
X4879187Y-16573508D01*
X4747150Y-16375901D01*
X4579099Y-16207850D01*
X4578495Y-16207446D01*
X5502248Y-16207446D01*
X6350000Y-17055197D01*
X7197752Y-16207446D01*
X7115384Y-15983508D01*
X6874081Y-15856506D01*
X6612639Y-15779022D01*
X6341103Y-15754030D01*
X6069909Y-15782493D01*
X5809480Y-15863316D01*
X5584616Y-15983508D01*
X5502248Y-16207446D01*
X4578495Y-16207446D01*
X4381492Y-16075813D01*
X4161923Y-15984865D01*
X3928830Y-15938500D01*
X3691170Y-15938500D01*
X3458077Y-15984865D01*
X3238508Y-16075813D01*
X3040901Y-16207850D01*
X2872850Y-16375901D01*
X2740813Y-16573508D01*
X2649865Y-16793077D01*
X2603500Y-17026170D01*
X355200Y-17026170D01*
X355200Y-9406298D01*
X3239800Y-9406298D01*
X3239800Y-9643702D01*
X3286116Y-9876544D01*
X3376966Y-10095876D01*
X3508860Y-10293270D01*
X3676730Y-10461140D01*
X3874124Y-10593034D01*
X4093456Y-10683884D01*
X4326298Y-10730200D01*
X4563702Y-10730200D01*
X4796544Y-10683884D01*
X5015876Y-10593034D01*
X5213270Y-10461140D01*
X5381140Y-10293270D01*
X5513034Y-10095876D01*
X5603884Y-9876544D01*
X5650200Y-9643702D01*
X5650200Y-9406298D01*
X5628280Y-9296096D01*
X7200900Y-9296096D01*
X7200900Y-9753904D01*
X7290214Y-10202915D01*
X7465410Y-10625874D01*
X7719754Y-11006527D01*
X8043473Y-11330246D01*
X8424126Y-11584590D01*
X8847085Y-11759786D01*
X9296096Y-11849100D01*
X9753904Y-11849100D01*
X10202915Y-11759786D01*
X10625874Y-11584590D01*
X11006527Y-11330246D01*
X11330246Y-11006527D01*
X11584590Y-10625874D01*
X11759786Y-10202915D01*
X11849100Y-9753904D01*
X11849100Y-9406298D01*
X13399800Y-9406298D01*
X13399800Y-9643702D01*
X13446116Y-9876544D01*
X13536966Y-10095876D01*
X13668860Y-10293270D01*
X13836730Y-10461140D01*
X14034124Y-10593034D01*
X14253456Y-10683884D01*
X14486298Y-10730200D01*
X14723702Y-10730200D01*
X14956544Y-10683884D01*
X15175876Y-10593034D01*
X15373270Y-10461140D01*
X15541140Y-10293270D01*
X15673034Y-10095876D01*
X15763884Y-9876544D01*
X15810200Y-9643702D01*
X15810200Y-9406298D01*
X15763884Y-9173456D01*
X15673034Y-8954124D01*
X15541140Y-8756730D01*
X15373270Y-8588860D01*
X15175876Y-8456966D01*
X14956544Y-8366116D01*
X14723702Y-8319800D01*
X14486298Y-8319800D01*
X14253456Y-8366116D01*
X14034124Y-8456966D01*
X13836730Y-8588860D01*
X13668860Y-8756730D01*
X13536966Y-8954124D01*
X13446116Y-9173456D01*
X13399800Y-9406298D01*
X11849100Y-9406298D01*
X11849100Y-9296096D01*
X11759786Y-8847085D01*
X11584590Y-8424126D01*
X11330246Y-8043473D01*
X11006527Y-7719754D01*
X10625874Y-7465410D01*
X10202915Y-7290214D01*
X9753904Y-7200900D01*
X9296096Y-7200900D01*
X8847085Y-7290214D01*
X8424126Y-7465410D01*
X8043473Y-7719754D01*
X7719754Y-8043473D01*
X7465410Y-8424126D01*
X7290214Y-8847085D01*
X7200900Y-9296096D01*
X5628280Y-9296096D01*
X5603884Y-9173456D01*
X5513034Y-8954124D01*
X5381140Y-8756730D01*
X5213270Y-8588860D01*
X5015876Y-8456966D01*
X4796544Y-8366116D01*
X4563702Y-8319800D01*
X4326298Y-8319800D01*
X4093456Y-8366116D01*
X3874124Y-8456966D01*
X3676730Y-8588860D01*
X3508860Y-8756730D01*
X3376966Y-8954124D01*
X3286116Y-9173456D01*
X3239800Y-9406298D01*
X355200Y-9406298D01*
X355200Y-6841675D01*
X4259800Y-6841675D01*
X4259800Y-7128325D01*
X4315723Y-7409466D01*
X4425419Y-7674296D01*
X4584672Y-7912636D01*
X4787364Y-8115328D01*
X5025704Y-8274581D01*
X5290534Y-8384277D01*
X5571675Y-8440200D01*
X5858325Y-8440200D01*
X6139466Y-8384277D01*
X6404296Y-8274581D01*
X6642636Y-8115328D01*
X6845328Y-7912636D01*
X7004581Y-7674296D01*
X7114277Y-7409466D01*
X7170200Y-7128325D01*
X7170200Y-6841675D01*
X7114277Y-6560534D01*
X7004581Y-6295704D01*
X6845328Y-6057364D01*
X6642636Y-5854672D01*
X6404296Y-5695419D01*
X6139466Y-5585723D01*
X5858325Y-5529800D01*
X5571675Y-5529800D01*
X5290534Y-5585723D01*
X5025704Y-5695419D01*
X4787364Y-5854672D01*
X4584672Y-6057364D01*
X4425419Y-6295704D01*
X4315723Y-6560534D01*
X4259800Y-6841675D01*
X355200Y-6841675D01*
X355200Y-1466850D01*
X2601903Y-1466850D01*
X2601903Y-2343150D01*
X2616697Y-2493359D01*
X2660512Y-2637796D01*
X2731662Y-2770910D01*
X2827415Y-2887585D01*
X2944090Y-2983338D01*
X3077204Y-3054488D01*
X3221641Y-3098303D01*
X3371850Y-3113097D01*
X4248150Y-3113097D01*
X4398359Y-3098303D01*
X4542796Y-3054488D01*
X4675910Y-2983338D01*
X4792585Y-2887585D01*
X4888338Y-2770910D01*
X4959488Y-2637796D01*
X5003303Y-2493359D01*
X5018097Y-2343150D01*
X5018097Y-1786170D01*
X5143500Y-1786170D01*
X5143500Y-2023830D01*
X5189865Y-2256923D01*
X5280813Y-2476492D01*
X5412850Y-2674099D01*
X5580901Y-2842150D01*
X5778508Y-2974187D01*
X5998077Y-3065135D01*
X6231170Y-3111500D01*
X6468830Y-3111500D01*
X6701923Y-3065135D01*
X6921492Y-2974187D01*
X7118494Y-2842554D01*
X8042248Y-2842554D01*
X8124616Y-3066492D01*
X8365919Y-3193494D01*
X8627361Y-3270978D01*
X8898897Y-3295970D01*
X9170091Y-3267507D01*
X9430520Y-3186684D01*
X9655384Y-3066492D01*
X9737752Y-2842554D01*
X10582248Y-2842554D01*
X10664616Y-3066492D01*
X10905919Y-3193494D01*
X11167361Y-3270978D01*
X11198472Y-3273841D01*
X11137364Y-3314672D01*
X10934672Y-3517364D01*
X10775419Y-3755704D01*
X10665723Y-4020534D01*
X10609800Y-4301675D01*
X10609800Y-4588325D01*
X10665723Y-4869466D01*
X10775419Y-5134296D01*
X10934672Y-5372636D01*
X11137364Y-5575328D01*
X11375704Y-5734581D01*
X11640534Y-5844277D01*
X11921675Y-5900200D01*
X12208325Y-5900200D01*
X12489466Y-5844277D01*
X12754296Y-5734581D01*
X12992636Y-5575328D01*
X13195328Y-5372636D01*
X13354581Y-5134296D01*
X13464277Y-4869466D01*
X13520200Y-4588325D01*
X13520200Y-4301675D01*
X13464277Y-4020534D01*
X13354581Y-3755704D01*
X13195328Y-3517364D01*
X12992636Y-3314672D01*
X12754296Y-3155419D01*
X12489466Y-3045723D01*
X12222552Y-2992630D01*
X12277752Y-2842554D01*
X11430000Y-1994803D01*
X10582248Y-2842554D01*
X9737752Y-2842554D01*
X8890000Y-1994803D01*
X8042248Y-2842554D01*
X7118494Y-2842554D01*
X7119099Y-2842150D01*
X7287150Y-2674099D01*
X7419187Y-2476492D01*
X7510135Y-2256923D01*
X7526433Y-2174989D01*
X7527493Y-2185091D01*
X7608316Y-2445520D01*
X7728508Y-2670384D01*
X7952446Y-2752752D01*
X8800197Y-1905000D01*
X8979803Y-1905000D01*
X9827554Y-2752752D01*
X10051492Y-2670384D01*
X10159162Y-2465812D01*
X10268508Y-2670384D01*
X10492446Y-2752752D01*
X11340197Y-1905000D01*
X11519803Y-1905000D01*
X12367554Y-2752752D01*
X12591492Y-2670384D01*
X12718494Y-2429081D01*
X12793661Y-2175458D01*
X12809865Y-2256923D01*
X12900813Y-2476492D01*
X13032850Y-2674099D01*
X13200901Y-2842150D01*
X13398508Y-2974187D01*
X13618077Y-3065135D01*
X13851170Y-3111500D01*
X14088830Y-3111500D01*
X14321923Y-3065135D01*
X14541492Y-2974187D01*
X14739099Y-2842150D01*
X14907150Y-2674099D01*
X15039187Y-2476492D01*
X15130135Y-2256923D01*
X15176500Y-2023830D01*
X15176500Y-1786170D01*
X15303500Y-1786170D01*
X15303500Y-2023830D01*
X15349865Y-2256923D01*
X15440813Y-2476492D01*
X15572850Y-2674099D01*
X15740901Y-2842150D01*
X15938508Y-2974187D01*
X16158077Y-3065135D01*
X16391170Y-3111500D01*
X16628830Y-3111500D01*
X16861923Y-3065135D01*
X17081492Y-2974187D01*
X17279099Y-2842150D01*
X17447150Y-2674099D01*
X17579187Y-2476492D01*
X17670135Y-2256923D01*
X17716500Y-2023830D01*
X17716500Y-1786170D01*
X17843500Y-1786170D01*
X17843500Y-2023830D01*
X17889865Y-2256923D01*
X17980813Y-2476492D01*
X18112850Y-2674099D01*
X18280901Y-2842150D01*
X18478508Y-2974187D01*
X18698077Y-3065135D01*
X18931170Y-3111500D01*
X19168830Y-3111500D01*
X19401923Y-3065135D01*
X19621492Y-2974187D01*
X19819099Y-2842150D01*
X19987150Y-2674099D01*
X20119187Y-2476492D01*
X20210135Y-2256923D01*
X20256500Y-2023830D01*
X20256500Y-1786170D01*
X20383500Y-1786170D01*
X20383500Y-2023830D01*
X20429865Y-2256923D01*
X20520813Y-2476492D01*
X20652850Y-2674099D01*
X20820901Y-2842150D01*
X21018508Y-2974187D01*
X21238077Y-3065135D01*
X21471170Y-3111500D01*
X21708830Y-3111500D01*
X21941923Y-3065135D01*
X22161492Y-2974187D01*
X22359099Y-2842150D01*
X22527150Y-2674099D01*
X22659187Y-2476492D01*
X22750135Y-2256923D01*
X22796500Y-2023830D01*
X22796500Y-1786170D01*
X22923500Y-1786170D01*
X22923500Y-2023830D01*
X22969865Y-2256923D01*
X23060813Y-2476492D01*
X23192850Y-2674099D01*
X23360901Y-2842150D01*
X23558508Y-2974187D01*
X23778077Y-3065135D01*
X24011170Y-3111500D01*
X24248830Y-3111500D01*
X24481923Y-3065135D01*
X24701492Y-2974187D01*
X24899099Y-2842150D01*
X25067150Y-2674099D01*
X25199187Y-2476492D01*
X25290135Y-2256923D01*
X25336500Y-2023830D01*
X25336500Y-1786170D01*
X25463500Y-1786170D01*
X25463500Y-2023830D01*
X25509865Y-2256923D01*
X25600813Y-2476492D01*
X25732850Y-2674099D01*
X25900901Y-2842150D01*
X26098508Y-2974187D01*
X26318077Y-3065135D01*
X26551170Y-3111500D01*
X26788830Y-3111500D01*
X27021923Y-3065135D01*
X27241492Y-2974187D01*
X27439099Y-2842150D01*
X27607150Y-2674099D01*
X27739187Y-2476492D01*
X27830135Y-2256923D01*
X27876500Y-2023830D01*
X27876500Y-1786170D01*
X28003500Y-1786170D01*
X28003500Y-2023830D01*
X28049865Y-2256923D01*
X28140813Y-2476492D01*
X28272850Y-2674099D01*
X28440901Y-2842150D01*
X28638508Y-2974187D01*
X28858077Y-3065135D01*
X29091170Y-3111500D01*
X29328830Y-3111500D01*
X29561923Y-3065135D01*
X29781492Y-2974187D01*
X29979099Y-2842150D01*
X30147150Y-2674099D01*
X30279187Y-2476492D01*
X30370135Y-2256923D01*
X30416500Y-2023830D01*
X30416500Y-1786170D01*
X30370135Y-1553077D01*
X30279187Y-1333508D01*
X30147150Y-1135901D01*
X29979099Y-967850D01*
X29781492Y-835813D01*
X29561923Y-744865D01*
X29328830Y-698500D01*
X29091170Y-698500D01*
X28858077Y-744865D01*
X28638508Y-835813D01*
X28440901Y-967850D01*
X28272850Y-1135901D01*
X28140813Y-1333508D01*
X28049865Y-1553077D01*
X28003500Y-1786170D01*
X27876500Y-1786170D01*
X27830135Y-1553077D01*
X27739187Y-1333508D01*
X27607150Y-1135901D01*
X27439099Y-967850D01*
X27241492Y-835813D01*
X27021923Y-744865D01*
X26788830Y-698500D01*
X26551170Y-698500D01*
X26318077Y-744865D01*
X26098508Y-835813D01*
X25900901Y-967850D01*
X25732850Y-1135901D01*
X25600813Y-1333508D01*
X25509865Y-1553077D01*
X25463500Y-1786170D01*
X25336500Y-1786170D01*
X25290135Y-1553077D01*
X25199187Y-1333508D01*
X25067150Y-1135901D01*
X24899099Y-967850D01*
X24701492Y-835813D01*
X24481923Y-744865D01*
X24248830Y-698500D01*
X24011170Y-698500D01*
X23778077Y-744865D01*
X23558508Y-835813D01*
X23360901Y-967850D01*
X23192850Y-1135901D01*
X23060813Y-1333508D01*
X22969865Y-1553077D01*
X22923500Y-1786170D01*
X22796500Y-1786170D01*
X22750135Y-1553077D01*
X22659187Y-1333508D01*
X22527150Y-1135901D01*
X22359099Y-967850D01*
X22161492Y-835813D01*
X21941923Y-744865D01*
X21708830Y-698500D01*
X21471170Y-698500D01*
X21238077Y-744865D01*
X21018508Y-835813D01*
X20820901Y-967850D01*
X20652850Y-1135901D01*
X20520813Y-1333508D01*
X20429865Y-1553077D01*
X20383500Y-1786170D01*
X20256500Y-1786170D01*
X20210135Y-1553077D01*
X20119187Y-1333508D01*
X19987150Y-1135901D01*
X19819099Y-967850D01*
X19621492Y-835813D01*
X19401923Y-744865D01*
X19168830Y-698500D01*
X18931170Y-698500D01*
X18698077Y-744865D01*
X18478508Y-835813D01*
X18280901Y-967850D01*
X18112850Y-1135901D01*
X17980813Y-1333508D01*
X17889865Y-1553077D01*
X17843500Y-1786170D01*
X17716500Y-1786170D01*
X17670135Y-1553077D01*
X17579187Y-1333508D01*
X17447150Y-1135901D01*
X17279099Y-967850D01*
X17081492Y-835813D01*
X16861923Y-744865D01*
X16628830Y-698500D01*
X16391170Y-698500D01*
X16158077Y-744865D01*
X15938508Y-835813D01*
X15740901Y-967850D01*
X15572850Y-1135901D01*
X15440813Y-1333508D01*
X15349865Y-1553077D01*
X15303500Y-1786170D01*
X15176500Y-1786170D01*
X15130135Y-1553077D01*
X15039187Y-1333508D01*
X14907150Y-1135901D01*
X14739099Y-967850D01*
X14541492Y-835813D01*
X14321923Y-744865D01*
X14088830Y-698500D01*
X13851170Y-698500D01*
X13618077Y-744865D01*
X13398508Y-835813D01*
X13200901Y-967850D01*
X13032850Y-1135901D01*
X12900813Y-1333508D01*
X12809865Y-1553077D01*
X12793567Y-1635011D01*
X12792507Y-1624909D01*
X12711684Y-1364480D01*
X12591492Y-1139616D01*
X12367554Y-1057248D01*
X11519803Y-1905000D01*
X11340197Y-1905000D01*
X10492446Y-1057248D01*
X10268508Y-1139616D01*
X10160838Y-1344188D01*
X10051492Y-1139616D01*
X9827554Y-1057248D01*
X8979803Y-1905000D01*
X8800197Y-1905000D01*
X7952446Y-1057248D01*
X7728508Y-1139616D01*
X7601506Y-1380919D01*
X7526339Y-1634542D01*
X7510135Y-1553077D01*
X7419187Y-1333508D01*
X7287150Y-1135901D01*
X7119099Y-967850D01*
X7118495Y-967446D01*
X8042248Y-967446D01*
X8890000Y-1815197D01*
X9737752Y-967446D01*
X10582248Y-967446D01*
X11430000Y-1815197D01*
X12277752Y-967446D01*
X12195384Y-743508D01*
X11954081Y-616506D01*
X11692639Y-539022D01*
X11421103Y-514030D01*
X11149909Y-542493D01*
X10889480Y-623316D01*
X10664616Y-743508D01*
X10582248Y-967446D01*
X9737752Y-967446D01*
X9655384Y-743508D01*
X9414081Y-616506D01*
X9152639Y-539022D01*
X8881103Y-514030D01*
X8609909Y-542493D01*
X8349480Y-623316D01*
X8124616Y-743508D01*
X8042248Y-967446D01*
X7118495Y-967446D01*
X6921492Y-835813D01*
X6701923Y-744865D01*
X6468830Y-698500D01*
X6231170Y-698500D01*
X5998077Y-744865D01*
X5778508Y-835813D01*
X5580901Y-967850D01*
X5412850Y-1135901D01*
X5280813Y-1333508D01*
X5189865Y-1553077D01*
X5143500Y-1786170D01*
X5018097Y-1786170D01*
X5018097Y-1466850D01*
X5003303Y-1316641D01*
X4959488Y-1172204D01*
X4888338Y-1039090D01*
X4792585Y-922415D01*
X4675910Y-826662D01*
X4542796Y-755512D01*
X4398359Y-711697D01*
X4248150Y-696903D01*
X3371850Y-696903D01*
X3221641Y-711697D01*
X3077204Y-755512D01*
X2944090Y-826662D01*
X2827415Y-922415D01*
X2731662Y-1039090D01*
X2660512Y-1172204D01*
X2616697Y-1316641D01*
X2601903Y-1466850D01*
X355200Y-1466850D01*
X355200Y-355200D01*
X94894801Y-355200D01*
X94894800Y-18694800D01*
G37*
%TD.AperFunction*%
D14*
X93022800Y-11448268D02*
X93054704Y-11608660D01*
X93117286Y-11759747D01*
X93208142Y-11895722D01*
X93313920Y-12001500D01*
X93208142Y-12107278D01*
X93117286Y-12243253D01*
X93054704Y-12394340D01*
X93022800Y-12554732D01*
X93022800Y-12718268D01*
X93030336Y-12756153D01*
X89549628Y-16236863D01*
X87989612Y-16236863D01*
X87992018Y-16236626D01*
X88078200Y-16210482D01*
X88157627Y-16168028D01*
X88227244Y-16110894D01*
X88241565Y-16093444D01*
X93011309Y-11323701D01*
X93022800Y-11323701D01*
X93022800Y-11448268D01*
%TA.AperFunction,Conductor*%
D20*
G36*
X93022800Y-11448268D02*
G01*
X93054704Y-11608660D01*
X93117286Y-11759747D01*
X93208142Y-11895722D01*
X93313920Y-12001500D01*
X93208142Y-12107278D01*
X93117286Y-12243253D01*
X93054704Y-12394340D01*
X93022800Y-12554732D01*
X93022800Y-12718268D01*
X93030336Y-12756153D01*
X89549628Y-16236863D01*
X87989612Y-16236863D01*
X87992018Y-16236626D01*
X88078200Y-16210482D01*
X88157627Y-16168028D01*
X88227244Y-16110894D01*
X88241565Y-16093444D01*
X93011309Y-11323701D01*
X93022800Y-11323701D01*
X93022800Y-11448268D01*
G37*
%TD.AperFunction*%
D14*
X35209512Y-16093455D02*
X35223824Y-16110894D01*
X35241263Y-16125206D01*
X35241269Y-16125212D01*
X35293441Y-16168028D01*
X35372867Y-16210482D01*
X35439113Y-16230578D01*
X35459050Y-16236626D01*
X35461456Y-16236863D01*
X35221228Y-16236863D01*
X33818494Y-14834130D01*
X33804173Y-14816680D01*
X33734556Y-14759546D01*
X33655129Y-14717092D01*
X33568947Y-14690948D01*
X33566549Y-14690712D01*
X33806771Y-14690712D01*
X35209512Y-16093455D01*
%TA.AperFunction,Conductor*%
D20*
G36*
X35209512Y-16093455D02*
G01*
X35223824Y-16110894D01*
X35241263Y-16125206D01*
X35241269Y-16125212D01*
X35293441Y-16168028D01*
X35372867Y-16210482D01*
X35439113Y-16230578D01*
X35459050Y-16236626D01*
X35461456Y-16236863D01*
X35221228Y-16236863D01*
X33818494Y-14834130D01*
X33804173Y-14816680D01*
X33734556Y-14759546D01*
X33655129Y-14717092D01*
X33568947Y-14690948D01*
X33566549Y-14690712D01*
X33806771Y-14690712D01*
X35209512Y-16093455D01*
G37*
%TD.AperFunction*%
D14*
X35857612Y-14805995D02*
X35937038Y-14848449D01*
X35957097Y-14854534D01*
X36023221Y-14874593D01*
X36025627Y-14874830D01*
X35926112Y-14874830D01*
X35855743Y-14804461D01*
X35857612Y-14805995D01*
%TA.AperFunction,Conductor*%
D20*
G36*
X35857612Y-14805995D02*
G01*
X35937038Y-14848449D01*
X35957097Y-14854534D01*
X36023221Y-14874593D01*
X36025627Y-14874830D01*
X35926112Y-14874830D01*
X35855743Y-14804461D01*
X35857612Y-14805995D01*
G37*
%TD.AperFunction*%
D14*
X87419160Y-14874830D02*
X87319643Y-14874830D01*
X87322049Y-14874593D01*
X87408231Y-14848449D01*
X87487658Y-14805995D01*
X87489537Y-14804453D01*
X87419160Y-14874830D01*
%TA.AperFunction,Conductor*%
D20*
G36*
X87419160Y-14874830D02*
G01*
X87319643Y-14874830D01*
X87322049Y-14874593D01*
X87408231Y-14848449D01*
X87487658Y-14805995D01*
X87489537Y-14804453D01*
X87419160Y-14874830D01*
G37*
%TD.AperFunction*%
D14*
X92006408Y-8635418D02*
X92020726Y-8652864D01*
X92090343Y-8709998D01*
X92169770Y-8752452D01*
X92255952Y-8778596D01*
X92323119Y-8785211D01*
X92323129Y-8785211D01*
X92345579Y-8787422D01*
X92368029Y-8785211D01*
X93022800Y-8785211D01*
X93022800Y-8908268D01*
X93054704Y-9068660D01*
X93117286Y-9219747D01*
X93208142Y-9355722D01*
X93313920Y-9461500D01*
X93208142Y-9567278D01*
X93117286Y-9703253D01*
X93054704Y-9854340D01*
X93046954Y-9893300D01*
X92612516Y-9893300D01*
X92590066Y-9891089D01*
X92567616Y-9893300D01*
X92567607Y-9893300D01*
X92500440Y-9899915D01*
X92414258Y-9926059D01*
X92377284Y-9945822D01*
X92334830Y-9968513D01*
X92282659Y-10011330D01*
X92265214Y-10025647D01*
X92250897Y-10043092D01*
X89426469Y-12867521D01*
X89428009Y-12865644D01*
X89470463Y-12786218D01*
X89478926Y-12758319D01*
X89496607Y-12700035D01*
X89503222Y-12632868D01*
X89503222Y-12632858D01*
X89505433Y-12610408D01*
X89503222Y-12587958D01*
X89503222Y-9406298D01*
X89599800Y-9406298D01*
X89599800Y-9643702D01*
X89646116Y-9876544D01*
X89736966Y-10095876D01*
X89868860Y-10293270D01*
X90036730Y-10461140D01*
X90234124Y-10593034D01*
X90453456Y-10683884D01*
X90686298Y-10730200D01*
X90923702Y-10730200D01*
X91156544Y-10683884D01*
X91375876Y-10593034D01*
X91573270Y-10461140D01*
X91741140Y-10293270D01*
X91873034Y-10095876D01*
X91963884Y-9876544D01*
X92010200Y-9643702D01*
X92010200Y-9406298D01*
X91963884Y-9173456D01*
X91873034Y-8954124D01*
X91741140Y-8756730D01*
X91573270Y-8588860D01*
X91375876Y-8456966D01*
X91156544Y-8366116D01*
X90923702Y-8319800D01*
X90686298Y-8319800D01*
X90453456Y-8366116D01*
X90234124Y-8456966D01*
X90036730Y-8588860D01*
X89868860Y-8756730D01*
X89736966Y-8954124D01*
X89646116Y-9173456D01*
X89599800Y-9406298D01*
X89503222Y-9406298D01*
X89503222Y-8933357D01*
X90305389Y-8131191D01*
X91502182Y-8131191D01*
X92006408Y-8635418D01*
%TA.AperFunction,Conductor*%
D20*
G36*
X92006408Y-8635418D02*
G01*
X92020726Y-8652864D01*
X92090343Y-8709998D01*
X92169770Y-8752452D01*
X92255952Y-8778596D01*
X92323119Y-8785211D01*
X92323129Y-8785211D01*
X92345579Y-8787422D01*
X92368029Y-8785211D01*
X93022800Y-8785211D01*
X93022800Y-8908268D01*
X93054704Y-9068660D01*
X93117286Y-9219747D01*
X93208142Y-9355722D01*
X93313920Y-9461500D01*
X93208142Y-9567278D01*
X93117286Y-9703253D01*
X93054704Y-9854340D01*
X93046954Y-9893300D01*
X92612516Y-9893300D01*
X92590066Y-9891089D01*
X92567616Y-9893300D01*
X92567607Y-9893300D01*
X92500440Y-9899915D01*
X92414258Y-9926059D01*
X92377284Y-9945822D01*
X92334830Y-9968513D01*
X92282659Y-10011330D01*
X92265214Y-10025647D01*
X92250897Y-10043092D01*
X89426469Y-12867521D01*
X89428009Y-12865644D01*
X89470463Y-12786218D01*
X89478926Y-12758319D01*
X89496607Y-12700035D01*
X89503222Y-12632868D01*
X89503222Y-12632858D01*
X89505433Y-12610408D01*
X89503222Y-12587958D01*
X89503222Y-9406298D01*
X89599800Y-9406298D01*
X89599800Y-9643702D01*
X89646116Y-9876544D01*
X89736966Y-10095876D01*
X89868860Y-10293270D01*
X90036730Y-10461140D01*
X90234124Y-10593034D01*
X90453456Y-10683884D01*
X90686298Y-10730200D01*
X90923702Y-10730200D01*
X91156544Y-10683884D01*
X91375876Y-10593034D01*
X91573270Y-10461140D01*
X91741140Y-10293270D01*
X91873034Y-10095876D01*
X91963884Y-9876544D01*
X92010200Y-9643702D01*
X92010200Y-9406298D01*
X91963884Y-9173456D01*
X91873034Y-8954124D01*
X91741140Y-8756730D01*
X91573270Y-8588860D01*
X91375876Y-8456966D01*
X91156544Y-8366116D01*
X90923702Y-8319800D01*
X90686298Y-8319800D01*
X90453456Y-8366116D01*
X90234124Y-8456966D01*
X90036730Y-8588860D01*
X89868860Y-8756730D01*
X89736966Y-8954124D01*
X89646116Y-9173456D01*
X89599800Y-9406298D01*
X89503222Y-9406298D01*
X89503222Y-8933357D01*
X90305389Y-8131191D01*
X91502182Y-8131191D01*
X92006408Y-8635418D01*
G37*
%TD.AperFunction*%
%TD*%
M02*
