%TF.GenerationSoftware,KiCad,Pcbnew,5.99.0+really5.1.10+dfsg1-1*%
%TF.CreationDate,2021-05-25T02:09:24-04:00*%
%TF.ProjectId,5x1,3578312e-6b69-4636-9164-5f7063625858,rev?*%
%TF.SameCoordinates,Original*%
%TF.FileFunction,Soldermask,Bot*%
%TF.FilePolarity,Negative*%
%FSLAX46Y46*%
G04 Gerber Fmt 4.6, Leading zero omitted, Abs format (unit mm)*
G04 Created by KiCad (PCBNEW 5.99.0+really5.1.10+dfsg1-1) date 2021-05-25 02:09:24*
%MOMM*%
%LPD*%
G01*
G04 APERTURE LIST*
%ADD10O,1.000000X1.000000*%
%ADD11C,2.250000*%
%ADD12C,3.987800*%
%ADD13C,1.750000*%
%ADD14C,1.752600*%
G04 APERTURE END LIST*
D10*
%TO.C,J1*%
X93853000Y-3746500D03*
X93853000Y-5016500D03*
X93853000Y-6286500D03*
X93853000Y-7556500D03*
X93853000Y-8826500D03*
X93853000Y-10096500D03*
X93853000Y-11366500D03*
X93853000Y-12636500D03*
X93853000Y-13906500D03*
G36*
G01*
X94353000Y-14926500D02*
X94353000Y-15426500D01*
G75*
G02*
X94103000Y-15676500I-250000J0D01*
G01*
X93603000Y-15676500D01*
G75*
G02*
X93353000Y-15426500I0J250000D01*
G01*
X93353000Y-14926500D01*
G75*
G02*
X93603000Y-14676500I250000J0D01*
G01*
X94103000Y-14676500D01*
G75*
G02*
X94353000Y-14926500I0J-250000D01*
G01*
G37*
%TD*%
D11*
%TO.C,MX_3*%
X69215000Y-4445000D03*
D12*
X66675000Y-9525000D03*
D11*
X62865000Y-6985000D03*
D13*
X61595000Y-9525000D03*
X71755000Y-9525000D03*
%TD*%
D11*
%TO.C,MX_2*%
X50165000Y-4445000D03*
D12*
X47625000Y-9525000D03*
D11*
X43815000Y-6985000D03*
D13*
X42545000Y-9525000D03*
X52705000Y-9525000D03*
%TD*%
D11*
%TO.C,MX_0*%
X12065000Y-4445000D03*
D12*
X9525000Y-9525000D03*
D11*
X5715000Y-6985000D03*
D13*
X4445000Y-9525000D03*
X14605000Y-9525000D03*
%TD*%
D11*
%TO.C,MX_1*%
X31115000Y-4445000D03*
D12*
X28575000Y-9525000D03*
D11*
X24765000Y-6985000D03*
D13*
X23495000Y-9525000D03*
X33655000Y-9525000D03*
%TD*%
D11*
%TO.C,MX_4*%
X88265000Y-4445000D03*
D12*
X85725000Y-9525000D03*
D11*
X81915000Y-6985000D03*
D13*
X80645000Y-9525000D03*
X90805000Y-9525000D03*
%TD*%
D14*
%TO.C,U1*%
X3810000Y-17145000D03*
X31750000Y-1905000D03*
X6350000Y-17145000D03*
X8890000Y-17145000D03*
X11430000Y-17145000D03*
X13970000Y-17145000D03*
X16510000Y-17145000D03*
X19050000Y-17145000D03*
X21590000Y-17145000D03*
X24130000Y-17145000D03*
X26670000Y-17145000D03*
X29210000Y-17145000D03*
X31750000Y-17145000D03*
X29210000Y-1905000D03*
X26670000Y-1905000D03*
X24130000Y-1905000D03*
X21590000Y-1905000D03*
X19050000Y-1905000D03*
X16510000Y-1905000D03*
X13970000Y-1905000D03*
X11430000Y-1905000D03*
X8890000Y-1905000D03*
X6350000Y-1905000D03*
G36*
G01*
X2933700Y-2343150D02*
X2933700Y-1466850D01*
G75*
G02*
X3371850Y-1028700I438150J0D01*
G01*
X4248150Y-1028700D01*
G75*
G02*
X4686300Y-1466850I0J-438150D01*
G01*
X4686300Y-2343150D01*
G75*
G02*
X4248150Y-2781300I-438150J0D01*
G01*
X3371850Y-2781300D01*
G75*
G02*
X2933700Y-2343150I0J438150D01*
G01*
G37*
%TD*%
M02*
