%TF.GenerationSoftware,KiCad,Pcbnew,5.99.0+really5.1.10+dfsg1-1*%
%TF.CreationDate,2021-06-06T12:38:46-04:00*%
%TF.ProjectId,5x1_knob,3578315f-6b6e-46f6-922e-6b696361645f,rev?*%
%TF.SameCoordinates,Original*%
%TF.FileFunction,Soldermask,Bot*%
%TF.FilePolarity,Negative*%
%FSLAX46Y46*%
G04 Gerber Fmt 4.6, Leading zero omitted, Abs format (unit mm)*
G04 Created by KiCad (PCBNEW 5.99.0+really5.1.10+dfsg1-1) date 2021-06-06 12:38:46*
%MOMM*%
%LPD*%
G01*
G04 APERTURE LIST*
%ADD10C,2.000000*%
%ADD11R,3.200001X2.000000*%
%ADD12C,1.752600*%
%ADD13O,1.000000X1.000000*%
%ADD14O,1.700000X1.700000*%
%ADD15C,1.700000*%
%ADD16C,3.200000*%
%ADD17C,2.250000*%
%ADD18C,3.987800*%
%ADD19C,1.750000*%
G04 APERTURE END LIST*
%TO.C,SW_1*%
G36*
G01*
X34598500Y-42346500D02*
X34598500Y-41346500D01*
G75*
G02*
X35098500Y-40846500I500000J0D01*
G01*
X36098500Y-40846500D01*
G75*
G02*
X36598500Y-41346500I0J-500000D01*
G01*
X36598500Y-42346500D01*
G75*
G02*
X36098500Y-42846500I-500000J0D01*
G01*
X35098500Y-42846500D01*
G75*
G02*
X34598500Y-42346500I0J500000D01*
G01*
G37*
D10*
X35598500Y-44346500D03*
X35598500Y-39346500D03*
X33098500Y-44346500D03*
X33098500Y-39346500D03*
D11*
X26098500Y-47446500D03*
X26098500Y-36246500D03*
D10*
X18598500Y-44346500D03*
G36*
G01*
X17598500Y-42346500D02*
X17598500Y-41346500D01*
G75*
G02*
X18098500Y-40846500I500000J0D01*
G01*
X19098500Y-40846500D01*
G75*
G02*
X19598500Y-41346500I0J-500000D01*
G01*
X19598500Y-42346500D01*
G75*
G02*
X19098500Y-42846500I-500000J0D01*
G01*
X18098500Y-42846500D01*
G75*
G02*
X17598500Y-42346500I0J500000D01*
G01*
G37*
X18598500Y-39346500D03*
%TD*%
D12*
%TO.C,U1*%
X2540000Y-17145000D03*
X30480000Y-1905000D03*
X5080000Y-17145000D03*
X7620000Y-17145000D03*
X10160000Y-17145000D03*
X12700000Y-17145000D03*
X15240000Y-17145000D03*
X17780000Y-17145000D03*
X20320000Y-17145000D03*
X22860000Y-17145000D03*
X25400000Y-17145000D03*
X27940000Y-17145000D03*
X30480000Y-17145000D03*
X27940000Y-1905000D03*
X25400000Y-1905000D03*
X22860000Y-1905000D03*
X20320000Y-1905000D03*
X17780000Y-1905000D03*
X15240000Y-1905000D03*
X12700000Y-1905000D03*
X10160000Y-1905000D03*
X7620000Y-1905000D03*
X5080000Y-1905000D03*
G36*
G01*
X1663700Y-2343150D02*
X1663700Y-1466850D01*
G75*
G02*
X2101850Y-1028700I438150J0D01*
G01*
X2978150Y-1028700D01*
G75*
G02*
X3416300Y-1466850I0J-438150D01*
G01*
X3416300Y-2343150D01*
G75*
G02*
X2978150Y-2781300I-438150J0D01*
G01*
X2101850Y-2781300D01*
G75*
G02*
X1663700Y-2343150I0J438150D01*
G01*
G37*
%TD*%
D13*
%TO.C,J_0*%
X92583000Y-15176500D03*
X92583000Y-13906500D03*
X92583000Y-12636500D03*
X92583000Y-11366500D03*
X92583000Y-10096500D03*
X92583000Y-8826500D03*
X92583000Y-7556500D03*
X92583000Y-6286500D03*
X92583000Y-5016500D03*
G36*
G01*
X92083000Y-3996500D02*
X92083000Y-3496500D01*
G75*
G02*
X92333000Y-3246500I250000J0D01*
G01*
X92833000Y-3246500D01*
G75*
G02*
X93083000Y-3496500I0J-250000D01*
G01*
X93083000Y-3996500D01*
G75*
G02*
X92833000Y-4246500I-250000J0D01*
G01*
X92333000Y-4246500D01*
G75*
G02*
X92083000Y-3996500I0J250000D01*
G01*
G37*
%TD*%
%TO.C,SW_2*%
G36*
G01*
X15185000Y-46081500D02*
X15185000Y-45231500D01*
G75*
G02*
X15610000Y-44806500I425000J0D01*
G01*
X16460000Y-44806500D01*
G75*
G02*
X16885000Y-45231500I0J-425000D01*
G01*
X16885000Y-46081500D01*
G75*
G02*
X16460000Y-46506500I-425000J0D01*
G01*
X15610000Y-46506500D01*
G75*
G02*
X15185000Y-46081500I0J425000D01*
G01*
G37*
D14*
X16035000Y-43116500D03*
G36*
G01*
X15185000Y-41001500D02*
X15185000Y-40151500D01*
G75*
G02*
X15610000Y-39726500I425000J0D01*
G01*
X16460000Y-39726500D01*
G75*
G02*
X16885000Y-40151500I0J-425000D01*
G01*
X16885000Y-41001500D01*
G75*
G02*
X16460000Y-41426500I-425000J0D01*
G01*
X15610000Y-41426500D01*
G75*
G02*
X15185000Y-41001500I0J425000D01*
G01*
G37*
D15*
X16035000Y-38036500D03*
%TD*%
D13*
%TO.C,J_2*%
X28638500Y-51371500D03*
X27368500Y-51371500D03*
X26098500Y-51371500D03*
X24828500Y-51371500D03*
G36*
G01*
X23808500Y-51871500D02*
X23308500Y-51871500D01*
G75*
G02*
X23058500Y-51621500I0J250000D01*
G01*
X23058500Y-51121500D01*
G75*
G02*
X23308500Y-50871500I250000J0D01*
G01*
X23808500Y-50871500D01*
G75*
G02*
X24058500Y-51121500I0J-250000D01*
G01*
X24058500Y-51621500D01*
G75*
G02*
X23808500Y-51871500I-250000J0D01*
G01*
G37*
%TD*%
%TO.C,J_1*%
X29273500Y-32321500D03*
X28003500Y-32321500D03*
X26733500Y-32321500D03*
X25463500Y-32321500D03*
X24193500Y-32321500D03*
G36*
G01*
X23173500Y-32821500D02*
X22673500Y-32821500D01*
G75*
G02*
X22423500Y-32571500I0J250000D01*
G01*
X22423500Y-32071500D01*
G75*
G02*
X22673500Y-31821500I250000J0D01*
G01*
X23173500Y-31821500D01*
G75*
G02*
X23423500Y-32071500I0J-250000D01*
G01*
X23423500Y-32571500D01*
G75*
G02*
X23173500Y-32821500I-250000J0D01*
G01*
G37*
%TD*%
D16*
%TO.C,REF\u002A\u002A*%
X35623500Y-32321500D03*
%TD*%
%TO.C,REF\u002A\u002A*%
X16573500Y-32321500D03*
%TD*%
%TO.C,REF\u002A\u002A*%
X16573500Y-51371500D03*
%TD*%
%TO.C,REF\u002A\u002A*%
X35623500Y-51371500D03*
%TD*%
D17*
%TO.C,MX_5*%
X86931500Y-4445000D03*
D18*
X84391500Y-9525000D03*
D17*
X80581500Y-6985000D03*
D19*
X79311500Y-9525000D03*
X89471500Y-9525000D03*
%TD*%
D17*
%TO.C,MX_4*%
X67881500Y-4445000D03*
D18*
X65341500Y-9525000D03*
D17*
X61531500Y-6985000D03*
D19*
X60261500Y-9525000D03*
X70421500Y-9525000D03*
%TD*%
D17*
%TO.C,MX_3*%
X48831500Y-4445000D03*
D18*
X46291500Y-9525000D03*
D17*
X42481500Y-6985000D03*
D19*
X41211500Y-9525000D03*
X51371500Y-9525000D03*
%TD*%
D17*
%TO.C,MX_2*%
X29781500Y-4445000D03*
D18*
X27241500Y-9525000D03*
D17*
X23431500Y-6985000D03*
D19*
X22161500Y-9525000D03*
X32321500Y-9525000D03*
%TD*%
D17*
%TO.C,MX_1*%
X10731500Y-4445000D03*
D18*
X8191500Y-9525000D03*
D17*
X4381500Y-6985000D03*
D19*
X3111500Y-9525000D03*
X13271500Y-9525000D03*
%TD*%
M02*
