%TF.GenerationSoftware,KiCad,Pcbnew,5.99.0+really5.1.10+dfsg1-1*%
%TF.CreationDate,2021-06-06T12:48:15-04:00*%
%TF.ProjectId,5x1_knob,3578315f-6b6e-46f6-922e-6b696361645f,rev?*%
%TF.SameCoordinates,Original*%
%TF.FileFunction,Legend,Top*%
%TF.FilePolarity,Positive*%
%FSLAX46Y46*%
G04 Gerber Fmt 4.6, Leading zero omitted, Abs format (unit mm)*
G04 Created by KiCad (PCBNEW 5.99.0+really5.1.10+dfsg1-1) date 2021-06-06 12:48:15*
%MOMM*%
%LPD*%
G01*
G04 APERTURE LIST*
%ADD10C,0.150000*%
%ADD11C,0.120000*%
%ADD12C,2.000000*%
%ADD13R,3.200001X2.000000*%
%ADD14O,1.700000X1.700000*%
%ADD15C,1.700000*%
%ADD16O,1.000000X1.000000*%
%ADD17C,3.200000*%
G04 APERTURE END LIST*
D10*
X8017452Y-10755380D02*
X8017452Y-11469666D01*
X7969833Y-11612523D01*
X7874595Y-11707761D01*
X7731738Y-11755380D01*
X7636500Y-11755380D01*
X8969833Y-11755380D02*
X8493642Y-11755380D01*
X8493642Y-10755380D01*
X9874595Y-11660142D02*
X9826976Y-11707761D01*
X9684119Y-11755380D01*
X9588880Y-11755380D01*
X9446023Y-11707761D01*
X9350785Y-11612523D01*
X9303166Y-11517285D01*
X9255547Y-11326809D01*
X9255547Y-11183952D01*
X9303166Y-10993476D01*
X9350785Y-10898238D01*
X9446023Y-10803000D01*
X9588880Y-10755380D01*
X9684119Y-10755380D01*
X9826976Y-10803000D01*
X9874595Y-10850619D01*
X10588880Y-10755380D02*
X10588880Y-11469666D01*
X10541261Y-11612523D01*
X10446023Y-11707761D01*
X10303166Y-11755380D01*
X10207928Y-11755380D01*
X11541261Y-11755380D02*
X11065071Y-11755380D01*
X11065071Y-10755380D01*
X12446023Y-11660142D02*
X12398404Y-11707761D01*
X12255547Y-11755380D01*
X12160309Y-11755380D01*
X12017452Y-11707761D01*
X11922214Y-11612523D01*
X11874595Y-11517285D01*
X11826976Y-11326809D01*
X11826976Y-11183952D01*
X11874595Y-10993476D01*
X11922214Y-10898238D01*
X12017452Y-10803000D01*
X12160309Y-10755380D01*
X12255547Y-10755380D01*
X12398404Y-10803000D01*
X12446023Y-10850619D01*
X13160309Y-10755380D02*
X13160309Y-11469666D01*
X13112690Y-11612523D01*
X13017452Y-11707761D01*
X12874595Y-11755380D01*
X12779357Y-11755380D01*
X14112690Y-11755380D02*
X13636500Y-11755380D01*
X13636500Y-10755380D01*
X15017452Y-11660142D02*
X14969833Y-11707761D01*
X14826976Y-11755380D01*
X14731738Y-11755380D01*
X14588880Y-11707761D01*
X14493642Y-11612523D01*
X14446023Y-11517285D01*
X14398404Y-11326809D01*
X14398404Y-11183952D01*
X14446023Y-10993476D01*
X14493642Y-10898238D01*
X14588880Y-10803000D01*
X14731738Y-10755380D01*
X14826976Y-10755380D01*
X14969833Y-10803000D01*
X15017452Y-10850619D01*
X15731738Y-10755380D02*
X15731738Y-11469666D01*
X15684119Y-11612523D01*
X15588880Y-11707761D01*
X15446023Y-11755380D01*
X15350785Y-11755380D01*
X16684119Y-11755380D02*
X16207928Y-11755380D01*
X16207928Y-10755380D01*
X17588880Y-11660142D02*
X17541261Y-11707761D01*
X17398404Y-11755380D01*
X17303166Y-11755380D01*
X17160309Y-11707761D01*
X17065071Y-11612523D01*
X17017452Y-11517285D01*
X16969833Y-11326809D01*
X16969833Y-11183952D01*
X17017452Y-10993476D01*
X17065071Y-10898238D01*
X17160309Y-10803000D01*
X17303166Y-10755380D01*
X17398404Y-10755380D01*
X17541261Y-10803000D01*
X17588880Y-10850619D01*
X8898404Y-13422380D02*
X8993642Y-13422380D01*
X9088880Y-13470000D01*
X9136500Y-13517619D01*
X9184119Y-13612857D01*
X9231738Y-13803333D01*
X9231738Y-14041428D01*
X9184119Y-14231904D01*
X9136500Y-14327142D01*
X9088880Y-14374761D01*
X8993642Y-14422380D01*
X8898404Y-14422380D01*
X8803166Y-14374761D01*
X8755547Y-14327142D01*
X8707928Y-14231904D01*
X8660309Y-14041428D01*
X8660309Y-13803333D01*
X8707928Y-13612857D01*
X8755547Y-13517619D01*
X8803166Y-13470000D01*
X8898404Y-13422380D01*
X9565071Y-14422380D02*
X10088880Y-13755714D01*
X9565071Y-13755714D02*
X10088880Y-14422380D01*
X10660309Y-13422380D02*
X10755547Y-13422380D01*
X10850785Y-13470000D01*
X10898404Y-13517619D01*
X10946023Y-13612857D01*
X10993642Y-13803333D01*
X10993642Y-14041428D01*
X10946023Y-14231904D01*
X10898404Y-14327142D01*
X10850785Y-14374761D01*
X10755547Y-14422380D01*
X10660309Y-14422380D01*
X10565071Y-14374761D01*
X10517452Y-14327142D01*
X10469833Y-14231904D01*
X10422214Y-14041428D01*
X10422214Y-13803333D01*
X10469833Y-13612857D01*
X10517452Y-13517619D01*
X10565071Y-13470000D01*
X10660309Y-13422380D01*
X11946023Y-14422380D02*
X11374595Y-14422380D01*
X11660309Y-14422380D02*
X11660309Y-13422380D01*
X11565071Y-13565238D01*
X11469833Y-13660476D01*
X11374595Y-13708095D01*
X13088880Y-13422380D02*
X13088880Y-13612857D01*
X13469833Y-13422380D02*
X13469833Y-13612857D01*
X14326976Y-14422380D02*
X14326976Y-13422380D01*
X14326976Y-14374761D02*
X14231738Y-14422380D01*
X14041261Y-14422380D01*
X13946023Y-14374761D01*
X13898404Y-14327142D01*
X13850785Y-14231904D01*
X13850785Y-13946190D01*
X13898404Y-13850952D01*
X13946023Y-13803333D01*
X14041261Y-13755714D01*
X14231738Y-13755714D01*
X14326976Y-13803333D01*
X14946023Y-14422380D02*
X14850785Y-14374761D01*
X14803166Y-14327142D01*
X14755547Y-14231904D01*
X14755547Y-13946190D01*
X14803166Y-13850952D01*
X14850785Y-13803333D01*
X14946023Y-13755714D01*
X15088880Y-13755714D01*
X15184119Y-13803333D01*
X15231738Y-13850952D01*
X15279357Y-13946190D01*
X15279357Y-14231904D01*
X15231738Y-14327142D01*
X15184119Y-14374761D01*
X15088880Y-14422380D01*
X14946023Y-14422380D01*
X15565071Y-13755714D02*
X15946023Y-13755714D01*
X15707928Y-13422380D02*
X15707928Y-14279523D01*
X15755547Y-14374761D01*
X15850785Y-14422380D01*
X15946023Y-14422380D01*
X16231738Y-13422380D02*
X16231738Y-13612857D01*
X16612690Y-13422380D02*
X16612690Y-13612857D01*
D11*
%TO.C,SW_1*%
X12636500Y-12136500D02*
X12636500Y-13136500D01*
X12136500Y-12636500D02*
X13136500Y-12636500D01*
%TD*%
%LPC*%
%TO.C,SW_1*%
G36*
G01*
X21136500Y-13136500D02*
X21136500Y-12136500D01*
G75*
G02*
X21636500Y-11636500I500000J0D01*
G01*
X22636500Y-11636500D01*
G75*
G02*
X23136500Y-12136500I0J-500000D01*
G01*
X23136500Y-13136500D01*
G75*
G02*
X22636500Y-13636500I-500000J0D01*
G01*
X21636500Y-13636500D01*
G75*
G02*
X21136500Y-13136500I0J500000D01*
G01*
G37*
D12*
X22136500Y-15136500D03*
X22136500Y-10136500D03*
X19636500Y-15136500D03*
X19636500Y-10136500D03*
D13*
X12636500Y-18236500D03*
X12636500Y-7036500D03*
D12*
X5136500Y-15136500D03*
G36*
G01*
X4136500Y-13136500D02*
X4136500Y-12136500D01*
G75*
G02*
X4636500Y-11636500I500000J0D01*
G01*
X5636500Y-11636500D01*
G75*
G02*
X6136500Y-12136500I0J-500000D01*
G01*
X6136500Y-13136500D01*
G75*
G02*
X5636500Y-13636500I-500000J0D01*
G01*
X4636500Y-13636500D01*
G75*
G02*
X4136500Y-13136500I0J500000D01*
G01*
G37*
X5136500Y-10136500D03*
%TD*%
%TO.C,SW_2*%
G36*
G01*
X1723000Y-16871500D02*
X1723000Y-16021500D01*
G75*
G02*
X2148000Y-15596500I425000J0D01*
G01*
X2998000Y-15596500D01*
G75*
G02*
X3423000Y-16021500I0J-425000D01*
G01*
X3423000Y-16871500D01*
G75*
G02*
X2998000Y-17296500I-425000J0D01*
G01*
X2148000Y-17296500D01*
G75*
G02*
X1723000Y-16871500I0J425000D01*
G01*
G37*
D14*
X2573000Y-13906500D03*
G36*
G01*
X1723000Y-11791500D02*
X1723000Y-10941500D01*
G75*
G02*
X2148000Y-10516500I425000J0D01*
G01*
X2998000Y-10516500D01*
G75*
G02*
X3423000Y-10941500I0J-425000D01*
G01*
X3423000Y-11791500D01*
G75*
G02*
X2998000Y-12216500I-425000J0D01*
G01*
X2148000Y-12216500D01*
G75*
G02*
X1723000Y-11791500I0J425000D01*
G01*
G37*
D15*
X2573000Y-8826500D03*
%TD*%
D16*
%TO.C,J_2*%
X15176500Y-22161500D03*
X13906500Y-22161500D03*
X12636500Y-22161500D03*
X11366500Y-22161500D03*
G36*
G01*
X10346500Y-22661500D02*
X9846500Y-22661500D01*
G75*
G02*
X9596500Y-22411500I0J250000D01*
G01*
X9596500Y-21911500D01*
G75*
G02*
X9846500Y-21661500I250000J0D01*
G01*
X10346500Y-21661500D01*
G75*
G02*
X10596500Y-21911500I0J-250000D01*
G01*
X10596500Y-22411500D01*
G75*
G02*
X10346500Y-22661500I-250000J0D01*
G01*
G37*
%TD*%
%TO.C,J_1*%
X15811500Y-3111500D03*
X14541500Y-3111500D03*
X13271500Y-3111500D03*
X12001500Y-3111500D03*
X10731500Y-3111500D03*
G36*
G01*
X9711500Y-3611500D02*
X9211500Y-3611500D01*
G75*
G02*
X8961500Y-3361500I0J250000D01*
G01*
X8961500Y-2861500D01*
G75*
G02*
X9211500Y-2611500I250000J0D01*
G01*
X9711500Y-2611500D01*
G75*
G02*
X9961500Y-2861500I0J-250000D01*
G01*
X9961500Y-3361500D01*
G75*
G02*
X9711500Y-3611500I-250000J0D01*
G01*
G37*
%TD*%
D17*
%TO.C,REF\u002A\u002A*%
X22161500Y-3111500D03*
%TD*%
%TO.C,REF\u002A\u002A*%
X3111500Y-3111500D03*
%TD*%
%TO.C,REF\u002A\u002A*%
X3111500Y-22161500D03*
%TD*%
%TO.C,REF\u002A\u002A*%
X22161500Y-22161500D03*
%TD*%
M02*
