M48
; DRILL file {KiCad 5.99.0+really5.1.10+dfsg1-1} date Sun Jun  6 12:48:17 2021
; FORMAT={-:-/ absolute / inch / decimal}
; #@! TF.CreationDate,2021-06-06T12:48:17-04:00
; #@! TF.GenerationSoftware,Kicad,Pcbnew,5.99.0+really5.1.10+dfsg1-1
FMAT,2
INCH
T1C0.0157
T2C0.0256
T3C0.0394
T4C0.0591
T5C0.1260
%
G90
G05
T1
X0.03Y-0.03
X0.03Y-0.115
X0.03Y-0.2
X0.03Y-0.285
X0.03Y-0.37
X0.03Y-0.455
X0.03Y-0.54
X0.03Y-0.625
X0.03Y-0.71
X0.03Y-0.795
X0.03Y-0.88
X0.03Y-0.965
X0.115Y-0.03
X0.115Y-0.965
X0.2Y-0.03
X0.2Y-0.965
X0.27Y-0.4
X0.27Y-0.5275
X0.27Y-0.595
X0.285Y-0.03
X0.285Y-0.965
X0.37Y-0.03
X0.37Y-0.965
X0.3975Y-0.0775
X0.4225Y-0.9175
X0.4475Y-0.0775
X0.455Y-0.03
X0.455Y-0.965
X0.4725Y-0.9175
X0.4975Y-0.0775
X0.4975Y-0.1675
X0.5225Y-0.8275
X0.5225Y-0.9175
X0.54Y-0.03
X0.54Y-0.965
X0.5475Y-0.0775
X0.5725Y-0.9175
X0.5975Y-0.0775
X0.6225Y-0.1675
X0.6225Y-0.9175
X0.625Y-0.03
X0.625Y-0.965
X0.71Y-0.03
X0.71Y-0.965
X0.7198Y-0.3645
X0.7586Y-0.5344
X0.795Y-0.03
X0.795Y-0.965
X0.8084Y-0.4769
X0.88Y-0.03
X0.88Y-0.965
X0.965Y-0.03
X0.965Y-0.115
X0.965Y-0.2
X0.965Y-0.285
X0.965Y-0.37
X0.965Y-0.455
X0.965Y-0.54
X0.965Y-0.625
X0.965Y-0.71
X0.965Y-0.795
X0.965Y-0.88
X0.965Y-0.965
T2
X0.3725Y-0.1225
X0.3975Y-0.8725
X0.4225Y-0.1225
X0.4475Y-0.8725
X0.4725Y-0.1225
X0.4975Y-0.8725
X0.5225Y-0.1225
X0.5475Y-0.8725
X0.5725Y-0.1225
X0.5975Y-0.8725
X0.6225Y-0.1225
T3
X0.1013Y-0.3475
X0.1013Y-0.4475
X0.1013Y-0.5475
X0.1013Y-0.6475
X0.2022Y-0.3991
X0.2022Y-0.4975
X0.2022Y-0.5959
X0.7731Y-0.3991
X0.7731Y-0.5959
X0.8715Y-0.3991
X0.8715Y-0.4975
X0.8715Y-0.5959
T5
X0.1225Y-0.1225
X0.1225Y-0.8725
X0.8725Y-0.1225
X0.8725Y-0.8725
T4
X0.4719Y-0.277G85X0.5231Y-0.277
G05
X0.4719Y-0.718G85X0.5231Y-0.718
G05
T0
M30
