%TF.GenerationSoftware,KiCad,Pcbnew,5.99.0+really5.1.10+dfsg1-1*%
%TF.CreationDate,2021-06-06T12:48:15-04:00*%
%TF.ProjectId,5x1_knob,3578315f-6b6e-46f6-922e-6b696361645f,rev?*%
%TF.SameCoordinates,Original*%
%TF.FileFunction,Copper,L1,Top*%
%TF.FilePolarity,Positive*%
%FSLAX46Y46*%
G04 Gerber Fmt 4.6, Leading zero omitted, Abs format (unit mm)*
G04 Created by KiCad (PCBNEW 5.99.0+really5.1.10+dfsg1-1) date 2021-06-06 12:48:15*
%MOMM*%
%LPD*%
G01*
G04 APERTURE LIST*
%TA.AperFunction,ComponentPad*%
%ADD10C,2.000000*%
%TD*%
%TA.AperFunction,ComponentPad*%
%ADD11R,3.200001X2.000000*%
%TD*%
%TA.AperFunction,ComponentPad*%
%ADD12O,1.700000X1.700000*%
%TD*%
%TA.AperFunction,ComponentPad*%
%ADD13C,1.700000*%
%TD*%
%TA.AperFunction,ComponentPad*%
%ADD14O,1.000000X1.000000*%
%TD*%
%TA.AperFunction,ViaPad*%
%ADD15C,0.800000*%
%TD*%
%TA.AperFunction,Conductor*%
%ADD16C,0.254000*%
%TD*%
%TA.AperFunction,Conductor*%
%ADD17C,1.600200*%
%TD*%
%TA.AperFunction,Conductor*%
%ADD18C,0.150000*%
%TD*%
G04 APERTURE END LIST*
%TO.P,SW_1,c*%
%TO.N,Net-(J_1-Pad5)*%
%TA.AperFunction,ComponentPad*%
G36*
G01*
X21136500Y-13136500D02*
X21136500Y-12136500D01*
G75*
G02*
X21636500Y-11636500I500000J0D01*
G01*
X22636500Y-11636500D01*
G75*
G02*
X23136500Y-12136500I0J-500000D01*
G01*
X23136500Y-13136500D01*
G75*
G02*
X22636500Y-13636500I-500000J0D01*
G01*
X21636500Y-13636500D01*
G75*
G02*
X21136500Y-13136500I0J500000D01*
G01*
G37*
%TD.AperFunction*%
D10*
%TO.P,SW_1,b*%
%TO.N,Net-(J_1-Pad4)*%
X22136500Y-15136500D03*
%TO.P,SW_1,a*%
%TO.N,Net-(J_1-Pad6)*%
X22136500Y-10136500D03*
%TO.P,SW_1,S1*%
%TO.N,Net-(J_1-Pad3)*%
X19636500Y-15136500D03*
%TO.P,SW_1,S2*%
%TO.N,Net-(J_1-Pad2)*%
X19636500Y-10136500D03*
D11*
%TO.P,SW_1,MP*%
%TO.N,K_GND*%
X12636500Y-18236500D03*
X12636500Y-7036500D03*
D10*
%TO.P,SW_1,B*%
%TO.N,Net-(J_2-Pad3)*%
X5136500Y-15136500D03*
%TO.P,SW_1,C*%
%TO.N,Net-(J_2-Pad4)*%
%TA.AperFunction,ComponentPad*%
G36*
G01*
X4136500Y-13136500D02*
X4136500Y-12136500D01*
G75*
G02*
X4636500Y-11636500I500000J0D01*
G01*
X5636500Y-11636500D01*
G75*
G02*
X6136500Y-12136500I0J-500000D01*
G01*
X6136500Y-13136500D01*
G75*
G02*
X5636500Y-13636500I-500000J0D01*
G01*
X4636500Y-13636500D01*
G75*
G02*
X4136500Y-13136500I0J500000D01*
G01*
G37*
%TD.AperFunction*%
%TO.P,SW_1,A*%
%TO.N,Net-(J_2-Pad5)*%
X5136500Y-10136500D03*
%TD*%
%TO.P,SW_2,4*%
%TO.N,Net-(J_2-Pad2)*%
%TA.AperFunction,ComponentPad*%
G36*
G01*
X1723000Y-16871500D02*
X1723000Y-16021500D01*
G75*
G02*
X2148000Y-15596500I425000J0D01*
G01*
X2998000Y-15596500D01*
G75*
G02*
X3423000Y-16021500I0J-425000D01*
G01*
X3423000Y-16871500D01*
G75*
G02*
X2998000Y-17296500I-425000J0D01*
G01*
X2148000Y-17296500D01*
G75*
G02*
X1723000Y-16871500I0J425000D01*
G01*
G37*
%TD.AperFunction*%
D12*
%TO.P,SW_2,3*%
%TO.N,Net-(J_2-Pad3)*%
X2573000Y-13906500D03*
%TO.P,SW_2,2*%
%TO.N,Net-(J_2-Pad4)*%
%TA.AperFunction,ComponentPad*%
G36*
G01*
X1723000Y-11791500D02*
X1723000Y-10941500D01*
G75*
G02*
X2148000Y-10516500I425000J0D01*
G01*
X2998000Y-10516500D01*
G75*
G02*
X3423000Y-10941500I0J-425000D01*
G01*
X3423000Y-11791500D01*
G75*
G02*
X2998000Y-12216500I-425000J0D01*
G01*
X2148000Y-12216500D01*
G75*
G02*
X1723000Y-11791500I0J425000D01*
G01*
G37*
%TD.AperFunction*%
D13*
%TO.P,SW_2,1*%
%TO.N,Net-(J_2-Pad5)*%
X2573000Y-8826500D03*
%TD*%
D14*
%TO.P,J_2,5*%
%TO.N,Net-(J_2-Pad5)*%
X15176500Y-22161500D03*
%TO.P,J_2,4*%
%TO.N,Net-(J_2-Pad4)*%
X13906500Y-22161500D03*
%TO.P,J_2,3*%
%TO.N,Net-(J_2-Pad3)*%
X12636500Y-22161500D03*
%TO.P,J_2,2*%
%TO.N,Net-(J_2-Pad2)*%
X11366500Y-22161500D03*
%TO.P,J_2,1*%
%TO.N,K_GND*%
%TA.AperFunction,ComponentPad*%
G36*
G01*
X10346500Y-22661500D02*
X9846500Y-22661500D01*
G75*
G02*
X9596500Y-22411500I0J250000D01*
G01*
X9596500Y-21911500D01*
G75*
G02*
X9846500Y-21661500I250000J0D01*
G01*
X10346500Y-21661500D01*
G75*
G02*
X10596500Y-21911500I0J-250000D01*
G01*
X10596500Y-22411500D01*
G75*
G02*
X10346500Y-22661500I-250000J0D01*
G01*
G37*
%TD.AperFunction*%
%TD*%
%TO.P,J_1,6*%
%TO.N,Net-(J_1-Pad6)*%
X15811500Y-3111500D03*
%TO.P,J_1,5*%
%TO.N,Net-(J_1-Pad5)*%
X14541500Y-3111500D03*
%TO.P,J_1,4*%
%TO.N,Net-(J_1-Pad4)*%
X13271500Y-3111500D03*
%TO.P,J_1,3*%
%TO.N,Net-(J_1-Pad3)*%
X12001500Y-3111500D03*
%TO.P,J_1,2*%
%TO.N,Net-(J_1-Pad2)*%
X10731500Y-3111500D03*
%TO.P,J_1,1*%
%TO.N,K_GND*%
%TA.AperFunction,ComponentPad*%
G36*
G01*
X9711500Y-3611500D02*
X9211500Y-3611500D01*
G75*
G02*
X8961500Y-3361500I0J250000D01*
G01*
X8961500Y-2861500D01*
G75*
G02*
X9211500Y-2611500I250000J0D01*
G01*
X9711500Y-2611500D01*
G75*
G02*
X9961500Y-2861500I0J-250000D01*
G01*
X9961500Y-3361500D01*
G75*
G02*
X9711500Y-3611500I-250000J0D01*
G01*
G37*
%TD.AperFunction*%
%TD*%
D15*
%TO.N,K_GND*%
X762000Y-24511000D03*
X762000Y-11557000D03*
X762000Y-13716000D03*
X762000Y-7239000D03*
X762000Y-22352000D03*
X762000Y-20193000D03*
X762000Y-5080000D03*
X762000Y-18034000D03*
X762000Y-2921000D03*
X762000Y-15875000D03*
X762000Y-9398000D03*
X24511000Y-24511000D03*
X11557000Y-24511000D03*
X13716000Y-24511000D03*
X7239000Y-24511000D03*
X22352000Y-24511000D03*
X20193000Y-24511000D03*
X5080000Y-24511000D03*
X18034000Y-24511000D03*
X2921000Y-24511000D03*
X15875000Y-24511000D03*
X9398000Y-24511000D03*
X24511000Y-13716000D03*
X24511000Y-11557000D03*
X24511000Y-18034000D03*
X24511000Y-2921000D03*
X24511000Y-5080000D03*
X24511000Y-20193000D03*
X24511000Y-7239000D03*
X24511000Y-22352000D03*
X24511000Y-9398000D03*
X24511000Y-15875000D03*
X15811500Y-4254500D03*
X13271500Y-21018500D03*
X12636500Y-4254500D03*
X13271500Y-23304500D03*
X12001500Y-23304500D03*
X14541500Y-23304500D03*
X15811500Y-23304500D03*
X10731500Y-23304500D03*
X12636500Y-1968500D03*
X11366500Y-1968500D03*
X10096500Y-1968500D03*
X13906500Y-1968500D03*
X15176500Y-1968500D03*
X762000Y-762000D03*
X24511000Y-762000D03*
X22352000Y-762000D03*
X20193000Y-762000D03*
X18034000Y-762000D03*
X15875000Y-762000D03*
X13716000Y-762000D03*
X11557000Y-762000D03*
X9398000Y-762000D03*
X7239000Y-762000D03*
X5080000Y-762000D03*
X2921000Y-762000D03*
X6858000Y-10160000D03*
X6858000Y-15113000D03*
X6858000Y-13398500D03*
X18282920Y-9258300D03*
X20533360Y-12113260D03*
X19268440Y-13573760D03*
%TD*%
D16*
%TO.N,K_GND*%
X12636500Y-4254500D02*
X12636500Y-5842000D01*
X12700000Y-19558000D02*
X12636500Y-19494500D01*
X12700000Y-20447000D02*
X12700000Y-19558000D01*
X13271500Y-21018500D02*
X12700000Y-20447000D01*
X9461500Y-825500D02*
X9398000Y-762000D01*
X9461500Y-3111500D02*
X9461500Y-825500D01*
X7239000Y-3111500D02*
X9461500Y-3111500D01*
X7239000Y-762000D02*
X7239000Y-3111500D01*
X7239000Y-889000D02*
X9461500Y-3111500D01*
X7239000Y-762000D02*
X7239000Y-889000D01*
X6858000Y-5715000D02*
X9461500Y-3111500D01*
X10096500Y-23812500D02*
X9398000Y-24511000D01*
X10096500Y-22161500D02*
X10096500Y-23812500D01*
X7239000Y-22161500D02*
X10096500Y-22161500D01*
X7239000Y-24511000D02*
X7239000Y-22161500D01*
X7747000Y-24511000D02*
X10096500Y-22161500D01*
X7239000Y-24511000D02*
X7747000Y-24511000D01*
X8651240Y-20716240D02*
X10096500Y-22161500D01*
X11239500Y-23304500D02*
X10096500Y-22161500D01*
X12001500Y-23304500D02*
X11239500Y-23304500D01*
X7239000Y-24511000D02*
X9398000Y-24511000D01*
X10604500Y-23304500D02*
X9398000Y-24511000D01*
X10731500Y-23304500D02*
X10604500Y-23304500D01*
X10731500Y-23304500D02*
X12001500Y-23304500D01*
X7239000Y-5334000D02*
X6858000Y-5715000D01*
X7239000Y-3111500D02*
X7239000Y-5334000D01*
X8456930Y-20521930D02*
X8651240Y-20716240D01*
X8454390Y-20521930D02*
X8456930Y-20521930D01*
X7239000Y-21737320D02*
X8454390Y-20521930D01*
X7239000Y-22161500D02*
X7239000Y-21737320D01*
X9398000Y-762000D02*
X7239000Y-762000D01*
X10096500Y-1460500D02*
X9398000Y-762000D01*
X10096500Y-1968500D02*
X10096500Y-1460500D01*
D17*
X12636500Y-7036500D02*
X12636500Y-4988560D01*
X12636500Y-7036500D02*
X10416540Y-7036500D01*
X12636500Y-18236500D02*
X12636500Y-20114260D01*
X12636500Y-18236500D02*
X10568240Y-18236500D01*
X12636500Y-7036500D02*
X12636500Y-8798560D01*
X12636500Y-18236500D02*
X12636500Y-16700500D01*
D16*
X12636500Y-16042640D02*
X12636500Y-17018000D01*
X9865360Y-13271500D02*
X12636500Y-16042640D01*
X6731000Y-13271500D02*
X9865360Y-13271500D01*
X6858000Y-10160000D02*
X6858000Y-5715000D01*
X6858000Y-15829280D02*
X6858000Y-15113000D01*
X12047220Y-21018500D02*
X6858000Y-15829280D01*
X13271500Y-21018500D02*
X12047220Y-21018500D01*
D17*
X12636500Y-18236500D02*
X14703360Y-18236500D01*
D16*
X6858000Y-10160000D02*
X6858000Y-10177780D01*
D17*
X12636500Y-7036500D02*
X14683040Y-7036500D01*
D16*
X16365220Y-1968500D02*
X15176500Y-1968500D01*
X18280380Y-3883660D02*
X16365220Y-1968500D01*
X18280380Y-9255760D02*
X18280380Y-3883660D01*
X18282920Y-9258300D02*
X18280380Y-9255760D01*
X19865340Y-7675880D02*
X18282920Y-9258300D01*
X22783800Y-7675880D02*
X19865340Y-7675880D01*
X23022421Y-17178159D02*
X24373840Y-15826740D01*
X17164021Y-17178159D02*
X23022421Y-17178159D01*
X24373840Y-15826740D02*
X24373840Y-9265920D01*
X24373840Y-9265920D02*
X22783800Y-7675880D01*
X17409160Y-21706840D02*
X15811500Y-23304500D01*
X17409160Y-17423298D02*
X17409160Y-21706840D01*
X17164021Y-17178159D02*
X17409160Y-17423298D01*
X10096500Y-22161500D02*
X10096500Y-21163280D01*
X9455150Y-20521930D02*
X8454390Y-20521930D01*
X10096500Y-21163280D02*
X9455150Y-20521930D01*
X10350500Y-2222500D02*
X9461500Y-3111500D01*
X10096500Y-1968500D02*
X10350500Y-2222500D01*
X9461500Y-3111500D02*
X9461500Y-4658360D01*
X8290560Y-5875020D02*
X8290560Y-8304698D01*
X10251440Y-3914140D02*
X8290560Y-5875020D01*
X10251440Y-3901440D02*
X10251440Y-3914140D01*
X9461500Y-3111500D02*
X10251440Y-3901440D01*
X10714271Y-10728409D02*
X17164021Y-17178159D01*
X8290560Y-8304698D02*
X10714271Y-10728409D01*
X11705422Y-11719560D02*
X11995701Y-12009839D01*
X7371080Y-11719560D02*
X11705422Y-11719560D01*
X6858000Y-11206480D02*
X7371080Y-11719560D01*
X6858000Y-10160000D02*
X6858000Y-11206480D01*
X17091660Y-5534660D02*
X15811500Y-4254500D01*
X17091660Y-10126980D02*
X17091660Y-5534660D01*
X18889980Y-11925300D02*
X17091660Y-10126980D01*
X20345400Y-11925300D02*
X18889980Y-11925300D01*
X20533360Y-12113260D02*
X20345400Y-11925300D01*
X12636500Y-8636000D02*
X12636500Y-8255000D01*
X17574260Y-13573760D02*
X12636500Y-8636000D01*
X19268440Y-13573760D02*
X17574260Y-13573760D01*
X9664700Y-6611620D02*
X12021820Y-4254500D01*
X9664700Y-7734300D02*
X9664700Y-6611620D01*
X16593820Y-14663420D02*
X9664700Y-7734300D01*
X12021820Y-4254500D02*
X12636500Y-4254500D01*
X18178780Y-14663420D02*
X16593820Y-14663420D01*
X19268440Y-13573760D02*
X18178780Y-14663420D01*
%TO.N,Net-(J_1-Pad6)*%
X17548860Y-4848860D02*
X15811500Y-3111500D01*
X17548860Y-9933940D02*
X17548860Y-4848860D01*
X19083020Y-11468100D02*
X17548860Y-9933940D01*
X20187920Y-11468100D02*
X19083020Y-11468100D01*
X21519520Y-10136500D02*
X20187920Y-11468100D01*
X22136500Y-10136500D02*
X21519520Y-10136500D01*
%TO.N,Net-(J_1-Pad5)*%
X16626840Y-6108700D02*
X14541500Y-4023360D01*
X16626840Y-10309860D02*
X16626840Y-6108700D01*
X18699480Y-12382500D02*
X16626840Y-10309860D01*
X19766280Y-12382500D02*
X18699480Y-12382500D01*
X20228560Y-12844780D02*
X19766280Y-12382500D01*
X14541500Y-4023360D02*
X14541500Y-3111500D01*
X21928220Y-12844780D02*
X20228560Y-12844780D01*
X22136500Y-12636500D02*
X21928220Y-12844780D01*
%TO.N,Net-(J_1-Pad4)*%
X13271500Y-3401060D02*
X13271500Y-3111500D01*
X18506440Y-12839700D02*
X16169640Y-10502900D01*
X16169640Y-6299200D02*
X13271500Y-3401060D01*
X16169640Y-10502900D02*
X16169640Y-6299200D01*
X20035520Y-13301980D02*
X19573240Y-12839700D01*
X19573240Y-12839700D02*
X18506440Y-12839700D01*
X20627340Y-13301980D02*
X20035520Y-13301980D01*
X22136500Y-14811140D02*
X20627340Y-13301980D01*
X22136500Y-15136500D02*
X22136500Y-14811140D01*
%TO.N,Net-(J_1-Pad3)*%
X16419200Y-15136500D02*
X19636500Y-15136500D01*
X9207500Y-7924800D02*
X16419200Y-15136500D01*
X9207500Y-6256020D02*
X9207500Y-7924800D01*
X12001500Y-3462020D02*
X9207500Y-6256020D01*
X12001500Y-3111500D02*
X12001500Y-3462020D01*
%TO.N,Net-(J_1-Pad2)*%
X20252060Y-10136500D02*
X19636500Y-10136500D01*
X21584920Y-8803640D02*
X20252060Y-10136500D01*
X22702520Y-8803640D02*
X21584920Y-8803640D01*
X23479760Y-9580880D02*
X22702520Y-8803640D01*
X23479760Y-15707360D02*
X23479760Y-9580880D01*
X16233140Y-15598140D02*
X18211800Y-15598140D01*
X18211800Y-15598140D02*
X19080480Y-16466820D01*
X8750300Y-8115300D02*
X16233140Y-15598140D01*
X8750300Y-6062980D02*
X8750300Y-8115300D01*
X10731500Y-4081780D02*
X8750300Y-6062980D01*
X22720300Y-16466820D02*
X23479760Y-15707360D01*
X19080480Y-16466820D02*
X22720300Y-16466820D01*
X10731500Y-3111500D02*
X10731500Y-4081780D01*
D17*
%TO.N,Net-(J_2-Pad5)*%
X2573000Y-8826500D02*
X5136500Y-10136500D01*
D16*
X16497300Y-17162780D02*
X16497300Y-19908520D01*
X11511280Y-12176760D02*
X16497300Y-17162780D01*
X15176500Y-21229320D02*
X15176500Y-22161500D01*
X7176760Y-12176760D02*
X11511280Y-12176760D01*
X16497300Y-19908520D02*
X15176500Y-21229320D01*
X5136500Y-10136500D02*
X7176760Y-12176760D01*
D17*
%TO.N,Net-(J_2-Pad4)*%
X2573000Y-11366500D02*
X5136500Y-12636500D01*
D16*
X13906500Y-21851620D02*
X13906500Y-22161500D01*
X16040100Y-19718020D02*
X13906500Y-21851620D01*
X16040100Y-17358360D02*
X16040100Y-19718020D01*
X11318240Y-12636500D02*
X16040100Y-17358360D01*
X5136500Y-12636500D02*
X11318240Y-12636500D01*
D17*
%TO.N,Net-(J_2-Pad3)*%
X2573000Y-13906500D02*
X5136500Y-15136500D01*
D16*
X5517520Y-15136500D02*
X5136500Y-15136500D01*
X12542520Y-22161500D02*
X5517520Y-15136500D01*
X12636500Y-22161500D02*
X12542520Y-22161500D01*
%TO.N,Net-(J_2-Pad2)*%
X2603480Y-16476980D02*
X2573000Y-16446500D01*
X6207760Y-16476980D02*
X2603480Y-16476980D01*
X11366500Y-21635720D02*
X6207760Y-16476980D01*
X11366500Y-22161500D02*
X11366500Y-21635720D01*
%TD*%
%TO.N,K_GND*%
X24905101Y-24905100D02*
X367900Y-24905100D01*
X367900Y-21970141D01*
X1168600Y-21970141D01*
X1168600Y-22352859D01*
X1243264Y-22728223D01*
X1389724Y-23081808D01*
X1602351Y-23400027D01*
X1872973Y-23670649D01*
X2191192Y-23883276D01*
X2544777Y-24029736D01*
X2920141Y-24104400D01*
X3302859Y-24104400D01*
X3678223Y-24029736D01*
X4031808Y-23883276D01*
X4350027Y-23670649D01*
X4620649Y-23400027D01*
X4833276Y-23081808D01*
X4979736Y-22728223D01*
X4993007Y-22661500D01*
X9086042Y-22661500D01*
X9095850Y-22761085D01*
X9124898Y-22856844D01*
X9172070Y-22945095D01*
X9235552Y-23022448D01*
X9312905Y-23085930D01*
X9401156Y-23133102D01*
X9496915Y-23162150D01*
X9596500Y-23171958D01*
X9906000Y-23169500D01*
X10033000Y-23042500D01*
X10033000Y-22225000D01*
X9215500Y-22225000D01*
X9088500Y-22352000D01*
X9086042Y-22661500D01*
X4993007Y-22661500D01*
X5054400Y-22352859D01*
X5054400Y-21970141D01*
X4993008Y-21661500D01*
X9086042Y-21661500D01*
X9088500Y-21971000D01*
X9215500Y-22098000D01*
X10033000Y-22098000D01*
X10033000Y-21280500D01*
X9906000Y-21153500D01*
X9596500Y-21151042D01*
X9496915Y-21160850D01*
X9401156Y-21189898D01*
X9312905Y-21237070D01*
X9235552Y-21300552D01*
X9172070Y-21377905D01*
X9124898Y-21466156D01*
X9095850Y-21561915D01*
X9086042Y-21661500D01*
X4993008Y-21661500D01*
X4979736Y-21594777D01*
X4833276Y-21241192D01*
X4620649Y-20922973D01*
X4350027Y-20652351D01*
X4031808Y-20439724D01*
X3678223Y-20293264D01*
X3302859Y-20218600D01*
X2920141Y-20218600D01*
X2544777Y-20293264D01*
X2191192Y-20439724D01*
X1872973Y-20652351D01*
X1602351Y-20922973D01*
X1389724Y-21241192D01*
X1243264Y-21594777D01*
X1168600Y-21970141D01*
X367900Y-21970141D01*
X367900Y-10941500D01*
X1378441Y-10941500D01*
X1378441Y-11791500D01*
X1393228Y-11941634D01*
X1437020Y-12085997D01*
X1508135Y-12219044D01*
X1603840Y-12335660D01*
X1720456Y-12431365D01*
X1853503Y-12502480D01*
X1997866Y-12546272D01*
X2148000Y-12561059D01*
X2409463Y-12561059D01*
X2735399Y-12722533D01*
X2690490Y-12713600D01*
X2455510Y-12713600D01*
X2225044Y-12759442D01*
X2007950Y-12849366D01*
X1812571Y-12979914D01*
X1646414Y-13146071D01*
X1515866Y-13341450D01*
X1425942Y-13558544D01*
X1380100Y-13789010D01*
X1380100Y-14023990D01*
X1425942Y-14254456D01*
X1515866Y-14471550D01*
X1646414Y-14666929D01*
X1812571Y-14833086D01*
X2007950Y-14963634D01*
X2225044Y-15053558D01*
X2389694Y-15086309D01*
X2734896Y-15251941D01*
X2148000Y-15251941D01*
X1997866Y-15266728D01*
X1853503Y-15310520D01*
X1720456Y-15381635D01*
X1603840Y-15477340D01*
X1508135Y-15593956D01*
X1437020Y-15727003D01*
X1393228Y-15871366D01*
X1378441Y-16021500D01*
X1378441Y-16871500D01*
X1393228Y-17021634D01*
X1437020Y-17165997D01*
X1508135Y-17299044D01*
X1603840Y-17415660D01*
X1720456Y-17511365D01*
X1853503Y-17582480D01*
X1997866Y-17626272D01*
X2148000Y-17641059D01*
X2998000Y-17641059D01*
X3148134Y-17626272D01*
X3292497Y-17582480D01*
X3425544Y-17511365D01*
X3542160Y-17415660D01*
X3637865Y-17299044D01*
X3708980Y-17165997D01*
X3752772Y-17021634D01*
X3760135Y-16946880D01*
X6013122Y-16946880D01*
X10253371Y-21187129D01*
X10160000Y-21280500D01*
X10160000Y-22098000D01*
X10180000Y-22098000D01*
X10180000Y-22225000D01*
X10160000Y-22225000D01*
X10160000Y-23042500D01*
X10287000Y-23169500D01*
X10596500Y-23171958D01*
X10696085Y-23162150D01*
X10791844Y-23133102D01*
X10880095Y-23085930D01*
X10957448Y-23022448D01*
X11020930Y-22945095D01*
X11027226Y-22933316D01*
X11120635Y-22972007D01*
X11283482Y-23004400D01*
X11449518Y-23004400D01*
X11612365Y-22972007D01*
X11765763Y-22908468D01*
X11903817Y-22816223D01*
X12001500Y-22718540D01*
X12099183Y-22816223D01*
X12237237Y-22908468D01*
X12390635Y-22972007D01*
X12553482Y-23004400D01*
X12719518Y-23004400D01*
X12882365Y-22972007D01*
X13035763Y-22908468D01*
X13173817Y-22816223D01*
X13271500Y-22718540D01*
X13369183Y-22816223D01*
X13507237Y-22908468D01*
X13660635Y-22972007D01*
X13823482Y-23004400D01*
X13989518Y-23004400D01*
X14152365Y-22972007D01*
X14305763Y-22908468D01*
X14443817Y-22816223D01*
X14541500Y-22718540D01*
X14639183Y-22816223D01*
X14777237Y-22908468D01*
X14930635Y-22972007D01*
X15093482Y-23004400D01*
X15259518Y-23004400D01*
X15422365Y-22972007D01*
X15575763Y-22908468D01*
X15713817Y-22816223D01*
X15831223Y-22698817D01*
X15923468Y-22560763D01*
X15987007Y-22407365D01*
X16019400Y-22244518D01*
X16019400Y-22078482D01*
X15997850Y-21970141D01*
X20218600Y-21970141D01*
X20218600Y-22352859D01*
X20293264Y-22728223D01*
X20439724Y-23081808D01*
X20652351Y-23400027D01*
X20922973Y-23670649D01*
X21241192Y-23883276D01*
X21594777Y-24029736D01*
X21970141Y-24104400D01*
X22352859Y-24104400D01*
X22728223Y-24029736D01*
X23081808Y-23883276D01*
X23400027Y-23670649D01*
X23670649Y-23400027D01*
X23883276Y-23081808D01*
X24029736Y-22728223D01*
X24104400Y-22352859D01*
X24104400Y-21970141D01*
X24029736Y-21594777D01*
X23883276Y-21241192D01*
X23670649Y-20922973D01*
X23400027Y-20652351D01*
X23081808Y-20439724D01*
X22728223Y-20293264D01*
X22352859Y-20218600D01*
X21970141Y-20218600D01*
X21594777Y-20293264D01*
X21241192Y-20439724D01*
X20922973Y-20652351D01*
X20652351Y-20922973D01*
X20439724Y-21241192D01*
X20293264Y-21594777D01*
X20218600Y-21970141D01*
X15997850Y-21970141D01*
X15987007Y-21915635D01*
X15923468Y-21762237D01*
X15831223Y-21624183D01*
X15713817Y-21506777D01*
X15646400Y-21461730D01*
X15646400Y-21423958D01*
X16813248Y-20257111D01*
X16831177Y-20242397D01*
X16889898Y-20170845D01*
X16933531Y-20089213D01*
X16950288Y-20033972D01*
X16960400Y-20000638D01*
X16969473Y-19908521D01*
X16967200Y-19885444D01*
X16967200Y-17185856D01*
X16969473Y-17162779D01*
X16960400Y-17070663D01*
X16933531Y-16982087D01*
X16924805Y-16965762D01*
X16889898Y-16900455D01*
X16831177Y-16828903D01*
X16813249Y-16814190D01*
X16011593Y-16012534D01*
X16014111Y-16013880D01*
X16052447Y-16034371D01*
X16141023Y-16061240D01*
X16233140Y-16070313D01*
X16256217Y-16068040D01*
X18017162Y-16068040D01*
X18731889Y-16782768D01*
X18746603Y-16800697D01*
X18818155Y-16859418D01*
X18885211Y-16895260D01*
X18899787Y-16903051D01*
X18988363Y-16929920D01*
X19080479Y-16938993D01*
X19103556Y-16936720D01*
X22697223Y-16936720D01*
X22720300Y-16938993D01*
X22743377Y-16936720D01*
X22812416Y-16929920D01*
X22900993Y-16903051D01*
X22982625Y-16859418D01*
X23054177Y-16800697D01*
X23068895Y-16782763D01*
X23795708Y-16055951D01*
X23813637Y-16041237D01*
X23872358Y-15969685D01*
X23915991Y-15888053D01*
X23942860Y-15799476D01*
X23949660Y-15730437D01*
X23949660Y-15730436D01*
X23951933Y-15707360D01*
X23949660Y-15684283D01*
X23949660Y-9603956D01*
X23951933Y-9580879D01*
X23942860Y-9488762D01*
X23932714Y-9455316D01*
X23915991Y-9400187D01*
X23872358Y-9318555D01*
X23813637Y-9247003D01*
X23795708Y-9232289D01*
X23051115Y-8487697D01*
X23036397Y-8469763D01*
X22964845Y-8411042D01*
X22883213Y-8367409D01*
X22794636Y-8340540D01*
X22725597Y-8333740D01*
X22702520Y-8331467D01*
X22679443Y-8333740D01*
X21607997Y-8333740D01*
X21584920Y-8331467D01*
X21492803Y-8340540D01*
X21425253Y-8361031D01*
X21404227Y-8367409D01*
X21322595Y-8411042D01*
X21251043Y-8469763D01*
X21236329Y-8487692D01*
X20561585Y-9162437D01*
X20492549Y-9093401D01*
X20272602Y-8946437D01*
X20028210Y-8845207D01*
X19768764Y-8793600D01*
X19504236Y-8793600D01*
X19244790Y-8845207D01*
X19000398Y-8946437D01*
X18780451Y-9093401D01*
X18593401Y-9280451D01*
X18446437Y-9500398D01*
X18345207Y-9744790D01*
X18293600Y-10004236D01*
X18293600Y-10014142D01*
X18018760Y-9739302D01*
X18018760Y-4871936D01*
X18021033Y-4848859D01*
X18011960Y-4756743D01*
X17985091Y-4668167D01*
X17941458Y-4586535D01*
X17882737Y-4514983D01*
X17864808Y-4500269D01*
X16638581Y-3274043D01*
X16654400Y-3194518D01*
X16654400Y-3028482D01*
X16632850Y-2920141D01*
X20218600Y-2920141D01*
X20218600Y-3302859D01*
X20293264Y-3678223D01*
X20439724Y-4031808D01*
X20652351Y-4350027D01*
X20922973Y-4620649D01*
X21241192Y-4833276D01*
X21594777Y-4979736D01*
X21970141Y-5054400D01*
X22352859Y-5054400D01*
X22728223Y-4979736D01*
X23081808Y-4833276D01*
X23400027Y-4620649D01*
X23670649Y-4350027D01*
X23883276Y-4031808D01*
X24029736Y-3678223D01*
X24104400Y-3302859D01*
X24104400Y-2920141D01*
X24029736Y-2544777D01*
X23883276Y-2191192D01*
X23670649Y-1872973D01*
X23400027Y-1602351D01*
X23081808Y-1389724D01*
X22728223Y-1243264D01*
X22352859Y-1168600D01*
X21970141Y-1168600D01*
X21594777Y-1243264D01*
X21241192Y-1389724D01*
X20922973Y-1602351D01*
X20652351Y-1872973D01*
X20439724Y-2191192D01*
X20293264Y-2544777D01*
X20218600Y-2920141D01*
X16632850Y-2920141D01*
X16622007Y-2865635D01*
X16558468Y-2712237D01*
X16466223Y-2574183D01*
X16348817Y-2456777D01*
X16210763Y-2364532D01*
X16057365Y-2300993D01*
X15894518Y-2268600D01*
X15728482Y-2268600D01*
X15565635Y-2300993D01*
X15412237Y-2364532D01*
X15274183Y-2456777D01*
X15176500Y-2554460D01*
X15078817Y-2456777D01*
X14940763Y-2364532D01*
X14787365Y-2300993D01*
X14624518Y-2268600D01*
X14458482Y-2268600D01*
X14295635Y-2300993D01*
X14142237Y-2364532D01*
X14004183Y-2456777D01*
X13906500Y-2554460D01*
X13808817Y-2456777D01*
X13670763Y-2364532D01*
X13517365Y-2300993D01*
X13354518Y-2268600D01*
X13188482Y-2268600D01*
X13025635Y-2300993D01*
X12872237Y-2364532D01*
X12734183Y-2456777D01*
X12636500Y-2554460D01*
X12538817Y-2456777D01*
X12400763Y-2364532D01*
X12247365Y-2300993D01*
X12084518Y-2268600D01*
X11918482Y-2268600D01*
X11755635Y-2300993D01*
X11602237Y-2364532D01*
X11464183Y-2456777D01*
X11366500Y-2554460D01*
X11268817Y-2456777D01*
X11130763Y-2364532D01*
X10977365Y-2300993D01*
X10814518Y-2268600D01*
X10648482Y-2268600D01*
X10485635Y-2300993D01*
X10392226Y-2339684D01*
X10385930Y-2327905D01*
X10322448Y-2250552D01*
X10245095Y-2187070D01*
X10156844Y-2139898D01*
X10061085Y-2110850D01*
X9961500Y-2101042D01*
X9652000Y-2103500D01*
X9525000Y-2230500D01*
X9525000Y-3048000D01*
X9545000Y-3048000D01*
X9545000Y-3175000D01*
X9525000Y-3175000D01*
X9525000Y-3992500D01*
X9652000Y-4119500D01*
X9961500Y-4121958D01*
X10033915Y-4114826D01*
X8434357Y-5714385D01*
X8416423Y-5729103D01*
X8357702Y-5800655D01*
X8324153Y-5863422D01*
X8314069Y-5882288D01*
X8287200Y-5970864D01*
X8278127Y-6062980D01*
X8280400Y-6086057D01*
X8280401Y-8092213D01*
X8278127Y-8115300D01*
X8287200Y-8207416D01*
X8314069Y-8295992D01*
X8314070Y-8295993D01*
X8357703Y-8377625D01*
X8416424Y-8449177D01*
X8434352Y-8463890D01*
X11732828Y-11762366D01*
X11691973Y-11740529D01*
X11603396Y-11713660D01*
X11534357Y-11706860D01*
X11511280Y-11704587D01*
X11488203Y-11706860D01*
X7371399Y-11706860D01*
X6358950Y-10694412D01*
X6427793Y-10528210D01*
X6479400Y-10268764D01*
X6479400Y-10004236D01*
X6427793Y-9744790D01*
X6326563Y-9500398D01*
X6179599Y-9280451D01*
X5992549Y-9093401D01*
X5772602Y-8946437D01*
X5528210Y-8845207D01*
X5268764Y-8793600D01*
X5020449Y-8793600D01*
X3398024Y-7964509D01*
X3333429Y-7899914D01*
X3138050Y-7769366D01*
X2920956Y-7679442D01*
X2690490Y-7633600D01*
X2455510Y-7633600D01*
X2225044Y-7679442D01*
X2007950Y-7769366D01*
X1812571Y-7899914D01*
X1646414Y-8066071D01*
X1515866Y-8261450D01*
X1425942Y-8478544D01*
X1380100Y-8709010D01*
X1380100Y-8943990D01*
X1425942Y-9174456D01*
X1515866Y-9391550D01*
X1646414Y-9586929D01*
X1812571Y-9753086D01*
X2007950Y-9883634D01*
X2225044Y-9973558D01*
X2357291Y-9999863D01*
X2694025Y-10171941D01*
X2148000Y-10171941D01*
X1997866Y-10186728D01*
X1853503Y-10230520D01*
X1720456Y-10301635D01*
X1603840Y-10397340D01*
X1508135Y-10513956D01*
X1437020Y-10647003D01*
X1393228Y-10791366D01*
X1378441Y-10941500D01*
X367900Y-10941500D01*
X367900Y-2920141D01*
X1168600Y-2920141D01*
X1168600Y-3302859D01*
X1243264Y-3678223D01*
X1389724Y-4031808D01*
X1602351Y-4350027D01*
X1872973Y-4620649D01*
X2191192Y-4833276D01*
X2544777Y-4979736D01*
X2920141Y-5054400D01*
X3302859Y-5054400D01*
X3678223Y-4979736D01*
X4031808Y-4833276D01*
X4350027Y-4620649D01*
X4620649Y-4350027D01*
X4833276Y-4031808D01*
X4979736Y-3678223D01*
X4993007Y-3611500D01*
X8451042Y-3611500D01*
X8460850Y-3711085D01*
X8489898Y-3806844D01*
X8537070Y-3895095D01*
X8600552Y-3972448D01*
X8677905Y-4035930D01*
X8766156Y-4083102D01*
X8861915Y-4112150D01*
X8961500Y-4121958D01*
X9271000Y-4119500D01*
X9398000Y-3992500D01*
X9398000Y-3175000D01*
X8580500Y-3175000D01*
X8453500Y-3302000D01*
X8451042Y-3611500D01*
X4993007Y-3611500D01*
X5054400Y-3302859D01*
X5054400Y-2920141D01*
X4993008Y-2611500D01*
X8451042Y-2611500D01*
X8453500Y-2921000D01*
X8580500Y-3048000D01*
X9398000Y-3048000D01*
X9398000Y-2230500D01*
X9271000Y-2103500D01*
X8961500Y-2101042D01*
X8861915Y-2110850D01*
X8766156Y-2139898D01*
X8677905Y-2187070D01*
X8600552Y-2250552D01*
X8537070Y-2327905D01*
X8489898Y-2416156D01*
X8460850Y-2511915D01*
X8451042Y-2611500D01*
X4993008Y-2611500D01*
X4979736Y-2544777D01*
X4833276Y-2191192D01*
X4620649Y-1872973D01*
X4350027Y-1602351D01*
X4031808Y-1389724D01*
X3678223Y-1243264D01*
X3302859Y-1168600D01*
X2920141Y-1168600D01*
X2544777Y-1243264D01*
X2191192Y-1389724D01*
X1872973Y-1602351D01*
X1602351Y-1872973D01*
X1389724Y-2191192D01*
X1243264Y-2544777D01*
X1168600Y-2920141D01*
X367900Y-2920141D01*
X367900Y-367900D01*
X24905100Y-367900D01*
X24905101Y-24905100D01*
%TA.AperFunction,Conductor*%
D18*
G36*
X24905101Y-24905100D02*
G01*
X367900Y-24905100D01*
X367900Y-21970141D01*
X1168600Y-21970141D01*
X1168600Y-22352859D01*
X1243264Y-22728223D01*
X1389724Y-23081808D01*
X1602351Y-23400027D01*
X1872973Y-23670649D01*
X2191192Y-23883276D01*
X2544777Y-24029736D01*
X2920141Y-24104400D01*
X3302859Y-24104400D01*
X3678223Y-24029736D01*
X4031808Y-23883276D01*
X4350027Y-23670649D01*
X4620649Y-23400027D01*
X4833276Y-23081808D01*
X4979736Y-22728223D01*
X4993007Y-22661500D01*
X9086042Y-22661500D01*
X9095850Y-22761085D01*
X9124898Y-22856844D01*
X9172070Y-22945095D01*
X9235552Y-23022448D01*
X9312905Y-23085930D01*
X9401156Y-23133102D01*
X9496915Y-23162150D01*
X9596500Y-23171958D01*
X9906000Y-23169500D01*
X10033000Y-23042500D01*
X10033000Y-22225000D01*
X9215500Y-22225000D01*
X9088500Y-22352000D01*
X9086042Y-22661500D01*
X4993007Y-22661500D01*
X5054400Y-22352859D01*
X5054400Y-21970141D01*
X4993008Y-21661500D01*
X9086042Y-21661500D01*
X9088500Y-21971000D01*
X9215500Y-22098000D01*
X10033000Y-22098000D01*
X10033000Y-21280500D01*
X9906000Y-21153500D01*
X9596500Y-21151042D01*
X9496915Y-21160850D01*
X9401156Y-21189898D01*
X9312905Y-21237070D01*
X9235552Y-21300552D01*
X9172070Y-21377905D01*
X9124898Y-21466156D01*
X9095850Y-21561915D01*
X9086042Y-21661500D01*
X4993008Y-21661500D01*
X4979736Y-21594777D01*
X4833276Y-21241192D01*
X4620649Y-20922973D01*
X4350027Y-20652351D01*
X4031808Y-20439724D01*
X3678223Y-20293264D01*
X3302859Y-20218600D01*
X2920141Y-20218600D01*
X2544777Y-20293264D01*
X2191192Y-20439724D01*
X1872973Y-20652351D01*
X1602351Y-20922973D01*
X1389724Y-21241192D01*
X1243264Y-21594777D01*
X1168600Y-21970141D01*
X367900Y-21970141D01*
X367900Y-10941500D01*
X1378441Y-10941500D01*
X1378441Y-11791500D01*
X1393228Y-11941634D01*
X1437020Y-12085997D01*
X1508135Y-12219044D01*
X1603840Y-12335660D01*
X1720456Y-12431365D01*
X1853503Y-12502480D01*
X1997866Y-12546272D01*
X2148000Y-12561059D01*
X2409463Y-12561059D01*
X2735399Y-12722533D01*
X2690490Y-12713600D01*
X2455510Y-12713600D01*
X2225044Y-12759442D01*
X2007950Y-12849366D01*
X1812571Y-12979914D01*
X1646414Y-13146071D01*
X1515866Y-13341450D01*
X1425942Y-13558544D01*
X1380100Y-13789010D01*
X1380100Y-14023990D01*
X1425942Y-14254456D01*
X1515866Y-14471550D01*
X1646414Y-14666929D01*
X1812571Y-14833086D01*
X2007950Y-14963634D01*
X2225044Y-15053558D01*
X2389694Y-15086309D01*
X2734896Y-15251941D01*
X2148000Y-15251941D01*
X1997866Y-15266728D01*
X1853503Y-15310520D01*
X1720456Y-15381635D01*
X1603840Y-15477340D01*
X1508135Y-15593956D01*
X1437020Y-15727003D01*
X1393228Y-15871366D01*
X1378441Y-16021500D01*
X1378441Y-16871500D01*
X1393228Y-17021634D01*
X1437020Y-17165997D01*
X1508135Y-17299044D01*
X1603840Y-17415660D01*
X1720456Y-17511365D01*
X1853503Y-17582480D01*
X1997866Y-17626272D01*
X2148000Y-17641059D01*
X2998000Y-17641059D01*
X3148134Y-17626272D01*
X3292497Y-17582480D01*
X3425544Y-17511365D01*
X3542160Y-17415660D01*
X3637865Y-17299044D01*
X3708980Y-17165997D01*
X3752772Y-17021634D01*
X3760135Y-16946880D01*
X6013122Y-16946880D01*
X10253371Y-21187129D01*
X10160000Y-21280500D01*
X10160000Y-22098000D01*
X10180000Y-22098000D01*
X10180000Y-22225000D01*
X10160000Y-22225000D01*
X10160000Y-23042500D01*
X10287000Y-23169500D01*
X10596500Y-23171958D01*
X10696085Y-23162150D01*
X10791844Y-23133102D01*
X10880095Y-23085930D01*
X10957448Y-23022448D01*
X11020930Y-22945095D01*
X11027226Y-22933316D01*
X11120635Y-22972007D01*
X11283482Y-23004400D01*
X11449518Y-23004400D01*
X11612365Y-22972007D01*
X11765763Y-22908468D01*
X11903817Y-22816223D01*
X12001500Y-22718540D01*
X12099183Y-22816223D01*
X12237237Y-22908468D01*
X12390635Y-22972007D01*
X12553482Y-23004400D01*
X12719518Y-23004400D01*
X12882365Y-22972007D01*
X13035763Y-22908468D01*
X13173817Y-22816223D01*
X13271500Y-22718540D01*
X13369183Y-22816223D01*
X13507237Y-22908468D01*
X13660635Y-22972007D01*
X13823482Y-23004400D01*
X13989518Y-23004400D01*
X14152365Y-22972007D01*
X14305763Y-22908468D01*
X14443817Y-22816223D01*
X14541500Y-22718540D01*
X14639183Y-22816223D01*
X14777237Y-22908468D01*
X14930635Y-22972007D01*
X15093482Y-23004400D01*
X15259518Y-23004400D01*
X15422365Y-22972007D01*
X15575763Y-22908468D01*
X15713817Y-22816223D01*
X15831223Y-22698817D01*
X15923468Y-22560763D01*
X15987007Y-22407365D01*
X16019400Y-22244518D01*
X16019400Y-22078482D01*
X15997850Y-21970141D01*
X20218600Y-21970141D01*
X20218600Y-22352859D01*
X20293264Y-22728223D01*
X20439724Y-23081808D01*
X20652351Y-23400027D01*
X20922973Y-23670649D01*
X21241192Y-23883276D01*
X21594777Y-24029736D01*
X21970141Y-24104400D01*
X22352859Y-24104400D01*
X22728223Y-24029736D01*
X23081808Y-23883276D01*
X23400027Y-23670649D01*
X23670649Y-23400027D01*
X23883276Y-23081808D01*
X24029736Y-22728223D01*
X24104400Y-22352859D01*
X24104400Y-21970141D01*
X24029736Y-21594777D01*
X23883276Y-21241192D01*
X23670649Y-20922973D01*
X23400027Y-20652351D01*
X23081808Y-20439724D01*
X22728223Y-20293264D01*
X22352859Y-20218600D01*
X21970141Y-20218600D01*
X21594777Y-20293264D01*
X21241192Y-20439724D01*
X20922973Y-20652351D01*
X20652351Y-20922973D01*
X20439724Y-21241192D01*
X20293264Y-21594777D01*
X20218600Y-21970141D01*
X15997850Y-21970141D01*
X15987007Y-21915635D01*
X15923468Y-21762237D01*
X15831223Y-21624183D01*
X15713817Y-21506777D01*
X15646400Y-21461730D01*
X15646400Y-21423958D01*
X16813248Y-20257111D01*
X16831177Y-20242397D01*
X16889898Y-20170845D01*
X16933531Y-20089213D01*
X16950288Y-20033972D01*
X16960400Y-20000638D01*
X16969473Y-19908521D01*
X16967200Y-19885444D01*
X16967200Y-17185856D01*
X16969473Y-17162779D01*
X16960400Y-17070663D01*
X16933531Y-16982087D01*
X16924805Y-16965762D01*
X16889898Y-16900455D01*
X16831177Y-16828903D01*
X16813249Y-16814190D01*
X16011593Y-16012534D01*
X16014111Y-16013880D01*
X16052447Y-16034371D01*
X16141023Y-16061240D01*
X16233140Y-16070313D01*
X16256217Y-16068040D01*
X18017162Y-16068040D01*
X18731889Y-16782768D01*
X18746603Y-16800697D01*
X18818155Y-16859418D01*
X18885211Y-16895260D01*
X18899787Y-16903051D01*
X18988363Y-16929920D01*
X19080479Y-16938993D01*
X19103556Y-16936720D01*
X22697223Y-16936720D01*
X22720300Y-16938993D01*
X22743377Y-16936720D01*
X22812416Y-16929920D01*
X22900993Y-16903051D01*
X22982625Y-16859418D01*
X23054177Y-16800697D01*
X23068895Y-16782763D01*
X23795708Y-16055951D01*
X23813637Y-16041237D01*
X23872358Y-15969685D01*
X23915991Y-15888053D01*
X23942860Y-15799476D01*
X23949660Y-15730437D01*
X23949660Y-15730436D01*
X23951933Y-15707360D01*
X23949660Y-15684283D01*
X23949660Y-9603956D01*
X23951933Y-9580879D01*
X23942860Y-9488762D01*
X23932714Y-9455316D01*
X23915991Y-9400187D01*
X23872358Y-9318555D01*
X23813637Y-9247003D01*
X23795708Y-9232289D01*
X23051115Y-8487697D01*
X23036397Y-8469763D01*
X22964845Y-8411042D01*
X22883213Y-8367409D01*
X22794636Y-8340540D01*
X22725597Y-8333740D01*
X22702520Y-8331467D01*
X22679443Y-8333740D01*
X21607997Y-8333740D01*
X21584920Y-8331467D01*
X21492803Y-8340540D01*
X21425253Y-8361031D01*
X21404227Y-8367409D01*
X21322595Y-8411042D01*
X21251043Y-8469763D01*
X21236329Y-8487692D01*
X20561585Y-9162437D01*
X20492549Y-9093401D01*
X20272602Y-8946437D01*
X20028210Y-8845207D01*
X19768764Y-8793600D01*
X19504236Y-8793600D01*
X19244790Y-8845207D01*
X19000398Y-8946437D01*
X18780451Y-9093401D01*
X18593401Y-9280451D01*
X18446437Y-9500398D01*
X18345207Y-9744790D01*
X18293600Y-10004236D01*
X18293600Y-10014142D01*
X18018760Y-9739302D01*
X18018760Y-4871936D01*
X18021033Y-4848859D01*
X18011960Y-4756743D01*
X17985091Y-4668167D01*
X17941458Y-4586535D01*
X17882737Y-4514983D01*
X17864808Y-4500269D01*
X16638581Y-3274043D01*
X16654400Y-3194518D01*
X16654400Y-3028482D01*
X16632850Y-2920141D01*
X20218600Y-2920141D01*
X20218600Y-3302859D01*
X20293264Y-3678223D01*
X20439724Y-4031808D01*
X20652351Y-4350027D01*
X20922973Y-4620649D01*
X21241192Y-4833276D01*
X21594777Y-4979736D01*
X21970141Y-5054400D01*
X22352859Y-5054400D01*
X22728223Y-4979736D01*
X23081808Y-4833276D01*
X23400027Y-4620649D01*
X23670649Y-4350027D01*
X23883276Y-4031808D01*
X24029736Y-3678223D01*
X24104400Y-3302859D01*
X24104400Y-2920141D01*
X24029736Y-2544777D01*
X23883276Y-2191192D01*
X23670649Y-1872973D01*
X23400027Y-1602351D01*
X23081808Y-1389724D01*
X22728223Y-1243264D01*
X22352859Y-1168600D01*
X21970141Y-1168600D01*
X21594777Y-1243264D01*
X21241192Y-1389724D01*
X20922973Y-1602351D01*
X20652351Y-1872973D01*
X20439724Y-2191192D01*
X20293264Y-2544777D01*
X20218600Y-2920141D01*
X16632850Y-2920141D01*
X16622007Y-2865635D01*
X16558468Y-2712237D01*
X16466223Y-2574183D01*
X16348817Y-2456777D01*
X16210763Y-2364532D01*
X16057365Y-2300993D01*
X15894518Y-2268600D01*
X15728482Y-2268600D01*
X15565635Y-2300993D01*
X15412237Y-2364532D01*
X15274183Y-2456777D01*
X15176500Y-2554460D01*
X15078817Y-2456777D01*
X14940763Y-2364532D01*
X14787365Y-2300993D01*
X14624518Y-2268600D01*
X14458482Y-2268600D01*
X14295635Y-2300993D01*
X14142237Y-2364532D01*
X14004183Y-2456777D01*
X13906500Y-2554460D01*
X13808817Y-2456777D01*
X13670763Y-2364532D01*
X13517365Y-2300993D01*
X13354518Y-2268600D01*
X13188482Y-2268600D01*
X13025635Y-2300993D01*
X12872237Y-2364532D01*
X12734183Y-2456777D01*
X12636500Y-2554460D01*
X12538817Y-2456777D01*
X12400763Y-2364532D01*
X12247365Y-2300993D01*
X12084518Y-2268600D01*
X11918482Y-2268600D01*
X11755635Y-2300993D01*
X11602237Y-2364532D01*
X11464183Y-2456777D01*
X11366500Y-2554460D01*
X11268817Y-2456777D01*
X11130763Y-2364532D01*
X10977365Y-2300993D01*
X10814518Y-2268600D01*
X10648482Y-2268600D01*
X10485635Y-2300993D01*
X10392226Y-2339684D01*
X10385930Y-2327905D01*
X10322448Y-2250552D01*
X10245095Y-2187070D01*
X10156844Y-2139898D01*
X10061085Y-2110850D01*
X9961500Y-2101042D01*
X9652000Y-2103500D01*
X9525000Y-2230500D01*
X9525000Y-3048000D01*
X9545000Y-3048000D01*
X9545000Y-3175000D01*
X9525000Y-3175000D01*
X9525000Y-3992500D01*
X9652000Y-4119500D01*
X9961500Y-4121958D01*
X10033915Y-4114826D01*
X8434357Y-5714385D01*
X8416423Y-5729103D01*
X8357702Y-5800655D01*
X8324153Y-5863422D01*
X8314069Y-5882288D01*
X8287200Y-5970864D01*
X8278127Y-6062980D01*
X8280400Y-6086057D01*
X8280401Y-8092213D01*
X8278127Y-8115300D01*
X8287200Y-8207416D01*
X8314069Y-8295992D01*
X8314070Y-8295993D01*
X8357703Y-8377625D01*
X8416424Y-8449177D01*
X8434352Y-8463890D01*
X11732828Y-11762366D01*
X11691973Y-11740529D01*
X11603396Y-11713660D01*
X11534357Y-11706860D01*
X11511280Y-11704587D01*
X11488203Y-11706860D01*
X7371399Y-11706860D01*
X6358950Y-10694412D01*
X6427793Y-10528210D01*
X6479400Y-10268764D01*
X6479400Y-10004236D01*
X6427793Y-9744790D01*
X6326563Y-9500398D01*
X6179599Y-9280451D01*
X5992549Y-9093401D01*
X5772602Y-8946437D01*
X5528210Y-8845207D01*
X5268764Y-8793600D01*
X5020449Y-8793600D01*
X3398024Y-7964509D01*
X3333429Y-7899914D01*
X3138050Y-7769366D01*
X2920956Y-7679442D01*
X2690490Y-7633600D01*
X2455510Y-7633600D01*
X2225044Y-7679442D01*
X2007950Y-7769366D01*
X1812571Y-7899914D01*
X1646414Y-8066071D01*
X1515866Y-8261450D01*
X1425942Y-8478544D01*
X1380100Y-8709010D01*
X1380100Y-8943990D01*
X1425942Y-9174456D01*
X1515866Y-9391550D01*
X1646414Y-9586929D01*
X1812571Y-9753086D01*
X2007950Y-9883634D01*
X2225044Y-9973558D01*
X2357291Y-9999863D01*
X2694025Y-10171941D01*
X2148000Y-10171941D01*
X1997866Y-10186728D01*
X1853503Y-10230520D01*
X1720456Y-10301635D01*
X1603840Y-10397340D01*
X1508135Y-10513956D01*
X1437020Y-10647003D01*
X1393228Y-10791366D01*
X1378441Y-10941500D01*
X367900Y-10941500D01*
X367900Y-2920141D01*
X1168600Y-2920141D01*
X1168600Y-3302859D01*
X1243264Y-3678223D01*
X1389724Y-4031808D01*
X1602351Y-4350027D01*
X1872973Y-4620649D01*
X2191192Y-4833276D01*
X2544777Y-4979736D01*
X2920141Y-5054400D01*
X3302859Y-5054400D01*
X3678223Y-4979736D01*
X4031808Y-4833276D01*
X4350027Y-4620649D01*
X4620649Y-4350027D01*
X4833276Y-4031808D01*
X4979736Y-3678223D01*
X4993007Y-3611500D01*
X8451042Y-3611500D01*
X8460850Y-3711085D01*
X8489898Y-3806844D01*
X8537070Y-3895095D01*
X8600552Y-3972448D01*
X8677905Y-4035930D01*
X8766156Y-4083102D01*
X8861915Y-4112150D01*
X8961500Y-4121958D01*
X9271000Y-4119500D01*
X9398000Y-3992500D01*
X9398000Y-3175000D01*
X8580500Y-3175000D01*
X8453500Y-3302000D01*
X8451042Y-3611500D01*
X4993007Y-3611500D01*
X5054400Y-3302859D01*
X5054400Y-2920141D01*
X4993008Y-2611500D01*
X8451042Y-2611500D01*
X8453500Y-2921000D01*
X8580500Y-3048000D01*
X9398000Y-3048000D01*
X9398000Y-2230500D01*
X9271000Y-2103500D01*
X8961500Y-2101042D01*
X8861915Y-2110850D01*
X8766156Y-2139898D01*
X8677905Y-2187070D01*
X8600552Y-2250552D01*
X8537070Y-2327905D01*
X8489898Y-2416156D01*
X8460850Y-2511915D01*
X8451042Y-2611500D01*
X4993008Y-2611500D01*
X4979736Y-2544777D01*
X4833276Y-2191192D01*
X4620649Y-1872973D01*
X4350027Y-1602351D01*
X4031808Y-1389724D01*
X3678223Y-1243264D01*
X3302859Y-1168600D01*
X2920141Y-1168600D01*
X2544777Y-1243264D01*
X2191192Y-1389724D01*
X1872973Y-1602351D01*
X1602351Y-1872973D01*
X1389724Y-2191192D01*
X1243264Y-2544777D01*
X1168600Y-2920141D01*
X367900Y-2920141D01*
X367900Y-367900D01*
X24905100Y-367900D01*
X24905101Y-24905100D01*
G37*
%TD.AperFunction*%
D16*
X15570200Y-17552999D02*
X15570201Y-19523380D01*
X13762939Y-21330643D01*
X13660635Y-21350993D01*
X13507237Y-21414532D01*
X13369183Y-21506777D01*
X13271500Y-21604460D01*
X13173817Y-21506777D01*
X13035763Y-21414532D01*
X12882365Y-21350993D01*
X12719518Y-21318600D01*
X12553482Y-21318600D01*
X12395570Y-21350011D01*
X10282059Y-19236500D01*
X10526042Y-19236500D01*
X10535850Y-19336085D01*
X10564898Y-19431844D01*
X10612070Y-19520095D01*
X10675552Y-19597448D01*
X10752905Y-19660930D01*
X10841156Y-19708102D01*
X10936915Y-19737150D01*
X11036500Y-19746958D01*
X12446000Y-19744500D01*
X12573000Y-19617500D01*
X12573000Y-18300000D01*
X12700000Y-18300000D01*
X12700000Y-19617500D01*
X12827000Y-19744500D01*
X14236500Y-19746958D01*
X14336085Y-19737150D01*
X14431844Y-19708102D01*
X14520095Y-19660930D01*
X14597448Y-19597448D01*
X14660930Y-19520095D01*
X14708102Y-19431844D01*
X14737150Y-19336085D01*
X14746958Y-19236500D01*
X14744500Y-18427000D01*
X14617500Y-18300000D01*
X12700000Y-18300000D01*
X12573000Y-18300000D01*
X10655500Y-18300000D01*
X10528500Y-18427000D01*
X10526042Y-19236500D01*
X10282059Y-19236500D01*
X8282059Y-17236500D01*
X10526042Y-17236500D01*
X10528500Y-18046000D01*
X10655500Y-18173000D01*
X12573000Y-18173000D01*
X12573000Y-16855500D01*
X12700000Y-16855500D01*
X12700000Y-18173000D01*
X14617500Y-18173000D01*
X14744500Y-18046000D01*
X14746958Y-17236500D01*
X14737150Y-17136915D01*
X14708102Y-17041156D01*
X14660930Y-16952905D01*
X14597448Y-16875552D01*
X14520095Y-16812070D01*
X14431844Y-16764898D01*
X14336085Y-16735850D01*
X14236500Y-16726042D01*
X12827000Y-16728500D01*
X12700000Y-16855500D01*
X12573000Y-16855500D01*
X12446000Y-16728500D01*
X11036500Y-16726042D01*
X10936915Y-16735850D01*
X10841156Y-16764898D01*
X10752905Y-16812070D01*
X10675552Y-16875552D01*
X10612070Y-16952905D01*
X10564898Y-17041156D01*
X10535850Y-17136915D01*
X10526042Y-17236500D01*
X8282059Y-17236500D01*
X6452012Y-15406454D01*
X6479400Y-15268764D01*
X6479400Y-15004236D01*
X6427793Y-14744790D01*
X6326563Y-14500398D01*
X6179599Y-14280451D01*
X5992549Y-14093401D01*
X5800276Y-13964928D01*
X5801265Y-13964831D01*
X5959699Y-13916771D01*
X6105712Y-13838725D01*
X6233693Y-13733693D01*
X6338725Y-13605712D01*
X6416771Y-13459699D01*
X6464831Y-13301265D01*
X6481059Y-13136500D01*
X6481059Y-13106400D01*
X11123602Y-13106400D01*
X15570200Y-17552999D01*
%TA.AperFunction,Conductor*%
D18*
G36*
X15570200Y-17552999D02*
G01*
X15570201Y-19523380D01*
X13762939Y-21330643D01*
X13660635Y-21350993D01*
X13507237Y-21414532D01*
X13369183Y-21506777D01*
X13271500Y-21604460D01*
X13173817Y-21506777D01*
X13035763Y-21414532D01*
X12882365Y-21350993D01*
X12719518Y-21318600D01*
X12553482Y-21318600D01*
X12395570Y-21350011D01*
X10282059Y-19236500D01*
X10526042Y-19236500D01*
X10535850Y-19336085D01*
X10564898Y-19431844D01*
X10612070Y-19520095D01*
X10675552Y-19597448D01*
X10752905Y-19660930D01*
X10841156Y-19708102D01*
X10936915Y-19737150D01*
X11036500Y-19746958D01*
X12446000Y-19744500D01*
X12573000Y-19617500D01*
X12573000Y-18300000D01*
X12700000Y-18300000D01*
X12700000Y-19617500D01*
X12827000Y-19744500D01*
X14236500Y-19746958D01*
X14336085Y-19737150D01*
X14431844Y-19708102D01*
X14520095Y-19660930D01*
X14597448Y-19597448D01*
X14660930Y-19520095D01*
X14708102Y-19431844D01*
X14737150Y-19336085D01*
X14746958Y-19236500D01*
X14744500Y-18427000D01*
X14617500Y-18300000D01*
X12700000Y-18300000D01*
X12573000Y-18300000D01*
X10655500Y-18300000D01*
X10528500Y-18427000D01*
X10526042Y-19236500D01*
X10282059Y-19236500D01*
X8282059Y-17236500D01*
X10526042Y-17236500D01*
X10528500Y-18046000D01*
X10655500Y-18173000D01*
X12573000Y-18173000D01*
X12573000Y-16855500D01*
X12700000Y-16855500D01*
X12700000Y-18173000D01*
X14617500Y-18173000D01*
X14744500Y-18046000D01*
X14746958Y-17236500D01*
X14737150Y-17136915D01*
X14708102Y-17041156D01*
X14660930Y-16952905D01*
X14597448Y-16875552D01*
X14520095Y-16812070D01*
X14431844Y-16764898D01*
X14336085Y-16735850D01*
X14236500Y-16726042D01*
X12827000Y-16728500D01*
X12700000Y-16855500D01*
X12573000Y-16855500D01*
X12446000Y-16728500D01*
X11036500Y-16726042D01*
X10936915Y-16735850D01*
X10841156Y-16764898D01*
X10752905Y-16812070D01*
X10675552Y-16875552D01*
X10612070Y-16952905D01*
X10564898Y-17041156D01*
X10535850Y-17136915D01*
X10526042Y-17236500D01*
X8282059Y-17236500D01*
X6452012Y-15406454D01*
X6479400Y-15268764D01*
X6479400Y-15004236D01*
X6427793Y-14744790D01*
X6326563Y-14500398D01*
X6179599Y-14280451D01*
X5992549Y-14093401D01*
X5800276Y-13964928D01*
X5801265Y-13964831D01*
X5959699Y-13916771D01*
X6105712Y-13838725D01*
X6233693Y-13733693D01*
X6338725Y-13605712D01*
X6416771Y-13459699D01*
X6464831Y-13301265D01*
X6481059Y-13136500D01*
X6481059Y-13106400D01*
X11123602Y-13106400D01*
X15570200Y-17552999D01*
G37*
%TD.AperFunction*%
D16*
X12734183Y-3766223D02*
X12872237Y-3858468D01*
X13025635Y-3922007D01*
X13153305Y-3947403D01*
X15699741Y-6493840D01*
X15699740Y-10479823D01*
X15697467Y-10502900D01*
X15706540Y-10595016D01*
X15721319Y-10643737D01*
X15733409Y-10683592D01*
X15777042Y-10765225D01*
X15835763Y-10836777D01*
X15853697Y-10851495D01*
X18157850Y-13155648D01*
X18172563Y-13173577D01*
X18244115Y-13232298D01*
X18325747Y-13275931D01*
X18380876Y-13292654D01*
X18414322Y-13302800D01*
X18506439Y-13311873D01*
X18529516Y-13309600D01*
X19378602Y-13309600D01*
X19686929Y-13617928D01*
X19701643Y-13635857D01*
X19773195Y-13694578D01*
X19846374Y-13733693D01*
X19854827Y-13738211D01*
X19943403Y-13765080D01*
X20035520Y-13774153D01*
X20058597Y-13771880D01*
X20432702Y-13771880D01*
X21032467Y-14371645D01*
X20946437Y-14500398D01*
X20886500Y-14645099D01*
X20826563Y-14500398D01*
X20679599Y-14280451D01*
X20492549Y-14093401D01*
X20272602Y-13946437D01*
X20028210Y-13845207D01*
X19768764Y-13793600D01*
X19504236Y-13793600D01*
X19244790Y-13845207D01*
X19000398Y-13946437D01*
X18780451Y-14093401D01*
X18593401Y-14280451D01*
X18446437Y-14500398D01*
X18377594Y-14666600D01*
X16613839Y-14666600D01*
X9983739Y-8036500D01*
X10526042Y-8036500D01*
X10535850Y-8136085D01*
X10564898Y-8231844D01*
X10612070Y-8320095D01*
X10675552Y-8397448D01*
X10752905Y-8460930D01*
X10841156Y-8508102D01*
X10936915Y-8537150D01*
X11036500Y-8546958D01*
X12446000Y-8544500D01*
X12573000Y-8417500D01*
X12573000Y-7100000D01*
X12700000Y-7100000D01*
X12700000Y-8417500D01*
X12827000Y-8544500D01*
X14236500Y-8546958D01*
X14336085Y-8537150D01*
X14431844Y-8508102D01*
X14520095Y-8460930D01*
X14597448Y-8397448D01*
X14660930Y-8320095D01*
X14708102Y-8231844D01*
X14737150Y-8136085D01*
X14746958Y-8036500D01*
X14744500Y-7227000D01*
X14617500Y-7100000D01*
X12700000Y-7100000D01*
X12573000Y-7100000D01*
X10655500Y-7100000D01*
X10528500Y-7227000D01*
X10526042Y-8036500D01*
X9983739Y-8036500D01*
X9677400Y-7730162D01*
X9677400Y-6450658D01*
X10091558Y-6036500D01*
X10526042Y-6036500D01*
X10528500Y-6846000D01*
X10655500Y-6973000D01*
X12573000Y-6973000D01*
X12573000Y-5655500D01*
X12700000Y-5655500D01*
X12700000Y-6973000D01*
X14617500Y-6973000D01*
X14744500Y-6846000D01*
X14746958Y-6036500D01*
X14737150Y-5936915D01*
X14708102Y-5841156D01*
X14660930Y-5752905D01*
X14597448Y-5675552D01*
X14520095Y-5612070D01*
X14431844Y-5564898D01*
X14336085Y-5535850D01*
X14236500Y-5526042D01*
X12827000Y-5528500D01*
X12700000Y-5655500D01*
X12573000Y-5655500D01*
X12446000Y-5528500D01*
X11036500Y-5526042D01*
X10936915Y-5535850D01*
X10841156Y-5564898D01*
X10752905Y-5612070D01*
X10675552Y-5675552D01*
X10612070Y-5752905D01*
X10564898Y-5841156D01*
X10535850Y-5936915D01*
X10526042Y-6036500D01*
X10091558Y-6036500D01*
X12195794Y-3932265D01*
X12247365Y-3922007D01*
X12400763Y-3858468D01*
X12538817Y-3766223D01*
X12636500Y-3668540D01*
X12734183Y-3766223D01*
%TA.AperFunction,Conductor*%
D18*
G36*
X12734183Y-3766223D02*
G01*
X12872237Y-3858468D01*
X13025635Y-3922007D01*
X13153305Y-3947403D01*
X15699741Y-6493840D01*
X15699740Y-10479823D01*
X15697467Y-10502900D01*
X15706540Y-10595016D01*
X15721319Y-10643737D01*
X15733409Y-10683592D01*
X15777042Y-10765225D01*
X15835763Y-10836777D01*
X15853697Y-10851495D01*
X18157850Y-13155648D01*
X18172563Y-13173577D01*
X18244115Y-13232298D01*
X18325747Y-13275931D01*
X18380876Y-13292654D01*
X18414322Y-13302800D01*
X18506439Y-13311873D01*
X18529516Y-13309600D01*
X19378602Y-13309600D01*
X19686929Y-13617928D01*
X19701643Y-13635857D01*
X19773195Y-13694578D01*
X19846374Y-13733693D01*
X19854827Y-13738211D01*
X19943403Y-13765080D01*
X20035520Y-13774153D01*
X20058597Y-13771880D01*
X20432702Y-13771880D01*
X21032467Y-14371645D01*
X20946437Y-14500398D01*
X20886500Y-14645099D01*
X20826563Y-14500398D01*
X20679599Y-14280451D01*
X20492549Y-14093401D01*
X20272602Y-13946437D01*
X20028210Y-13845207D01*
X19768764Y-13793600D01*
X19504236Y-13793600D01*
X19244790Y-13845207D01*
X19000398Y-13946437D01*
X18780451Y-14093401D01*
X18593401Y-14280451D01*
X18446437Y-14500398D01*
X18377594Y-14666600D01*
X16613839Y-14666600D01*
X9983739Y-8036500D01*
X10526042Y-8036500D01*
X10535850Y-8136085D01*
X10564898Y-8231844D01*
X10612070Y-8320095D01*
X10675552Y-8397448D01*
X10752905Y-8460930D01*
X10841156Y-8508102D01*
X10936915Y-8537150D01*
X11036500Y-8546958D01*
X12446000Y-8544500D01*
X12573000Y-8417500D01*
X12573000Y-7100000D01*
X12700000Y-7100000D01*
X12700000Y-8417500D01*
X12827000Y-8544500D01*
X14236500Y-8546958D01*
X14336085Y-8537150D01*
X14431844Y-8508102D01*
X14520095Y-8460930D01*
X14597448Y-8397448D01*
X14660930Y-8320095D01*
X14708102Y-8231844D01*
X14737150Y-8136085D01*
X14746958Y-8036500D01*
X14744500Y-7227000D01*
X14617500Y-7100000D01*
X12700000Y-7100000D01*
X12573000Y-7100000D01*
X10655500Y-7100000D01*
X10528500Y-7227000D01*
X10526042Y-8036500D01*
X9983739Y-8036500D01*
X9677400Y-7730162D01*
X9677400Y-6450658D01*
X10091558Y-6036500D01*
X10526042Y-6036500D01*
X10528500Y-6846000D01*
X10655500Y-6973000D01*
X12573000Y-6973000D01*
X12573000Y-5655500D01*
X12700000Y-5655500D01*
X12700000Y-6973000D01*
X14617500Y-6973000D01*
X14744500Y-6846000D01*
X14746958Y-6036500D01*
X14737150Y-5936915D01*
X14708102Y-5841156D01*
X14660930Y-5752905D01*
X14597448Y-5675552D01*
X14520095Y-5612070D01*
X14431844Y-5564898D01*
X14336085Y-5535850D01*
X14236500Y-5526042D01*
X12827000Y-5528500D01*
X12700000Y-5655500D01*
X12573000Y-5655500D01*
X12446000Y-5528500D01*
X11036500Y-5526042D01*
X10936915Y-5535850D01*
X10841156Y-5564898D01*
X10752905Y-5612070D01*
X10675552Y-5675552D01*
X10612070Y-5752905D01*
X10564898Y-5841156D01*
X10535850Y-5936915D01*
X10526042Y-6036500D01*
X10091558Y-6036500D01*
X12195794Y-3932265D01*
X12247365Y-3922007D01*
X12400763Y-3858468D01*
X12538817Y-3766223D01*
X12636500Y-3668540D01*
X12734183Y-3766223D01*
G37*
%TD.AperFunction*%
D16*
X21280451Y-11179599D02*
X21472724Y-11308072D01*
X21471735Y-11308169D01*
X21313301Y-11356229D01*
X21167288Y-11434275D01*
X21039307Y-11539307D01*
X20934275Y-11667288D01*
X20856229Y-11813301D01*
X20808169Y-11971735D01*
X20791941Y-12136500D01*
X20791941Y-12374880D01*
X20423199Y-12374880D01*
X20114875Y-12066557D01*
X20100157Y-12048623D01*
X20028605Y-11989902D01*
X19946973Y-11946269D01*
X19919713Y-11938000D01*
X20164843Y-11938000D01*
X20187920Y-11940273D01*
X20210997Y-11938000D01*
X20280036Y-11931200D01*
X20368613Y-11904331D01*
X20450245Y-11860698D01*
X20521797Y-11801977D01*
X20536515Y-11784043D01*
X21210705Y-11109853D01*
X21280451Y-11179599D01*
%TA.AperFunction,Conductor*%
D18*
G36*
X21280451Y-11179599D02*
G01*
X21472724Y-11308072D01*
X21471735Y-11308169D01*
X21313301Y-11356229D01*
X21167288Y-11434275D01*
X21039307Y-11539307D01*
X20934275Y-11667288D01*
X20856229Y-11813301D01*
X20808169Y-11971735D01*
X20791941Y-12136500D01*
X20791941Y-12374880D01*
X20423199Y-12374880D01*
X20114875Y-12066557D01*
X20100157Y-12048623D01*
X20028605Y-11989902D01*
X19946973Y-11946269D01*
X19919713Y-11938000D01*
X20164843Y-11938000D01*
X20187920Y-11940273D01*
X20210997Y-11938000D01*
X20280036Y-11931200D01*
X20368613Y-11904331D01*
X20450245Y-11860698D01*
X20521797Y-11801977D01*
X20536515Y-11784043D01*
X21210705Y-11109853D01*
X21280451Y-11179599D01*
G37*
%TD.AperFunction*%
D16*
X18902327Y-11904331D02*
X18929586Y-11912600D01*
X18894119Y-11912600D01*
X18866929Y-11885410D01*
X18902327Y-11904331D01*
%TA.AperFunction,Conductor*%
D18*
G36*
X18902327Y-11904331D02*
G01*
X18929586Y-11912600D01*
X18894119Y-11912600D01*
X18866929Y-11885410D01*
X18902327Y-11904331D01*
G37*
%TD.AperFunction*%
D16*
X17098080Y-10066669D02*
X17112629Y-10114632D01*
X17131551Y-10150033D01*
X17096740Y-10115222D01*
X17096740Y-10062253D01*
X17098080Y-10066669D01*
%TA.AperFunction,Conductor*%
D18*
G36*
X17098080Y-10066669D02*
G01*
X17112629Y-10114632D01*
X17131551Y-10150033D01*
X17096740Y-10115222D01*
X17096740Y-10062253D01*
X17098080Y-10066669D01*
G37*
%TD.AperFunction*%
D16*
X15274183Y-3766223D02*
X15412237Y-3858468D01*
X15565635Y-3922007D01*
X15728482Y-3954400D01*
X15894518Y-3954400D01*
X15974043Y-3938581D01*
X17078961Y-5043500D01*
X17078961Y-5980389D01*
X17063071Y-5928007D01*
X17059937Y-5922143D01*
X17019438Y-5846375D01*
X16960717Y-5774823D01*
X16942788Y-5760109D01*
X15011400Y-3828722D01*
X15011400Y-3811270D01*
X15078817Y-3766223D01*
X15176500Y-3668540D01*
X15274183Y-3766223D01*
%TA.AperFunction,Conductor*%
D18*
G36*
X15274183Y-3766223D02*
G01*
X15412237Y-3858468D01*
X15565635Y-3922007D01*
X15728482Y-3954400D01*
X15894518Y-3954400D01*
X15974043Y-3938581D01*
X17078961Y-5043500D01*
X17078961Y-5980389D01*
X17063071Y-5928007D01*
X17059937Y-5922143D01*
X17019438Y-5846375D01*
X16960717Y-5774823D01*
X16942788Y-5760109D01*
X15011400Y-3828722D01*
X15011400Y-3811270D01*
X15078817Y-3766223D01*
X15176500Y-3668540D01*
X15274183Y-3766223D01*
G37*
%TD.AperFunction*%
%TD*%
M02*
